<svg width="32" height="32" viewBox="0 0 32 32" fill="none" xmlns="http://www.w3.org/2000/svg">
<path d="M15.9645 2.00385C15.9645 2.00385 24.2167 1.63486 28.5918 9.89993H15.2623C15.2623 9.89993 12.7468 9.81914 10.598 12.86C9.98069 14.1363 9.31718 15.451 10.0618 18.0421C8.98916 16.2314 4.36731 8.21237 4.36731 8.21237C4.36731 8.21237 7.62731 2.3306 15.9644 2.00385H15.9645Z" fill="#EF3F36"/>
<path d="M28.1634 22.9857C28.1634 22.9857 24.3555 30.2935 14.9884 29.9321C16.1458 27.937 21.6549 18.4302 21.6549 18.4302C21.6549 18.4302 22.986 16.3005 21.4158 12.9253C20.6171 11.7528 19.803 10.5265 17.1797 9.87292C19.2901 9.85381 28.5685 9.87292 28.5685 9.87292C28.5685 9.87292 32.0445 15.6278 28.1634 22.9857Z" fill="#FCD900"/>
<path d="M3.82318 23.0434C3.82318 23.0434 -0.625125 16.1045 4.37482 8.20076C5.52839 10.196 11.0376 19.7028 11.0376 19.7028C11.0376 19.7028 12.2259 21.9171 15.9411 22.2475C17.3571 22.1438 18.8308 22.0554 20.7136 20.1218C19.6756 21.9517 15.0189 29.9477 15.0189 29.9477C15.0189 29.9477 8.27521 30.0707 3.82307 23.0434H3.82318Z" fill="#61BC5B"/>
<path d="M14.9846 30.0014L16.8596 22.2053C16.8596 22.2053 18.9198 22.0438 20.6483 20.1563C19.5756 22.0362 14.9846 30.0014 14.9846 30.0014Z" fill="#5AB055"/>
<path d="M9.68359 16.089C9.68359 12.6524 12.4807 9.86528 15.9297 9.86528C19.3787 9.86528 22.1758 12.6524 22.1758 16.089C22.1758 19.5258 19.3787 22.3128 15.9297 22.3128C12.4807 22.3089 9.68359 19.5258 9.68359 16.089Z" fill="white"/>
<path d="M10.7291 16.0891C10.7291 13.229 13.0556 10.9071 15.9298 10.9071C18.8001 10.9071 21.1304 13.2252 21.1304 16.0891C21.1304 18.9493 18.8041 21.2712 15.9298 21.2712C13.0594 21.2712 10.7291 18.9493 10.7291 16.0891Z" fill="url(#paint0_linear_184_12937)"/>
<path d="M28.5646 9.87685L20.8448 12.1334C20.8448 12.1334 19.6797 10.4303 17.1759 9.87685C19.3479 9.86528 28.5646 9.87685 28.5646 9.87685Z" fill="#EACA05"/>
<path d="M9.91133 17.7577C8.82712 15.8855 4.36731 8.21234 4.36731 8.21234L10.0849 13.848C10.0849 13.848 9.4984 15.0513 9.7184 16.7735L9.91123 17.7577H9.91133Z" fill="#DF3A32"/>
<defs>
<linearGradient id="paint0_linear_184_12937" x1="15.9296" y1="10.9803" x2="15.9296" y2="20.9593" gradientUnits="userSpaceOnUse">
<stop stop-color="#86BBE5"/>
<stop offset="1" stop-color="#1072BA"/>
</linearGradient>
</defs>
</svg>
