<svg width="32" height="32" viewBox="0 0 32 32" fill="none" xmlns="http://www.w3.org/2000/svg">
<rect x="9" y="3.75" width="21" height="24.5" rx="1.75" fill="#2FB776"/>
<path d="M9 22.125H30V26.5C30 27.4665 29.2165 28.25 28.25 28.25H10.75C9.7835 28.25 9 27.4665 9 26.5V22.125Z" fill="url(#paint0_linear_3724_157982)"/>
<rect x="19.5" y="16" width="10.5" height="6.125" fill="#229C5B"/>
<rect x="19.5" y="9.875" width="10.5" height="6.125" fill="#27AE68"/>
<path d="M9 5.5C9 4.5335 9.7835 3.75 10.75 3.75H19.5V9.875H9V5.5Z" fill="#1D854F"/>
<rect x="9" y="9.875" width="10.5" height="6.125" fill="#197B43"/>
<rect x="9" y="16" width="10.5" height="6.125" fill="#1B5B38"/>
<path d="M9 12.5C9 11.0503 10.1753 9.875 11.625 9.875H16.875C18.3247 9.875 19.5 11.0503 19.5 12.5V23C19.5 24.4497 18.3247 25.625 16.875 25.625H9V12.5Z" fill="black" fill-opacity="0.3"/>
<rect x="2" y="8.125" width="15.75" height="15.75" rx="1.75" fill="url(#paint1_linear_3724_157982)"/>
<path d="M13.375 20.375L10.9094 15.9125L13.2668 11.625H11.3424L9.88703 14.3625L8.45576 11.625H6.47122L8.84064 15.9125L6.375 20.375H8.2994L9.85095 17.475L11.3905 20.375H13.375Z" fill="white"/>
<defs>
<linearGradient id="paint0_linear_3724_157982" x1="9" y1="25.1875" x2="30" y2="25.1875" gradientUnits="userSpaceOnUse">
<stop stop-color="#163C27"/>
<stop offset="1" stop-color="#2A6043"/>
</linearGradient>
<linearGradient id="paint1_linear_3724_157982" x1="2" y1="16" x2="17.75" y2="16" gradientUnits="userSpaceOnUse">
<stop stop-color="#185A30"/>
<stop offset="1" stop-color="#176F3D"/>
</linearGradient>
</defs>
</svg>
