<svg width="32" height="32" viewBox="0 0 32 32" fill="none" xmlns="http://www.w3.org/2000/svg">
<path fill-rule="evenodd" clip-rule="evenodd" d="M16 16C16 13.4227 18.0893 11.3334 20.6667 11.3334C23.244 11.3334 25.3333 13.4227 25.3333 16C25.3333 18.5774 23.244 20.6667 20.6667 20.6667C18.0893 20.6667 16 18.5774 16 16Z" fill="#1ABCFE"/>
<path fill-rule="evenodd" clip-rule="evenodd" d="M6.66663 25.3333C6.66663 22.756 8.75596 20.6666 11.3333 20.6666H16V25.3333C16 27.9106 13.9106 30 11.3333 30C8.75596 30 6.66663 27.9106 6.66663 25.3333Z" fill="#0ACF83"/>
<path fill-rule="evenodd" clip-rule="evenodd" d="M16 2V11.3333H20.6667C23.244 11.3333 25.3333 9.244 25.3333 6.66667C25.3333 4.08934 23.244 2 20.6667 2H16Z" fill="#FF7262"/>
<path fill-rule="evenodd" clip-rule="evenodd" d="M6.66663 6.66667C6.66663 9.244 8.75596 11.3333 11.3333 11.3333H16V2H11.3333C8.75596 2 6.66663 4.08934 6.66663 6.66667Z" fill="#F24E1E"/>
<path fill-rule="evenodd" clip-rule="evenodd" d="M6.66663 16C6.66663 18.5774 8.75596 20.6667 11.3333 20.6667H16V11.3334H11.3333C8.75596 11.3334 6.66663 13.4227 6.66663 16Z" fill="#A259FF"/>
</svg>
