<svg width="32" height="32" viewBox="0 0 32 32" fill="none" xmlns="http://www.w3.org/2000/svg">
<path d="M28.5426 11.3911C27.9546 9.97266 26.7629 8.44134 25.8274 7.95762C26.5889 9.45394 27.0293 10.9548 27.1977 12.0746C27.1977 12.0746 27.1977 12.0825 27.2005 12.0972C25.6703 8.27371 23.0751 6.73167 20.9558 3.37496C20.8482 3.20563 20.7412 3.0363 20.6364 2.85512C20.5773 2.75296 20.5294 2.66039 20.4877 2.5729C20.3999 2.40318 20.3321 2.2238 20.2855 2.03838C20.2859 2.02957 20.283 2.02095 20.2774 2.01417C20.2718 2.00739 20.2638 2.00294 20.2551 2.00169C20.2468 1.99944 20.2381 1.99944 20.2298 2.00169C20.2276 2.00271 20.2255 2.00404 20.2236 2.00564C20.2202 2.00564 20.2168 2.00959 20.2135 2.01072L20.2191 2.00338C16.819 3.99923 15.6656 7.69121 15.5597 9.53861C14.2011 9.63172 12.902 10.1331 11.8319 10.9774C11.7201 10.8826 11.6031 10.794 11.4816 10.7121C11.1732 9.6302 11.1602 8.48521 11.4439 7.39657C10.0533 8.03156 8.97198 9.03344 8.18575 9.92017H8.17956C7.64283 9.23889 7.68056 6.99187 7.71098 6.52282C7.70478 6.49347 7.3111 6.72771 7.26042 6.76327C6.7868 7.10189 6.34408 7.48193 5.93746 7.89892C5.47474 8.36908 5.05199 8.87715 4.67364 9.41782C3.80315 10.6542 3.18582 12.0511 2.85732 13.528C2.85112 13.5574 2.84549 13.5879 2.83929 13.6178C2.81395 13.7369 2.72215 14.3346 2.70582 14.4644V14.4944C2.58614 15.112 2.5116 15.7375 2.48279 16.366V16.4355C2.48279 23.9266 8.54282 30 16.0176 30C22.7124 30 28.2706 25.1289 29.3593 18.7304C29.3818 18.5572 29.4004 18.3822 29.4207 18.2072C29.6899 15.8806 29.3908 13.4355 28.5426 11.3911ZM12.942 22.0093C13.0051 22.0392 13.0648 22.0725 13.1295 22.1018L13.1385 22.1075C13.0738 22.0759 13.0079 22.0431 12.9425 22.0093H12.942ZM27.2016 12.1034V12.0904V12.1051V12.1034Z" fill="url(#paint0_linear_184_12955)"/>
<path d="M28.5426 11.3911C27.9546 9.97268 26.7629 8.44136 25.8274 7.95764C26.5888 9.45396 27.0293 10.9548 27.1977 12.0746V12.1023C28.475 15.5724 27.7789 19.1013 26.7764 21.2574C25.2253 24.5933 21.4705 28.0126 15.5924 27.8461C9.24678 27.6655 3.65251 22.9406 2.60778 16.7572C2.41742 15.7813 2.60778 15.2863 2.70352 14.4944C2.58694 15.1045 2.54245 15.2812 2.48444 16.366V16.4355C2.48444 23.9267 8.54447 30 16.0193 30C22.714 30 28.2722 25.1289 29.3609 18.7305C29.3834 18.5572 29.402 18.3822 29.4223 18.2072C29.6898 15.8806 29.3908 13.4355 28.5426 11.3911Z" fill="url(#paint1_radial_184_12955)"/>
<path d="M28.5426 11.3911C27.9546 9.97268 26.7629 8.44136 25.8274 7.95764C26.5888 9.45396 27.0293 10.9548 27.1977 12.0746V12.1023C28.475 15.5724 27.7789 19.1013 26.7764 21.2574C25.2253 24.5933 21.4705 28.0126 15.5924 27.8461C9.24678 27.6655 3.65251 22.9406 2.60778 16.7572C2.41742 15.7813 2.60778 15.2863 2.70352 14.4944C2.58694 15.1045 2.54245 15.2812 2.48444 16.366V16.4355C2.48444 23.9267 8.54447 30 16.0193 30C22.714 30 28.2722 25.1289 29.3609 18.7305C29.3834 18.5572 29.402 18.3822 29.4223 18.2072C29.6898 15.8806 29.3908 13.4355 28.5426 11.3911Z" fill="url(#paint2_radial_184_12955)"/>
<path d="M21.965 12.9851C21.9949 13.006 22.0214 13.0269 22.0495 13.0477C21.7098 12.4433 21.2866 11.8899 20.7925 11.4041C16.5854 7.18776 19.6897 2.26137 20.2129 2.01076L20.2186 2.00342C16.8185 3.99926 15.6651 7.69124 15.5592 9.53864C15.7169 9.52792 15.874 9.51437 16.0345 9.51437C18.5718 9.51437 20.7818 10.913 21.965 12.9851Z" fill="url(#paint3_radial_184_12955)"/>
<path d="M16.043 13.8272C16.021 14.1659 14.8315 15.3286 14.4153 15.3286C10.5664 15.3286 9.94183 17.662 9.94183 17.662C10.1108 19.6274 11.4771 21.2456 13.1301 22.1019C13.2056 22.1408 13.2816 22.1758 13.3554 22.2108C13.4877 22.2673 13.6207 22.3237 13.753 22.3739C14.3199 22.5743 14.9135 22.6885 15.5141 22.7126C22.2601 23.0298 23.5679 14.6287 18.699 12.1893C19.9454 11.9719 21.2396 12.4749 21.9622 12.9834C20.7795 10.9114 18.5689 9.5127 16.0317 9.5127C15.8712 9.5127 15.7141 9.52624 15.5564 9.53697C14.1987 9.63124 12.9008 10.1332 11.8319 10.9774C12.0386 11.1529 12.2718 11.3866 12.7623 11.8709C13.6826 12.7808 16.0379 13.7172 16.043 13.8272Z" fill="url(#paint4_radial_184_12955)"/>
<path d="M16.043 13.8272C16.021 14.1659 14.8315 15.3286 14.4153 15.3286C10.5664 15.3286 9.94183 17.662 9.94183 17.662C10.1108 19.6274 11.4771 21.2456 13.1301 22.1019C13.2056 22.1408 13.2816 22.1758 13.3554 22.2108C13.4877 22.2673 13.6207 22.3237 13.753 22.3739C14.3199 22.5743 14.9135 22.6885 15.5141 22.7126C22.2601 23.0298 23.5679 14.6287 18.699 12.1893C19.9454 11.9719 21.2396 12.4749 21.9622 12.9834C20.7795 10.9114 18.5689 9.5127 16.0317 9.5127C15.8712 9.5127 15.7141 9.52624 15.5564 9.53697C14.1987 9.63124 12.9008 10.1332 11.8319 10.9774C12.0386 11.1529 12.2718 11.3866 12.7623 11.8709C13.6826 12.7808 16.0379 13.7172 16.043 13.8272Z" fill="url(#paint5_radial_184_12955)"/>
<path d="M11.2028 10.5264C11.3126 10.5975 11.4027 10.6574 11.4844 10.7121C11.176 9.63023 11.163 8.48525 11.4467 7.39661C10.0561 8.0316 8.97477 9.03347 8.18854 9.9202C8.25218 9.91851 10.2155 9.88295 11.2028 10.5264Z" fill="url(#paint6_radial_184_12955)"/>
<path d="M2.60812 16.7571C3.65286 22.9405 9.24713 27.6654 15.5972 27.846C21.4753 28.0125 25.2279 24.5932 26.7812 21.2574C27.7837 19.1007 28.4799 15.5724 27.2025 12.1022V12.0763C27.2025 12.0796 27.2025 12.0842 27.2053 12.0988C27.6852 15.241 26.0908 18.2851 23.598 20.3436C23.5955 20.3493 23.593 20.3552 23.5907 20.361C18.7331 24.3251 14.085 22.7526 13.1439 22.1108C13.0786 22.0792 13.0127 22.0465 12.9474 22.0126C10.115 20.6579 8.94525 18.07 9.19588 15.8523C6.80509 15.8523 5.98958 13.8305 5.98958 13.8305C5.98958 13.8305 8.1365 12.2964 10.966 13.6307C13.5866 14.8668 16.0478 13.8311 16.0478 13.8305C16.0427 13.7205 13.6874 12.7812 12.7688 11.8742C12.2783 11.3899 12.0451 11.1562 11.8384 10.9807C11.7266 10.8859 11.6096 10.7973 11.4881 10.7154C11.4076 10.659 11.3191 10.6025 11.2065 10.5297C10.2192 9.88625 8.2559 9.92181 8.19113 9.9235H8.18493C7.6482 9.24222 7.68594 6.9952 7.71635 6.52616C7.71015 6.49681 7.31648 6.73105 7.26579 6.76661C6.79218 7.10522 6.34946 7.48526 5.94283 7.90225C5.48011 8.37242 5.05737 8.88048 4.67901 9.42115C3.80853 10.6575 3.19119 12.0545 2.86269 13.5314C2.85199 13.5573 2.37045 15.6644 2.60812 16.7571Z" fill="url(#paint7_radial_184_12955)"/>
<path d="M20.7924 11.4041C21.2866 11.8899 21.7098 12.4432 22.0495 13.0477C22.1199 13.1007 22.1875 13.1572 22.2522 13.217C25.3205 16.0482 23.7154 20.0563 23.5932 20.3442C26.0859 18.2857 27.6803 15.2417 27.2005 12.0995C25.6703 8.27371 23.0751 6.73167 20.9557 3.37496C20.8482 3.20563 20.7411 3.0363 20.6364 2.85512C20.5773 2.75296 20.5294 2.66039 20.4877 2.5729C20.3999 2.40318 20.332 2.2238 20.2855 2.03838C20.2859 2.02957 20.283 2.02095 20.2774 2.01417C20.2717 2.00739 20.2638 2.00294 20.2551 2.00169C20.2468 1.99944 20.2381 1.99944 20.2298 2.00169C20.2275 2.00271 20.2254 2.00404 20.2236 2.00564C20.2202 2.00564 20.2168 2.00959 20.2134 2.01072C19.6897 2.26133 16.5853 7.18773 20.7924 11.4041Z" fill="url(#paint8_radial_184_12955)"/>
<path d="M22.251 13.2142C22.1863 13.1544 22.1187 13.0979 22.0483 13.0449C22.0207 13.024 21.992 13.0031 21.9638 12.9822C21.2412 12.4743 19.947 11.9708 18.7006 12.1881C23.5689 14.6276 22.2617 23.0286 15.5157 22.7114C14.9151 22.6873 14.3215 22.5731 13.7546 22.3728C13.6223 22.3231 13.4893 22.2683 13.357 22.2096C13.2804 22.1747 13.2044 22.1397 13.1317 22.1007L13.1407 22.1064C14.0818 22.7498 18.7299 24.3223 23.5875 20.3566C23.5875 20.3566 23.5903 20.3493 23.5948 20.3391C23.7154 20.0563 25.3205 16.0483 22.251 13.2142Z" fill="url(#paint9_radial_184_12955)"/>
<path d="M9.94166 17.662C9.94166 17.662 10.5663 15.3287 14.4152 15.3287C14.8314 15.3287 16.0208 14.1648 16.0428 13.8273C16.0648 13.4897 13.5816 14.8636 10.9611 13.6274C8.13154 12.2931 5.98462 13.8273 5.98462 13.8273C5.98462 13.8273 6.80013 15.8491 9.19092 15.8491C8.94029 18.0667 10.1101 20.6524 12.9424 22.0093C13.0055 22.0392 13.0652 22.0725 13.1299 22.1019C11.4769 21.2473 10.1123 19.6274 9.94166 17.662Z" fill="url(#paint10_radial_184_12955)"/>
<path d="M28.5426 11.3911C27.9546 9.97266 26.7629 8.44134 25.8274 7.95762C26.5889 9.45394 27.0293 10.9548 27.1977 12.0746C27.1977 12.0746 27.1977 12.0825 27.2005 12.0972C25.6703 8.27371 23.0751 6.73167 20.9558 3.37496C20.8482 3.20563 20.7412 3.0363 20.6364 2.85512C20.5773 2.75296 20.5294 2.66039 20.4877 2.5729C20.3999 2.40318 20.3321 2.2238 20.2855 2.03838C20.2859 2.02957 20.283 2.02095 20.2774 2.01417C20.2718 2.00739 20.2638 2.00294 20.2551 2.00169C20.2468 1.99944 20.2381 1.99944 20.2298 2.00169C20.2276 2.00271 20.2255 2.00404 20.2236 2.00564C20.2202 2.00564 20.2168 2.00959 20.2135 2.01072L20.2191 2.00338C16.819 3.99923 15.6656 7.69121 15.5597 9.53861C15.7174 9.52788 15.8746 9.51434 16.0351 9.51434C18.5723 9.51434 20.7823 10.913 21.9656 12.9851C21.243 12.4771 19.9488 11.9736 18.7024 12.1909C23.5707 14.6304 22.2635 23.0315 15.5175 22.7142C14.9169 22.6901 14.3232 22.576 13.7564 22.3756C13.624 22.3259 13.4911 22.2712 13.3587 22.2125C13.2822 22.1775 13.2061 22.1425 13.1335 22.1035L13.1425 22.1092C13.0771 22.0776 13.0113 22.0448 12.9459 22.011C13.009 22.0409 13.0687 22.0742 13.1335 22.1035C11.4771 21.2473 10.1125 19.6273 9.94181 17.662C9.94181 17.662 10.5664 15.3286 14.4153 15.3286C14.8315 15.3286 16.021 14.1647 16.043 13.8272C16.0379 13.7171 13.6826 12.7779 12.764 11.8709C12.2735 11.3866 12.0403 11.1529 11.8336 10.9774C11.7218 10.8826 11.6048 10.794 11.4833 10.7121C11.1749 9.6302 11.1619 8.48521 11.4456 7.39657C10.055 8.03156 8.97367 9.03344 8.18744 9.92017H8.18125C7.64452 9.23889 7.68225 6.99187 7.71267 6.52282C7.70647 6.49347 7.31279 6.72771 7.2621 6.76327C6.78849 7.10189 6.34577 7.48193 5.93915 7.89892C5.47643 8.36908 5.05368 8.87715 4.67533 9.41782C3.80484 10.6542 3.18751 12.0511 2.85901 13.528C2.85281 13.5574 2.84718 13.5879 2.84098 13.6178C2.81564 13.7369 2.70075 14.3431 2.68498 14.4729C2.68498 14.4633 2.68498 14.4831 2.68498 14.4729C2.57952 15.0993 2.512 15.7315 2.48279 16.366V16.4355C2.48279 23.9266 8.54282 30 16.0176 30C22.7124 30 28.2706 25.1289 29.3593 18.7304C29.3818 18.5572 29.4004 18.3822 29.4207 18.2072C29.6899 15.8806 29.3908 13.4355 28.5426 11.3911ZM27.2 12.0876V12.1023V12.0876Z" fill="url(#paint11_linear_184_12955)"/>
<defs>
<linearGradient id="paint0_linear_184_12955" x1="26.7511" y1="6.33769" x2="4.23416" y2="28.0146" gradientUnits="userSpaceOnUse">
<stop offset="0.05" stop-color="#FFF44F"/>
<stop offset="0.11" stop-color="#FFE847"/>
<stop offset="0.22" stop-color="#FFC830"/>
<stop offset="0.37" stop-color="#FF980E"/>
<stop offset="0.4" stop-color="#FF8B16"/>
<stop offset="0.46" stop-color="#FF672A"/>
<stop offset="0.53" stop-color="#FF3647"/>
<stop offset="0.7" stop-color="#E31587"/>
</linearGradient>
<radialGradient id="paint1_radial_184_12955" cx="0" cy="0" r="1" gradientUnits="userSpaceOnUse" gradientTransform="translate(25.7125 5.1078) scale(28.2169 28.2788)">
<stop offset="0.13" stop-color="#FFBD4F"/>
<stop offset="0.19" stop-color="#FFAC31"/>
<stop offset="0.25" stop-color="#FF9D17"/>
<stop offset="0.28" stop-color="#FF980E"/>
<stop offset="0.4" stop-color="#FF563B"/>
<stop offset="0.47" stop-color="#FF3750"/>
<stop offset="0.71" stop-color="#F5156C"/>
<stop offset="0.78" stop-color="#EB0878"/>
<stop offset="0.86" stop-color="#E50080"/>
</radialGradient>
<radialGradient id="paint2_radial_184_12955" cx="0" cy="0" r="1" gradientUnits="userSpaceOnUse" gradientTransform="translate(15.402 16.6686) scale(28.2169 28.2788)">
<stop offset="0.3" stop-color="#960E18"/>
<stop offset="0.35" stop-color="#B11927" stop-opacity="0.74"/>
<stop offset="0.43" stop-color="#DB293D" stop-opacity="0.34"/>
<stop offset="0.5" stop-color="#F5334B" stop-opacity="0.09"/>
<stop offset="0.53" stop-color="#FF3750" stop-opacity="0"/>
</radialGradient>
<radialGradient id="paint3_radial_184_12955" cx="0" cy="0" r="1" gradientUnits="userSpaceOnUse" gradientTransform="translate(18.8044 -1.30982) scale(20.4419 20.4868)">
<stop offset="0.13" stop-color="#FFF44F"/>
<stop offset="0.25" stop-color="#FFDC3E"/>
<stop offset="0.51" stop-color="#FF9D12"/>
<stop offset="0.53" stop-color="#FF980E"/>
</radialGradient>
<radialGradient id="paint4_radial_184_12955" cx="0" cy="0" r="1" gradientUnits="userSpaceOnUse" gradientTransform="translate(12.2814 24.0554) scale(13.4351 13.4646)">
<stop offset="0.35" stop-color="#3A8EE6"/>
<stop offset="0.47" stop-color="#5C79F0"/>
<stop offset="0.67" stop-color="#9059FF"/>
<stop offset="1" stop-color="#C139E6"/>
</radialGradient>
<radialGradient id="paint5_radial_184_12955" cx="0" cy="0" r="1" gradientUnits="userSpaceOnUse" gradientTransform="translate(15.8073 13.3078) rotate(-13.9265) scale(7.11891 8.37926)">
<stop offset="0.21" stop-color="#9059FF" stop-opacity="0"/>
<stop offset="0.28" stop-color="#8C4FF3" stop-opacity="0.06"/>
<stop offset="0.75" stop-color="#7716A8" stop-opacity="0.45"/>
<stop offset="0.97" stop-color="#6E008B" stop-opacity="0.6"/>
</radialGradient>
<radialGradient id="paint6_radial_184_12955" cx="0" cy="0" r="1" gradientUnits="userSpaceOnUse" gradientTransform="translate(15.0455 3.95072) scale(9.66564 9.68685)">
<stop stop-color="#FFE226"/>
<stop offset="0.12" stop-color="#FFDB27"/>
<stop offset="0.3" stop-color="#FFC82A"/>
<stop offset="0.5" stop-color="#FFA930"/>
<stop offset="0.73" stop-color="#FF7E37"/>
<stop offset="0.79" stop-color="#FF7139"/>
</radialGradient>
<radialGradient id="paint7_radial_184_12955" cx="0" cy="0" r="1" gradientUnits="userSpaceOnUse" gradientTransform="translate(22.6434 -2.19325) scale(41.2381 41.3286)">
<stop offset="0.11" stop-color="#FFF44F"/>
<stop offset="0.46" stop-color="#FF980E"/>
<stop offset="0.62" stop-color="#FF5634"/>
<stop offset="0.72" stop-color="#FF3647"/>
<stop offset="0.9" stop-color="#E31587"/>
</radialGradient>
<radialGradient id="paint8_radial_184_12955" cx="0" cy="0" r="1" gradientUnits="userSpaceOnUse" gradientTransform="translate(18.6569 2.32223) rotate(84.2447) scale(30.1238 19.749)">
<stop stop-color="#FFF44F"/>
<stop offset="0.06" stop-color="#FFE847"/>
<stop offset="0.17" stop-color="#FFC830"/>
<stop offset="0.3" stop-color="#FF980E"/>
<stop offset="0.36" stop-color="#FF8B16"/>
<stop offset="0.45" stop-color="#FF672A"/>
<stop offset="0.57" stop-color="#FF3647"/>
<stop offset="0.74" stop-color="#E31587"/>
</radialGradient>
<radialGradient id="paint9_radial_184_12955" cx="0" cy="0" r="1" gradientUnits="userSpaceOnUse" gradientTransform="translate(14.8179 7.53826) scale(25.745 25.8015)">
<stop offset="0.14" stop-color="#FFF44F"/>
<stop offset="0.48" stop-color="#FF980E"/>
<stop offset="0.59" stop-color="#FF5634"/>
<stop offset="0.66" stop-color="#FF3647"/>
<stop offset="0.9" stop-color="#E31587"/>
</radialGradient>
<radialGradient id="paint10_radial_184_12955" cx="0" cy="0" r="1" gradientUnits="userSpaceOnUse" gradientTransform="translate(21.614 9.04874) scale(28.178 28.2399)">
<stop offset="0.09" stop-color="#FFF44F"/>
<stop offset="0.23" stop-color="#FFE141"/>
<stop offset="0.51" stop-color="#FFAF1E"/>
<stop offset="0.63" stop-color="#FF980E"/>
</radialGradient>
<linearGradient id="paint11_linear_184_12955" x1="26.4807" y1="6.22142" x2="7.32044" y2="25.3403" gradientUnits="userSpaceOnUse">
<stop offset="0.17" stop-color="#FFF44F" stop-opacity="0.8"/>
<stop offset="0.27" stop-color="#FFF44F" stop-opacity="0.63"/>
<stop offset="0.49" stop-color="#FFF44F" stop-opacity="0.22"/>
<stop offset="0.6" stop-color="#FFF44F" stop-opacity="0"/>
</linearGradient>
</defs>
</svg>
