<svg width="32" height="32" viewBox="0 0 32 32" fill="none" xmlns="http://www.w3.org/2000/svg">
<path d="M3.76508 27.0459V18.5012L15.632 22.0009V30.0002L3.76508 27.0459Z" fill="#F15637"/>
<path d="M9.73195 19.3288L8.1255 16.1091L3.76514 17.673L9.73195 19.3288Z" fill="#F15637"/>
<path d="M28.2347 27.0459V18.5012L16.3678 22.0009V30.0002L28.2347 27.0459Z" fill="black"/>
<path d="M22.2679 19.3288L23.8743 16.1091L28.2347 17.673L22.2679 19.3288Z" fill="black"/>
<path d="M13.5892 5.12761L8.32112 2C7.84491 3.56381 7.39252 7.13822 9.39259 8.92543C8.91638 9.80414 7.99968 11.7045 8.14254 12.2764C10.3152 12.5594 14.7946 14.153 15.3303 18.2636H16V4.69344C14.9103 4.69599 14.0276 4.93455 13.5892 5.12761Z" fill="#F15637"/>
<path d="M14.3872 19.881C15.1623 14.9113 10.4527 13.2577 8.00105 13.0521L7.91296 14.7704C8.83785 14.7997 10.8902 15.0523 11.7006 15.8277C12.7136 16.797 12.7576 19.3523 14.3872 19.881Z" fill="#F15637"/>
<path d="M13.5892 5.12761L8.32112 2C7.84491 3.56381 7.39252 7.13822 9.39259 8.92543C8.91638 9.80414 7.99968 11.7045 8.14254 12.2764C10.3152 12.5594 14.7946 14.153 15.3303 18.2636H16V4.69344C14.9103 4.69599 14.0276 4.93455 13.5892 5.12761Z" fill="#F15637"/>
<path d="M14.3872 19.881C15.1623 14.9113 10.4527 13.2577 8.00105 13.0521L7.91296 14.7704C8.83785 14.7997 10.8902 15.0523 11.7006 15.8277C12.7136 16.797 12.7576 19.3523 14.3872 19.881Z" fill="#F15637"/>
<path d="M13.5892 5.12774L8.32112 2.00012C7.84491 3.56393 7.39252 7.13834 9.39259 8.92555C8.91638 9.80426 7.99968 11.7047 8.14254 12.2766C10.3152 12.5595 14.7946 14.1531 15.3303 18.2637H16V4.69356C14.9103 4.69611 14.0276 4.93467 13.5892 5.12774Z" fill="#F15637"/>
<path d="M14.3872 19.8813C15.1623 14.9116 10.4527 13.258 8.00105 13.0524L7.91296 14.7706C8.83785 14.8 10.8902 15.0526 11.7006 15.828C12.7136 16.7973 12.7576 19.3526 14.3872 19.8813Z" fill="#F15637"/>
<path d="M18.4107 5.12761L23.6787 2C24.1549 3.56381 24.6073 7.13822 22.6072 8.92543C23.0834 9.80414 24.0001 11.7045 23.8573 12.2764C21.6846 12.5594 17.2053 14.153 16.6695 18.2636H15.9999V4.69344C17.0895 4.69599 17.9722 4.93455 18.4107 5.12761Z" fill="black"/>
<path d="M17.6126 19.881C16.8375 14.9113 21.5471 13.2577 23.9988 13.0521L24.0869 14.7704C23.162 14.7997 21.1096 15.0523 20.2992 15.8277C19.2862 16.797 19.2422 19.3523 17.6126 19.881Z" fill="black" stroke="white" stroke-width="0.10483"/>
<path d="M18.4107 5.12761L23.6787 2C24.1549 3.56381 24.6073 7.13822 22.6072 8.92543C23.0834 9.80414 24.0001 11.7045 23.8573 12.2764C21.6846 12.5594 17.2053 14.153 16.6695 18.2636H15.9999V4.69344C17.0895 4.69599 17.9722 4.93455 18.4107 5.12761Z" fill="black"/>
<path d="M17.6125 19.8813C16.8374 14.9116 21.547 13.258 23.9986 13.0524L24.0867 14.7706C23.1618 14.8 21.1095 15.0526 20.2991 15.828C19.2861 16.7973 19.2421 19.3526 17.6125 19.8813Z" fill="black" stroke="white" stroke-width="0.224363"/>
<path d="M12.4958 11.8885L13.3153 11.1654L14.5686 12.4188L13.7974 13.1419L12.4958 11.8885Z" stroke="white" stroke-width="0.280454"/>
<path d="M19.5042 11.8885L18.6846 11.1654L17.4313 12.4188L18.2026 13.1419L19.5042 11.8885Z" stroke="white" stroke-width="0.280454"/>
<path d="M13.6763 5.12761L8.40822 2C7.93201 3.56381 7.47962 7.13822 9.47968 8.92543C9.00348 9.80414 8.08678 11.7045 8.22964 12.2764C10.4023 12.5594 14.8817 14.153 15.4174 18.2636H16.0871H16.7567C17.2924 14.153 21.7717 12.5594 23.9444 12.2764C24.0873 11.7045 23.1706 9.80414 22.6944 8.92543C24.6945 7.13822 24.2421 3.56381 23.7659 2L18.4978 5.12761C18.0594 4.93455 17.1767 4.69599 16.0871 4.69344C14.9974 4.69599 14.1147 4.93455 13.6763 5.12761Z" stroke="white" stroke-width="0.22"/>
</svg>
