<svg width="32" height="32" viewBox="0 0 32 32" fill="none" xmlns="http://www.w3.org/2000/svg">
<path d="M26.8184 6.2887V29.0195C26.8184 29.5584 26.3767 30 25.8376 30H7.80197C7.26292 30 6.8212 29.5584 6.8212 29.0195V2.98049C6.8212 2.4416 7.26292 2 7.80197 2H22.5285L26.8184 6.2887Z" fill="#EFEEEE"/>
<path d="M26.8184 6.28866V29.0195C26.8184 29.5584 26.3767 30 25.8376 30H24.4376C24.9766 30 25.4184 29.5584 25.4184 29.0195V6.28866L21.1359 2.00745H22.5285L26.8184 6.28866Z" fill="#E2E1DE"/>
<path d="M26.8184 6.2887H23.5092C22.9702 6.2887 22.5285 5.85459 22.5285 5.30821V2L26.8184 6.2887Z" fill="#C9C9C9"/>
<path d="M15.0043 10.7496H5.18161V6.77522C5.18161 6.47584 5.42119 6.23633 5.72066 6.23633H14.9968C15.2962 6.23633 15.5358 6.47584 15.5358 6.77522V10.2107C15.5433 10.5026 15.3037 10.7496 15.0043 10.7496Z" fill="#4ACC97"/>
<path d="M15.5433 10.1359V10.2032C15.5433 10.5026 15.3037 10.7496 14.9968 10.7496H5.18161V6.77526C5.18161 6.47588 5.42119 6.22888 5.72814 6.22888H6.00516V7.64348C6.00516 9.02065 7.12069 10.1359 8.49825 10.1359H15.5433V10.1359Z" fill="#38C487"/>
<path d="M5.18161 10.7495L6.8287 12.6207V10.7495H5.18161Z" fill="#00B564"/>
<path d="M14.2631 11.9246H6.8287V10.7495H14.9893V11.2061C14.9893 11.6028 14.6599 11.9246 14.2631 11.9246Z" fill="#E2E1DE"/>
<path d="M6.73135 10.4201V9.90367C6.81371 9.92612 6.88109 9.94109 6.94847 9.94109C7.06077 9.94109 7.14313 9.91115 7.19553 9.84379C7.24794 9.78392 7.2704 9.67164 7.2704 9.51447V7.22417H6.84366V6.73767H8.40091V7.22417H8.01159V9.54441C8.01159 9.85876 7.93672 10.0983 7.7795 10.248C7.62228 10.3977 7.42014 10.48 7.16559 10.48C7.03083 10.4725 6.88858 10.45 6.73135 10.4201Z" fill="white"/>
<path d="M10.1004 9.11034V9.59684H8.59558V9.11034H8.96243V7.21673H8.59558V6.73022H10.1004C10.4523 6.73022 10.7218 6.81255 10.9165 6.97722C11.1111 7.14188 11.201 7.36642 11.201 7.64335C11.201 7.80053 11.171 7.94273 11.1037 8.07746C11.0363 8.2047 10.9539 8.30948 10.8491 8.37684C10.7443 8.4442 10.6245 8.4966 10.4897 8.51905C10.355 8.54151 10.1828 8.55648 9.98063 8.55648H9.70362V9.11034H10.1004V9.11034ZM9.70362 8.07746H9.81593C10.0705 8.07746 10.2352 8.03255 10.3101 7.95022C10.3849 7.86789 10.4224 7.7631 10.4224 7.64335C10.4224 7.53857 10.3999 7.44875 10.3475 7.37391C10.2951 7.29906 10.2352 7.25415 10.1753 7.23918C10.1154 7.22421 10.0031 7.21673 9.85336 7.21673H9.71111V8.07746H9.70362Z" fill="white"/>
<path d="M13.2973 8.63131V8.14481H14.6374C14.6374 8.4891 14.5775 8.76603 14.4502 8.96811C14.323 9.1702 14.1433 9.32737 13.9037 9.44713C13.6641 9.56688 13.3946 9.61928 13.1026 9.61928C12.586 9.61928 12.1892 9.48456 11.9122 9.20762C11.6352 8.93069 11.5005 8.57891 11.5005 8.15229C11.5005 7.8529 11.5678 7.59843 11.7026 7.3664C11.8374 7.14186 12.0245 6.96972 12.2566 6.85745C12.4887 6.74518 12.7433 6.6853 13.0128 6.6853C13.3946 6.6853 13.6941 6.77512 13.9112 6.96223V6.73021H14.3978V7.74812H13.9112C13.8588 7.57597 13.7615 7.44125 13.6117 7.34395C13.462 7.24665 13.2973 7.19426 13.1251 7.19426C12.9005 7.19426 12.7058 7.27659 12.5411 7.43377C12.3839 7.59843 12.3015 7.81548 12.3015 8.0999C12.3015 8.42922 12.3839 8.67621 12.5486 8.84088C12.7133 9.01302 12.908 9.09535 13.1475 9.09535C13.3197 9.09535 13.462 9.05045 13.5743 8.96811C13.6866 8.88578 13.769 8.76603 13.8139 8.61634H13.2973V8.63131Z" fill="white"/>
<path d="M24.1232 27.3505H8.80521C8.56564 27.3505 8.36349 27.1559 8.36349 26.9089V14.7539C8.36349 14.5143 8.55815 14.3123 8.80521 14.3123H24.1232C24.3627 14.3123 24.5649 14.5069 24.5649 14.7539V26.9164C24.5649 27.1559 24.3627 27.3505 24.1232 27.3505Z" fill="#7CC8FB"/>
<path d="M24.5649 18.9002C24.5649 18.9002 20.6942 16.4977 17.3626 17.9796C16.9658 18.1593 16.599 18.3913 16.2546 18.6607C15.3936 19.3344 12.0395 21.6696 8.36349 20.2475V23.2413H24.5574V18.9002H24.5649Z" fill="#00B564"/>
<path d="M8.36349 18.9002C8.36349 18.9002 12.2342 16.4977 15.5658 17.9796C15.9626 18.1593 16.3294 18.3913 16.6738 18.6607C17.5348 19.3344 20.8889 21.6696 24.5649 20.2475V23.2413H8.36349V18.9002Z" fill="#4ACC97"/>
<path d="M23.9809 27.3505H8.94746C8.62553 27.3505 8.36349 27.0885 8.36349 26.7667V23.2489H24.5574V26.7667C24.5649 27.0885 24.3028 27.3505 23.9809 27.3505Z" fill="#41C0E3"/>
</svg>
