<svg width="32" height="32" viewBox="0 0 32 32" fill="none" xmlns="http://www.w3.org/2000/svg">
<path d="M26.8179 6.28549V29.0188C26.8179 29.5599 26.3776 30 25.8364 30H7.80184C7.26059 30 6.82037 29.5599 6.82037 29.0188V2.9812C6.82037 2.4401 7.26059 2 7.80184 2H22.5311L26.8179 6.28549Z" fill="#EEEEEE"/>
<path d="M26.8178 6.28549V29.0188C26.8178 29.5599 26.3776 30 25.8364 30H24.4435C24.9848 30 25.425 29.5599 25.425 29.0188V6.28549L21.1383 2H22.5383L26.8178 6.28549Z" fill="#E2E0E1"/>
<path d="M26.8179 6.28548H23.5126C22.9713 6.28548 22.5311 5.84539 22.5311 5.30429V2L26.8179 6.28548Z" fill="#CCCCCC"/>
<path d="M14.2608 11.8624H6.82758V10.6864H14.9897V11.1409C14.9824 11.5377 14.6577 11.8624 14.2608 11.8624Z" fill="#E2E0E1"/>
<path d="M15.0041 10.6864H5.18216V6.71114C5.18216 6.40813 5.42753 6.17004 5.72341 6.17004H15.0041C15.3072 6.17004 15.5453 6.41534 15.5453 6.71114V10.1453C15.5453 10.4411 15.3 10.6864 15.0041 10.6864Z" fill="#7CC8FB"/>
<path d="M15.5453 10.0732V10.1381C15.5453 10.4411 15.3 10.6792 15.0041 10.6792H5.18216V6.70394C5.18216 6.40092 5.42753 6.16284 5.72341 6.16284H6.00487V7.57692C6.00487 8.95491 7.12345 10.0732 8.50184 10.0732H15.5453Z" fill="#41C0E3"/>
<path d="M5.18216 10.6864L6.82757 12.5622V10.6864H5.18216Z" fill="#31A6BA"/>
<path d="M5.49969 9.77738V9.3301H5.83888V7.59136H5.49969V7.14404H6.82036L7.39769 8.68078L7.97503 7.14404H9.31733V7.59136H8.97814V9.3301H9.31733V9.77738H7.99667V9.3301H8.31421V7.59136H8.24926L7.43377 9.77738H7.15232L6.32962 7.59136H6.26466V9.3301H6.61107V9.77738H5.49969Z" fill="white"/>
<path d="M11.0782 7.10791C11.5329 7.10791 11.8865 7.23777 12.1463 7.49749C12.4061 7.75722 12.536 8.0819 12.536 8.45706C12.536 8.83222 12.4061 9.15687 12.1463 9.41659C11.8865 9.67632 11.5256 9.80618 11.0782 9.80618C10.6091 9.80618 10.2483 9.66913 9.9957 9.40218C9.74311 9.13524 9.62042 8.81779 9.62042 8.45706C9.62042 8.0819 9.75032 7.76443 10.0101 7.49749C10.2699 7.23055 10.6235 7.10791 11.0782 7.10791ZM11.0782 7.58408C10.8761 7.58408 10.7029 7.65624 10.5658 7.80774C10.4287 7.95925 10.3565 8.18288 10.3565 8.47147C10.3565 8.7312 10.4287 8.93321 10.5658 9.09193C10.7029 9.24344 10.8761 9.32282 11.0854 9.32282C11.2875 9.32282 11.4607 9.24344 11.5978 9.09193C11.7421 8.94043 11.8071 8.72398 11.8071 8.4354C11.8071 8.18288 11.7421 7.97369 11.605 7.81497C11.4679 7.65624 11.2947 7.58408 11.0782 7.58408Z" fill="white"/>
<path d="M13.5319 9.79183L12.7525 7.59136H12.4422V7.14404H13.7845V7.59136H13.4453L13.8855 8.91163L14.3257 7.59136H13.9938V7.14404H15.1557V7.59136H14.8381L14.0804 9.79183H13.5319Z" fill="white"/>
<path d="M23.3394 19.8418C23.3394 16.0542 20.2651 12.9807 16.4763 12.9807C12.6875 12.9807 9.61322 16.0542 9.61322 19.8418C9.61322 23.6295 12.6875 26.703 16.4763 26.703C17.465 26.703 18.4032 26.4937 19.2547 26.1186L20.1424 27.5038L21.5208 27.814C21.86 27.8934 22.1703 27.6914 22.2425 27.3523L22.5311 25.9671L21.5569 24.452C22.661 23.2327 23.3394 21.6166 23.3394 19.8418ZM11.9803 19.8418C11.9803 17.36 13.9938 15.3471 16.4763 15.3471C17.2124 15.3471 17.9052 15.5275 18.5186 15.8377L15.9062 19.0771C15.6031 19.4522 15.668 19.9934 16.0361 20.2964C16.4114 20.5994 16.9526 20.5344 17.2557 20.1665L19.8826 16.9055C20.561 17.6919 20.9723 18.7164 20.9723 19.8418C20.9723 22.3237 18.9588 24.3366 16.4763 24.3366C13.9938 24.3366 11.9803 22.3237 11.9803 19.8418Z" fill="#7CC8FB"/>
<path d="M20.5321 16.0975L19.8826 16.9055C19.5073 16.4654 19.0455 16.1047 18.5186 15.8377L19.1826 15.0153L20.5321 16.0975Z" fill="white"/>
</svg>
