<svg width="32" height="32" viewBox="0 0 32 32" fill="none" xmlns="http://www.w3.org/2000/svg">
<path d="M26.8179 6.28549V29.0188C26.8179 29.5599 26.3776 30 25.8364 30H7.80184C7.26058 30 6.82037 29.5599 6.82037 29.0188V2.98118C6.82037 2.44008 7.26058 2 7.80184 2H22.5311L26.8179 6.28549Z" fill="#EEEEEE"/>
<path d="M10.8473 26.4649H22.1775C22.56 26.4649 22.8631 26.1546 22.8631 25.7795V14.4525C22.8631 14.0701 22.5528 13.7671 22.1775 13.7671H10.8473C10.4648 13.7671 10.1617 14.0773 10.1617 14.4525V25.7795C10.1617 26.1618 10.472 26.4649 10.8473 26.4649Z" fill="#41C0E3"/>
<path d="M16.5124 24.7694C19.0832 24.7694 21.1672 22.686 21.1672 20.116C21.1672 17.5459 19.0832 15.4625 16.5124 15.4625C13.9416 15.4625 11.8576 17.5459 11.8576 20.116C11.8576 22.686 13.9416 24.7694 16.5124 24.7694Z" fill="white"/>
<path d="M26.8179 6.28549V29.0188C26.8179 29.5599 26.3776 30 25.8364 30H24.4436C24.9848 30 25.425 29.5599 25.425 29.0188V6.28549L21.1383 2H22.5384L26.8179 6.28549Z" fill="#E2E1DE"/>
<path d="M26.8178 6.28549H23.5126C22.9714 6.28549 22.5311 5.84539 22.5311 5.30429V2L26.8178 6.28549Z" fill="#C9C9C9"/>
<path d="M14.2608 11.5522H6.82758V10.3762H14.9897V10.8307C14.9825 11.2276 14.6577 11.5522 14.2608 11.5522Z" fill="#E2E1DE"/>
<path d="M15.0041 10.3762H5.18219V6.40096C5.18219 6.09795 5.42756 5.85986 5.72344 5.85986H15.0041C15.3072 5.85986 15.5454 6.10516 15.5454 6.40096V9.83512C15.5454 10.1309 15.3 10.3762 15.0041 10.3762Z" fill="#7CC8FB"/>
<path d="M15.5454 9.76299V9.82793C15.5454 10.1309 15.3 10.369 15.0041 10.369H5.18219V6.39376C5.18219 6.09074 5.42756 5.85266 5.72344 5.85266H6.00489V7.26674C6.00489 8.64473 7.12348 9.76299 8.50188 9.76299H15.5454Z" fill="#41C0E3"/>
<path d="M5.18219 10.3762L6.82759 12.252V10.3762H5.18219Z" fill="#3586CB"/>
<path d="M5.8389 9.5465V9.07034H6.19973V7.20896H5.8389V6.73279H7.24616L7.85958 8.37773L8.48022 6.73279H9.91634V7.20896H9.5555V9.07034H9.91634V9.5465H8.50187V9.07034H8.84105V7.20896H8.77609L7.90288 9.5465H7.59978L6.71933 7.20896H6.65439V9.07034H7.02245V9.5465H5.8389Z" fill="white"/>
<path d="M11.6411 9.07034V9.5465H10.1617V9.07034H10.5225V7.20896H10.1617V6.73279H11.6411C11.9875 6.73279 12.2545 6.81216 12.4422 6.9781C12.6298 7.14403 12.7236 7.36047 12.7236 7.62741C12.7236 7.78614 12.6875 7.92321 12.6226 8.05307C12.5576 8.18293 12.471 8.27673 12.37 8.34888C12.269 8.42102 12.1463 8.4643 12.0164 8.48595C11.8865 8.50759 11.7205 8.52202 11.5184 8.52202H11.2514V9.07034H11.6411ZM11.2514 8.05307H11.3597C11.6123 8.05307 11.771 8.00979 11.8432 7.93043C11.9154 7.85106 11.9514 7.75006 11.9514 7.62741C11.9514 7.52641 11.9298 7.43983 11.8793 7.36768C11.8288 7.29553 11.771 7.25224 11.7061 7.23781C11.6411 7.22338 11.5329 7.20896 11.3886 7.20896H11.2514V8.05307V8.05307Z" fill="white"/>
<path d="M14.8742 9.12801V9.53925H13.7484V9.12801H14.0587V8.76727H13.0267C12.9762 8.62298 12.9257 8.50033 12.8752 8.40654L14.0804 6.68225H14.6361V8.38491H14.9103V8.76727H14.6361V9.12801H14.8742ZM14.0587 8.38491V7.40371L13.3587 8.38491H14.0587Z" fill="white"/>
<path d="M14.9825 18.1608V22.0711C14.9825 22.6483 15.6464 22.9802 16.1083 22.6267L18.6774 20.6715C19.0455 20.3901 19.0455 19.8418 18.6774 19.5604L16.1083 17.6053C15.6464 17.2518 14.9825 17.5836 14.9825 18.1608Z" fill="#41C0E3"/>
</svg>
