<svg width="32" height="32" viewBox="0 0 32 32" fill="none" xmlns="http://www.w3.org/2000/svg">
<path d="M26.8231 6.2826V29.0215C26.8231 29.5604 26.3833 30 25.8443 30H7.80115C7.26212 30 6.82239 29.5604 6.82239 29.0215V2.97848C6.82239 2.4396 7.26212 2 7.80115 2H22.5321L26.8231 6.2826Z" fill="#EEEEEE"/>
<path d="M26.823 6.2826V29.0215C26.823 29.5604 26.3833 30 25.8443 30H24.4471C24.9861 30 25.4258 29.5604 25.4258 29.0215V6.2826L21.142 2H22.5392L26.823 6.2826Z" fill="#E5E5E5"/>
<path d="M26.8231 6.2826H23.5109C22.9719 6.2826 22.5321 5.843 22.5321 5.30413V2L26.8231 6.2826Z" fill="#CECECE"/>
<path d="M22.6882 15.259H11.0708C10.6807 15.259 10.3615 14.94 10.3615 14.55C10.3615 14.16 10.6807 13.8409 11.0708 13.8409H22.6882C23.0782 13.8409 23.3974 14.16 23.3974 14.55C23.3974 14.947 23.0853 15.259 22.6882 15.259Z" fill="#CECECE"/>
<path d="M22.6882 18.8965H11.0708C10.6807 18.8965 10.3615 18.5774 10.3615 18.1874C10.3615 17.7975 10.6807 17.4784 11.0708 17.4784H22.6882C23.0782 17.4784 23.3974 17.7975 23.3974 18.1874C23.3974 18.5845 23.0853 18.8965 22.6882 18.8965Z" fill="#CECECE"/>
<path d="M22.6882 22.5338H11.0708C10.6807 22.5338 10.3615 22.2147 10.3615 21.8248C10.3615 21.4348 10.6807 21.1157 11.0708 21.1157H22.6882C23.0782 21.1157 23.3974 21.4348 23.3974 21.8248C23.3974 22.2218 23.0853 22.5338 22.6882 22.5338Z" fill="#CECECE"/>
<path d="M15 11.572H5.17694V7.5943C5.17694 7.2965 5.41808 7.04834 5.72305 7.04834H15C15.2978 7.04834 15.5461 7.28941 15.5461 7.5943V11.0261C15.5461 11.3239 15.3049 11.572 15 11.572Z" fill="#F55B4B"/>
<path d="M15.5461 10.9552V11.0261C15.5461 11.3239 15.3049 11.572 15 11.572H5.17694V7.5943C5.17694 7.2965 5.41808 7.04834 5.72305 7.04834H5.99966V8.46642C5.99966 9.84196 7.11317 10.9622 8.4962 10.9622H15.5461V10.9552Z" fill="#DD4E43"/>
<path d="M5.17694 11.572L6.82238 13.4439V11.572H5.17694Z" fill="#DB1B1B"/>
<path d="M7.8366 10.1681V10.6431H6.35428V10.1681H6.71599V8.3033H6.35428V7.82825H7.8366C8.18413 7.82825 8.44655 7.90624 8.63804 8.06932C8.82954 8.2324 8.92174 8.4522 8.92174 8.72164C8.92174 8.87763 8.88628 9.01944 8.82245 9.14706C8.75861 9.27469 8.67351 9.37395 8.56712 9.43777C8.46073 9.50867 8.34725 9.55121 8.2125 9.57958C8.07774 9.60794 7.91462 9.61503 7.71603 9.61503H7.44652V10.161H7.8366V10.1681ZM7.44652 9.14706H7.5529C7.80114 9.14706 7.96426 9.10452 8.03519 9.02652C8.10611 8.94853 8.14157 8.84218 8.14157 8.72164C8.14157 8.62237 8.1132 8.5302 8.06355 8.45929C8.01391 8.38839 7.95717 8.34585 7.89334 8.32458C7.82951 8.31039 7.72312 8.29621 7.57418 8.29621H7.43942V9.14706H7.44652Z" fill="white"/>
<path d="M9.09195 10.6431V10.1681H9.5175V8.3033H9.09195V7.82825H10.4253C10.709 7.82825 10.9289 7.84243 11.1062 7.87788C11.2764 7.91333 11.4395 7.99133 11.5956 8.10477C11.7516 8.22531 11.8793 8.3813 11.9715 8.57983C12.0637 8.77836 12.1133 8.99816 12.1133 9.23924C12.1133 9.43777 12.0779 9.62212 12.014 9.79938C11.9502 9.97664 11.8651 10.1184 11.7658 10.2319C11.6665 10.3382 11.553 10.4304 11.4112 10.4942C11.2764 10.5581 11.1488 10.6006 11.0353 10.6219C10.9218 10.6431 10.7445 10.6502 10.5033 10.6502H9.09195V10.6431ZM10.2551 10.1681H10.4324C10.6452 10.1681 10.8154 10.1397 10.9431 10.083C11.0707 10.0263 11.17 9.92701 11.241 9.79229C11.319 9.65048 11.3544 9.47322 11.3544 9.24633C11.3544 9.03362 11.319 8.84927 11.241 8.70037C11.1629 8.55147 11.0636 8.44511 10.9289 8.38839C10.8012 8.33167 10.631 8.3033 10.4324 8.3033H10.2551V10.1681Z" fill="white"/>
<path d="M12.4396 10.6431V10.1681H12.8439V8.3033H12.4396V7.82825H14.9645V8.70037H14.4255V8.31039H13.5815V8.96271H14.1914V9.43777H13.5815V10.1681H14.0141V10.6431H12.4396Z" fill="white"/>
<path d="M13.9219 12.8908H6.82947V11.572H15.0354V11.7847C15.0283 12.3945 14.5319 12.8908 13.9219 12.8908Z" fill="#E5E5E5"/>
</svg>
