<svg width="32" height="32" viewBox="0 0 32 32" fill="none" xmlns="http://www.w3.org/2000/svg">
<path d="M26.8178 6.2855V29.0188C26.8178 29.5599 26.3776 30 25.8364 30H7.80181C7.26056 30 6.82034 29.5599 6.82034 29.0188V2.98119C6.82034 2.44009 7.26056 2 7.80181 2H22.5311L26.8178 6.2855Z" fill="#EEEEEE"/>
<path d="M26.8178 6.2855V29.0188C26.8178 29.5599 26.3776 30 25.8364 30H24.4363C24.9776 30 25.4178 29.5599 25.4178 29.0188V6.2855L21.1311 2H22.5311L26.8178 6.2855Z" fill="#E2E1DE"/>
<path d="M26.8178 6.2855H23.5126C22.9713 6.2855 22.5311 5.8454 22.5311 5.30431V2L26.8178 6.2855Z" fill="#C9C9C9"/>
<path d="M15.0041 10.7442H5.18216V6.76888C5.18216 6.46587 5.42753 6.22778 5.72341 6.22778H15.0041C15.3072 6.22778 15.5454 6.47308 15.5454 6.76888V10.2031C15.5454 10.5061 15.3072 10.7442 15.0041 10.7442Z" fill="#4ACC97"/>
<path d="M15.5454 10.1381V10.2031C15.5454 10.5061 15.3 10.7442 15.0041 10.7442H5.18216V6.76888C5.18216 6.46587 5.42753 6.22778 5.72341 6.22778H6.00487V7.64186C6.00487 9.01985 7.12345 10.1381 8.50184 10.1381H15.5454Z" fill="#38C487"/>
<path d="M5.18216 10.7441L6.82757 12.6199V10.7441H5.18216Z" fill="#00B564"/>
<path d="M14.2608 11.9273H6.82758V10.7513H14.9897V11.2059C14.9897 11.6027 14.6649 11.9273 14.2608 11.9273Z" fill="#E2E1DE"/>
<path d="M24.5662 14.3154H8.36475V28.1964H24.5662V14.3154Z" fill="#E2E1DE"/>
<path d="M10.6813 14.3154H8.36475V16.6313H10.6813V14.3154Z" fill="#C9C9C9"/>
<path d="M15.3144 14.3154H12.9979V16.6313H15.3144V14.3154Z" fill="#C9C9C9"/>
<path d="M19.9403 14.3154H17.6237V16.6313H19.9403V14.3154Z" fill="#C9C9C9"/>
<path d="M24.5662 14.3154H22.2497V16.6313H24.5662V14.3154Z" fill="#C9C9C9"/>
<path d="M12.9979 16.624H10.6813V18.9399H12.9979V16.624Z" fill="#C9C9C9"/>
<path d="M17.6238 16.624H15.3072V18.9399H17.6238V16.624Z" fill="#C9C9C9"/>
<path d="M22.2569 16.624H19.9403V18.9399H22.2569V16.624Z" fill="#C9C9C9"/>
<path d="M10.6813 18.9399H8.36475V21.2558H10.6813V18.9399Z" fill="#C9C9C9"/>
<path d="M15.3144 18.9399H12.9979V21.2558H15.3144V18.9399Z" fill="#C9C9C9"/>
<path d="M19.9403 18.9399H17.6237V21.2558H19.9403V18.9399Z" fill="#C9C9C9"/>
<path d="M24.5662 18.9399H22.2497V21.2558H24.5662V18.9399Z" fill="#C9C9C9"/>
<path d="M12.9979 21.2559H10.6813V23.5718H12.9979V21.2559Z" fill="#C9C9C9"/>
<path d="M17.6238 21.2559H15.3072V23.5718H17.6238V21.2559Z" fill="#C9C9C9"/>
<path d="M22.2569 21.2559H19.9403V23.5718H22.2569V21.2559Z" fill="#C9C9C9"/>
<path d="M10.6813 23.5646H8.36475V25.8805H10.6813V23.5646Z" fill="#C9C9C9"/>
<path d="M15.3144 23.5646H12.9979V25.8805H15.3144V23.5646Z" fill="#C9C9C9"/>
<path d="M19.9403 23.5646H17.6237V25.8805H19.9403V23.5646Z" fill="#C9C9C9"/>
<path d="M24.5662 23.5646H22.2497V25.8805H24.5662V23.5646Z" fill="#C9C9C9"/>
<path d="M12.9979 25.8805H10.6813V28.1964H12.9979V25.8805Z" fill="#C9C9C9"/>
<path d="M17.6238 25.8805H15.3072V28.1964H17.6238V25.8805Z" fill="#C9C9C9"/>
<path d="M22.2569 25.8805H19.9403V28.1964H22.2569V25.8805Z" fill="#C9C9C9"/>
<path d="M16.4691 22.6699C17.1148 22.6699 17.6382 22.1467 17.6382 21.5012C17.6382 20.8557 17.1148 20.3324 16.4691 20.3324C15.8234 20.3324 15.3 20.8557 15.3 21.5012C15.3 22.1467 15.8234 22.6699 16.4691 22.6699Z" fill="#FC715A"/>
<path d="M17.6382 17.3817C17.6382 16.7323 17.1114 16.2129 16.4691 16.2129C15.8196 16.2129 15.3 16.7396 15.3 17.3817C15.3 18.031 15.8268 20.3324 16.4691 20.3324C17.1114 20.3324 17.6382 18.031 17.6382 17.3817Z" fill="#FC715A"/>
<path d="M15.7113 20.6066C16.2093 20.1881 15.1268 18.0887 14.7154 17.5981C14.2969 17.1003 13.5608 17.0353 13.0628 17.4538C12.5649 17.8722 12.4999 18.6081 12.9185 19.1059C13.3371 19.6037 15.2206 21.0178 15.7113 20.6066Z" fill="#FC715A"/>
<path d="M15.3144 21.2992C15.4299 20.6643 13.2504 19.7481 12.6154 19.6327C11.9803 19.5172 11.3741 19.9429 11.2586 20.585C11.1432 21.2199 11.569 21.8259 12.2112 21.9413C12.8535 22.0568 15.199 21.9341 15.3144 21.2992Z" fill="#FC715A"/>
<path d="M15.4515 22.0856C15.1268 21.5228 12.868 22.2227 12.3123 22.5473C11.7494 22.872 11.5617 23.5862 11.8865 24.149C12.2112 24.7117 12.9257 24.8993 13.4886 24.5746C14.0443 24.25 15.7763 22.6483 15.4515 22.0856Z" fill="#FC715A"/>
<path d="M16.065 22.605C15.4588 22.3814 14.1742 24.3654 13.9577 24.9786C13.734 25.5847 14.0515 26.2556 14.6577 26.4793C15.2639 26.7029 15.9351 26.3855 16.1588 25.7795C16.3753 25.1662 16.6712 22.8215 16.065 22.605Z" fill="#FC715A"/>
<path d="M16.866 22.605C16.2598 22.8287 16.5557 25.1662 16.7722 25.7795C16.9959 26.3855 17.6671 26.7029 18.2733 26.4793C18.8795 26.2556 19.197 25.5847 18.9733 24.9786C18.7568 24.3654 17.4722 22.3814 16.866 22.605Z" fill="#FC715A"/>
<path d="M20.6187 22.5474C20.0558 22.2227 17.8042 21.5301 17.4794 22.0857C17.1547 22.6484 18.8867 24.25 19.4496 24.5747C20.0125 24.8994 20.7269 24.7046 21.0517 24.149C21.3692 23.5863 21.1816 22.872 20.6187 22.5474Z" fill="#FC715A"/>
<path d="M21.6796 20.585C21.5641 19.9501 20.9579 19.5244 20.3228 19.6327C19.6878 19.7481 17.5083 20.6643 17.6238 21.2992C17.7392 21.9341 20.0919 22.0496 20.7342 21.9413C21.362 21.8259 21.7878 21.2199 21.6796 20.585Z" fill="#FC715A"/>
<path d="M17.2196 20.6066C17.7176 21.025 19.5939 19.5965 20.0125 19.0987C20.4311 18.6009 20.3661 17.865 19.8682 17.4466C19.3702 17.0281 18.6341 17.0931 18.2155 17.5909C17.8042 18.0887 16.7217 20.1881 17.2196 20.6066Z" fill="#FC715A"/>
<path d="M7.73687 9.33739V9.76305H6.39456V9.33739H6.71931V7.65638H6.39456V7.23071H7.73687C8.04719 7.23071 8.29255 7.30286 8.45854 7.44715C8.63174 7.59144 8.71112 7.79346 8.71112 8.03876C8.71112 8.18305 8.68226 8.30569 8.62453 8.42113C8.56679 8.53656 8.4874 8.62314 8.39359 8.68807C8.29977 8.75301 8.19152 8.78908 8.07606 8.81072C7.95337 8.83236 7.80903 8.84679 7.62862 8.84679H7.38325V9.33739H7.73687ZM7.38325 8.41392H7.48428C7.708 8.41392 7.85955 8.37784 7.9245 8.3057C7.98945 8.23355 8.02554 8.13976 8.02554 8.03154C8.02554 7.93775 8.00388 7.85839 7.96058 7.79346C7.91728 7.72853 7.86677 7.68523 7.80182 7.6708C7.74409 7.65637 7.65027 7.64917 7.51315 7.64917H7.39047V8.41392H7.38325Z" fill="white"/>
<path d="M8.88434 9.76305V9.33739H9.22352V7.65638H8.88434V7.23071H9.95241L10.8906 8.81793V7.66359H10.5586V7.23793H11.6989V7.66359H11.3452V9.79191H10.7823L9.68539 7.90889V9.3446H10.0029V9.77027H8.88434V9.76305Z" fill="white"/>
<path d="M13.5391 8.91167V8.486H14.7299C14.7299 8.79623 14.6721 9.04153 14.5639 9.22189C14.4556 9.40226 14.2896 9.54655 14.0804 9.64756C13.8711 9.74856 13.6329 9.80628 13.3659 9.80628C12.904 9.80628 12.5576 9.68363 12.3123 9.43833C12.0669 9.19303 11.9442 8.8828 11.9442 8.50043C11.9442 8.2407 12.0019 8.00262 12.1246 7.80061C12.2473 7.5986 12.4133 7.44709 12.6154 7.34609C12.8246 7.24508 13.0412 7.19458 13.2865 7.19458C13.6257 7.19458 13.8927 7.27394 14.0804 7.43988V7.23065H14.5134V8.13248H14.0804C14.0371 7.98098 13.9432 7.85833 13.8133 7.77175C13.6762 7.68518 13.5391 7.64189 13.3803 7.64189C13.1783 7.64189 13.0051 7.71404 12.8607 7.85833C12.7164 8.00262 12.6442 8.19742 12.6442 8.44993C12.6442 8.73851 12.7164 8.96216 12.8607 9.11367C13.0051 9.26518 13.1855 9.34455 13.3876 9.34455C13.5391 9.34455 13.669 9.30847 13.77 9.23633C13.8711 9.16418 13.9432 9.05596 13.9793 8.92609H13.5391V8.91167Z" fill="white"/>
</svg>
