<svg width="32" height="32" viewBox="0 0 32 32" fill="none" xmlns="http://www.w3.org/2000/svg">
<path d="M26.8179 6.28549V29.0188C26.8179 29.5599 26.3776 30 25.8364 30H7.80184C7.26059 30 6.82037 29.5599 6.82037 29.0188V2.9812C6.82037 2.4401 7.26059 2 7.80184 2H22.5311L26.8179 6.28549Z" fill="#EEEEEE"/>
<path d="M26.8179 6.28549V29.0188C26.8179 29.5599 26.3776 30 25.8364 30H24.4364C24.9776 30 25.4178 29.5599 25.4178 29.0188V6.28549L21.1311 2H22.5311L26.8179 6.28549Z" fill="#E2E1DE"/>
<path d="M26.8178 6.28549H23.5126C22.9713 6.28549 22.5311 5.8454 22.5311 5.30431V2L26.8178 6.28549Z" fill="#C9C9C9"/>
<path d="M14.2608 11.5522H6.82758V10.3762H14.9897V10.8307C14.9824 11.2275 14.6649 11.5522 14.2608 11.5522Z" fill="#E2E1DE"/>
<path d="M15.0041 10.3762H5.18219V6.40096C5.18219 6.09795 5.42756 5.85986 5.72344 5.85986H15.0041C15.3072 5.85986 15.5454 6.10516 15.5454 6.40096V9.83513C15.5454 10.1309 15.3 10.3762 15.0041 10.3762Z" fill="#3586CB"/>
<path d="M15.5454 9.763V9.82792C15.5454 10.1309 15.3 10.369 15.0041 10.369H5.18219V6.39376C5.18219 6.09074 5.42756 5.85266 5.72344 5.85266H6.00489V7.26673C6.00489 8.64472 7.12348 9.763 8.50187 9.763H15.5454Z" fill="#366FCA"/>
<path d="M5.18219 10.3762L6.8276 12.2448V10.3762H5.18219Z" fill="#2B62B2"/>
<path d="M6.36572 9.56816V9.06313H6.81315V7.08632H6.36572V7.77894H5.85333V6.5813H8.5596V7.77894H8.05443V7.08632H7.58534V9.06313H8.03278V9.56816H6.36572Z" fill="white"/>
<path d="M8.68231 9.56816V9.06313H9.12253L9.85142 8.03866L9.12253 7.08632H8.71118V6.5813H10.27V7.08632H9.98132L10.3999 7.61299L10.7824 7.08632H10.5154V6.5813H11.8577V7.08632H11.4463L10.7391 8.06752L11.5185 9.06313H11.9443V9.56816H10.3422V9.06313H10.638L10.1906 8.47154L9.76482 9.06313H10.0679V9.56816H8.68231V9.56816Z" fill="white"/>
<path d="M12.5865 9.56816V9.06313H13.034V7.08632H12.5865V7.77894H12.0742V6.5813H14.7804V7.77894H14.2753V7.08632H13.8134V9.06313H14.2608V9.56816H12.5865Z" fill="white"/>
<path d="M23.9529 10.7369H17.5444C17.1475 10.7369 16.8228 10.4122 16.8228 10.0154C16.8228 9.6186 17.1475 9.29395 17.5444 9.29395H23.9529C24.3498 9.29395 24.6745 9.6186 24.6745 10.0154C24.6745 10.4194 24.3498 10.7369 23.9529 10.7369Z" fill="#366FCA"/>
<path d="M23.9528 13.9546H9.72149C9.32457 13.9546 8.99982 13.63 8.99982 13.2332C8.99982 12.8364 9.32457 12.5117 9.72149 12.5117H23.9528C24.3497 12.5117 24.6745 12.8364 24.6745 13.2332C24.6745 13.63 24.3497 13.9546 23.9528 13.9546Z" fill="#366FCA"/>
<path d="M23.9528 17.1651H9.72149C9.32457 17.1651 8.99982 16.8404 8.99982 16.4436C8.99982 16.0468 9.32457 15.7222 9.72149 15.7222H23.9528C24.3497 15.7222 24.6745 16.0468 24.6745 16.4436C24.6745 16.8404 24.3497 17.1651 23.9528 17.1651Z" fill="#366FCA"/>
<path d="M23.9528 20.3757H9.72149C9.32457 20.3757 8.99982 20.051 8.99982 19.6542C8.99982 19.2574 9.32457 18.9327 9.72149 18.9327H23.9528C24.3497 18.9327 24.6745 19.2574 24.6745 19.6542C24.6745 20.051 24.3497 20.3757 23.9528 20.3757Z" fill="#366FCA"/>
<path d="M23.9528 23.5861H9.72149C9.32457 23.5861 8.99982 23.2615 8.99982 22.8647C8.99982 22.4678 9.32457 22.1432 9.72149 22.1432H23.9528C24.3497 22.1432 24.6745 22.4678 24.6745 22.8647C24.6745 23.2615 24.3497 23.5861 23.9528 23.5861Z" fill="#366FCA"/>
<path d="M23.9528 26.7967H9.72149C9.32457 26.7967 8.99982 26.472 8.99982 26.0752C8.99982 25.6784 9.32457 25.3538 9.72149 25.3538H23.9528C24.3497 25.3538 24.6745 25.6784 24.6745 26.0752C24.6745 26.4792 24.3497 26.7967 23.9528 26.7967Z" fill="#366FCA"/>
</svg>
