<svg width="32" height="32" viewBox="0 0 32 32" fill="none" xmlns="http://www.w3.org/2000/svg">
<rect x="9" y="3.75" width="21" height="24.5" rx="1.75" fill="url(#paint0_linear_3724_157994)"/>
<path d="M9 22.125H30V26.5C30 27.4665 29.2165 28.25 28.25 28.25H10.75C9.7835 28.25 9 27.4665 9 26.5V22.125Z" fill="url(#paint1_linear_3724_157994)"/>
<rect x="9" y="16" width="21" height="6.125" fill="url(#paint2_linear_3724_157994)"/>
<rect x="9" y="9.875" width="21" height="6.125" fill="url(#paint3_linear_3724_157994)"/>
<path d="M9 12.5C9 11.0503 10.1753 9.875 11.625 9.875H16.875C18.3247 9.875 19.5 11.0503 19.5 12.5V23C19.5 24.4497 18.3247 25.625 16.875 25.625H9V12.5Z" fill="black" fill-opacity="0.3"/>
<rect x="2" y="8.125" width="15.75" height="15.75" rx="1.75" fill="url(#paint4_linear_3724_157994)"/>
<path d="M15.125 11.6374H13.4208L12.0825 17.3466L10.6185 11.625H9.17729L7.7018 17.3466L6.375 11.6374H4.625L6.90114 20.375H8.41095L9.875 14.852L11.3391 20.375H12.8489L15.125 11.6374Z" fill="white"/>
<defs>
<linearGradient id="paint0_linear_3724_157994" x1="9" y1="7.83333" x2="30" y2="7.83333" gradientUnits="userSpaceOnUse">
<stop stop-color="#2B78B1"/>
<stop offset="1" stop-color="#338ACD"/>
</linearGradient>
<linearGradient id="paint1_linear_3724_157994" x1="9" y1="25.9531" x2="30" y2="25.9531" gradientUnits="userSpaceOnUse">
<stop stop-color="#1B366F"/>
<stop offset="1" stop-color="#2657B0"/>
</linearGradient>
<linearGradient id="paint2_linear_3724_157994" x1="18.1875" y1="19.5" x2="30" y2="19.5" gradientUnits="userSpaceOnUse">
<stop stop-color="#20478B"/>
<stop offset="1" stop-color="#2D6FD1"/>
</linearGradient>
<linearGradient id="paint3_linear_3724_157994" x1="18.1875" y1="13.375" x2="30" y2="13.375" gradientUnits="userSpaceOnUse">
<stop stop-color="#215295"/>
<stop offset="1" stop-color="#2E84D3"/>
</linearGradient>
<linearGradient id="paint4_linear_3724_157994" x1="2" y1="16.875" x2="18.625" y2="16.875" gradientUnits="userSpaceOnUse">
<stop stop-color="#223E74"/>
<stop offset="1" stop-color="#215091"/>
</linearGradient>
</defs>
</svg>
