<svg width="100" height="101" viewBox="0 0 100 101" fill="none" xmlns="http://www.w3.org/2000/svg">
<path d="M15.5161 30.4637C15.6527 21.5135 23.116 19.8222 26.8306 20.0953C44.0537 -0.616918 49.8678 52.2297 48.0528 48.8383C46.6007 46.1252 34.9395 42.4668 32.7829 42.0236C27.0269 40.8405 15.3795 39.4139 15.5161 30.4637Z" fill="#E80067"/>
<path fill-rule="evenodd" clip-rule="evenodd" d="M26.7161 19.8273C24.8193 19.714 22.0414 20.0928 19.6913 21.6022C17.2692 23.1577 15.326 25.8995 15.2564 30.4597C15.1858 35.0845 18.175 37.7502 21.8334 39.3933C24.8753 40.7595 28.4347 41.4448 31.1897 41.9752C31.7388 42.0809 32.2559 42.1805 32.7306 42.278C33.789 42.4956 37.2283 43.5154 40.5879 44.8219C42.2662 45.4745 43.9155 46.1953 45.2325 46.919C45.891 47.2808 46.4611 47.6405 46.9084 47.9895C47.3595 48.3415 47.6674 48.6688 47.8238 48.9609C47.857 49.0231 47.8962 49.0851 47.9436 49.1351C47.9854 49.1794 48.0721 49.2549 48.1999 49.2552C48.3425 49.2556 48.4307 49.1647 48.4718 49.1046C48.5129 49.0445 48.5373 48.9749 48.5536 48.9147C48.6174 48.6785 48.6376 48.2594 48.6282 47.7229C48.609 46.6286 48.4621 44.9122 48.182 42.8307C47.6216 38.666 46.5239 33.0087 44.8276 27.8898C43.9795 25.3303 42.9796 22.8989 41.8187 20.8537C40.6595 18.8115 39.3297 17.1363 37.8134 16.1102C36.2871 15.0772 34.574 14.7051 32.6869 15.274C30.8388 15.8312 28.8524 17.2824 26.7161 19.8273ZM19.972 22.0393C17.6996 23.4988 15.8429 26.0777 15.7759 30.4677C15.7099 34.7931 18.476 37.3158 22.0462 38.9193C25.0269 40.258 28.5126 40.9298 31.2696 41.4612C31.8243 41.5681 32.3496 41.6693 32.8352 41.7691C33.9335 41.9949 37.403 43.0259 40.7762 44.3377C42.4643 44.9941 44.1373 45.7244 45.4827 46.4636C46.1552 46.8332 46.7512 47.2079 47.228 47.5799C47.5836 47.8574 47.8833 48.1413 48.098 48.4292C48.1094 48.2509 48.1137 48.0186 48.1087 47.732C48.0901 46.6663 47.946 44.9722 47.6671 42.8999C47.1096 38.7569 46.0177 33.133 44.3344 28.0532C43.4928 25.5133 42.5055 23.1161 41.3669 21.1102C40.2266 19.1013 38.9448 17.5031 37.5223 16.5405C36.1099 15.5847 34.5573 15.2528 32.8369 15.7715C31.1021 16.2945 29.1674 17.6914 27.0304 20.2614L26.8116 20.3543C24.9952 20.2208 22.2605 20.5696 19.972 22.0393Z" fill="#B22655"/>
<path fill-rule="evenodd" clip-rule="evenodd" d="M43.7031 25.5191C47.7842 36.0516 49.0347 50.6726 48.0529 48.8382C46.6008 46.1251 34.9395 42.4667 32.783 42.0234C32.3028 41.9247 31.7816 41.8243 31.2297 41.718C30.5669 41.5903 29.8597 41.4541 29.1259 41.302C27.1932 38.9894 25.6346 36.2772 27.4922 34.8693C28.9908 33.7333 31.1331 34.3745 32.3758 34.7464C33.3352 35.0335 33.7585 35.1602 32.9354 34.1848C31.4648 32.4419 31.9795 32.6706 33.0619 33.1514C33.413 33.3074 33.8238 33.4899 34.246 33.6402C36.1957 34.3347 35.3066 32.6015 33.8315 30.7545C30.0524 26.0222 30.5051 21.4376 35.6809 27.0609C36.4497 27.8107 37.93 28.7732 37.2523 26.9238C36.4052 24.612 38.5548 26.5686 38.8392 27.038C39.1236 27.5074 39.6341 26.9715 39.3803 25.5419C39.1265 24.1122 40.1245 21.3995 43.6389 26.9056C43.77 27.202 43.969 27.3699 43.7156 25.6701C43.7075 25.6159 43.7034 25.5656 43.7031 25.5191Z" fill="#E44F81"/>
<path fill-rule="evenodd" clip-rule="evenodd" d="M40.9291 44.6766C37.9048 43.4862 34.7603 42.5153 33.2916 42.143C22.5557 38.0365 13.2293 31.7816 21.1186 24.6947C22.233 23.695 23.8878 23.1577 27.3503 24.2143C29.233 24.7888 29.3397 23.8483 29.4815 22.5969C29.6658 20.9716 29.9095 18.8219 34.1816 18.7865C36.6164 18.7663 39.34 19.9438 41.9314 21.598C45.7885 28.8395 47.7986 40.4031 48.2642 45.8995L46.1383 46.0245C44.5286 45.6547 42.7642 45.2031 40.9291 44.6766Z" fill="#FD62A7" fill-opacity="0.4"/>
<path fill-rule="evenodd" clip-rule="evenodd" d="M43.5472 26.7636C43.5775 26.8104 43.6079 26.8577 43.6386 26.9057C43.759 27.1778 43.9366 27.3416 43.7688 26.0514C43.7935 25.9967 43.8193 25.9443 43.8461 25.894C47.813 36.3947 49.0228 50.6511 48.0525 48.8383C46.6005 46.1252 34.9392 42.4668 32.7826 42.0235C32.3025 41.9248 31.7813 41.8244 31.2294 41.7181L31.2293 41.7181C30.5665 41.5904 29.8594 41.4542 29.1257 41.3021C28.7694 40.8758 28.4258 40.4358 28.1139 39.9929C31.3501 39.4139 38.3425 41.8082 42.1871 43.4216C47.8735 45.808 41.08 41.4063 39.0571 40.7127C36.8816 39.9668 37.4256 38.1749 39.754 39.2701C41.6167 40.1462 40.6617 38.9963 39.6572 38.515C36.9094 37.1984 39.1243 32.9812 42.731 39.2172C45.5596 44.1079 44.4795 35.8382 43.8284 30.8533C43.6493 29.4821 43.5027 28.3595 43.4788 27.8277C43.4607 27.4249 43.488 27.0717 43.5472 26.7636Z" fill="#E64E81"/>
<path d="M12.2222 50.6791C6.9025 34.3734 34.1285 41.9863 47.8881 47.6963C42.864 54.0159 31.3504 66.9965 25.835 68.9787C17.7731 71.8762 15.7058 61.86 15.6846 58.4129C15.6547 53.5427 13.0438 53.1975 12.2222 50.6791Z" fill="#E80067"/>
<path fill-rule="evenodd" clip-rule="evenodd" d="M22.9195 40.6728C30.8224 41.2545 41.0991 44.5977 47.9877 47.4564L48.0915 47.858C45.5747 51.0237 41.4343 55.8556 37.2313 60.1458C35.1299 62.2908 33.0095 64.3038 31.0663 65.9062C29.1293 67.5035 27.3465 68.7115 25.9228 69.2232C23.856 69.966 22.1451 69.8894 20.7461 69.2726C19.353 68.6585 18.3021 67.5232 17.5212 66.2076C15.9635 63.5835 15.4356 60.1684 15.4249 58.4145C15.4102 56.0379 14.77 54.7878 14.0426 53.8202C13.8577 53.5742 13.666 53.3451 13.4726 53.1165C13.4516 53.0918 13.4306 53.067 13.4095 53.0421C13.2379 52.8396 13.065 52.6355 12.9007 52.4249C12.5297 51.9491 12.1933 51.4284 11.9752 50.7597C11.3019 48.6961 11.1345 46.9845 11.408 45.5854C11.683 44.1788 12.4009 43.1047 13.4615 42.3221C15.5614 40.7726 18.9801 40.3827 22.9195 40.6728ZM11.9179 45.6851C11.667 46.9684 11.8124 48.5858 12.4691 50.5986C12.6618 51.1891 12.9599 51.6559 13.3104 52.1054C13.4677 52.3071 13.6336 52.5029 13.8061 52.7065C13.8271 52.7312 13.8481 52.756 13.8692 52.7809C14.063 53.0099 14.2632 53.249 14.4579 53.508C15.2489 54.5601 15.9291 55.9176 15.9444 58.4113C15.9548 60.1045 16.4712 63.421 17.9679 65.9424C18.7142 67.1996 19.693 68.2406 20.9557 68.7972C22.2123 69.3513 23.783 69.4402 25.7471 68.7343C27.0811 68.2548 28.8057 67.0969 30.7358 65.5054C32.6596 63.9189 34.7658 61.9201 36.8602 59.7822C40.9311 55.6269 44.9452 50.959 47.4695 47.8045C40.6042 44.9836 30.5813 41.7578 22.8813 41.1909C18.9592 40.9022 15.7088 41.3095 13.77 42.7402C12.8113 43.4476 12.1674 44.4093 11.9179 45.6851Z" fill="#B22655"/>
<path fill-rule="evenodd" clip-rule="evenodd" d="M24.9286 41.134C32.4596 42.0667 41.5864 45.081 47.8883 47.6962C45.6264 50.5414 42.0491 54.7367 38.296 58.6706L36.9287 58.8565C35.5306 59.1931 33.0993 59.3008 34.559 57.039C36.1042 54.6448 36.0537 54.6722 33.8548 55.8641C33.4572 56.0796 32.9894 56.3332 32.4481 56.6175C29.1556 58.3463 29.9655 55.9147 31.9286 54.3672C33.6181 53.0353 35.6168 51.4306 32.9292 52.1402C32.8666 52.1567 32.802 52.1738 32.7354 52.1914C29.9425 52.93 23.7847 54.5584 27.2637 51.6839C28.1997 50.9105 29.0681 50.3112 29.7516 49.8396C31.857 48.3867 32.2073 48.1449 27.3726 47.7559C21.1627 47.2563 24.7575 46.1069 27.3399 45.2812C27.6594 45.179 27.9633 45.0818 28.2313 44.9914C30.5264 44.2173 29.1918 43.6978 28.4952 43.4336C26.9677 42.8541 25.0092 42.0552 24.9286 41.134Z" fill="#E44F81"/>
<path fill-rule="evenodd" clip-rule="evenodd" d="M46.2735 48.9347C38.194 56.6468 21.3285 70.0836 18.5021 62.1344C18.2418 61.567 18.1724 59.7277 19.978 56.9108C21.0496 55.239 19.8129 54.4458 18.2668 53.4542C16.5565 52.3572 14.4674 51.0173 14.7058 47.9763C14.9146 45.3135 15.4101 39.1017 45.9069 47.3469L46.2735 48.9347Z" fill="#FD62A7" fill-opacity="0.4"/>
<path fill-rule="evenodd" clip-rule="evenodd" d="M34.5151 57.1088C34.5287 57.0941 34.5426 57.0794 34.5567 57.0645C35.7269 55.8316 38.5429 54.085 41.0063 52.5571C44.458 50.4162 47.2177 48.7046 43.7892 49.4361C37.9139 50.6898 38.8465 50.0061 41.4652 48.2199C42.4714 47.5336 40.9558 47.8059 38.9219 48.1714C36.3779 48.6285 33.0229 49.2313 32.7775 48.2861C32.5494 47.4072 33.8766 47.0661 34.7847 47.062C37.329 47.0504 42.3681 47.0223 41.3919 46.3952C39.5531 45.214 34.2634 43.9929 29.3401 42.8564C27.9969 42.5464 26.681 42.2426 25.4698 41.9477C25.1564 41.69 24.9535 41.418 24.9287 41.1343C32.4596 42.0671 41.5863 45.0814 47.8882 47.6966C45.6305 50.5364 42.0624 54.7212 38.3171 58.6487L37.3935 58.6701C36.6195 58.8558 35.6222 59.0178 34.8725 58.9794C34.1477 58.8185 33.767 58.3086 34.5151 57.1088Z" fill="#E64E81"/>
<path d="M52.6332 69.9888C52.3718 68.1803 51.3616 58.6455 51.6301 54.4463L48.5221 49.2312C46.9891 50.1894 41.6664 54.068 32.6394 61.9167C21.3556 71.7276 27.4369 77.8686 31.4803 78.861C34.715 79.6548 37.2637 82.5802 38.6882 83.8645C52.2424 96.0845 53.0945 73.1812 52.6332 69.9888Z" fill="#E80067"/>
<path fill-rule="evenodd" clip-rule="evenodd" d="M52.2963 75.198C52.5223 72.8011 52.4871 70.7946 52.376 70.0262C52.2442 69.1143 51.9258 66.2724 51.6739 63.1351C51.4255 60.041 51.2399 56.6374 51.3658 54.5106L48.4362 49.5948C46.6672 50.749 41.4349 54.6137 32.8098 62.113C27.1962 66.9938 25.9801 70.8934 26.5661 73.6419C27.1553 76.4049 29.5894 78.1296 31.5421 78.6089C33.2132 79.019 34.6942 79.9757 35.9268 80.9774C36.7496 81.6461 37.4834 82.3547 38.0848 82.9355C38.3767 83.2175 38.6375 83.4693 38.8621 83.6718C42.2323 86.7102 44.7392 87.4958 46.589 87.0484C48.4412 86.6004 49.7594 84.8865 50.6755 82.6096C51.587 80.3439 52.0706 77.5915 52.2963 75.198ZM46.7112 87.5534C44.6035 88.0632 41.9211 87.1292 38.5142 84.0577C38.2665 83.8344 37.9936 83.5706 37.6943 83.2813C37.1025 82.7093 36.4073 82.0374 35.5992 81.3806C34.3927 80.4002 32.982 79.4972 31.4183 79.1135C29.3276 78.6004 26.6994 76.7584 26.058 73.7502C25.4135 70.7274 26.7987 66.651 32.4689 61.7209C41.4982 53.8701 46.8335 49.9806 48.3843 49.0112L48.7452 49.0985L51.8532 54.3135L51.8893 54.4631C51.7564 56.5416 51.9401 59.9576 52.1918 63.0935C52.4433 66.2255 52.7607 69.0553 52.8902 69.9519C53.0099 70.7797 53.0411 72.8332 52.8135 75.2467C52.5857 77.6635 52.0956 80.4718 51.1575 82.8035C50.2239 85.1239 48.8164 87.0441 46.7112 87.5534Z" fill="#B22655"/>
<path fill-rule="evenodd" clip-rule="evenodd" d="M35.6996 59.2861C36.4105 59.4503 36.701 59.4793 36.7377 59.5913C36.7979 59.7754 36.1724 60.184 35.6001 61.7868C34.9499 63.6078 36.6637 62.6048 38.3386 61.6245C40.1371 60.5719 41.8908 59.5456 40.6245 62.0701C38.7123 65.8826 39.2951 65.4022 41.2144 63.8205C41.4131 63.6567 41.6261 63.4812 41.8521 63.2974C43.3243 62.1003 42.5374 64.0608 41.4372 66.8019C40.2285 69.8136 38.6415 73.7675 39.2567 75.5114C40.5544 79.1898 43.4186 72.7532 44.9028 69.418C45.4204 68.2547 45.7701 67.4688 45.827 67.6207C45.9142 67.8535 45.8156 68.7167 45.7227 69.5308C45.6572 70.1047 45.5944 70.6543 45.6015 70.9414C45.6877 74.4481 48.2005 70.6174 48.6728 67.0331C48.9574 65.5175 49.6437 63.1613 50.1115 65.8616C50.472 67.9427 51.4506 67.1879 52.1988 66.103C51.9417 63.4598 51.6674 60.0358 51.6005 57.2789L46.0095 50.9935C43.7965 52.6325 40.3546 55.3314 35.6996 59.2861Z" fill="#E44F81"/>
<path fill-rule="evenodd" clip-rule="evenodd" d="M28.524 66.2741C28.4928 66.3505 28.4636 66.4254 28.4365 66.4989C26.2491 72.4263 29.0435 76.242 33.4077 74.4788C36.1824 73.3577 37.0145 75.0849 37.9637 77.0551C38.5987 78.3731 39.2861 79.7999 40.6425 80.5555C49.5393 85.5112 51.5376 71.4281 51.7052 59.8052C51.591 57.7535 51.5425 55.8162 51.6301 54.4465L49.8329 51.4308L48.2973 49.3752C46.5127 50.5393 41.2685 54.4141 32.6394 61.9169C30.862 63.4623 29.5155 64.9166 28.524 66.2741Z" fill="#FD62A7" fill-opacity="0.4"/>
<path fill-rule="evenodd" clip-rule="evenodd" d="M46.086 51.0794C42.7044 53.5414 37.4888 57.7476 36.671 59.5249C36.7078 59.5443 36.7293 59.5656 36.7377 59.5911C36.7597 59.6585 36.6899 59.756 36.5644 59.9312C36.5619 59.9346 36.5595 59.938 36.557 59.9415C36.4224 61.2107 36.9179 60.6488 37.942 59.4872C39.1617 58.1038 41.1312 55.87 43.6794 54.8662C45.7301 54.0583 45.2205 54.5374 44.0376 55.6495C42.7659 56.8451 40.716 58.7724 40.2318 60.6192C41.0415 60.3087 41.4015 60.5209 40.6246 62.0699C40.5532 62.2122 40.4853 62.3485 40.4208 62.479C41.0741 63.2289 42.5843 61.138 43.8335 59.4084C45.2 57.5164 46.2543 56.0566 45.5338 59.2194C44.3976 64.2064 47.0855 63.4255 47.3005 60.8186C47.4179 59.3947 48.7108 56.8627 49.6356 55.0698L46.086 51.0794Z" fill="#E64E81"/>
<path d="M73.8597 75.246C93.6981 66.3212 71.2719 54.7767 58.1038 50.1286L52.5409 52.3698C50.607 74.9168 52.9181 85.0432 60.3442 84.715C69.4467 84.3127 70.5455 76.7366 73.8597 75.246Z" fill="#E80067"/>
<path fill-rule="evenodd" clip-rule="evenodd" d="M71.4237 77.1397C72.1363 76.2118 72.8601 75.4108 73.753 75.0092L73.8596 75.2461L73.753 75.0092C78.6951 72.7859 80.9085 70.4391 81.3641 68.1591C81.8185 65.8849 80.5485 63.546 78.1792 61.271C73.4714 56.7507 64.6794 52.7339 58.1097 50.4064L52.786 52.5512C51.8339 63.7391 51.9371 71.8199 53.1852 77.0605C53.8119 79.6923 54.7213 81.5804 55.9055 82.7884C57.0805 83.987 58.5437 84.5346 60.3327 84.4556C64.7943 84.2584 67.2822 82.311 69.0753 80.2196C69.6738 79.5216 70.1872 78.8177 70.6756 78.1482C70.9289 77.8009 71.1755 77.4629 71.4237 77.1397ZM69.4697 80.5578C67.6092 82.7278 64.9965 84.7695 60.3556 84.9746C58.4315 85.0597 56.8211 84.4646 55.5345 83.1522C54.2573 81.8493 53.3173 79.8581 52.6797 77.1809C51.4051 71.8285 51.3148 63.6243 52.282 52.3477L52.4437 52.129L58.0067 49.8878L58.1902 49.8838C64.7789 52.2095 73.7234 56.2724 78.539 60.8963C80.9425 63.204 82.3823 65.7152 81.8736 68.2609C81.366 70.8008 78.9433 73.2439 73.9662 75.483L73.9661 75.483C73.202 75.8267 72.5457 76.5317 71.8357 77.4561C71.6027 77.7596 71.3634 78.0875 71.1136 78.4298C70.6175 79.1096 70.0802 79.8458 69.4697 80.5578Z" fill="#B22655"/>
<path fill-rule="evenodd" clip-rule="evenodd" d="M52.2166 72.743C54.3072 73.1492 54.3028 69.3513 54.2995 66.4642C54.2984 65.4607 54.2974 64.5673 54.3845 63.9986C54.6381 62.3424 55.1693 63.4998 55.9202 65.136C56.6834 66.7988 57.6735 68.9563 58.83 69.157C60.5702 69.4591 60.1568 66.6349 59.86 64.6069C59.7518 63.868 59.6592 63.2348 59.6918 62.8971C59.7665 62.1222 60.2379 62.613 60.8481 63.2484C61.234 63.6501 61.6753 64.1097 62.107 64.3436C62.5518 64.5845 62.5291 63.5518 62.5062 62.5066C62.5007 62.2581 62.4953 62.0088 62.496 61.7759C62.4965 61.6424 62.6752 61.6006 62.7404 61.7171C63.7801 63.5745 67.2517 68.8481 69.4639 69.4535C71.8219 70.0988 68.5024 63.6288 66.686 60.2796C66.6257 60.1684 66.747 60.0458 66.8617 60.0992C71.1186 62.0785 69.8923 59.7358 68.6751 58.8641C63.5095 55.1649 67.1076 55.7726 70.4255 56.3328C70.6544 56.3715 70.8819 56.4099 71.1052 56.4467C71.5293 56.5165 71.8379 56.5254 72.0514 56.4861C67.5968 53.8597 62.3653 51.633 58.1036 50.1287L52.5406 52.3699C51.8085 60.9054 51.6848 67.6609 52.2166 72.743Z" fill="#E44F81"/>
<path fill-rule="evenodd" clip-rule="evenodd" d="M55.8242 51.0468C54.3043 59.678 52.6181 75.8731 56.8135 79.3271C62.2841 83.8309 66.108 76.7162 65.5981 71.2698C65.1901 66.9127 66.3639 66.926 67.0955 67.7453C68.5791 69.4068 73.834 73.3383 76.231 68.2094C78.5207 63.31 65.0521 54.7274 57.0989 50.5333L55.8242 51.0468Z" fill="#FD62A7" fill-opacity="0.4"/>
<path fill-rule="evenodd" clip-rule="evenodd" d="M54.0185 70.9524C53.7508 72.1485 53.2297 72.9394 52.2164 72.7426C51.6846 67.6605 51.8084 60.905 52.5405 52.3695L58.1034 50.1283C58.3002 50.1978 58.4991 50.2688 58.6999 50.3413C60.3239 51.769 65.9351 54.446 70.0272 56.2653C68.369 55.9876 66.7309 55.7412 66.2337 56.066C65.6684 55.7767 65.0869 55.4782 64.5062 55.1802C62.2273 54.0107 59.9597 52.8469 58.726 52.2606C56.6637 51.2806 57.2501 52.1672 58.2611 53.6961C58.713 54.3794 59.2497 55.1909 59.6727 56.0215C60.2851 57.2237 59.4382 56.5967 58.5376 55.93C57.4238 55.1054 56.2277 54.22 57.6083 56.6587C60.0113 60.9036 57.412 62.499 55.6438 57.5383C54.2293 53.5696 53.366 55.3649 53.5178 56.6778C53.8417 59.4799 54.4201 66.0667 54.1423 69.9974C54.1171 70.3539 54.075 70.6711 54.0185 70.9524Z" fill="#E64E81"/>
<path d="M85.5169 30.9314C79.0493 21.8355 63.4572 37.1226 56.5722 45.8567L55.2266 49.7142C62.2843 52.4865 77.2264 58.7909 81.1517 59.7026C88.3852 61.3825 89.0951 46.7393 86.3517 41.7974C83.8979 37.3772 87.1886 33.7243 85.5169 30.9314Z" fill="#E80067"/>
<path fill-rule="evenodd" clip-rule="evenodd" d="M85.2992 31.0734C83.7442 28.8923 81.6571 28.1754 79.2642 28.4559C76.8467 28.7392 74.1176 30.0432 71.3469 31.9227C65.825 35.6686 60.2395 41.6299 56.8031 45.9833L55.5541 49.5639C57.3972 50.2902 59.7426 51.2411 62.273 52.267C64.5946 53.2083 67.0719 54.2127 69.46 55.1648C74.5778 57.2051 79.2719 58.9992 81.2105 59.4495C82.9159 59.8455 84.2205 59.2867 85.2044 58.1394C86.2024 56.9756 86.8719 55.2001 87.2374 53.1867C87.6021 51.1787 87.6594 48.962 87.4553 46.9422C87.2508 44.9177 86.7863 43.1154 86.1246 41.9235C84.8529 39.6327 85.0756 37.539 85.3849 35.7108C85.4164 35.5242 85.4487 35.3414 85.4803 35.1619C85.6051 34.4543 85.7207 33.7991 85.748 33.1745C85.7815 32.4044 85.678 31.7111 85.2992 31.0734ZM85.8971 35.7974C85.5924 37.5989 85.3967 39.5419 86.5789 41.6713C87.2889 42.9503 87.7643 44.8316 87.9723 46.89C88.1807 48.9532 88.1228 51.219 87.7486 53.2795C87.3755 55.3347 86.6826 57.2139 85.5988 58.4776C84.5009 59.7579 83.0043 60.3995 81.093 59.9556C79.1061 59.4941 74.3665 57.6802 69.2676 55.6474C66.8717 54.6922 64.3933 53.6874 62.0726 52.7464C59.4389 51.6786 57.0082 50.6931 55.1316 49.9559L54.9813 49.6286L56.3269 45.7711L56.3682 45.6958C59.8191 41.318 65.4574 35.2901 71.0552 31.4928C73.8516 29.5958 76.6635 28.2376 79.2037 27.9399C81.7654 27.6396 84.0504 28.4206 85.7286 30.7808L85.7398 30.7979C86.1925 31.5544 86.3034 32.3622 86.267 33.1971C86.2381 33.8593 86.1148 34.5579 85.9891 35.2691C85.9581 35.4446 85.927 35.6208 85.8971 35.7974Z" fill="#B22655"/>
<path fill-rule="evenodd" clip-rule="evenodd" d="M72.3149 56.5725C73.3866 55.1047 71.0148 53.7931 69.3585 52.8772C67.6807 51.9495 66.737 51.4277 70.8499 51.5604C75.2903 51.7038 72.6182 50.3874 70.4755 49.3318C68.5263 48.3715 67.0152 47.6271 71.6945 48.3935C80.5559 49.8451 77.3634 45.9051 73.8692 45.0983C69.8979 44.1814 69.9964 44.1136 71.4644 43.1037C71.7853 42.883 72.1716 42.6173 72.5951 42.2878C74.298 40.9632 73.1824 40.2122 67.9532 40.1265C64.7876 40.0746 66.6767 38.5389 68.6909 36.9016C70.0039 35.8343 71.37 34.7237 71.4237 33.9528C71.4691 33.2998 70.8035 32.8947 69.8675 32.6534C64.7504 36.4333 59.7399 41.8385 56.5723 45.8568L55.2267 49.7143C57.1032 50.4514 59.537 51.4382 62.1729 52.5069C65.4691 53.8433 69.0813 55.3078 72.3149 56.5725Z" fill="#E44F81"/>
<path fill-rule="evenodd" clip-rule="evenodd" d="M55.4896 48.9606L55.4639 49.1113C57.9676 49.9083 61.5688 51.1349 65.1717 52.3621C70.5423 54.1914 75.9167 56.022 77.6652 56.4328C80.3439 57.0622 80.5393 56.8007 81.4543 54.5152C81.7437 53.7924 82.2668 53.205 82.7896 52.618C82.9917 52.3911 83.1938 52.1643 83.3823 51.9297C84.6275 50.3798 84.4749 47.9313 82.0823 45.7937C78.9693 43.0139 79.7938 41.4838 80.6678 39.862C81.0764 39.1038 81.4958 38.3255 81.5286 37.3901C81.9633 24.9944 65.275 37.9507 56.3706 46.4349L55.4896 48.9606Z" fill="#FD62A7" fill-opacity="0.4"/>
<path fill-rule="evenodd" clip-rule="evenodd" d="M61.3575 52.1763C61.2057 51.9415 61.0318 51.6996 60.8344 51.4505C58.2453 48.1833 60.5446 48.7987 63.7218 49.6492C66.5106 50.3956 69.9758 51.3231 71.4053 49.9649C71.4449 49.9273 71.4823 49.8902 71.5177 49.8536C71.1777 49.6776 70.8197 49.5012 70.4753 49.3316C68.5262 48.3714 67.0151 47.6269 71.6942 48.3934C71.6987 48.3941 71.7032 48.3948 71.7077 48.3956C70.293 47.1598 64.0576 47.3253 61.5741 47.4994C60.2202 47.5943 60.9255 47.2149 62.2037 46.5274C63.9879 45.5678 66.8883 44.0078 66.8617 42.2995C66.8272 40.0814 60.5358 44.4556 56.3865 47.3405C56.2375 47.4441 56.0913 47.5457 55.9483 47.6451L55.5944 48.6596L55.6866 49.8955C57.2889 50.5288 59.2436 51.3195 61.3575 52.1763Z" fill="#E64E81"/>
<path d="M59.3388 13.5164C40.0487 3.13963 43.9692 29.5606 48.2588 43.7832L56.7613 46.3443C66.6916 36.2035 86.0859 16.8821 59.3388 13.5164Z" fill="#E80067"/>
<path fill-rule="evenodd" clip-rule="evenodd" d="M48.4673 43.5748L56.6857 46.0502C56.7995 45.934 56.9145 45.8166 57.0306 45.6981C59.4284 43.2513 62.2951 40.3259 64.9167 37.2418C67.7087 33.9575 70.2071 30.5108 71.5646 27.2888C72.9229 24.0651 73.1157 21.1282 71.4068 18.7931C69.6845 16.4397 65.9749 14.6133 59.3063 13.7742L59.2157 13.7452C54.4149 11.1627 51.149 10.9211 48.9904 12.096C46.8271 13.2735 45.6589 15.9358 45.2141 19.4576C44.3318 26.443 46.3394 36.4777 48.4673 43.5748ZM59.4191 13.2648C54.5971 10.6798 51.1326 10.3385 48.7421 11.6397C46.3492 12.9421 45.1488 15.8283 44.6986 19.3925C43.7965 26.5352 45.8631 36.7399 48.01 43.8583L48.1838 44.032L56.6864 46.593L56.9469 46.5261C57.0971 46.3726 57.2496 46.217 57.4041 46.0594C59.7999 43.6145 62.6786 40.677 65.3126 37.5783C68.1141 34.2827 70.6545 30.7873 72.0434 27.4906C73.4317 24.1956 73.693 21.0373 71.826 18.4862C69.9768 15.9594 66.0947 14.1113 59.4191 13.2648Z" fill="#B22655"/>
<path fill-rule="evenodd" clip-rule="evenodd" d="M69.0396 32.3184C68.9495 32.3344 68.852 32.3877 68.7467 32.4835C68.7147 32.5126 68.6814 32.5429 68.6468 32.5744C67.1018 33.9805 62.996 37.7173 64.6221 34.5673C65.8197 32.2475 64.0646 32.0343 63.5094 32.4835C59.3656 35.8366 59.3427 33.7799 60.3824 32.7108C61.0883 31.985 62.7992 25.7632 59.4424 28.9409C56.4991 31.7272 57.6391 28.4421 58.4256 26.3077C58.9947 23.9081 59.305 20.1762 55.3945 25.9478C52.6798 29.9545 52.1639 27.8438 51.7573 26.1805C51.5012 25.1328 51.2886 24.2627 50.5971 25.2104C48.7948 27.6808 48.7963 26.981 48.7985 25.9506C48.7986 25.9143 48.7986 25.8776 48.7986 25.8406C48.7986 24.5387 48.7986 20.6077 46.9301 21.7366C45.5177 22.59 44.9557 24.9193 44.8911 26.7649C45.3492 32.5513 46.7815 38.8894 48.2575 43.7833L56.7601 46.3443C56.91 46.1912 57.0621 46.036 57.2161 45.8788C60.906 42.1134 65.7237 37.197 69.0396 32.3184Z" fill="#E44F81"/>
<path fill-rule="evenodd" clip-rule="evenodd" d="M59.4483 43.5915C71.8382 21.3701 62.907 17.674 60.538 18.1846C60.0416 18.2916 59.588 18.4385 59.1661 18.5751C57.9876 18.9568 57.0559 19.2586 56.127 18.3879C53.3766 15.8101 51.9977 15.6932 51.0788 16.1394C44.0536 19.567 47.2749 36.0636 49.7637 43.8835C49.7481 43.996 49.7329 44.1091 49.718 44.2229L56.7612 46.3443C56.9111 46.1912 57.0632 46.036 57.2172 45.8788C57.9255 45.156 58.6754 44.3908 59.4483 43.5915Z" fill="#FD62A7" fill-opacity="0.4"/>
<path d="M55.2275 30.9311C52.1001 30.5142 51.7701 39.3054 51.996 43.7531L53.8202 44.4826C55.5924 40.1392 58.3549 31.348 55.2275 30.9311Z" fill="#E64E81"/>
<path d="M57.8544 49.0209C57.8544 52.53 55.0096 55.3747 51.5005 55.3747C47.9913 55.3747 45.1466 52.53 45.1466 49.0209C45.1466 45.5117 47.9913 42.667 51.5005 42.667C55.0096 42.667 57.8544 45.5117 57.8544 49.0209Z" fill="#FDCB06"/>
<path d="M56.3879 48.9028C56.3879 51.8401 54.0067 54.2213 51.0694 54.2213C48.132 54.2213 45.7509 51.8401 45.7509 48.9028C45.7509 45.9654 48.132 43.5842 51.0694 43.5842C54.0067 43.5842 56.3879 45.9654 56.3879 48.9028Z" fill="#FFDA0A"/>
<path d="M54.7305 48.2562C54.7305 50.5147 52.8996 52.3457 50.6411 52.3457C48.3825 52.3457 46.5516 50.5147 46.5516 48.2562C46.5516 45.9977 48.3825 44.1667 50.6411 44.1667C52.8996 44.1667 54.7305 45.9977 54.7305 48.2562Z" fill="#FFE948"/>
<path d="M49.0919 46.3444C49.0919 46.6588 48.8006 46.9137 48.4413 46.9137C48.0819 46.9137 47.7906 46.6588 47.7906 46.3444C47.7906 46.03 48.0819 45.7751 48.4413 45.7751C48.8006 45.7751 49.0919 46.03 49.0919 46.3444Z" fill="#FACC08"/>
<path d="M53.6762 47.4828C53.6762 47.7972 53.3849 48.0521 53.0256 48.0521C52.6663 48.0521 52.375 47.7972 52.375 47.4828C52.375 47.1684 52.6663 46.9136 53.0256 46.9136C53.3849 46.9136 53.6762 47.1684 53.6762 47.4828Z" fill="#FACC08"/>
<path d="M51.4881 48.9025C51.4881 49.2169 51.1968 49.4718 50.8375 49.4718C50.4782 49.4718 50.1869 49.2169 50.1869 48.9025C50.1869 48.5881 50.4782 48.3333 50.8375 48.3333C51.1968 48.3333 51.4881 48.5881 51.4881 48.9025Z" fill="#FACC08"/>
<path d="M48.6932 50.7956C48.6932 51.11 48.4019 51.3648 48.0426 51.3648C47.6833 51.3648 47.392 51.11 47.392 50.7956C47.392 50.4812 47.6833 50.2263 48.0426 50.2263C48.4019 50.2263 48.6932 50.4812 48.6932 50.7956Z" fill="#FACC08"/>
<path d="M54.8301 51.2836C54.8301 51.598 54.5389 51.8529 54.1795 51.8529C53.8202 51.8529 53.5289 51.598 53.5289 51.2836C53.5289 50.9692 53.8202 50.7144 54.1795 50.7144C54.5389 50.7144 54.8301 50.9692 54.8301 51.2836Z" fill="#FACC08"/>
</svg>
