<svg width="100" height="100" viewBox="0 0 100 100" fill="none" xmlns="http://www.w3.org/2000/svg">
<path d="M71.7564 32.3408C82.5682 30.3736 97.8734 45.9609 85.2361 57.6153C87.904 61.5469 90.291 70.9531 75.1263 67.8655C63.1292 65.4228 56.1725 69.846 53.2948 72.9259C52.7554 73.5426 52.3513 74.079 52.0984 74.4649C52.3575 74.0356 52.7542 73.5044 53.2948 72.9259C54.6525 71.3734 56.867 69.3126 59.6808 67.8655C64.5953 65.338 76.2496 59.1598 75.688 51.1562C77.7006 51.2498 82.2593 52.0549 84.3936 54.5262C83.9724 53.0284 81.7538 49.9487 76.2496 49.6117V45.6801C77.8233 45.7264 80.9806 45.8459 81.1592 45.9572C80.546 45.4882 78.7427 44.6136 76.39 44.8376C76.3432 41.5145 75.351 34.3627 71.7564 32.3408Z" fill="#E83F3E"/>
<path fill-rule="evenodd" clip-rule="evenodd" d="M58.9575 68.2577C59.1938 68.1227 59.4349 67.9918 59.6805 67.8654C64.595 65.338 76.2494 59.1598 75.6877 51.1562C77.0191 51.2181 79.4648 51.5914 81.5858 52.5524C82.1652 56.929 81.2791 63.6152 74.0028 64.2133C68.7566 64.6444 63.1925 66.4779 58.9575 68.2577ZM81.3047 51.0161C80.0664 50.2995 78.4113 49.744 76.2494 49.6116V45.6801C77.823 45.7263 80.9803 45.8459 81.159 45.9571C80.5457 45.4882 78.7424 44.6135 76.3898 44.8376C76.3451 41.6667 75.4396 35.0099 72.2339 32.6501L72.3178 32.4797C76.9983 35.3348 85.3482 43.0389 81.3043 51.0144C81.3044 51.0149 81.3046 51.0155 81.3047 51.0161Z" fill="#C31316"/>
<path d="M68.9481 29.9524C59.9616 17.0343 51.3496 24.8507 48.1669 30.3736C57.041 27.1161 61.0381 31.5437 61.9274 34.1647C68.6673 35.4004 68.012 41.2322 66.8419 43.9937C70.5488 47.2513 65.5782 58.8308 62.6295 64.2133C70.4927 61.8263 80.1812 46.1 68.9481 29.9524Z" fill="#E84140"/>
<path fill-rule="evenodd" clip-rule="evenodd" d="M64.1041 61.3223C77.3489 43.1924 69.9874 34.2808 64.4542 32.0584C58.8816 24.8468 51.5287 27.6792 48.2886 30.1653C48.247 30.2351 48.2063 30.3047 48.1664 30.3739C57.0406 27.1163 61.0377 31.544 61.927 34.165C68.6669 35.4006 68.0116 41.2325 66.8415 43.9939C69.9746 46.7473 66.9087 55.4454 64.1041 61.3223Z" fill="#C31316"/>
<path d="M58.9787 35.4282C58.0739 28.4618 52.8578 29.9542 48.9058 32.5105C48.0816 33.0437 48.5875 34.3243 49.5376 34.5713C50.9766 34.9453 51.6744 35.7598 51.952 36.53C52.1423 37.0579 52.5623 37.5538 53.1196 37.6202C56.653 38.0413 57.5745 39.5701 57.5745 40.3429C56.6958 45.5101 59.0806 47.4572 60.3828 47.7849C60.4951 46.0999 62.021 44.7426 62.7698 44.2745C69.622 38.8826 63.0975 36.1304 58.9787 35.4282Z" fill="#E83F3E"/>
<path fill-rule="evenodd" clip-rule="evenodd" d="M62.2108 44.6857C63.6633 39.0765 59.2581 36.8323 56.8725 36.4112C54.6205 32.7885 51.2803 32.103 49.3441 32.2347C49.1965 32.3249 49.0503 32.417 48.9058 32.5105C48.0816 33.0436 48.5875 34.3242 49.5376 34.5712C50.9766 34.9452 51.6744 35.7598 51.952 36.53C52.1423 37.0579 52.5623 37.5537 53.1196 37.6201C56.653 38.0412 57.5745 39.5701 57.5745 40.3429C56.6957 45.5101 59.0805 47.4572 60.3828 47.7848C60.4714 46.4564 61.4385 45.3316 62.2108 44.6857Z" fill="#C31316"/>
<path d="M42.4108 23.4935C47.0164 24.5045 50.7888 24.4764 52.0994 24.336C50.5549 25.3188 47.5482 28.0339 46.6233 30.6544C44.9384 35.4285 40.5856 32.1989 35.1094 37.8155C34.2201 37.6283 32.1326 37.31 30.897 37.5347C31.9735 37.7687 34.1265 38.3491 34.1265 38.7984L33.1436 40.9046C31.5055 40.4834 28.0045 40.0621 27.1058 41.7471C28.6504 41.279 32.0203 40.6238 33.1436 41.7471C33.1436 43.0576 33.5368 46.0157 35.1094 47.3636C35.0158 50.8272 36.0361 58.3159 40.8664 60.5625C30.1949 61.405 24.7179 57.1926 24.7189 47.3636C24.7198 38.8132 29.3524 33.4628 32.5819 31.7779C31.1777 28.5484 36.6539 22.2298 42.4108 23.4935Z" fill="#E83F3E"/>
<path fill-rule="evenodd" clip-rule="evenodd" d="M42.1294 23.4929C43.7675 25.5055 45.2466 30.1485 38.0574 32.6198C34.9819 33.677 33.074 35.4414 31.9118 37.457C33.0705 37.4556 34.4349 37.6731 35.1096 37.8151C37.8323 35.0226 40.2773 34.4169 42.2548 33.9269C44.2546 33.4315 45.7763 33.0545 46.6235 30.654C47.5484 28.0335 50.555 25.3184 52.0995 24.3356C50.789 24.476 47.0166 24.5041 42.411 23.4931C42.3211 23.4734 42.2314 23.4555 42.1417 23.4395L42.1294 23.4929ZM40.5444 60.4016C35.9907 57.9786 35.0181 50.7484 35.1096 47.3633C33.5369 46.0153 33.1438 43.0572 33.1438 41.7467C32.6262 41.2291 31.6315 41.0891 30.5583 41.1345C29.97 44.0229 30.2817 46.8869 30.475 48.6269C30.4845 48.7118 30.494 48.7983 30.5036 48.8862C30.9229 52.7036 31.6553 59.3709 40.5444 60.4016ZM30.6927 40.5385C31.6158 40.5816 32.5164 40.7429 33.1438 40.9042L34.1267 38.798C34.1267 38.4502 32.8364 38.0238 31.7541 37.7404C31.2706 38.6413 30.929 39.5871 30.6927 40.5385Z" fill="#C01515"/>
<path d="M48.8688 61.1241C39.433 60.8995 36.7932 53.2609 36.6528 49.4698C41.1461 54.3 46.4818 54.6003 48.4476 53.5418C57.2094 48.8239 59.0254 56.35 58.8382 60.7029C60.7478 58.6809 59.3531 54.2438 58.417 52.278C57.9957 50.7335 63.9399 46.1934 66.4206 45.1169C68.7795 50.5088 62.0677 61.4986 58.417 66.3194C59.1658 64.6813 58.3046 61.3488 48.8688 61.1241Z" fill="#E73C3C"/>
<path fill-rule="evenodd" clip-rule="evenodd" d="M36.8994 49.7286C37.91 53.2602 41.5157 59.1386 48.8691 57.1921C55.9759 55.3109 57.4776 55.6336 58.4815 56.8939C57.592 53.2399 54.9076 50.0628 48.4478 53.5412C46.5178 54.5804 41.3396 54.3099 36.8994 49.7286Z" fill="#C31316"/>
<path fill-rule="evenodd" clip-rule="evenodd" d="M61.5179 48.3669C62.7315 47.3664 64.0954 46.4069 65.2122 45.7498C65.3397 46.6324 65.419 50.0228 63.4721 50.8745C61.977 51.5286 60.7306 53.924 60.0641 55.205C59.8546 55.6077 59.7023 55.9002 59.6177 55.994C59.3539 54.5518 58.839 53.1644 58.4172 52.2786C58.373 52.1166 58.3989 51.9216 58.4834 51.7012C59.3259 50.7148 60.4325 49.4752 61.5179 48.3669Z" fill="#C31316"/>
<path d="M51.9578 38.5178C44.9933 37.2822 45.1243 40.2496 46.0604 41.8878C47.8858 40.5303 52.323 39.5846 55.4683 46.6615C56.03 43.4039 54.8599 42.1217 54.2046 41.8878C53.8676 39.4167 52.5663 38.6115 51.9578 38.5178Z" fill="#C11616"/>
<path d="M43.5331 43.432C41.7358 41.747 43.6267 40.0152 44.7968 39.36C44.0012 40.8577 43.477 43.6005 47.7456 42.5895C53.0813 41.3258 53.5026 44.2745 53.3622 44.2745C53.2217 44.2745 52.8005 43.8532 50.5539 44.2745C48.3073 44.6957 45.7797 45.5382 43.5331 43.432Z" fill="#C11616"/>
<path d="M36.0914 39.6406C38.5626 33.3501 44.7034 34.4921 47.4649 35.8494C43.9547 35.8494 37.3549 39.0792 40.3036 44.8362C43.2523 50.5932 47.4649 46.5212 55.047 47.3637C62.6292 48.2061 56.8724 51.4356 54.4854 50.3123C52.0983 49.189 49.7115 51.9973 45.2182 51.4356C40.725 50.874 33.0022 47.5038 36.0914 39.6406Z" fill="#C31316"/>
<path d="M50.2729 68.1446C44.7687 69.3802 38.6186 64.6342 36.2316 62.1068C55.6087 59.8602 57.4341 67.7233 57.1532 67.3021C56.8724 66.8809 57.1532 66.6 50.2729 68.1446Z" fill="#E73C3C"/>
<path d="M19.1005 33.3223C19.8251 30.5146 25.1015 28.6136 29.1303 27.6636C30.4261 27.358 31.5842 28.4869 31.036 29.7003C30.5333 30.8129 29.9219 31.463 29.6313 31.6373C17.2749 43.432 24.2956 58.7372 29.4909 59.4392C20.5044 67.5832 15.0265 47.5039 15.4497 43.432C15.6832 41.1854 17.9772 37.6751 19.1005 33.3223Z" fill="#E83F3E"/>
<path d="M14.7483 24.7548C9.06093 29.0203 10.4975 34.3873 12.8289 37.8802C13.6238 39.0711 15.3236 38.7234 15.8665 37.3985C17.0966 34.396 18.6925 30.748 19.5223 29.6693C18.9139 28.6864 17.3319 26.8049 15.8716 27.1419C16.48 26.7206 18.2024 26.4679 20.2244 28.8268C25.8138 25.5188 32.821 24.4737 38.3287 21.0312C39.2884 20.4314 40.1729 19.8357 40.9692 19.2646C43.6724 17.3257 44.367 13.0544 41.0819 12.5299C37.1978 11.9098 31.9883 14.7052 30.1938 17.032C21.2073 28.6864 23.7348 18.0149 14.7483 24.7548Z" fill="#E53D42"/>
<path fill-rule="evenodd" clip-rule="evenodd" d="M39.1885 13.8183L39.1277 13.9089C37.2523 16.7009 34.7683 20.3992 28.2864 21.9619C24.0655 22.9795 16.915 25.7893 11.0181 29.8953C11.4699 28.1315 12.6017 26.3647 14.7483 24.7547C18.7608 21.7454 20.4778 22.2072 21.9491 22.603C23.7731 23.0936 25.2197 23.4826 30.1937 17.032C31.7793 14.9761 36.0308 12.5544 39.6786 12.446L39.1885 13.8183Z" fill="#FF8888"/>
<path d="M14.5281 41.8908C14.5539 41.7936 14.5805 41.6988 14.6078 41.6067C14.583 41.7016 14.5564 41.7963 14.5281 41.8908C13.2692 46.634 13.8428 57.3393 25.8409 64.4941C25.4197 66.1323 24.7458 69.9984 25.4197 72.3573C22.7519 72.3573 16.6298 70.4477 13.4846 62.8092C13.391 61.9667 12.6702 59.9728 10.5359 58.7372C10.5827 58.4095 10.9571 57.6139 12.0804 57.0522C11.1911 56.4906 9.55299 54.609 10.1146 51.5761C10.7961 47.8964 13.5938 45.0103 14.5281 41.8908Z" fill="#E53D42"/>
<path d="M60.5232 19.0001C52.8847 13.9452 44.8904 18.6724 41.8481 21.6679C42.9715 23.0159 47.6051 23.072 51.5367 22.37C57.4341 20.4042 64.0335 23.3529 66.7014 25.0378C67.3754 22.3419 69.3224 21.5743 70.2117 21.5275C65.0164 23.9145 71.0542 32.0585 75.5475 31.0756C80.4932 29.9937 75.5475 20.1234 73.3008 19.4213C71.5035 18.8596 70.0245 17.7829 69.5097 17.3148C65.6904 12.8215 61.9273 16.5661 60.5232 19.0001Z" fill="#E84140"/>
<path d="M33.2829 86.5391C22.1621 77.5526 26.9642 65.477 30.7554 60.5625C33.1425 62.1071 36.7604 65.0928 38.3378 66.4599C40.444 68.2853 42.9715 69.315 45.0777 70.1106C38.2255 74.4915 38.291 80.3608 39.1803 82.7479C39.8543 71.4024 48.822 69.2214 53.2217 69.549C48.6161 76.1765 50.9282 76.9909 52.66 76.5697C61.1972 67.2462 70.9138 68.8469 74.705 70.8127C72.1775 70.9531 69.7905 76.1484 68.3864 79.378C66.9822 82.6075 64.4548 85.1349 60.3828 87.2411C56.3108 89.3473 50.4134 80.08 43.8139 84.7137C38.5344 88.4206 34.5934 87.4751 33.2829 86.5391Z" fill="#E83F3E"/>
<path fill-rule="evenodd" clip-rule="evenodd" d="M31.1163 84.5476C31.7597 85.2249 32.4798 85.89 33.2829 86.539C34.5934 87.4751 38.5344 88.4206 43.814 84.7136C47.639 82.028 51.2282 84.0121 54.3628 85.745C56.6364 87.0018 58.6709 88.1265 60.3828 87.2411C61.9443 86.4334 63.2787 85.5638 64.4097 84.6164C60.6787 84.5072 55.6754 83.5528 50.0145 80.7065C45.555 78.4643 42.4317 77.6491 40.2134 77.6343C39.664 79.086 39.2973 80.7789 39.1803 82.7478C38.7697 81.6457 38.5348 79.8013 39.0751 77.7039C36.1196 78.1072 35.1637 80.1689 34.582 81.526C33.8788 83.1668 33.1434 84.1961 31.1163 84.5476Z" fill="#FF8888"/>
<path fill-rule="evenodd" clip-rule="evenodd" d="M31.3571 60.9642C31.9242 64.3829 34.6397 71.1366 41.4267 72.7786C41.5477 72.7835 41.6811 72.7891 41.8231 72.7955C42.6767 71.8687 43.7466 70.9617 45.0775 70.1108C42.9713 69.3151 40.4438 68.2854 38.3376 66.46C36.8878 65.2035 33.7144 62.5797 31.3571 60.9642ZM70.4449 69.5032C65.7208 68.7837 58.8775 69.7795 52.6598 76.5698C50.9281 76.9911 48.6159 76.1767 53.2215 69.5491C50.6487 69.3575 46.5137 70.0239 43.3886 72.8791C44.2242 72.9326 44.9371 72.9975 44.9371 73.0595C44.9371 73.0628 44.9365 73.0732 44.9356 73.0902C44.8982 73.7836 44.2692 85.4554 57.1531 75.5869C62.0828 71.8109 66.6535 70.0917 70.4449 69.5032Z" fill="#C31316"/>
<path fill-rule="evenodd" clip-rule="evenodd" d="M45.468 18.9881C46.6128 19.5271 48.5251 19.8347 51.5103 19.7487C56.9418 19.5923 63.1866 20.0941 68.4706 22.2173C69.123 21.7361 69.7877 21.5498 70.2119 21.5275C69.6828 21.7706 69.2702 22.0734 68.9607 22.4201C72.427 23.8969 75.4457 26.1012 77.4982 29.3146C78.4749 26.1434 75.0603 19.9711 73.301 19.4213C71.5037 18.8596 70.0246 17.7829 69.5098 17.3148C65.6905 12.8215 61.9274 16.5661 60.5233 19.0001C55.0311 15.3655 49.355 16.7882 45.468 18.9881Z" fill="#FF8888"/>
</svg>
