<svg width="100" height="101" viewBox="0 0 100 101" fill="none" xmlns="http://www.w3.org/2000/svg">
<path d="M33.2462 17.9053C33.4896 17.2329 34.2676 14.7008 34.4855 13.4361C35.5338 14.1763 37.8745 15.4167 38.522 15.72C40.1326 16.4745 49.2062 21.3695 46.4327 34.8185L41.1572 37.0037C29.6861 29.455 32.6408 19.5777 33.2462 17.9053Z" fill="#FDC14B"/>
<path fill-rule="evenodd" clip-rule="evenodd" d="M33.0314 17.8277C33.2728 17.161 34.0458 14.6431 34.2604 13.3975L34.6173 13.2497C35.6498 13.9787 37.9769 15.2125 38.6189 15.5133C39.4434 15.8995 42.1533 17.3332 44.3079 20.377C46.4681 23.4287 48.0557 28.0794 46.6564 34.8648L46.5201 35.0297L41.2447 37.2148L41.0317 37.1946C35.2442 33.3861 33.0783 28.975 32.4479 25.2895C31.8191 21.6138 32.7215 18.6838 33.0314 17.8277ZM34.6444 13.8198C34.3629 15.1694 33.686 17.3615 33.461 17.9832C33.1655 18.7995 32.2879 21.6444 32.8982 25.2125C33.5033 28.7498 35.5743 33.0217 41.182 36.7463L46.2331 34.6541C47.5646 28.0552 46.0084 23.57 43.935 20.6409C41.8435 17.6863 39.2113 16.2952 38.4251 15.927C37.8264 15.6465 35.7978 14.5751 34.6444 13.8198Z" fill="black"/>
<path d="M36.6714 20.58C36.648 17.9977 35.3535 15.3351 34.6434 13.819C35.6886 14.5586 37.9839 15.6395 38.6294 15.9427C40.2351 16.6971 49.281 21.5899 46.5277 35.0113L43.2359 35.3874C37.2054 30.7883 36.7054 24.3271 36.6714 20.58Z" fill="#FF9921"/>
<path d="M37.3483 20.3476C37.0661 20.8601 40.9944 30.0455 42.9939 34.5742L43.4159 34.3994C43.2876 33.6119 39.3173 24.7034 37.3483 20.3476Z" fill="#511C00"/>
<path d="M37.2346 28.4298C37.2351 29.8635 40.1598 33.5021 41.6221 35.1422L42.1535 35.2311C40.8838 34.0758 38.3452 30.2155 37.2346 28.4298Z" fill="#511C00"/>
<path d="M42.9856 26.0479C43.501 26.5761 44.1908 31.5442 44.4713 33.9623L44.8934 33.7874C44.2944 27.8051 43.3719 26.1351 42.9856 26.0479Z" fill="#511C00"/>
<path d="M15.4763 38.9467C15.1729 38.2992 13.9326 35.9585 13.1924 34.9102C14.457 34.6923 16.9892 33.9143 17.6616 33.6709C19.334 33.0655 29.2113 30.1108 36.76 41.5819L34.5748 46.8573C21.1258 49.6309 16.2308 40.5573 15.4763 38.9467Z" fill="#FDC14B"/>
<path fill-rule="evenodd" clip-rule="evenodd" d="M15.2694 39.0435C14.9687 38.4015 13.7349 36.0745 13.0058 35.0419L13.1537 34.685C14.3993 34.4704 16.9172 33.6974 17.5839 33.4561C18.44 33.1462 21.3699 32.2438 25.0457 32.8725C28.7311 33.5029 33.1423 35.6688 36.9508 41.4563L36.971 41.6693L34.7859 46.9447L34.621 47.081C27.8356 48.4803 23.1849 46.8927 20.1331 44.7325C17.0894 42.5779 15.6557 39.868 15.2694 39.0435ZM13.576 35.069C14.3313 36.2224 15.4027 38.251 15.6831 38.8498C16.0514 39.6359 17.4424 42.2681 20.3971 44.3596C23.3262 46.433 27.8114 47.9893 34.4102 46.6577L36.5025 41.6066C32.7779 35.999 28.506 33.9279 24.9687 33.3228C21.4005 32.7125 18.5556 33.5901 17.7394 33.8856C17.1177 34.1106 14.9256 34.7875 13.576 35.069Z" fill="black"/>
<path d="M19.7896 38.4157C17.9471 36.6063 15.1519 35.6372 13.5777 35.0673C14.8398 34.8511 17.2242 33.9941 17.8951 33.7521C19.5638 33.1502 29.42 30.2135 36.9635 41.6507L34.9017 44.2443C27.3855 45.2565 22.4632 41.0413 19.7896 38.4157Z" fill="#FF9921"/>
<path d="M20.1034 37.7727C20.2663 38.3346 29.5391 42.052 34.1552 43.8404L34.33 43.4183C33.6825 42.9523 24.5758 39.4604 20.1034 37.7727Z" fill="#511C00"/>
<path d="M25.7382 43.5683C26.7524 44.5818 31.3933 45.0866 33.587 45.2123L34.0257 44.8994C32.3109 44.9803 27.7862 44.0457 25.7382 43.5683Z" fill="#511C00"/>
<path d="M28.1203 37.8177C28.8582 37.8267 32.859 40.8519 34.7671 42.3634L34.942 41.9413C30.2883 38.1347 28.4551 37.6061 28.1203 37.8177Z" fill="#511C00"/>
<path d="M17.6614 66.3802C16.989 66.1368 14.4569 65.3588 13.1922 65.1409C13.9324 64.0926 15.1728 61.7519 15.4761 61.1044C16.2306 59.4938 21.1256 50.4202 34.5746 53.1937L36.7598 58.4692C29.2111 69.9403 19.3338 66.9856 17.6614 66.3802Z" fill="#FDC14B"/>
<path fill-rule="evenodd" clip-rule="evenodd" d="M17.5837 66.5951C16.917 66.3538 14.3991 65.5807 13.1535 65.3661L13.0057 65.0093C13.7347 63.9767 14.9685 61.6496 15.2693 61.0076C15.6555 60.1831 17.0892 57.4732 20.1329 55.3187C23.1847 53.1584 27.8354 51.5708 34.6208 52.9701L34.7857 53.1064L36.9708 58.3819L36.9506 58.5949C33.1421 64.3823 28.731 66.5482 25.0455 67.1786C21.3697 67.8074 18.4398 66.905 17.5837 66.5951ZM13.5758 64.9821C14.9254 65.2636 17.1175 65.9405 17.7392 66.1655C18.5555 66.461 21.4003 67.3387 24.9685 66.7283C28.5058 66.1233 32.7777 64.0522 36.5023 58.4446L34.41 53.3934C27.8112 52.0619 23.326 53.6181 20.3969 55.6915C17.4423 57.783 16.0512 60.4153 15.683 61.2014C15.4025 61.8001 14.3311 63.8288 13.5758 64.9821Z" fill="black"/>
<path d="M20.3361 62.955C17.7538 62.9784 15.0976 64.2637 13.5815 64.9738C14.3211 63.9285 15.3955 61.6425 15.6988 60.997C16.4531 59.3914 21.346 50.3455 34.7674 53.0988L35.1435 56.3906C30.5444 62.4211 24.0832 62.921 20.3361 62.955Z" fill="#FF9921"/>
<path d="M20.1035 62.2781C20.616 62.5603 29.8014 58.6319 34.3301 56.6325L34.1552 56.2104C33.3678 56.3388 24.4593 60.309 20.1035 62.2781Z" fill="#511C00"/>
<path d="M28.1857 62.3918C29.6195 62.3913 33.2581 59.4666 34.8982 58.0043L34.9871 57.4729C33.8318 58.7426 29.9715 61.2812 28.1857 62.3918Z" fill="#511C00"/>
<path d="M25.8038 56.6409C26.332 56.1254 31.3001 55.4356 33.7181 55.1552L33.5433 54.7331C27.5609 55.332 25.891 56.2545 25.8038 56.6409Z" fill="#511C00"/>
<path d="M38.5987 84.5041C37.9512 84.8074 35.6105 86.0478 34.5622 86.7879C34.3443 85.5233 33.5663 82.9911 33.3229 82.3188C32.7175 80.6464 29.7628 70.7691 41.2339 63.2204L46.5094 65.4056C49.283 78.8546 40.2094 83.7496 38.5987 84.5041Z" fill="#FDC14B"/>
<path fill-rule="evenodd" clip-rule="evenodd" d="M38.6956 84.711C38.0536 85.0118 35.7266 86.2456 34.694 86.9746L34.3371 86.8268C34.1225 85.5811 33.3495 83.0633 33.1082 82.3966C32.7983 81.5405 31.8959 78.6105 32.5246 74.9348C33.155 71.2493 35.3209 66.8382 41.1084 63.0297L41.3214 63.0095L46.5968 65.1946L46.7331 65.3595C48.1324 72.1449 46.5448 76.7956 44.3846 79.8473C42.23 82.8911 39.5201 84.3248 38.6956 84.711ZM34.7211 86.4045C35.8745 85.6492 37.9031 84.5778 38.5019 84.2973C39.288 83.9291 41.9202 82.538 44.0117 79.5834C46.0851 76.6543 47.6414 72.1691 46.3098 65.5702L41.2587 63.478C35.6511 67.2025 33.58 71.4745 32.9749 75.0118C32.3646 78.5799 33.2422 81.4248 33.5377 82.2411C33.7627 82.8628 34.4396 85.0549 34.7211 86.4045Z" fill="black"/>
<path d="M38.0678 80.1909C36.2584 82.0334 35.2926 84.8398 34.7227 86.414C34.5065 85.1519 33.6462 82.7563 33.4042 82.0854C32.8023 80.4167 29.8657 70.5604 41.3028 63.017L43.8964 65.0787C44.9086 72.5949 40.6934 77.5172 38.0678 80.1909Z" fill="#FF9921"/>
<path d="M37.4249 79.8767C37.9869 79.7138 41.7042 70.441 43.4926 65.8249L43.0705 65.6501C42.6045 66.2976 39.1126 75.4043 37.4249 79.8767Z" fill="#511C00"/>
<path d="M43.2206 74.2418C44.2341 73.2276 44.7389 68.5866 44.8646 66.393L44.5517 65.9543C44.6326 67.669 43.698 72.1938 43.2206 74.2418Z" fill="#511C00"/>
<path d="M37.4697 71.8599C37.4787 71.1219 40.5039 67.1212 42.0154 65.213L41.5934 65.0382C37.7867 69.6919 37.2582 71.525 37.4697 71.8599Z" fill="#511C00"/>
<path d="M66.2086 82.5656C65.9652 83.238 65.1872 85.7702 64.9693 87.0348C63.921 86.2946 61.5803 85.0543 60.9328 84.751C59.3221 83.9965 50.2485 79.1015 53.0221 65.6524L58.2975 63.4673C69.7687 71.016 66.814 80.8933 66.2086 82.5656Z" fill="#FDC14B"/>
<path fill-rule="evenodd" clip-rule="evenodd" d="M66.4233 82.6435C66.182 83.3102 65.409 85.828 65.1944 87.0737L64.8375 87.2215C63.8049 86.4925 61.4779 85.2587 60.8358 84.9579C60.0114 84.5717 57.3015 83.138 55.1469 80.0942C52.9867 77.0425 51.3991 72.3918 52.7984 65.6064L52.9347 65.4415L58.2101 63.2563L58.4231 63.2766C64.2106 67.0851 66.3765 71.4962 67.0069 75.1817C67.6356 78.8574 66.7332 81.7874 66.4233 82.6435ZM64.8104 86.6514C65.0919 85.3018 65.7687 83.1097 65.9938 82.488C66.2893 81.6717 67.1669 78.8268 66.5566 75.2587C65.9515 71.7214 63.8804 67.4494 58.2728 63.7249L53.2216 65.8171C51.8901 72.416 53.4464 76.9012 55.5198 79.8303C57.6113 82.7849 60.2435 84.176 61.0296 84.5442C61.6283 84.8247 63.657 85.8961 64.8104 86.6514Z" fill="black"/>
<path d="M62.7832 79.8912C62.8066 82.4735 64.1021 85.1357 64.8121 86.6518C63.7669 85.9122 61.4707 84.8317 60.8251 84.5285C59.2195 83.7741 50.1736 78.8813 52.9269 65.4599L56.2187 65.0838C62.2492 69.6829 62.7492 76.1441 62.7832 79.8912Z" fill="#FF9921"/>
<path d="M62.1066 80.1238C62.3888 79.6113 58.4605 70.4259 56.461 65.8972L56.039 66.0721C56.1673 66.8595 60.1376 75.768 62.1066 80.1238Z" fill="#511C00"/>
<path d="M62.22 72.0414C62.2195 70.6077 59.2949 66.9691 57.8326 65.329L57.3012 65.2401C58.5709 66.3954 61.1095 70.2557 62.22 72.0414Z" fill="#511C00"/>
<path d="M56.4693 74.4235C55.9539 73.8953 55.2641 68.9272 54.9836 66.5092L54.5615 66.684C55.1605 72.6664 56.083 74.3363 56.4693 74.4235Z" fill="#511C00"/>
<path d="M61.4652 15.7203C62.1127 15.417 64.4534 14.1766 65.5017 13.4364C65.7196 14.7011 66.4976 17.2332 66.741 17.9056C67.3464 19.578 70.3011 29.4553 58.83 37.004L53.5545 34.8188C50.781 21.3698 59.8545 16.4748 61.4652 15.7203Z" fill="#FDC14B"/>
<path fill-rule="evenodd" clip-rule="evenodd" d="M61.3683 15.5136C62.0103 15.2128 64.3373 13.979 65.3699 13.25L65.7268 13.3978C65.9414 14.6435 66.7144 17.1613 66.9557 17.828C67.2656 18.6841 68.168 21.6141 67.5393 25.2898C66.9089 28.9753 64.743 33.3864 58.9555 37.1949L58.7425 37.2152L53.4671 35.03L53.3308 34.8651C51.9315 28.0797 53.5191 23.429 55.6793 20.3773C57.8339 17.3335 60.5438 15.8998 61.3683 15.5136ZM65.3428 13.8201C64.1894 14.5754 62.1608 15.6468 61.5621 15.9273C60.7759 16.2956 58.1437 17.6866 56.0522 20.6412C53.9788 23.5703 52.4226 28.0555 53.7541 34.6544L58.8052 36.7466C64.4128 33.0221 66.4839 28.7501 67.089 25.2128C67.6993 21.6447 66.8217 18.7998 66.5262 17.9835C66.3012 17.3618 65.6243 15.1697 65.3428 13.8201Z" fill="black"/>
<path d="M61.996 20.0336C63.8054 18.1912 64.7727 15.3946 65.3426 13.8204C65.5588 15.0825 66.4176 17.4682 66.6596 18.1391C67.2615 19.8079 70.1982 29.6641 58.761 37.2075L56.1674 35.1458C55.1552 27.6296 59.3704 22.7073 61.996 20.0336Z" fill="#FF9921"/>
<path d="M62.639 20.3477C62.0771 20.5105 58.3598 29.7834 56.5714 34.3995L56.9934 34.5743C57.4595 33.9267 60.9513 24.8201 62.639 20.3477Z" fill="#511C00"/>
<path d="M56.8436 25.9821C55.8302 26.9963 55.3253 31.6372 55.1996 33.8309L55.5125 34.2696C55.4316 32.5548 56.3662 28.0301 56.8436 25.9821Z" fill="#511C00"/>
<path d="M62.5943 28.3645C62.5853 29.1024 59.5601 33.1032 58.0486 35.0113L58.4707 35.1862C62.2773 30.5325 62.8059 28.6993 62.5943 28.3645Z" fill="#511C00"/>
<path d="M83.5251 36.6492C84.145 37.0057 86.5036 38.2116 87.7112 38.6458C86.8002 39.5496 85.1723 41.6393 84.7611 42.2244C83.7384 43.6795 77.3421 51.7653 64.5791 46.6984L63.3432 41.1237C72.7691 31.1376 81.9833 35.7626 83.5251 36.6492Z" fill="#FDC14B"/>
<path fill-rule="evenodd" clip-rule="evenodd" d="M83.639 36.4511C84.2537 36.8045 86.5991 38.0031 87.7885 38.4307L87.8721 38.8078C86.9748 39.6981 85.3557 41.7755 84.948 42.3556C84.4245 43.1005 82.542 45.5203 79.1704 47.1136C75.7898 48.711 70.9341 49.467 64.4948 46.9106L64.3561 46.7477L63.1202 41.173L63.1771 40.9668C67.9327 35.9286 72.653 34.5615 76.3919 34.5807C80.121 34.5998 82.8498 35.9973 83.639 36.4511ZM87.3059 38.7355C86.0257 38.224 83.9845 37.1767 83.4113 36.8471C82.6587 36.4144 80.0095 35.0561 76.3896 35.0375C72.8009 35.0192 68.2342 36.317 63.5925 41.1926L64.7758 46.5304C71.0432 48.9875 75.7305 48.2338 78.9752 46.7005C82.2481 45.1539 84.0751 42.8032 84.5743 42.0929C84.9544 41.552 86.3619 39.7402 87.3059 38.7355Z" fill="black"/>
<path d="M80.2961 39.5581C82.8432 39.9835 85.688 39.1711 87.3044 38.7351C86.3946 39.636 84.9336 41.7086 84.5229 42.2916C83.5012 43.7419 77.1118 51.8007 64.3725 46.7586L64.5737 43.4516C70.1501 38.3113 76.6 38.9409 80.2961 39.5581Z" fill="#FF9921"/>
<path d="M80.4074 40.2651C79.9517 39.8982 70.2236 42.1719 65.4166 43.3545L65.5154 43.8006C66.3132 43.8109 75.7758 41.4479 80.4074 40.2651Z" fill="#511C00"/>
<path d="M72.4676 38.7496C71.0555 38.5011 66.9643 40.7495 65.0953 41.9048L64.9154 42.4127C66.2736 41.3629 70.5161 39.5332 72.4676 38.7496Z" fill="#511C00"/>
<path d="M73.8151 44.827C73.2054 45.2429 68.193 45.0595 65.763 44.9159L65.8619 45.3619C71.8573 45.8108 73.6621 45.1924 73.8151 44.827Z" fill="#511C00"/>
<path d="M84.2845 61.4847C84.5878 62.1322 85.8282 64.4729 86.5683 65.5212C85.3037 65.7391 82.7715 66.5171 82.0992 66.7605C80.4268 67.3659 70.5495 70.3206 63.0008 58.8495L65.1859 53.5741C78.635 50.8005 83.53 59.8741 84.2845 61.4847Z" fill="#FDC14B"/>
<path fill-rule="evenodd" clip-rule="evenodd" d="M84.4913 61.3879C84.7921 62.0299 86.0258 64.3569 86.7549 65.3895L86.6071 65.7464C85.3614 65.961 82.8435 66.734 82.1769 66.9753C81.3208 67.2852 78.3908 68.1876 74.715 67.5589C71.0296 66.9285 66.6184 64.7626 62.81 58.9751L62.7897 58.7621L64.9749 53.4867L65.1398 53.3504C71.9251 51.9511 76.5758 53.5387 79.6276 55.6989C82.6714 57.8535 84.1051 60.5634 84.4913 61.3879ZM86.1847 65.3624C85.4295 64.209 84.3581 62.1804 84.0776 61.5816C83.7093 60.7955 82.3183 58.1633 79.3637 56.0718C76.4345 53.9984 71.9494 52.4421 65.3505 53.7737L63.2582 58.8248C66.9828 64.4324 71.2547 66.5035 74.7921 67.1086C78.3602 67.7189 81.2051 66.8413 82.0214 66.5458C82.643 66.3207 84.8352 65.6439 86.1847 65.3624Z" fill="black"/>
<path d="M79.9711 62.0156C81.8136 63.8249 84.6135 64.7922 86.1877 65.3622C84.9256 65.5783 82.5365 66.4371 81.8656 66.6791C80.1969 67.281 70.3406 70.2177 62.7972 58.7805L64.8589 56.1869C72.3751 55.1747 77.2974 59.3899 79.9711 62.0156Z" fill="#FF9921"/>
<path d="M79.6569 62.6584C79.4941 62.0965 70.2213 58.3792 65.6052 56.5908L65.4303 57.0128C66.0779 57.4789 75.1846 60.9708 79.6569 62.6584Z" fill="#511C00"/>
<path d="M74.0225 56.8631C73.0083 55.8496 68.3674 55.3448 66.1737 55.2191L65.7351 55.532C67.4498 55.4511 71.9745 56.3857 74.0225 56.8631Z" fill="#511C00"/>
<path d="M71.6403 62.6137C70.9023 62.6047 66.9016 59.5795 64.9934 58.068L64.8186 58.4901C69.4723 62.2967 71.3054 62.8253 71.6403 62.6137Z" fill="#511C00"/>
<path d="M47.1056 13.996C47.5878 13.468 49.2756 11.4263 49.9609 10.3413C50.6461 11.4263 52.3339 13.468 52.8161 13.996C54.0154 15.3094 60.5251 23.3041 52.8159 34.668H47.1058C39.3966 23.3041 45.9063 15.3094 47.1056 13.996Z" fill="#FCE971"/>
<path fill-rule="evenodd" clip-rule="evenodd" d="M46.9369 13.8422C47.415 13.3186 49.0928 11.2882 49.7678 10.2195H50.154C50.829 11.2882 52.5067 13.3186 52.9848 13.8422C53.5987 14.5145 55.5537 16.8761 56.3794 20.5127C57.2074 24.1588 56.8944 29.0631 53.0049 34.7964L52.8159 34.8966H47.1058L46.9168 34.7964C43.0273 29.0631 42.7144 24.1588 43.5423 20.5127C44.3681 16.8761 46.323 14.5145 46.9369 13.8422ZM49.9609 10.7566C49.1843 11.8958 47.7201 13.662 47.2743 14.1502C46.6889 14.7913 44.7894 17.0837 43.9878 20.6138C43.1931 24.1135 43.4718 28.8528 47.2272 34.4398H52.6945C56.45 28.8528 56.7286 24.1135 55.9339 20.6138C55.1324 17.0837 53.2328 14.7913 52.6474 14.1502C52.2016 13.662 50.7374 11.8958 49.9609 10.7566Z" fill="black"/>
<path d="M49.2468 17.7781C50.2134 15.3834 50.037 12.4308 49.9612 10.7583C50.6438 11.8416 52.3501 13.7159 52.8304 14.2431C54.0251 15.5545 60.51 23.5366 52.8302 34.8827L49.645 33.9704C45.8336 27.4137 47.8443 21.253 49.2468 17.7781Z" fill="#FDBC24"/>
<path d="M49.9609 17.8223C49.504 18.1877 49.6183 28.1773 49.7325 33.1264H50.1893C50.3721 32.3498 50.1132 22.6001 49.9609 17.8223Z" fill="#511C00"/>
<path d="M46.7629 25.2461C46.2147 26.5709 47.5243 31.0518 48.2476 33.1266L48.7046 33.4121C47.9736 31.8589 47.1055 27.3209 46.7629 25.2461Z" fill="#511C00"/>
<path d="M52.9875 25.2461C53.2616 25.9314 51.9976 30.7853 51.3314 33.1266H51.7883C53.5243 27.3704 53.3111 25.4745 52.9875 25.2461Z" fill="#511C00"/>
<path d="M73.916 23.0289C74.6303 22.9965 77.2675 22.7462 78.5193 22.4636C78.2366 23.7153 77.9864 26.3525 77.9539 27.0668C77.8732 28.8436 76.8232 39.0997 63.3365 41.684L59.2988 37.6464C61.8831 24.1597 72.1393 23.1096 73.916 23.0289Z" fill="#FCE971"/>
<path fill-rule="evenodd" clip-rule="evenodd" d="M73.9057 22.8007C74.614 22.7685 77.236 22.5192 78.469 22.2407L78.7421 22.5139C78.4637 23.7468 78.2144 26.3689 78.1822 27.0772C78.1409 27.9867 77.8533 31.0389 75.8658 34.1943C73.873 37.358 70.1839 40.6045 63.3795 41.9083L63.175 41.8455L59.1374 37.8078L59.0746 37.6033C60.3784 30.799 63.6249 27.1098 66.7886 25.1171C69.9439 23.1295 72.9962 22.842 73.9057 22.8007ZM78.2258 22.7571C76.8712 23.0135 74.5869 23.227 73.9264 23.257C73.0592 23.2964 70.095 23.5743 67.0321 25.5036C63.9955 27.4163 60.8414 30.9645 59.5462 37.5706L63.4122 41.4366C70.0183 40.1415 73.5666 36.9873 75.4793 33.9508C77.4086 30.8878 77.6864 27.9237 77.7258 27.0564C77.7558 26.396 77.9694 24.1117 78.2258 22.7571Z" fill="black"/>
<path d="M72.756 27.217C75.1327 26.2072 77.0941 23.9927 78.223 22.7565C77.9408 24.0005 77.8236 26.5197 77.7899 27.2432L77.7895 27.2514C77.7071 29.0234 76.6484 39.2532 63.195 41.8456L61.5878 38.9483C63.5291 31.6169 69.3071 28.6824 72.756 27.217Z" fill="#FDBC24"/>
<path d="M73.2298 27.7533C72.6484 27.6887 65.6654 34.8331 62.2467 38.4134L62.5697 38.7365C63.2481 38.3165 69.9591 31.2394 73.2298 27.7533Z" fill="#511C00"/>
<path d="M65.7191 30.7413C64.3946 31.2904 62.1522 35.3849 61.1966 37.3635L61.3178 37.8885C61.8993 36.2733 64.4942 32.4507 65.7191 30.7413Z" fill="#511C00"/>
<path d="M70.1206 35.1424C69.8299 35.8208 65.5039 38.3593 63.3772 39.5438L63.7003 39.8668C68.998 37.0241 70.1879 35.5328 70.1206 35.1424Z" fill="#511C00"/>
<path d="M86.2233 47.4393C86.7514 47.9215 88.7931 49.6093 89.8781 50.2945C88.7931 50.9798 86.7514 52.6676 86.2233 53.1498C84.9099 54.3491 76.9152 60.8588 65.5513 53.1496V47.4395C76.9152 39.7303 84.9099 46.24 86.2233 47.4393Z" fill="#FCE971"/>
<path fill-rule="evenodd" clip-rule="evenodd" d="M86.3773 47.2707C86.9009 47.7488 88.9313 49.4266 90 50.1016V50.4878C88.9313 51.1628 86.9009 52.8405 86.3773 53.3186C85.705 53.9325 83.3434 55.8875 79.7068 56.7133C76.0607 57.5412 71.1564 57.2282 65.4231 53.3388L65.3229 53.1497V47.4396L65.4231 47.2506C71.1564 43.3611 76.0607 43.0482 79.7068 43.8761C83.3434 44.7019 85.705 46.6568 86.3773 47.2707ZM89.4629 50.2947C88.3237 49.5181 86.5575 48.0539 86.0693 47.6081C85.4282 47.0227 83.1357 45.1232 79.6057 44.3216C76.106 43.5269 71.3667 43.8056 65.7797 47.561V53.0283C71.3667 56.7838 76.106 57.0624 79.6057 56.2678C83.1357 55.4662 85.4282 53.5666 86.0693 52.9812C86.5575 52.5354 88.3237 51.0712 89.4629 50.2947Z" fill="black"/>
<path d="M82.4413 49.5806C84.8359 50.5471 87.7907 50.3699 89.4631 50.294C88.3798 50.9767 86.5035 52.6838 85.9762 53.1641C84.6649 54.3589 76.6827 60.8438 65.3367 53.1639L66.2489 49.9788C72.8057 46.1673 78.9664 48.178 82.4413 49.5806Z" fill="#FDBC24"/>
<path d="M82.3971 50.2949C82.0316 49.8381 72.0421 49.9523 67.093 50.0665V50.5234C67.8696 50.7061 77.6193 50.4472 82.3971 50.2949Z" fill="#511C00"/>
<path d="M74.9734 47.0969C73.6486 46.5487 69.1677 47.8583 67.0929 48.5816L66.8074 49.0386C68.3606 48.3077 72.8986 47.4396 74.9734 47.0969Z" fill="#511C00"/>
<path d="M74.9734 53.3216C74.2881 53.5957 69.4342 52.3318 67.0929 51.6655V52.1224C72.8491 53.8584 74.745 53.6452 74.9734 53.3216Z" fill="#511C00"/>
<path d="M77.1907 73.936C77.2232 74.6504 77.4734 77.2875 77.756 78.5393C76.5043 78.2566 73.8671 78.0064 73.1528 77.974C71.376 77.8933 61.1199 76.8432 58.5356 63.3565L62.5732 59.3189C76.0599 61.9031 77.11 72.1593 77.1907 73.936Z" fill="#FCE971"/>
<path fill-rule="evenodd" clip-rule="evenodd" d="M77.4189 73.9257C77.4511 74.634 77.7005 77.2561 77.9789 78.489L77.7057 78.7622C76.4728 78.4837 73.8507 78.2344 73.1424 78.2022C72.2329 78.1609 69.1807 77.8734 66.0253 75.8858C62.8616 73.893 59.6151 70.2039 58.3113 63.3996L58.3741 63.1951L62.4118 59.1574L62.6163 59.0946C69.4206 60.3984 73.1098 63.6449 75.1025 66.8086C77.0901 69.964 77.3776 73.0162 77.4189 73.9257ZM77.4625 78.2458C77.2061 76.8912 76.9926 74.6069 76.9626 73.9465C76.9232 73.0792 76.6453 70.115 74.716 67.0521C72.8033 64.0156 69.2551 60.8614 62.649 59.5663L58.783 63.4323C60.0781 70.0384 63.2323 73.5866 66.2688 75.4993C69.3318 77.4286 72.296 77.7065 73.1632 77.7458C73.8236 77.7758 76.1079 77.9894 77.4625 78.2458Z" fill="black"/>
<path d="M73.0024 72.776C74.0122 75.1527 76.2288 77.115 77.465 78.244C76.2165 77.9607 73.6812 77.8427 72.9683 77.8095L72.9681 77.8095C71.196 77.7271 60.9662 76.6683 58.3738 63.215L61.2711 61.6078C68.6026 63.549 71.5371 69.3271 73.0024 72.776Z" fill="#FDBC24"/>
<path d="M72.466 73.2496C72.5306 72.6682 65.3861 65.6852 61.8058 62.2664L61.4828 62.5895C61.9027 63.2679 68.9799 69.9789 72.466 73.2496Z" fill="#511C00"/>
<path d="M69.478 65.7391C68.9288 64.4146 64.8343 62.1722 62.8557 61.2166L62.3307 61.3378C63.9459 61.9193 67.7685 64.5143 69.478 65.7391Z" fill="#511C00"/>
<path d="M65.0766 70.1405C64.3982 69.8498 61.8597 65.5238 60.6752 63.3971L60.3522 63.7202C63.1949 69.0179 64.6862 70.2078 65.0766 70.1405Z" fill="#511C00"/>
<path d="M52.4856 86.2894C52.0034 86.8174 50.3156 88.8591 49.6303 89.9441C48.9451 88.8591 47.2573 86.8174 46.7751 86.2894C45.5758 84.976 39.0661 76.9813 46.7753 65.6174H52.4854C60.1946 76.9813 53.6849 84.976 52.4856 86.2894Z" fill="#FCE971"/>
<path fill-rule="evenodd" clip-rule="evenodd" d="M52.6543 86.4435C52.1762 86.9671 50.4985 88.9974 49.8235 90.0662H49.4372C48.7623 88.9974 47.0845 86.9671 46.6064 86.4435C45.9925 85.7711 44.0376 83.4096 43.2118 79.773C42.3839 76.1268 42.6968 71.2226 46.5863 65.4892L46.7753 65.389H52.4854L52.6744 65.4892C56.5639 71.2226 56.8769 76.1268 56.0489 79.773C55.2232 83.4096 53.2682 85.7711 52.6543 86.4435ZM49.6304 89.529C50.4069 88.3899 51.8711 86.6237 52.3169 86.1354C52.9023 85.4944 54.8018 83.2019 55.6034 79.6718C56.3981 76.1722 56.1195 71.4329 52.364 65.8459H46.8967C43.1413 71.4329 42.8626 76.1722 43.6573 79.6718C44.4589 83.2019 46.3584 85.4944 46.9438 86.1354C47.3896 86.6237 48.8538 88.3899 49.6304 89.529Z" fill="black"/>
<path d="M50.3447 82.5074C49.3782 84.9021 49.5561 87.8595 49.632 89.532C48.9493 88.4487 47.2415 86.5696 46.7612 86.0424C45.5664 84.731 39.0815 76.7489 46.7614 65.4028L49.9465 66.3151C53.758 72.8718 51.7473 79.0325 50.3447 82.5074Z" fill="#FDBC24"/>
<path d="M49.6305 82.4634C50.0873 82.0979 49.9731 72.1083 49.8589 67.1592H49.4021C49.2193 67.9359 49.4782 77.6856 49.6305 82.4634Z" fill="#511C00"/>
<path d="M52.8285 75.0396C53.3767 73.7147 52.0671 69.2339 51.3438 67.1591L50.8868 66.8735C51.6178 68.4268 52.4858 72.9647 52.8285 75.0396Z" fill="#511C00"/>
<path d="M46.604 75.0396C46.3299 74.3543 47.5938 69.5004 48.26 67.1591H47.8032C46.0672 72.9152 46.2804 74.8111 46.604 75.0396Z" fill="#511C00"/>
<path d="M26.2644 77.2567C25.55 77.2892 22.9129 77.5394 21.6611 77.8221C21.9438 76.5703 22.194 73.9331 22.2264 73.2188C22.3071 71.4421 23.3572 61.1859 36.8439 58.6016L40.8815 62.6393C38.2972 76.126 28.0411 77.176 26.2644 77.2567Z" fill="#FCE971"/>
<path fill-rule="evenodd" clip-rule="evenodd" d="M26.2747 77.485C25.5664 77.5171 22.9444 77.7665 21.7114 78.0449L21.4383 77.7718C21.7167 76.5388 21.9661 73.9168 21.9982 73.2085C22.0395 72.299 22.3271 69.2467 24.3146 66.0913C26.3074 62.9277 29.9965 59.6812 36.8009 58.3773L37.0054 58.4402L41.043 62.4778L41.1059 62.6823C39.802 69.4867 36.5555 73.1758 33.3918 75.1686C30.2365 77.1561 27.1842 77.4437 26.2747 77.485ZM21.9547 77.5285C23.3092 77.2721 25.5935 77.0586 26.254 77.0286C27.1212 76.9892 30.0854 76.7114 33.1484 74.782C36.1849 72.8693 39.3391 69.3211 40.6342 62.715L36.7682 58.849C30.1621 60.1441 26.6138 63.2983 24.7012 66.3348C22.7718 69.3978 22.494 72.362 22.4546 73.2292C22.4246 73.8897 22.2111 76.1739 21.9547 77.5285Z" fill="black"/>
<path d="M27.4245 73.0684C25.0478 74.0783 23.082 76.2916 21.953 77.5278C22.2363 76.2791 22.3578 73.7465 22.3909 73.0341C22.4734 71.262 23.5321 61.0323 36.9855 58.4398L38.5927 61.3371C36.6514 68.6686 30.8734 71.6031 27.4245 73.0684Z" fill="#FDBC24"/>
<path d="M26.9506 72.5324C27.5321 72.597 34.515 65.4525 37.9338 61.8722L37.6108 61.5492C36.9324 61.9691 30.2214 69.0463 26.9506 72.5324Z" fill="#511C00"/>
<path d="M34.4613 69.5446C35.7857 68.9955 38.0281 64.901 38.9838 62.9224L38.8626 62.3974C38.2811 64.0126 35.6861 67.8352 34.4613 69.5446Z" fill="#511C00"/>
<path d="M30.0598 65.143C30.3505 64.4646 34.6765 61.9261 36.8031 60.7416L36.4801 60.4186C31.1823 63.2613 29.9925 64.7526 30.0598 65.143Z" fill="#511C00"/>
<path d="M13.7767 53.1506C13.2487 52.6684 11.207 50.9806 10.122 50.2953C11.207 49.6101 13.2487 47.9222 13.7767 47.4401C15.0901 46.2408 23.0848 39.7311 34.4487 47.4403V53.1504C23.0848 60.8595 15.0901 54.3499 13.7767 53.1506Z" fill="#FCE971"/>
<path fill-rule="evenodd" clip-rule="evenodd" d="M13.6227 53.3191C13.0991 52.841 11.0687 51.1633 10 50.4883V50.102C11.0687 49.4271 13.0991 47.7493 13.6227 47.2712C14.295 46.6573 16.6566 44.7024 20.2932 43.8766C23.9393 43.0486 28.8436 43.3616 34.5769 47.2511L34.6771 47.4401V53.1502L34.5769 53.3392C28.8436 57.2287 23.9393 57.5417 20.2932 56.7137C16.6566 55.888 14.295 53.933 13.6227 53.3191ZM10.5371 50.2952C11.6763 51.0717 13.4425 52.5359 13.9307 52.9817C14.5718 53.5671 16.8643 55.4666 20.3943 56.2682C23.894 57.0629 28.6333 56.7843 34.2203 53.0288V47.5615C28.6333 43.8061 23.894 43.5274 20.3943 44.3221C16.8643 45.1237 14.5718 47.0232 13.9307 47.6086C13.4425 48.0544 11.6763 49.5186 10.5371 50.2952Z" fill="black"/>
<path d="M17.5586 51.0093C15.164 50.0427 12.2109 50.2165 10.5385 50.2924C11.6217 49.6097 13.4964 47.906 14.0237 47.4257C15.335 46.231 23.3172 39.7461 34.6632 47.4259L33.751 50.6111C27.1942 54.4225 21.0335 52.4119 17.5586 51.0093Z" fill="#FDBC24"/>
<path d="M17.6025 50.2952C17.968 50.752 27.9576 50.6378 32.9067 50.5236V50.0667C32.1301 49.884 22.3803 50.1429 17.6025 50.2952Z" fill="#511C00"/>
<path d="M25.0262 53.4929C26.351 54.0411 30.8319 52.7315 32.9067 52.0082L33.1922 51.5512C31.6389 52.2822 27.101 53.1503 25.0262 53.4929Z" fill="#511C00"/>
<path d="M25.0262 47.2685C25.7114 46.9944 30.5654 48.2583 32.9067 48.9246V48.4677C27.1505 46.7317 25.2546 46.9449 25.0262 47.2685Z" fill="#511C00"/>
<path d="M22.3019 26.7737C22.2695 26.0594 22.0193 23.4222 21.7366 22.1704C22.9884 22.4531 25.6255 22.7033 26.3398 22.7358C28.1166 22.8165 38.3727 23.8665 40.957 37.3532L36.9194 41.3909C23.4327 38.8066 22.3826 28.5504 22.3019 26.7737Z" fill="#FCE971"/>
<path fill-rule="evenodd" clip-rule="evenodd" d="M22.0737 26.784C22.0416 26.0757 21.7922 23.4537 21.5138 22.2207L21.7869 21.9476C23.0199 22.226 25.642 22.4753 26.3502 22.5075C27.2598 22.5488 30.312 22.8364 33.4674 24.8239C36.631 26.8167 39.8775 30.5058 41.1814 37.3102L41.1186 37.5147L37.0809 41.5523L36.8764 41.6151C30.072 40.3113 26.3829 37.0648 24.3901 33.9011C22.4026 30.7458 22.1151 27.6935 22.0737 26.784ZM22.0302 22.4639C22.2866 23.8185 22.5001 26.1028 22.5301 26.7633C22.5695 27.6305 22.8473 30.5947 24.7767 33.6576C26.6894 36.6942 30.2376 39.8483 36.8437 41.1434L40.7097 37.2775C39.4146 30.6714 36.2604 27.1231 33.2239 25.2104C30.1609 23.2811 27.1967 23.0033 26.3295 22.9639C25.669 22.9339 23.3848 22.7203 22.0302 22.4639Z" fill="black"/>
<path d="M26.4904 27.9336C25.4806 25.5569 23.2634 23.5916 22.0271 22.4626C23.2759 22.7459 25.8123 22.8669 26.5247 22.9001C28.2968 22.9825 38.5266 24.0413 41.119 37.4946L38.2217 39.1018C30.8902 37.1606 27.9557 31.3825 26.4904 27.9336Z" fill="#FDBC24"/>
<path d="M27.0265 27.4601C26.9619 28.0416 34.1063 35.0245 37.6866 38.4433L38.0097 38.1202C37.5897 37.4419 30.5126 30.7308 27.0265 27.4601Z" fill="#511C00"/>
<path d="M30.0145 34.9706C30.5637 36.2951 34.6582 38.5375 36.6367 39.4931L37.1618 39.3719C35.5466 38.7904 31.724 36.1954 30.0145 34.9706Z" fill="#511C00"/>
<path d="M34.416 30.569C35.0944 30.8597 37.6329 35.1857 38.8173 37.3123L39.1404 36.9893C36.2977 31.6915 34.8063 30.5017 34.416 30.569Z" fill="#511C00"/>
<path d="M67.2066 50.2379C67.2066 59.7309 59.511 67.4265 50.018 67.4265C40.5249 67.4265 32.8293 59.7309 32.8293 50.2379C32.8293 40.7449 40.5249 33.0493 50.018 33.0493C59.511 33.0493 67.2066 40.7449 67.2066 50.2379Z" fill="black"/>
<path d="M66.4073 50.238C66.4073 59.2895 59.0696 66.6271 50.0182 66.6271C40.9667 66.6271 33.629 59.2895 33.629 50.238C33.629 41.1865 40.9667 33.8489 50.0182 33.8489C59.0696 33.8489 66.4073 41.1865 66.4073 50.238Z" fill="#BA5F1E"/>
<path d="M65.6079 50.2379C65.6079 58.8478 58.6281 65.8275 50.0182 65.8275C41.4083 65.8275 34.4285 58.8478 34.4285 50.2379C34.4285 41.6279 41.4083 34.6482 50.0182 34.6482C58.6281 34.6482 65.6079 41.6279 65.6079 50.2379Z" fill="#8F3505"/>
<path d="M64.3514 50.295C64.3514 58.2426 57.9086 64.6855 49.961 64.6855C42.0133 64.6855 35.5705 58.2426 35.5705 50.295C35.5705 42.3474 42.0133 35.9045 49.961 35.9045C57.9086 35.9045 64.3514 42.3474 64.3514 50.295Z" fill="#CB6D01"/>
<path d="M57.9557 50.295C57.9557 54.7103 54.3764 58.2897 49.961 58.2897C45.5457 58.2897 41.9663 54.7103 41.9663 50.295C41.9663 45.8796 45.5457 42.3003 49.961 42.3003C54.3764 42.3003 57.9557 45.8796 57.9557 50.295Z" fill="#BC5000"/>
<path d="M55.1004 50.295C55.1004 53.1334 52.7994 55.4344 49.9609 55.4344C47.1225 55.4344 44.8215 53.1334 44.8215 50.295C44.8215 47.4565 47.1225 45.1555 49.9609 45.1555C52.7994 45.1555 55.1004 47.4565 55.1004 50.295Z" fill="#AC3E01"/>
</svg>
