<svg
  width="32"
  height="32"
  viewBox="0 0 32 32"
  fill="none"
  xmlns="http://www.w3.org/2000/svg"
>
  <path
    d="M19.667 7.83826C18.3453 7.78697 17.4364 8.94284 17.1472 9.52719C18.4081 9.79115 19.1517 10.331 19.3659 10.568C19.1454 9.72533 19.2698 9.0382 20.0309 8.695C21.7984 7.89796 22.1668 6.79442 22.1301 6.34229C21.8598 6.86231 20.9886 7.88955 19.667 7.83826Z"
    fill="#F29D1E"
  />
  <path
    d="M19.667 7.83826C18.3453 7.78697 17.4364 8.94284 17.1472 9.52719C17.2649 9.55028 17.521 9.60606 17.6034 9.64444C17.756 9.23845 18.3609 8.38804 19.56 8.23425C21.0588 8.04201 21.9643 7.11703 22.1301 6.34229C21.8598 6.86231 20.9886 7.88955 19.667 7.83826Z"
    fill="#FFE701"
  />
  <path
    d="M23.7882 9.33418C21.8931 8.42253 19.8702 9.53143 19.0957 10.1998C20.7736 11.3829 21.531 12.6405 21.6999 13.1214C21.8878 11.7539 22.4843 10.8313 23.8008 10.8131C26.8581 10.7708 28.0619 9.39599 28.2816 8.71387C27.5734 9.30049 25.6832 10.2458 23.7882 9.33418Z"
    fill="#F29D1E"
  />
  <path
    d="M23.7882 9.33418C21.8931 8.42253 19.8702 9.53143 19.0957 10.1998C19.2533 10.308 19.5927 10.5515 19.6896 10.6596C20.1573 10.1646 21.5526 9.30831 23.393 9.84348C25.6933 10.5124 27.5718 9.73788 28.2816 8.71387C27.5734 9.30049 25.6832 10.2458 23.7882 9.33418Z"
    fill="#FFE701"
  />
  <path
    d="M24.6207 12.7949C23.648 11.8276 22.1807 12.07 21.5687 12.3121C22.3526 13.3989 22.5573 14.3325 22.5618 14.6635C22.9585 13.8666 23.5138 13.4303 24.3238 13.7034C26.2048 14.3374 27.2252 13.7553 27.5002 13.385C26.9457 13.5914 25.5934 13.7623 24.6207 12.7949Z"
    fill="#F29D1E"
  />
  <path
    d="M24.6207 12.7949C23.648 11.8276 22.1807 12.07 21.5687 12.3121C21.6429 12.4124 21.8007 12.6348 21.8377 12.7219C22.2261 12.5197 23.257 12.2965 24.2738 13.0215C25.5447 13.9277 26.8546 13.8589 27.5002 13.385C26.9457 13.5914 25.5934 13.7623 24.6207 12.7949Z"
    fill="#FFE701"
  />
  <path
    d="M26.3218 16.865C25.5357 14.9058 23.3388 14.3312 22.3385 14.2888C22.7895 16.2974 22.5211 17.7313 22.3306 18.1971C23.3593 17.3292 24.3955 17.0647 25.3665 17.9511C27.6215 20.0097 29.3951 19.8307 30 19.4839C29.1015 19.4273 27.1079 18.8242 26.3218 16.865Z"
    fill="#F29D1E"
  />
  <path
    d="M26.3218 16.865C25.5357 14.9058 23.3388 14.3312 22.3385 14.2888C22.3828 14.4753 22.4714 14.8847 22.4714 15.0296C23.135 14.9886 24.71 15.3184 25.7017 16.966C26.9414 19.0254 28.8151 19.7448 30 19.4839C29.1015 19.4273 27.1079 18.8242 26.3218 16.865Z"
    fill="#FFE701"
  />
  <path
    d="M24.1949 20.0065C24.1739 18.5243 22.8873 17.5733 22.2466 17.2831C22.0369 18.7094 21.5029 19.5727 21.2621 19.826C22.1495 19.5309 22.8905 19.6308 23.3007 20.4629C24.2533 22.3956 25.453 22.7447 25.9338 22.6777C25.3629 22.4049 24.2158 21.4888 24.1949 20.0065Z"
    fill="#F29D1E"
  />
  <path
    d="M24.1949 20.0065C24.1739 18.5243 22.8873 17.5733 22.2466 17.2831C22.2287 17.4162 22.1838 17.706 22.1475 17.8004C22.5899 17.9479 23.5328 18.5762 23.7658 19.9095C24.057 21.576 25.0968 22.5365 25.9338 22.6777C25.3629 22.4049 24.2158 21.4888 24.1949 20.0065Z"
    fill="#FFE701"
  />
  <path
    d="M22.9806 23.9956C23.779 21.8854 22.4891 19.7861 21.7444 19.0002C20.6508 20.8964 19.4127 21.8056 18.9304 22.0231C20.3512 22.125 21.3443 22.7002 21.46 24.1181C21.7286 27.4112 23.2317 28.6078 23.9497 28.7944C23.294 28.0741 22.1822 26.1058 22.9806 23.9956Z"
    fill="#F29D1E"
  />
  <path
    d="M22.9806 23.9956C23.779 21.8854 22.4891 19.7861 21.7444 19.0002C21.6447 19.1781 21.4192 19.562 21.3152 19.6744C21.8589 20.1422 22.8426 21.5835 22.4275 23.607C21.9087 26.1364 22.8439 28.1046 23.9497 28.7944C23.294 28.0741 22.1822 26.1058 22.9806 23.9956Z"
    fill="#FFE701"
  />
  <path
    d="M16.6232 5.67606C14.6995 6.42525 14.0841 8.64668 14.0169 9.66375C15.9799 9.25704 17.3657 9.56755 17.8132 9.77364C16.9969 8.70382 16.767 7.64211 17.6533 6.67679C19.7117 4.43491 19.5841 2.62481 19.2629 2C19.1845 2.91319 18.5468 4.92687 16.6232 5.67606Z"
    fill="#F29D1E"
  />
  <path
    d="M16.6232 5.67606C14.6995 6.42525 14.0841 8.64668 14.0169 9.66375C14.1993 9.62355 14.5992 9.54407 14.74 9.54775C14.7174 8.87124 15.0788 7.27654 16.7051 6.3099C18.7379 5.10159 19.4856 3.213 19.2629 2C19.1845 2.91319 18.5468 4.92687 16.6232 5.67606Z"
    fill="#FFE701"
  />
  <path
    d="M9.21825 8.11842C8.40061 9.85986 9.36112 11.7352 9.94358 12.4552C10.9985 10.9162 12.1118 10.2272 12.5366 10.0751C11.3339 9.89095 10.5263 9.33329 10.5206 8.11842C10.5074 5.29697 9.3063 4.17539 8.7074 3.96729C9.21837 4.62539 10.0359 6.37697 9.21825 8.11842Z"
    fill="#F29D1E"
  />
  <path
    d="M9.21825 8.11842C8.40061 9.85986 9.36112 11.7352 9.94358 12.4552C10.0401 12.3106 10.2571 11.9993 10.3531 11.9107C9.92086 11.4753 9.17789 10.181 9.6636 8.48711C10.2707 6.36973 9.60349 4.63031 8.7074 3.96729C9.21837 4.62539 10.0359 6.37697 9.21825 8.11842Z"
    fill="#FFE701"
  />
  <path
    d="M19.2773 24.5334C20.5168 23.6003 20.5266 21.8743 20.3765 21.1279C19.0419 21.8223 17.983 21.882 17.6204 21.8251C18.4172 22.4288 18.79 23.1465 18.34 24.0232C17.2947 26.059 17.7399 27.3368 18.0931 27.7212C17.9714 27.0474 18.0378 25.4664 19.2773 24.5334Z"
    fill="#F29D1E"
  />
  <path
    d="M19.2773 24.5334C20.5168 23.6003 20.5266 21.8743 20.3765 21.1279C20.253 21.1942 19.9804 21.3332 19.8782 21.3593C20.0265 21.842 20.0774 23.0647 19.0946 24.0935C17.8661 25.3796 17.6961 26.8929 18.0931 27.7212C17.9714 27.0474 18.0378 25.4664 19.2773 24.5334Z"
    fill="#FFE701"
  />
  <path
    d="M15.0815 26.5614C16.8809 25.8606 17.4565 23.7827 17.5194 22.8313C15.6833 23.2118 14.387 22.9213 13.9683 22.7286C14.7319 23.7293 14.947 24.7224 14.1179 25.6253C12.1925 27.7224 12.3119 29.4156 12.6123 30C12.6856 29.1458 13.2821 27.2622 15.0815 26.5614Z"
    fill="#F29D1E"
  />
  <path
    d="M15.0815 26.5614C16.8809 25.8606 17.4565 23.7827 17.5194 22.8313C17.3488 22.8689 16.9747 22.9433 16.843 22.9398C16.8641 23.5727 16.5261 25.0643 15.0049 25.9685C13.1034 27.0988 12.4041 28.8654 12.6123 30C12.6856 29.1458 13.2821 27.2622 15.0815 26.5614Z"
    fill="#FFE701"
  />
  <path
    d="M11.9865 24.3864C13.3118 24.4259 14.2129 23.2592 14.4979 22.6708C13.2317 22.4175 12.4817 21.883 12.265 21.6474C12.4932 22.4901 12.3744 23.18 11.6144 23.5308C9.84953 24.3456 9.48962 25.4551 9.53027 25.908C9.79683 25.3843 10.6613 24.3468 11.9865 24.3864Z"
    fill="#F29D1E"
  />
  <path
    d="M11.9865 24.3864C13.3118 24.4259 14.2129 23.2592 14.4979 22.6708C14.3796 22.6487 14.1225 22.5951 14.0396 22.5574C13.8901 22.9657 13.291 23.8236 12.0904 23.9885C10.5896 24.1946 9.68988 25.1299 9.53027 25.908C9.79683 25.3843 10.6613 24.3468 11.9865 24.3864Z"
    fill="#FFE701"
  />
  <path
    d="M8.24126 22.9149C10.0094 23.7655 11.897 22.7308 12.6197 22.1072C11.0541 21.0033 10.3474 19.8298 10.1897 19.3811C10.0144 20.6571 9.45783 21.5179 8.22949 21.5349C5.37679 21.5744 4.2536 22.8572 4.04858 23.4937C4.7094 22.9463 6.47307 22.0642 8.24126 22.9149Z"
    fill="#F29D1E"
  />
  <path
    d="M8.24126 22.9149C10.0094 23.7655 11.897 22.7308 12.6197 22.1072C12.4726 22.0062 12.1559 21.779 12.0655 21.6782C11.6291 22.1401 10.3271 22.939 8.61002 22.4397C6.46362 21.8155 4.71088 22.5382 4.04858 23.4937C4.7094 22.9463 6.47307 22.0642 8.24126 22.9149Z"
    fill="#FFE701"
  />
  <path
    d="M7.35456 19.3986C8.35715 20.3447 9.82569 20.0615 10.4346 19.8016C9.6188 18.7304 9.38897 17.7975 9.37603 17.465C8.99772 18.2767 8.45076 18.7301 7.62965 18.4775C5.72267 17.8909 4.71202 18.5034 4.44507 18.8831C4.99715 18.6607 6.35197 18.4525 7.35456 19.3986Z"
    fill="#F29D1E"
  />
  <path
    d="M7.35456 19.3986C8.35715 20.3447 9.82569 20.0615 10.4346 19.8016C10.3574 19.7028 10.1932 19.4836 10.1537 19.397C9.76853 19.6107 8.73807 19.8628 7.69746 19.1615C6.39668 18.2848 5.08181 18.3893 4.44507 18.8831C4.99715 18.6607 6.35197 18.4525 7.35456 19.3986Z"
    fill="#FFE701"
  />
  <path
    d="M5.49537 14.7754C6.14689 16.7887 8.30215 17.5197 9.29834 17.6335C8.98499 15.5949 9.35087 14.1819 9.57298 13.7302C8.48617 14.5236 7.43308 14.7137 6.52369 13.7589C4.4117 11.5414 2.6279 11.5933 2 11.8965C2.89365 12.0173 4.84384 12.7622 5.49537 14.7754Z"
    fill="#F29D1E"
  />
  <path
    d="M5.49537 14.7754C6.14689 16.7887 8.30215 17.5197 9.29834 17.6335C9.26686 17.444 9.20633 17.0288 9.21614 16.884C8.55055 16.8776 6.99983 16.4355 6.12163 14.7189C5.02388 12.5731 3.2014 11.7206 2 11.8965C2.89365 12.0173 4.84384 12.7622 5.49537 14.7754Z"
    fill="#FFE701"
  />
  <path
    d="M7.80495 12.1554C7.71245 13.454 8.76711 14.3869 9.30601 14.6911C9.59614 13.4595 10.128 12.746 10.3576 12.5432C9.55909 12.7319 8.91816 12.5864 8.6215 11.8261C7.93253 10.0605 6.90887 9.66095 6.48315 9.68188C6.9623 9.96532 7.89746 10.8568 7.80495 12.1554Z"
    fill="#F29D1E"
  />
  <path
    d="M7.80495 12.1554C7.71245 13.454 8.76711 14.3869 9.30601 14.6911C9.33164 14.576 9.3926 14.326 9.4314 14.2462C9.05536 14.0825 8.27727 13.4588 8.17313 12.274C8.04295 10.7929 7.20495 9.87103 6.48315 9.68188C6.9623 9.96532 7.89746 10.8568 7.80495 12.1554Z"
    fill="#FFE701"
  />
  <path
    d="M13.0136 7.21101C11.9832 8.05993 12.0381 9.54266 12.1943 10.1779C13.3151 9.53033 14.2223 9.43838 14.5358 9.47336C13.8294 8.98547 13.4829 8.38334 13.8373 7.6132C14.6604 5.82462 14.2313 4.74431 13.9138 4.42773C14.0431 5.00177 14.0439 6.36208 13.0136 7.21101Z"
    fill="#F29D1E"
  />
  <path
    d="M13.0136 7.21101C11.9832 8.05993 12.0381 9.54266 12.1943 10.1779C12.298 10.1163 12.527 9.9864 12.6138 9.96003C12.4687 9.55116 12.3802 8.50309 13.1866 7.58173C14.1946 6.43003 14.2852 5.12381 13.9138 4.42773C14.0431 5.00177 14.0439 6.36208 13.0136 7.21101Z"
    fill="#FFE701"
  />
  <path
    d="M22.6674 16.0561C22.6674 19.9035 19.6211 23.0196 15.8666 23.0196C12.1121 23.0196 9.06577 19.9035 9.06577 16.0561C9.06577 12.2088 12.1121 9.09262 15.8666 9.09262C19.6211 9.09262 22.6674 12.2088 22.6674 16.0561Z"
    fill="#FC9302"
    stroke="white"
    stroke-width="0.13739"
  />
  <ellipse cx="16.0679" cy="15.7495" rx="6.28877" ry="6.43771" fill="#FDB702" />
  <ellipse cx="16.6074" cy="15.1589" rx="5.19508" ry="5.31812" fill="#FFD102" />
  <ellipse cx="17.1609" cy="14.5482" rx="3.8162" ry="3.90658" fill="#FFE701" />
</svg>
