<svg width="32" height="32" viewBox="0 0 32 32" fill="none" xmlns="http://www.w3.org/2000/svg">
<path d="M5.03674 24.6931H12.445H15.9556L19.555 24.6929H26.9633L24.7742 19.2068C24.4538 18.4192 24.2936 17.5783 24.2936 16.7374L24.2049 14.0145C24.2049 9.50279 20.4807 5.87204 15.9556 6.00552C11.4306 5.87204 7.7064 9.50276 7.7064 14.0145V16.7375C7.7064 17.5785 7.54622 18.4194 7.22586 19.207L5.03674 24.6931Z" fill="#F1C84A"/>
<path d="M17.8243 6.29814C18.1847 5.8443 18.385 5.28367 18.385 4.66965C18.385 3.20134 17.1836 2 15.7153 2C14.247 2 13.0457 3.20134 13.0457 4.66965C13.0457 5.28367 13.2459 5.8443 13.6063 6.29814" fill="#F1C84A"/>
<path d="M13.0408 26.6794C13.0408 26.4525 13.0675 26.2255 13.1075 26.012H18.9807C19.0208 26.2255 19.0475 26.4525 19.0475 26.6794C19.0475 27.9764 18.3063 29.1013 17.2247 29.6535C16.4918 30.0277 15.5965 30.0277 14.8636 29.6535C13.782 29.1013 13.0408 27.9764 13.0408 26.6794Z" fill="#F1C84A"/>
</svg>
