<svg width="32" height="32" viewBox="0 0 32 32" fill="none" xmlns="http://www.w3.org/2000/svg">
<path d="M17.8243 6.29814C18.1847 5.8443 18.385 5.28367 18.385 4.66965C18.385 3.20134 17.1836 2 15.7153 2C14.247 2 13.0457 3.20134 13.0457 4.66965C13.0457 5.28367 13.2459 5.8443 13.6063 6.29814" fill="#F1C84A"/>
<path d="M13.0406 26.6794C13.0406 26.4525 13.0673 26.2255 13.1074 26.012H18.9806C19.0207 26.2255 19.0474 26.4525 19.0474 26.6794C19.0474 27.9764 18.3062 29.1013 17.2245 29.6535C16.4916 30.0277 15.5964 30.0277 14.8635 29.6535C13.7818 29.1013 13.0406 27.9764 13.0406 26.6794Z" fill="#F1C84A"/>
<circle cx="22.7632" cy="10.3426" r="4.2" fill="#F24141"/>
<path fill-rule="evenodd" clip-rule="evenodd" d="M19.6082 6.76363C18.5046 6.24285 17.2636 5.96694 15.9556 6.00552C11.4306 5.87204 7.7064 9.50276 7.7064 14.0145V16.7375C7.7064 17.5785 7.54622 18.4194 7.22586 19.207L5.03674 24.6931H12.445H15.9556L19.555 24.6929H26.9633L24.7742 19.2068C24.4538 18.4192 24.2936 17.5783 24.2936 16.7374L24.2288 14.7491C23.7033 14.9541 23.1314 15.0666 22.5333 15.0666C19.956 15.0666 17.8666 12.9773 17.8666 10.3999C17.8666 8.93013 18.5461 7.61902 19.6082 6.76363Z" fill="#F1C84A"/>
</svg>
