<svg width="32" height="32" viewBox="0 0 32 32" fill="none" xmlns="http://www.w3.org/2000/svg">
<path d="M26.8231 6.2826V29.0215C26.8231 29.5604 26.3833 30 25.8443 30H7.80115C7.26212 30 6.82239 29.5604 6.82239 29.0215V2.97848C6.82239 2.4396 7.26212 2 7.80115 2H22.5321L26.8231 6.2826Z" fill="#EEEEEE"/>
<path d="M26.823 6.2826V29.0215C26.823 29.5604 26.3833 30 25.8443 30H24.4471C24.9861 30 25.4258 29.5604 25.4258 29.0215V6.2826L21.142 2H22.5392L26.823 6.2826Z" fill="#E5E5E5"/>
<path d="M26.8231 6.2826H23.5109C22.9719 6.2826 22.5321 5.843 22.5321 5.30413V2L26.8231 6.2826Z" fill="#CECECE"/>
<path d="M22.6882 18.8965H11.0708C10.6807 18.8965 10.3615 18.5774 10.3615 18.1874C10.3615 17.7975 10.6807 17.4784 11.0708 17.4784H22.6882C23.0782 17.4784 23.3974 17.7975 23.3974 18.1874C23.3974 18.5845 23.0853 18.8965 22.6882 18.8965Z" fill="#CECECE"/>
<path d="M22.6882 22.5338H11.0708C10.6807 22.5338 10.3615 22.2147 10.3615 21.8248C10.3615 21.4348 10.6807 21.1157 11.0708 21.1157H22.6882C23.0782 21.1157 23.3974 21.4348 23.3974 21.8248C23.3974 22.2218 23.0853 22.5338 22.6882 22.5338Z" fill="#CECECE"/>
<path d="M15 11.572H5.17694V7.5943C5.17694 7.2965 5.41808 7.04834 5.72305 7.04834H15C15.2978 7.04834 15.5461 7.28941 15.5461 7.5943V11.0261C15.5461 11.3239 15.3049 11.572 15 11.572Z" fill="#FF765A"/>
<path d="M15.5461 10.9552V11.0261C15.5461 11.3239 15.3049 11.572 15 11.572H5.17694V7.5943C5.17694 7.2965 5.41808 7.04834 5.72305 7.04834H5.99966V8.46642C5.99966 9.84196 7.11317 10.9622 8.4962 10.9622H15.5461V10.9552Z" fill="#F15637"/>
<path d="M5.17694 11.572L6.82238 13.4439V11.572H5.17694Z" fill="#C24127"/>
<path d="M13.9219 12.8908H6.82947V11.572H15.0354V11.7847C15.0283 12.3945 14.5319 12.8908 13.9219 12.8908Z" fill="#E5E5E5"/>
</svg>
