<svg width="32" height="32" viewBox="0 0 32 32" fill="none" xmlns="http://www.w3.org/2000/svg">
<path fill-rule="evenodd" clip-rule="evenodd" d="M3.66667 2C2.74619 2 2 2.74619 2 3.66667V12.9333C2 13.8538 2.74619 14.6 3.66667 14.6H12.9333C13.8538 14.6 14.6 13.8538 14.6 12.9333V3.66667C14.6 2.74619 13.8538 2 12.9333 2H3.66667ZM19.0667 2C18.1462 2 17.4 2.74619 17.4 3.66667V12.9333C17.4 13.8538 18.1462 14.6 19.0667 14.6H28.3333C29.2538 14.6 30 13.8538 30 12.9333V3.66667C30 2.74619 29.2538 2 28.3333 2H19.0667ZM17.4 19.0668C17.4 18.1463 18.1462 17.4001 19.0667 17.4001H28.3333C29.2538 17.4001 30 18.1463 30 19.0668V28.3335C30 29.2539 29.2538 30.0001 28.3333 30.0001H19.0667C18.1462 30.0001 17.4 29.2539 17.4 28.3335V19.0668ZM3.66667 17.4001C2.74619 17.4001 2 18.1463 2 19.0668V28.3335C2 29.2539 2.74619 30.0001 3.66667 30.0001H12.9333C13.8538 30.0001 14.6 29.2539 14.6 28.3335V19.0668C14.6 18.1463 13.8538 17.4001 12.9333 17.4001H3.66667Z" fill="#34B1F5"/>
</svg>
