<svg width="32" height="32" viewBox="0 0 32 32" fill="none" xmlns="http://www.w3.org/2000/svg">
<rect x="2.5" y="2.5" width="27" height="27" rx="5.5" fill="#EAEDF0" stroke="#AFB5C4"/>
<mask id="path-2-inside-1_1_359" fill="white">
<path fill-rule="evenodd" clip-rule="evenodd" d="M18.1855 15.6347C19.6196 14.8575 20.5934 13.3392 20.5934 11.5935C20.5934 9.05657 18.5369 7 16 7C13.4631 7 11.4065 9.05657 11.4065 11.5935C11.4065 13.3767 12.4226 14.9226 13.9074 15.6837L11.5132 25.0002H20.5399L18.1855 15.6347Z"/>
</mask>
<path fill-rule="evenodd" clip-rule="evenodd" d="M18.1855 15.6347C19.6196 14.8575 20.5934 13.3392 20.5934 11.5935C20.5934 9.05657 18.5369 7 16 7C13.4631 7 11.4065 9.05657 11.4065 11.5935C11.4065 13.3767 12.4226 14.9226 13.9074 15.6837L11.5132 25.0002H20.5399L18.1855 15.6347Z" fill="#AFB5C4"/>
<path d="M18.1855 15.6347L17.709 14.7555L17.0264 15.1255L17.2157 15.8785L18.1855 15.6347ZM13.9074 15.6837L14.8759 15.9326L15.0749 15.1585L14.3636 14.7938L13.9074 15.6837ZM11.5132 25.0002L10.5447 24.7513L10.2238 26.0002H11.5132V25.0002ZM20.5399 25.0002V26.0002H21.8225L21.5098 24.7564L20.5399 25.0002ZM19.5934 11.5935C19.5934 12.9578 18.8335 14.1461 17.709 14.7555L18.662 16.5139C20.4057 15.5689 21.5934 13.7206 21.5934 11.5935H19.5934ZM16 8C17.9846 8 19.5934 9.60885 19.5934 11.5935H21.5934C21.5934 8.50428 19.0892 6 16 6V8ZM12.4065 11.5935C12.4065 9.60885 14.0153 8 16 8V6C12.9108 6 10.4065 8.50428 10.4065 11.5935H12.4065ZM14.3636 14.7938C13.1995 14.1971 12.4065 12.987 12.4065 11.5935H10.4065C10.4065 13.7663 11.6457 15.648 13.4512 16.5736L14.3636 14.7938ZM12.4818 25.2491L14.8759 15.9326L12.9389 15.4348L10.5447 24.7513L12.4818 25.2491ZM20.5399 24.0002H11.5132V26.0002H20.5399V24.0002ZM17.2157 15.8785L19.5701 25.244L21.5098 24.7564L19.1553 15.3909L17.2157 15.8785Z" fill="#596670" mask="url(#path-2-inside-1_1_359)"/>
<circle cx="7.49976" cy="7.5" r="1.75" fill="#AFB5C4" stroke="#596670" stroke-width="0.5"/>
<circle cx="7.49969" cy="24.5" r="1.75" fill="#AFB5C4" stroke="#596670" stroke-width="0.5"/>
<circle cx="24.4999" cy="24.5" r="1.75" fill="#AFB5C4" stroke="#596670" stroke-width="0.5"/>
<circle cx="24.4999" cy="7.5" r="1.75" fill="#AFB5C4" stroke="#596670" stroke-width="0.5"/>
</svg>
