<svg width="32" height="32" viewBox="0 0 32 32" fill="none" xmlns="http://www.w3.org/2000/svg">
<path d="M16.0005 17.3091L11.6772 11.4238L16.0005 2.6377V17.3091Z" fill="#EEBF00"/>
<path d="M16.0005 17.3091L20.3238 11.4238L16.0005 2.6377V17.3091Z" fill="#F6CE31"/>
<path d="M16.0005 17.3091L20.3238 11.4238L30 12.9221L16.0005 17.3091Z" fill="#FFDC4D"/>
<path d="M16.0005 17.3091L22.9088 19.675L30 12.9221L16.0005 17.3091Z" fill="#EEBF00"/>
<path d="M16.0005 17.3091L11.6772 11.4238L2 12.9208L16.0005 17.3091Z" fill="#FFDC4D"/>
<path d="M16.0005 17.3091L9.09117 19.6736L2 12.9208L16.0005 17.3091Z" fill="#EEBF00"/>
<path d="M16.0077 17.3004L9.10291 19.6778L7.65556 29.3623L16.0077 17.3004Z" fill="#EFC725"/>
<path d="M16.0077 17.3004L16.2117 24.6001L7.65556 29.3623L16.0077 17.3004Z" fill="#F6CE31"/>
<path d="M16.0077 17.3004L22.9125 19.6778L24.3598 29.3623L16.0077 17.3004Z" fill="#F6CE31"/>
<path d="M16.0077 17.3004L15.8037 24.6001L24.3598 29.3623L16.0077 17.3004Z" fill="#EEBF00"/>
</svg>
