<svg width="32" height="32" viewBox="0 0 32 32" fill="none" xmlns="http://www.w3.org/2000/svg">
<path d="M5.07235 2H14.6414C15.7296 2 16.7665 2.43141 17.5346 3.20014L28.7999 14.4622C30.4 16.0624 30.4 18.6611 28.7999 20.2613L20.2613 28.7999C18.6611 30.4 16.0624 30.4 14.4622 28.7999L3.20014 17.5346C2.4316 16.7665 2 15.7296 2 14.6414V5.07235C2 3.37552 3.37552 2 5.07235 2ZM9.16882 11.2171C10.3017 11.2171 11.2171 10.3017 11.2171 9.16882C11.2171 8.03589 10.3017 7.12058 9.16882 7.12058C8.03781 7.12058 7.12058 8.03589 7.12058 9.16882C7.12058 10.3017 8.03781 11.2171 9.16882 11.2171Z" fill="#EA6C00"/>
</svg>
