<svg width="32" height="32" viewBox="0 0 32 32" fill="none" xmlns="http://www.w3.org/2000/svg">
<path d="M11.1437 2.96742C11.4391 2.3745 12.0461 2 12.7078 2H19.2922C19.9539 2 20.5609 2.3745 20.8562 2.96742L21.25 3.75H26.5C27.468 3.75 28.25 4.53367 28.25 5.5C28.25 6.46633 27.468 7.25 26.5 7.25H5.5C4.53367 7.25 3.75 6.46633 3.75 5.5C3.75 4.53367 4.53367 3.75 5.5 3.75H10.75L11.1437 2.96742ZM5.45078 9H26.5V26.5C26.5 28.4305 24.9305 30 23 30H8.95078C7.0668 30 5.45078 28.4305 5.45078 26.5V9ZM9.82578 13.375V25.625C9.82578 26.1063 10.2687 26.5 10.7008 26.5C11.2312 26.5 11.5758 26.1063 11.5758 25.625V13.375C11.5758 12.8937 11.2312 12.5 10.7008 12.5C10.2687 12.5 9.82578 12.8937 9.82578 13.375ZM15.0758 13.375V25.625C15.0758 26.1063 15.5188 26.5 15.9508 26.5C16.4813 26.5 16.875 26.1063 16.875 25.625V13.375C16.875 12.8937 16.4813 12.5 15.9508 12.5C15.5188 12.5 15.0758 12.8937 15.0758 13.375ZM20.375 13.375V25.625C20.375 26.1063 20.7687 26.5 21.25 26.5C21.7313 26.5 22.125 26.1063 22.125 25.625V13.375C22.125 12.8937 21.7313 12.5 21.25 12.5C20.7687 12.5 20.375 12.8937 20.375 13.375Z" fill="#FF4F45"/>
</svg>
