<svg width="2560" height="1548" viewBox="0 0 2560 1548" fill="none" xmlns="http://www.w3.org/2000/svg">
<g clip-path="url(#clip0_5800_54618)">
<path d="M2560 36.7196L2474.67 24.9541C2472.29 24.6632 2469.85 24.3631 2467.35 24.0552C2379.84 13.2938 2213.92 -7.10942 2048 14.4959C1962.67 25.6077 1877.33 47.5046 1792 69.4014C1706.67 91.2981 1621.33 113.195 1536 124.307C1365.33 146.53 1194.67 124.307 1024 91.625C985.462 83.95 946.925 75.8085 908.387 67.667C776.258 39.7531 644.129 11.8392 512 2.7305C347.671 -7.33931 183.342 12.8905 95.1887 23.7426C91.7888 24.1612 88.5022 24.5658 85.3333 24.9541L0 36.7196V1435.5H7.83659C29.9176 1435.5 51.9707 1433.93 73.8292 1430.8L136.833 1421.79C139.207 1421.45 141.647 1421.1 144.152 1420.74C231.663 1408.2 397.581 1384.43 563.5 1409.6C648.833 1422.55 734.166 1448.07 819.498 1473.58L819.5 1473.58L819.502 1473.58C904.834 1499.1 990.167 1524.61 1075.5 1537.56C1246.17 1563.46 1416.83 1537.56 1587.5 1499.48C1626.04 1490.53 1664.57 1481.05 1703.11 1471.56L1703.11 1471.56C1835.24 1439.03 1967.37 1406.51 2099.5 1395.89C2263.83 1384.16 2428.16 1407.73 2516.31 1420.38L2516.54 1420.41C2519.86 1420.89 2523.07 1421.35 2526.17 1421.79L2560 1427.99V36.7196Z" fill="#0A2240"/>
<g filter="url(#filter0_f_5800_54618)">
<circle cx="2175" cy="980" r="350" fill="#00D7FF" fill-opacity="0.2"/>
</g>
<g filter="url(#filter1_f_5800_54618)">
<circle cx="166" cy="748" r="350" fill="#635BFF" fill-opacity="0.2"/>
</g>
<circle opacity="0.1" cx="2413.56" cy="236.913" r="5.57545" fill="#00D7FF"/>
<circle opacity="0.1" cx="2227.09" cy="119.575" r="5.57545" fill="#00D7FF"/>
<circle opacity="0.1" cx="2133.58" cy="242.49" r="5.57545" fill="#00D7FF"/>
<g opacity="0.1">
<circle cx="2182.81" cy="190.105" r="5.57545" fill="#00D7FF"/>
<circle cx="2307.79" cy="278.575" r="5.57545" fill="#00D7FF"/>
<circle cx="2322.21" cy="161.763" r="5.57545" fill="#00D7FF"/>
<circle cx="2367.19" cy="126.099" r="5.57545" fill="#00D7FF"/>
<circle cx="2326.22" cy="212.372" r="5.57545" fill="#00D7FF"/>
<circle cx="2345.94" cy="291.646" r="5.57545" fill="#00D7FF"/>
<circle cx="2419.13" cy="325.611" r="5.57545" fill="#00D7FF"/>
<circle cx="2461.24" cy="281.902" r="5.57545" fill="#00D7FF"/>
<circle cx="2383.41" cy="181.031" r="5.57545" fill="#00D7FF"/>
<circle cx="2423.86" cy="167.335" r="5.57545" fill="#00D7FF"/>
<circle cx="2182.81" cy="297.222" r="5.57545" fill="#00D7FF"/>
<circle cx="2292.07" cy="184.527" r="5.57545" fill="#00D7FF"/>
<rect x="2185.47" y="187.262" width="103.73" height="4.68323" transform="rotate(-2.5 2185.47 187.262)" fill="#00D7FF"/>
<rect x="2292.07" y="181.76" width="34.8633" height="4.68323" transform="rotate(-38.5 2292.07 181.76)" fill="#00D7FF"/>
<rect x="2327.61" y="208.883" width="59.3661" height="4.68323" transform="rotate(-29.5 2327.61 208.883)" fill="#00D7FF"/>
<rect x="2385.32" y="176.939" width="36.9426" height="4.68323" transform="rotate(-17.5 2385.32 176.939)" fill="#00D7FF"/>
<rect x="2295.9" y="183.07" width="40.1642" height="4.68323" transform="rotate(41 2295.9 183.07)" fill="#00D7FF"/>
<rect x="2304.8" y="276.844" width="90.6215" height="4.68323" transform="rotate(-99 2304.8 276.844)" fill="#00D7FF"/>
<rect x="2323.23" y="158.094" width="52.924" height="4.68323" transform="rotate(-38.5 2323.23 158.094)" fill="#00D7FF"/>
<rect x="2185.15" y="190.621" width="103.73" height="4.68323" transform="rotate(90 2185.15 190.621)" fill="#00D7FF"/>
<rect x="2306.08" y="280.961" width="121.944" height="4.68323" transform="rotate(171.5 2306.08 280.961)" fill="#00D7FF"/>
<rect x="2345.16" y="293.621" width="39.5214" height="4.68323" transform="rotate(-161 2345.16 293.621)" fill="#00D7FF"/>
<rect x="2417.12" y="327.945" width="78.3476" height="4.68323" transform="rotate(-154.5 2417.12 327.945)" fill="#00D7FF"/>
<rect x="2419.13" y="322.387" width="58.5326" height="4.68323" transform="rotate(-46.5 2419.13 322.387)" fill="#00D7FF"/>
</g>
<g opacity="0.1">
<circle cx="61.6367" cy="256.168" r="5.63666" fill="#00D7FF"/>
<circle cx="119.952" cy="274.623" r="5.63666" fill="#00D7FF"/>
<circle cx="189.979" cy="273.393" r="5.63666" fill="#00D7FF"/>
<circle cx="258.389" cy="232.779" r="5.63666" fill="#00D7FF"/>
<circle cx="300.642" cy="169.404" r="5.63666" fill="#00D7FF"/>
<circle cx="341.55" cy="189.779" r="5.63666" fill="#00D7FF"/>
<circle cx="290.599" cy="260.58" r="5.63666" fill="#00D7FF"/>
<rect x="64.5659" y="254.574" width="56.1826" height="4.73464" transform="rotate(18.5 64.5659 254.574)" fill="#00D7FF"/>
<rect x="121.589" y="272.158" width="67.4664" height="4.73464" transform="rotate(-0.5 121.589 272.158)" fill="#00D7FF"/>
<rect x="190.638" y="270.586" width="74.2171" height="4.73464" transform="rotate(-31.5 190.638 270.586)" fill="#00D7FF"/>
<rect x="261.527" y="231.811" width="40.7816" height="4.73464" transform="rotate(41.5 261.527 231.811)" fill="#00D7FF"/>
<rect x="257.213" y="230.805" width="71.5318" height="4.73464" transform="rotate(-56.5 257.213 230.805)" fill="#00D7FF"/>
<rect x="304.28" y="168.713" width="40.6614" height="4.73464" transform="rotate(27 304.28 168.713)" fill="#00D7FF"/>
<rect x="290.599" y="256.781" width="81.1032" height="4.73464" transform="rotate(-54.5 290.599 256.781)" fill="#00D7FF"/>
</g>
<circle opacity="0.1" cx="167.514" cy="219.506" r="5.63666" fill="#00D7FF"/>
<circle opacity="0.1" cx="278.928" cy="108.637" r="5.63666" fill="#00D7FF"/>
<circle opacity="0.1" cx="258.389" cy="327.092" r="5.63666" fill="#00D7FF"/>
<circle opacity="0.1" cx="394.881" cy="238.922" r="5.63666" fill="#00D7FF"/>
<g opacity="0.1">
<path d="M592.496 95.938L584.925 73.808L707.838 64.7838L592.496 95.938Z" fill="#27C4E1"/>
<path d="M707.838 64.7836L574.817 60.1384L597.323 43.5186L707.838 64.7836Z" fill="#6FDDEF"/>
<path d="M707.838 64.7839L574.817 60.1387L552.64 76.1784L707.838 64.7839Z" fill="#ABF3FE"/>
</g>
<g opacity="0.1">
<path d="M1730.38 1426.94L1727.71 1402.04L1604.34 1448.9L1730.38 1426.94Z" fill="#6D68D2"/>
<path d="M1604.34 1448.9L1731.33 1384.2L1701.97 1378.25L1604.34 1448.9Z" fill="#8680FE"/>
<path d="M1604.34 1448.9L1731.33 1384.2L1760.11 1389.73L1604.34 1448.9Z" fill="#A9A5FF"/>
</g>
<g opacity="0.1">
<circle cx="6.03587" cy="6.03587" r="6.03587" transform="matrix(-0.93358 -0.358368 -0.358368 0.93358 2542.38 1397.79)" fill="#00D7FF"/>
<circle cx="6.03587" cy="6.03587" r="6.03587" transform="matrix(-0.93358 -0.358368 -0.358368 0.93358 2466.29 1318)" fill="#00D7FF"/>
<circle cx="6.03587" cy="6.03587" r="6.03587" transform="matrix(-0.93358 -0.358368 -0.358368 0.93358 2344.39 1243.68)" fill="#00D7FF"/>
<circle cx="6.03587" cy="6.03587" r="6.03587" transform="matrix(-0.93358 -0.358368 -0.358368 0.93358 2274.41 1210.88)" fill="#00D7FF"/>
<circle cx="6.03587" cy="6.03587" r="6.03587" transform="matrix(-0.93358 -0.358368 -0.358368 0.93358 2300.88 1196.31)" fill="#00D7FF"/>
<circle cx="6.03587" cy="6.03587" r="6.03587" transform="matrix(-0.93358 -0.358368 -0.358368 0.93358 2340.26 1284.42)" fill="#00D7FF"/>
<circle cx="6.03587" cy="6.03587" r="6.03587" transform="matrix(-0.93358 -0.358368 -0.358368 0.93358 2298.4 1301.2)" fill="#00D7FF"/>
<circle cx="6.03587" cy="6.03587" r="6.03587" transform="matrix(-0.93358 -0.358368 -0.358368 0.93358 2283.33 1351.25)" fill="#00D7FF"/>
<circle cx="6.03587" cy="6.03587" r="6.03587" transform="matrix(-0.93358 -0.358368 -0.358368 0.93358 2455.03 1365.71)" fill="#00D7FF"/>
<rect width="101.881" height="5.06996" transform="matrix(-0.688355 -0.725374 -0.725374 0.688355 2533.89 1396.84)" fill="#00D7FF"/>
<rect width="37.032" height="5.06996" transform="matrix(0.121869 -0.992546 -0.992546 -0.121869 2334.61 1286.25)" fill="#00D7FF"/>
<rect width="60.5427" height="5.06996" transform="matrix(-0.67559 -0.737277 -0.737277 0.67559 2336.51 1242.59)" fill="#00D7FF"/>
<rect width="26.3736" height="5.06996" transform="matrix(0.861629 -0.507538 -0.507538 -0.861629 2269.36 1215.76)" fill="#00D7FF"/>
<rect width="88.7651" height="5.06996" transform="matrix(-0.936672 -0.350207 -0.350207 0.936672 2533.28 1398.32)" fill="#00D7FF"/>
<rect width="123.309" height="5.06996" transform="matrix(-0.965926 -0.258819 -0.258819 0.965926 2456.72 1318.2)" fill="#00D7FF"/>
<rect width="164.489" height="5.06996" transform="matrix(-0.996918 -0.0784591 -0.0784591 0.996918 2443.5 1365.79)" fill="#00D7FF"/>
<rect width="37.7825" height="5.06996" transform="matrix(-0.91706 0.398749 0.398749 0.91706 2328.16 1286.25)" fill="#00D7FF"/>
<rect width="45.1206" height="5.06996" transform="matrix(-0.300706 0.953717 0.953717 0.300706 2287.46 1306.79)" fill="#00D7FF"/>
<circle cx="6.03587" cy="6.03587" r="6.03587" transform="matrix(-0.93358 -0.358368 -0.358368 0.93358 2535.35 1332.38)" fill="#00D7FF"/>
</g>
<g opacity="0.1">
<ellipse cx="60.0359" cy="1351.51" rx="6.03587" ry="6.03587" fill="#00D7FF"/>
<ellipse cx="269.989" cy="1293.11" rx="6.03587" ry="6.03587" fill="#00D7FF"/>
<ellipse cx="349.826" cy="1293.11" rx="6.03587" ry="6.03587" fill="#00D7FF"/>
<ellipse cx="373.696" cy="1310.72" rx="6.03587" ry="6.03587" fill="#00D7FF"/>
<rect x="64.3384" y="1347.63" width="209.208" height="5.06996" transform="rotate(-15.5 64.3384 1347.63)" fill="#00D7FF"/>
<rect x="273.269" y="1290.57" width="73.3319" height="5.06996" fill="#00D7FF"/>
<rect x="354.704" y="1293.1" width="21.1513" height="5.06996" transform="rotate(38.5 354.704 1293.1)" fill="#00D7FF"/>
</g>
<ellipse opacity="0.1" cx="303.9" cy="1382.66" rx="6.03587" ry="6.03587" fill="#00D7FF"/>
<ellipse opacity="0.1" cx="98.8357" cy="1281.04" rx="6.03587" ry="6.03587" fill="#00D7FF"/>
</g>
<defs>
<filter id="filter0_f_5800_54618" x="1377.63" y="182.63" width="1594.74" height="1594.74" filterUnits="userSpaceOnUse" color-interpolation-filters="sRGB">
<feFlood flood-opacity="0" result="BackgroundImageFix"/>
<feBlend mode="normal" in="SourceGraphic" in2="BackgroundImageFix" result="shape"/>
<feGaussianBlur stdDeviation="223.685" result="effect1_foregroundBlur_5800_54618"/>
</filter>
<filter id="filter1_f_5800_54618" x="-631.37" y="-49.3698" width="1594.74" height="1594.74" filterUnits="userSpaceOnUse" color-interpolation-filters="sRGB">
<feFlood flood-opacity="0" result="BackgroundImageFix"/>
<feBlend mode="normal" in="SourceGraphic" in2="BackgroundImageFix" result="shape"/>
<feGaussianBlur stdDeviation="223.685" result="effect1_foregroundBlur_5800_54618"/>
</filter>
<clipPath id="clip0_5800_54618">
<rect width="2560" height="1548" fill="white"/>
</clipPath>
</defs>
</svg>
