<svg width="2560" height="1360" viewBox="0 0 2560 1360" fill="none" xmlns="http://www.w3.org/2000/svg">
<g clip-path="url(#clip0_4886_141660)">
<path d="M213.607 58.9838C153.861 75.5413 88.7225 93.5934 0 110.318V994C44.0329 982.992 75.5793 961.115 108.831 936.974C172.625 890.66 242.699 839.787 419.277 859.588C578.707 877.466 682.777 857.518 816.42 831.903C907.948 814.359 1013.35 794.158 1159.9 781.627C1267.6 772.418 1352.01 756.842 1426.63 743.07L1426.63 743.069C1601.81 710.739 1723.11 688.353 1965.49 781.627C2311.75 914.879 2560 829.035 2560 829.035L2560 359.207C2560 359.207 2526.22 364.541 2375.11 346.763C2326.36 341.028 2277.06 322.527 2220.46 301.288C2101.6 256.688 1950.56 200.01 1704.89 224.096C1506.06 243.589 1299.75 174.381 1101.49 107.872C938.115 53.0677 780.205 0.0957031 636.445 0.0957031C426.099 0.0957031 330.105 26.6986 213.607 58.9838Z" fill="#0A2540"/>
<g opacity="0.8">
<path d="M1978.49 698.169C1793.19 626.859 1674.18 618.675 1553.2 632.335C1504.37 637.847 1455.25 646.913 1401.18 656.89C1388.07 659.309 1374.68 661.782 1360.92 664.271C1290.5 677.012 1210.96 690.123 1113.83 698.427C956.431 711.885 843.294 733.569 744.86 752.435L744.859 752.436C722.193 756.78 700.306 760.975 678.838 764.885C564.066 785.792 461.428 798.53 316.421 782.27C172.797 766.164 95.532 793.783 37.0125 829.427C18.4377 840.741 1.9104 852.743 -14.3936 864.584C-24.093 871.628 -33.7141 878.615 -43.6394 885.365C-70.0217 903.307 -97.8833 919.044 -133.096 927.848L-135.084 919.897C-101.185 911.423 -74.2358 896.262 -48.2478 878.588C-38.7671 872.141 -29.3201 865.285 -19.6842 858.291L-19.6753 858.285C-3.13137 846.278 13.9688 833.867 32.7495 822.428C92.9272 785.774 172.035 757.832 317.334 774.126C461.249 790.264 563.018 777.653 677.37 756.823C698.755 752.928 720.586 748.743 743.217 744.405C841.677 725.533 955.271 703.759 1113.13 690.262C1209.9 681.989 1289.15 668.928 1359.46 656.207C1373.14 653.732 1386.48 651.269 1399.56 648.856L1399.57 648.854C1453.66 638.871 1503.14 629.739 1552.28 624.191C1674.65 610.374 1794.98 618.769 1981.43 690.521C2167.05 761.953 2326.34 774.639 2439.16 769.493C2495.58 766.92 2540.37 759.889 2571.04 753.511C2586.37 750.323 2598.16 747.298 2606.11 745.077C2610.08 743.966 2613.09 743.056 2615.1 742.427C2616.1 742.113 2616.85 741.869 2617.35 741.705C2617.6 741.623 2617.78 741.561 2617.9 741.52L2618.04 741.475L2618.07 741.465L2618.07 741.463L2618.11 741.575C2618.2 741.828 2618.48 742.653 2619.41 745.335C2620.75 749.208 2620.75 749.209 2620.74 749.21L2620.73 749.215L2620.69 749.229L2620.53 749.284C2620.39 749.331 2620.18 749.399 2619.92 749.487C2619.38 749.664 2618.59 749.921 2617.55 750.247C2615.46 750.901 2612.37 751.835 2608.31 752.969C2600.2 755.237 2588.23 758.306 2572.7 761.535C2541.66 767.991 2496.43 775.085 2439.53 777.68C2325.74 782.87 2165.3 770.06 1978.49 698.169Z" fill="url(#paint0_linear_4886_141660)" fill-opacity="0.5"/>
<path d="M1562.26 685.118C1682.82 667.224 1802.18 671.266 1989.98 736.106C2179.06 801.392 2339.73 808.586 2453.18 799.436C2509.9 794.861 2554.82 786.2 2585.58 778.674C2600.96 774.91 2612.8 771.43 2620.81 768.886C2624.82 767.613 2627.87 766.575 2629.92 765.851C2630.95 765.49 2631.73 765.207 2632.25 765.013C2632.51 764.916 2632.71 764.842 2632.85 764.791L2633 764.732L2633.04 764.716L2633.06 764.711C2633.06 764.71 2633.06 764.709 2631.88 761.65L2630.7 758.592L2630.67 758.606L2630.53 758.656C2630.41 758.702 2630.23 758.771 2629.98 758.862C2629.49 759.045 2628.74 759.317 2627.74 759.668C2625.75 760.369 2622.77 761.386 2618.83 762.637C2610.95 765.14 2599.25 768.579 2584.02 772.306C2553.56 779.758 2508.99 788.357 2452.65 792.901C2339.99 801.988 2180.24 794.861 1992.12 729.909C1803.39 664.748 1682.97 660.574 1561.29 678.633C1512.41 685.888 1463.31 696.733 1409.61 708.598C1396.62 711.467 1383.36 714.396 1369.77 717.348C1299.93 732.518 1221.15 748.343 1124.7 759.993C967.452 778.985 854.732 804.699 756.994 826.996L756.99 826.997L756.972 827.001C734.511 832.125 712.84 837.068 691.602 841.708C578.006 866.526 476.652 882.696 332.152 871.582C186.54 860.382 108.639 891.028 49.9397 929.654C31.5897 941.728 14.9895 954.685 -1.10222 967.245L-1.10391 967.246C-10.4984 974.579 -19.7196 981.776 -29.0144 988.583C-54.4084 1007.18 -80.9013 1023.33 -114.613 1033.02L-112.803 1039.32C-78.0488 1029.34 -50.8424 1012.7 -25.1407 993.872C-15.5004 986.812 -6.14609 979.507 3.29593 972.134C19.2005 959.713 35.3544 947.099 53.5434 935.13C110.946 897.359 187.383 867.022 331.649 878.118C477.026 889.3 579.07 873.003 693.001 848.113C714.312 843.457 736.034 838.502 758.531 833.37C856.249 811.079 968.606 785.449 1125.49 766.501C1222.23 754.816 1301.23 738.944 1371.16 723.755C1384.81 720.789 1398.11 717.852 1411.12 714.977C1464.81 703.119 1513.62 692.336 1562.26 685.118Z" fill="url(#paint1_linear_4886_141660)" fill-opacity="0.5"/>
<path d="M2002.18 773.906C1812.12 715.623 1692.56 715.738 1572.56 737.854C1524.17 746.77 1475.73 759.259 1422.49 772.985C1409.59 776.311 1396.4 779.71 1382.87 783.148C1313.53 800.765 1235.16 819.378 1138.91 834.427C982.745 858.846 871.306 888.393 774.423 914.082C752.122 919.995 730.592 925.703 709.465 931.098C596.514 959.939 495.186 979.768 349.617 973.671C204.883 967.61 129.37 1000.64 73.1623 1040.5C55.3826 1053.11 39.6252 1066.33 24.1408 1079.32C14.9671 1087.01 5.88916 1094.62 -3.45691 1101.98C-28.4485 1121.66 -54.9705 1139.18 -89.2258 1150.33L-90.748 1145.66C-57.2659 1134.75 -31.2657 1117.62 -6.49869 1098.12C2.59523 1090.96 11.5763 1083.43 20.7155 1075.77C36.3366 1062.67 52.4198 1049.19 70.3177 1036.49C127.475 995.956 204.078 962.655 349.823 968.759C494.733 974.828 595.546 955.111 708.249 926.334C729.32 920.953 750.811 915.255 773.083 909.349L773.1 909.345L773.104 909.344L773.105 909.344L773.107 909.343C870.005 883.65 981.713 854.03 1138.15 829.569C1234.18 814.554 1312.38 795.983 1381.66 778.383C1395.14 774.958 1408.28 771.569 1421.16 768.249L1421.19 768.243C1474.44 754.512 1523.1 741.969 1571.66 733.018C1692.5 710.75 1812.86 710.706 2003.63 769.205C2194.02 827.59 2354.04 829.142 2466.42 816.117C2522.61 809.604 2566.89 799.446 2597.11 790.924C2612.22 786.663 2623.81 782.812 2631.61 780.03C2635.51 778.639 2638.47 777.516 2640.44 776.742C2641.43 776.355 2642.17 776.056 2642.66 775.855C2642.91 775.754 2643.09 775.678 2643.21 775.627L2643.35 775.571L2643.38 775.558L2643.39 775.555C2643.39 775.554 2643.39 775.554 2644.31 777.712L2644.35 777.816C2645.32 780.078 2645.31 780.079 2645.31 780.08L2645.26 780.101L2645.11 780.165L2644.87 780.264L2644.53 780.406C2644.01 780.616 2643.25 780.924 2642.24 781.32C2640.22 782.112 2637.21 783.253 2633.26 784.661C2625.36 787.478 2613.67 791.364 2598.44 795.656C2568 804.241 2523.46 814.455 2466.98 821.001C2354.02 834.094 2193.31 832.515 2002.18 773.906Z" fill="url(#paint2_linear_4886_141660)" fill-opacity="0.5"/>
<path d="M1584.09 790.5C1703.4 764.179 1823.01 759.899 2015.11 811.545C2208.04 863.415 2368.59 859.384 2480.93 842.371C2537.1 833.865 2581.22 822.114 2611.3 812.484C2626.35 807.669 2637.88 803.384 2645.67 800.299C2649.56 798.757 2652.51 797.515 2654.49 796.656C2655.48 796.227 2656.23 795.894 2656.74 795.667C2656.92 795.585 2657.07 795.517 2657.19 795.463L2657.31 795.409L2657.45 795.342L2657.49 795.324L2657.5 795.319C2657.5 795.318 2657.5 795.317 2656.81 793.833C2656.38 792.914 2656.22 792.564 2656.15 792.431C2656.11 792.349 2656.11 792.349 2656.11 792.349L2656.11 792.352L2656.07 792.368L2655.94 792.43C2655.82 792.485 2655.64 792.569 2655.39 792.679C2654.9 792.899 2654.17 793.225 2653.19 793.648C2651.24 794.493 2648.32 795.722 2644.46 797.252C2636.74 800.311 2625.27 804.571 2610.3 809.362C2580.37 818.945 2536.42 830.653 2480.44 839.13C2368.49 856.084 2208.4 860.117 2015.96 808.379C1823.39 756.605 1703.24 760.857 1583.39 787.299C1535.2 797.932 1487.04 812.155 1434.3 827.734L1434.3 827.735L1434.3 827.735L1434.21 827.762L1434.21 827.763C1421.47 831.524 1408.47 835.365 1395.13 839.253C1326.5 859.263 1248.97 880.561 1153.49 898.924C998.042 928.822 887.479 962.309 791.54 991.368L791.532 991.37L791.517 991.374L791.505 991.378L791.484 991.384C769.44 998.061 748.167 1004.5 727.3 1010.62C615.629 1043.32 515.48 1066.57 370.337 1065.56C224.636 1064.54 149.422 1100.45 93.8685 1142.84C76.4452 1156.13 60.8967 1170.12 45.7651 1183.73L45.7622 1183.74L45.7556 1183.74C36.8854 1191.72 28.1586 1199.57 19.2815 1207.08C-4.82584 1227.47 -30.2971 1245.56 -63.5058 1257.67L-62.3828 1260.75C-28.6651 1248.45 -2.85498 1230.09 21.3983 1209.58C30.4405 1201.94 39.2316 1194.02 48.1256 1186.02C63.1699 1172.48 78.5091 1158.68 95.8571 1145.44C150.793 1103.52 225.288 1067.83 370.314 1068.83C515.897 1069.85 616.386 1046.51 728.221 1013.76C749.134 1007.64 770.441 1001.18 792.513 994.498L792.529 994.493C888.459 965.439 998.843 932.006 1154.11 902.143C1249.73 883.752 1327.38 862.423 1396.05 842.4C1409.4 838.507 1422.41 834.664 1435.15 830.903L1435.26 830.869L1435.27 830.865L1435.28 830.865L1435.28 830.864L1435.28 830.863L1435.28 830.863C1488.01 815.287 1536.03 801.105 1584.09 790.5Z" fill="url(#paint3_linear_4886_141660)" fill-opacity="0.5"/>
<path d="M1596.87 843.015C1715.32 812.511 1834.84 804.061 2028.75 849C2223.25 894.077 2383.44 884.448 2495.03 863.543C2550.82 853.091 2594.45 839.82 2624.15 829.158C2638.99 823.828 2650.36 819.15 2658.01 815.802C2661.84 814.129 2664.74 812.788 2666.68 811.864C2667.66 811.403 2668.39 811.045 2668.88 810.803L2669.2 810.643L2669.44 810.527L2669.58 810.456L2669.62 810.433C2669.62 810.432 2669.62 810.432 2669.25 809.702C2668.88 808.972 2668.88 808.973 2668.88 808.973L2668.87 808.977L2668.84 808.994L2668.7 809.062L2668.43 809.198L2668.16 809.333C2667.67 809.572 2666.95 809.926 2665.98 810.384C2664.05 811.3 2661.17 812.634 2657.35 814.301C2649.73 817.634 2638.4 822.298 2623.59 827.616C2593.97 838.251 2550.42 851.498 2494.72 861.932C2383.33 882.801 2223.37 892.422 2029.12 847.403C1834.97 802.409 1715.18 810.854 1596.46 841.427C1548.7 853.728 1501.11 869.612 1448.94 887.022C1436.31 891.237 1423.42 895.541 1410.19 899.905C1342.29 922.301 1265.51 946.301 1170.7 967.993C1016.43 1003.29 907.151 1040.6 812.286 1072.99L812.278 1072.99C790.46 1080.44 769.405 1087.63 748.741 1094.47C638.239 1131.07 538.878 1157.82 393.678 1161.88C248.199 1165.94 174.462 1204.39 120.572 1248.57C103.641 1262.45 88.64 1276.93 74.0132 1291.04L74.0078 1291.05C65.4158 1299.34 56.9529 1307.5 48.3034 1315.35C24.8867 1336.6 -0.0198517 1355.64 -32.9112 1368.95L-32.2963 1370.47C0.846283 1357.06 25.9174 1337.88 49.4046 1316.57C58.1337 1308.65 66.6271 1300.45 75.2302 1292.15L75.2325 1292.14L75.2341 1292.14C89.8181 1278.07 104.717 1263.69 121.611 1249.84C175.201 1205.91 248.582 1167.57 393.723 1163.51C539.144 1159.45 638.673 1132.65 749.256 1096.03C769.938 1089.18 791.006 1081.98 812.832 1074.53L812.833 1074.53L812.835 1074.53C907.695 1042.14 1016.89 1004.86 1171.06 969.591C1265.95 947.882 1342.78 923.865 1410.7 901.461C1423.93 897.097 1436.82 892.795 1449.44 888.583L1449.48 888.569C1501.64 871.161 1549.17 855.3 1596.87 843.015Z" fill="url(#paint4_linear_4886_141660)" fill-opacity="0.5"/>
</g>
<g opacity="0.6">
<g filter="url(#filter0_f_4886_141660)">
<path d="M2213.11 516.655L2216.41 532.006L2231.76 535.302L2216.41 538.599L2213.11 553.95L2209.81 538.599L2194.46 535.302L2209.81 532.006L2213.11 516.655Z" fill="#635BFF" fill-opacity="0.5"/>
</g>
<path d="M2213.11 525.979L2214.76 533.655L2222.43 535.303L2214.76 536.951L2213.11 544.627L2211.46 536.951L2203.79 535.303L2211.46 533.655L2213.11 525.979Z" fill="#635BFF" fill-opacity="0.5"/>
<g filter="url(#filter1_f_4886_141660)">
<path d="M1911.03 415.32L1914.33 430.671L1929.68 433.967L1914.33 437.264L1911.03 452.615L1907.74 437.264L1892.39 433.967L1907.74 430.671L1911.03 415.32Z" fill="#635BFF" fill-opacity="0.5"/>
</g>
<path d="M1911.03 424.645L1912.68 432.32L1920.36 433.968L1912.68 435.616L1911.03 443.292L1909.38 435.616L1901.71 433.968L1909.38 432.32L1911.03 424.645Z" fill="#635BFF" fill-opacity="0.5"/>
<g filter="url(#filter2_f_4886_141660)">
<path d="M2329.05 666.339L2332.35 681.69L2347.7 684.986L2332.35 688.282L2329.05 703.633L2325.75 688.282L2310.4 684.986L2325.75 681.69L2329.05 666.339Z" fill="#635BFF" fill-opacity="0.5"/>
</g>
<path d="M2329.05 675.663L2330.7 683.338L2338.37 684.987L2330.7 686.635L2329.05 694.31L2327.4 686.635L2319.73 684.987L2327.4 683.338L2329.05 675.663Z" fill="#635BFF" fill-opacity="0.5"/>
<g opacity="0.2">
<path d="M1991.84 558.226C2010.59 539.172 2028.97 546.251 2029.69 546.437C2032.32 550.735 2037.55 559.401 2037.5 559.685C2033.76 579.729 2010.41 581.997 2008.37 582.322C2007.1 582.524 2007.21 582.28 2007.74 581.717C2013.19 576.016 2014.46 571.856 2012.7 572.759C2000.56 578.986 1985.78 584.001 1983.96 581.944C1981.99 579.707 1996.34 564.862 1998.96 561.747C2001.19 559.096 1995.73 559.544 1992.77 559.804C1990.31 560.021 1990.85 559.227 1991.84 558.226Z" fill="#F27920"/>
<path d="M2006.06 556.09C2018.34 543.601 2030.4 548.241 2030.87 548.363C2032.59 551.18 2036.02 556.861 2035.99 557.047C2033.54 570.185 2018.23 571.672 2016.89 571.885C2016.06 572.017 2016.13 571.857 2016.48 571.488C2020.05 567.751 2020.88 565.024 2019.73 565.617C2011.78 569.698 2002.08 572.985 2000.89 571.637C1999.6 570.171 2009.01 560.44 2010.72 558.398C2012.19 556.661 2008.6 556.954 2006.67 557.125C2005.05 557.267 2005.41 556.747 2006.06 556.09Z" fill="#FAAF18"/>
<path d="M2015.33 554.696C2023.4 546.486 2031.33 549.537 2031.64 549.617C2032.77 551.469 2035.02 555.203 2035 555.325C2033.39 563.962 2023.33 564.939 2022.45 565.079C2021.91 565.166 2021.95 565.061 2022.18 564.818C2024.53 562.362 2025.07 560.569 2024.31 560.958C2019.09 563.641 2012.72 565.802 2011.93 564.916C2011.08 563.952 2017.27 557.555 2018.39 556.213C2019.36 555.071 2017 555.264 2015.73 555.376C2014.67 555.47 2014.9 555.128 2015.33 554.696Z" fill="#FEDD14"/>
<path d="M2035.1 555.405L2031.73 549.679C2028.95 551.526 2023.96 555.6 2026.24 557.115C2028.51 558.631 2033.09 556.606 2035.1 555.405Z" fill="#FFF7C0"/>
<path d="M2040.38 494.482C2050.87 484.457 2068.2 490.596 2075.55 494.918C2068.75 500.792 2054.49 514.29 2051.81 521.291C2042.91 513.863 2038.69 514.251 2034.1 517.77L2012.94 535.723L2010.6 532.671C2016.16 524.118 2029.89 504.506 2040.38 494.482Z" fill="url(#paint5_linear_4886_141660)"/>
<path d="M2091.93 575.193C2105.79 570.879 2108.82 552.75 2108.6 544.225C2100.17 547.321 2081.45 553.249 2074.03 552.197C2076.21 563.583 2073.82 567.09 2068.52 569.395L2042.56 579.2L2044.09 582.729C2054.27 582.014 2078.08 579.507 2091.93 575.193Z" fill="url(#paint6_linear_4886_141660)"/>
<path d="M2164.47 476.957C2153.42 474.098 2125.35 470.162 2101.55 477.296C2077.76 484.429 2044.01 526.686 2030.11 546.923L2034.12 553.739L2038 560.324C2062.26 557.675 2115.25 548.08 2133.13 530.897C2151.01 513.713 2161.47 487.777 2164.47 476.957Z" fill="url(#paint7_linear_4886_141660)"/>
<path fill-rule="evenodd" clip-rule="evenodd" d="M2040.52 532.691C2036.42 538.006 2032.87 542.899 2030.11 546.922L2034.12 553.738L2038 560.323C2042.99 559.778 2049.19 558.94 2056.05 557.803L2056.21 557.707C2060.79 540.724 2048.13 533.674 2041.23 532.271L2040.52 532.691Z" fill="url(#paint8_linear_4886_141660)"/>
<circle cx="18.8113" cy="18.8113" r="18.8113" transform="matrix(-0.861629 0.507538 0.507538 0.861629 2113.87 484.287)" fill="url(#paint9_linear_4886_141660)"/>
<circle cx="14.558" cy="14.558" r="14.558" transform="matrix(-0.861629 0.507538 0.507538 0.861629 2112.36 490.111)" fill="#320F39"/>
<path d="M2125.3 473.435C2141.75 472.599 2157 475.023 2164.47 476.957C2162.43 484.332 2156.91 498.731 2147.95 512.594C2134.96 502.453 2128.3 486.86 2125.3 473.435Z" fill="url(#paint10_linear_4886_141660)"/>
<path d="M2094.28 549.316C2067.83 540.87 2064.86 514.561 2066.68 502.462L2068.87 500.327C2064.59 531.39 2085.98 545.342 2097.21 548.435L2094.28 549.316Z" fill="url(#paint11_linear_4886_141660)"/>
</g>
<path d="M1777.39 442.909C1765.19 457.311 1739.26 485.024 1733.11 480.653C1726.97 476.282 1760.07 453.669 1777.39 442.909Z" fill="url(#paint12_linear_4886_141660)" fill-opacity="0.2"/>
<path d="M1799.38 447.582C1787.18 461.985 1761.25 489.698 1755.11 485.327C1748.96 480.956 1782.06 458.343 1799.38 447.582Z" fill="url(#paint13_linear_4886_141660)" fill-opacity="0.2"/>
<path d="M1778.23 419.511C1766.04 433.914 1740.11 461.627 1733.96 457.255C1727.82 452.884 1760.92 430.271 1778.23 419.511Z" fill="url(#paint14_linear_4886_141660)" fill-opacity="0.2"/>
<g opacity="0.2">
<path fill-rule="evenodd" clip-rule="evenodd" d="M2520.31 764.554C2520.31 776.298 2515.34 786.841 2507.37 794.299C2503.51 797.813 2499.05 800.642 2494.08 802.528C2490.91 803.728 2487.48 804.585 2483.97 804.928C2483.11 805.013 2482.17 805.099 2481.31 805.099C2480.79 805.099 2480.28 805.099 2479.68 805.099C2477.88 805.099 2476.08 805.013 2474.37 804.756C2468.19 803.985 2462.45 801.756 2457.48 798.499C2456.97 798.156 2456.54 797.899 2456.11 797.556C2455.25 796.956 2454.48 796.356 2453.62 795.67C2449.42 792.156 2445.91 787.784 2443.42 782.898C2441.88 779.812 2440.68 776.469 2439.91 772.955C2439.56 771.155 2439.31 769.355 2439.14 767.555C2439.05 766.612 2439.05 765.583 2439.05 764.554C2439.05 756.583 2441.36 749.039 2445.39 742.782C2447.11 740.125 2449.08 737.639 2451.39 735.496C2458.68 728.381 2468.71 724.01 2479.68 724.01C2480.54 724.01 2481.48 724.01 2482.34 724.095C2485.85 724.353 2489.28 725.038 2492.45 726.067C2493.48 726.41 2494.42 726.753 2495.37 727.181C2496.05 727.438 2496.74 727.781 2497.42 728.124C2501.37 730.01 2504.97 732.582 2508.05 735.667C2509.6 737.21 2511.05 738.839 2512.34 740.553C2516.37 746.039 2519.11 752.468 2519.97 759.583C2520.14 761.126 2520.31 762.84 2520.31 764.554Z" fill="url(#paint15_radial_4886_141660)"/>
<path fill-rule="evenodd" clip-rule="evenodd" d="M2497.51 728.037C2497.34 728.037 2497.25 728.037 2497.08 728.123C2496.65 728.209 2496.22 728.123 2495.79 728.037C2495.45 727.952 2495.28 727.78 2494.85 727.78C2494.34 727.695 2493.91 727.523 2493.39 727.437C2492.88 727.352 2492.45 727.18 2491.94 727.009C2491.51 726.837 2491.34 726.923 2490.99 727.009C2490.65 727.095 2490.39 726.923 2490.05 726.837C2489.71 726.666 2489.28 726.666 2488.94 726.58C2487.91 726.409 2486.88 726.066 2485.85 725.809C2485.25 725.637 2484.65 725.637 2483.97 725.637C2483.45 725.637 2483.02 725.809 2482.51 725.809C2482.17 725.809 2481.91 725.723 2481.57 725.723C2481.22 725.637 2480.88 725.723 2480.54 725.723C2480.02 725.637 2479.77 725.552 2479.25 725.723C2478.82 725.809 2478.57 725.809 2478.14 725.894C2477.71 725.894 2477.19 726.066 2476.77 726.152C2475.99 726.323 2475.14 726.495 2474.37 726.495C2473.85 726.495 2473.17 726.323 2472.74 726.495C2472.48 726.58 2472.31 726.923 2472.05 727.095C2471.62 727.523 2471.19 727.866 2470.85 728.295C2470.51 728.723 2470.17 729.237 2470.17 729.838C2470.17 730.352 2470.42 730.952 2470.68 731.38C2470.94 731.895 2471.02 732.323 2470.51 732.666C2469.91 733.095 2469.14 733.438 2468.45 733.695C2467.94 733.866 2467.51 733.952 2467.17 733.609C2466.99 733.523 2466.91 733.266 2466.74 733.095C2466.57 733.009 2466.31 733.095 2466.14 733.181C2465.62 733.352 2465.11 733.523 2464.59 733.609C2464.25 733.695 2463.99 733.866 2463.65 733.866C2463.31 733.952 2463.05 733.695 2462.62 733.781C2462.11 733.866 2461.51 734.123 2460.99 734.123C2460.56 734.123 2460.05 733.952 2459.71 733.781C2459.54 733.695 2459.45 733.523 2459.19 733.609C2459.02 733.609 2458.76 733.866 2458.68 734.038C2458.51 734.209 2458.51 734.466 2458.34 734.638C2458.16 734.895 2458.08 735.066 2457.91 735.323C2457.65 735.752 2457.39 736.181 2457.14 736.609C2456.96 736.866 2456.79 737.295 2456.54 737.552C2456.45 737.724 2456.19 737.809 2456.02 737.895C2455.59 738.152 2455.16 738.495 2454.74 738.752C2453.96 739.352 2453.19 740.038 2452.42 740.638C2451.82 741.067 2450.96 741.324 2450.28 741.667C2449.85 741.838 2449.42 742.009 2448.99 742.181C2448.82 742.267 2448.56 742.267 2448.48 742.438C2448.31 742.61 2448.22 742.781 2448.14 743.038C2447.79 743.467 2447.36 743.981 2447.11 744.495C2446.94 744.838 2446.85 745.095 2446.68 745.438C2446.51 745.867 2446.25 746.295 2446.16 746.81C2445.82 747.753 2445.82 748.781 2445.39 749.724C2445.22 750.238 2444.88 750.753 2444.62 751.267C2444.19 752.124 2444.11 753.153 2444.02 754.096C2443.94 754.61 2444.02 755.296 2444.11 755.81C2444.19 756.41 2444.19 757.01 2444.19 757.61C2444.19 758.21 2443.76 758.896 2443.42 759.325C2443.08 759.753 2442.48 759.925 2442.05 760.353C2441.71 760.696 2441.28 761.039 2441.11 761.553C2441.02 761.725 2441.11 761.982 2441.11 762.239C2441.02 762.753 2440.85 763.182 2440.85 763.696C2440.76 764.296 2440.76 764.896 2440.76 765.582C2440.76 765.925 2440.76 766.182 2440.76 766.525C2440.76 766.868 2440.85 767.125 2440.94 767.382C2440.94 767.553 2440.94 767.811 2440.94 767.982C2440.94 768.239 2441.11 768.496 2441.11 768.668C2441.28 769.268 2441.36 769.782 2441.45 770.382C2441.54 770.896 2441.79 771.411 2441.88 771.925C2442.14 772.611 2442.22 773.297 2442.39 774.068C2442.48 774.582 2442.48 775.182 2442.56 775.697C2442.65 776.125 2442.74 776.554 2442.74 776.982C2442.74 777.668 2442.56 778.268 2442.56 778.954C2442.56 780.068 2442.99 781.183 2443.25 782.297C2443.34 782.64 2443.42 782.897 2443.51 783.24C2440.68 777.754 2439.14 771.496 2439.14 764.896C2439.14 756.839 2441.45 749.381 2445.48 743.124C2447.19 740.467 2449.16 737.981 2451.48 735.838C2458.76 728.723 2468.79 724.352 2479.77 724.352C2480.62 724.352 2481.57 724.352 2482.42 724.437C2487.74 724.352 2492.88 725.809 2497.51 728.037Z" fill="url(#paint16_linear_4886_141660)"/>
<g opacity="0.5">
<g opacity="0.4">
<path opacity="0.4" fill-rule="evenodd" clip-rule="evenodd" d="M2474.97 775.87V775.784C2475.22 776.041 2475.48 776.299 2475.48 776.642C2475.31 776.556 2475.05 776.041 2474.97 775.87Z" fill="url(#paint17_linear_4886_141660)"/>
<path fill-rule="evenodd" clip-rule="evenodd" d="M2519.97 759.496C2519.8 759.153 2519.63 758.896 2519.37 758.638C2518.94 758.038 2518.34 757.781 2517.65 757.61C2517.14 757.438 2516.63 757.181 2516.2 757.61C2515.77 758.038 2515.43 758.638 2515.17 759.067C2515 759.41 2514.74 760.096 2514.31 760.181C2513.88 760.267 2513.37 759.667 2513.03 759.324C2512.6 758.896 2512.34 758.21 2511.91 757.867C2511.57 757.61 2511.05 757.353 2510.71 757.267C2509.94 756.924 2509.08 756.838 2508.22 756.753C2507.62 756.753 2507.2 756.41 2506.68 756.153C2506.17 755.896 2505.48 755.81 2504.97 755.724C2504.45 755.638 2503.94 755.553 2503.42 755.381C2502.91 755.295 2502.48 755.21 2502.05 754.781C2501.62 754.267 2501.28 753.581 2500.77 753.153C2499.82 752.295 2498.8 752.895 2497.6 752.895C2496.65 752.895 2495.88 752.295 2494.94 752.038C2493.82 751.781 2492.88 751.61 2492.2 750.667C2491.6 749.81 2491.77 748.781 2491.42 747.838C2490.74 745.952 2488.17 745.438 2486.37 745.266C2484.91 745.181 2483.62 745.695 2482.25 745.695C2481.05 745.695 2480.02 745.438 2479.25 746.467C2478.4 747.581 2477.54 748.781 2476.85 749.981C2476.34 750.924 2475.48 751.867 2475.14 752.981C2474.97 753.581 2474.97 754.181 2474.88 754.781C2474.71 755.467 2474.19 756.41 2473.77 757.01C2473.34 757.61 2472.48 758.038 2471.79 758.381C2471.19 758.724 2470.77 759.153 2470.25 759.667C2469.65 760.267 2469.05 760.867 2468.62 761.553C2468.45 761.896 2468.28 762.239 2467.94 762.496C2467.68 762.753 2467.34 762.839 2467.08 763.096C2466.82 763.267 2466.65 763.524 2466.48 763.782C2466.14 764.124 2465.54 764.382 2465.02 764.467C2464.17 764.467 2463.31 763.782 2462.62 764.724C2462.19 765.239 2461.68 766.182 2461.77 766.867C2461.85 767.467 2462.37 767.982 2462.71 768.496C2463.31 769.268 2464.59 770.639 2464.34 771.753C2464.25 772.182 2463.82 772.439 2463.99 772.953C2464.08 773.382 2464.17 773.811 2464.17 774.325C2464.17 774.668 2463.99 775.268 2464.17 775.525C2464.42 775.868 2465.19 776.211 2465.62 776.296C2466.48 776.639 2467.25 777.239 2468.11 777.668C2468.71 778.011 2469.05 778.439 2469.65 778.611C2470.25 778.782 2470.77 778.697 2471.37 778.782C2471.71 778.868 2472.14 778.868 2472.48 778.954C2472.74 779.039 2472.99 779.211 2473.25 779.297C2474.28 779.554 2475.48 779.297 2476.6 779.297C2477.28 779.297 2477.97 779.468 2478.57 779.125C2479.25 778.697 2479.42 778.182 2479.42 777.411C2479.42 776.725 2479.08 776.125 2478.82 775.439C2478.74 775.096 2478.65 774.668 2478.4 774.325C2478.22 774.068 2477.97 774.068 2477.71 773.896C2477.37 773.639 2477.28 773.382 2476.77 773.296C2476.42 773.211 2476.08 773.382 2475.74 773.553C2475.31 773.896 2474.54 774.582 2474.62 775.182C2474.71 775.439 2474.88 775.696 2475.14 775.868C2475.14 775.611 2475.22 775.354 2475.31 775.011C2476.17 775.182 2477.45 775.439 2478.05 776.125C2477.88 776.725 2477.11 777.154 2476.6 777.154C2475.57 777.154 2474.54 777.325 2473.77 776.554C2473.08 775.954 2473.08 775.096 2472.65 774.325C2472.48 773.896 2472.31 773.553 2471.97 773.211C2471.71 772.953 2471.54 772.696 2471.37 772.353C2471.02 771.839 2470.68 771.068 2471.19 770.553C2471.71 770.039 2472.65 769.696 2473.25 769.353C2474.19 768.839 2475.22 768.325 2476.17 767.725C2477.54 766.953 2478.65 765.925 2480.28 765.839C2481.57 765.753 2483.11 766.01 2484.14 766.867C2484.82 767.467 2485 768.153 2485.34 768.925C2485.68 769.61 2486.2 770.125 2486.71 770.553C2487.48 771.068 2488.25 771.582 2488.94 772.096C2489.88 772.782 2490.65 773.039 2491.34 774.068C2492.37 775.782 2492.88 777.668 2493.4 779.639C2493.74 780.582 2493.91 781.525 2494.08 782.554C2494.25 783.325 2494.6 783.925 2494.94 784.697C2495.2 785.383 2495.45 785.897 2495.8 786.497C2495.97 786.754 2496.14 787.011 2496.22 787.354C2496.48 788.554 2495.28 789.411 2494.68 790.354C2494 791.383 2493.22 792.24 2492.88 793.44C2492.62 794.383 2492.97 794.812 2493.14 795.669C2493.48 797.126 2492.8 797.983 2491.85 799.012C2491.34 799.526 2490.82 799.955 2490.14 800.297C2488.34 801.069 2486.71 802.44 2485.34 803.898C2485.17 804.326 2484.4 804.926 2484.05 805.183C2487.57 804.841 2491 803.983 2494.17 802.783C2499.14 800.897 2503.6 798.069 2507.45 794.554C2515.43 787.183 2520.4 776.554 2520.4 764.81C2520.31 762.839 2520.14 761.124 2519.97 759.496ZM2474.62 760.01C2474.45 760.524 2473.17 760.781 2472.65 760.953C2472.48 761.039 2472.22 761.124 2472.05 760.953C2471.62 760.61 2473.08 759.41 2473.08 759.496L2472.65 759.324C2473.08 759.324 2473.17 758.81 2473.51 758.896C2473.59 758.896 2473.94 759.067 2474.02 759.153C2474.37 759.239 2474.79 759.581 2474.62 760.01ZM2488.34 750.581C2488 752.381 2485.94 753.753 2484.31 754.267C2483.45 754.524 2482.68 754.695 2481.82 754.695C2481.05 754.695 2480.2 754.867 2479.42 754.695C2478.05 754.353 2477.71 753.41 2478.14 752.81C2477.88 752.124 2477.54 751.524 2477.8 750.838C2478.05 750.324 2478.31 749.81 2478.65 749.381C2479.25 748.524 2480.11 748.524 2481.05 748.181C2482.94 747.581 2485 746.895 2486.88 747.924C2487.74 748.524 2488.51 749.467 2488.34 750.581ZM2506.51 788.64C2505.74 790.954 2503.77 792.069 2501.62 792.84C2500.51 793.269 2499.48 793.869 2498.37 794.297C2497.6 794.64 2497.08 794.812 2496.4 794.554C2495.45 794.126 2495.2 793.269 2495.62 792.326C2496.22 791.297 2497.34 790.44 2497.08 789.154C2496.91 788.297 2496.82 787.611 2497 786.754C2497.17 785.468 2497.17 784.182 2497.17 782.897C2496.31 784.525 2496.22 783.154 2496.31 782.211C2496.31 781.439 2496.57 781.097 2497.25 780.668C2499.4 779.211 2502.31 780.582 2504.2 781.782C2505.4 782.554 2506.25 783.84 2506.77 785.125C2507.11 786.325 2506.94 787.525 2506.51 788.64ZM2505.82 764.467C2505.22 764.553 2504.28 763.696 2503.85 763.353C2503.42 763.01 2503.08 762.496 2502.74 762.067C2502.4 761.724 2501.97 761.296 2501.71 760.867C2501.45 760.353 2501.28 759.753 2501.02 759.153C2500.68 758.296 2500.42 757.61 2499.91 756.753C2499.74 757.267 2499.74 756.753 2500.08 756.581C2500.42 756.41 2500.94 756.581 2501.28 756.581C2502.22 756.753 2502.74 757.181 2503.42 757.781C2504.11 758.553 2504.88 759.153 2505.48 759.924C2506 760.524 2507.11 761.724 2507.11 762.496C2507.2 763.267 2506.51 764.467 2505.82 764.467Z" fill="url(#paint18_linear_4886_141660)"/>
<path opacity="0.4" fill-rule="evenodd" clip-rule="evenodd" d="M2512.34 740.467C2511.99 740.81 2511.48 740.981 2511.05 741.324C2510.71 741.581 2510.37 742.01 2510.02 742.181C2509.51 742.353 2508.82 742.181 2508.39 742.01C2507.28 741.581 2506.59 741.153 2505.39 741.581C2505.05 741.753 2504.71 741.667 2504.37 741.753C2504.02 741.839 2504.02 742.01 2503.59 742.01C2502.91 742.01 2502.22 741.324 2501.79 740.896C2501.28 740.296 2501.02 740.296 2500.25 740.296C2499.48 740.296 2498.62 740.467 2498.45 741.41C2498.28 742.439 2499.57 743.296 2500.25 743.81C2501.28 744.582 2500.17 744.753 2499.74 745.524C2499.39 746.21 2500.08 746.639 2499.57 747.239C2498.45 748.439 2495.79 749.296 2494.34 748.525C2493.31 747.925 2492.79 746.81 2492.02 745.953C2491.59 745.439 2490.99 745.096 2490.56 744.582C2489.88 743.896 2489.36 742.953 2489.02 742.01C2489.36 742.953 2488.76 741.581 2488.59 740.467C2488.51 739.953 2488.76 739.61 2488.85 739.181C2488.94 738.667 2488.68 738.496 2488.42 738.153C2487.99 737.381 2487.39 736.781 2487.99 736.01C2488.34 735.495 2488.76 735.067 2489.19 734.638C2489.62 734.21 2490.14 733.61 2490.74 733.352C2490.82 733.01 2489.71 731.895 2489.45 731.638C2488.85 730.952 2488.34 730.095 2487.65 729.495C2487.39 729.238 2486.88 728.981 2486.71 728.724C2486.36 728.038 2487.48 727.095 2487.91 726.752C2488.76 726.152 2489.54 726.066 2490.48 726.066C2491.08 726.066 2491.76 726.066 2492.45 726.152C2493.48 726.495 2494.42 726.838 2495.37 727.266C2496.05 727.524 2496.74 727.866 2497.42 728.209C2501.37 730.095 2504.97 732.667 2508.05 735.753C2509.68 737.038 2511.05 738.667 2512.34 740.467Z" fill="url(#paint19_linear_4886_141660)"/>
<path opacity="0.4" fill-rule="evenodd" clip-rule="evenodd" d="M2500.68 749.125C2501.54 749.296 2502.39 749.554 2503.17 749.896C2503.08 750.068 2503.17 750.239 2503.25 750.411C2502.99 750.668 2502.48 751.011 2502.05 751.097C2501.54 751.182 2501.28 751.097 2500.85 750.839C2500.42 750.582 2499.91 750.582 2499.99 750.068C2499.99 749.468 2500.59 749.296 2501.11 749.211H2500.68V749.125Z" fill="url(#paint20_linear_4886_141660)"/>
<path opacity="0.4" fill-rule="evenodd" clip-rule="evenodd" d="M2454.48 797.298C2454.74 797.469 2455.08 797.641 2455.34 797.727C2454.82 797.898 2454.22 797.984 2453.62 797.984C2453.54 797.469 2453.19 796.869 2451.48 795.841C2452.59 796.355 2453.45 796.784 2454.48 797.298Z" fill="url(#paint21_linear_4886_141660)"/>
<path opacity="0.4" fill-rule="evenodd" clip-rule="evenodd" d="M2491.08 791.211C2490.74 791.811 2490.65 792.411 2490.65 793.011C2490.65 793.611 2490.65 794.211 2490.65 794.811C2490.65 795.668 2490.05 796.183 2489.54 796.783C2488.94 797.554 2488.17 798.068 2487.48 798.669C2487.14 799.011 2486.97 799.44 2486.62 799.783C2486.28 800.126 2485.94 800.383 2485.68 800.726C2485.34 801.154 2485.25 801.411 2484.82 801.669C2484.31 802.012 2483.97 802.44 2483.54 802.869C2482.77 803.554 2482.08 804.326 2481.31 804.926C2480.79 804.926 2480.28 804.926 2479.68 804.926C2477.88 804.926 2476.08 804.84 2474.37 804.583C2468.19 803.812 2462.45 801.583 2457.48 798.326C2457.99 798.411 2458.42 798.583 2458.94 798.669C2459.45 798.754 2459.96 799.011 2460.48 799.097C2461.42 799.354 2462.62 799.183 2463.56 799.183C2465.02 799.183 2466.39 799.44 2467.85 799.611C2468.88 799.783 2469.65 799.954 2470.68 799.611C2471.54 799.354 2472.39 799.011 2473.08 798.583C2474.71 797.64 2476.59 797.64 2478.22 796.783C2478.91 796.44 2479.51 795.84 2480.19 795.411C2480.54 795.24 2481.05 794.811 2481.48 794.725C2481.82 794.64 2482.08 794.64 2482.42 794.468C2483.28 794.125 2484.14 793.954 2484.99 793.697C2485.68 793.44 2486.79 792.925 2487.39 792.411C2488.17 791.725 2489.19 790.611 2489.54 789.668C2489.79 788.982 2489.79 788.382 2489.79 787.697C2489.79 787.439 2489.79 787.097 2489.79 786.839C2489.79 786.497 2489.71 786.325 2489.62 786.068C2489.45 785.382 2489.79 785.039 2489.97 784.439C2490.14 783.925 2490.31 783.411 2490.48 782.811C2490.65 782.039 2490.65 781.611 2490.39 780.839C2490.31 780.582 2490.14 780.153 2490.05 779.896C2489.97 779.639 2489.97 779.296 2489.97 779.039C2489.97 779.382 2490.39 780.239 2490.48 780.496C2490.74 781.096 2491.25 781.611 2491.25 782.382C2491.25 783.068 2491.08 783.582 2490.91 784.268C2490.74 784.954 2490.99 785.382 2490.99 786.068C2490.99 786.325 2490.99 786.668 2491.08 786.925C2491.17 787.268 2491.17 787.611 2491.25 787.868C2491.34 788.468 2491.77 788.982 2491.94 789.497C2491.94 790.268 2491.42 790.697 2491.08 791.211Z" fill="url(#paint22_linear_4886_141660)"/>
</g>
<path opacity="0.4" fill-rule="evenodd" clip-rule="evenodd" d="M2459.79 791.898C2459.88 793.955 2458.68 795.755 2457.05 796.955C2456.71 797.212 2456.36 797.383 2456.02 797.555C2455.16 796.955 2454.39 796.355 2453.54 795.669C2449.34 792.155 2445.82 787.783 2443.34 782.897C2441.79 779.811 2440.59 776.468 2439.82 772.954C2439.48 771.154 2439.22 769.354 2439.05 767.554C2439.22 767.382 2439.31 767.296 2439.48 767.125C2439.48 768.496 2439.99 769.525 2440.34 770.811C2440.59 771.754 2440.94 772.697 2441.19 773.64C2441.36 774.411 2441.54 775.097 2442.05 775.783C2442.39 776.211 2442.65 776.383 2443.16 776.554C2443.51 776.725 2443.85 776.983 2444.19 777.154C2444.96 777.411 2445.99 777.668 2446.85 777.583C2447.28 777.583 2447.54 777.583 2447.96 777.754C2448.22 777.925 2448.48 778.097 2448.74 778.268C2449.34 778.697 2449.85 779.126 2450.36 779.64C2451.14 780.497 2451.05 781.611 2451.65 782.554C2452.16 783.326 2452.85 783.583 2453.79 783.583C2455.59 783.583 2457.14 785.726 2458.08 787.012C2458.94 788.469 2459.71 790.355 2459.79 791.898Z" fill="url(#paint23_linear_4886_141660)"/>
</g>
</g>
<g filter="url(#filter3_f_4886_141660)">
<circle cx="2482.56" cy="674.011" r="12.1984" fill="#635BFF" fill-opacity="0.5"/>
</g>
<circle cx="2365.21" cy="761.071" r="3.04959" fill="#00D7FF" fill-opacity="0.5"/>
<circle cx="2377.21" cy="855.522" r="1.4787" fill="#00D7FF" fill-opacity="0.5"/>
<circle cx="2195.94" cy="600.477" r="1.4787" fill="#00D7FF" fill-opacity="0.5"/>
<circle cx="2251.26" cy="713.66" r="1.4787" fill="#00D7FF" fill-opacity="0.5"/>
<g filter="url(#filter4_f_4886_141660)">
<circle cx="2439.68" cy="400.449" r="12.1984" fill="#635BFF" fill-opacity="0.5"/>
</g>
<circle cx="2319.21" cy="429.696" r="1.4787" fill="#00D7FF" fill-opacity="0.5"/>
<circle cx="2227.72" cy="344.308" r="1.4787" fill="#00D7FF" fill-opacity="0.5"/>
<circle cx="2285.53" cy="576.045" r="1.4787" fill="#00D7FF" fill-opacity="0.5"/>
<circle cx="2496.09" cy="576.076" r="1.4787" fill="#00D7FF" fill-opacity="0.5"/>
<circle cx="2423.05" cy="482.889" r="1.4787" fill="#00D7FF" fill-opacity="0.5"/>
<g filter="url(#filter5_f_4886_141660)">
<circle cx="1827.47" cy="327.581" r="6.09919" fill="#635BFF" fill-opacity="0.5"/>
</g>
<g filter="url(#filter6_f_4886_141660)">
<circle cx="2120.23" cy="388.574" r="6.09919" fill="#635BFF" fill-opacity="0.5"/>
</g>
<circle cx="1877.74" cy="280.267" r="1.4787" fill="#00D7FF" fill-opacity="0.5"/>
<circle cx="2030.22" cy="365.655" r="1.4787" fill="#00D7FF" fill-opacity="0.5"/>
<circle cx="1992.75" cy="457.75" r="1.4787" fill="#00D7FF" fill-opacity="0.5"/>
<circle cx="1706.96" cy="310.761" r="1.4787" fill="#00D7FF" fill-opacity="0.5"/>
<circle cx="1835.05" cy="402.25" r="1.4787" fill="#00D7FF" fill-opacity="0.5"/>
<g filter="url(#filter7_f_4886_141660)">
<circle cx="1731.2" cy="595.629" r="6.09919" fill="#635BFF" fill-opacity="0.5"/>
</g>
<g filter="url(#filter8_f_4886_141660)">
<circle cx="1913.35" cy="577.427" r="12.1984" fill="#635BFF" fill-opacity="0.5"/>
</g>
<circle cx="1676.96" cy="487.418" r="1.4787" fill="#00D7FF" fill-opacity="0.5"/>
<circle cx="1597.67" cy="603.302" r="1.4787" fill="#00D7FF" fill-opacity="0.5"/>
<circle cx="2060.5" cy="645.639" r="1.4787" fill="#00D7FF" fill-opacity="0.5"/>
<circle cx="1813.82" cy="588.051" r="1.4787" fill="#00D7FF" fill-opacity="0.5"/>
<g opacity="0.2">
<path fill-rule="evenodd" clip-rule="evenodd" d="M2102 309.152L2101.61 310.411C2101.61 310.508 2101.61 310.508 2101.51 310.605C2100.55 313.899 2099.29 317 2097.74 319.906C2095.22 324.654 2091.83 329.013 2087.95 332.695C2083.4 336.958 2077.97 340.349 2071.96 342.578C2066.54 344.612 2060.73 345.775 2054.62 345.775C2053.75 345.775 2052.88 345.775 2052.01 345.678C2050.75 345.581 2049.49 345.484 2048.23 345.29C2039.99 344.225 2032.43 341.124 2026.04 336.474C2025.46 335.989 2024.88 335.602 2024.3 335.117C2025.46 334.148 2027.78 334.052 2027.78 334.052L2024.49 331.436L2016.25 326.979C2014.7 324.944 2013.25 322.813 2011.99 320.584C2011.7 320.003 2011.41 319.519 2011.12 318.937C2011.12 318.937 2011.12 318.937 2011.12 318.84C2010.83 318.259 2010.54 317.678 2010.25 317.096C2009.38 315.256 2008.7 313.318 2008.02 311.283C2007.53 309.83 2007.15 308.377 2006.86 306.923C2006.66 305.858 2006.47 304.792 2006.28 303.726C2005.98 301.498 2005.79 299.172 2005.79 296.847C2005.79 296.266 2005.79 295.781 2005.79 295.2C2005.79 294.425 2005.89 293.553 2005.89 292.778C2005.98 292.003 2006.08 291.228 2006.08 290.453C2006.08 290.356 2006.08 290.356 2006.08 290.259C2006.28 289.193 2006.37 288.127 2006.66 287.062C2006.95 285.511 2007.34 284.058 2007.83 282.605C2008.41 280.57 2009.18 278.536 2010.05 276.695C2010.93 274.854 2011.89 273.013 2012.96 271.269C2016.25 269.525 2018.39 268.556 2018.39 268.556C2018.39 268.556 2075.26 257.317 2076.13 256.349C2077 255.38 2081.27 255.961 2081.27 255.961C2083.98 257.705 2086.4 259.74 2088.73 261.968C2089.31 262.452 2089.79 263.034 2090.28 263.518C2090.57 263.906 2090.95 264.293 2091.24 264.681C2091.83 265.359 2092.31 265.94 2092.89 266.619C2094.83 269.138 2096.57 271.754 2098.03 274.563C2098.61 275.629 2099.09 276.792 2099.58 277.857C2103.94 295.006 2098.51 309.636 2098.51 309.636C2099.96 309.346 2101.13 309.249 2102 309.152Z" fill="url(#paint24_radial_4886_141660)"/>
<path fill-rule="evenodd" clip-rule="evenodd" d="M2102 309.152L2101.61 310.411C2101.61 310.508 2101.61 310.508 2101.51 310.605C2100.55 313.899 2099.29 317 2097.74 319.906C2095.22 324.654 2091.83 329.013 2087.95 332.695C2083.4 336.958 2077.97 340.349 2071.96 342.578C2066.54 344.612 2060.73 345.775 2054.62 345.775C2053.75 345.775 2052.88 345.775 2052.01 345.678C2050.75 345.581 2049.49 345.484 2048.23 345.29C2039.99 344.225 2032.43 341.124 2026.04 336.474C2025.46 335.989 2024.88 335.602 2024.3 335.117C2025.46 334.148 2027.78 334.052 2027.78 334.052L2024.49 331.436L2016.25 326.979C2014.7 324.944 2013.25 322.813 2011.99 320.584C2011.7 320.003 2011.41 319.519 2011.12 318.937C2011.12 318.937 2011.12 318.937 2011.12 318.84C2010.83 318.259 2010.54 317.678 2010.25 317.096C2009.38 315.256 2008.7 313.318 2008.02 311.283C2007.53 309.83 2007.15 308.377 2006.86 306.923C2006.66 305.858 2006.47 304.792 2006.28 303.726C2005.98 301.498 2005.79 299.172 2005.79 296.847C2005.79 296.266 2005.79 295.781 2005.79 295.2C2005.79 294.425 2005.89 293.553 2005.89 292.778C2005.98 292.003 2006.08 291.228 2006.08 290.453C2006.08 290.356 2006.08 290.356 2006.08 290.259C2006.28 289.193 2006.37 288.127 2006.66 287.062C2006.95 285.511 2007.34 284.058 2007.83 282.605C2008.41 280.57 2009.18 278.536 2010.05 276.695C2010.93 274.854 2011.89 273.013 2012.96 271.269C2016.25 269.525 2018.39 268.556 2018.39 268.556C2018.39 268.556 2075.26 257.317 2076.13 256.349C2077 255.38 2081.27 255.961 2081.27 255.961C2083.98 257.705 2086.4 259.74 2088.73 261.968C2089.31 262.452 2089.79 263.034 2090.28 263.518C2090.57 263.906 2090.95 264.293 2091.24 264.681C2091.83 265.359 2092.31 265.94 2092.89 266.619C2094.83 269.138 2096.57 271.754 2098.03 274.563C2098.61 275.629 2099.09 276.792 2099.58 277.857C2103.94 295.006 2098.51 309.636 2098.51 309.636C2099.96 309.346 2101.13 309.249 2102 309.152Z" fill="url(#paint25_radial_4886_141660)"/>
<path fill-rule="evenodd" clip-rule="evenodd" d="M2100.64 296.944C2100.64 298.688 2100.55 300.432 2100.35 302.079C2100.06 304.695 2099.58 307.214 2098.9 309.636C2098.9 309.733 2098.9 309.733 2098.9 309.83C2098.03 312.93 2096.77 315.837 2095.31 318.55C2092.89 323.007 2089.79 327.076 2086.11 330.564C2081.85 334.536 2076.71 337.733 2071.09 339.865C2066.05 341.803 2060.53 342.868 2054.82 342.868C2054.04 342.868 2053.17 342.868 2052.39 342.771C2051.23 342.675 2049.97 342.578 2048.81 342.481C2041.06 341.512 2033.98 338.508 2027.98 334.149C2027.11 333.47 2026.23 332.792 2025.36 332.114C2025.17 331.92 2024.88 331.726 2024.68 331.533C2022.55 329.595 2020.52 327.56 2018.77 325.235C2017.32 323.394 2015.96 321.36 2014.7 319.228C2014.41 318.744 2014.12 318.259 2013.93 317.678C2013.93 317.678 2013.93 317.678 2013.93 317.581C2013.64 317 2013.35 316.515 2013.15 315.934C2012.38 314.19 2011.7 312.349 2011.12 310.508C2010.73 309.152 2010.34 307.795 2010.05 306.439C2009.86 305.47 2009.67 304.501 2009.57 303.436C2009.28 301.304 2009.08 299.173 2009.08 296.944C2009.08 296.46 2009.08 295.878 2009.08 295.394C2009.08 294.619 2009.18 293.844 2009.18 293.166C2009.28 292.39 2009.28 291.712 2009.38 290.937C2009.38 290.84 2009.38 290.84 2009.38 290.743C2009.47 289.775 2009.67 288.709 2009.86 287.74C2010.15 286.287 2010.54 284.93 2010.93 283.477C2011.51 281.539 2012.19 279.698 2013.06 277.858C2013.93 275.92 2014.99 273.982 2016.16 272.141C2016.93 270.882 2017.8 269.622 2018.77 268.46C2020.03 266.812 2021.49 265.262 2022.94 263.809C2031.17 255.767 2042.51 250.826 2054.91 250.826C2055.4 250.826 2055.88 250.826 2056.37 250.826C2056.85 250.826 2057.43 250.826 2057.92 250.923C2059.37 251.02 2060.73 251.214 2062.18 251.407C2062.18 251.407 2062.18 251.407 2062.28 251.407C2063.44 251.601 2064.6 251.795 2065.67 252.086C2067.12 252.473 2068.57 252.861 2069.93 253.345C2070.9 253.636 2071.77 254.023 2072.74 254.411C2073.42 254.702 2074.1 254.992 2074.77 255.283C2074.87 255.38 2074.97 255.38 2075.16 255.477C2079.62 257.608 2083.69 260.515 2087.18 264.003C2087.66 264.487 2088.14 264.972 2088.63 265.456C2088.92 265.844 2089.31 266.134 2089.6 266.522C2090.08 267.103 2090.66 267.781 2091.15 268.363C2092.99 270.688 2094.54 273.207 2095.9 275.823C2097.45 278.923 2098.7 282.217 2099.58 285.608C2100.16 287.74 2100.45 289.968 2100.74 292.294C2100.55 293.941 2100.64 295.394 2100.64 296.944Z" fill="url(#paint26_radial_4886_141660)"/>
<path fill-rule="evenodd" clip-rule="evenodd" d="M2032.34 278.631C2032.34 278.631 2031.08 281.344 2032.14 284.057C2033.11 286.77 2036.02 285.026 2039.41 284.057C2042.8 283.088 2046.29 279.6 2048.52 277.372C2050.75 275.143 2052.88 272.14 2052.68 269.233C2052.49 266.327 2049.39 264.389 2049.39 264.389C2049.39 264.389 2050.55 262.936 2049.58 268.749C2048.61 274.465 2047.36 276.597 2046.1 277.469C2044.84 278.341 2041.15 280.569 2039.12 281.829C2037.09 283.088 2034.76 284.348 2033.4 284.057C2031.95 283.573 2031.27 280.569 2032.34 278.631Z" fill="url(#paint27_radial_4886_141660)"/>
<path fill-rule="evenodd" clip-rule="evenodd" d="M2038.54 276.598C2038.54 276.598 2036.79 278.148 2037.28 279.408C2037.76 280.667 2041.06 279.892 2043.19 277.179C2045.32 274.466 2043.67 272.335 2043.67 272.335C2043.67 272.335 2042.9 276.792 2040.86 277.567C2038.83 278.342 2038.15 278.051 2038.15 278.051C2038.15 278.051 2037.67 277.664 2038.54 276.598Z" fill="url(#paint28_radial_4886_141660)"/>
<path fill-rule="evenodd" clip-rule="evenodd" d="M2033.31 278.536C2033.31 278.536 2034.95 276.598 2036.89 274.854C2038.83 273.013 2042.12 272.335 2042.12 272.335C2042.12 272.335 2040.19 271.269 2037.67 272.722C2035.24 274.273 2033.31 278.536 2033.31 278.536Z" fill="url(#paint29_radial_4886_141660)"/>
<path fill-rule="evenodd" clip-rule="evenodd" d="M2026.33 278.632C2026.33 278.632 2030.3 274.272 2035.05 272.432C2039.8 270.591 2041.45 270.009 2043.58 268.265C2045.71 266.521 2048.03 265.165 2048.03 265.165C2048.03 265.165 2043.38 265.359 2036.31 269.912C2029.24 274.272 2026.33 277.179 2026.33 278.632Z" fill="url(#paint30_radial_4886_141660)"/>
<path fill-rule="evenodd" clip-rule="evenodd" d="M2016.74 277.761C2016.74 277.761 2023.52 270.979 2028.85 268.267C2034.18 265.554 2037.76 263.907 2042.51 262.647C2047.26 261.485 2054.62 259.353 2054.62 259.353L2055.98 258.675C2055.98 258.675 2040.77 258.965 2030.89 264.972C2021 270.979 2016.74 277.761 2016.74 277.761Z" fill="url(#paint31_radial_4886_141660)"/>
<path fill-rule="evenodd" clip-rule="evenodd" d="M2024.98 285.609C2024.98 285.609 2026.14 295.007 2027.78 295.395C2029.43 295.782 2035.25 295.782 2043.96 291.326C2052.68 286.869 2054.43 287.935 2059.27 282.993C2064.12 278.052 2066.15 272.433 2067.61 268.751C2069.16 265.069 2069.54 260.806 2069.06 259.547C2069.06 259.547 2070.71 260.516 2070.71 264.197C2070.71 267.879 2069.64 274.08 2068.09 277.568C2066.54 281.153 2062.47 286.772 2057.63 289.485C2052.78 292.198 2043 297.526 2033.5 297.43C2023.91 297.333 2025.46 296.654 2024.49 294.717C2023.43 292.779 2024.98 285.609 2024.98 285.609Z" fill="url(#paint32_radial_4886_141660)"/>
<path opacity="0.5" fill-rule="evenodd" clip-rule="evenodd" d="M2010.05 293.553C2010.05 293.553 2011.8 297.331 2012.67 300.819C2013.64 304.307 2013.44 310.12 2017.42 311.089C2021.39 311.961 2026.91 314.577 2028.95 313.899C2031.08 313.221 2038.83 311.864 2043.19 312.736C2047.55 313.608 2055.4 313.124 2058.11 311.767C2060.82 310.411 2066.83 306.826 2069.64 305.76C2072.45 304.695 2076.32 301.594 2079.72 298.203C2083.11 294.812 2083.01 290.937 2083.88 288.999C2084.75 287.061 2086.4 279.407 2086.21 275.919C2086.01 272.431 2083.88 265.94 2083.88 265.94L2081.94 263.905C2081.94 263.905 2084.37 272.819 2083.3 279.213C2082.23 285.511 2083.2 288.127 2078.84 294.134C2074.48 300.238 2068.28 304.985 2061.4 307.214C2054.52 309.539 2050.07 309.248 2043 309.926C2036.31 310.508 2027.98 310.12 2024.68 309.248C2021.68 308.473 2017.71 306.535 2014.7 301.691C2011.51 296.653 2010.05 293.553 2010.05 293.553Z" fill="#7D72B3"/>
<path opacity="0.4" fill-rule="evenodd" clip-rule="evenodd" d="M2025.26 283.671C2025.26 283.671 2025.94 293.844 2027.2 294.716C2028.46 295.588 2031.27 295.976 2033.79 295.104C2036.41 294.232 2045.13 291.325 2046.68 290.453C2048.23 289.581 2057.43 284.93 2059.27 283.477C2061.11 282.121 2063.54 277.18 2064.41 276.211C2065.28 275.242 2067.51 269.138 2068.09 266.813C2068.77 264.487 2069.15 261.775 2069.15 261.775C2069.15 261.775 2069.35 260.515 2068.28 260.031C2067.22 259.643 2067.02 260.031 2067.02 260.031C2067.02 260.031 2066.83 261.581 2065.86 265.941C2064.89 270.301 2051.91 285.221 2045.32 289.193C2038.73 293.069 2032.53 293.263 2030.3 292.972C2027.98 292.681 2025.17 285.415 2025.26 283.671Z" fill="#7D72B3"/>
<path opacity="0.4" fill-rule="evenodd" clip-rule="evenodd" d="M2024.97 285.608C2024.97 285.608 2025.26 279.31 2026.91 277.179C2028.56 275.047 2034.08 270.688 2037.28 269.041C2040.57 267.393 2045.22 265.068 2046.87 264.681C2048.52 264.293 2049.68 264.681 2049.68 264.681C2049.68 264.681 2047.74 263.615 2043.19 264.777C2038.64 265.94 2033.5 270.106 2030.98 271.463C2028.46 272.722 2024.68 275.919 2023.71 277.567C2022.84 279.02 2024.97 285.608 2024.97 285.608Z" fill="#7D72B3"/>
<path opacity="0.4" fill-rule="evenodd" clip-rule="evenodd" d="M2013.74 278.923L2027.78 266.618L2036.5 262.646C2036.5 262.646 2045.13 259.739 2049.1 258.77C2053.07 257.801 2061.89 257.608 2061.89 257.608L2066.54 258.092C2066.54 258.092 2058.5 253.732 2046.48 256.929C2034.57 260.127 2026.62 264.196 2023.13 267.49C2019.74 270.687 2014.41 277.276 2013.74 278.923Z" fill="#7D72B3"/>
<path fill-rule="evenodd" clip-rule="evenodd" d="M2013.35 279.408C2013.35 279.408 2005.79 288.516 2009.47 294.135C2013.15 299.755 2014.8 307.893 2015.87 309.734C2016.93 311.575 2029.14 314.481 2031.66 313.9C2034.18 313.319 2040.28 311.769 2044.25 313.222C2044.25 313.222 2051.33 312.641 2053.27 312.641C2055.3 312.641 2058.98 310.897 2059.85 310.509C2060.73 310.121 2065.47 308.571 2067.9 307.602C2070.32 306.634 2074.29 303.533 2075.84 302.371C2077.39 301.111 2081.56 296.17 2082.43 294.62C2083.2 293.069 2085.63 284.156 2086.21 279.893C2086.79 275.63 2085.04 267.491 2083.59 264.682C2082.14 261.872 2077.87 259.256 2077.87 259.256L2078.17 257.997L2081.56 255.962C2081.56 255.962 2087.47 263.616 2087.95 270.301C2088.24 274.177 2089.21 282.509 2088.14 286.094C2087.37 289 2084.56 297.332 2082.04 300.336C2079.62 303.339 2072.26 310.993 2068.38 312.544C2064.5 313.997 2052.88 316.032 2046.1 316.128C2041.06 316.225 2030.01 315.353 2024.59 315.16C2019.16 314.966 2015.29 311.575 2013.15 309.831C2011.02 308.087 2011.7 303.436 2009.57 299.658C2007.34 295.976 2006.18 291.035 2006.66 288.322C2007.15 285.803 2013.35 279.408 2013.35 279.408Z" fill="url(#paint33_radial_4886_141660)"/>
<path fill-rule="evenodd" clip-rule="evenodd" d="M2026.62 314.189C2025.46 313.899 2024.39 313.317 2023.23 313.027C2022.55 312.833 2021.97 312.736 2021.29 312.542C2020.62 312.348 2019.94 312.252 2019.26 312.252C2017.9 312.155 2016.55 311.864 2015.67 310.798C2014.9 309.829 2014.41 308.764 2014.12 307.504C2013.64 305.857 2013.25 304.21 2012.77 302.66C2012.28 301.11 2011.7 299.85 2010.83 298.494C2010.54 298.009 2010.25 297.428 2009.86 296.944C2009.57 296.459 2009.09 296.072 2008.8 295.49C2008.12 294.134 2007.92 292.681 2007.92 291.13C2007.92 290.355 2008.12 289.58 2008.31 288.805C2008.5 287.836 2008.8 286.964 2009.28 286.092C2009.76 285.317 2010.15 284.445 2010.64 283.67C2011.7 281.829 2012.77 279.988 2014.03 278.341C2015.67 276.307 2017.52 274.272 2019.45 272.431C2020.52 271.366 2021.78 270.397 2023.04 269.428C2024.1 268.653 2025.07 267.781 2026.04 267.006C2027.79 265.649 2029.82 264.777 2031.85 263.808C2034.28 262.646 2036.7 261.483 2039.22 260.611C2042.22 259.545 2045.22 258.673 2048.33 257.995C2051.91 257.317 2055.59 257.123 2059.18 257.123C2061.11 257.123 2063.25 256.929 2065.18 257.608C2066.25 257.995 2067.51 258.48 2068.38 259.061C2068.57 259.255 2068.67 259.255 2068.86 259.448C2068.96 259.545 2068.96 259.739 2069.06 259.836C2069.25 260.224 2069.35 260.708 2069.35 261.096C2069.35 261.483 2069.16 261.871 2069.16 262.258C2069.16 262.839 2068.96 263.421 2068.96 264.002C2068.96 264.68 2068.77 265.165 2068.67 265.843C2068.48 267.006 2068.28 268.168 2067.8 269.331C2067.12 270.978 2066.64 272.722 2065.96 274.272C2065.76 274.757 2065.38 275.144 2065.09 275.629C2064.89 276.113 2064.7 276.404 2064.41 276.888C2063.92 277.663 2063.54 278.535 2062.95 279.213C2061.79 280.763 2060.73 282.411 2059.18 283.67C2057.34 285.123 2055.4 286.383 2053.36 287.449C2052.01 288.127 2050.65 288.708 2049.29 289.386C2048.13 289.968 2046.87 290.646 2045.61 291.227C2042.51 292.681 2039.12 293.746 2035.83 294.812C2034.86 295.103 2033.99 295.393 2033.02 295.587C2032.14 295.684 2031.08 295.975 2030.21 295.975C2029.24 295.975 2028.27 295.684 2027.3 295.393C2025.75 294.909 2025.56 293.165 2025.46 291.712C2025.36 290.646 2025.27 289.58 2025.07 288.611C2024.88 287.739 2024.88 286.964 2024.68 286.092C2024.49 285.22 2024.39 284.348 2024.39 283.476C2024.39 282.314 2024.78 281.345 2025.07 280.182C2025.27 279.504 2025.27 278.729 2025.65 278.051C2026.04 277.082 2026.82 276.21 2027.69 275.532C2028.46 274.853 2029.34 274.078 2030.11 273.4C2030.59 272.916 2031.18 272.625 2031.66 272.237C2032.53 271.559 2033.5 270.978 2034.57 270.494C2035.34 270.106 2035.92 269.428 2036.7 268.943C2037.47 268.459 2038.35 267.974 2039.12 267.49C2039.8 267.102 2040.57 266.909 2041.35 266.618C2041.93 266.424 2042.51 266.037 2043.09 265.843C2043.67 265.649 2044.26 265.552 2044.84 265.359C2045.42 265.165 2045.9 264.971 2046.48 264.777C2047.16 264.583 2047.84 264.39 2048.42 264.39C2049.68 264.39 2050.26 264.971 2050.65 266.23C2051.13 267.878 2050.55 269.331 2049.97 270.881C2049.49 272.141 2048.91 273.303 2048.52 274.563C2047.94 276.21 2046.39 277.082 2045.13 278.244C2043.77 279.407 2042.12 280.57 2040.57 281.248C2040.09 281.442 2039.51 281.635 2039.02 281.829C2038.64 282.023 2038.15 282.314 2037.76 282.507C2037.47 282.701 2037.28 282.895 2036.99 283.089C2036.8 283.283 2036.5 283.283 2036.21 283.476C2035.63 283.864 2035.05 284.251 2034.37 284.542C2033.79 284.833 2032.53 285.026 2032.14 284.251C2031.95 283.864 2031.95 283.379 2031.85 282.992C2031.76 282.507 2031.76 282.023 2031.76 281.539C2031.76 281.054 2031.85 280.667 2031.95 280.182C2032.05 279.698 2032.24 279.31 2032.44 278.826C2032.92 277.469 2033.79 276.5 2034.57 275.435C2035.05 274.757 2035.54 274.078 2036.12 273.4C2036.99 272.431 2038.25 272.044 2039.41 271.656C2040.48 271.365 2042.12 271.075 2043.19 271.656C2044.06 272.237 2043.48 273.4 2043.19 274.078C2043 274.466 2042.9 274.853 2042.71 275.241C2042.61 275.532 2042.61 275.919 2042.41 276.21C2042.03 276.791 2041.35 277.179 2040.77 277.663C2040.57 277.857 2040.19 278.148 2039.9 278.244C2039.51 278.341 2039.12 278.341 2038.73 278.438C2038.54 278.438 2038.44 278.729 2038.25 278.632C2038.06 278.535 2038.06 278.341 2038.06 278.148C2038.06 277.954 2038.15 277.76 2038.25 277.566C2038.25 277.566 2038.25 277.469 2038.25 277.372C2038.44 276.791 2039.12 276.113 2039.41 275.629C2039.9 275.822 2039.61 276.113 2039.51 276.404C2039.41 276.597 2039.41 276.791 2039.41 276.985C2039.41 277.179 2039.12 277.469 2039.31 277.663C2039.41 277.76 2039.9 277.566 2039.99 277.566C2041.16 277.179 2041.83 275.919 2042.22 274.853C2042.41 274.078 2042.41 272.916 2041.64 272.528C2041.06 272.334 2040.28 272.431 2039.7 272.431C2037.47 272.431 2036.12 274.853 2034.86 276.404C2034.08 277.469 2033.4 278.632 2032.92 279.892C2032.63 280.763 2032.44 281.635 2032.24 282.507C2032.05 283.186 2031.85 284.155 2032.82 284.058C2033.4 283.961 2033.99 283.67 2034.57 283.476C2035.05 283.283 2035.44 283.186 2035.92 282.895C2036.6 282.507 2037.47 282.411 2038.15 282.023C2038.73 281.732 2039.31 281.442 2039.9 281.151C2041.35 280.376 2042.9 278.923 2043.87 277.663C2044.55 276.791 2045.61 276.113 2046.39 275.338C2047.26 274.563 2047.65 273.497 2048.23 272.528C2048.81 271.462 2049.1 270.494 2049.39 269.428C2049.58 268.459 2050.26 267.296 2049.88 266.23C2049.58 265.165 2048.13 265.165 2047.26 265.262C2046.48 265.359 2045.71 265.552 2044.93 265.746C2043.58 266.23 2042.32 266.812 2041.06 267.393C2039.02 268.265 2037.28 269.622 2035.44 270.784C2034.47 271.365 2033.4 271.85 2032.53 272.528C2031.85 273.013 2031.27 273.691 2030.59 274.175C2030.11 274.563 2029.82 275.047 2029.24 275.338C2028.56 275.822 2027.98 276.307 2027.49 276.888C2027.11 277.372 2026.62 278.051 2026.43 278.632C2026.23 279.116 2026.43 279.601 2026.43 280.085C2026.43 280.763 2026.23 281.442 2026.23 282.12C2026.23 282.798 2026.23 283.573 2026.23 284.251C2026.23 285.705 2026.04 287.061 2026.04 288.418C2026.04 289.29 2026.23 290.258 2026.43 291.033C2026.53 291.712 2026.82 292.293 2026.91 292.971C2026.91 293.456 2027.01 294.037 2027.4 294.328C2027.59 294.424 2027.88 294.521 2028.08 294.618C2028.27 294.715 2028.46 294.812 2028.66 294.812C2028.75 294.812 2028.85 294.909 2029.04 294.909C2029.14 294.909 2029.24 295.103 2029.24 295.103C2029.43 295.2 2029.82 295.103 2030.01 295.103C2030.59 295.006 2031.18 294.909 2031.66 294.715C2033.11 294.521 2034.47 294.521 2035.83 294.037C2037.38 293.456 2038.83 292.584 2040.28 292.002C2042.51 291.033 2045.03 290.355 2047.16 289.193C2048.13 288.708 2049.2 288.127 2050.17 287.739C2052.59 286.674 2055.11 285.802 2057.14 284.155C2057.92 283.573 2058.59 282.798 2059.27 282.12C2059.66 281.732 2060.05 281.345 2060.44 280.86C2061.5 279.504 2062.47 278.051 2063.25 276.597C2063.63 276.016 2063.83 275.241 2064.12 274.66C2064.7 273.691 2065.28 272.819 2065.86 271.85C2066.35 270.881 2066.64 269.912 2066.93 268.846C2067.12 268.168 2067.31 267.684 2067.22 267.006C2067.22 265.649 2067.31 264.487 2067.9 263.227C2068.19 262.549 2068.67 261.58 2068.38 260.805C2068.28 260.417 2067.7 260.32 2067.41 260.224C2066.64 259.933 2065.86 259.739 2065.09 259.448C2064.41 259.158 2063.92 258.77 2063.15 258.673C2062.86 258.576 2062.57 258.576 2062.28 258.576C2061.5 258.576 2060.92 259.158 2060.15 259.061C2059.95 259.061 2059.76 258.964 2059.47 258.964C2059.08 258.867 2058.69 258.964 2058.3 258.964C2057.43 258.964 2056.66 258.77 2055.79 258.77C2054.82 258.77 2053.85 258.867 2052.88 258.964C2051.91 259.061 2051.04 258.964 2050.07 258.964C2049.49 258.964 2049.1 259.255 2048.62 259.448C2048.13 259.642 2047.65 259.739 2047.16 259.933C2046.68 260.127 2046.29 260.224 2045.81 260.32C2045.13 260.32 2044.55 260.224 2043.87 260.417C2043.09 260.611 2042.32 260.902 2041.54 261.192C2039.51 262.064 2037.47 263.227 2035.34 263.905C2034.28 264.196 2033.21 264.39 2032.24 264.777C2031.85 264.971 2031.56 265.165 2031.18 265.455C2030.5 265.94 2029.82 266.327 2029.14 266.715C2027.59 267.684 2026.14 268.75 2024.59 269.912C2022.84 271.172 2021.2 272.528 2019.74 274.175C2017.22 277.082 2014.61 279.988 2012.38 283.186C2011.31 284.639 2010.15 286.286 2009.47 287.933V288.03C2009.09 288.999 2008.89 289.968 2008.99 291.033C2008.99 291.033 2008.99 291.033 2008.99 291.13C2009.09 292.002 2009.47 292.971 2009.76 293.746C2010.15 294.521 2010.35 295.296 2010.83 296.072C2011.31 296.847 2011.99 297.525 2012.28 298.397C2012.67 299.463 2013.06 300.625 2013.45 301.788C2013.83 303.144 2014.22 304.598 2014.41 306.051C2014.61 306.923 2014.71 307.892 2015.19 308.667C2015.77 309.829 2017.03 310.217 2018.1 310.895C2018.68 311.283 2018.97 311.38 2019.65 311.38C2020.52 311.477 2021.49 311.67 2022.36 311.961C2024.2 312.542 2026.14 312.93 2028.08 312.93C2029.24 312.93 2030.4 312.639 2031.47 312.445C2032.53 312.348 2033.6 312.252 2034.66 312.058C2035.63 311.864 2036.6 311.67 2037.57 311.67C2038.54 311.67 2039.61 311.864 2040.48 312.058C2042.12 312.542 2043.67 312.833 2045.32 312.833C2046.39 312.833 2047.36 312.542 2048.42 312.542C2049.39 312.445 2050.26 312.639 2051.23 312.736C2052.88 312.833 2054.53 312.445 2056.08 311.864C2057.14 311.477 2058.01 310.992 2058.98 310.411C2059.76 309.926 2060.53 309.829 2061.31 309.636C2062.95 309.151 2064.6 308.57 2066.15 307.698C2068.09 306.535 2069.74 304.888 2071.67 303.726C2072.74 303.047 2074 302.563 2075.07 301.885C2075.94 301.303 2076.81 300.625 2077.49 299.85C2078.36 298.978 2079.13 298.106 2080.01 297.234C2080.69 296.556 2080.98 295.684 2081.27 294.909C2081.85 293.649 2082.04 292.39 2082.24 291.033C2082.43 289.677 2083.01 288.514 2083.59 287.352C2084.37 285.802 2084.95 284.348 2085.05 282.604C2085.14 281.248 2085.34 279.988 2085.34 278.632C2085.34 277.76 2085.24 276.985 2085.05 276.113C2084.95 275.338 2084.75 274.563 2084.66 273.788C2084.46 272.819 2084.46 271.85 2084.27 270.881C2084.08 270.106 2083.88 269.234 2083.69 268.362C2083.49 267.781 2083.3 267.199 2083.11 266.618C2082.72 265.649 2082.14 264.68 2081.46 263.808C2081.17 263.421 2080.78 263.324 2080.49 263.13C2080.2 262.936 2080.2 262.743 2079.91 262.646C2079.52 262.452 2079.13 262.258 2078.75 262.064C2078.07 261.677 2077.39 261.58 2076.71 261.192C2076.13 260.902 2075.55 260.417 2074.97 260.03C2074.29 259.642 2073.61 259.352 2073.03 258.77C2072.45 258.189 2072.06 257.511 2071.58 257.026C2071 256.445 2070.22 256.057 2069.64 255.573C2068.57 254.701 2067.22 254.604 2066.06 254.12C2065.47 253.829 2064.8 253.829 2064.21 253.635C2063.44 253.441 2062.95 253.054 2062.18 252.957C2061.5 252.86 2060.82 252.86 2060.05 252.666C2059.66 252.57 2059.27 252.473 2058.79 252.473C2058.01 252.376 2057.14 252.473 2056.37 252.57C2055.69 252.666 2054.91 252.57 2054.24 252.57C2053.65 252.57 2052.98 252.666 2052.39 252.57C2050.65 252.279 2048.81 252.376 2047.07 252.473C2045.42 252.57 2043.77 252.666 2042.22 253.248C2040.86 253.732 2039.61 254.12 2038.25 254.604C2037.38 254.992 2036.6 255.476 2035.73 255.961C2033.7 257.123 2031.85 258.48 2030.01 259.739C2027.88 261.192 2025.85 262.743 2023.81 264.293C2022.46 265.262 2021.1 266.327 2019.84 267.296C2019.26 267.781 2018.68 268.265 2018.19 268.75C2019.45 267.102 2020.91 265.552 2022.36 264.099C2030.59 256.057 2041.93 251.116 2054.33 251.116C2054.82 251.116 2055.3 251.116 2055.79 251.116C2056.27 251.116 2056.85 251.116 2057.34 251.213C2058.79 251.31 2060.15 251.504 2061.6 251.698C2061.6 251.698 2061.6 251.698 2061.7 251.698C2063.25 252.085 2064.8 252.57 2066.44 253.054C2067.8 253.441 2069.06 253.829 2070.32 254.217C2071.19 254.507 2071.97 254.895 2072.84 255.185C2073.61 255.476 2074.39 255.767 2075.07 256.154C2076.23 256.833 2077.29 257.608 2078.26 258.383C2078.94 258.867 2079.62 259.545 2080.2 260.127C2081.07 260.999 2081.85 261.967 2082.53 262.936C2084.08 265.359 2085.34 268.071 2085.92 270.978C2086.4 273.4 2086.4 275.919 2086.3 278.341C2086.21 279.601 2086.01 281.054 2085.72 282.314C2085.43 283.767 2084.95 285.027 2084.75 286.48C2084.66 287.158 2084.75 287.933 2084.66 288.611C2084.56 289.193 2084.37 289.774 2084.27 290.355C2084.08 291.518 2083.69 292.777 2083.11 293.843C2082.33 295.393 2081.36 296.653 2080.2 297.912C2078.94 299.366 2077.68 300.819 2076.33 302.175C2075.07 303.629 2073.52 304.791 2071.87 305.76C2070.61 306.535 2069.25 307.504 2067.9 307.989C2066.54 308.473 2065.09 309.248 2063.63 309.442C2062.57 309.539 2061.7 309.926 2060.82 310.605C2060.34 310.992 2059.85 311.477 2059.37 311.961C2058.89 312.348 2058.4 312.445 2057.82 312.639C2056.56 313.027 2055.3 312.93 2053.94 312.93C2052.01 312.93 2050.17 313.124 2048.33 313.317C2047.36 313.414 2046.39 313.511 2045.52 313.414C2044.64 313.317 2043.77 313.124 2043 313.027C2042.03 312.93 2041.16 312.93 2040.19 312.736C2039.41 312.639 2038.83 312.639 2038.15 312.736C2037.57 312.833 2036.99 312.736 2036.31 312.736C2035.73 312.833 2035.05 312.93 2034.47 313.027C2032.14 313.608 2029.53 314.868 2026.62 314.189Z" fill="#00C4FF"/>
<path fill-rule="evenodd" clip-rule="evenodd" d="M2024.39 335.214C2024.39 335.214 2035.15 337.055 2039.99 336.958C2047.35 336.765 2055.88 337.637 2062.47 337.83C2069.06 338.024 2080.59 332.598 2082.72 331.63C2084.85 330.661 2089.89 327.754 2094.34 322.813C2098.8 317.872 2100.55 309.83 2100.55 309.83H2098.7C2098.7 309.83 2098.03 313.318 2095.31 317.193C2093.67 319.519 2091.34 321.553 2088.14 324.363C2083.49 328.335 2077.49 331.436 2071.38 332.986C2063.24 335.021 2056.07 334.439 2051.04 335.214C2043.87 336.28 2027.78 333.761 2027.78 333.761L2024.39 335.214Z" fill="url(#paint34_radial_4886_141660)"/>
<path fill-rule="evenodd" clip-rule="evenodd" d="M2021.58 329.884C2021.58 329.884 2023.33 334.341 2024.39 335.213C2024.39 335.213 2026.72 335.309 2027.88 334.147L2024.59 331.531L2021.58 329.884Z" fill="url(#paint35_radial_4886_141660)"/>
<path fill-rule="evenodd" clip-rule="evenodd" d="M2100.74 301.497C2100.74 301.497 2101.9 306.535 2102 309.248C2102 309.248 2100.16 310.411 2098.8 309.829C2098.8 309.829 2100.45 303.629 2100.74 301.497Z" fill="url(#paint36_radial_4886_141660)"/>
<path fill-rule="evenodd" clip-rule="evenodd" d="M2069.64 253.539C2069.64 253.539 2079.23 254.508 2081.46 256.058C2081.46 256.058 2079.91 257.802 2078.07 258.093C2078.16 257.996 2070.41 253.733 2069.64 253.539Z" fill="#EE8CFF"/>
<path fill-rule="evenodd" clip-rule="evenodd" d="M2013.06 271.365L2017.03 270.784L2018.58 268.749C2018.58 268.652 2015.77 269.912 2013.06 271.365Z" fill="#FF61C7"/>
<path opacity="0.5" fill-rule="evenodd" clip-rule="evenodd" d="M2016.25 327.075C2016.25 327.075 2034.86 332.501 2049.29 332.791C2063.83 333.082 2069.25 329.885 2075.55 327.366C2081.85 324.944 2092.12 319.421 2095.22 315.255C2098.32 311.186 2100.74 301.497 2100.74 301.497C2100.74 301.497 2097.74 316.03 2095.22 318.549C2092.6 321.068 2081.17 328.916 2079.13 329.885C2077.1 330.854 2071.67 335.02 2061.69 333.857C2061.69 333.857 2055.01 334.826 2052.59 334.632C2050.17 334.438 2046.39 336.861 2039.51 334.632C2039.51 334.632 2029.92 334.148 2027.88 333.663C2025.75 333.276 2016.25 327.075 2016.25 327.075Z" fill="#54469B"/>
<path fill-rule="evenodd" clip-rule="evenodd" d="M2020.81 307.506C2020.81 307.506 2036.21 310.219 2047.36 309.056C2058.5 307.893 2064.5 305.084 2067.7 303.049C2070.9 301.014 2077.1 294.329 2079.42 291.229C2081.75 288.225 2082.91 280.571 2082.91 280.571C2082.91 280.571 2083.3 287.935 2081.46 291.229C2079.52 294.426 2073.03 300.53 2070.32 302.274C2067.6 304.018 2059.95 308.281 2055.98 308.959C2052.01 309.637 2045.42 311.672 2040.57 310.8C2035.92 310.025 2024.3 310.219 2020.81 307.506Z" fill="#B04FE2"/>
<path fill-rule="evenodd" clip-rule="evenodd" d="M2042.12 332.21C2042.12 332.21 2058.11 331.144 2063.63 329.885C2069.15 328.625 2076.42 325.719 2081.46 323.781C2086.5 321.94 2090.37 318.258 2093.18 316.224C2095.99 314.189 2099.58 305.663 2099.58 305.663C2099.58 305.663 2097.25 314.092 2093.76 316.805C2090.28 319.518 2081.27 324.556 2071.19 329.11C2059.85 334.148 2051.13 332.694 2042.12 332.21Z" fill="#8B40E0"/>
<path fill-rule="evenodd" clip-rule="evenodd" d="M2098.03 312.058C2098.32 311.283 2098.51 310.508 2098.8 309.83C2097.93 312.93 2096.67 315.837 2095.22 318.55C2094.83 318.937 2094.25 319.325 2093.86 319.713C2093.47 320.197 2093.09 320.584 2092.7 321.069C2090.57 323.104 2088.24 324.944 2085.72 326.495C2083.2 328.142 2080.68 329.692 2077.87 330.951C2075.74 331.92 2073.52 332.695 2071.29 333.277C2069.45 333.761 2067.51 333.955 2065.67 334.052C2064.7 334.149 2063.83 334.245 2062.86 334.342C2061.69 334.439 2060.44 334.439 2059.37 334.633C2057.34 335.021 2055.3 335.311 2053.27 335.408C2051.52 335.505 2049.78 335.796 2048.03 335.796C2045.81 335.796 2043.58 335.408 2041.35 335.408C2039.22 335.408 2036.99 335.311 2034.86 335.117C2033.6 335.021 2032.34 334.73 2031.08 334.633C2030.01 334.536 2028.95 334.245 2027.88 334.149C2027.01 333.47 2026.14 332.792 2025.27 332.114C2025.07 331.92 2024.78 331.726 2024.59 331.533C2025.85 331.92 2027.01 332.308 2028.27 332.695C2030.01 333.277 2031.95 333.567 2033.69 333.761C2035.15 333.955 2036.99 334.052 2038.44 333.664C2039.99 333.277 2041.06 333.761 2042.41 334.342C2043.09 334.633 2043.67 334.73 2044.35 334.924C2045.32 335.214 2046 335.117 2046.97 335.021C2047.84 334.924 2048.71 334.73 2049.49 334.633C2050.17 334.439 2050.94 334.149 2051.62 334.052C2052.88 333.858 2054.23 333.664 2055.49 333.955C2056.95 334.246 2058.4 334.342 2059.85 334.149C2061.4 333.858 2062.76 333.761 2064.31 333.761C2064.8 333.761 2065.28 333.858 2065.76 333.858C2066.35 333.955 2066.83 333.761 2067.41 333.761C2068.38 333.664 2069.35 333.47 2070.32 333.18C2071.19 332.889 2072.06 332.502 2072.93 332.211C2074.68 331.533 2076.13 330.951 2077.68 329.886C2078.94 329.014 2080.39 328.432 2081.65 327.56C2082.91 326.785 2083.98 325.719 2085.24 325.041C2086.59 324.266 2087.76 323.2 2089.02 322.328C2089.79 321.747 2090.57 321.069 2091.34 320.488C2092.02 320.003 2092.8 319.616 2093.47 319.034C2094.54 318.065 2095.61 317.097 2096.38 315.74C2097.06 314.578 2097.64 313.318 2098.03 312.058Z" fill="#00C4FF"/>
<path fill-rule="evenodd" clip-rule="evenodd" d="M2048.81 286.577C2048.81 286.577 2059.85 277.47 2064.5 268.653C2064.6 268.653 2051.62 281.927 2048.81 286.577Z" fill="#FF77F4"/>
<path fill-rule="evenodd" clip-rule="evenodd" d="M2037.18 297.331C2037.18 297.331 2044.16 297.331 2051.91 294.133C2059.66 290.936 2063.54 284.251 2063.54 284.251C2063.54 284.251 2058.3 289.289 2052.59 292.099C2046.87 294.908 2042.61 295.587 2037.18 297.331Z" fill="#F9C6FF"/>
<path fill-rule="evenodd" clip-rule="evenodd" d="M2064.79 282.702C2064.79 282.702 2065.57 280.667 2067.02 277.18C2068.48 273.692 2069.64 271.754 2069.64 271.754C2069.64 271.754 2069.25 277.18 2064.79 282.702Z" fill="#EA9CF4"/>
<path fill-rule="evenodd" clip-rule="evenodd" d="M2034.76 315.836C2034.76 315.836 2044.45 318.162 2057.14 315.836C2069.83 313.511 2070.32 312.736 2073.81 309.926C2077.29 307.213 2079.81 303.725 2081.17 302.369C2082.53 301.013 2084.27 296.459 2084.27 296.459C2084.27 296.459 2080.68 302.853 2075.55 307.213C2070.41 311.476 2066.15 313.608 2057.53 314.964C2049 316.224 2039.12 316.03 2034.76 315.836Z" fill="#D374F4"/>
<path fill-rule="evenodd" clip-rule="evenodd" d="M2043.29 336.958C2043.29 336.958 2052.1 337.733 2055.69 338.411C2059.27 339.186 2066.15 339.089 2070.12 337.636C2074.1 336.183 2081.85 332.017 2081.85 332.017C2081.85 332.017 2074.58 336.086 2065.86 337.055C2057.24 337.927 2051.91 336.473 2043.29 336.958Z" fill="#D374F4"/>
<path fill-rule="evenodd" clip-rule="evenodd" d="M2084.46 330.756C2084.46 330.756 2090.08 326.978 2092.8 324.555C2092.8 324.459 2089.89 328.528 2084.46 330.756Z" fill="#D374F4"/>
<path fill-rule="evenodd" clip-rule="evenodd" d="M2041.93 282.895C2041.93 282.895 2048.32 278.051 2050.36 274.66C2052.39 271.172 2052.59 269.234 2052.59 269.234C2052.59 269.234 2053.46 272.625 2049.68 276.888C2045.81 281.151 2041.93 282.895 2041.93 282.895Z" fill="#F2C4F8"/>
<path fill-rule="evenodd" clip-rule="evenodd" d="M2011.9 308.183C2011.8 310.314 2012.96 312.736 2016.74 314.19C2020.52 315.643 2023.43 315.255 2023.43 315.255C2023.43 315.255 2019.07 314.383 2016.64 312.736C2014.22 310.895 2011.9 308.183 2011.9 308.183Z" fill="#F5CEFA"/>
</g>
<path d="M2404.07 581.262C2383.81 592.15 2344.22 616.035 2347.87 624.464C2351.52 632.894 2386.86 599.175 2404.07 581.262Z" fill="url(#paint37_linear_4886_141660)" fill-opacity="0.2"/>
<path d="M2404.07 553.865C2383.81 564.754 2344.22 588.638 2347.87 597.068C2351.52 605.498 2386.86 571.779 2404.07 553.865Z" fill="url(#paint38_linear_4886_141660)" fill-opacity="0.2"/>
<path d="M2432.17 586.181C2411.91 597.069 2372.32 620.954 2375.97 629.383C2379.62 637.813 2414.96 604.094 2432.17 586.181Z" fill="url(#paint39_linear_4886_141660)" fill-opacity="0.2"/>
</g>
</g>
<defs>
<filter id="filter0_f_4886_141660" x="2192.6" y="514.791" width="41.0236" height="41.0234" filterUnits="userSpaceOnUse" color-interpolation-filters="sRGB">
<feFlood flood-opacity="0" result="BackgroundImageFix"/>
<feBlend mode="normal" in="SourceGraphic" in2="BackgroundImageFix" result="shape"/>
<feGaussianBlur stdDeviation="0.932357" result="effect1_foregroundBlur_4886_141660"/>
</filter>
<filter id="filter1_f_4886_141660" x="1890.52" y="413.456" width="41.0236" height="41.0234" filterUnits="userSpaceOnUse" color-interpolation-filters="sRGB">
<feFlood flood-opacity="0" result="BackgroundImageFix"/>
<feBlend mode="normal" in="SourceGraphic" in2="BackgroundImageFix" result="shape"/>
<feGaussianBlur stdDeviation="0.932357" result="effect1_foregroundBlur_4886_141660"/>
</filter>
<filter id="filter2_f_4886_141660" x="2308.54" y="664.474" width="41.0236" height="41.0234" filterUnits="userSpaceOnUse" color-interpolation-filters="sRGB">
<feFlood flood-opacity="0" result="BackgroundImageFix"/>
<feBlend mode="normal" in="SourceGraphic" in2="BackgroundImageFix" result="shape"/>
<feGaussianBlur stdDeviation="0.932357" result="effect1_foregroundBlur_4886_141660"/>
</filter>
<filter id="filter3_f_4886_141660" x="2445.97" y="637.416" width="73.1902" height="73.19" filterUnits="userSpaceOnUse" color-interpolation-filters="sRGB">
<feFlood flood-opacity="0" result="BackgroundImageFix"/>
<feBlend mode="normal" in="SourceGraphic" in2="BackgroundImageFix" result="shape"/>
<feGaussianBlur stdDeviation="12.1984" result="effect1_foregroundBlur_4886_141660"/>
</filter>
<filter id="filter4_f_4886_141660" x="2403.09" y="363.854" width="73.1902" height="73.19" filterUnits="userSpaceOnUse" color-interpolation-filters="sRGB">
<feFlood flood-opacity="0" result="BackgroundImageFix"/>
<feBlend mode="normal" in="SourceGraphic" in2="BackgroundImageFix" result="shape"/>
<feGaussianBlur stdDeviation="12.1984" result="effect1_foregroundBlur_4886_141660"/>
</filter>
<filter id="filter5_f_4886_141660" x="1809.17" y="309.283" width="36.5952" height="36.595" filterUnits="userSpaceOnUse" color-interpolation-filters="sRGB">
<feFlood flood-opacity="0" result="BackgroundImageFix"/>
<feBlend mode="normal" in="SourceGraphic" in2="BackgroundImageFix" result="shape"/>
<feGaussianBlur stdDeviation="6.09919" result="effect1_foregroundBlur_4886_141660"/>
</filter>
<filter id="filter6_f_4886_141660" x="2101.93" y="370.276" width="36.5952" height="36.595" filterUnits="userSpaceOnUse" color-interpolation-filters="sRGB">
<feFlood flood-opacity="0" result="BackgroundImageFix"/>
<feBlend mode="normal" in="SourceGraphic" in2="BackgroundImageFix" result="shape"/>
<feGaussianBlur stdDeviation="6.09919" result="effect1_foregroundBlur_4886_141660"/>
</filter>
<filter id="filter7_f_4886_141660" x="1712.9" y="577.332" width="36.5952" height="36.595" filterUnits="userSpaceOnUse" color-interpolation-filters="sRGB">
<feFlood flood-opacity="0" result="BackgroundImageFix"/>
<feBlend mode="normal" in="SourceGraphic" in2="BackgroundImageFix" result="shape"/>
<feGaussianBlur stdDeviation="6.09919" result="effect1_foregroundBlur_4886_141660"/>
</filter>
<filter id="filter8_f_4886_141660" x="1876.75" y="540.832" width="73.1902" height="73.19" filterUnits="userSpaceOnUse" color-interpolation-filters="sRGB">
<feFlood flood-opacity="0" result="BackgroundImageFix"/>
<feBlend mode="normal" in="SourceGraphic" in2="BackgroundImageFix" result="shape"/>
<feGaussianBlur stdDeviation="12.1984" result="effect1_foregroundBlur_4886_141660"/>
</filter>
<linearGradient id="paint0_linear_4886_141660" x1="1267.27" y1="618.636" x2="1267.27" y2="1370.47" gradientUnits="userSpaceOnUse">
<stop stop-color="#635BFF"/>
<stop offset="1" stop-color="#00D7FF" stop-opacity="0.1"/>
</linearGradient>
<linearGradient id="paint1_linear_4886_141660" x1="1267.27" y1="618.636" x2="1267.27" y2="1370.47" gradientUnits="userSpaceOnUse">
<stop stop-color="#635BFF"/>
<stop offset="1" stop-color="#00D7FF" stop-opacity="0.1"/>
</linearGradient>
<linearGradient id="paint2_linear_4886_141660" x1="1267.27" y1="618.636" x2="1267.27" y2="1370.47" gradientUnits="userSpaceOnUse">
<stop stop-color="#635BFF"/>
<stop offset="1" stop-color="#00D7FF" stop-opacity="0.1"/>
</linearGradient>
<linearGradient id="paint3_linear_4886_141660" x1="1267.27" y1="618.636" x2="1267.27" y2="1370.47" gradientUnits="userSpaceOnUse">
<stop stop-color="#635BFF"/>
<stop offset="1" stop-color="#00D7FF" stop-opacity="0.1"/>
</linearGradient>
<linearGradient id="paint4_linear_4886_141660" x1="1267.27" y1="618.636" x2="1267.27" y2="1370.47" gradientUnits="userSpaceOnUse">
<stop stop-color="#635BFF"/>
<stop offset="1" stop-color="#00D7FF" stop-opacity="0.1"/>
</linearGradient>
<linearGradient id="paint5_linear_4886_141660" x1="2063.03" y1="491.017" x2="2010.29" y2="535.093" gradientUnits="userSpaceOnUse">
<stop stop-color="#FF5687"/>
<stop offset="1" stop-color="#FF7400"/>
</linearGradient>
<linearGradient id="paint6_linear_4886_141660" x1="2105.94" y1="557.067" x2="2041.82" y2="581.825" gradientUnits="userSpaceOnUse">
<stop stop-color="#FF5687"/>
<stop offset="1" stop-color="#FF7400"/>
</linearGradient>
<linearGradient id="paint7_linear_4886_141660" x1="2082.67" y1="487.128" x2="2115.36" y2="542.611" gradientUnits="userSpaceOnUse">
<stop stop-color="#FFC900"/>
<stop offset="1" stop-color="#C43400"/>
</linearGradient>
<linearGradient id="paint8_linear_4886_141660" x1="2039.17" y1="533.485" x2="2040.45" y2="577.995" gradientUnits="userSpaceOnUse">
<stop stop-color="#BD2F7B"/>
<stop offset="1" stop-color="#4DCDEC"/>
</linearGradient>
<linearGradient id="paint9_linear_4886_141660" x1="18.8113" y1="0" x2="18.8113" y2="37.6226" gradientUnits="userSpaceOnUse">
<stop stop-color="#DA5C9F"/>
<stop offset="1" stop-color="#85EDF2"/>
</linearGradient>
<linearGradient id="paint10_linear_4886_141660" x1="2137.31" y1="466.361" x2="2173.14" y2="521.931" gradientUnits="userSpaceOnUse">
<stop stop-color="#FF42B6"/>
<stop offset="1" stop-color="#65E0EB"/>
</linearGradient>
<linearGradient id="paint11_linear_4886_141660" x1="2063.19" y1="503.673" x2="2091.53" y2="551.781" gradientUnits="userSpaceOnUse">
<stop stop-color="#FA1775"/>
<stop offset="1" stop-color="#64E0EF"/>
</linearGradient>
<linearGradient id="paint12_linear_4886_141660" x1="1732.91" y1="480.219" x2="1777.35" y2="443.098" gradientUnits="userSpaceOnUse">
<stop stop-color="#C7B716"/>
<stop offset="1" stop-color="#E15C75"/>
</linearGradient>
<linearGradient id="paint13_linear_4886_141660" x1="1754.91" y1="484.893" x2="1799.34" y2="447.772" gradientUnits="userSpaceOnUse">
<stop stop-color="#C7B716"/>
<stop offset="1" stop-color="#E15C75"/>
</linearGradient>
<linearGradient id="paint14_linear_4886_141660" x1="1733.76" y1="456.821" x2="1778.19" y2="419.701" gradientUnits="userSpaceOnUse">
<stop stop-color="#C7B716"/>
<stop offset="1" stop-color="#E15C75"/>
</linearGradient>
<radialGradient id="paint15_radial_4886_141660" cx="0" cy="0" r="1" gradientUnits="userSpaceOnUse" gradientTransform="translate(2459.89 739.619) scale(68.0772 68.0772)">
<stop offset="0.00558659" stop-color="#B1FFFF"/>
<stop offset="0.2928" stop-color="#B1FDFF"/>
<stop offset="0.4362" stop-color="#AFF5FF"/>
<stop offset="0.5473" stop-color="#ACE8FF"/>
<stop offset="0.6173" stop-color="#A9DBFF"/>
<stop offset="0.6508" stop-color="#A2D7FE"/>
<stop offset="0.6994" stop-color="#8FCAFC"/>
<stop offset="0.757" stop-color="#6FB5F9"/>
<stop offset="0.8216" stop-color="#4399F4"/>
<stop offset="0.8913" stop-color="#0C75EE"/>
<stop offset="0.905" stop-color="#006DED"/>
</radialGradient>
<linearGradient id="paint16_linear_4886_141660" x1="2439.06" y1="753.401" x2="2497.47" y2="753.401" gradientUnits="userSpaceOnUse">
<stop offset="0.0111732" stop-color="#B0E1FF"/>
<stop offset="0.2926" stop-color="#ADDEFF"/>
<stop offset="0.499" stop-color="#A5D5FF"/>
<stop offset="0.6813" stop-color="#98C5FF"/>
<stop offset="0.8488" stop-color="#85AEFF"/>
<stop offset="1" stop-color="#6D93FF"/>
</linearGradient>
<linearGradient id="paint17_linear_4886_141660" x1="2474.96" y1="776.157" x2="2475.5" y2="776.157" gradientUnits="userSpaceOnUse">
<stop stop-color="#E8DDFF"/>
<stop offset="1" stop-color="#AA8AD8"/>
</linearGradient>
<linearGradient id="paint18_linear_4886_141660" x1="2461.67" y1="775.05" x2="2520.28" y2="775.05" gradientUnits="userSpaceOnUse">
<stop stop-color="#E8DDFF"/>
<stop offset="1" stop-color="#AA8AD8"/>
</linearGradient>
<linearGradient id="paint19_linear_4886_141660" x1="2486.55" y1="737.33" x2="2512.35" y2="737.33" gradientUnits="userSpaceOnUse">
<stop stop-color="#E8DDFF"/>
<stop offset="1" stop-color="#AA8AD8"/>
</linearGradient>
<linearGradient id="paint20_linear_4886_141660" x1="2499.99" y1="750.088" x2="2503.22" y2="750.088" gradientUnits="userSpaceOnUse">
<stop stop-color="#E8DDFF"/>
<stop offset="1" stop-color="#AA8AD8"/>
</linearGradient>
<linearGradient id="paint21_linear_4886_141660" x1="2451.5" y1="796.964" x2="2455.36" y2="796.964" gradientUnits="userSpaceOnUse">
<stop stop-color="#E8DDFF"/>
<stop offset="1" stop-color="#AA8AD8"/>
</linearGradient>
<linearGradient id="paint22_linear_4886_141660" x1="2457.45" y1="792.137" x2="2491.81" y2="792.137" gradientUnits="userSpaceOnUse">
<stop stop-color="#E8DDFF"/>
<stop offset="1" stop-color="#AA8AD8"/>
</linearGradient>
<linearGradient id="paint23_linear_4886_141660" x1="2439.17" y1="782.314" x2="2459.84" y2="782.314" gradientUnits="userSpaceOnUse">
<stop stop-color="#E8DDFF"/>
<stop offset="1" stop-color="#AA8AD8"/>
</linearGradient>
<radialGradient id="paint24_radial_4886_141660" cx="0" cy="0" r="1" gradientUnits="userSpaceOnUse" gradientTransform="translate(2024.17 279.781) scale(75.0081 75.0081)">
<stop offset="0.00558659" stop-color="#FF9AFF"/>
<stop offset="0.0930098" stop-color="#FB94FF"/>
<stop offset="0.2093" stop-color="#F183FF"/>
<stop offset="0.3418" stop-color="#E068FF"/>
<stop offset="0.4864" stop-color="#C841FF"/>
<stop offset="0.639" stop-color="#A910FF"/>
<stop offset="0.6844" stop-color="#9F00FF"/>
<stop offset="0.7432" stop-color="#9900F8"/>
<stop offset="0.8282" stop-color="#8700E5"/>
<stop offset="0.9287" stop-color="#6A00C6"/>
<stop offset="1" stop-color="#5200AB"/>
</radialGradient>
<radialGradient id="paint25_radial_4886_141660" cx="0" cy="0" r="1" gradientUnits="userSpaceOnUse" gradientTransform="translate(2024.17 279.781) scale(75.0081 75.0081)">
<stop offset="0.00558659" stop-color="#FF9AFF"/>
<stop offset="0.0930098" stop-color="#FB94FF"/>
<stop offset="0.2093" stop-color="#F183FF"/>
<stop offset="0.3418" stop-color="#E068FF"/>
<stop offset="0.4864" stop-color="#C841FF"/>
<stop offset="0.639" stop-color="#A910FF"/>
<stop offset="0.6844" stop-color="#9F00FF"/>
<stop offset="0.7432" stop-color="#9900F8"/>
<stop offset="0.8282" stop-color="#8700E5"/>
<stop offset="0.9287" stop-color="#6A00C6"/>
<stop offset="1" stop-color="#5200AB"/>
</radialGradient>
<radialGradient id="paint26_radial_4886_141660" cx="0" cy="0" r="1" gradientUnits="userSpaceOnUse" gradientTransform="translate(2026.3 275.441) scale(73.7321 73.7321)">
<stop offset="0.00558659" stop-color="#FF9AFF"/>
<stop offset="0.0930098" stop-color="#FB94FF"/>
<stop offset="0.2093" stop-color="#F183FF"/>
<stop offset="0.3418" stop-color="#E068FF"/>
<stop offset="0.4864" stop-color="#C841FF"/>
<stop offset="0.639" stop-color="#A910FF"/>
<stop offset="0.6844" stop-color="#9F00FF"/>
<stop offset="0.7432" stop-color="#9900F8"/>
<stop offset="0.8282" stop-color="#8700E5"/>
<stop offset="0.9287" stop-color="#6A00C6"/>
<stop offset="1" stop-color="#5200AB"/>
</radialGradient>
<radialGradient id="paint27_radial_4886_141660" cx="0" cy="0" r="1" gradientUnits="userSpaceOnUse" gradientTransform="translate(2036 267.642) scale(16.4868 16.4868)">
<stop offset="0.630208" stop-color="white"/>
<stop offset="1" stop-color="#EF9AFF"/>
</radialGradient>
<radialGradient id="paint28_radial_4886_141660" cx="0" cy="0" r="1" gradientUnits="userSpaceOnUse" gradientTransform="translate(2038.62 273.603) scale(5.73549 5.73548)">
<stop stop-color="white"/>
<stop offset="1" stop-color="#F7ABFF"/>
</radialGradient>
<radialGradient id="paint29_radial_4886_141660" cx="0" cy="0" r="1" gradientUnits="userSpaceOnUse" gradientTransform="translate(2035.09 273.072) scale(6.04378 6.04378)">
<stop stop-color="white"/>
<stop offset="1" stop-color="#F9D0FD"/>
</radialGradient>
<radialGradient id="paint30_radial_4886_141660" cx="0" cy="0" r="1" gradientUnits="userSpaceOnUse" gradientTransform="translate(2030.82 267.251) scale(13.9609 13.9609)">
<stop stop-color="white"/>
<stop offset="1" stop-color="#F7C2FC"/>
</radialGradient>
<radialGradient id="paint31_radial_4886_141660" cx="0" cy="0" r="1" gradientUnits="userSpaceOnUse" gradientTransform="translate(2024.85 261.826) scale(23.6701 23.6701)">
<stop stop-color="white"/>
<stop offset="1" stop-color="#F5AEFE"/>
</radialGradient>
<radialGradient id="paint32_radial_4886_141660" cx="0" cy="0" r="1" gradientUnits="userSpaceOnUse" gradientTransform="translate(2033.62 265.575) scale(32.9812 32.9812)">
<stop offset="0.744792" stop-color="white"/>
<stop offset="0.9998" stop-color="#E886FF"/>
<stop offset="0.9999" stop-color="#ED8CFF"/>
</radialGradient>
<radialGradient id="paint33_radial_4886_141660" cx="0" cy="0" r="1" gradientUnits="userSpaceOnUse" gradientTransform="translate(2023.34 265.817) scale(55.7203 55.7203)">
<stop offset="0.84375" stop-color="#EEADFE"/>
<stop offset="1" stop-color="#B439EE"/>
</radialGradient>
<radialGradient id="paint34_radial_4886_141660" cx="0" cy="0" r="1" gradientUnits="userSpaceOnUse" gradientTransform="translate(2040.04 314.344) scale(43.9158 43.9158)">
<stop offset="0.572917" stop-color="#EEB9FF"/>
<stop offset="1" stop-color="#7801BD"/>
</radialGradient>
<radialGradient id="paint35_radial_4886_141660" cx="0" cy="0" r="1" gradientUnits="userSpaceOnUse" gradientTransform="translate(2022.75 331.286) scale(4.73969)">
<stop stop-color="#6D00C2"/>
<stop offset="0.3995" stop-color="#6600BC"/>
<stop offset="0.976" stop-color="#5300AC"/>
<stop offset="1" stop-color="#5200AB"/>
</radialGradient>
<radialGradient id="paint36_radial_4886_141660" cx="0" cy="0" r="1" gradientUnits="userSpaceOnUse" gradientTransform="translate(2099.4 303.728) scale(4.95059 4.9506)">
<stop stop-color="#1F0081"/>
<stop offset="0.73" stop-color="#260087"/>
<stop offset="1" stop-color="#2A008B"/>
</radialGradient>
<linearGradient id="paint37_linear_4886_141660" x1="2348.34" y1="624.816" x2="2386.74" y2="598.244" gradientUnits="userSpaceOnUse">
<stop stop-color="#D33D8E"/>
<stop offset="1" stop-color="#2FEEFF"/>
</linearGradient>
<linearGradient id="paint38_linear_4886_141660" x1="2348.34" y1="597.419" x2="2386.74" y2="570.847" gradientUnits="userSpaceOnUse">
<stop stop-color="#D33D8E"/>
<stop offset="1" stop-color="#2FEEFF"/>
</linearGradient>
<linearGradient id="paint39_linear_4886_141660" x1="2376.44" y1="629.735" x2="2414.84" y2="603.163" gradientUnits="userSpaceOnUse">
<stop stop-color="#D33D8E"/>
<stop offset="1" stop-color="#2FEEFF"/>
</linearGradient>
<clipPath id="clip0_4886_141660">
<rect width="2560" height="1360" fill="white"/>
</clipPath>
</defs>
</svg>
