<svg width="100" height="100" viewBox="0 0 100 100" fill="none" xmlns="http://www.w3.org/2000/svg">
<path d="M50.0389 19.1728L63.3991 11.4593V26.8864L50.0389 34.5999V19.1728Z" fill="#6EB68C"/>
<path d="M36.625 11.4324L49.9852 19.1459V34.573L36.625 26.8595V11.4324Z" fill="#406A54"/>
<path d="M10.013 42.2921L23.3732 50.0056L23.3732 65.4326L10.013 57.7191L10.013 42.2921Z" fill="#3E6851"/>
<path d="M90 42.2413L76.7036 49.918V65.345L90 57.6683V42.2413Z" fill="#3E6851"/>
<path d="M23.3268 65.4077L36.6869 57.6942V73.168L23.3268 80.8815V65.4077Z" fill="#6DB38C"/>
<path d="M76.7763 65.3201L63.4161 57.6066V73.0804L76.7763 80.7939V65.3201Z" fill="#6DB38C"/>
<path d="M23.3602 34.5736V19.1466L36.7204 11.433V26.7829L50.0138 19.108V34.6121L36.7204 42.2871V57.7141L23.3602 65.4276L23.3602 50.0006L10 57.7141L10 42.2871L23.3602 34.5736Z" fill="#87C49F"/>
<path d="M63.3453 26.8986V11.4716L76.7055 19.1851V34.535L89.9989 42.21V57.7141L76.7055 50.0392V65.4662L63.3453 57.7527V42.3257L49.9852 34.6121V19.1851L63.3453 26.8986Z" fill="#EAFFEB"/>
<path d="M50.0812 65.427L63.4414 57.7135L76.8016 65.427L63.5082 73.102L76.8016 80.7769L63.3746 88.529L50.0812 80.8541L36.721 88.5676L23.3608 80.8541L36.721 73.1405L23.3608 65.427L36.721 57.7135L50.0812 65.427Z" fill="#3E6851"/>
<path d="M50.0478 34.573L63.4401 42.305L50.0799 50.0185L36.6876 42.2865L50.0478 34.573Z" fill="#3D6952"/>
<path d="M50.0796 50.0017L63.4398 42.2882V57.7152L50.0796 65.4288V50.0017Z" fill="#6EB38A"/>
<path d="M36.6876 42.2865L50.0799 50.0185L50.0796 65.4454L36.6876 57.7135V42.2865Z" fill="#DCF2DD"/>
</svg>
