<svg id="eBktMeOgVby1" xmlns="http://www.w3.org/2000/svg" xmlns:xlink="http://www.w3.org/1999/xlink" viewBox="0 0 240 172.29" shape-rendering="geometricPrecision" text-rendering="geometricPrecision" project-id="8dbdcd4139654c369c48f55b5e2bcb84" export-id="2c4a68d48fea48f2a810e67e6b45adb9" cached="false">
<style><![CDATA[
#eBktMeOgVby15_to {animation: eBktMeOgVby15_to__to 4000ms linear infinite normal forwards}@keyframes eBktMeOgVby15_to__to { 0% {transform: translate(35.626275px,79.211151px)} 37.5% {transform: translate(35.626275px,69.215358px)} 75% {transform: translate(35.626275px,59.215358px)} 100% {transform: translate(35.626275px,59.215358px)}} #eBktMeOgVby15 {animation: eBktMeOgVby15_c_o 4000ms linear infinite normal forwards}@keyframes eBktMeOgVby15_c_o { 0% {opacity: 0} 37.5% {opacity: 1} 75% {opacity: 0} 100% {opacity: 0}} #eBktMeOgVby16_to {animation: eBktMeOgVby16_to__to 4000ms linear infinite normal forwards}@keyframes eBktMeOgVby16_to__to { 0% {transform: translate(40.828028px,86.479801px)} 17.5% {transform: translate(40.828028px,86.479801px)} 37.5% {transform: translate(40.828028px,81.479801px)} 100% {transform: translate(40.828028px,72.479801px)}} #eBktMeOgVby16 {animation: eBktMeOgVby16_c_o 4000ms linear infinite normal forwards}@keyframes eBktMeOgVby16_c_o { 0% {opacity: 0} 17.5% {opacity: 0} 37.5% {opacity: 1} 100% {opacity: 0}} #eBktMeOgVby17_to {animation: eBktMeOgVby17_to__to 4000ms linear infinite normal forwards}@keyframes eBktMeOgVby17_to__to { 0% {transform: translate(25.155388px,80.158051px)} 12.5% {transform: translate(25.155388px,80.158051px)} 37.5% {transform: translate(25.155388px,74.154258px)} 87.5% {transform: translate(25.155388px,64.154258px)} 100% {transform: translate(25.155388px,64.154258px)}} #eBktMeOgVby17 {animation: eBktMeOgVby17_c_o 4000ms linear infinite normal forwards}@keyframes eBktMeOgVby17_c_o { 0% {opacity: 0} 12.5% {opacity: 0} 37.5% {opacity: 1} 87.5% {opacity: 0} 100% {opacity: 0}}
]]></style>
<g transform="translate(0-.655507)"><path d="M0.501221,119.491c0-.331.267484-.598.597439-.598h122.52734c1.65,0,2.987,1.337,2.987,2.987v11.714c0,1.65-1.337,2.987-2.987,2.987h-123.124779v-17.09Z" fill="#3913b8"/><path d="M19.9749,110.773L0.159668,115.518h239.700332v-4.745h-219.8851Z" fill="#9f8aff"/><path d="M239.478,143.122h-90.426v29.825h90.426v-29.825Z" fill="#3913b8"/><path d="M0.000024,139.807h239.999976m0-24.14h-240h240Z" fill="none" stroke="#005b9d" stroke-width="1.5"/><path d="M129.012,121.88c0-1.65,1.337-2.987,2.987-2.987h107.479v17.688h-107.479c-1.65,0-2.987-1.337-2.987-2.987v-11.714Z" fill="#3913b8"/><path d="M199.462,126.687h-10.012c-.673,0-1.219.546-1.219,1.219s.546,1.219,1.219,1.219h10.012c.673,0,1.219-.546,1.219-1.219s-.546-1.219-1.219-1.219Z" fill-opacity="0.27"/><path d="M199.558,126.687h-10.351c-.579,0-1.049.47-1.049,1.05s.47,1.05,1.049,1.05h10.351c.579,0,1.049-.47,1.049-1.05s-.47-1.05-1.049-1.05Z" fill="#9f8aff"/><path d="M199.558,156.984h-10.351c-.579,0-1.049.47-1.049,1.05c0,.579.47,1.049,1.049,1.049h10.351c.579,0,1.049-.47,1.049-1.049c0-.58-.47-1.05-1.049-1.05Z" fill="#9f8aff"/><path d="M69.0237,143.122h-68.522479v29.825h68.522479v-29.825Z" fill="#3913b8"/><path d="M39.9383,156.984h-10.3503c-.5797,0-1.0497.47-1.0497,1.05c0,.579.47,1.049,1.0497,1.049h10.3503c.5797,0,1.0497-.47,1.0497-1.049c0-.58-.47-1.05-1.0497-1.05Z" fill="#9f8aff"/><path d="M41.4889,113.376c0,.344-5.9998.333-10.5984.333s-5.4667.011-5.4667-.333c0-.345.868-.624,5.4667-.624c4.5989,0,10.5984.279,10.5984.624Z" fill-opacity="0.5"/><path d="M27.8359,98.7617c-.9916,0-1.8011.8057-1.7108,1.7933.4998,5.468,3.2641,12.59,10.5344,12.59c7.6816,0,10.2904-7.122,10.754-12.59.0839-.9879-.7259-1.7933-1.7177-1.7933h-17.8599Z" clip-rule="evenodd" fill="#3913b8" fill-rule="evenodd"/><g id="eBktMeOgVby15_to" transform="translate(35.626275,79.211151)"><path id="eBktMeOgVby15" d="M28.273,63.5764c-.6518-5.5332,6.8417-8.2803,9.9391-10.2351-1.1727,1.9548-6.9616,5.0618-5.9696,9.2427c1.0888,4.5872,8.8398.7743,11.0064,4.9618c2.831,5.4717-7.6571,8.7519-9.2063,14.7147-1.4724,5.6676,4.1695,14.8205,4.1695,14.8205s-10.2007-9.9896-10.6608-13.9279c-.6518-5.578,9.5338-6.0148,8.5704-11.5477-.7522-4.3198-7.3358-3.6742-7.8487-8.029Z" transform="translate(-35.626275,-75.211151)" opacity="0" fill="#b5cdfb"/></g><g id="eBktMeOgVby16_to" transform="translate(40.828028,86.479801)"><path id="eBktMeOgVby16" d="M37.4249,83.5881c-.2569-2.1803,3.9473-4.7911,5.1675-5.5612-.4621.7701-3.3943,3.9138-3.0033,5.5612.4293,1.8079,3.6999,1.4261,4.5537,3.0763.8131,1.571-3.6172,8.2683-3.6172,8.2683s.7011-2.8391,0-6.8658c-.2967-1.7021-2.8988-2.7626-3.1007-4.4788Z" transform="translate(-40.828028,-86.479801)" opacity="0" fill="#b5cdfb"/></g><g id="eBktMeOgVby17_to" transform="translate(25.155388,80.158051)"><path id="eBktMeOgVby17" d="M28.5434,75.8109c.2569-2.1804-3.9472-4.7912-5.1678-5.5616.4622.7704,3.3944,3.9141,3.0034,5.5616-.429,1.8078-3.6999,1.4258-4.5537,3.0759-.8129,1.5713,5.8037,9.18,5.8037,9.18s-2.8875-3.7504-2.1863-7.7772c.2964-1.7021,2.8986-2.7626,3.1007-4.4787Z" transform="translate(-25.155388,-79.158051)" opacity="0" fill="#b5cdfb"/></g><path d="M161.996,99.6215h-25.887v11.0225h25.887v-11.0225Z" fill="#3913b8"/><path d="M136.109,99.6215h25.887v1.2895l-25.887,2.145v-3.4345Z" fill-opacity="0.5"/><path d="M189.875,110.643h-81.646v2.933h81.646v-2.933Z" fill="#3913b8"/><path d="M210.032,35.8218h-121.961c-1.9798,0-3.5847,1.6049-3.5847,3.5846v56.6307c0,1.9798,1.6049,3.5847,3.5847,3.5847h121.961c1.98,0,3.585-1.6049,3.585-3.5847v-56.6307c0-1.9797-1.605-3.5846-3.585-3.5846Z" fill="#3913b8"/><path d="M205.743,38.8655h-113.383c-1.9797,0-3.5846,1.6049-3.5846,3.5846v50.5428c0,1.9797,1.6049,3.5846,3.5846,3.5846h113.383c1.98,0,3.585-1.6049,3.585-3.5846v-50.5428c0-1.9797-1.605-3.5846-3.585-3.5846Z" fill="#fff"/><path d="M169.806,44.637h-70.1049c-1.5127,0-2.7389,1.2262-2.7389,2.7389v31.2362c0,1.5126,1.2262,2.7389,2.7389,2.7389h70.1049c1.512,0,2.739-1.2263,2.739-2.7389v-31.2362c0-1.5127-1.227-2.7389-2.739-2.7389Z" fill="#b5cdfb"/><path d="M172.545,75.7351v2.8773c0,1.5127-1.227,2.739-2.739,2.739h-70.1049c-1.5127,0-2.7389-1.2263-2.7389-2.739v-2.8773h75.5828Z" fill-opacity="0.14"/><path d="M138.996,57.978h-11.986c-.867,0-1.57.7028-1.57,1.5697v7.1459c0,.8669.703,1.5696,1.57,1.5696h11.986c.867,0,1.569-.7027,1.569-1.5696v-7.1459c0-.8669-.702-1.5697-1.569-1.5697Z" fill="#3913b8"/><path d="M135.516,62.7883c.256.1479.256.5174,0,.6653l-3.482,2.0098c-.256.1478-.576-.0368-.576-.3325v-4.0202c0-.2954.32-.4803.576-.3325l3.482,2.0101Z" fill="#b5cdfb"/><path d="M172.545,83.9769h-75.5828v1.9911h75.5828v-1.9911Z" fill-opacity="0.14"/><path d="M172.545,88.3011h-75.5828v8.2762h75.5828v-8.2762Z" fill-opacity="0.14"/><path d="M188.422,44.637h-8.34c-.648,0-1.173.5255-1.173,1.1738v5.6003c0,.6483.525,1.1738,1.173,1.1738h8.34c.648,0,1.173-.5255,1.173-1.1738v-5.6003c0-.6483-.525-1.1738-1.173-1.1738Z" fill="#b5cdfb"/><path d="M201.387,44.637h-8.339c-.648,0-1.174.5255-1.174,1.1738v5.6003c0,.6483.526,1.1738,1.174,1.1738h8.339c.648,0,1.174-.5255,1.174-1.1738v-5.6003c0-.6483-.526-1.1738-1.174-1.1738Z" fill="#b5cdfb"/><path d="M188.422,54.8632h-8.34c-.648,0-1.173.5255-1.173,1.1738v5.6003c0,.6483.525,1.1738,1.173,1.1738h8.34c.648,0,1.173-.5255,1.173-1.1738v-5.6003c0-.6483-.525-1.1738-1.173-1.1738Z" fill="#b5cdfb"/><path d="M201.387,54.8632h-8.339c-.648,0-1.174.5255-1.174,1.1738v5.6003c0,.6483.526,1.1738,1.174,1.1738h8.339c.648,0,1.174-.5255,1.174-1.1738v-5.6003c0-.6483-.526-1.1738-1.174-1.1738Z" fill="#b5cdfb"/><path d="M188.422,65.0894h-8.34c-.648,0-1.173.5255-1.173,1.1737v5.6004c0,.6483.525,1.1738,1.173,1.1738h8.34c.648,0,1.173-.5255,1.173-1.1738v-5.6004c0-.6482-.525-1.1737-1.173-1.1737Z" fill="#b5cdfb"/><path d="M201.387,65.0894h-8.339c-.648,0-1.174.5255-1.174,1.1737v5.6004c0,.6483.526,1.1738,1.174,1.1738h8.339c.648,0,1.174-.5255,1.174-1.1738v-5.6004c0-.6482-.526-1.1737-1.174-1.1737Z" fill="#b5cdfb"/><path d="M188.422,75.3153h-8.34c-.648,0-1.173.5255-1.173,1.1738v5.6003c0,.6483.525,1.1738,1.173,1.1738h8.34c.648,0,1.173-.5255,1.173-1.1738v-5.6003c0-.6483-.525-1.1738-1.173-1.1738Z" fill="#b5cdfb"/><path d="M201.387,75.3153h-8.339c-.648,0-1.174.5255-1.174,1.1738v5.6003c0,.6483.526,1.1738,1.174,1.1738h8.339c.648,0,1.174-.5255,1.174-1.1738v-5.6003c0-.6483-.526-1.1738-1.174-1.1738Z" fill="#b5cdfb"/><path d="M188.422,85.5422h-8.34c-.648,0-1.173.5256-1.173,1.1738v5.6004c0,.6482.525,1.1738,1.173,1.1738h8.34c.648,0,1.173-.5256,1.173-1.1738v-5.6004c0-.6482-.525-1.1738-1.173-1.1738Z" fill="#b5cdfb"/><path d="M201.387,85.5422h-8.339c-.648,0-1.174.5256-1.174,1.1738v5.6004c0,.6482.526,1.1738,1.174,1.1738h8.339c.648,0,1.174-.5256,1.174-1.1738v-5.6004c0-.6482-.526-1.1738-1.174-1.1738Z" fill="#b5cdfb"/><path d="M185.916,48.3905c.169.098.169.3426,0,.4403l-2.305,1.3308c-.169.0977-.381-.0245-.381-.2204v-2.661c0-.1957.212-.3182.381-.2202l2.305,1.3305Z" fill="#3913b8"/><path d="M198.881,48.3905c.17.098.17.3426,0,.4403l-2.305,1.3308c-.169.0977-.381-.0245-.381-.2204v-2.661c0-.1957.212-.3182.381-.2202l2.305,1.3305Z" fill="#3913b8"/><path d="M185.916,58.6176c.169.0977.169.3423,0,.4403l-2.305,1.3305c-.169.098-.381-.0245-.381-.2201v-2.661c0-.196.212-.3182.381-.2205l2.305,1.3308Z" fill="#3913b8"/><path d="M198.881,58.6176c.17.0977.17.3423,0,.4403l-2.305,1.3305c-.169.098-.381-.0245-.381-.2201v-2.661c0-.196.212-.3182.381-.2205l2.305,1.3308Z" fill="#3913b8"/><path d="M185.916,68.8433c.169.0979.169.3426,0,.4406l-2.305,1.3305c-.169.0977-.381-.0245-.381-.2202v-2.6613c0-.1956.212-.3178.381-.2201l2.305,1.3305Z" fill="#3913b8"/><path d="M198.881,68.8433c.17.0979.17.3426,0,.4406l-2.305,1.3305c-.169.0977-.381-.0245-.381-.2202v-2.6613c0-.1956.212-.3178.381-.2201l2.305,1.3305Z" fill="#3913b8"/><path d="M185.916,79.0695c.169.0979.169.3426,0,.4406l-2.305,1.3305c-.169.0977-.381-.0245-.381-.2202v-2.6613c0-.1957.212-.3178.381-.2201l2.305,1.3305Z" fill="#3913b8"/><path d="M198.881,79.0695c.17.0979.17.3426,0,.4406l-2.305,1.3305c-.169.0977-.381-.0245-.381-.2202v-2.6613c0-.1957.212-.3178.381-.2201l2.305,1.3305Z" fill="#3913b8"/><path d="M185.916,89.2963c.169.0977.169.3423,0,.4403l-2.305,1.3305c-.169.098-.381-.0245-.381-.2201v-2.661c0-.196.212-.3182.381-.2202l2.305,1.3305Z" fill="#3913b8"/><path d="M198.881,89.2955c.17.0976.17.3423,0,.4403l-2.305,1.3305c-.169.098-.381-.0245-.381-.2202v-2.661c0-.196.212-.3181.381-.2202l2.305,1.3306Z" fill="#3913b8"/><g opacity="0.65"><path d="M98.6587,75.7351h72.4073" opacity="0.65" fill="none" stroke="#000" stroke-width="1.5" stroke-opacity="0.3" stroke-linecap="round"/><path d="M98.7319,75.7351h21.4941" opacity="0.65" fill="none" stroke="#005b9d" stroke-width="2.25" stroke-linecap="round"/></g><path d="M31.0782,99.7421c1.0709,2.9799,2.2652,6.3029,5.236,8.9249c1.6179,1.428,3.5231,2.199,5.1789,2.87.1422.057.2823.114.4203.171-1.407.897-3.138,1.437-5.2539,1.437-7.2703,0-10.0346-7.122-10.5344-12.59-.0903-.9876.7192-1.7933,1.7108-1.7933h2.8874c.1183.3217.236.6491.3549.9804Z" fill-opacity="0.2"/><g opacity="0.7"><path d="M50.115,40.7547c5.0413-1.4123,7.9833-6.644,6.571-11.6853s-6.644-7.9833-11.6853-6.571-7.9833,6.644-6.571,11.6853s6.644,7.9833,11.6853,6.571Z" opacity="0.7" fill="#9f8aff"/><path d="M43.1748,34.6085c0,0,2.5003,3.4688,5.9213,2.5105c3.7471-1.0497,3.7552-5.2211,3.7552-5.2211s-2.0555,2.9935-4.2102,3.597c-2.155.6037-5.4663-.8864-5.4663-.8864Z" opacity="0.7" clip-rule="evenodd" fill-rule="evenodd"/><path d="M44.3929,31.4016c.5271-.1477.8347-.6947.6871-1.2218s-.6947-.8347-1.2218-.687-.8347.6946-.687,1.2217.6946.8347,1.2217.6871Z" opacity="0.7"/><path d="M50.1454,29.7902c.5271-.1476.8347-.6946.687-1.2217-.1476-.5271-.6946-.8347-1.2217-.6871s-.8347.6947-.6871,1.2218c.1477.5271.6947.8347,1.2218.687Z" opacity="0.7"/></g><g opacity="0.7"><path d="M24.3604,13.2109c1.7454.5874,3.6364-.3513,4.2238-2.0966s-.3513-3.6364-2.0966-4.22381-3.6364.35129-4.2238,2.09662.3513,3.63639,2.0966,4.22379Z" opacity="0.7" fill="#9f8aff"/><path d="M23.5603,10.05c0,0,.0402,1.5035,1.2246,1.9021c1.2972.4367,2.1254-.7746,2.1254-.7746s-1.1902.4634-1.9362.2123c-.746-.251-1.4138-1.3398-1.4138-1.3398Z" opacity="0.7" clip-rule="evenodd" fill-rule="evenodd"/><path d="M24.5487,9.3581c.1825.06142.3802-.03672.4416-.21921s-.0367-.38021-.2192-.44163-.3802.03673-.4416.21922.0367.38021.2192.44162Z" opacity="0.7"/><path d="M26.5394,10.029c.1825.0614.3802-.03673.4416-.21921s-.0367-.38021-.2192-.44163-.3802.03673-.4416.21922.0367.38021.2192.44162Z" opacity="0.7"/></g><g opacity="0.6"><path d="M91.906,12.5299c3.2733.282,6.1554-2.143,6.4373-5.41626.282-3.27329-2.143-6.155389-5.4162-6.437344s-6.1554,2.143004-6.4374,5.416294c-.2819,3.27329,2.143,6.15541,5.4163,6.43731Z" opacity="0.6" fill="#9f8aff"/><path d="M89.1838,7.38904c0,0,.7041,2.58931,2.9251,2.78066c2.4331.2095,3.3576-2.23947,3.3576-2.23947s-1.8676,1.30541-3.2668,1.18488c-1.3989-.12051-3.0159-1.72607-3.0159-1.72607Z" opacity="0.6" clip-rule="evenodd" fill-rule="evenodd"/><path d="M90.6067,5.77248c.3422.02948.6436-.22407.673-.56631s-.224-.64358-.5663-.67306c-.3422-.02948-.6435.22407-.673.56631s.224.64358.5663.67306Z" opacity="0.6"/><path d="M94.342,6.09474c.3423.02948.6436-.22406.6731-.5663s-.2241-.64358-.5663-.67306c-.3423-.02948-.6436.22406-.6731.5663s.2241.64358.5663.67306Z" opacity="0.6"/></g><g opacity="0.5"><path d="M12.9059,57.0198c2.4492-.6055,3.9437-3.0819,3.3381-5.5311s-3.0819-3.9437-5.5311-3.3381-3.94367,3.0819-3.3381,5.5311s3.0819,3.9437,5.5311,3.3381Z" opacity="0.5" fill="#9f8aff"/><path d="M9.65479,53.9564c0,0,1.15291,1.7078,2.81481,1.297c1.8204-.4501,1.8861-2.4593,1.8861-2.4593s-1.0343,1.4114-2.0812,1.6701c-1.0469.259-2.61971-.5078-2.61971-.5078Z" opacity="0.5" clip-rule="evenodd" fill-rule="evenodd"/><path d="M10.2891,52.4296c.2561-.0633.4124-.3222.3491-.5783s-.3223-.4123-.5783-.349c-.25612.0633-.41238.3222-.34907.5783s.32227.4123.57827.349Z" opacity="0.5"/><path d="M13.0824,51.7391c.256-.0633.4123-.3223.349-.5783-.0633-.2561-.3223-.4124-.5783-.3491s-.4124.3223-.3491.5784.3223.4123.5784.349Z" opacity="0.5"/></g><path d="M118.257,30.7397c2.38.8362,4.988-.4156,5.824-2.7959s-.416-4.9878-2.796-5.824-4.988.4155-5.824,2.7959c-.836,2.3803.416,4.9878,2.796,5.824Z" fill="#9f8aff"/><path d="M117.217,26.3948c0,0,.028,2.0603,1.643,2.6278c1.769.6217,2.925-1.0228,2.925-1.0228s-1.638.6133-2.656.256c-1.017-.3576-1.912-1.861-1.912-1.861Z" clip-rule="evenodd" fill-rule="evenodd"/><path d="M118.584,25.4658c.249.0874.522-.0434.609-.2923.088-.2489-.043-.5215-.292-.6089s-.521.0434-.609.2923c-.087.2489.044.5215.292.6089Z"/><path d="M121.3,26.4192c.249.0874.522-.0435.609-.2923s-.043-.5215-.292-.609-.522.0435-.609.2923c-.088.2489.043.5216.292.609Z"/><path d="M159.499,10.9522c2.518-.1659,4.424-2.34118,4.258-4.85865s-2.341-4.42377-4.859-4.25786c-2.517.16592-4.423,2.34123-4.257,4.85869.165,2.51747,2.341,4.42382,4.858,4.25782Z" fill="#9f8aff"/><path d="M156.837,7.36546c0,0,.835,1.88383,2.543,1.77124c1.871-.12334,2.288-2.0897,2.288-2.0897s-1.265,1.20773-2.342,1.27864c-1.076.07092-2.489-.96018-2.489-.96018Z" clip-rule="evenodd" fill-rule="evenodd"/><path d="M157.729,5.97378c.263-.01735.462-.24479.445-.508-.018-.26322-.245-.46254-.508-.44519s-.463.24479-.445.50801c.017.26321.244.46253.508.44518Z"/><path d="M160.601,5.78457c.264-.01735.463-.24479.446-.508-.018-.26322-.245-.46254-.508-.44519-.264.01735-.463.24479-.446.50801.018.26321.245.46253.508.44518Z"/><path d="M115.672,69.0283c2.395.7938,4.98-.5042,5.774-2.899s-.504-4.9796-2.899-5.7734c-2.395-.7937-4.98.5042-5.774,2.899-.793,2.3948.505,4.9796,2.899,5.7734Z" fill="#9f8aff"/><path d="M114.557,64.7025c0,0,.064,2.0597,1.689,2.5983c1.78.59,2.907-1.0748,2.907-1.0748s-1.628.6425-2.651.3032c-1.024-.3394-1.945-1.8267-1.945-1.8267Z" clip-rule="evenodd" fill-rule="evenodd"/><path d="M115.906,63.749c.251.083.521-.0527.604-.3031s-.053-.5206-.303-.6036c-.251-.083-.521.0527-.604.3031s.053.5206.303.6036Z"/><path d="M118.638,64.6552c.251.083.521-.0528.604-.3031s-.053-.5207-.303-.6037c-.251-.083-.521.0527-.604.3031s.053.5207.303.6037Z"/><path d="M211.789,113.529c.037.18-3.618.18-8.217.18s-5.467.011-5.467-.333c0-.345.868-.624,5.467-.624s8.097.19,8.217.777Z" fill-opacity="0.37"/><path d="M201.185,113.462c-.569-.006-1.07-.415-1.096-.984-.127-2.797,1.718-4.389,4.433-4.389c3.631,0,7.377,2.129,7.377,4.812c0,.393-.35.673-.743.668l-9.971-.107Z" clip-rule="evenodd" fill="#b5cdfb" fill-rule="evenodd"/><path d="M109.223,60.0862c.352-.4573-.733-3.7955-1.319-5.4077l-.748,6.3311c.543-.1174,1.715-.466,2.067-.9234Z" fill="#3913b8"/><path d="M105.468,69.4787c2.847-2.9496,3.93-16.2549,3.082-22.103L88.4638,49.1555c-1.229,6.1868-1.7837,8.5969,1.7759,13.0718c4.4494,5.5935,11.6683,10.9379,15.2283,7.2514Z" fill="#3913b8"/><path d="M102.017,77.9993c-2.8507-1.9739-2.193-8.3155-1.508-11.2397-4.0569-4.0572-9.0919.1371-11.1023,2.7414l1.2338,12.6105c4.9799-.5484,14.2275-2.1385,11.3765-4.1122Z" fill="#3913b8"/><path d="M98.6079,68.3085c0,0,3.9361-4.3055,3.0371-5.6766-.407-.6202-1.248-4.5412.633-6.5328c3.126.3286,6.198-1.8302,6.848-3.6859-1.242.357-11.2521,3.1049-11.4576,3.9276-.2572,1.0282-.6856,2.3136-.8997,2.785-.2142.4711-2.0994,10.1541-2.3563,10.7539-.2059.4798-.4287,3.9417-.5145,5.6127c1.4426.8424,7.3151.7722,6.0999.4893-4.059-.9451-1.3899-7.6732-1.3899-7.6732Z" fill-opacity="0.36"/><path d="M136.603,116.041c0,23.391-24.862,36.924-43.2826,36.924-18.4212,0-36.8099-6.71-36.8099-30.101c0-23.3912,20.0887-41.5295,38.5099-41.5295c18.4216,0,35.3626,11.6934,41.5826,34.7065Z" fill="#3913b8"/><path d="M147.099,123.275c-.887-8.17-20.362-32.2244-33.918-37.5593l.827,8.6277c5.645,15.5036,16.251,38.1966,20.849,41.0716c5.748,3.593,12.99-5.24,12.242-12.14Z" fill="#3913b8"/><path d="M78.8145,76.1884L103.252,75.53c1.26,1.266,3.451,5.9126,3.21,6.8416-.399,1.5394-28.823,6.749-31.8559,1.8097-1.4291-2.3276,2.5645-7.9929,4.2084-7.9929Z" fill="#b5cdfb"/><path d="M81.8033,84.2754c11.5453-.6085,22.7237.0881,21.9117,2.3999-1.438,4.0916-4.4619,8.1521-15.6304,10.806l7.5582,1.358c0,0,2.9618.2147,4.3294.3133c18.2828,1.3184,23.3838,1.6864,28.7338,4.7734c6.937,4.002,16.144,10.726,13.048,30.63-.013.078-.025.156-.039.234-2.137,1.535-4.612,2.029-6.858.624-.785-.49-1.743-1.556-2.822-3.065-2.533,4.178-5.966,7.77-9.905,10.731-8.493-1.265-17.381-4.589-21.42-6.099-1.2301-.461-2.0104-.753-2.1923-.767-1.1501-.088-26.4282-14.411-38.9234-21.562l-1.8323-1.797c4.631-17.3608,17.957-26.2869,24.0413-28.5796Z" fill-opacity="0.36"/><path d="M51.7691,130.902c-3.2781-14.91,8.0739-29.029,23.3403-29.029h41.9926c12.553,0,22.966,9.712,23.84,22.234l3.382,48.453h-83.3964l-9.1585-41.658Z" fill="#b5cdfb"/><path d="M45.9353,129.922c-2.5812-14.633,8.6755-28.049,23.5345-28.049h37.4732c12.424,0,22.776,9.521,23.814,21.902l4.121,49.172h-81.3528l-7.5899-43.025Z" fill="#9f8aff"/><path d="M97.1134,65.4589c-1.4607,8.0586-2.1454,11.8362,6.0956,19.2531-2.159,3.4159-2.53,7.9409-12.4081,10.3412-7.4149,1.8019-14.5594-2.5293-14.5594-2.5293s1.1053-1.6179,1.5533-2.7772c.4768-1.2328.7343-3.3042.7343-3.3042s-4.6353,5.6321-5.987,4.6649-2.7378-2.2076-4.1883-3.7744c19.4377-12.7154-7.4964-41.8762,16.628-44.6982c3.1177-6.24,12.1678-7.2342,17.0582-7.2342c3.702,0,8.639,2.7014,9.135,8.2543s-.174,10.595-7.295,11.0153c-4.3015.254-5.3381,2.903-6.7304,10.5894l-.0362.1993Z" fill="#9f8aff"/><path d="M83.1826,101.873c-5.8567,2.536-11.5712,7.965-6.8087,16.597c3.648,6.612,1.5453,13.464,0,19.896-1.6024,6.668-3.0712,12.781,1.6564,17.391c5.7919,5.647,16.8512,12.601,24.8197,17.19h-49.325l-7.5896-43.025c-2.5816-14.633,8.6752-28.049,23.5341-28.049h13.7131Z" fill-opacity="0.06"/><path d="M99.9648,65.4301c3.0222-4.0928-6.2337-7.7363,6.9992-13.116l-12.7526-.4457l2.1628,25.4791c-.5894-6.9434,1.1506-8.6136,3.5906-11.9174Z" fill="#9f8aff"/><path d="M100.343,58.4458c.26-2.6646,2.168-3.1303,2.834-2.9959c1.399.2826-.278,2.92-.35,4.4226-.103,2.1624.425,3.0428-.614,3.041-1.039-.0021-2.197-1.137-1.87-4.4677Z" fill="#3913b8"/><path d="M100.343,58.4458c.26-2.6646,2.168-3.1303,2.834-2.9959c1.399.2826-.278,2.92-.35,4.4226-.103,2.1624.425,3.0428-.614,3.041-1.039-.0021-2.197-1.137-1.87-4.4677Z" fill="#fff" fill-opacity="0.28"/></g></svg>
