<svg id="esNzOZ64jmq1" xmlns="http://www.w3.org/2000/svg" xmlns:xlink="http://www.w3.org/1999/xlink" viewBox="0 0 240 174.17" shape-rendering="geometricPrecision" text-rendering="geometricPrecision" project-id="6659c5eb38b6404fbdd14e06383ac82f" export-id="6d0975c00cc8487fa1a86db5600a9e97" cached="false">
<style><![CDATA[
#esNzOZ64jmq41_tr {animation: esNzOZ64jmq41_tr__tr 3000ms linear infinite normal forwards}@keyframes esNzOZ64jmq41_tr__tr { 0% {transform: translate(82.109646px,33.404078px) rotate(0deg)} 33.333333% {transform: translate(82.109646px,33.404078px) rotate(0deg)} 50% {transform: translate(82.109646px,33.404078px) rotate(-20deg)} 66.666667% {transform: translate(82.109646px,33.404078px) rotate(0deg)} 100% {transform: translate(82.109646px,33.404078px) rotate(0deg)}} #esNzOZ64jmq48_tr {animation: esNzOZ64jmq48_tr__tr 3000ms linear infinite normal forwards}@keyframes esNzOZ64jmq48_tr__tr { 0% {transform: translate(141.088249px,15.90609px) rotate(0deg)} 16.666667% {transform: translate(141.088249px,15.90609px) rotate(20deg)} 33.333333% {transform: translate(141.088249px,15.90609px) rotate(0deg)} 100% {transform: translate(141.088249px,15.90609px) rotate(0deg)}} #esNzOZ64jmq193_tr {animation: esNzOZ64jmq193_tr__tr 3000ms linear infinite normal forwards}@keyframes esNzOZ64jmq193_tr__tr { 0% {transform: translate(156.472038px,35.435129px) rotate(0deg)} 66.666667% {transform: translate(156.472038px,35.435129px) rotate(0deg)} 83.333333% {transform: translate(156.472038px,35.435129px) rotate(20deg)} 100% {transform: translate(156.472038px,35.435129px) rotate(0deg)}}
]]></style>
<g transform="translate(-.000061 0.002053)"><g opacity="0.4"><path d="M1.8871,100.214C6.74852,88.3822,25.7523,84.7853,33.8022,83.2711c44.2263-8.3615,68.8488,20.0039,91.7678,7.7615c12.911-6.8783,6.566-16.6277,26.769-33.5395c2.999-2.5243,14.047-11.5479,40.564-16.5963c21.151-4.0072,40.944-7.7932,46.089.4733c5.588,8.9922-13.795,20.0037-15.594,47.2016-1.294,19.5933,7.544,32.8453,1.894,36.8213-6.661,4.669-22.066-11.391-29.737-5.932-4.293,3.06-.316,9.718-3.82,14.987-9.47,14.167-39.87,4.764-91.7669,6.784-43.0586,1.672-53.8861,9.37-72.0692,0-16.8572-8.645-31.50459-27.608-26.0118-41.018Z" opacity="0.4" fill="#b5cdfb"/></g><path d="M46.8147,98.8512h-41.29077v4.1648h41.29077v-4.1648Z" fill="#9f8aff"/><path d="M31.9459,94.6552h-31.409767v4.1648h31.409767v-4.1648Z" fill="#9f8aff"/><path d="M16.2253,103.016h-15.689167v4.165h15.689167v-4.165Z" fill="#9f8aff"/><path d="M30.2733,98.6945h-30.2733v.3155h30.2733v-.3155Z" fill="#3913b8"/><path d="M17.2994,102.858h-8.93368v.316h8.93368v-.316Z" fill="#3913b8"/><path d="M5.68141,98.8512h-.31569v4.1648h.31569v-4.1648Z" fill="#3913b8"/><path d="M16.3835,94.6552h-.3156v4.1648h.3156v-4.1648Z" fill="#3913b8"/><path d="M26.3284,98.8512h-.3157v4.1648h.3157v-4.1648Z" fill="#3913b8"/><path d="M8.93366,107.024h-8.93366v.315h8.93366v-.315Z" fill="#3913b8"/><g opacity="0.4"><path d="M77.8051,172.904c33.4559,0,60.5779-1.949,60.5779-4.354s-27.122-4.354-60.5779-4.354c-33.4567,0-60.5785,1.949-60.5785,4.354s27.1218,4.354,60.5785,4.354Z" opacity="0.4" fill="#b5cdfb"/></g><g opacity="0.4"><path d="M218.943,172.02l-.189-.6c2.02-.631,4.262-.504,6.44-.347c1.957.126,3.819.221,5.524-.157l.158.599c-1.8.41-3.788.316-5.714.189-2.115-.126-4.293-.252-6.219.316Z" opacity="0.4" fill="#3913b8"/></g><g opacity="0.4"><path d="M235.01,173.535h-11.396v.631h11.396v-.631Z" opacity="0.4" fill="#3913b8"/></g><g opacity="0.4"><path d="M178.313,171.516c-8.965,0-11.08-1.042-11.869-1.452-2.021-.978-2.179-1.515-2.242-1.704-.063-.157-.031-.347.032-.473.284-.505,1.073-.536,3.472-.536.663,0,1.484-.032,2.4-.032c1.42-.031,2.872-.063,4.293-.063c1.168,0,2.336-.032,3.504-.063h.063c1.831-.032,3.378-.063,4.104.694.221.221.505.726.252,1.199-.473.82-2.336.852-4.293.789-1.768-.063-4.609-.473-4.956-.947-.063-.094-.095-.189-.063-.315.063-.347.126-.631,6.597-.41l-.031.631c-2.873-.095-4.388-.095-5.177-.032.852.189,2.241.41,3.693.473c2.81.095,3.567-.189,3.725-.473.095-.158-.158-.442-.158-.442-.536-.568-2.115-.536-3.661-.505h-.064c-1.168.032-2.336.032-3.504.064-1.42.031-2.872.031-4.293.063-.947.031-1.736.031-2.399.031-1.547.032-2.778.032-2.904.221c0,.095.379.568,1.925,1.325.884.442,3.568,1.767,17.015,1.263c1.231-.032,4.104-.158,7.293-1.168c2.051-.663,3.125-1.136,3.125-1.42-.063-.126-.695-.789-8.366-1.451-5.272-.442-10.764-.6-16.289-.505v-.631c5.556-.126,11.049.063,16.352.505c8.745.725,8.871,1.514,8.934,1.988.126.851-1.484,1.451-3.567,2.114-3.252,1.041-6.187,1.135-7.45,1.198-2.084.032-3.914.064-5.493.064Z" opacity="0.4" fill="#3913b8"/></g><g opacity="0.4"><path d="M117.132,160.87c-8.965,0-11.08-1.041-11.869-1.451-2.02-.978-2.178-1.514-2.241-1.704-.063-.157-.032-.347.031-.473.284-.505,1.074-.536,3.473-.536.663,0,1.483-.032,2.399-.032c1.421-.031,2.872-.063,4.293-.063c1.168,0,2.336-.032,3.504-.063h.063c1.831-.032,3.378-.063,4.104.694.284.284.505.757.253,1.199-.474.82-2.336.852-4.294.789-1.767-.063-4.609-.474-4.956-.947-.063-.094-.095-.189-.063-.315.063-.347.126-.631,6.598-.41l-.032.631c-2.873-.095-4.388-.095-5.177-.032.852.19,2.241.41,3.694.473c2.809.095,3.567-.189,3.724-.473.095-.158-.157-.442-.157-.442-.537-.568-2.115-.536-3.662-.504h-.063c-1.168.031-2.336.031-3.505.063-1.42.031-2.872.031-4.293.063-.947.031-1.736.031-2.43.031-1.547.032-2.778.032-2.905.221c0,.095.379.568,1.926,1.325.884.442,3.599,1.767,17.015,1.262c1.326-.063,4.104-.157,7.292-1.167c2.052-.662,3.126-1.136,3.126-1.42-.064-.126-.695-.789-8.366-1.451-5.272-.442-10.765-.6-16.289-.505v-.631c5.556-.126,11.049.063,16.352.505c8.744.726,8.871,1.514,8.934,1.988.126.852-1.484,1.451-3.567,2.114-3.252,1.041-6.188,1.135-7.45,1.198-2.052.032-3.883.063-5.462.063Z" opacity="0.4" fill="#3913b8"/></g><path d="M204.864,103.869h-41.07v2.808h41.07v-2.808Z" fill="#9f8aff"/><path d="M194.889,101.059h-21.087v2.809h21.087v-2.809Z" fill="#9f8aff"/><path d="M178.57,103.711h-5.998v.315h5.998v-.315Z" fill="#3913b8"/><path d="M177.303,103.869h-.316v2.808h.316v-2.808Z" fill="#3913b8"/><path d="M184.505,101.059h-.316v2.809h.316v-2.809Z" fill="#3913b8"/><path d="M191.166,103.869h-.316v2.808h.316v-2.808Z" fill="#3913b8"/><path d="M191.225,103.711h-2.809v.315h2.809v-.315Z" fill="#3913b8"/><g opacity="0.8"><path d="M43.8031,23.9792h-41.0697v2.8083h41.0697v-2.8083Z" opacity="0.8" fill="#b5cdfb"/><path d="M33.8269,21.1711h-21.0872v2.8082h21.0872v-2.8082Z" opacity="0.8" fill="#b5cdfb"/></g><g opacity="0.46"><g opacity="0.46"><path d="M226.109,47.2645h-75.447c0-8.1717,3.315-14.4193,8.649-18.6155c5.335-4.228,12.722-6.3735,20.898-6.3735h4.515l-.6-22.212516l3.157-.063106.599,22.244022h8.682c16.32,0,29.547,8.7085,29.547,25.0206Z" opacity="0.5" fill="#b5cdfb"/></g></g><path d="M109.435,57.1721c2.458,0,4.451-1.9919,4.451-4.4488c0-2.4572-1.993-4.4488-4.451-4.4488-2.459,0-4.451,1.9916-4.451,4.4488c0,2.4569,1.992,4.4488,4.451,4.4488Z" fill="#b5cdfb"/><path d="M81.4667,63.6079c1.9178,0,3.4726-1.5539,3.4726-3.4708c0-1.9168-1.5548-3.4705-3.4726-3.4705s-3.4726,1.5537-3.4726,3.4705c0,1.9169,1.5548,3.4708,3.4726,3.4708Z" fill="#9f8aff"/><path d="M81.4649,62.8827c-1.9886,0-3.6304-1.6407-3.6304-3.6283c0-1.9879,1.6418-3.6285,3.6304-3.6285c1.9889,0,3.6304,1.6406,3.6304,3.6285c0,1.9876-1.6102,3.6283-3.6304,3.6283Zm0-6.9099c-1.8308,0-3.3147,1.4832-3.3147,3.313c0,1.8301,1.4839,3.313,3.3147,3.313c1.831,0,3.3147-1.4829,3.3147-3.313c0-1.8298-1.4837-3.313-3.3147-3.313Z" fill="#3913b8"/><path d="M80.0776,58.2759c.1578.8519.3787,1.7037.5052,2.5556.0314.1264.1892.2208.284.1264.3788-.2525.7261-.7888,1.0418-1.0099.4735-.3786.9154-.7885,1.3889-1.1988.1265-.1264.0631-.3155-.1261-.3155-.5366-.0317-1.0732-.1578-1.5785-.2208-.284-.0634-.884-.0634-1.2627-.1578-.1579-.0317-.284.0944-.2526.2208Z" fill="#3913b8"/><g id="esNzOZ64jmq41_tr" transform="translate(82.109646,33.404078) rotate(0)"><g transform="translate(-82.109646,-33.404078)"><path d="M90.7442,40.0068l-.284-.2842c-.9471-.9149-2.6202-2.3348-3.1252-2.3348c0,0,0,0-.0317,0l-10.1647.8205c-.9471.0631-1.8941-.2525-2.5886-.8835-.6944-.6627-1.1049-1.5777-1.0732-2.5242l.0314-4.6382c0-.9466.4104-1.8615,1.1366-2.4926.6944-.6311,1.6732-.9466,2.6199-.8519l10.1334,1.0097c1.7677.1577,3.0938,1.6407,3.0621,3.4077l-.0317,2.8395c0,.9152.2843,5.5217.2843,5.5848l.0314.3472ZM87.335,37.0406c.6945,0,2.336,1.4516,3.0621,2.1457-.063-1.1674-.2843-4.4174-.2526-5.2059l.0317-2.8398c0-1.6093-1.1997-2.9345-2.7781-3.0922L77.2647,27.0388c-.8522-.0948-1.7359.1894-2.3673.7888-.6314.568-1.0101,1.4198-1.0101,2.2717l-.0317,4.6382c0,.8519.3474,1.7037.9787,2.2718.6311.5993,1.4837.8835,2.3674.8201l10.1647-.8201c-.0631.0313-.0631.0313-.0314.0313Z" fill="#3913b8"/><path d="M76.1597,34.2643h3.5356c.2526,0,.4419-.2839.3157-.5047-.2526-.5363-.8523-1.3252-1.9889-1.3252-1.4519,0-2.115.7572-2.2095,1.4513-.0316.2208.1262.3786.3471.3786Z" fill="#3913b8"/><path d="M77.9294,32.4668c.4708,0,.8523-.3813.8523-.8519c0-.4705-.3815-.8518-.8523-.8518s-.8523.3813-.8523.8518c0,.4706.3816.8519.8523.8519Z" fill="#3913b8"/><path d="M86.9269,31.2038h-4.6719c-.0948,0-.1578-.063-.1578-.1577c0-.0944.063-.1578.1578-.1578h4.6719c.0948,0,.1579.0634.1579.1578c0,.0947-.0631.1577-.1579.1577Z" fill="#3913b8"/><path d="M86.9269,32.5607h-4.6719c-.0948,0-.1578-.063-.1578-.1575c0-.0947.063-.1577.1578-.1577h4.6719c.0948,0,.1579.063.1579.1577c0,.0945-.0631.1575-.1579.1575Z" fill="#3913b8"/><path d="M86.9269,33.9182h-4.6719c-.0948,0-.1578-.0634-.1578-.1578c0-.0947.063-.1577.1578-.1577h4.6719c.0948,0,.1579.063.1579.1577c0,.0944-.0631.1578-.1579.1578Z" fill="#3913b8"/></g></g><g id="esNzOZ64jmq48_tr" transform="translate(141.088249,15.90609) rotate(0)"><g transform="translate(-141.088249,-15.90609)"><path d="M132.638,21.8975c-.126,0-.253-.0316-.347-.1262-.19-.1578-.221-.3787-.126-.5995c1.136-2.5873,1.767-4.3542,1.767-4.7959l-.031-2.8397c0-1.7669,1.294-3.2498,3.062-3.4076.094,0,7.576-.41016,11.175-.0946c1.42.1262,2.083,1.7038,1.894,4.291-.253,2.8712-1.515,6.2157-2.746,6.2473-.032,0-.032,0-.064,0l-10.165-.8204c-.126,0-.789.1262-4.135,2.114-.095.0316-.189.0316-.284.0316ZM144.57,10.2233c-3.535,0-7.513.2209-7.544.2209-1.578.1577-2.778,1.4829-2.778,3.092l.032,2.8397c0,.6626-.979,3.0605-1.8,4.9221-.031.0946,0,.1893.063.2524s.158.0946.253.0315c2.462-1.4513,3.914-2.177,4.325-2.1455l10.165.8204h.031c.947,0,2.21-3.0606,2.431-5.9318.094-1.1358.126-3.8178-1.579-3.9755-1.041-.0947-2.304-.1262-3.599-.1262Z" fill="#3913b8"/><path d="M145.046,17.6683c1.36,0,2.462-1.1019,2.462-2.461s-1.102-2.4611-2.462-2.4611-2.463,1.1019-2.463,2.4611s1.103,2.461,2.463,2.461Z" fill="#9f8aff"/><path d="M141.636,15.7761h-4.672c-.095,0-.158-.0631-.158-.1578s.063-.1577.158-.1577h4.672c.095,0,.158.0631.158.1577s-.063.1578-.158.1578Z" fill="#3913b8"/><path d="M141.636,14.4182h-4.672c-.095,0-.158-.0631-.158-.1578s.063-.1577.158-.1577h4.672c.095,0,.158.0631.158.1577s-.063.1578-.158.1578Z" fill="#3913b8"/></g></g><path d="M126.26,72.0948c.61,0,1.105-.4945,1.105-1.1043s-.495-1.1044-1.105-1.1044-1.105.4945-1.105,1.1044.495,1.1043,1.105,1.1043Z" fill="#3913b8"/><path d="M126.262,74.1782c-1.768,0-3.189-1.4199-3.189-3.1867c0-1.7671,1.421-3.1869,3.189-3.1869c1.767,0,3.188,1.4198,3.188,3.1869c0,1.7668-1.421,3.1867-3.188,3.1867Zm0-6.0264c-1.579,0-2.873,1.2938-2.873,2.8711c0,1.5776,1.294,2.8714,2.873,2.8714c1.578,0,2.872-1.2938,2.872-2.8714c0-1.5773-1.294-2.8711-2.872-2.8711Z" fill="#3913b8"/><path d="M117.389,29.0591h-16.668v-18.6786h16.668v18.6786Zm-16.352-.3155h16.036v-18.0476h-16.036v18.0476Z" fill="#3913b8"/><path d="M119.504,9.62317h-20.9288v2.80813h20.9288v-2.80813Z" fill="#3913b8"/><path d="M99.9023,11.4206c.2267,0,.4107-.1837.4107-.4102c0-.2266-.184-.4102-.4107-.4102-.2264,0-.4101.1836-.4101.4102c0,.2265.1837.4102.4101.4102Z" fill="#afe3e2"/><path d="M101.826,11.4206c.227,0,.41-.1837.41-.4102c0-.2266-.183-.4102-.41-.4102-.226,0-.41.1836-.41.4102c0,.2265.184.4102.41.4102Z" fill="#f6a7ab"/><g opacity="0.9"><path d="M119.757,19.9708h-15.026c-.379,0-.695-.3155-.695-.6941v-3.8178c0-.3786.316-.6941.695-.6941h15.026c.379,0,.694.3155.694.6941v3.8178c0,.3786-.315.6941-.694.6941Z" opacity="0.9" fill="#b5cdfb"/></g><g opacity="0.9"><path d="M119.757,26.5978h-15.026c-.379,0-.695-.3156-.695-.6941v-3.8178c0-.3787.316-.6942.695-.6942h15.026c.379,0,.694.3155.694.6942v3.8178c0,.3785-.315.6941-.694.6941Z" opacity="0.9" fill="#9f8aff"/></g><path d="M93.5521,49.4736c-1.1997,0-2.1465-.4416-2.5569-.6941-1.0102-.5677-1.768-1.4829-2.2098-2.3348-.4105-.0313-.8209-.0947-1.1363-.1891-2.3363-.6627-3.4412-3.2814-3.7883-4.3544l.3157-.0947c.3471,1.0413,1.3575,3.5656,3.567,4.1649.2213.0631.5366.1264.884.1578-.1578-.3155-.2526-.6311-.3157-.9149-.1261-.568-.063-1.0096.1579-1.2938.3157-.4099.9787-.5677,1.4206-.3469.284.1578.5049.4733.6313.8835.1262.5364.0314,1.0727-.2526,1.4196-.284.3472-.6944.505-1.1679.5367.4418.7888,1.1362,1.5773,2.0202,2.0506.5053.2841,1.8942.9466,3.5357.505c1.7045-.4733,3.0621-1.8932,3.5039-3.7864l.3157.0631c-.4735,1.9878-1.8941,3.5338-3.7249,4.0071-.4104.1578-.8209.2208-1.1996.2208Zm-4.1354-5.6792c-.2526,0-.5366.0947-.6944.3155s-.1895.5994-.0948,1.0413c.0631.3156.1896.6311.3474.978.4102,0,.8206-.0947,1.0732-.4103.2209-.2838.284-.7254.1892-1.1673-.063-.3156-.2523-.5677-.4418-.6941-.1261-.0314-.2526-.0631-.3788-.0631Z" fill="#3913b8"/><path d="M122.63,36.7897l-.19-.2522c1.958-1.4199,5.146-3.9124,6.472-6.0581-.569-.0947-1.105-.3472-1.389-.8205-.284-.5363-.253-1.4195.315-1.8928.537-.4733,1.421-.505,1.831-.0948.474.4733.19,1.3882.032,1.8615-.063.2208-.158.4733-.284.6941.505.0317.978,0,1.294,0c2.841-.1577,6.314-1.7984,7.861-3.723.631-.7574.883-1.5461.789-2.2086-.095-.6627-.6-1.2937-1.453-1.8616l.19-.2524c.947.631,1.484,1.3252,1.61,2.0824s-.189,1.6092-.852,2.4611c-1.642,2.0192-5.115,3.6916-8.113,3.8493-.348.0314-.916.0631-1.484,0-1.357,2.1771-4.64,4.7643-6.629,6.2156Zm6.219-9.1184c-.284,0-.6.0948-.821.2839-.442.3786-.474,1.073-.221,1.5146.221.4102.726.5994,1.263.6941.126-.2525.252-.505.315-.7572.126-.4102.379-1.199.032-1.5462-.127-.1261-.347-.1892-.568-.1892Z" fill="#3913b8"/><path d="M139.047,43.888c-.632,0-1.231-.126-1.768-.3785-.568-.2525-1.137-.6941-1.61-1.1674-1.547.7888-3.978,1.2304-5.682,1.4512l-.032-.3155c2.462-.3469,4.325-.8202,5.493-1.3882-.663-.7888-1.042-1.6724-.758-2.3031.253-.568,1.074-.9152,1.642-.7258.631.2525.884,1.1674.821,1.7037-.064.5364-.505,1.0097-1.2,1.3882.411.442.915.8205,1.452,1.0413c1.799.8202,4.262.1261,6.408-1.7667l.222.2208c-1.611,1.4829-3.41,2.24-4.988,2.24Zm-3.094-4.5434c-.379,0-.852.2524-.979.5993-.221.4733.127,1.2938.758,2.0196.663-.3786,1.042-.7888,1.073-1.1991.063-.4416-.157-1.199-.631-1.3568-.032-.0314-.126-.063-.221-.063Z" fill="#3913b8"/><path d="M81.2107,18.9309l-.221-.2208c1.4837-1.483,3.1566-2.6504,5.0193-3.5339c1.0416-.4732,2.1465-.8834,3.2514-1.1358l.0631.3155c-1.1049.2524-2.1782.6311-3.1883,1.1359-1.831.8519-3.4726,1.9877-4.9245,3.4391Z" fill="#3913b8"/><path d="M80.7053,21.2652l-.2209-.2209c1.4836-1.483,3.1568-2.6503,5.0193-3.5338c1.0418-.4733,2.1464-.8835,3.2513-1.1359l.0634.3155c-1.1049.2525-2.1784.6311-3.1886,1.1359-1.8307.8203-3.4722,1.9878-4.9245,3.4392Z" fill="#3913b8"/><g opacity="0.4"><path d="M137.212,167.224c-.253,0-.442-.126-.442-.315l-.821-61.779h2.557l-.82,61.779c0,.189-.222.315-.474.315Z" opacity="0.4" fill="#3913b8"/></g><g opacity="0.4"><path d="M118.871,167.224c-.253,0-.442-.126-.442-.315l-.821-61.779h2.557l-.821,61.779c-.031.189-.221.315-.473.315Z" opacity="0.4" fill="#3913b8"/></g><path d="M129.04,81.1188L104.639,93.361l-.126-.2525c-.348-.6941-.064-1.5459.631-1.8931L127.02,80.2355c.695-.3472,1.547-.0633,1.894.6308l.126.2525Z" fill="#3913b8"/><path d="M104.67,93.3615l2.052,2.0823l24.402-12.2736-2.083-2.0509-3.315.7257L105.46,92.1941l-.79,1.1674Z" fill="#3913b8"/><path d="M128.916,81.4036l11.207-30.6998c-.884-.3155-1.831.1261-2.147,1.0097l-10.07,27.5447c-.316.8833.158,1.8298,1.01,2.1454Z" fill="#3913b8"/><path d="M140.117,50.7032l3.662.4733L130.615,83.107l-1.704-1.7037.347-3.3761l9.817-26.3774l1.042-.9466Z" fill="#3913b8"/><path d="M127.017,80.2362c.26-.1298.541-.1713.809-.1366-.046-.2718-.025-.56.075-.8414l10.07-27.5447c.316-.8836,1.263-1.3252,2.147-1.0097v0v0l3.662.4733-13.037,31.6218.378.3715L106.719,95.444l-2.052-2.0823.016-.0237-.047.0237-.126-.2525c-.348-.6941-.063-1.546.631-1.8932l21.876-10.9798Z" clip-rule="evenodd" fill="#fff" fill-opacity="0.57" fill-rule="evenodd"/><path d="M135.004,101.471h-27.621c-1.547,0-2.841-1.262-2.841-2.8394c0-1.5776,1.262-2.8397,2.841-2.8397.189,0,.315.1264.315.3155c0,.1894-.126.3155-.315.3155-1.2,0-2.21.9783-2.21,2.2087c0,1.1991.979,2.2084,2.21,2.2084h27.621c.19,0,.316.126.316.316c0,.189-.158.315-.316.315Z" fill="#9f8aff"/><path d="M94.5003,101.345h-1.0418v-2.7452l1.0418-.2525v2.9977Z" fill="#9f8aff"/><path d="M136.267,167.382c-.347,0-.599-.189-.599-.473l-.853-61.936h2.905l-.853,61.936c.032.284-.252.473-.6.473Zm-1.105-62.062l.821,61.589c0,.063.127.158.284.158.158,0,.285-.095.285-.158l.82-61.589h-2.21Z" fill="#3913b8"/><path d="M117.923,167.382c-.347,0-.6-.189-.6-.473l-.852-61.936h2.904l-.852,61.936c0,.284-.284.473-.6.473Zm-1.136-62.062l.821,61.589c0,.063.126.158.284.158s.284-.095.284-.158l.821-61.589h-2.21Z" fill="#3913b8"/><path d="M140.309,105.667h-65.5663c-.7892,0-1.3892-.631-1.3892-1.389v-.536c0-.789.6314-1.388,1.3892-1.388h65.5343c.789,0,1.389.631,1.389,1.388v.536c.032.789-.6,1.389-1.357,1.389Z" fill="#3913b8"/><path d="M131.121,83.1703L106.719,95.4125l-.127-.2525c-.347-.6941-.063-1.5459.632-1.8931L129.1,82.287c.695-.3472,1.547-.0633,1.894.6308l.127.2525Z" fill="#3913b8"/><path d="M131.12,83.1701l12.911-31.8674c-.852-.3469-1.831.063-2.178.9149L130.204,80.9931c-.347.8835.064,1.8298.916,2.177Z" fill="#3913b8"/><path d="M97.2483,101.502h-1.3889v-3.2815l1.3889-.3786v3.6601Zm-1.0418-.315h.7578v-2.9348l-.7578.1894v2.7454Z" fill="#3913b8"/><path d="M121.053,101.313h-1.168l-2.494-10.2226l1.389-.7258l2.273,10.9484Zm-.915-.315h.536l-2.115-10.1601-.789.4103l2.368,9.7498Z" fill="#9f8aff"/><path d="M132.603,83.1377L106.939,95.6638c-.316.1578-.694.0947-.915-.1577l-3.473-3.723c-.253-.2208-.6.0947-.41.3472l3.251,4.6695c.221.3156.663.4417,1.01.2525l26.612-13.1571c.158-.0631.253-.2208.253-.3786-.032-.3155-.379-.505-.664-.3789Z" fill="#9f8aff"/><path d="M113.285,87.9986c-.094-.1578-.126-.3155.221-.5363.316-.1892.474-.0947.569.063" fill="#3913b8"/><path d="M107.634,90.3959l3.725-1.9876l1.578,1.3565-3.883,2.051-1.42-1.4199Z" fill="#3913b8"/><path d="M113.694,88.4088c-.095-.1578-.126-.3156.221-.5364.316-.1891.474-.0947.568.0631" fill="#3913b8"/><path d="M114.104,88.7868c-.094-.1577-.126-.3155.221-.5363.316-.1894.474-.0947.568.063" fill="#3913b8"/><path d="M114.515,89.197c-.095-.1578-.127-.3155.22-.5364.316-.1894.474-.0947.568.0631" fill="#3913b8"/><path d="M114.989,87.1455c-.095-.1578-.126-.3156.221-.5364.316-.1894.474-.0947.568.0631" fill="#3913b8"/><path d="M115.402,87.5556c-.095-.1577-.126-.3155.221-.5363.316-.1894.474-.0947.568.063" fill="#3913b8"/><path d="M115.811,87.9342c-.095-.1578-.127-.3156.221-.5364.316-.1891.473-.0947.568.0631" fill="#3913b8"/><path d="M116.217,88.345c-.095-.1577-.127-.3155.221-.5363.315-.1891.473-.0947.568.0631" fill="#3913b8"/><path d="M116.722,86.2935c-.095-.1577-.126-.3155.221-.5363.316-.1891.473-.0947.568.063" fill="#3913b8"/><path d="M117.139,86.7037c-.094-.1578-.126-.3155.221-.5364.316-.1891.474-.0947.569.0631" fill="#3913b8"/><path d="M117.514,87.0825c-.094-.1578-.126-.3155.222-.5364.315-.1894.473-.0947.568.0631" fill="#3913b8"/><path d="M117.926,87.4926c-.095-.1577-.126-.3155.221-.5363.316-.1894.474-.0947.568.0631" fill="#3913b8"/><path d="M118.429,85.4426c-.095-.1578-.127-.3155.221-.5363.315-.1895.473-.0948.568.063" fill="#3913b8"/><path d="M118.84,85.852c-.095-.1577-.126-.3155.221-.5363.316-.1895.474-.0947.568.063" fill="#3913b8"/><path d="M119.25,86.2314c-.094-.1578-.126-.3155.221-.5363.316-.1895.474-.0948.569.063" fill="#3913b8"/><path d="M119.66,86.6408c-.094-.1577-.126-.3155.221-.5363.316-.1894.474-.0947.569.063" fill="#3913b8"/><path d="M120.134,84.5908c-.095-.1578-.127-.3155.221-.5364.315-.1894.473-.0947.568.0631" fill="#3913b8"/><path d="M120.544,85.0008c-.095-.1577-.127-.3155.221-.5363.315-.1892.473-.0947.568.063" fill="#3913b8"/><path d="M120.958,85.3796c-.094-.1578-.126-.3155.221-.5363.316-.1895.474-.0948.569.063" fill="#3913b8"/><path d="M121.364,85.789c-.095-.1577-.126-.3155.221-.5363.316-.1895.474-.0947.568.063" fill="#3913b8"/><path d="M121.871,83.7383c-.095-.1578-.126-.3156.221-.5364.316-.1894.473-.0947.568.0631" fill="#3913b8"/><path d="M122.249,84.1484c-.095-.1578-.126-.3155.221-.5363.315-.1895.473-.0948.568.063" fill="#3913b8"/><path d="M122.662,84.5278c-.095-.1578-.126-.3155.221-.5363.316-.1895.473-.0948.568.063" fill="#3913b8"/><path d="M123.072,84.938c-.095-.1578-.126-.3156.221-.5364.316-.1894.474-.0947.568.0631" fill="#3913b8"/><path d="M98.8909,98.1881L77.5827,101.501l-.0945-.694c-.1264-.757.4102-1.4829,1.168-1.6093l18.5301-2.8711c.7575-.1261,1.4837.4103,1.6101,1.1674l.0945.6941Z" fill="#3913b8"/><path d="M67.1314,137.219l-34.1563-4.954c-.8837,0-1.6099-.663-1.6099-1.451v-7.1c0-2.082,1.8625-3.786,4.167-3.786h30.526c4.514,0,8.1444,3.313,8.1444,7.383v3.503c-.0316.788-6.1872,6.405-7.0712,6.405Z" fill="#b5cdfb"/><path d="M37.1755,68.1198l6.2821,58.2132-14.7423,1.136-1.2625-46.0974L22.686,71.3698l8.9653-4.6382l5.5242,1.3882Z" fill="#b5cdfb"/><path d="M14.3218,56.8878c0,0,9.8491-5.7422,14.2371-4.3227c4.3879,1.4199,6.282,2.8084,7.2921,7.1625l1.3259,8.3928-11.1751,3.8177L15.4267,59.1282l-1.1049-2.2404Z" fill="#9f8aff"/><path d="M26.4122,127.405c1.1996-10.759.6629-21.581-1.5153-32.1512-2.3044-11.1379-6.4398-21.9599-12.3429-31.9935-1.4837-2.5242,0-5.7739,2.9042-6.2789.0316,0,.0632,0,.0947-.0313c1.7678-.3156,3.504.5363,4.3879,2.0823c6.061,10.8854,10.07,22.7804,11.8694,35.0224c1.547,10.5382,1.4836,21.3922-.2523,32.1202-.4736,2.966-5.4614,4.038-5.1457,1.23Z" fill="#b5cdfb"/><path d="M26.001,71.937l-7.2606,3.5656c-1.7677-4.1966-3.8196-8.2982-6.1557-12.274-1.4836-2.5239,0-5.7739,2.9043-6.2785.0315,0,.0631,0,.0947,0c1.7362-.3156,3.504.5363,4.3879,2.0823c2.3044,4.1649,4.3248,8.4559,6.0294,12.9046Z" fill="#9f8aff"/><path d="M67.2581,137.218h-39.9017c-.8208,0-1.4521-.662-1.4521-1.451v-7.099c0-2.083,1.7046-3.787,3.788-3.787h31.6308c4.0723,0,7.387,3.314,7.387,7.384v3.502c.0317.789-.6314,1.451-1.452,1.451Z" fill="#b5cdfb"/><path d="M31.7588,124.881h29.5675c4.0722,0,7.3869,3.313,7.3869,7.383v3.503c.0314.788-.6313,1.451-1.4522,1.451h-39.9015c-.8208,0-1.4521-.663-1.4521-1.451v-7.1c0-.739.2152-1.432.5861-2.017c1.0923-10.51.5307-21.073-1.5966-31.3962-2.3044-11.1379-6.4398-21.9599-12.3429-31.9935-1.4837-2.5242,0-5.7739,2.9042-6.2789.0316,0,.0631,0,.0947-.0313c1.7678-.3156,3.504.5363,4.3879,2.0823c6.061,10.8854,10.07,22.7804,11.8694,35.0224c1.4849,10.1152,1.4861,20.5202-.0514,30.8262Z" opacity="0.4" fill="#fff"/><path d="M30.8896,168.234c-.0631,0-.1261-.063-.1578-.126-.0314-.095.0317-.158.1264-.189c2.5569-.474,4.6089-1.578,5.9664-3.187.5997-.694,1.5781-2.082,1.4837-2.777-.6631.568-1.3893,1.042-1.7363.789-.1265-.063-.1896-.221-.2209-.41-.0317-.284.0313-.6.1892-.789.1895-.252.5683-.379.9787-.379.3471,0,.6628.127.8523.285.2526-.221.5049-.474.7576-.758c1.0732-1.136,3.9143-4.133,2.9359-7.351-.3474-1.168-1.1366-2.209-2.052-2.935-.2209.19-.4418.348-.7261.474-1.1049.536-2.5569.473-3.283.157-.2526-.126-.3788-.252-.4105-.41-.0314-.126,0-.284.0948-.441.2526-.411.947-.821,1.5467-.947.8523-.189,1.8628.158,2.7464.789c1.6102-1.578,1.6416-4.733,1.6416-5.143-.0314-3.786-2.6517-6.468-3.788-7.446-.0631-.064-.0634-.158-.0317-.221s.1579-.063.2209-.032c1.168,1.01,3.8831,3.755,3.8831,7.699c0,.662-.0634,3.723-1.7049,5.332.947.757,1.7679,1.862,2.115,3.061c1.0105,3.407-1.9255,6.468-3.0304,7.635-.2209.252-.5049.537-.7892.789.3787.883-1.0415,2.65-1.4837,3.187-1.3572,1.703-3.5039,2.839-6.1242,3.344Zm6.5664-6.72c-.3157,0-.5683.094-.6948.252-.0945.126-.1578.347-.1262.536c0,.095.0631.158.0948.19.1892.126.7262-.221,1.4206-.789-.1578-.126-.3788-.189-.6314-.189-.063,0-.063,0-.063,0Zm.284-11.958c-.1579,0-.284,0-.4419.031-.6.126-1.1683.505-1.3575.82-.0631.063-.0631.158-.0631.19c0,.063.0945.126.2523.221.5683.284,1.9572.378,3.0307-.127.221-.094.4105-.221.5997-.378-.6627-.505-1.3889-.757-2.0202-.757Z" fill="#3913b8"/><path d="M63.0453,168.234c-.0317,0-.0317,0,0,0-2.6517-.505-4.7667-1.641-6.1559-3.282-.4735-.536-1.8624-2.303-1.4837-3.186-.284-.284-.568-.568-.7892-.789-1.1049-1.168-4.0405-4.259-3.0304-7.636.3474-1.199,1.168-2.303,2.115-3.06-1.6098-1.641-1.7045-4.67-1.7045-5.332.0313-3.913,2.7147-6.69,3.8827-7.699.063-.063.1578-.063.2209.032.0634.094.0634.157-.0314.22-1.1366.979-3.7566,3.66-3.7882,7.447c0,.41.0316,3.565,1.6415,5.142.884-.631,1.8941-.946,2.7464-.788.6314.126,1.2944.536,1.5467.946.0948.158.1265.316.0948.442-.0314.158-.1892.316-.4105.41-.7258.347-2.2095.379-3.283-.158-.2523-.126-.5049-.284-.7258-.473-.9157.726-1.7049,1.767-2.052,2.935-.947,3.218,1.8624,6.215,2.9357,7.351.2526.284.5052.536.7578.757.1892-.189.5049-.284.8523-.284.4104,0,.7892.126.9784.379.1579.221.2209.505.1896.789-.0317.189-.1265.315-.221.41-.3787.252-1.0735-.221-1.7362-.789-.1265.663.884,2.051,1.4836,2.777c1.3575,1.577,3.4092,2.682,5.9664,3.187.0948.031.1261.094.1261.189c0,.031-.063.063-.1261.063Zm-7.2291-6.531c.6944.599,1.231.915,1.4206.788.0317-.031.0631-.094.0947-.189.0314-.189-.0316-.41-.1264-.536-.1262-.158-.4102-.284-.7258-.253-.2843,0-.537.064-.6631.19Zm-1.6415-11.422c.1895.158.3787.284.5997.378c1.0735.505,2.4307.411,3.0307.127.1578-.063.2523-.158.2523-.221c0-.032,0-.126-.0631-.189-.1892-.285-.7575-.695-1.3572-.821-.7892-.126-1.6732.158-2.4624.726Z" fill="#3913b8"/><path d="M26.8851,131.729c-.0316,0-.0948,0-.1263-.032-.0632-.063-.0632-.158,0-.221l4.1985-4.196c.0631-.063.1578-.063.2209,0s.0631.158,0,.221l-4.1984,4.196c0,.032-.0632.032-.0947.032Z" fill="#3913b8"/><path d="M56.497,138.133c-.0317,0-.0948,0-.1265-.032-.063-.063-.063-.158,0-.221l4.1987-4.196c.0631-.063.1579-.063.221,0s.063.158,0,.221l-4.1987,4.165c-.0314.031-.0631.063-.0945.063Z" fill="#3913b8"/><path d="M53.715,138.133c-.0314,0-.0945,0-.1262-.032-.0631-.063-.0631-.158,0-.221l4.1984-4.196c.0631-.063.1578-.063.2209,0c.0634.063.0634.158,0,.221l-4.1984,4.196c0,0-.0317.032-.0947.032Z" fill="#3913b8"/><path d="M48.225,138.133c-.0317,0-.0948,0-.1262-.032-.0634-.063-.0634-.158,0-.221l4.1984-4.196c.0631-.063.1578-.063.2209,0s.0631.158,0,.221l-4.1984,4.196c-.0317,0-.0631.032-.0947.032Z" fill="#3913b8"/><path d="M45.4462,138.133c-.0317,0-.0948,0-.1262-.032-.0634-.063-.0634-.158,0-.221l4.1984-4.196c.0631-.063.1578-.063.2209,0s.0631.158,0,.221l-4.1984,4.196c0,0-.0634.032-.0947.032Z" fill="#3913b8"/><path d="M42.6996,138.133c-.0316,0-.0947,0-.1264-.032-.0631-.063-.0631-.158,0-.221l4.1987-4.196c.0631-.063.1578-.063.2209,0s.0631.158,0,.221l-4.1987,4.196c-.0314,0-.0631.032-.0945.032Z" fill="#3913b8"/><path d="M39.9572,138.133c-.0314,0-.0945,0-.1262-.032-.0631-.063-.0631-.158,0-.221l4.1984-4.196c.0634-.063.1578-.063.2212,0c.0631.063.0631.158,0,.221l-4.1987,4.196c-.0314,0-.0631.032-.0947.032Z" fill="#3913b8"/><path d="M37.1754,138.133c-.0314,0-.0948,0-.1261-.032-.0631-.063-.0631-.158,0-.221l4.1984-4.196c.063-.063.1578-.063.2209,0c.063.063.063.158,0,.221l-4.1984,4.196c0,0-.0631.032-.0948.032Z" fill="#3913b8"/><path d="M34.4305,138.133c-.0317,0-.0947,0-.1261-.032-.0634-.063-.0634-.158,0-.221l4.1984-4.196c.063-.063.1578-.063.2209,0s.0631.158,0,.221l-4.1984,4.196c-.0317,0-.0631.032-.0948.032Z" fill="#3913b8"/><path d="M31.6503,138.133c-.0317,0-.0947,0-.1264-.032-.0631-.063-.0631-.158,0-.221l4.1987-4.196c.063-.063.1578-.063.2209,0s.0631.158,0,.221l-4.1984,4.196c0,0-.0317.032-.0948.032Z" fill="#3913b8"/><path d="M28.9023,138.133c-.0317,0-.0948,0-.1265-.032-.0631-.063-.0631-.158,0-.221l4.1987-4.196c.0631-.063.1579-.063.2209,0s.0631.158,0,.221l-4.1983,4.196c0,0-.0634.032-.0948.032Z" fill="#3913b8"/><path d="M27.3274,133.274c-.0316,0-.0947,0-.1262-.032-.0632-.063-.0632-.157,0-.22l4.1985-4.197c.0631-.063.1578-.063.2209,0s.0631.158,0,.221l-4.1985,4.196c-.0316.032-.0631.032-.0947.032Z" fill="#3913b8"/><path d="M26.8851,135.83c-.0316,0-.0948,0-.1263-.032-.0632-.063-.0632-.158,0-.221l4.1985-4.196c.0631-.063.1578-.063.2209,0s.0631.157,0,.221l-4.1984,4.196c0,0-.0632.032-.0947.032Z" fill="#3913b8"/><path d="M27.3274,137.376c-.0316,0-.0947,0-.1262-.031-.0632-.063-.0632-.158,0-.221l4.1985-4.196c.0631-.064.1578-.064.2209,0c.0631.063.0631.157,0,.22l-4.1985,4.197c-.0316,0-.0631.031-.0947.031Z" fill="#3913b8"/><path d="M51.0167,138.079c-.0314,0-.0947,0-.1261-.032-.0631-.063-.0631-.157,0-.221l4.1984-4.196c.063-.063.1578-.063.2209,0c.0634.063.0634.158,0,.221l-4.1984,4.196c-.0317,0-.0631.032-.0948.032Z" fill="#3913b8"/><path d="M17.4458,76.2923c-.0631,0-.1263-.0317-.1263-.0947-.0316-.063,0-.1578.0631-.2208l9.6913-4.7329c.0632-.0314.1579,0,.221.063.0316.0634,0,.1578-.0631.2211l-9.6913,4.7326c-.0632,0-.0632.0317-.0947.0317Z" fill="#3913b8"/><path d="M23.5704,66.3209c-.0631,0-.1263-.0313-.1578-.0944-1.1049-2.4295-2.336-4.8276-3.6303-7.1624-.8208-1.4829-2.5254-2.3031-4.2301-1.9876-.0316,0-.0631,0-.0947.0314-1.3258.2208-2.3991,1.0727-2.9674,2.2717-.5682,1.2305-.505,2.5873.1894,3.7547.0316.063.0316.1577-.0631.2208-.0631.0317-.1578.0317-.221-.0631-.726-1.2621-.8207-2.745-.1894-4.0385.5998-1.3251,1.7678-2.2087,3.2199-2.4611.0316,0,.0632,0,.0948,0c1.8309-.3156,3.6618.568,4.5457,2.1456c1.2943,2.3348,2.5254,4.7326,3.6303,7.1621.0315.0947,0,.1578-.0632.2208c0,0-.0315,0-.0631,0Z" fill="#3913b8"/><path d="M90.7136,69.7616c0,0,6.6605-4.7959,8.6494-5.9003c2.02-1.0726,7.134-1.4829,10.828-.3469.694.2208-2.052,1.7985-2.778,1.8929c0,0,11.491-.3786,11.396.8835-.063,1.2622-2.147,2.051-5.146,2.4612-2.999.41-10.354,1.4829-14.1422,1.0096-2.2098,2.0193-7.1657,7.6985-7.1657,7.6985l-3.8199-5.3637l2.1784-2.3348Z" fill="#f8bcbf"/><path d="M69.5314,94.0238c0,0,8.618-4.1019,11.4906-3.3131c1.1997.3156,3.1255.7258,4.8614,1.8932c2.3994,1.6093,2.7465,3.7864,1.7049,4.3227-.8209.4102-4.8614-.7258-4.8614-.7258s-1.7363.8519-3.1569,1.9879c-1.0732.8519-6.566,1.2935-6.566,1.2935-5.6507-5.4901-3.4726-5.4584-3.4726-5.4584Z" fill="#f8bcbf"/><path d="M77.5172,86.4199c-.9471,0-1.8941-.1577-2.8098-.4733L52.7681,78.532c-2.9677-.9782.8523-2.6503,1.8307-5.6161.9787-2.9659-4.7036-8.8032-1.7363-7.8249l24.1178,9.6864l13.8899-7.8249c2.5255-1.8301,9.2178,7.2885,6.6925,9.1183L82.5362,84.7162c-1.452,1.1357-3.2197,1.7037-5.019,1.7037Z" fill="#3913b8"/><path d="M64.8619,39.9756c.4735-.2838,3.7565-3.0605,3.3778-4.0702-.2526-.6941-1.7677-.4416-2.0203-1.2304-.1895-.568.5052-1.1674.9471-1.8301c1.3575-1.8929.5366-6.405-1.2945-6.9413-6.8183-1.9878-11.8693,6.468-11.8693,6.468.6314-1.2305.6314-2.4609,0-3.0603-.8206-.7888-2.4938-.0947-2.7147,0-2.9674,1.2305-3.5357,5.2376-4.5458,5.0798-.6314-.1264-.4422-1.6406-1.3889-2.0195-.8526-.3469-2.3046.3472-2.715,1.3885-.6314,1.609,1.5153,3.3127.947,4.1963-.284.4416-1.231.6627-3.8513-.0948-1.3572,5.6479,1.168,10.9802,1.8941,12.9681.5997,1.7351,1.4523,4.1015,3.3147,4.4487c1.3572.2525,3.1566-.5997,3.6618-1.9248.7262-1.8615-1.5784-3.3444-1.3889-6.468.0631-1.3569.7575-1.4513,1.1363-2.0823c4.3249-.3472,13.5112-2.9345,16.5099-4.8277Z" fill="#3913b8"/><path d="M44.9112,66.5419c0,0,3.3778-11.0115,3.504-15.0186c0,0-4.5772,1.4199-4.167-1.4199.4104-2.8711,4.167-2.177,4.167-2.177-.1579-1.3885.1578-2.7451.947-4.0702c0,0,6.6609-.2842,14.458-3.3761l1.6101,11.5478-1.8941.3786c0,0-1.5154,7.7935-2.336,8.0773-.8209.2842-5.7454.3786-5.7454.3786l-.4105,11.9898c-.0314,0-8.6811-1.6407-10.1331-6.3103Z" fill="#f8bcbf"/><path d="M45.8276,62.0308C43.8704,64.5234,24.33,77.9961,35.9154,110.841h25.5383c0,0,1.736-23.4111.9785-27.4182-.4735-2.5873-.5049-13.1255-.5997-13.7565-.1265-.8519-5.8402-3.1553-6.5977-2.2718l-.1579,2.9659c-5.2402-2.051-8.9654-8.6451-9.2493-8.3296Z" fill="#3913b8"/><path d="M51.1004,108.633c-.1262,0-.2526,0-.3788,0-1.5467-.063-4.3879-.788-5.8085-4.953-.284-.884-.5997-2.051-.9154-3.534-.4735-2.2403-1.0418-5.3322-1.6415-9.1816-1.0101-6.4366-1.7993-12.7469-1.831-12.9994-.3788-3.0922,1.7993-5.9317,4.8931-6.3106c3.0935-.3785,5.9347,1.7985,6.3135,4.8907.8209,6.5628,2.2098,15.9969,3.0938,20.8243c3.8827-1.7671,9.9121-3.5339,14.7736-5.9634c2.8094-1.3882,7.8287,8.74,5.0192,10.128-18.5618,9.245-22.0026,7.099-23.518,7.099Z" fill="#3913b8"/><path d="M51.1004,108.633c-.1262,0-.2526,0-.3788,0-1.5467-.063-4.3879-.788-5.8085-4.953-.284-.884-.5997-2.051-.9154-3.534-.4735-2.2403-1.0418-5.3322-1.6415-9.1816-1.0101-6.4366-1.7993-12.7469-1.831-12.9994-.3788-3.0922,1.7993-5.9317,4.8931-6.3106c3.0935-.3785,5.9347,1.7985,6.3135,4.8907.8209,6.5628,2.2098,15.9969,3.0938,20.8243c3.8827-1.7671,9.9121-3.5339,14.7736-5.9634c2.8094-1.3882,7.8287,8.74,5.0192,10.128-18.5618,9.245-22.0026,7.099-23.518,7.099Z" fill-opacity="0.28"/><path d="M54.8224,99.8922c-.0948,0-.1578-.0948-.1578-.1895.3156-2.4609-2.9991-23.0012-4.167-25.8724-.5366-1.3251-3.0621-1.4198-5.0824-1.2938-2.2412.1578-4.3562.6628-4.3879.6628-.0948.0313-.1579-.0317-.1896-.1264-.0314-.0944.0317-.1578.1265-.1892.3471-.0947,8.6811-2.0192,9.849.8202c1.0733,2.6503,4.5458,23.1591,4.167,26.0305c0,.1261-.0947.1578-.1578.1578Z" fill="#060606"/><path d="M52.8634,98.8204c-.0631,0-.0945-.0317-.1262-.063-.0317-.0631-.0317-.1578.0631-.2208.0317-.0317,4.7984-2.8715,14.4582-6.4367.0945-.0317.1579,0,.1893.0947.0316.0944,0,.1578-.0948.1891-9.6282,3.5656-14.3318,6.405-14.3948,6.4367-.0314-.0317-.0631,0-.0948,0Z" fill="#060606"/><path d="M50.5964,109.422c-3.1252,0-5.8085-4.765-7.955-14.1355-1.6101-7.0361-2.3362-14.1985-2.3362-14.2929c0-.0947.0634-.1578.1264-.1578.0948,0,.1579.0631.1579.1261.0314.2838,2.8412,28.4601,10.07,28.1441c8.8706-.41,22.4131-8.046,22.571-8.14.063-.032.1578-.032.2209.063.0631.094.0317.157-.0631.221-.1261.063-13.7635,7.762-22.6971,8.172c0,0-.0631,0-.0948,0Z" fill="#060606"/><path d="M59.5879,86.1363l-.3157-.6941c-.221-.4733-.5683-1.2305-.884-1.2621-.1579,0-.3157.1894-.5049.5363l-.1896.4102-.0947-.4416c-.1579-.7257-.1262-1.4515-.1262-2.1456c0-.1895,0-.3786,0-.568c0-.0948.0631-.1578.1579-.1578s.1578.063.1578.1578c0,.1894,0,.3785,0,.568c0,.568,0,1.1357.0631,1.6723.1895-.2211.3474-.3472.5683-.3155.4104,0,.7261.5047.9784,1.0096.0634-.3155.1896-.5363.3474-.6627.284-.2208.6628-.0947,1.0101,0c.4736.1578.7576.2208.9471-.1261.0317-.063.1261-.0947.2209-.063.0631.0313.0948.1261.0631.2208-.3157.5994-.8837.4102-1.3258.2838-.284-.0947-.568-.1891-.7576-.063-.1578.1261-.2526.4416-.284.9779l-.0316.6628Z" fill="#b5cdfb"/><path d="M39.1643,98.8518c-.063,0-.1578-.063-.1578-.1261-.0948-.568-.4735-1.1677-.8209-1.704-.1579-.2522-.3154-.4733-.4418-.6941-.0314-.063,0-.1578.063-.2208.0634-.0317.1579,0,.2209.063.1265.2208.2527.442.4105.6628.3788.5677.7892,1.1987.884,1.8298.0317.0947-.0317.1894-.1579.1894.0317,0,.0317,0,0,0Z" fill="#9f8aff"/><path d="M41.1213,97.8733c-.0631,0-.1578-.0631-.1578-.1264-.0948-.8519-.5683-1.7037-1.3259-2.4609-.063-.063-.063-.1577,0-.2208.0631-.0633.1579-.0633.221,0c.7892.7888,1.2941,1.7351,1.4206,2.6503.0313.0631-.0317.1578-.1579.1578.0314,0,.0314,0,0,0Z" fill="#9f8aff"/><path d="M60.8506,55.3417c0,0-.7892,2.4925-2.4308,2.3664-1.1679-.0947-1.4519-2.0826-1.515-2.1456l3.9458-.2208Z" fill="#fff"/><path d="M57.6006,49.8828c.3489,0,.6314-.2823.6314-.6308c0-.3487-.2825-.631-.6314-.631-.3486,0-.6314.2823-.6314.631c0,.3485.2828.6308.6314.6308Z" fill="#464646"/><path d="M64.232,48.1792c.3486,0,.6313-.2824.6313-.6311c0-.3484-.2827-.6307-.6313-.6307s-.6314.2823-.6314.6307c0,.3487.2828.6311.6314.6311Z" fill="#464646"/><path d="M55.2661,48.4949c-.0948,0-.1896-.0313-.2526-.126-.1262-.1264-.0948-.3473.0316-.442l3.2514-2.745c.1261-.1261.3474-.0944.4418.0317.1265.1261.0948.3472-.0314.4416l-3.2516,2.745c-.0314.0634-.0945.0947-.1892.0947Z" fill="#464646"/><path d="M66.628,46.9177c-.0314,0-.0631,0-.0948,0L63.0293,45.908c-.1579-.0633-.2527-.2211-.221-.3788.0631-.1578.221-.2522.3788-.2208L66.691,46.318c.1579.0633.2526.2211.221.3786-.0314.1264-.1576.2211-.284.2211Z" fill="#464646"/><path d="M54.6643,47.1064c-.1578,0-.3157-.1261-.3157-.2839c0-.1894.1265-.3155.2843-.3472l3.567-.2208c.1579,0,.3157.1264.3474.2842c0,.1891-.1264.3155-.2843.3469l-3.5987.2208c.0317,0,.0317,0,0,0Z" fill="#464646"/><path d="M61.3907,53.1334c-.0631,0-.1262-.063-.1578-.1264-.0317-.0944.0316-.1578.1261-.1891l3.5043-.7258c.0944-.0317.1578.0317.1892.1261.0317.0947-.0314.1578-.1262.1894l-3.5042.7258c-.0314,0-.0314,0-.0314,0Z" fill="#464646"/><path d="M46.4584,50.451c-.0313,0-.063,0-.0947-.0317-.0631-.0631-.0945-.1578-.0314-.2208.0314-.0317.5049-.6624,1.6098-.4416.0948.0313.1265.0947.1265.1891-.0317.0947-.0948.1264-.1896.1264-.884-.1894-1.2627.2838-1.2627.3155-.0631.0631-.1262.0631-.1579.0631Z" fill="#464646"/><path d="M47.5657,50.987c-.0947,0-.1578-.0947-.1578-.1895.0314-.3469-.6314-.9779-1.0735-1.2934-.0631-.0634-.0945-.1578-.0314-.2212.0631-.063.1578-.0944.2209-.0313.1262.0947,1.2628.9466,1.1997,1.5776c0,.0944-.0634.1578-.1579.1578Z" fill="#464646"/><path d="M51.8552,42.6894l-1.231,6.4366c0,0-2.9043-1.1674-4.167-1.2621-2.052-1.3882,1.8941-6.1211,1.8941-6.1211l3.5039.9466Z" fill="#3913b8"/><path d="M61.5145,36.9468l-.284-.1264c.2209-.4733.6944-.7258,1.1049-.9466.1261-.0631.284-.1578.4101-.2208c1.6732-1.1044,3.8513-2.6503,5.6824-4.6066c1.3258-1.3882,2.4621-2.8711,2.0519-5.3953-.0633-.3471-.2212-.5364-.5369-.6311-1.4519-.4102-5.1768,1.8302-6.2186,3.0289l-.2526-.1891c1.1049-1.2938,4.8931-3.597,6.5346-3.1237.4419.1262.6945.4417.7892.8833.4419,2.6503-.7578,4.1966-2.115,5.6478-1.8627,1.9879-4.0409,3.5339-5.7454,4.6696-.1262.0947-.284.1578-.4105.2525-.4105.1578-.8206.3786-1.0101.7575Z" fill="#9f8aff"/><path d="M87.2119,93.4242c0,0-.0314,0,0,0-.3157-.0944-.7893-.2521-1.3576-.4416-1.1993-.4416-2.8725-1.0413-3.6617-1.0413-.0631,0-.1262-.063-.1262-.1261s.0631-.1264.1262-.1264c.8523,0,2.4624.5681,3.7565,1.0413.5366.1895,1.0101.3786,1.2944.442.0631.0313.0945.0944.0945.1577-.0314.0631-.0631.0944-.1261.0944Z" fill="#3913b8"/><path d="M88.5994,95.5386c-.0317,0-.0317,0,0,0-.3157-.0944-.7262-.2522-1.1997-.4416-1.1049-.4416-2.6517-1.0727-3.8196-1.0727-.0631,0-.1265-.063-.1265-.1264c0-.063.0634-.126.1265-.126c1.231,0,2.7778.631,3.9144,1.0726.4735.1895.8523.3472,1.1363.4103.0633.0316.0947.0947.0947.1577-.0314.0947-.0947.1261-.1261.1261Z" fill="#3913b8"/><path d="M63.5054,111.472c0,0,27.7164-1.766,29.2001,1.641c1.4837,3.408,1.4926,36.953,1.4926,36.953l-8.0251,2.266-3.2535-33.697-19.4141-7.163Z" fill="#9f8aff"/><path d="M63.5054,111.472c0,0,27.7164-1.766,29.2001,1.641c1.4837,3.408,1.4926,36.953,1.4926,36.953l-8.0251,2.266-3.2535-33.697-19.4141-7.163Z" fill="#fff" fill-opacity="0.43"/><path d="M94.1882,149.807c0,0,0,1.325,0,1.861c0,1.231,0,1.925,0,1.925l-8.1759-.799-.1578-3.082l8.3337.095Z" fill="#f9c5c8"/><path d="M94.1889,152.3v5.112l8.9331,3.881c.758.315.505,1.42-.284,1.42l-16.2256-.095-.5997-10.254l8.1762-.064Z" fill="#f2f1f8"/><path d="M106.594,166.466h-25.6328c-.5366,0-.947-.409-.947-.946c0-.536.4104-.946.947-.946h25.6328c.537,0,.947.41.947.946c0,.537-.442.946-.947.946Z" fill="#3913b8"/><path d="M90.7134,164.89l5.5873-6.973c0,0,7.7973,2.965,10.1643,4.796c1.2.946.474,2.871-1.041,2.808l-14.7106-.631Z" fill="#3913b8"/><path d="M106.91,164.625c.374.125.631.471.631.896c0,.536-.442.946-.947.946h-25.6328c-.5366,0-.947-.41-.947-.946c0-.537.4104-.947.947-.947h10.0069l5.3347-6.657c0,0,7.7972,2.965,10.1652,4.796.644.508.732,1.298.442,1.912Z" clip-rule="evenodd" fill="#fff" fill-opacity="0.19" fill-rule="evenodd"/><path d="M35.9121,110.842v6.531c0,3.786,3.0938,6.878,6.882,6.878h29.4525c1.5784,0,2.8411,1.262,2.8411,2.84v37.61c0,1.041.821,1.861,1.8625,1.861h20.8978c.7892,0,3.788-1.009,3.157-1.483l-14.7424-7.761-.6944-37.011c-.0631-4.102-3.22-7.478-7.2922-7.856l-16.8256-1.578h-25.5383v-.031Z" fill="#9f8aff"/><path d="M86.2613,152.3h-11.1749v1.831h11.1749v-1.831Z" fill="#f8b8bb"/><path d="M75.0864,154.131v10.57c0,1.041.8206,1.862,1.8625,1.862h20.8978c.7892,0,3.7883-1.01,3.1573-1.483l-14.7427-7.762v-3.187h-11.1749Z" fill="#fff"/><path d="M86.2627,152.458h-11.1752c-.0944,0-.1578-.064-.1578-.158c0-.095.0634-.158.1578-.158h11.1752c.0948,0,.1579.063.1579.158c0,.094-.0631.158-.1579.158Z" fill="#3913b8"/><path d="M86.2627,154.447h-11.1752c-.0944,0-.1578-.063-.1578-.158c0-.094.0634-.158.1578-.158h11.1752c.0948,0,.1579.064.1579.158c0,.095-.0631.158-.1579.158Z" fill="#3913b8"/><path d="M94.2192,149.902h-7.9549c-.0948,0-.1579-.063-.1579-.158s.0631-.158.1579-.158h7.9232c.0948,0,.1579.063.1579.158s-.0631.158-.1262.158Z" fill="#3913b8"/><path d="M94.2192,152.458h-7.9549c-.0948,0-.1579-.064-.1579-.158c0-.095.0631-.158.1579-.158h7.9232c.0948,0,.1579.063.1579.158c0,.094-.0631.158-.1262.158Z" fill="#3913b8"/><path d="M101.103,168.171h-25.6335c-.5366,0-.947-.41-.947-.947c0-.536.4104-.946.947-.946h25.6335c.536,0,.947.41.947.946c0,.537-.442.947-.947.947Z" fill="#3913b8"/><path d="M85.2539,166.593l5.5873-6.973c0,0,7.7974,2.966,10.1648,4.796c1.2.947.473,2.871-1.0416,2.808l-14.7105-.631Z" fill="#3913b8"/><path d="M47.8783,118.824c-.1895,0-.3787-.031-.5683-.063-1.3575-.284-1.2941-1.956-1.2627-3.187c0-.189,0-.378,0-.536c0-.095.0631-.158.1578-.158s.1579.063.1579.158c0,.158,0,.347,0,.536-.0314,1.168-.0631,2.651,1.0101,2.871.6631.158,1.3258,0,1.9572-.441c1.6415-1.105,2.5886-3.597,2.6517-4.039c0-.095.0947-.158.1895-.126.0948,0,.1578.095.1261.189-.1261.663-1.1679,3.156-2.7778,4.26-.5366.378-1.0732.536-1.6415.536Z" fill="#3913b8"/><path d="M79.9164,146.116c-.0947,0-.1578-.063-.1578-.158v-22.181c0-2.429-1.9572-4.385-4.3879-4.385l-23.8335-.695c-.0947,0-.1578-.063-.1578-.157c0-.095.0945-.158.1578-.158l23.8335.694c2.5885,0,4.7036,2.114,4.7036,4.701v22.181c0,.063-.0631.158-.1579.158Z" fill="#3913b8"/><path d="M77.6496,159.716c-.0631,0-.1262-.032-.1579-.095-.0313-.095,0-.158.0948-.189.2526-.095.7578-.253,1.168-.127.0948.032.1264.127.0947.19-.0313.094-.1261.126-.1892.094-.2212-.063-.5683-.031-.947.127-.0317,0-.0634,0-.0634,0Z" fill="#3913b8"/><path d="M78.0588,160.883c-.0631,0-.1261-.032-.1578-.095-.0314-.063,0-.158.0631-.221l.0947-.032c.2526-.126.4422-.22.7579-.189.0944,0,.1578.063.1578.158s-.0948.158-.1578.158c-.2527,0-.4105.063-.6314.158l-.0948.031c.0314.032,0,.032-.0317.032Z" fill="#3913b8"/><path d="M84.6854,157.853c-.0634,0-.1265-.032-.1579-.095-.0317-.095,0-.158.0945-.221.0634-.031.1264-.063.1895-.095.1262-.063.2526-.126.4419-.189.1264-.031.2526-.031.379-.031.1892,0,.3471,0,.4732-.095.0634-.063.1579-.031.2213.032.063.063.0314.157-.0317.22-.2209.158-.4736.158-.6628.158-.0947,0-.2212,0-.3157.032-.1264.031-.2212.094-.3473.158-.0631.031-.1262.063-.221.094-.0316.032-.063.032-.063.032Z" fill="#3913b8"/><path d="M91.3795,157.001c-.0634,0-.1265-.031-.1265-.094-.0314-.064,0-.158.0631-.221.0634-.032.1265-.063.1895-.126.1579-.127.3471-.253.5683-.221.0945.031.1262.094.1262.189-.0317.095-.0948.126-.1895.126-.0631-.031-.1893.063-.3154.158-.0634.063-.1579.126-.2212.158-.0314.031-.0631.031-.0945.031Z" fill="#3913b8"/><path d="M91.5668,157.696c-.0314,0-.0631,0-.0944-.032-.0634-.063-.0948-.158-.0317-.221.1261-.189.4104-.41.6313-.505.0948-.031.1579.032.1896.095.0314.095-.0317.158-.0948.19-.1578.063-.3788.252-.4735.378c0,.063-.0631.095-.1265.095Z" fill="#3913b8"/><path d="M62.2126,81.6241c0,0-.2523-5.364-1.2941-6.8469c0,0,5.2085,7.2572,5.2085,8.109l-3.9144-1.2621Z" fill-opacity="0.81"/><path d="M103.912,79.7621c-.127,0-.253-.0317-.379-.0634-.695-.2208-1.137-1.1357-1.105-1.8615c0-.8835.663-1.5146.978-1.7984.947-.8836,2.4-1.5146,3.915-1.6407.126-1.7668.126-4.5118.158-7.541.031-5.6475.063-12.0211.757-14.9556l.316.0633c-.694,2.8712-.726,9.2448-.758,14.8923-.031,2.9975-.031,5.7109-.158,7.5093.916-.0313,1.831.1578,2.684.5997.094.0631.221.1261.315.1891.506-.9149,1.2-1.5459,1.516-1.8615c3.093-2.9027,8.365-2.4925,9.912-2.3031l-.031.3156c-1.516-.1895-6.661-.568-9.629,2.2084-.316.2841-.978.9152-1.452,1.7984.979.6627,1.799,1.6724,2.052,2.4929.095.3469.095.6307-.032.8202-.126.2208-.41.4102-.789.5049-.536.0944-1.105,0-1.452-.2841-.631-.4733-.599-1.3252-.599-1.7354c0-.6311.157-1.1674.41-1.6721-.095-.063-.221-.1264-.316-.1894-.789-.4103-1.673-.5994-2.557-.5681-.063.7258-.126,1.2622-.253,1.5777-.631,1.7354-2.241,3.5025-3.503,3.5025Zm3.377-5.0485c-1.42.0948-2.778.6941-3.661,1.546-.316.2842-.884.8205-.884,1.5776c0,.5994.347,1.3882.884,1.546c1.01.3155,2.809-1.3565,3.44-3.2183.095-.2522.19-.7572.221-1.4513Zm3.473.9466c-.221.4416-.347.9466-.347,1.5146c0,.3469,0,1.1041.473,1.4829.284.2208.758.3156,1.199.2208.285-.063.474-.1894.569-.3472.063-.126.063-.3469,0-.5993-.19-.6311-.916-1.6094-1.894-2.2718Z" fill="#3913b8"/><path d="M108.771,56.6658c-2.557,0-4.609-2.0823-4.609-4.6065s2.083-4.6065,4.609-4.6065c2.525,0,4.609,2.0823,4.609,4.6065s-2.084,4.6065-4.609,4.6065Zm0-8.9292c-2.368,0-4.293,1.9245-4.293,4.291s1.925,4.291,4.293,4.291s4.293-1.9245,4.293-4.291-1.925-4.291-4.293-4.291Z" fill="#3913b8"/><path d="M108.359,52.5023c.384,0,.695-.3106.695-.6941c0-.3831-.311-.6941-.695-.6941-.383,0-.694.311-.694.6941c0,.3835.311.6941.694.6941Z" fill="#3913b8"/><g id="esNzOZ64jmq193_tr" transform="translate(156.472038,35.435129) rotate(0)"><g transform="translate(-156.472038,-35.435129)"><path d="M162.977,33.9552c.245-1.4429-.351-2.7475-1.33-2.9138-.98-.1664-1.973.8687-2.218,2.312-.246,1.4429.35,2.7475,1.33,2.9139s1.972-.8688,2.218-2.3121Z" fill="#b5cdfb"/><path d="M146.56,41.9639c-.095,0-.127-.0317-.127-.063-.441-.505,3.978-8.9292,4.01-9.024.473-.5994,1.136-1.0413,1.862-1.2304l9.881-2.619c1.041-.2838,2.146-.063,2.998.5997.853.6625,1.358,1.6407,1.358,2.7451v2.3661c0,1.8932-1.484,3.4078-3.378,3.4392l-9.817.2524c-5.209,3.0606-6.472,3.5339-6.787,3.5339Zm16.478-12.7152c-.253,0-.537.0313-.821.0944l-9.88,2.6189c-.663.1892-1.263.568-1.674,1.1044-.473.5994-3.788,7.5093-4.009,8.582.663-.1578,3.757-1.8615,6.472-3.5022l.031-.0317h.032l9.88-.2525c1.705-.0313,3.063-1.4195,3.063-3.1236v-2.3661c0-.9783-.442-1.8932-1.232-2.4929-.504-.4099-1.168-.6307-1.862-.6307Z" fill="#3913b8"/><path d="M157.355,33.3193l-4.009.5997c-.221.0314-.41-.1264-.41-.3472c0-.1892.126-.3155.315-.3469l4.009-.5997c.221-.0314.411.1264.411.3472-.032.1578-.158.3155-.316.3469Z" fill="#3913b8"/><path d="M157.355,35.4002l-4.009.5994c-.221.0316-.41-.1261-.41-.3469c0-.1895.126-.3156.315-.3472l4.009-.5994c.221-.0317.411.1261.411.3469-.032.1577-.158.3155-.316.3472Z" fill="#3913b8"/></g></g></g></svg>
