<svg width="80" height="80" viewBox="0 0 80 80" fill="none" xmlns="http://www.w3.org/2000/svg">
<path d="M18.7499 33.3336L17.9166 32.5002H39.9999V40.0002H17.9166L18.7499 39.1669V33.3336Z" fill="#FEEF7E"/>
<path d="M24.1668 43.3331L23.3335 42.4998L22.5001 43.3331V49.1664L23.3335 49.9998L24.1668 49.1664V43.3331Z" fill="#FEE94E"/>
<path d="M24.1665 43.3331L23.3332 42.4998H61.2499V49.9998H23.3332L24.1665 49.1664V43.3331Z" fill="#FFBB33"/>
<rect x="40" y="42.4998" width="21.25" height="7.5" fill="#FEE94E"/>
<path d="M13.7499 53.3326L12.9166 52.4993L11.2499 54.1659V55.8326L12.9166 57.4993L13.7499 56.6659V53.3326Z" fill="#0000FF"/>
<path d="M18.7498 33.3336L17.9164 32.5002L16.2498 34.1669V38.3336L17.9164 40.0002L18.7498 39.1669V33.3336Z" fill="#FEE94E"/>
<path d="M12.5 58.75H70V57.5H12.9167L11.25 55.8333V54.1667L12.9167 52.5H70V51.25H12.5L10 53.75V56.25L12.5 58.75Z" fill="#0000B2"/>
<path d="M12.5 58.75H40V57.5H12.9167L11.25 55.8333V54.1667L12.9167 52.5H40V51.25H12.5L10 53.75V56.25L12.5 58.75Z" fill="#000080"/>
<path d="M13.7501 53.3326L12.9167 52.4993H67.5001V53.7493V56.2493V57.4993H12.9167L13.7501 56.6659V53.3326Z" fill="#CCDDFF"/>
<path d="M13.7501 53.3326L12.9167 52.4993H40.0001V57.4993H12.9167L13.7501 56.6659V53.3326Z" fill="#6699FF"/>
<path d="M21.2502 50.0005L22.5002 51.2505H62.5002V50.0005H23.3335L22.5002 49.1672V43.3338L23.3335 42.5005H62.5002V41.2505H22.5002L21.2502 42.5005V50.0005Z" fill="#FFBB33"/>
<path d="M21.2502 50.0005L22.5002 51.2505H40.0002V50.0005H23.3335L22.5002 49.1672V43.3338L23.3335 42.5005H40.0002V41.2505H22.5002L21.2502 42.5005V50.0005Z" fill="#DD5F00"/>
<path d="M28.3335 23.3326L27.5001 22.4993L26.6668 23.3326V29.1659L27.5001 29.9993L28.3335 29.1659V23.3326Z" fill="#0000B2"/>
<path d="M28.3332 23.3326L27.4999 22.4993H52.4999V29.9993H27.4999L28.3332 29.1659V23.3326Z" fill="#6699FF"/>
<rect x="40" y="22.4993" width="12.5" height="7.5" fill="#CCDDFF"/>
<path d="M25.4169 30L26.6669 31.25H53.7502V30H27.5002L26.6669 29.1667V23.3333L27.5002 22.5H53.7502V21.25H26.6669L25.4169 22.5V30Z" fill="#0000FF"/>
<path d="M25.4169 30L26.6669 31.25H40.0002V30H27.5002L26.6669 29.1667V23.3333L27.5002 22.5H40.0002V21.25H26.6669L25.4169 22.5V30Z" fill="#000080"/>
<rect x="40" y="47.9164" width="21.25" height="0.833333" fill="#FFBB33"/>
<path d="M55.0002 46.2501H50.0002V55.4168L52.5002 52.9168L55.0002 55.4168V46.2501Z" fill="#0000FF"/>
<path d="M55.0001 46.2501H52.5001V52.9168L55.0001 55.4168V46.2501Z" fill="#0000FF"/>
<rect x="50.0002" y="46.2501" width="2.5" height="0.833333" fill="#6699FF"/>
<rect x="52.5001" y="46.2501" width="2.5" height="0.833333" fill="#6699FF"/>
<path d="M15.0004 38.7495L17.5004 41.2495H57.5004V39.9995H17.9171L16.2504 38.3328V34.1662L17.9171 32.4995H57.5004V31.2495H17.5004L15.0004 33.7495V38.7495Z" fill="#FEE94E"/>
<path d="M15.0004 38.7495L17.5004 41.2495H40.0004V39.9995H17.9171L16.2504 38.3328V34.1662L17.9171 32.4995H40.0004V31.2495H17.5004L15.0004 33.7495V38.7495Z" fill="#FFBB33"/>
<rect x="40" y="32.5002" width="16.25" height="7.5" fill="#FFF8C6"/>
<path d="M25.8333 47.9164H40V48.7497H25L25.8333 47.9164Z" fill="#DD5F00"/>
<rect x="40" y="44.5828" width="21.25" height="0.833333" fill="#FFBB33"/>
<path d="M34.9998 44.5828H39.9998V45.4161H34.1665L34.9998 44.5828Z" fill="#DD5F00"/>
<rect x="40" y="34.5831" width="16.25" height="0.833333" fill="#FEE94E"/>
<rect x="40" y="23.7499" width="12.5" height="0.833333" fill="#6699FF"/>
<rect x="40" y="26.2499" width="12.5" height="0.833333" fill="#6699FF"/>
<path d="M36.6666 23.7499H40V24.5832H35.8333L36.6666 23.7499Z" fill="#0000FF"/>
<path d="M28.3336 26.2499H40.0003V27.0832H28.3336V26.2499Z" fill="#0000FF"/>
<path d="M22.0835 34.5831H40.0002V35.4165H21.2502L22.0835 34.5831Z" fill="#FFBB33"/>
<path d="M37.4997 26.2499H32.4997V47.9165L34.9997 45.4165L37.4997 47.9165V26.2499Z" fill="#DD5F00"/>
<path d="M37.5002 26.2499H35.0002V45.4165L37.5002 47.9165V26.2499Z" fill="#DD5F00"/>
<rect x="32.4997" y="26.2499" width="5" height="0.833333" fill="#FFBB33"/>
<rect x="40" y="55.833" width="27.5" height="0.833333" fill="#6699FF"/>
<path d="M18.7499 55.833H39.9999V56.6663H17.9166L18.7499 55.833Z" fill="#0000FF"/>
</svg>
