<svg width="80" height="80" viewBox="0 0 80 80" fill="none" xmlns="http://www.w3.org/2000/svg">
<path d="M39.3109 58.2759V69.9999H24.8283L22.0698 67.2413V39.6095L31.0352 48.5749V58.2759H39.3109Z" fill="#0000B2"/>
<path d="M39.3102 65.1716V69.9991H52.4135L55.172 67.2405V58.2751H51.7238V65.1716H39.3102Z" fill="#0000FF"/>
<path d="M37.9313 14.1379L20.0005 32.0687L35.1727 47.2409L39.3106 43.103V54.1374H36.552L15.8856 33.425L15.8626 30.6894L36.552 10L39.3106 10.046V15.5172L37.9313 14.1379Z" fill="#0000FF"/>
<path d="M59.9996 33.448L39.3102 54.1374V43.1031L53.1031 29.3101L39.3102 15.5172V10.046L59.9996 30.7354V33.448Z" fill="#6699FF"/>
<path d="M53.1031 29.31L39.3102 43.1029V36.2065H42.0688V23.7928H39.3102V15.5171L53.1031 29.31Z" fill="#FEE94E"/>
<path d="M29.6555 30.0007V36.2075H39.3105V43.1039L35.1726 47.2418L20.0004 32.0696L37.9312 14.1388L39.3105 15.5181V23.7938H35.8623V30.0007H29.6555Z" fill="#FFBB33"/>
<path d="M64.1374 25.1729V58.2759H39.3102V56.8966H58.6203L61.3789 54.138V29.3107L58.6203 26.5521H55.8387L54.4364 25.1729H64.1374Z" fill="#FEE94E"/>
<path d="M39.3113 56.8969V58.2762H31.0355V48.5752L33.7941 51.3568V54.1383L36.5527 56.8969H39.3113Z" fill="#FFBB33"/>
<path d="M47.5868 43.1043V40.3457H44.8282L47.5868 43.1043Z" fill="#0000FF"/>
<path d="M49.6552 39.6548V38.2755H48.2759L49.6552 39.6548Z" fill="#0000FF"/>
<path d="M50.3443 38.9665V37.5872H48.965L50.3443 38.9665Z" fill="#0000FF"/>
<path d="M44.1381 42.4141V43.7934H45.5174L44.1381 42.4141Z" fill="#0000FF"/>
<path d="M43.448 43.1024V44.4817H44.8273L43.448 43.1024Z" fill="#0000FF"/>
<path d="M39.3103 23.7927V36.2064H29.6553V29.9995H35.8621V23.7927H39.3103Z" fill="#0000FF"/>
<path d="M42.0688 23.7927H39.3102V36.2064H42.0688V23.7927Z" fill="#6699FF"/>
<path d="M25.5175 29.3115V32.0701L26.8968 30.6908L25.5175 29.3115Z" fill="#0000FF"/>
<path d="M22.759 32.0692H25.5176L24.1383 30.6899L22.759 32.0692Z" fill="#0000FF"/>
<path d="M25.5175 34.8287V32.0701L24.1382 33.4494L25.5175 34.8287Z" fill="#0000FF"/>
<path d="M28.2761 32.0701H25.5175L26.8968 33.4494L28.2761 32.0701Z" fill="#0000FF"/>
<path d="M46.2065 25.1729V27.9314L47.5858 26.5521L46.2065 25.1729Z" fill="#DD5F00"/>
<path d="M43.448 27.9323H46.2066L44.8273 26.553L43.448 27.9323Z" fill="#DD5F00"/>
<path d="M46.2075 30.69V27.9314L44.8282 29.3107L46.2075 30.69Z" fill="#DD5F00"/>
<path d="M48.9651 27.9314H46.2065L47.5858 29.3107L48.9651 27.9314Z" fill="#DD5F00"/>
<path d="M35.1734 19.6559V16.8973L33.7941 18.2766L35.1734 19.6559Z" fill="#0000B2"/>
<path d="M37.9319 16.8973H35.1733L36.5526 18.2766L37.9319 16.8973Z" fill="#0000B2"/>
<path d="M35.1733 38.9655V41.724L36.5526 40.3447L35.1733 38.9655Z" fill="#6699FF"/>
<path d="M32.4138 41.725H35.1724L33.7931 40.3457L32.4138 41.725Z" fill="#6699FF"/>
<path d="M35.1734 44.4826V41.724L33.7941 43.1033L35.1734 44.4826Z" fill="#6699FF"/>
<path d="M37.9319 41.724H35.1733L36.5526 43.1033L37.9319 41.724Z" fill="#6699FF"/>
<path d="M54.4992 30.6884L53.1176 32.0701L54.4992 33.4517L55.8809 32.0701L54.4992 30.6884Z" fill="#DD5F00"/>
<path d="M37.9471 47.2378L36.5654 48.6195L37.9471 50.0012L39.3288 48.6195L37.9471 47.2378Z" fill="#FFBB33"/>
<path d="M35.863 53.4479H33.7941V51.356L35.863 53.4479Z" fill="#DD5F00"/>
<path d="M61.3793 29.3116V53.4492H40.0003L60 33.4494V30.6909L55.8392 26.553H58.6208L61.3793 29.3116Z" fill="#FFBB33"/>
<path d="M53.7938 39.6538V42.4124L52.4145 41.0331L53.7938 39.6538Z" fill="#0000FF"/>
<path d="M53.7938 42.4114V45.17H49.6559V43.7907L52.4145 41.0321L53.7938 42.4114Z" fill="#0000B2"/>
<path d="M59.3109 36.8943L53.7938 42.4115V39.6529L57.9316 35.515L59.3109 36.8943Z" fill="#0000B2"/>
<path d="M57.9316 38.2736V45.17H53.7938V42.4114L57.9316 38.2736Z" fill="#0000FF"/>
<path d="M51.0352 45.1689H49.6559V53.4447H51.0352V45.1689Z" fill="#DD5F00"/>
<path d="M48.2767 53.4446L51.0353 50.686V53.4446H48.2767Z" fill="#0000B2"/>
<path d="M57.9316 45.1689H56.5523V53.4447H57.9316V45.1689Z" fill="#FEE94E"/>
<path d="M51.0352 45.1689L49.6559 46.5482V45.1689H51.0352Z" fill="#0000FF"/>
<path d="M57.9316 46.5482L56.5523 45.1689H57.9316V46.5482Z" fill="#6699FF"/>
<path d="M56.5523 50.686L59.3109 53.4446H56.5523V50.686Z" fill="#0000B2"/>
<path d="M60.0005 40.3425L57.9316 42.4114V38.2736L60.0005 40.3425Z" fill="#DD5F00"/>
<path d="M39.3112 54.1379V56.8965H36.5527L33.7941 54.1379V53.4482H35.863L36.5527 54.1379H39.3112Z" fill="#0000B2"/>
<path d="M61.3789 53.4482V54.1379L58.6203 56.8965H39.3102V54.1379L39.9998 53.4482H61.3789Z" fill="#0000FF"/>
<path d="M51.7238 58.2751H39.3102V65.1716H51.7238V58.2751Z" fill="#6699FF"/>
<path d="M39.3104 58.2746V65.1711H25.5175V43.1024L31.0347 48.6196V58.2746H39.3104Z" fill="#0000FF"/>
<path d="M25.5175 65.1707L28.2761 62.4121V65.1707H25.5175Z" fill="#DD5F00"/>
<path d="M28.276 65.1707L31.0346 62.4121V65.1707H28.276Z" fill="#DD5F00"/>
<path d="M31.0355 65.1707L33.7941 62.4121V65.1707H31.0355Z" fill="#DD5F00"/>
<path d="M39.3102 65.1715L40.6895 63.7922L42.0688 65.1715H39.3102Z" fill="#DD5F00"/>
<path d="M42.0687 65.1715L43.448 63.7922L44.8273 65.1715H42.0687Z" fill="#FFBB33"/>
<path d="M40.6904 63.7923L43.449 61.0337L47.5868 65.1716H44.8282L43.449 63.7923L42.0697 65.1716L40.6904 63.7923Z" fill="#FEE94E"/>
<path d="M31.0347 48.6195L29.6554 49.9988H26.8968L25.5175 51.3781V53.447H31.0347V48.6195Z" fill="#6699FF"/>
</svg>
