<svg width="80" height="80" viewBox="0 0 80 80" fill="none" xmlns="http://www.w3.org/2000/svg">
<path d="M39.8147 69.934L28.0225 69.934L10.3374 52.3746L10.3374 27.7457L27.6907 10.0838L39.8147 10.0838V69.934Z" fill="#0000FF"/>
<path d="M39.7366 69.9348H52.4186L69.7148 52.3199V27.7465L52.3616 10.0846L39.7367 10.0845L39.7366 69.9348Z" fill="#6699FF"/>
<path d="M50.8926 13.5559L66.4098 28.938L66.4098 50.6821L51.173 66.3545L29.3445 66.4708L13.8273 51.0888L13.7112 29.2189L29.0642 13.6722L50.8926 13.5559Z" fill="#2A62DF"/>
<path d="M39.8712 62.9827H30.8793L17.3938 49.5931L17.3938 30.8127L30.6262 17.3449L39.8712 17.345V62.9827Z" fill="#0000B2"/>
<path d="M39.8114 62.9813H49.4818L62.6708 49.5494V30.8113L49.4384 17.3436L39.8114 17.3435L39.8114 62.9813Z" fill="#6699FF"/>
<path d="M35.7548 36.6985L39.6872 40.6552L24.3943 56.0421L35.7548 36.6985Z" fill="#DD5F00"/>
<path d="M43.6192 44.6132L39.6868 40.6566L24.3938 56.0435L43.6192 44.6132Z" fill="#FFBB33"/>
<path d="M35.7537 36.7006L39.6862 40.6573L54.9791 25.2704L35.7537 36.7006Z" fill="#FFBB33"/>
<path d="M43.6192 44.6132L39.6868 40.6566L54.9797 25.2697L43.6192 44.6132Z" fill="#FEE94E"/>
<path d="M35.7548 44.6132L39.6868 40.6566L54.9802 56.0435L35.7548 44.6132Z" fill="#FFBB33"/>
<path d="M43.6192 36.6985L39.6872 40.6552L54.9797 56.0421L43.6192 36.6985Z" fill="#FEE94E"/>
<path d="M35.7548 44.6111L39.6872 40.6545L24.3943 25.2676L35.7548 44.6111Z" fill="#FFBB33"/>
<path d="M43.6203 36.6985L39.6878 40.6552L24.3949 25.2683L43.6203 36.6985Z" fill="#FEE94E"/>
<path d="M32.0778 40H39.7449V70L32.0778 40Z" fill="#DD5F00"/>
<path d="M47.4124 40H39.7449V70L47.4124 40Z" fill="#FFBB33"/>
<path d="M32.0778 40H39.7449V10L32.0778 40Z" fill="#FFBB33"/>
<path d="M47.4124 40H39.7449V10L47.4124 40Z" fill="#FEE94E"/>
<path d="M39.7456 47.7138V39.9996H69.5624L39.7456 47.7138Z" fill="#FFBB33"/>
<path d="M39.7456 32.2862V40.0004L69.5624 40.0004L39.7456 32.2862Z" fill="#FEE94E"/>
<path d="M39.7466 47.7138V39.9996L10.2851 39.9996L39.7466 47.7138Z" fill="#DD5F00"/>
<path d="M39.7466 32.2862V40.0004H10.2851L39.7466 32.2862Z" fill="#FFBB33"/>
</svg>
