<svg width="80" height="80" viewBox="0 0 80 80" fill="none" xmlns="http://www.w3.org/2000/svg">
<path d="M24.2105 25.7894L10 40L24.2105 54.2105H55.7895L70 40L55.7895 25.7894H24.2105Z" fill="#FFBB33"/>
<path d="M24.2105 25.7894L10 40L24.2105 54.2105H40V25.7894H24.2105Z" fill="#DD5F00"/>
<path d="M45.2643 28.9476H34.738L28.4222 35.2634V44.7371L34.738 51.0529H45.2643L51.5801 44.7371V35.2634L45.2643 28.9476Z" fill="white"/>
<path d="M43.1107 33.6838H36.8906L33.1586 37.2929V42.7064L36.8906 46.3154H43.1107L46.8428 42.7064V37.2929L45.2638 38.947H43.1107L41.5796 37.368V35.2628L43.1107 33.6838Z" fill="#0000FF"/>
<path d="M40.0007 33.6838H36.8906L33.1586 37.2929V42.7064L36.8906 46.3154H40.0007V33.6838Z" fill="#000080"/>
</svg>
