<svg width="80" height="80" viewBox="0 0 80 80" fill="none" xmlns="http://www.w3.org/2000/svg">
<path d="M28.76 13.1807L51.0855 13.0622L66.9445 28.7188L66.9445 50.8531L51.3582 66.8194L29.0467 66.9378L13.1809 51.2745L13.0622 29.0115L28.76 13.1807Z" fill="#2A62DF" stroke="#FEE94E" stroke-width="6.11106"/>
<path d="M11.7336 28.4087L28.2235 11.7791L38.02 11.7791L38.016 68.2521H28.5129L11.7336 51.9117V28.4087Z" fill="#FFBB33" stroke="#FFBB33" stroke-width="3.39504"/>
<path d="M39.784 66.0438L29.5462 66.0438L14.1924 50.8614L14.1924 29.5664L29.2581 14.2954L39.784 14.2954L39.784 66.0438Z" fill="#000080"/>
<path d="M39.716 66.0437H50.7263L65.7425 50.8133V29.5663L50.6768 14.2952L39.716 14.2952L39.716 66.0437Z" fill="#0000FF"/>
<path fill-rule="evenodd" clip-rule="evenodd" d="M42.8741 44.4464L36.2746 51.2435L26.3609 51.1376L26.3609 44.9098L33.6674 37.6193L39.7904 37.6193L42.8741 37.6193L42.8741 44.4464ZM30.0724 45.6346L30.0724 48.2051L35.2249 48.2051L39.7333 43.7066L39.7333 40.7076L35.0102 40.7076L30.0724 45.6346Z" fill="#DD5F00"/>
<path fill-rule="evenodd" clip-rule="evenodd" d="M39.7363 33.9191L46.2644 27.1954L56.071 27.3002L56.071 33.4606L48.8434 40.6723L42.8725 40.6723L42.8725 44.4632L39.7145 47.7086L39.6693 43.7705L39.7363 33.9191ZM52.532 32.6517L52.532 30.0811L47.3795 30.0811L42.8711 34.5796L42.8711 37.5787L47.5942 37.5787L52.532 32.6517Z" fill="#FEE94E"/>
<path d="M43.5574 35.1826L36.8781 41.6387L37.0039 43.1709L38.6713 43.4857L45.3506 37.0297L45.2414 35.3592L43.5574 35.1826Z" fill="#FFBB33"/>
</svg>
