<svg width="80" height="80" viewBox="0 0 80 80" fill="none" xmlns="http://www.w3.org/2000/svg">
<path d="M29.0769 26.2832H39.9999V69.975H33.6282H29.0769L16.3335 57.2316V39.0267L29.0769 26.2832Z" fill="#FFBB33"/>
<path d="M29.1385 26.2832H16.3335V39.0226L29.1385 26.2832Z" fill="#DD5F00"/>
<path d="M16.3335 57.2238L16.3335 69.9999L29.0907 69.9612L16.3335 57.2238Z" fill="#DD5F00"/>
<path d="M50.8802 26.2832H39.9573V69.975H46.329H50.8802L63.6237 57.2316V39.0267L50.8802 26.2832Z" fill="#FEE94E"/>
<path d="M37.5606 38.9652H39.9994V48.7204H38.5768H37.5606L34.7153 45.8751V41.8105L37.5606 38.9652Z" fill="#0000FF"/>
<path d="M37.5593 57.1661V48.7196H40V58.5395H38.8068L37.5593 57.1661Z" fill="#0000FF"/>
<path d="M42.4407 57.1661V48.7196H40V58.5395H41.1932L42.4407 57.1661Z" fill="#6699FF"/>
<path d="M42.4376 38.9652H39.9988V48.7204H41.4214H42.4376L45.2828 45.8751V41.8105L42.4376 38.9652Z" fill="#6699FF"/>
<path d="M50.8905 26.2832H63.6665V39.0226L50.8905 26.2832Z" fill="#FFBB33"/>
<path d="M63.6665 57.2238L63.6665 69.9999L50.9093 69.9612L63.6665 57.2238Z" fill="#FFBB33"/>
<path d="M26.4191 26.282V19.9936L33.4133 12.9994H40.0527" stroke="#FFBB33" stroke-width="5.7438"/>
<path d="M53.6437 26.282V19.9936L46.4892 12.9994H40.025" stroke="#FEE94E" stroke-width="5.7438"/>
<path d="M29.4202 21.2365L23.4187 26.2906L23.4187 21.2365L29.4202 21.2365Z" fill="#DD5F00"/>
<path d="M40.0526 16.0013L34.9985 9.99987L40.0526 9.99987L40.0526 16.0013Z" fill="#DD5F00"/>
<path d="M40.0518 16.0013L45.106 9.99987L40.0518 9.99987L40.0518 16.0013Z" fill="#FFBB33"/>
<path d="M56.6768 26.2847L50.6338 21.2868L56.6768 21.2868L56.6768 26.2847Z" fill="#FFBB33"/>
</svg>
