<svg width="80" height="80" viewBox="0 0 80 80" fill="none" xmlns="http://www.w3.org/2000/svg">
<path d="M45.8699 40.6521L46.522 41.3043V46.5216L43.2612 43.2608L45.8699 40.6521Z" fill="#FEE94E"/>
<path d="M54.3473 49.1325L62.1733 56.9585V62.1759L54.3473 54.3499V49.1325Z" fill="#FEE94E"/>
<path d="M12.6087 38.6973L20.4348 46.5234H36.0868L41.3042 41.306L43.2607 43.2625L37.3912 49.1321H20.4348L10.0001 38.6973L10.0001 20.4366L15.2174 15.2192L16.9565 16.9584L12.6087 21.3062L12.6087 38.6973Z" fill="#FFBB33"/>
<path d="M38.6959 10L49.1306 20.4347V37.3911L43.2612 43.2608L41.3046 41.3041L46.5219 36.0868V20.6521L38.6959 12.6087H21.3047L16.9569 16.9565L15.2178 15.2174L20.4352 10H38.6959Z" fill="#FEE94E"/>
<path d="M43.2602 43.2633L46.521 46.5242V49.1328H43.9123L40.6515 45.872L43.2602 43.2633Z" fill="#FFBB33"/>
<path d="M54.3473 54.3489L62.1733 62.1749V64.7836H59.5646L54.3473 59.5662V54.3489Z" fill="#FFBB33"/>
<path d="M38.6961 12.6104L46.5221 20.6538V36.0885L41.3042 41.306L39.3482 39.3493L43.9134 34.7841V23.0451L35.87 15.0017L22.1745 15.2191L18.6962 18.6973L16.9565 16.9584L21.3049 12.6104L38.6961 12.6104Z" fill="#FFBB33"/>
<path d="M15.2174 36.0891L23.0434 43.9151H34.7824L39.3476 39.3499L41.3042 41.306L36.0868 46.5234H20.4348L12.6087 38.6973L12.6087 21.3062L16.9565 16.9584L18.6956 18.6979L15.2174 22.1761V36.0891Z" fill="#DD5F00"/>
<path d="M64.7825 64.7817L69.9999 69.999H59.5652V64.7817H64.7825Z" fill="#0000B2"/>
<path d="M69.9989 59.5653V70L64.7816 64.7826V59.5653H69.9989Z" fill="#6699FF"/>
<path d="M46.5212 46.5213L54.3472 54.3473V59.5647L46.5212 51.7386V46.5213Z" fill="#FFBB33"/>
<path d="M49.1299 43.9136V46.5222H51.7385L54.3472 49.1309L54.3473 54.3489L46.5212 46.5222V41.3049L49.1299 43.9136Z" fill="#FEE94E"/>
<path d="M62.1734 56.9571L64.7816 59.5653V64.7826L62.1733 62.1749L62.1734 56.9571Z" fill="#FEE94E"/>
<path d="M62.1733 62.1749L64.7818 64.7839L62.1733 64.7836V62.1749Z" fill="#FFBB33"/>
<path d="M28.5 28.5019L33.7492 33.751L25.0006 33.751L23.2508 32.0013V30.2516L25.0006 28.5019H28.5Z" fill="#0000FF"/>
<path d="M31.9998 23.2538L33.7496 25.0035L33.7496 33.7522L28.5004 28.503V25.0035L30.2501 23.2538H31.9998Z" fill="#79A3FF"/>
</svg>
