<svg width="80" height="80" viewBox="0 0 80 80" fill="none" xmlns="http://www.w3.org/2000/svg">
<path d="M20 10L16.6666 13.3333V40.0001H63.3334V13.3333L60 10H50L46.6667 13.3333L43.3333 10H20Z" fill="#FEE94E"/>
<path d="M20 10L16.6666 13.3333V40.0001H40V10H20Z" fill="#FFBB33"/>
<path d="M63.3334 38.3329H16.6666V46.6662L20 49.9996H60L63.3334 46.6662V38.3329Z" fill="#0000FF"/>
<path d="M40 38.3329H16.6666V46.6662L20 49.9996H40V38.3329Z" fill="#000080"/>
<path d="M39.9999 70V50H31.6666L34.9999 53.3333V60L33.3333 61.6667V67.7778L35.5555 70H39.9999Z" fill="#000080"/>
<path d="M39.9999 70V50H48.3333L44.9999 53.3333V60L46.6666 61.6667V67.7778L44.4444 70H39.9999Z" fill="#0000FF"/>
<rect x="16.6666" y="39.9991" width="23.3334" height="1.66667" fill="#FFBB33"/>
<rect x="39.9999" y="39.9991" width="23.3334" height="1.66667" fill="#FEEF7E"/>
<path d="M38.3333 62.2224H41.6666L43.3333 63.8891V65.5558L41.6666 67.2224H38.3333L36.6666 65.5558V63.8891L38.3333 62.2224Z" fill="white"/>
<path d="M16.6666 13.3333V20V23.3334L21.6666 18.3333H28.3333H30.5555L33.3333 21.1111V26.6667L35.5555 28.8889H37.7778L40 26.6667V20.5556L42.2222 18.3333H51.6667L55 21.6667V30L56.6667 31.6667H58.3334L60 30V23.3334L63.3334 20V13.3333L60 10H50L46.6667 13.3333L43.3333 10H20L16.6666 13.3333Z" fill="#0000FF"/>
<path d="M46.6666 13.3333L43.3333 10H39.9999V20.5556L42.2222 18.3333H51.6666L55 21.6667V30L56.6666 31.6667H58.3333L60 30V23.3334L63.3333 20V13.3333L60 10H50L46.6666 13.3333Z" fill="#6699FF"/>
<path d="M46.6666 38.3335V18.3334L48.8888 16.1112V38.3335H46.6666Z" fill="#FFBB33"/>
<path d="M50.5636 38.3329V18.3329H51.6689V38.3329H50.5636Z" fill="#FFBB33"/>
<path d="M20.5554 38.3329V19.444L21.6665 18.3329V38.3329H20.5554Z" fill="#DD5F00"/>
<path d="M23.3333 29.9996V18.3329H24.4444V31.1107L23.3333 29.9996Z" fill="#DD5F00"/>
<path d="M46.6666 18.3331V13.3331L48.8888 11.1108V18.3331H46.6666Z" fill="#0000FF"/>
<path d="M20.5554 19.4448V13.3337L21.6665 11.9448V18.3337L20.5554 19.4448Z" fill="#000080"/>
<path d="M23.3333 18.3333V10H24.4444V18.3333H23.3333Z" fill="#000080"/>
</svg>
