<svg width="80" height="80" viewBox="0 0 80 80" fill="none" xmlns="http://www.w3.org/2000/svg">
<path d="M39.2692 65.5354L31.676 58.1871L27.8795 61.8612L31.676 65.5354L39.2692 65.5354Z" fill="#DD5F00"/>
<path d="M39.2693 65.5354L46.8625 58.1871L50.6591 61.8612L46.8625 65.5354L39.2693 65.5354Z" fill="#DD5F00"/>
<path d="M51.3939 31.7322V51.9398L43.3109 60.0228H39.1009H35.2278L27.1448 51.9398V31.7322H51.3939Z" fill="#FFBB33"/>
<path d="M51.3938 31.7322V51.9398L43.3107 60.0228H39.2692L39.2692 31.7322H51.3938Z" fill="#FEEF7E"/>
<path d="M33.207 58.0026H45.3315L43.3108 60.0233H39.1009H35.2277L33.207 58.0026Z" fill="#DD5F00"/>
<path d="M39.2692 60.0233V58.0026H45.3315L43.3107 60.0233H39.2692Z" fill="#FFBB33"/>
<path d="M37.2488 53.9599L31.1865 47.8976H47.3526L41.2903 53.9599H37.2488Z" fill="white"/>
<path d="M37.2488 53.9599L31.1865 47.8976H39.2696V53.9599H37.2488Z" fill="#FEEF7E"/>
<path d="M33.2073 41.8353L31.1865 43.8561H36.912L35.228 41.8353H33.2073Z" fill="#DD5F00"/>
<path d="M45.3321 41.8353L47.3528 43.8561H41.2906L43.3113 41.8353H45.3321Z" fill="#FFBB33"/>
<path d="M45.3318 37.7944L43.311 39.8152H47.3526L45.3318 37.7944Z" fill="#DD5F00"/>
<path d="M33.2073 37.7944L31.1865 39.8152H35.228L33.2073 37.7944Z" fill="#DD5F00"/>
<rect x="27.1448" y="31.7322" width="12.1246" height="1.68397" fill="#DD5F00"/>
<rect x="39.2692" y="31.7322" width="12.1246" height="1.68397" fill="#FFBB33"/>
<path d="M66.0244 41.0387V45.8094L62.0488 41.8338V40.2436L62.8439 39.4485H64.4342L66.0244 41.0387Z" fill="#DD5F00"/>
<path d="M70 40.2436V41.8338L66.0245 45.8094V41.0387L67.6147 39.4485H69.2049L70 40.2436Z" fill="#FFBB33"/>
<path d="M58.6763 24.5059V29.2765L54.7008 25.301V23.7108L55.4959 22.9156H57.0861L58.6763 24.5059Z" fill="#DD5F00"/>
<path d="M62.652 23.7108V25.301L58.6765 29.2765V24.5059L60.2667 22.9156H61.8569L62.652 23.7108Z" fill="#FFBB33"/>
<path d="M20.0979 24.5059V29.2765L16.1223 25.301V23.7108L16.9174 22.9156H18.5076L20.0979 24.5059Z" fill="#DD5F00"/>
<path d="M24.0735 23.7108V25.301L20.098 29.2765V24.5059L21.6882 22.9156H23.2784L24.0735 23.7108Z" fill="#FFBB33"/>
<path d="M38.8357 16.0549V20.8256L34.8601 16.85V15.2598L35.6552 14.4647H37.2454L38.8357 16.0549Z" fill="#DD5F00"/>
<path d="M42.8113 15.2598V16.85L38.8358 20.8256V16.0549L40.426 14.4647H42.0162L42.8113 15.2598Z" fill="#FFBB33"/>
<path d="M13.9181 40.9181L13.9181 45.8782L10 41.8338V40.2436L10.7951 39.4485H12.3853L13.9181 40.9181Z" fill="#DD5F00"/>
<path d="M17.8937 40.2436V41.8338L13.9182 45.8782V40.9181L15.5084 39.4485H17.0986L17.8937 40.2436Z" fill="#FFBB33"/>
</svg>
