<svg width="80" height="80" viewBox="0 0 80 80" fill="none" xmlns="http://www.w3.org/2000/svg">
<path d="M25.4946 13.956V60.1099L27.4726 62.0879H40V63.6264L37.8022 65.8242L40 68.022V70H31.4286L30.088 68.6593L28.7913 70H26.1539L24.1759 68.022V12.6374L26.8132 10H40V11.3187H28.1319L25.4946 13.956Z" fill="#000080"/>
<path d="M40 12.6372V56.1537H25.4945V13.9559L26.8132 12.6372H40Z" fill="#FFBB33"/>
<path d="M54.5052 13.9559V56.1537H39.9997V12.6372H53.1865L54.5052 13.9559Z" fill="#FEEF7E"/>
<path d="M39.9996 63.6267V68.0223L37.8018 65.8245L39.9996 63.6267Z" fill="#DD5F00"/>
<path d="M42.1975 65.8245L39.9997 68.0223V63.6267L42.1975 65.8245Z" fill="#FFBB33"/>
<path d="M55.8239 12.6374V68.022L53.8458 70H39.9997V68.022L42.1975 65.8242L39.9997 63.6264V62.0879H52.5272L54.5052 60.1099V13.956L51.8678 11.3187H39.9997V10H53.1865L55.8239 12.6374Z" fill="#0000FF"/>
<path d="M23.2966 22.3071L24.1757 23.1862V17.9115L23.2966 18.7906V22.3071Z" fill="#6699FF"/>
<path d="M56.7034 18.7906L55.8243 17.9115V25.8236L56.7034 24.9445V18.7906Z" fill="#0000B2"/>
<path d="M23.2966 30.2202L24.1757 31.0993V25.8246L23.2966 26.7037V30.2202Z" fill="#6699FF"/>
<path d="M53.1867 12.638H26.813L28.1317 11.3193H51.868L53.1867 12.638Z" fill="#DD5F00"/>
<path d="M54.5052 56.1544V60.1105L52.5272 62.0885H39.9997V56.1544H54.5052Z" fill="#FFBB33"/>
<path d="M40 56.1544V62.0885H27.4725L25.4945 60.1105V56.1544H40Z" fill="#DD5F00"/>
<path d="M39.9999 15.2744H26.813V42.9667H39.9999V15.2744Z" fill="#DD5F00"/>
<path d="M53.1865 15.2744H39.9997V42.9667H53.1865V15.2744Z" fill="#FFBB33"/>
<path d="M32.0878 44.2864H26.813L28.7911 46.2644H35.3845L37.3625 44.2864H32.0878Z" fill="#FEEF7E"/>
<path d="M49.2457 45.6026L47.9247 46.9236L49.2457 48.2445L50.5667 46.9236L49.2457 45.6026Z" fill="#000080"/>
<path d="M50.5643 44.2832L49.2433 45.6041L50.5643 46.9251L51.8853 45.6041L50.5643 44.2832Z" fill="#000080"/>
<path d="M47.9271 44.2832L46.6061 45.6041L47.9271 46.9251L49.2481 45.6041L47.9271 44.2832Z" fill="#000080"/>
<path d="M32.0877 31.0942L29.4457 33.7361L32.0877 36.378L34.7296 33.7361L32.0877 31.0942Z" fill="#0000FF"/>
<path d="M34.725 37.4731V42.9676H29.4502V37.4731L30.7689 36.1544L32.0876 37.4731L33.4063 36.1544L34.725 37.4731Z" fill="#0000FF"/>
<path d="M39.9999 32.6372V37.9119L37.3625 35.2746L39.9999 32.6372Z" fill="#0000FF"/>
<path d="M39.9999 39.0113V42.9674H37.3625V39.0113L38.6812 37.6926L39.9999 39.0113Z" fill="#0000FF"/>
<path d="M47.9115 29.9953L45.2696 32.6372L47.9115 35.2791L50.5534 32.6372L47.9115 29.9953Z" fill="#6699FF"/>
<path d="M50.5495 36.3726V42.966H45.2748V36.3726L46.5935 35.054L47.9122 36.3726L49.2309 35.054L50.5495 36.3726Z" fill="#6699FF"/>
<path d="M42.6371 35.2746L39.9997 37.9119V32.6372L42.6371 35.2746Z" fill="#6699FF"/>
<path d="M42.6371 39.0113V42.9674H39.9997V39.0113L41.3184 37.6926L42.6371 39.0113Z" fill="#6699FF"/>
<path d="M39.9999 49.5607H26.813V51.0991H39.9999V49.5607Z" fill="#0000FF"/>
<path d="M53.1865 49.5607H39.9997V51.0991H53.1865V49.5607Z" fill="#6699FF"/>
<path d="M39.9999 52.6372H26.813V54.1757H39.9999V52.6372Z" fill="#0000FF"/>
<path d="M47.9118 52.6372H39.9997V54.1757H47.9118V52.6372Z" fill="#6699FF"/>
</svg>
