<svg width="60" height="60" viewBox="0 0 60 60" fill="none" xmlns="http://www.w3.org/2000/svg">
<path fill-rule="evenodd" clip-rule="evenodd" d="M54.9469 29.9734C54.9469 37.2067 51.8911 43.7009 46.9913 48.2943C44.6204 50.459 41.8806 52.2013 38.8248 53.3629C36.8754 54.1021 34.768 54.63 32.6078 54.8412C32.0809 54.894 31.5014 54.9468 30.9745 54.9468C30.6584 54.9468 30.3423 54.9468 29.9735 54.9468C28.8671 54.9468 27.7606 54.894 26.7069 54.7356C22.9135 54.2605 19.3835 52.8877 16.3276 50.8814C16.0115 50.6702 15.7481 50.5118 15.4846 50.3006C14.9578 49.931 14.4836 49.5614 13.9567 49.1391C11.3751 46.9743 9.21493 44.2816 7.68702 41.2722C6.73866 39.3714 6.00105 37.3123 5.52687 35.1476C5.31612 34.0389 5.15806 32.9301 5.05269 31.8213C5 31.2406 5 30.607 5 29.9734C5 25.0632 6.42254 20.417 8.89882 16.5627C9.95255 14.926 11.1643 13.3949 12.5869 12.0749C17.0652 7.69269 23.2296 5 29.9735 5C30.5003 5 31.0799 5 31.6068 5.0528C33.7669 5.21119 35.8744 5.63358 37.8238 6.26715C38.456 6.47834 39.0356 6.68953 39.6151 6.95352C40.0366 7.11192 40.4581 7.32311 40.8796 7.5343C43.3032 8.69585 45.516 10.2798 47.4128 12.1805C48.3611 13.1309 49.2568 14.134 50.0471 15.19C52.5234 18.5691 54.2093 22.5289 54.7362 26.9111C54.8416 27.8615 54.9469 28.9175 54.9469 29.9734Z" fill="url(#paint0_radial_4863_144923)"/>
<path fill-rule="evenodd" clip-rule="evenodd" d="M40.932 7.48113C40.8266 7.48113 40.7739 7.48112 40.6686 7.53392C40.4051 7.58672 40.1417 7.53392 39.8783 7.48113C39.6675 7.42833 39.5622 7.32273 39.2987 7.32273C38.9826 7.26993 38.7192 7.16434 38.4031 7.11154C38.0869 7.05874 37.8235 6.95315 37.5074 6.84755C37.2439 6.74195 37.1386 6.79475 36.9278 6.84755C36.7171 6.90035 36.559 6.79475 36.3483 6.74195C36.1375 6.63636 35.8741 6.63636 35.6633 6.58356C35.0311 6.47796 34.3989 6.26677 33.7666 6.10838C33.3978 6.00278 33.029 6.00278 32.6075 6.00278C32.2914 6.00278 32.028 6.10838 31.7118 6.10838C31.5011 6.10838 31.343 6.05558 31.1323 6.05558C30.9215 6.00278 30.7108 6.05558 30.5001 6.05558C30.1839 6.00278 30.0259 5.94999 29.7098 6.05558C29.4463 6.10838 29.2883 6.10838 29.0248 6.16118C28.7614 6.16118 28.4453 6.26677 28.1818 6.31957C27.7077 6.42517 27.1808 6.53076 26.7066 6.53076C26.3905 6.53076 25.969 6.42517 25.7056 6.53076C25.5475 6.58356 25.4421 6.79475 25.2841 6.90035C25.0206 7.16434 24.7572 7.37553 24.5465 7.63952C24.3357 7.90351 24.125 8.2203 24.125 8.58988C24.125 8.90667 24.283 9.27625 24.4411 9.54024C24.5992 9.85703 24.6518 10.121 24.3357 10.3322C23.9669 10.5962 23.4927 10.8074 23.0712 10.9658C22.7551 11.0714 22.4917 11.1242 22.2809 10.913C22.1756 10.8602 22.1229 10.7018 22.0175 10.5962C21.9121 10.5434 21.7541 10.5962 21.6487 10.649C21.3326 10.7546 21.0165 10.8602 20.7003 10.913C20.4896 10.9658 20.3315 11.0714 20.1208 11.0714C19.91 11.1242 19.752 10.9658 19.4885 11.0186C19.1724 11.0714 18.8036 11.2298 18.4875 11.2298C18.2241 11.2298 17.9079 11.1242 17.6972 11.0186C17.5918 10.9658 17.5391 10.8602 17.3811 10.913C17.2757 10.913 17.1177 11.0714 17.065 11.177C16.9596 11.2826 16.9596 11.441 16.8542 11.5466C16.7488 11.705 16.6962 11.8106 16.5908 11.9689C16.4327 12.2329 16.2747 12.4969 16.1166 12.7609C16.0112 12.9193 15.9059 13.1833 15.7478 13.3417C15.6951 13.4473 15.537 13.5001 15.4317 13.5529C15.1682 13.7113 14.9048 13.9225 14.6414 14.0809C14.1672 14.4504 13.693 14.8728 13.2188 15.2424C12.85 15.5064 12.3232 15.6648 11.9017 15.876C11.6382 15.9816 11.3748 16.0872 11.1114 16.1928C11.006 16.2456 10.8479 16.2456 10.7952 16.3512C10.6899 16.4568 10.6372 16.5624 10.5845 16.7208C10.3738 16.9847 10.1103 17.3015 9.95227 17.6183C9.84689 17.8295 9.79421 17.9879 9.68883 18.1991C9.58346 18.4631 9.4254 18.7271 9.37271 19.0439C9.16196 19.6246 9.16197 20.2582 8.89853 20.839C8.79316 21.1558 8.58241 21.4726 8.42435 21.7894C8.16092 22.3173 8.10823 22.9509 8.05554 23.5317C8.00286 23.8485 8.05555 24.2709 8.10823 24.5876C8.16092 24.9572 8.16092 25.3268 8.16092 25.6964C8.16092 26.066 7.89749 26.4884 7.68674 26.7524C7.47599 27.0164 7.10718 27.1219 6.84375 27.3859C6.633 27.5971 6.36957 27.8083 6.2642 28.1251C6.21152 28.2307 6.2642 28.3891 6.2642 28.5475C6.21152 28.8643 6.10614 29.1283 6.10614 29.4451C6.05345 29.8146 6.05345 30.1842 6.05345 30.6066C6.05345 30.8178 6.05345 30.9762 6.05345 31.1874C6.05345 31.3986 6.10614 31.557 6.15882 31.7154C6.15882 31.821 6.15882 31.9794 6.15882 32.085C6.15882 32.2433 6.2642 32.4017 6.2642 32.5073C6.36957 32.8769 6.42226 33.1937 6.47495 33.5633C6.52763 33.8801 6.68569 34.1969 6.73838 34.5137C6.89644 34.936 6.94913 35.3584 7.0545 35.8336C7.10719 36.1504 7.10719 36.52 7.15987 36.8368C7.21256 37.1008 7.26524 37.3647 7.26524 37.6287C7.26524 38.0511 7.15987 38.4207 7.15987 38.8431C7.15987 39.5295 7.42331 40.2158 7.58137 40.9022C7.63405 41.1134 7.68673 41.2718 7.73942 41.483C6.00076 38.1039 5.05241 34.2497 5.05241 30.1842C5.05241 25.2212 6.47494 20.6278 8.95122 16.7736C10.0049 15.1368 11.2167 13.6057 12.6393 12.2857C17.1176 7.90351 23.282 5.21082 30.0259 5.21082C30.5527 5.21082 31.1323 5.21081 31.6592 5.26361C34.9257 5.21081 38.0869 6.10838 40.932 7.48113Z" fill="url(#paint1_linear_4863_144923)"/>
<g opacity="0.5">
<g opacity="0.4">
<path opacity="0.4" fill-rule="evenodd" clip-rule="evenodd" d="M27.0761 36.9428V36.89C27.2342 37.0483 27.3923 37.2067 27.3923 37.4179C27.2869 37.3651 27.1288 37.0483 27.0761 36.9428Z" fill="url(#paint2_linear_4863_144923)"/>
<path fill-rule="evenodd" clip-rule="evenodd" d="M54.7365 26.8582C54.6311 26.647 54.5257 26.4886 54.3676 26.3302C54.1042 25.9606 53.7354 25.8022 53.3139 25.6966C52.9978 25.591 52.6817 25.4326 52.4182 25.6966C52.1548 25.9606 51.9441 26.3302 51.786 26.5942C51.6806 26.8054 51.5226 27.2277 51.2591 27.2805C50.9957 27.3333 50.6796 26.9638 50.4688 26.7526C50.2054 26.4886 50.0473 26.0662 49.7839 25.855C49.5732 25.6966 49.257 25.5382 49.0463 25.4854C48.5721 25.2742 48.0452 25.2214 47.5184 25.1686C47.1496 25.1686 46.8861 24.9574 46.57 24.799C46.2539 24.6406 45.8324 24.5878 45.5163 24.535C45.2002 24.4823 44.884 24.4295 44.5679 24.3239C44.2518 24.2711 43.9884 24.2183 43.7249 23.9543C43.4615 23.6375 43.2508 23.2151 42.9346 22.9511C42.3551 22.4231 41.7228 22.7927 40.9852 22.7927C40.4057 22.7927 39.9315 22.4231 39.3519 22.2647C38.667 22.1063 38.0875 22.0007 37.666 21.42C37.2972 20.892 37.4025 20.2584 37.1918 19.6776C36.7703 18.5161 35.1897 18.1993 34.0833 18.0937C33.1876 18.0409 32.3973 18.3577 31.5543 18.3577C30.8167 18.3577 30.1845 18.1993 29.7103 18.8329C29.1834 19.5192 28.6566 20.2584 28.2351 20.9976C27.9189 21.5784 27.3921 22.1591 27.1813 22.8455C27.076 23.2151 27.076 23.5847 27.0233 23.9543C26.9179 24.3767 26.6018 24.9574 26.3383 25.327C26.0749 25.6966 25.548 25.9606 25.1265 26.1718C24.7577 26.383 24.4943 26.647 24.1782 26.9638C23.8094 27.3333 23.4406 27.7029 23.1771 28.1253C23.0718 28.3365 22.9664 28.5477 22.7556 28.7061C22.5976 28.8645 22.3868 28.9173 22.2288 29.0757C22.0707 29.1813 21.9654 29.3397 21.86 29.4981C21.6492 29.7092 21.2804 29.8676 20.9643 29.9204C20.4374 29.9204 19.9106 29.4981 19.4891 30.0788C19.2256 30.3956 18.9095 30.9764 18.9622 31.3988C19.0149 31.7684 19.331 32.0852 19.5418 32.4019C19.9106 32.8771 20.7009 33.7219 20.5428 34.4083C20.4901 34.6722 20.2267 34.8306 20.3321 35.1474C20.3848 35.4114 20.4374 35.6754 20.4374 35.9922C20.4374 36.2034 20.3321 36.573 20.4374 36.7314C20.5955 36.9426 21.0697 37.1537 21.3331 37.2065C21.86 37.4177 22.3342 37.7873 22.861 38.0513C23.2298 38.2625 23.4406 38.5265 23.8094 38.6321C24.1782 38.7377 24.4943 38.6849 24.8631 38.7377C25.0739 38.7905 25.3373 38.7905 25.548 38.8433C25.7061 38.8961 25.8642 39.0017 26.0222 39.0545C26.6545 39.2129 27.3921 39.0545 28.077 39.0545C28.4985 39.0545 28.92 39.1601 29.2888 38.9489C29.7103 38.6849 29.8157 38.3681 29.8157 37.8929C29.8157 37.4705 29.6049 37.101 29.4469 36.6786C29.3942 36.4674 29.3415 36.2034 29.1834 35.9922C29.0781 35.8338 28.92 35.8338 28.7619 35.7282C28.5512 35.5698 28.4985 35.4114 28.1824 35.3586C27.9716 35.3058 27.7609 35.4114 27.5501 35.517C27.2867 35.7282 26.8125 36.1506 26.8652 36.5202C26.9179 36.6786 27.0233 36.837 27.1813 36.9426C27.1813 36.7842 27.234 36.6258 27.2867 36.4146C27.8136 36.5202 28.6039 36.6786 28.9727 37.101C28.8673 37.4705 28.3931 37.7345 28.077 37.7345C27.4448 37.7345 26.8125 37.8401 26.3383 37.3649C25.9169 36.9954 25.9168 36.4674 25.6534 35.9922C25.548 35.7282 25.4427 35.517 25.2319 35.3058C25.0739 35.1474 24.9685 34.989 24.8631 34.7778C24.6524 34.4611 24.4416 33.9859 24.7577 33.6691C25.0739 33.3523 25.6534 33.1411 26.0222 32.9299C26.6018 32.6131 27.234 32.2963 27.8136 31.9268C28.6566 31.4516 29.3415 30.818 30.3425 30.7652C31.1328 30.7124 32.0812 30.8708 32.7134 31.3988C33.1349 31.7684 33.2403 32.1907 33.451 32.6659C33.6618 33.0883 33.9779 33.4051 34.294 33.6691C34.7682 33.9859 35.2424 34.3027 35.6639 34.6194C36.2434 35.0418 36.7176 35.2002 37.1391 35.8338C37.7713 36.8898 38.0875 38.0513 38.4036 39.2657C38.6143 39.8464 38.7197 40.4272 38.8251 41.0608C38.9305 41.536 39.1412 41.9056 39.3519 42.3807C39.51 42.8031 39.6681 43.1199 39.8788 43.4895C39.9842 43.6479 40.0896 43.8063 40.1422 44.0175C40.3003 44.7566 39.5627 45.2846 39.1939 45.8654C38.7724 46.499 38.2982 47.027 38.0875 47.7661C37.9294 48.3469 38.1402 48.6109 38.2455 49.1389C38.4563 50.0364 38.0348 50.5644 37.4552 51.198C37.1391 51.5148 36.823 51.7788 36.4015 51.99C35.2951 52.4651 34.294 53.3099 33.451 54.2075C33.3457 54.4715 32.8715 54.8411 32.6607 54.9994C34.8209 54.7883 36.9284 54.2603 38.8778 53.5211C41.9336 52.3595 44.6733 50.6172 47.0442 48.4525C51.9441 43.9119 54.9999 37.3649 54.9999 30.1316C54.9472 28.9173 54.8418 27.8613 54.7365 26.8582ZM26.8652 27.1749C26.7598 27.4917 25.9695 27.6501 25.6534 27.7557C25.548 27.8085 25.39 27.8613 25.2846 27.7557C25.0212 27.5445 25.9168 26.8054 25.9168 26.8582L25.6534 26.7526C25.9168 26.7526 25.9695 26.4358 26.1803 26.4886C26.233 26.4886 26.4437 26.5942 26.4964 26.647C26.7072 26.6998 26.9706 26.911 26.8652 27.1749ZM35.2951 21.3672C35.0843 22.4759 33.8198 23.3207 32.8188 23.6375C32.2919 23.7959 31.8178 23.9015 31.2909 23.9015C30.8167 23.9015 30.2898 24.0071 29.8157 23.9015C28.9727 23.6903 28.7619 23.1095 29.0254 22.7399C28.8673 22.3175 28.6566 21.948 28.8146 21.5256C28.9727 21.2088 29.1307 20.892 29.3415 20.628C29.7103 20.1 30.2372 20.1 30.8167 19.8888C31.9758 19.5192 33.2403 19.0969 34.3994 19.7304C34.9263 20.1 35.4004 20.6808 35.2951 21.3672ZM46.4646 44.8094C45.9905 46.235 44.7787 46.9214 43.4615 47.3965C42.7766 47.6605 42.1443 48.0301 41.4594 48.2941C40.9852 48.5053 40.6691 48.6109 40.2476 48.4525C39.6681 48.1885 39.51 47.6605 39.7734 47.0798C40.1422 46.4462 40.8272 45.9182 40.6691 45.1262C40.5637 44.5983 40.5111 44.1759 40.6164 43.6479C40.7218 42.8559 40.7218 42.064 40.7218 41.272C40.1949 42.2751 40.1422 41.4304 40.1949 40.8496C40.1949 40.3744 40.353 40.1632 40.7745 39.8992C42.0917 39.0017 43.883 39.8464 45.0421 40.5856C45.7797 41.0608 46.3066 41.8528 46.6227 42.6447C46.8335 43.3839 46.7281 44.1231 46.4646 44.8094ZM46.0432 29.9204C45.6743 29.9732 45.0948 29.4453 44.8314 29.2341C44.5679 29.0229 44.3572 28.7061 44.1464 28.4421C43.9357 28.2309 43.6722 27.9669 43.5142 27.7029C43.3561 27.3861 43.2508 27.0165 43.0927 26.647C42.882 26.119 42.7239 25.6966 42.4078 25.1686C42.3024 25.4854 42.3024 25.1686 42.5131 25.063C42.7239 24.9574 43.04 25.063 43.2508 25.063C43.8303 25.1686 44.1464 25.4326 44.5679 25.8022C44.9894 26.2774 45.4636 26.647 45.8324 27.1221C46.1485 27.4917 46.8335 28.2309 46.8335 28.7061C46.8861 29.1813 46.4646 29.9204 46.0432 29.9204Z" fill="url(#paint3_linear_4863_144923)"/>
<path opacity="0.4" fill-rule="evenodd" clip-rule="evenodd" d="M50.0468 15.137C49.836 15.3481 49.5199 15.4537 49.2565 15.6649C49.0457 15.8233 48.835 16.0873 48.6242 16.1929C48.3081 16.2985 47.8866 16.1929 47.6232 16.0873C46.9383 15.8233 46.5168 15.5593 45.7792 15.8233C45.5684 15.9289 45.3577 15.8761 45.1469 15.9289C44.9362 15.9817 44.9362 16.0873 44.6727 16.0873C44.2512 16.0873 43.8297 15.6649 43.5663 15.4009C43.2502 15.0314 43.0921 15.0314 42.618 15.0314C42.1438 15.0314 41.6169 15.137 41.5115 15.7177C41.4062 16.3513 42.1965 16.8793 42.618 17.1961C43.2502 17.6713 42.5653 17.7768 42.3018 18.252C42.0911 18.6744 42.5126 18.9384 42.1965 19.308C41.5115 20.0472 39.8783 20.5751 38.9826 20.1C38.3503 19.7304 38.0342 19.044 37.56 18.516C37.2966 18.1992 36.9278 17.988 36.6644 17.6713C36.2429 17.2489 35.9268 16.6681 35.716 16.0873C35.9268 16.6681 35.5579 15.8233 35.4526 15.137C35.3999 14.8202 35.5579 14.609 35.6106 14.345C35.6633 14.0282 35.5053 13.9226 35.3472 13.7114C35.0838 13.2362 34.715 12.8666 35.0838 12.3915C35.2945 12.0747 35.5579 11.8107 35.8214 11.5467C36.0848 11.2827 36.4009 10.9131 36.7697 10.7547C36.8224 10.5435 36.1375 9.85716 35.9794 9.69877C35.6106 9.27639 35.2945 8.74841 34.873 8.37882C34.715 8.22043 34.3988 8.06203 34.2935 7.90364C34.0827 7.48126 34.7676 6.90048 35.0311 6.68929C35.5579 6.3197 36.0321 6.26691 36.6117 6.26691C36.9805 6.26691 37.402 6.26691 37.8235 6.3197C38.4557 6.5309 39.0353 6.74209 39.6148 7.00608C40.0363 7.16447 40.4578 7.37566 40.8793 7.58685C43.3029 8.74841 45.5157 10.3323 47.4124 12.2331C48.4135 13.025 49.2565 14.0282 50.0468 15.137Z" fill="url(#paint4_linear_4863_144923)"/>
<path opacity="0.4" fill-rule="evenodd" clip-rule="evenodd" d="M42.8816 20.4697C43.4086 20.5753 43.9356 20.7337 44.4099 20.9449C44.3572 21.0505 44.4099 21.1561 44.4626 21.2617C44.3045 21.4201 43.9883 21.6313 43.7248 21.6841C43.4086 21.7369 43.2505 21.6841 42.987 21.5257C42.7235 21.3673 42.4074 21.3673 42.4601 21.0505C42.4601 20.6809 42.8289 20.5753 43.1451 20.5225H42.8816V20.4697Z" fill="url(#paint5_linear_4863_144923)"/>
<path opacity="0.4" fill-rule="evenodd" clip-rule="evenodd" d="M14.4843 50.1421C14.6424 50.2477 14.8532 50.3533 15.0113 50.4061C14.6951 50.5117 14.3262 50.5645 13.9573 50.5645C13.9046 50.2477 13.6938 49.8781 12.6398 49.2445C13.3249 49.5613 13.8519 49.8253 14.4843 50.1421Z" fill="url(#paint6_linear_4863_144923)"/>
<path opacity="0.4" fill-rule="evenodd" clip-rule="evenodd" d="M36.9804 46.393C36.7697 46.7626 36.717 47.1322 36.717 47.5018C36.717 47.8713 36.717 48.2409 36.717 48.6105C36.717 49.1385 36.3482 49.4553 36.032 49.8249C35.6632 50.3 35.1891 50.6168 34.7676 50.9864C34.5568 51.1976 34.4514 51.4616 34.2407 51.6728C34.0299 51.884 33.8192 52.0424 33.6611 52.2536C33.4504 52.5176 33.3977 52.676 33.1343 52.8343C32.8182 53.0455 32.6074 53.3095 32.344 53.5735C31.8698 53.9959 31.4483 54.4711 30.9741 54.8407C30.658 54.8407 30.3419 54.8407 29.9731 54.8407C28.8667 54.8407 27.7602 54.7879 26.7065 54.6295C22.9131 54.1543 19.3831 52.7815 16.3272 50.7752C16.6434 50.828 16.9068 50.9336 17.2229 50.9864C17.539 51.0392 17.8551 51.1976 18.1713 51.2504C18.7508 51.4088 19.4884 51.3032 20.068 51.3032C20.9637 51.3032 21.8066 51.4616 22.7023 51.5672C23.3346 51.6728 23.8087 51.7784 24.441 51.5672C24.9678 51.4088 25.4947 51.1976 25.9162 50.9336C26.9172 50.3528 28.0764 50.3528 29.0774 49.8249C29.4989 49.6137 29.8677 49.2441 30.2892 48.9801C30.4999 48.8745 30.8161 48.6105 31.0795 48.5577C31.2902 48.5049 31.4483 48.5049 31.6591 48.3993C32.1859 48.1881 32.7128 48.0825 33.2397 47.9241C33.6611 47.7657 34.3461 47.449 34.7149 47.1322C35.1891 46.7098 35.8213 46.0234 36.032 45.4426C36.1901 45.0203 36.1901 44.6507 36.1901 44.2283C36.1901 44.0699 36.1901 43.8587 36.1901 43.7003C36.1901 43.4891 36.1374 43.3835 36.0847 43.2251C35.9794 42.8027 36.1901 42.5915 36.2955 42.222C36.4009 41.9052 36.5062 41.5884 36.6116 41.2188C36.717 40.7436 36.717 40.4796 36.5589 40.0045C36.5062 39.8461 36.4008 39.5821 36.3482 39.4237C36.2955 39.2653 36.2955 39.0541 36.2955 38.8957C36.2955 39.1069 36.5589 39.6349 36.6116 39.7933C36.7697 40.1628 37.0858 40.4796 37.0858 40.9548C37.0858 41.3772 36.9804 41.694 36.875 42.1164C36.7697 42.5388 36.9277 42.8027 36.9277 43.2251C36.9277 43.3835 36.9277 43.5947 36.9804 43.7531C37.0331 43.9643 37.0331 44.1755 37.0858 44.3339C37.1385 44.7035 37.4019 45.0202 37.5073 45.337C37.5073 45.8122 37.1911 46.0762 36.9804 46.393Z" fill="url(#paint7_linear_4863_144923)"/>
</g>
<path opacity="0.4" fill-rule="evenodd" clip-rule="evenodd" d="M17.7502 46.8157C17.8029 48.0828 17.0653 49.1916 16.0643 49.9307C15.8535 50.0891 15.6428 50.1947 15.432 50.3003C14.9051 49.9307 14.431 49.5612 13.9041 49.1388C11.3225 46.9741 9.1623 44.2814 7.63439 41.2719C6.68603 39.3712 5.94842 37.312 5.47424 35.1473C5.26349 34.0386 5.10543 32.9298 5.00006 31.8211C5.10543 31.7155 5.15812 31.6627 5.26349 31.5571C5.26349 32.4018 5.57961 33.0354 5.79036 33.8274C5.94842 34.4082 6.15916 34.9889 6.31722 35.5697C6.4226 36.0449 6.52797 36.4673 6.84409 36.8897C7.05484 37.1536 7.2129 37.2592 7.52902 37.3648C7.73976 37.4704 7.95051 37.6288 8.16126 37.7344C8.63544 37.8928 9.26768 38.0512 9.79454 37.9984C10.058 37.9984 10.216 37.9984 10.4795 38.104C10.6375 38.2096 10.7956 38.3152 10.9536 38.4208C11.3225 38.6848 11.6386 38.9488 11.9547 39.2656C12.4289 39.7935 12.3762 40.4799 12.745 41.0607C13.0611 41.5359 13.4826 41.6943 14.0622 41.6943C15.1686 41.6943 16.1169 43.0142 16.6965 43.8062C17.2234 44.7037 17.6975 45.8653 17.7502 46.8157Z" fill="url(#paint8_linear_4863_144923)"/>
</g>
<defs>
<radialGradient id="paint0_radial_4863_144923" cx="0" cy="0" r="1" gradientUnits="userSpaceOnUse" gradientTransform="translate(17.8065 14.6144) scale(41.8437 41.9321)">
<stop offset="0.00558659" stop-color="#B1FFFF"/>
<stop offset="0.2928" stop-color="#B1FDFF"/>
<stop offset="0.4362" stop-color="#AFF5FF"/>
<stop offset="0.5473" stop-color="#ACE8FF"/>
<stop offset="0.6173" stop-color="#A9DBFF"/>
<stop offset="0.6508" stop-color="#A2D7FE"/>
<stop offset="0.6994" stop-color="#8FCAFC"/>
<stop offset="0.757" stop-color="#6FB5F9"/>
<stop offset="0.8216" stop-color="#4399F4"/>
<stop offset="0.8913" stop-color="#0C75EE"/>
<stop offset="0.905" stop-color="#006DED"/>
</radialGradient>
<linearGradient id="paint1_linear_4863_144923" x1="5.00441" y1="23.1035" x2="40.9102" y2="23.1035" gradientUnits="userSpaceOnUse">
<stop offset="0.0111732" stop-color="#B0E1FF"/>
<stop offset="0.2926" stop-color="#ADDEFF"/>
<stop offset="0.499" stop-color="#A5D5FF"/>
<stop offset="0.6813" stop-color="#98C5FF"/>
<stop offset="0.8488" stop-color="#85AEFF"/>
<stop offset="1" stop-color="#6D93FF"/>
</linearGradient>
<linearGradient id="paint2_linear_4863_144923" x1="27.0758" y1="37.1197" x2="27.4077" y2="37.1197" gradientUnits="userSpaceOnUse">
<stop stop-color="#E8DDFF"/>
<stop offset="1" stop-color="#AA8AD8"/>
</linearGradient>
<linearGradient id="paint3_linear_4863_144923" x1="18.9011" y1="36.4386" x2="54.9258" y2="36.4386" gradientUnits="userSpaceOnUse">
<stop stop-color="#E8DDFF"/>
<stop offset="1" stop-color="#AA8AD8"/>
</linearGradient>
<linearGradient id="paint4_linear_4863_144923" x1="34.199" y1="13.2049" x2="50.057" y2="13.2049" gradientUnits="userSpaceOnUse">
<stop stop-color="#E8DDFF"/>
<stop offset="1" stop-color="#AA8AD8"/>
</linearGradient>
<linearGradient id="paint5_linear_4863_144923" x1="42.4571" y1="21.0626" x2="44.4433" y2="21.0626" gradientUnits="userSpaceOnUse">
<stop stop-color="#E8DDFF"/>
<stop offset="1" stop-color="#AA8AD8"/>
</linearGradient>
<linearGradient id="paint6_linear_4863_144923" x1="12.6501" y1="49.9363" x2="15.0268" y2="49.9363" gradientUnits="userSpaceOnUse">
<stop stop-color="#E8DDFF"/>
<stop offset="1" stop-color="#AA8AD8"/>
</linearGradient>
<linearGradient id="paint7_linear_4863_144923" x1="16.3111" y1="46.9633" x2="37.4306" y2="46.9633" gradientUnits="userSpaceOnUse">
<stop stop-color="#E8DDFF"/>
<stop offset="1" stop-color="#AA8AD8"/>
</linearGradient>
<linearGradient id="paint8_linear_4863_144923" x1="5.0735" y1="40.913" x2="17.7811" y2="40.913" gradientUnits="userSpaceOnUse">
<stop stop-color="#E8DDFF"/>
<stop offset="1" stop-color="#AA8AD8"/>
</linearGradient>
</defs>
</svg>
