<svg width="60" height="60" viewBox="0 0 60 60" fill="none" xmlns="http://www.w3.org/2000/svg">
<path d="M6.6039 12.4085C3.01376 19.0859 6.27979 24.0397 8.36158 25.682L21.6002 11.8385C19.4685 8.0926 11.0916 4.0617 6.6039 12.4085Z" fill="#4E0601"/>
<path d="M8.01203 13.5573C5.02756 19.1083 7.7426 23.2263 9.47317 24.5915L20.4783 13.0835C18.7063 9.96956 11.7426 6.61871 8.01203 13.5573Z" fill="#F9AA57"/>
<path d="M10.0006 15.6575C7.92203 19.5236 9.81299 22.3918 11.0183 23.3426L18.6831 15.3275C17.449 13.1587 12.5989 10.8249 10.0006 15.6575Z" fill="#470500"/>
<path d="M11.432 16.8903C10.0005 19.553 11.3028 21.5283 12.1329 22.1831L17.4118 16.663C16.5618 15.1693 13.2215 13.562 11.432 16.8903Z" fill="#E5654A"/>
<ellipse cx="12.4296" cy="10.5453" rx="0.870511" ry="0.947763" fill="white"/>
<ellipse cx="11.1349" cy="11.8657" rx="0.34242" ry="0.372807" fill="white"/>
<ellipse cx="9.07126" cy="13.6225" rx="0.219211" ry="0.238665" fill="white"/>
<path d="M53.3961 12.4086C56.9862 19.086 53.7202 24.0398 51.6384 25.682L38.3998 11.8385C40.5315 8.09266 48.9084 4.06176 53.3961 12.4086Z" fill="#4E0601"/>
<path d="M51.988 13.5574C54.9724 19.1083 52.2574 23.2264 50.5268 24.5915L39.5217 13.0835C41.2937 9.96962 48.2574 6.61877 51.988 13.5574Z" fill="#F9AA57"/>
<path d="M49.9994 15.6576C52.078 19.5237 50.187 22.3918 48.9817 23.3426L41.3169 15.3276C42.551 13.1588 47.4011 10.825 49.9994 15.6576Z" fill="#470500"/>
<path d="M48.568 16.8904C49.9995 19.553 48.6972 21.5283 47.8671 22.1832L42.5882 16.6631C43.4382 15.1694 46.7785 13.5621 48.568 16.8904Z" fill="#E5654A"/>
<ellipse cx="0.870511" cy="0.947763" rx="0.870511" ry="0.947763" transform="matrix(-1 0 0 1 48.4409 9.59763)" fill="white"/>
<ellipse cx="0.34242" cy="0.372807" rx="0.34242" ry="0.372807" transform="matrix(-1 0 0 1 49.2075 11.4929)" fill="white"/>
<ellipse cx="0.219211" cy="0.238665" rx="0.219211" ry="0.238665" transform="matrix(-1 0 0 1 51.1479 13.3839)" fill="white"/>
<path d="M53.4297 37.0454C53.4297 50.0995 42.3141 57.5001 29.6323 57.5001C16.9505 57.5001 6.66992 50.0995 6.66992 37.0454C6.66992 23.9914 16.9505 10.2271 29.6323 10.2271C42.3141 10.2271 53.4297 23.9914 53.4297 37.0454Z" fill="#EEA27E"/>
<path d="M53.4297 35.4982C53.4297 47.7992 42.3141 54.7728 29.6323 54.7728C16.9505 54.7728 6.66992 47.7992 6.66992 35.4982C6.66992 23.1973 16.9505 10.2271 29.6323 10.2271C42.3141 10.2271 53.4297 23.1973 53.4297 35.4982Z" fill="#FBB682"/>
<path d="M53.4297 33.951C53.4297 45.4988 42.3141 52.0455 29.6323 52.0455C16.9505 52.0455 6.66992 45.4988 6.66992 33.951C6.66992 22.4032 16.9505 10.2271 29.6323 10.2271C42.3141 10.2271 53.4297 22.4032 53.4297 33.951Z" fill="#FEDBAA"/>
<path d="M53.4297 32.9195C53.4297 43.9653 42.3141 50.2273 29.6323 50.2273C16.9505 50.2273 6.66992 43.9653 6.66992 32.9195C6.66992 21.8738 16.9505 10.2271 29.6323 10.2271C42.3141 10.2271 53.4297 21.8738 53.4297 32.9195Z" fill="#FFF4D1"/>
<ellipse cx="20.0424" cy="31.15" rx="5.02237" ry="5.46807" fill="#430400"/>
<ellipse cx="20.1348" cy="29.3723" rx="1.7871" ry="1.94569" fill="white"/>
<rect width="2.20756" height="1.23398" rx="0.616988" transform="matrix(0.689178 0.724592 -0.663564 0.748119 17.5642 32.3911)" fill="white"/>
<rect width="2.20756" height="1.23398" rx="0.616988" transform="matrix(-0.689178 0.724592 0.663564 0.748119 22.5184 32.3911)" fill="white"/>
<ellipse cx="40.0822" cy="31.15" rx="5.02237" ry="5.46807" fill="#430400"/>
<ellipse cx="40.1746" cy="29.3723" rx="1.7871" ry="1.94569" fill="white"/>
<rect width="2.20756" height="1.23398" rx="0.616988" transform="matrix(0.689178 0.724592 -0.663564 0.748119 37.6038 32.3911)" fill="white"/>
<rect width="2.20756" height="1.23398" rx="0.616988" transform="matrix(-0.689178 0.724592 0.663564 0.748119 42.5583 32.3911)" fill="white"/>
<path fill-rule="evenodd" clip-rule="evenodd" d="M30.6822 38.5262C31.8041 38.2833 32.6341 37.4148 32.6341 36.3806C32.6341 35.1582 31.4745 34.1673 30.0441 34.1673C28.6137 34.1673 27.4541 35.1582 27.4541 36.3806C27.4541 37.4121 28.2798 38.2788 29.3972 38.5243C29.5104 39.4269 29.3949 41.1934 28.0503 41.3848C26.3412 41.6282 25.9599 40.5976 25.881 39.8676C25.8021 39.1376 24.4874 38.3074 24.3691 40.2398C24.2508 42.1721 27.7874 45.0636 30.0356 41.6712C32.2838 45.0636 35.8289 42.1721 35.7106 40.2398C35.5923 38.3074 34.2776 39.1376 34.1987 39.8676C34.1198 40.5976 33.7385 41.6282 32.0294 41.3848C30.6858 41.1935 30.5694 39.4294 30.6822 38.5262Z" fill="#440500"/>
<ellipse cx="30.0403" cy="36.1472" rx="1.16796" ry="0.825565" fill="#E55B21"/>
<rect x="29.2676" y="35.3215" width="1.54544" height="0.63138" rx="0.31569" fill="white"/>
<path fill-rule="evenodd" clip-rule="evenodd" d="M28.6271 32.5682C29.2624 32.3899 30.7565 32.1406 31.6658 32.5638C31.7564 32.5377 31.8985 32.446 31.806 32.2645C31.6865 32.0298 32.7922 19.1534 40.1432 19.3211C47.4943 19.4888 50.8411 29.0454 48.1815 35.5506L53.4009 33.8732C53.4091 33.737 53.4156 33.6 53.4203 33.4623C53.3675 31.7269 53.1593 29.84 52.704 27.9126C50.7405 21.0561 44.9823 14.6883 37.7749 11.8173C36.5468 11.3825 35.2265 11.0015 33.8074 10.682C33.2593 10.5587 32.7194 10.456 32.1876 10.3732C31.345 10.2699 30.4923 10.2164 29.6323 10.2164C22.2187 10.2164 15.6256 14.1966 11.4273 19.7101C9.91408 21.8081 8.73908 24.0293 7.90402 26.1292C7.10408 28.3436 6.66992 30.6389 6.66992 32.9088C6.66992 33.5514 6.70472 34.1778 6.77276 34.7878L12.1021 35.5524C9.4426 29.0472 12.7894 19.4906 20.1404 19.3229C27.4915 19.1553 28.5972 32.0316 28.4776 32.2663C28.382 32.4541 28.5374 32.5458 28.6271 32.5682Z" fill="#FF881A" fill-opacity="0.8"/>
<ellipse cx="14.5383" cy="40.7732" rx="2.85836" ry="2.36417" fill="#FE8D6B"/>
<ellipse cx="45.4331" cy="40.7732" rx="2.85836" ry="2.36417" fill="#FE8D6B"/>
<rect width="2.24991" height="0.95521" rx="0.477605" transform="matrix(0.922663 -0.385608 0.332513 0.943099 21.7 12.9131)" fill="white"/>
<rect width="2.60777" height="0.95521" rx="0.477605" transform="matrix(-0.922663 -0.385608 -0.332513 0.943099 39.8221 13.9032)" fill="white"/>
<ellipse cx="26.2689" cy="13.0171" rx="0.289561" ry="0.315258" fill="white"/>
<ellipse cx="35.0542" cy="13.6473" rx="0.288419" ry="0.314014" fill="white"/>
</svg>
