<svg width="60" height="60" viewBox="0 0 60 60" fill="none" xmlns="http://www.w3.org/2000/svg">
<path d="M42.5003 8.34933C36.4976 9.54358 25.5938 15.5457 30.0003 30.0001C44.7214 26.589 44.4674 14.145 42.5003 8.34933Z" fill="url(#paint0_linear_1_407)"/>
<path fill-rule="evenodd" clip-rule="evenodd" d="M30.2848 29.5072C37.2628 27.7854 40.6655 23.9775 42.1195 19.9292C43.551 15.944 43.1112 11.6738 42.2226 8.83046C39.3159 9.48252 35.3979 11.2368 32.6622 14.4691C29.8834 17.7524 28.287 22.6032 30.2848 29.5072ZM42.5003 8.34933C36.4976 9.54358 25.5938 15.5457 30.0003 30.0001C44.7214 26.589 44.4674 14.145 42.5003 8.34933Z" fill="white"/>
<path d="M51.6508 17.5003C45.8552 15.5332 33.4111 15.2792 30.0001 30.0004C44.4544 34.4068 50.4565 23.503 51.6508 17.5003Z" fill="url(#paint1_linear_1_407)"/>
<path fill-rule="evenodd" clip-rule="evenodd" d="M30.4929 29.7158C37.3969 31.7136 42.2477 30.1172 45.531 27.3384C48.7633 24.6028 50.5176 20.6848 51.1697 17.7781C48.3264 16.8894 44.0562 16.4497 40.0709 17.8811C36.0226 19.3351 32.2148 22.7379 30.4929 29.7158ZM51.6508 17.5003C45.8552 15.5332 33.4111 15.2792 30.0001 30.0004C44.4544 34.4068 50.4565 23.503 51.6508 17.5003Z" fill="white"/>
<path d="M55 30.0001C50.9644 25.3987 40.3145 18.9568 29.9999 30.0001C40.3145 41.0434 50.9644 34.6015 55 30.0001Z" fill="url(#paint2_linear_1_407)"/>
<path fill-rule="evenodd" clip-rule="evenodd" d="M30.569 30.0001C35.5491 35.1823 40.5482 36.2252 44.7811 35.4603C48.9482 34.7073 52.4264 32.1914 54.4444 30.0001C52.4264 27.8089 48.9482 25.2929 44.7811 24.5399C40.5482 23.7751 35.5491 24.818 30.569 30.0001ZM55 30.0001C50.9644 25.3987 40.3145 18.9568 29.9999 30.0001C40.3145 41.0434 50.9644 34.6015 55 30.0001Z" fill="white"/>
<path d="M51.6506 42.4995C50.4564 36.4968 44.4543 25.593 29.9999 29.9995C33.4109 44.7206 45.855 44.4666 51.6506 42.4995Z" fill="url(#paint3_linear_1_407)"/>
<path fill-rule="evenodd" clip-rule="evenodd" d="M30.4928 30.284C32.2146 37.262 36.0225 40.6647 40.0707 42.1187C44.056 43.5502 48.3262 43.1104 51.1695 42.2218C50.5174 39.3151 48.7632 35.3971 45.5309 32.6614C42.2475 29.8826 37.3967 28.2862 30.4928 30.284ZM51.6506 42.4995C50.4564 36.4968 44.4543 25.593 29.9999 29.9995C33.4109 44.7206 45.855 44.4666 51.6506 42.4995Z" fill="white"/>
<path d="M42.5003 51.6504C44.4674 45.8547 44.7214 33.4107 30.0003 29.9996C25.5938 44.454 36.4976 50.4561 42.5003 51.6504Z" fill="url(#paint4_linear_1_407)"/>
<path fill-rule="evenodd" clip-rule="evenodd" d="M30.2848 30.4925C28.287 37.3965 29.8834 42.2473 32.6622 45.5306C35.3979 48.7629 39.3159 50.5172 42.2226 51.1692C43.1112 48.3259 43.551 44.0557 42.1195 40.0704C40.6655 36.0222 37.2628 32.2143 30.2848 30.4925ZM42.5003 51.6504C44.4674 45.8547 44.7214 33.4107 30.0003 29.9996C25.5938 44.454 36.4976 50.4561 42.5003 51.6504Z" fill="white"/>
<path d="M29.999 54.9999C34.6004 50.9643 41.0424 40.3144 29.999 29.9998C18.9557 40.3144 25.3976 50.9643 29.999 54.9999Z" fill="url(#paint5_linear_1_407)"/>
<path fill-rule="evenodd" clip-rule="evenodd" d="M29.999 30.5689C24.8169 35.549 23.774 40.5481 24.5389 44.781C25.2918 48.9481 27.8078 52.4263 29.999 54.4444C32.1903 52.4263 34.7062 48.9481 35.4592 44.781C36.2241 40.5481 35.1812 35.549 29.999 30.5689ZM29.999 54.9999C34.6004 50.9643 41.0424 40.3144 29.999 29.9998C18.9557 40.3144 25.3976 50.9643 29.999 54.9999Z" fill="white"/>
<path d="M17.4996 51.6505C23.5023 50.4563 34.4061 44.4542 29.9997 29.9998C15.2786 33.4109 15.5325 45.8549 17.4996 51.6505Z" fill="url(#paint6_linear_1_407)"/>
<path fill-rule="evenodd" clip-rule="evenodd" d="M29.7151 30.4927C22.7372 32.2145 19.3344 36.0224 17.8804 40.0706C16.449 44.0559 16.8887 48.3261 17.7774 51.1694C20.6841 50.5174 24.6021 48.7631 27.3377 45.5308C30.1166 42.2475 31.7129 37.3967 29.7151 30.4927ZM17.4996 51.6505C23.5023 50.4563 34.4061 44.4542 29.9997 29.9998C15.2786 33.4109 15.5325 45.8549 17.4996 51.6505Z" fill="white"/>
<path d="M8.34922 42.5C14.1448 44.4671 26.5889 44.721 29.9999 29.9999C15.5456 25.5934 9.54347 36.4973 8.34922 42.5Z" fill="url(#paint7_linear_1_407)"/>
<path fill-rule="evenodd" clip-rule="evenodd" d="M29.5071 30.2845C22.6031 28.2867 17.7523 29.883 14.469 32.6619C11.2367 35.3975 9.4824 39.3155 8.83034 42.2222C11.6736 43.1108 15.9438 43.5506 19.9291 42.1192C23.9774 40.6651 27.7852 37.2624 29.5071 30.2845ZM8.34922 42.5C14.1448 44.4671 26.5889 44.721 29.9999 29.9999C15.5456 25.5934 9.54347 36.4973 8.34922 42.5Z" fill="white"/>
<path d="M5 30.0005C9.03561 34.6019 19.6855 41.0438 30.0001 30.0005C19.6855 18.9572 9.03561 25.3991 5 30.0005Z" fill="url(#paint8_linear_1_407)"/>
<path fill-rule="evenodd" clip-rule="evenodd" d="M29.431 30.0005C24.4509 24.8183 19.4518 23.7754 15.2189 24.5403C11.0518 25.2933 7.57361 27.8093 5.55555 30.0005C7.57361 32.1917 11.0518 34.7077 15.2189 35.4607C19.4518 36.2255 24.4509 35.1826 29.431 30.0005ZM5 30.0005C9.03561 34.6019 19.6855 41.0438 30.0001 30.0005C19.6855 18.9572 9.03561 25.3991 5 30.0005Z" fill="white"/>
<path d="M8.34939 17.5C9.54364 23.5027 15.5457 34.4065 30.0001 30.0001C26.5891 15.279 14.145 15.5329 8.34939 17.5Z" fill="url(#paint9_linear_1_407)"/>
<path fill-rule="evenodd" clip-rule="evenodd" d="M29.5072 29.7155C27.7854 22.7376 23.9775 19.3348 19.9293 17.8808C15.944 16.4494 11.6738 16.8891 8.83052 17.7778C9.48258 20.6845 11.2368 24.6025 14.4691 27.3381C17.7525 30.117 22.6033 31.7133 29.5072 29.7155ZM8.34939 17.5C9.54364 23.5027 15.5457 34.4065 30.0001 30.0001C26.5891 15.279 14.145 15.5329 8.34939 17.5Z" fill="white"/>
<path d="M17.4996 8.04856C15.5325 13.8442 15.2785 26.2882 29.9997 29.6993C34.4061 15.2449 23.5023 9.24281 17.4996 8.04856Z" fill="url(#paint10_linear_1_407)"/>
<path fill-rule="evenodd" clip-rule="evenodd" d="M29.7151 29.2064C31.7129 22.3024 30.1165 17.4516 27.3377 14.1683C24.6021 10.936 20.6841 9.18175 17.7774 8.52968C16.8887 11.373 16.449 15.6432 17.8804 19.6285C19.3344 23.6767 22.7372 27.4846 29.7151 29.2064ZM17.4996 8.04856C15.5325 13.8442 15.2785 26.2882 29.9997 29.6993C34.4061 15.2449 23.5023 9.24281 17.4996 8.04856Z" fill="white"/>
<path d="M30.0009 4.99994C25.3995 9.03555 18.9576 19.6854 30.0009 30.0001C41.0442 19.6854 34.6023 9.03555 30.0009 4.99994Z" fill="url(#paint11_linear_1_407)"/>
<path fill-rule="evenodd" clip-rule="evenodd" d="M30.0009 29.4309C35.1831 24.4508 36.226 19.4517 35.4611 15.2188C34.7081 11.0518 32.1922 7.57355 30.0009 5.55549C27.8097 7.57355 25.2937 11.0518 24.5407 15.2188C23.7759 19.4517 24.8188 24.4508 30.0009 29.4309ZM30.0009 4.99994C25.3995 9.03555 18.9576 19.6854 30.0009 30.0001C41.0442 19.6854 34.6023 9.03555 30.0009 4.99994Z" fill="white"/>
<defs>
<linearGradient id="paint0_linear_1_407" x1="42.5003" y1="8.34933" x2="30.0003" y2="30.0001" gradientUnits="userSpaceOnUse">
<stop stop-color="#F3974A"/>
<stop offset="1" stop-color="#F3974A" stop-opacity="0.5"/>
</linearGradient>
<linearGradient id="paint1_linear_1_407" x1="51.6508" y1="17.5003" x2="30.0001" y2="30.0004" gradientUnits="userSpaceOnUse">
<stop stop-color="#FEE149"/>
<stop offset="1" stop-color="#FEE149" stop-opacity="0.5"/>
</linearGradient>
<linearGradient id="paint2_linear_1_407" x1="55" y1="30.0001" x2="29.9999" y2="30.0001" gradientUnits="userSpaceOnUse">
<stop stop-color="#98C60A"/>
<stop offset="1" stop-color="#98C60A" stop-opacity="0.5"/>
</linearGradient>
<linearGradient id="paint3_linear_1_407" x1="51.6506" y1="42.4995" x2="29.9999" y2="29.9995" gradientUnits="userSpaceOnUse">
<stop stop-color="#48BB01"/>
<stop offset="1" stop-color="#48BB01" stop-opacity="0.5"/>
</linearGradient>
<linearGradient id="paint4_linear_1_407" x1="42.5003" y1="51.6504" x2="30.0003" y2="29.9996" gradientUnits="userSpaceOnUse">
<stop stop-color="#6FC0E7"/>
<stop offset="1" stop-color="#6FC0E7" stop-opacity="0.5"/>
</linearGradient>
<linearGradient id="paint5_linear_1_407" x1="29.999" y1="54.9999" x2="29.999" y2="29.9998" gradientUnits="userSpaceOnUse">
<stop stop-color="#1E89C1"/>
<stop offset="1" stop-color="#1E89C1" stop-opacity="0.5"/>
</linearGradient>
<linearGradient id="paint6_linear_1_407" x1="17.4996" y1="51.6505" x2="29.9997" y2="29.9998" gradientUnits="userSpaceOnUse">
<stop stop-color="#0349C4"/>
<stop offset="1" stop-color="#0349C4" stop-opacity="0.5"/>
</linearGradient>
<linearGradient id="paint7_linear_1_407" x1="8.34922" y1="42.5" x2="29.9999" y2="29.9999" gradientUnits="userSpaceOnUse">
<stop stop-color="#6642A7"/>
<stop offset="1" stop-color="#6642A7" stop-opacity="0.5"/>
</linearGradient>
<linearGradient id="paint8_linear_1_407" x1="5" y1="30.0005" x2="30.0001" y2="30.0005" gradientUnits="userSpaceOnUse">
<stop stop-color="#9F6CA7"/>
<stop offset="1" stop-color="#9F6CA7" stop-opacity="0.5"/>
</linearGradient>
<linearGradient id="paint9_linear_1_407" x1="8.34939" y1="17.5" x2="30.0001" y2="30.0001" gradientUnits="userSpaceOnUse">
<stop stop-color="#B93E74"/>
<stop offset="1" stop-color="#B93E74" stop-opacity="0.5"/>
</linearGradient>
<linearGradient id="paint10_linear_1_407" x1="17.4996" y1="8.04856" x2="29.9997" y2="29.6993" gradientUnits="userSpaceOnUse">
<stop stop-color="#EA6494"/>
<stop offset="1" stop-color="#EA6494" stop-opacity="0.5"/>
</linearGradient>
<linearGradient id="paint11_linear_1_407" x1="30.0009" y1="4.99994" x2="30.0009" y2="30.0001" gradientUnits="userSpaceOnUse">
<stop stop-color="#EB2929"/>
<stop offset="1" stop-color="#EB2929" stop-opacity="0.5"/>
</linearGradient>
</defs>
</svg>
