<svg width="60" height="60" viewBox="0 0 60 60" fill="none" xmlns="http://www.w3.org/2000/svg">
<circle cx="30" cy="30" r="25" fill="#9D0B24"/>
<path fill-rule="evenodd" clip-rule="evenodd" d="M26.8885 54.8083C28.8379 51.4163 31.0982 48.2419 33.6692 45.2852C35.4987 43.1812 37.525 41.215 39.5628 39.2376C43.7165 35.2069 47.9183 31.1297 50.5998 25.7442C51.4682 23.7093 52.1208 21.5232 52.6068 19.3123C48.5999 10.8517 39.9833 5 30 5C16.1929 5 5 16.1929 5 30C5 42.7535 14.5497 53.2765 26.8885 54.8083Z" fill="#D82D3E"/>
<path fill-rule="evenodd" clip-rule="evenodd" d="M12.26 47.6151C14.4494 45.6119 16.7799 43.777 19.2517 42.1104C21.5634 40.5516 24.0294 39.1769 26.5096 37.7943C31.565 34.976 36.6789 32.1252 40.6629 27.6172C44.1257 23.2028 46.4991 17.4901 48.0263 12.6779C43.4774 7.94531 37.0827 5 30 5C16.1929 5 5 16.1929 5 30C5 36.8718 7.77253 43.096 12.26 47.6151Z" fill="#FEA090"/>
<path fill-rule="evenodd" clip-rule="evenodd" d="M7.96565 41.8208C8.51834 41.2433 9.08321 40.676 9.66027 40.1189C11.6662 38.1824 13.8561 36.4003 16.0585 34.608C20.5477 30.9547 25.0889 27.2591 28.2295 22.1279C31.0442 16.859 32.3871 10.3552 33.0083 5.17914C32.022 5.06086 31.0181 5 30 5C16.1929 5 5 16.1929 5 30C5 34.2759 6.07348 38.3011 7.96565 41.8208Z" fill="#E9E993"/>
</svg>
