<svg width="60" height="60" viewBox="0 0 60 60" fill="none" xmlns="http://www.w3.org/2000/svg">
<path d="M55 30C55 43.8071 43.8071 55 30 55C16.1929 55 5 43.8071 5 30C5 16.1929 16.1929 5 30 5C43.8071 5 55 16.1929 55 30Z" fill="url(#paint0_linear_4273_137812)"/>
<path d="M46.4929 34.6761C42.3477 45.4749 31.596 51.3917 22.4784 47.8918C13.3607 44.3918 9.3298 32.8005 13.475 22.0018C17.6203 11.2031 28.3719 5.28623 37.4896 8.78616C46.6072 12.2861 50.6381 23.8774 46.4929 34.6761Z" fill="#004171" fill-opacity="0.5"/>
<path d="M42.1397 45.5233C31.932 51.6568 19.4805 49.678 14.3285 41.1037C9.17652 32.5293 13.275 20.6063 23.4827 14.4729C33.6905 8.33947 46.142 10.3182 51.294 18.8926C56.446 27.4669 52.3475 39.3899 42.1397 45.5233Z" fill="#41A2B9" fill-opacity="0.5"/>
<path d="M31.8282 49.1143C20.5206 48.9169 11.4956 40.649 11.6702 30.6474C11.8448 20.6458 21.1528 12.6979 32.4604 12.8953C43.7679 13.0926 52.7929 21.3605 52.6184 31.3621C52.4438 41.3637 43.1357 49.3116 31.8282 49.1143Z" fill="#445CA7" fill-opacity="0.5"/>
<path d="M25.632 48.2509C14.9933 44.5877 8.87591 34.3371 11.9685 25.3556C15.0611 16.3741 26.1925 12.0628 36.8312 15.726C47.4699 19.3892 53.5872 29.6397 50.4946 38.6212C47.4021 47.6027 36.2707 51.9141 25.632 48.2509Z" fill="#9F57C0" fill-opacity="0.5"/>
<path d="M14.4185 42.2407C8.456 32.6987 10.1528 20.8828 18.2084 15.8491C26.2641 10.8154 37.628 14.4701 43.5905 24.0121C49.553 33.554 47.8562 45.37 39.8006 50.4037C31.7449 55.4374 20.381 51.7827 14.4185 42.2407Z" fill="#AD467E" fill-opacity="0.5"/>
<path d="M11.064 30.7826C11.8489 19.5583 20.1669 10.9964 29.6428 11.659C39.1186 12.3216 46.1641 21.9579 45.3792 33.1822C44.5943 44.4065 36.2763 52.9684 26.8005 52.3058C17.3246 51.6432 10.2791 42.0069 11.064 30.7826Z" fill="#E79B7C" fill-opacity="0.5"/>
<path d="M13.7914 19.638C20.5629 10.652 32.2021 8.00161 39.7884 13.7183C47.3746 19.4349 48.0352 31.3538 41.2637 40.3398C34.4923 49.3258 22.853 51.9762 15.2668 46.2595C7.68052 40.5429 7.02 28.624 13.7914 19.638Z" fill="#E57A4F" fill-opacity="0.5"/>
<path d="M26.6276 12.8128C37.8639 12.224 47.3757 19.4365 47.8728 28.9225C48.37 38.4085 39.6642 46.5758 28.4279 47.1647C17.1916 47.7536 7.67974 40.541 7.1826 31.055C6.68546 21.569 15.3913 13.4017 26.6276 12.8128Z" fill="#CB5050" fill-opacity="0.5"/>
<path d="M35.5019 11.9774C45.6994 16.7325 50.7118 27.5664 46.6973 36.1754C42.6828 44.7844 31.1618 47.9086 20.9642 43.1534C10.7667 38.3982 5.75436 27.5644 9.76882 18.9554C13.7833 10.3463 25.3044 7.22217 35.5019 11.9774Z" fill="#9D3CA0" fill-opacity="0.5"/>
<path d="M43.3555 17.24C50.127 26.226 49.4664 38.1449 41.8802 43.8616C34.2939 49.5782 22.6547 46.9279 15.8832 37.9418C9.11179 28.9558 9.77232 17.037 17.3586 11.3203C24.9448 5.60365 36.584 8.254 43.3555 17.24Z" fill="#7977BE" fill-opacity="0.5"/>
<path d="M49.5408 30C49.5408 40.7921 40.7921 49.5408 30 49.5408C19.2079 49.5408 10.4592 40.7921 10.4592 30C10.4592 19.2079 19.2079 10.4592 30 10.4592C40.7921 10.4592 49.5408 19.2079 49.5408 30Z" fill="#0F284B"/>
<path d="M20.2551 39.4388L29.6173 20.5102V35.3061L20.2551 39.4388Z" fill="#C6E0F2"/>
<path d="M39.7704 39.4643L30.4082 20.5357V35.3316L39.7704 39.4643Z" fill="#4B6684"/>
<defs>
<linearGradient id="paint0_linear_4273_137812" x1="30" y1="5" x2="30" y2="55" gradientUnits="userSpaceOnUse">
<stop stop-color="#C4D8DD"/>
<stop offset="0.108034" stop-color="#39A5B7"/>
<stop offset="0.28" stop-color="#B05CBA"/>
<stop offset="0.495" stop-color="#4360A5"/>
<stop offset="0.625" stop-color="#AC56BD"/>
<stop offset="0.815" stop-color="#AB55BE"/>
<stop offset="1" stop-color="#E79F86"/>
</linearGradient>
</defs>
</svg>
