<svg width="60" height="60" viewBox="0 0 60 60" fill="none" xmlns="http://www.w3.org/2000/svg">
<path fill-rule="evenodd" clip-rule="evenodd" d="M13.8608 10.9106V49.0971C8.44102 44.5113 5 37.6594 5 30.0039C5 22.3483 8.44102 15.4965 13.8608 10.9106Z" fill="url(#paint0_linear_3631_128165)"/>
<path fill-rule="evenodd" clip-rule="evenodd" d="M21.9304 6.33386V53.6719C18.9467 52.6549 16.2168 51.0896 13.8608 49.0961V10.9096C16.2168 8.91613 18.9467 7.35083 21.9304 6.33386Z" fill="url(#paint1_linear_3631_128165)"/>
<path fill-rule="evenodd" clip-rule="evenodd" d="M30 5L30 55C27.1763 55 24.462 54.5319 21.9304 53.669V6.33101C24.462 5.46813 27.1763 5 30 5Z" fill="url(#paint2_linear_3631_128165)"/>
<path fill-rule="evenodd" clip-rule="evenodd" d="M38.0696 6.331V53.669C35.538 54.5319 32.8237 55 30 55V5C32.8237 5 35.538 5.46813 38.0696 6.331Z" fill="url(#paint3_linear_3631_128165)"/>
<path fill-rule="evenodd" clip-rule="evenodd" d="M46.1393 10.9096V49.0961C43.7833 51.0896 41.0534 52.6549 38.0696 53.6719V6.33386C41.0534 7.35083 43.7833 8.91613 46.1393 10.9096Z" fill="url(#paint4_linear_3631_128165)"/>
<path fill-rule="evenodd" clip-rule="evenodd" d="M46.1392 49.093C51.559 44.5071 55 37.6553 55 29.9997C55 22.3442 51.559 15.4923 46.1392 10.9065V49.093Z" fill="url(#paint5_linear_3631_128165)"/>
<defs>
<linearGradient id="paint0_linear_3631_128165" x1="3.10127" y1="5.00402" x2="15.0698" y2="41.5203" gradientUnits="userSpaceOnUse">
<stop stop-color="#B7D5A7"/>
<stop offset="1" stop-color="#4296A7"/>
</linearGradient>
<linearGradient id="paint1_linear_3631_128165" x1="13.8608" y1="5.00283" x2="31.2395" y2="50.9054" gradientUnits="userSpaceOnUse">
<stop stop-color="#F6EDB2"/>
<stop offset="0.5" stop-color="#C8DCFE"/>
<stop offset="1" stop-color="#668DD6"/>
</linearGradient>
<linearGradient id="paint2_linear_3631_128165" x1="21.9304" y1="5" x2="39.2783" y2="51.5416" gradientUnits="userSpaceOnUse">
<stop stop-color="#FAD99E"/>
<stop offset="0.5" stop-color="#EFC5FC"/>
<stop offset="1" stop-color="#5C57BB"/>
</linearGradient>
<linearGradient id="paint3_linear_3631_128165" x1="30" y1="5" x2="47.1958" y2="51.5719" gradientUnits="userSpaceOnUse">
<stop stop-color="#FDB78F"/>
<stop offset="0.5" stop-color="#ED9DD8"/>
<stop offset="1" stop-color="#6B3894"/>
</linearGradient>
<linearGradient id="paint4_linear_3631_128165" x1="38.0696" y1="5.00283" x2="52.9083" y2="38.9574" gradientUnits="userSpaceOnUse">
<stop stop-color="#F88E61"/>
<stop offset="1" stop-color="#A74297"/>
</linearGradient>
<linearGradient id="paint5_linear_3631_128165" x1="51.519" y1="4.99987" x2="53.1728" y2="54.9448" gradientUnits="userSpaceOnUse">
<stop stop-color="#FC8C94"/>
<stop offset="0.51403" stop-color="#F57C95"/>
<stop offset="1" stop-color="#A32870"/>
</linearGradient>
</defs>
</svg>
