<svg width="60" height="60" viewBox="0 0 60 60" fill="none" xmlns="http://www.w3.org/2000/svg">
<path d="M55 30C55 43.8071 43.8071 55 30 55C16.1929 55 5 43.8071 5 30C5 16.1929 16.1929 5 30 5C43.8071 5 55 16.1929 55 30Z" fill="url(#paint0_linear_622_133138)"/>
<path fill-rule="evenodd" clip-rule="evenodd" d="M30 53C42.7025 53 53 42.7025 53 30C53 17.2975 42.7025 7 30 7C17.2975 7 7 17.2975 7 30C7 42.7025 17.2975 53 30 53ZM30 55C43.8071 55 55 43.8071 55 30C55 16.1929 43.8071 5 30 5C16.1929 5 5 16.1929 5 30C5 43.8071 16.1929 55 30 55Z" fill="#5E6A70"/>
<circle cx="23.9718" cy="18.9209" r="4.79031" fill="#E5C1A1"/>
<circle cx="34.1879" cy="14.4239" r="3.07946" fill="#E5C1A1"/>
<circle cx="32.8681" cy="26.3507" r="2.93286" fill="#E5C1A1"/>
<circle cx="39.6137" cy="21.2184" r="1.85751" fill="#E5C1A1"/>
<circle cx="44.4529" cy="19.8986" r="0.977637" fill="#E5C1A1"/>
<circle cx="40.9578" cy="15.2303" r="0.806541" fill="#E5C1A1"/>
<circle cx="18.8882" cy="30.8479" r="4.49706" fill="#E5C1A1"/>
<circle cx="34.8722" cy="37.6423" r="2.88397" fill="#E5C1A1"/>
<circle cx="25.7071" cy="38.9376" r="1.73524" fill="#E5C1A1"/>
<circle cx="25.1694" cy="44.6078" r="1.78412" fill="#E5C1A1"/>
<circle cx="41.5322" cy="26.9252" r="0.574367" fill="#E5C1A1"/>
<circle cx="27.21" cy="27.9747" r="0.50104" fill="#E5C1A1"/>
<ellipse cx="33.8474" cy="9.47557" rx="0.671173" ry="0.553936" fill="#E5C1A1"/>
<ellipse cx="29.3412" cy="9.85917" rx="0.873503" ry="0.788303" fill="#E5C1A1"/>
<ellipse cx="23.7278" cy="10.8247" rx="2.49536" ry="1.09683" transform="rotate(-24 23.7278 10.8247)" fill="#E5C1A1"/>
<ellipse cx="16.9201" cy="15.8539" rx="1.84356" ry="0.912471" transform="rotate(-46 16.9201 15.8539)" fill="#E5C1A1"/>
<circle cx="13.5536" cy="19.8509" r="0.490022" fill="#E5C1A1"/>
<ellipse cx="15.1062" cy="23.1795" rx="1.55532" ry="0.966463" transform="rotate(-62 15.1062 23.1795)" fill="#E5C1A1"/>
<ellipse cx="12.0292" cy="27.0772" rx="1.75752" ry="0.966463" transform="rotate(-73 12.0292 27.0772)" fill="#E5C1A1"/>
<ellipse cx="11.0918" cy="34.6189" rx="1.87539" ry="0.807439" transform="rotate(-100 11.0918 34.6189)" fill="#E5C1A1"/>
<ellipse cx="16.7611" cy="41.992" rx="3.53675" ry="4.31651" transform="rotate(-42 16.7611 41.992)" fill="#E5C1A1"/>
<ellipse cx="28.2441" cy="34.0332" rx="0.78964" ry="0.635947" transform="rotate(-25 28.2441 34.0332)" fill="#E5C1A1"/>
<circle cx="41.1888" cy="31.9516" r="1.57511" fill="#E5C1A1"/>
<circle cx="48.5679" cy="24.5085" r="0.669408" fill="#E5C1A1"/>
<circle cx="49.0384" cy="30.6002" r="0.990741" fill="#E5C1A1"/>
<ellipse cx="48.3992" cy="36.0974" rx="1.3316" ry="1.54494" fill="#E5C1A1"/>
<ellipse cx="41.2938" cy="43.0321" rx="1.10792" ry="1.21447" fill="#E5C1A1"/>
<ellipse cx="36.1911" cy="47.0557" rx="0.607206" ry="0.663739" fill="#E5C1A1"/>
<circle cx="29.1921" cy="49.9991" r="0.639136" fill="#E5C1A1"/>
<ellipse cx="31.8233" cy="50.4785" rx="0.820287" ry="0.713746" fill="#E5C1A1"/>
<path d="M41.0985 42.0069C30.4869 53.6527 19.1508 50.1475 14.8092 46.9391C18.2523 51.697 26.7154 53.4054 30.5165 53.2721C49.5631 52.1208 55.3857 35.5661 52.2478 23.9219C49.8178 14.9044 43.3501 10.8204 40.9775 10.0295C44.2182 12.5757 54.3629 27.4496 41.0985 42.0069Z" fill="#F2B37E" fill-opacity="0.5"/>
<path d="M44.6397 43.5367C34.0282 55.1825 18.0681 48.3269 13.1495 45.564C16.1554 50.1486 24.6857 53.4835 30.0037 53.297C48.0174 52.6656 56.2445 35.9949 52.1857 23.6313C49.1766 14.4649 44.25 11.2544 41.8774 10.4636C45.118 13.0098 57.9041 28.9794 44.6397 43.5367Z" fill="#FF934E" fill-opacity="0.5"/>
<defs>
<linearGradient id="paint0_linear_622_133138" x1="11.2885" y1="13.0879" x2="48.6459" y2="46.6979" gradientUnits="userSpaceOnUse">
<stop stop-color="#FFFFF5"/>
<stop offset="1" stop-color="#FEFADF"/>
</linearGradient>
</defs>
</svg>
