<svg width="60" height="60" viewBox="0 0 60 60" fill="none" xmlns="http://www.w3.org/2000/svg">
<path d="M24.4343 49.4214L26.5309 48.2767C26.6943 48.1875 26.8403 48.0696 26.9619 47.9287C27.9021 46.8399 29.6894 47.5048 29.6894 48.9434V54.5241C29.6894 54.5854 29.7013 54.6461 29.7243 54.7028L29.7885 54.8614C29.8225 54.9452 29.9039 55 29.9943 55C30.0704 55 30.1411 54.961 30.1818 54.8968L30.2436 54.7993C30.2873 54.7302 30.3106 54.6501 30.3106 54.5683V48.634C30.3106 47.3219 31.9496 46.7258 32.7925 47.7315C32.8715 47.8258 32.9625 47.9093 33.0633 47.9799L34.4736 48.9677C35.035 49.3609 35.6384 49.6904 36.2728 49.95C36.697 50.1236 37.1335 50.2653 37.5787 50.3741L40.5205 51.0924C40.6236 51.1176 40.7287 51.134 40.8346 51.1415L42.4953 51.2586C42.6867 51.2721 42.8494 51.1204 42.8494 50.9285C42.8494 50.8604 42.8283 50.7938 42.7891 50.7381L39.7529 46.4259C39.6984 46.3485 39.6841 46.2496 39.7144 46.1599C39.7552 46.0391 39.8684 45.9579 39.9958 45.9579H40.2873L42.1745 46.0976C42.9844 46.1575 43.7983 46.1296 44.6022 46.0145L45.7997 45.8429L51.8944 44.1188L54.3094 43.6919C54.4216 43.672 54.5102 43.5856 54.5328 43.474C54.5568 43.3559 54.5017 43.2359 54.3966 43.1771L50.5357 41.0153L46.6149 39.4828L45.2855 39.0235C45.1518 38.9773 45.0621 38.8515 45.0621 38.71C45.0621 38.6165 45.1016 38.5274 45.1708 38.4645L45.7372 37.9502C45.9323 37.7731 46.1596 37.635 46.4068 37.5435L49.3339 36.4601C49.4083 36.4326 49.4712 36.3807 49.5124 36.313C49.6079 36.1558 49.5663 35.9517 49.4169 35.8444L49.3121 35.7692C49.274 35.7419 49.24 35.7092 49.2112 35.6722L49.1792 35.6312C48.9866 35.384 48.9452 35.051 49.0716 34.7643L49.1269 34.6386C49.2103 34.4493 49.3463 34.2879 49.5186 34.1735L53.6057 31.4611C53.7007 31.398 53.7578 31.2916 53.7578 31.1777C53.7578 31.0162 53.6443 30.877 53.4862 30.8445L52.9304 30.7303C52.861 30.716 52.7933 30.6947 52.7283 30.6666L52.1832 30.4312C51.8027 30.2669 51.5129 29.9448 51.3895 29.5491C51.3134 29.3051 51.3046 29.045 51.3639 28.7963L51.7391 27.2222L53.2381 23.3C53.3514 23.0036 53.4925 22.7187 53.6597 22.449L54.9064 20.4384C54.9652 20.3435 54.9752 20.2262 54.9332 20.1227C54.8797 19.9906 54.7515 19.9042 54.609 19.9042H54.542C54.4607 19.9042 54.3809 19.9263 54.3111 19.9681L50.9592 21.9756C50.2394 22.4068 49.4719 22.7531 48.6724 23.0077L48.4557 23.0718C47.826 23.2582 47.221 23.5197 46.6537 23.8506L45.944 24.3467C45.7985 24.4485 45.6292 24.5111 45.4525 24.5285C45.1329 24.5601 44.8162 24.441 44.5962 24.2071C44.4941 24.0986 44.4163 23.9691 44.3686 23.8279L43.6587 21.7257C43.6377 21.6638 43.5913 21.6138 43.5311 21.5883C43.4287 21.545 43.3101 21.5816 43.2499 21.675L43.1096 21.8924C43.0915 21.9207 43.076 21.9505 43.0633 21.9816L42.5605 23.2224C42.2366 24.0217 41.8218 24.7811 41.3245 25.4857L39.9291 27.4626C39.7547 27.7098 39.5464 27.9313 39.3104 28.1206L38.574 28.7111C38.4768 28.789 38.3561 28.8314 38.2316 28.8314C38.038 28.8314 37.8588 28.7292 37.7604 28.5626L37.7303 28.5117C37.6759 28.4197 37.6451 28.3158 37.6404 28.2091L37.5929 27.1309C37.5776 26.784 37.5987 26.4366 37.6558 26.0941L38.1134 23.3525L39.8141 16.5636C39.8429 16.4485 39.8122 16.3266 39.7323 16.239C39.6074 16.102 39.3981 16.0846 39.2523 16.1989L38.294 16.9499C38.2254 17.0037 38.1528 17.0519 38.0767 17.0943L37.0647 17.6577C36.8124 17.7982 36.5229 17.8578 36.2355 17.8285C35.8037 17.7844 35.4162 17.5438 35.1851 17.1763L35.065 16.9854C34.9249 16.7626 34.8333 16.5129 34.7962 16.2524L34.2149 12.1684C34.2009 12.0702 34.1394 11.9853 34.0505 11.9414C33.9474 11.8905 33.8243 11.9029 33.7335 11.9734L33.4418 12.1996C33.3748 12.2515 33.2925 12.2797 33.2078 12.2797C33.0723 12.2797 32.947 12.2079 32.8785 12.0911L32.2672 11.0489C32.1794 10.8992 32.1074 10.7408 32.0526 10.5761L30.2554 5.18381C30.2188 5.07404 30.1161 5 30.0003 5C29.8843 5 29.7814 5.07447 29.745 5.18468L28.2531 9.71264L27.2207 11.9883C27.1402 12.1657 26.9634 12.2797 26.7686 12.2797C26.6494 12.2797 26.5342 12.2368 26.4441 12.159L26.3145 12.0471C26.2872 12.0235 26.2565 12.0041 26.2235 11.9896L26.2162 11.9865C26.0503 11.9137 25.8562 11.9785 25.7673 12.1364C25.7426 12.1803 25.7276 12.2291 25.7233 12.2793L25.4992 14.9017C25.4719 15.2215 25.4062 15.5368 25.3035 15.8409L24.9438 16.9057C24.8259 17.2549 24.571 17.541 24.2378 17.6983C23.9957 17.8126 23.7251 17.8526 23.4602 17.8134L23.3989 17.8043C23.195 17.7742 22.9991 17.7039 22.8226 17.5976L21.4984 16.8008L20.5285 16.1726C20.3872 16.081 20.1976 16.1409 20.1343 16.2969C20.1127 16.3504 20.1088 16.4095 20.1234 16.4654L21.3432 21.1303L22.1343 24.9666C22.202 25.295 22.2458 25.6278 22.2651 25.9624L22.3743 27.8486C22.3854 28.0394 22.3373 28.2289 22.2367 28.3914L22.1154 28.5874C22.0214 28.7391 21.8557 28.8314 21.6773 28.8314C21.5381 28.8314 21.4049 28.7751 21.3079 28.6754L19.973 27.303C19.7226 27.0456 19.5003 26.7621 19.31 26.4574L18.3782 24.9654C18.0263 24.4021 17.725 23.8087 17.4778 23.1923L17.1118 22.2797L16.8572 21.7212C16.8016 21.5994 16.6697 21.5317 16.5384 21.5576C16.4369 21.5777 16.3538 21.6505 16.3207 21.7486L15.8307 23.1992L15.5344 23.8906C15.4501 24.0873 15.2983 24.2474 15.1063 24.3422C14.8986 24.4447 14.6593 24.463 14.4384 24.3932L14.0694 24.2767C13.8988 24.2228 13.7368 24.1445 13.5885 24.0444L13.0955 23.7115C12.5928 23.372 12.0411 23.1112 11.4597 22.9381L10.9838 22.7965C10.2583 22.5805 9.56212 22.2758 8.91123 21.8892L5.59314 19.9185C5.53522 19.8841 5.46829 19.8659 5.40093 19.8659C5.23418 19.8659 5.0857 19.9772 5.04129 20.1379C5.01487 20.2335 5.02785 20.3357 5.07734 20.4217L6.55915 22.9957C6.81305 23.4368 7.02125 23.9026 7.1805 24.3859L8.3863 28.0454C8.45766 28.262 8.50066 28.4869 8.51422 28.7145L8.54665 29.2586C8.56266 29.5271 8.48349 29.7927 8.32307 30.0086C8.20594 30.1662 8.05018 30.291 7.87079 30.371L7.00439 30.7572C6.96226 30.776 6.91815 30.7899 6.8729 30.7989L6.51335 30.8699C6.33033 30.906 6.223 31.0972 6.28749 31.2723C6.30859 31.3295 6.34647 31.3791 6.39619 31.4145L10.7774 34.5335C10.9521 34.6579 11.0559 34.8592 11.0559 35.0737C11.0559 35.2915 10.9489 35.4954 10.7698 35.6191L10.4714 35.8253C10.3571 35.9043 10.3069 36.0481 10.3473 36.181C10.3778 36.2812 10.4554 36.3601 10.5551 36.3922L12.1817 36.9157L13.7037 37.5416C13.9293 37.6344 14.136 37.7679 14.3134 37.9354L14.8339 38.4267C14.9003 38.4894 14.9379 38.5766 14.9379 38.6679C14.9379 38.8112 14.8459 38.9383 14.7098 38.9831L12.8416 39.5977L9.46429 40.977L5.5686 43.2107C5.46377 43.2708 5.41607 43.3967 5.45474 43.5112C5.48534 43.6018 5.56443 43.6674 5.65914 43.6808L7.13509 43.8889L13.8273 45.6962C14.5658 45.8957 15.3226 46.0193 16.0862 46.0653L17.8875 46.1737C18.0428 46.183 18.1987 46.1766 18.3528 46.1544L19.7603 45.9518C19.8943 45.9325 20.0256 46.0008 20.0868 46.1215C20.1427 46.2319 20.129 46.3647 20.0517 46.4613L19.5963 47.0307L17.1016 50.926C17.041 51.0207 17.0607 51.1457 17.1475 51.2171C17.1986 51.2592 17.2659 51.2762 17.3309 51.2635L21.669 50.4185C22.6365 50.23 23.5692 49.8937 24.4343 49.4214Z" fill="#932715"/>
<path d="M26.4028 47.6222L27.804 47.0295C28.2267 46.8507 28.6011 46.5742 28.8964 46.2228L29.6764 45.2944C29.7338 45.2261 29.8186 45.1866 29.9079 45.1866C29.9914 45.1866 30.0712 45.2211 30.1283 45.282L31.0405 46.2533C31.3529 46.586 31.7293 46.852 32.1472 47.0353L33.512 47.6339C33.5773 47.6626 33.6395 47.6977 33.6978 47.7388L34.3018 48.1646C34.3734 48.215 34.4707 48.207 34.533 48.1455C34.5638 48.1151 34.5826 48.0748 34.5862 48.0317L34.6774 46.9286C34.7136 46.4909 34.981 46.1059 35.3785 45.9191C35.4929 45.8653 35.615 45.8295 35.7404 45.813L37.2981 45.608L43.3778 45.383C43.4512 45.3803 43.5093 45.32 43.5093 45.2466C43.5093 45.2083 43.4932 45.1719 43.4651 45.146L40.896 42.7865C40.7773 42.6774 40.6919 42.5369 40.6498 42.3812C40.5916 42.1656 40.6203 41.9358 40.7299 41.7411L40.8461 41.5347C40.9131 41.4156 40.9968 41.3068 41.0947 41.2114L43.742 38.633C43.8249 38.5522 43.8193 38.4173 43.7298 38.3437C43.6882 38.3095 43.6342 38.2941 43.5807 38.3012L42.4352 38.454C42.2975 38.4724 42.1584 38.479 42.0195 38.4738L39.5967 38.3832C38.5714 38.3449 38.0311 37.1513 38.6789 36.3557C38.7922 36.2165 38.874 36.0545 38.9188 35.8807L40.6122 29.3044C40.6279 29.2433 40.6209 29.1785 40.5923 29.1222C40.53 28.9993 40.3825 28.9464 40.2563 29.0018L40.197 29.0278C40.1541 29.0466 40.1157 29.0744 40.0845 29.1092L36.8337 32.7362C36.6598 32.9301 36.4116 33.041 36.1511 33.041H36.0303C35.8258 33.041 35.6326 32.9472 35.506 32.7866C35.4588 32.7268 35.4223 32.6593 35.3979 32.587L35.268 32.2024C35.1473 31.8451 35.0946 31.4683 35.1126 31.0916L35.2598 28.0111C35.2728 27.7385 35.3225 27.469 35.4075 27.2096L35.6692 26.4114C35.6934 26.3374 35.6943 26.2577 35.6717 26.1832L35.6477 26.1044C35.6134 25.9916 35.5094 25.9146 35.3916 25.9146C35.3198 25.9146 35.2511 25.9433 35.2008 25.9945L33.7268 27.4917C31.6567 29.5945 28.2655 29.5945 26.1954 27.4917L24.7151 25.988C24.6689 25.941 24.6056 25.9146 24.5397 25.9146C24.4037 25.9146 24.2934 26.0248 24.2934 26.1608V26.2481C24.2934 26.281 24.2983 26.3137 24.3078 26.3451L24.4759 26.8981C24.5867 27.2624 24.6476 27.6401 24.6571 28.0208L24.7501 31.756C24.7561 31.9947 24.6944 32.2303 24.5721 32.4355L24.5174 32.5272C24.4221 32.6872 24.2805 32.8145 24.1114 32.8924C23.9037 32.988 23.668 33.0031 23.4499 32.9346L23.3043 32.8889C23.063 32.8131 22.8487 32.6694 22.6868 32.4751L19.7919 28.9983C19.7417 28.9379 19.6673 28.9031 19.5888 28.9031C19.4428 28.9031 19.3245 29.0214 19.3245 29.1674V29.1733C19.3245 29.1974 19.3277 29.2213 19.334 29.2445L21.107 35.7339C21.1601 35.9282 21.2585 36.1072 21.3941 36.2561C22.125 37.0592 21.582 38.3499 20.4969 38.389L18.1005 38.4753C17.985 38.4795 17.8693 38.4753 17.7543 38.4627L16.3199 38.3054C16.2349 38.296 16.1524 38.3378 16.1095 38.4118C16.0598 38.4978 16.0751 38.6067 16.1467 38.6756L19.0266 41.4478C19.1205 41.5382 19.1932 41.6482 19.2395 41.7701L19.2816 41.8809C19.3572 42.0798 19.3313 42.303 19.2122 42.4793C19.1836 42.5215 19.1502 42.5603 19.1126 42.5949L16.4834 45.0096C16.4158 45.0717 16.3866 45.1652 16.4068 45.2547C16.4331 45.3717 16.537 45.4548 16.6569 45.4548H19.8291L24.142 45.8037C24.4161 45.8259 24.6746 45.9399 24.8757 46.1274C25.1233 46.3582 25.2639 46.6815 25.2639 47.02V47.977C25.2639 48.0528 25.302 48.1235 25.3654 48.1652C25.4443 48.2172 25.5473 48.2143 25.6233 48.1581L26.1601 47.7607C26.2353 47.7051 26.3167 47.6586 26.4028 47.6222Z" fill="#DD8664"/>
<path d="M29.8997 45.0444V43.7418M29.8997 10.2935V19.4123M29.8997 19.4123L31.2339 18.2355C31.5591 17.9487 31.842 17.6171 32.074 17.2507L32.1124 17.19M29.8997 19.4123L28.8335 18.5752C28.4089 18.2419 28.0466 17.8361 27.7633 17.3767L27.6481 17.19M29.8997 19.4123V24.9678M29.8997 24.9678L31.8475 23.1466C32.0238 22.9817 32.1869 22.8031 32.3351 22.6125L33.3935 21.2513M29.8997 24.9678L28.8535 24.1736C28.5429 23.9377 28.2637 23.6632 28.0226 23.3567L26.3671 21.2513M29.8997 24.9678V31.4046M29.8997 31.4046L26.7553 28.1479M29.8997 31.4046L33.0441 28.1479M29.8997 31.4046V36.7686M29.8997 36.7686L31.6601 34.8266C31.8062 34.6655 31.9406 34.4942 32.0623 34.314L33.0441 32.8605M29.8997 36.7686L28.7723 35.7415C28.5154 35.5074 28.286 35.2449 28.0884 34.959L26.6388 32.8605M29.8997 36.7686V43.7418M36.9261 20.4084L33.5876 25.351M22.7568 20.4084L26.1342 25.351M29.8997 43.7418L31.5301 43.0138M29.8997 43.7418L34.8298 46.1172M29.8997 43.7418L24.5037 46.3164M29.8997 43.7418L28.1916 43.0138M31.5301 43.0138L36.305 42.4774M31.5301 43.0138L31.6376 42.669M33.704 36.0406L31.6376 42.669M36.305 42.4774L37.4851 41.671C37.7072 41.5193 37.9423 41.3873 38.1876 41.2768L39.6047 40.6383M36.305 42.4774H41.0597C41.2798 42.4774 41.4997 42.4933 41.7176 42.5249L42.7102 42.669M42.7102 42.669L45.6994 41.2513M42.7102 42.669L43.7584 43.0926M46.7863 44.3165L43.7584 43.0926M43.7584 43.0926L48.9214 43.2054M34.8298 46.1172L39.3717 48.8759M34.8298 46.1172L35.4509 46.9218L37.1202 49.259M20.35 48.8759L24.0379 46.5387L24.5037 46.3164M24.5037 46.3164L24.1441 47.1329C23.9706 47.5266 23.7426 47.894 23.4666 48.2241L22.6015 49.259M31.6376 42.669L37.9945 36.7686M50.6295 24.6996L46.1264 29.2207L45.5441 29.7612M45.5441 29.7612H46.4972C46.8697 29.7612 47.2409 29.7157 47.6024 29.6258L49.232 29.2207M45.5441 29.7612L42.982 32.1393M42.982 32.1393L43.0984 28.6843L43.3702 27.0751M42.982 32.1393L39.7695 35.1211M38.4486 36.3471L39.954 30.5234M38.4486 36.3471L39.7695 35.1211M38.4486 36.3471L37.9945 36.7686M39.7695 35.1211L42.5304 34.9622C42.9076 34.9405 43.2808 34.8722 43.6412 34.7588L47.4851 33.5502M37.9945 36.7686L41.8174 36.6153L43.9525 36.3471M28.1916 43.0138L28.1319 42.8222M28.1916 43.0138L23.145 42.3625M26.0177 36.0406L28.1319 42.8222M28.1319 42.8222L21.7733 36.7686M8.97577 24.5847L14.413 29.7612M16.7429 31.9793L16.6233 28.7226L16.3515 27.0751M16.7429 31.9793L14.413 29.7612M16.7429 31.9793L20.0783 35.1548M14.413 29.7612H13.2344C12.8554 29.7612 12.4778 29.7141 12.1103 29.6211L10.5286 29.2207M20.0783 35.1548L16.5109 34.8235C16.1728 34.7921 15.8392 34.7232 15.5163 34.6181L12.2366 33.5502M20.0783 35.1548L21.2099 36.2322M21.7733 36.7686L17.9369 36.6292C17.6827 36.62 17.4297 36.5896 17.1806 36.5384L15.6916 36.2322M21.7733 36.7686L21.2099 36.2322M21.2099 36.2322L19.7677 30.5234M23.145 42.3625L20.1559 40.6383M23.145 42.3625L18.069 42.4668C17.7291 42.4738 17.3933 42.5423 17.0778 42.669V42.669M12.9742 44.3165L16.3904 42.945M17.0778 42.669L13.9835 41.2513M17.0778 42.669L16.3904 42.945M16.3904 42.945L11.4602 43.2054" stroke="white" stroke-width="0.310559" stroke-linecap="round" stroke-linejoin="round"/>
</svg>
