<svg width="60" height="60" viewBox="0 0 60 60" fill="none" xmlns="http://www.w3.org/2000/svg">
<path fill-rule="evenodd" clip-rule="evenodd" d="M55 35.7136L54.7986 36.3769C54.7986 36.4279 54.7986 36.4279 54.7482 36.4789C54.2447 38.2136 53.5901 39.8463 52.7845 41.3769C51.4753 43.8769 49.713 46.1728 47.6989 48.1116C45.3323 50.3565 42.5126 52.1422 39.3907 53.3157C36.571 54.3871 33.5498 54.9994 30.3776 54.9994C29.9245 54.9994 29.4713 54.9994 29.0181 54.9483C28.3635 54.8973 27.709 54.8463 27.0544 54.7443C22.7744 54.183 18.8469 52.5504 15.5237 50.1014C15.2215 49.8463 14.9194 49.6422 14.6173 49.3871C15.2216 48.8769 16.43 48.8259 16.43 48.8259L14.718 47.4483L10.4381 45.1014C9.63242 44.03 8.87714 42.9075 8.22256 41.734C8.0715 41.4279 7.92044 41.1728 7.76939 40.8667C7.76939 40.8667 7.76939 40.8667 7.76939 40.8157C7.61833 40.5096 7.46727 40.2034 7.31622 39.8973C6.86304 38.9279 6.51057 37.9075 6.1581 36.8361C5.90634 36.0708 5.70494 35.3055 5.55388 34.5402C5.45318 33.9789 5.35247 33.4177 5.25176 32.8565C5.1007 31.683 5 30.4585 5 29.234C5 28.9279 5 28.6728 5 28.3667C5 27.9585 5.05036 27.4993 5.05036 27.0912C5.10071 26.683 5.15105 26.2748 5.15105 25.8667C5.15105 25.8157 5.15105 25.8157 5.15105 25.7646C5.25176 25.2034 5.30211 24.6422 5.45317 24.081C5.60423 23.2646 5.80564 22.4993 6.0574 21.734C6.35952 20.6626 6.76233 19.5912 7.21551 18.6218C7.66868 17.6524 8.1722 16.683 8.72608 15.7646C10.4381 14.8463 11.5458 14.3361 11.5458 14.3361C11.5458 14.3361 41.1027 8.41767 41.5559 7.90747C42.0091 7.39726 44.2246 7.70338 44.2246 7.70338C45.6344 8.62175 46.8933 9.69318 48.1017 10.8666C48.4038 11.1218 48.6556 11.4279 48.9073 11.683C49.0584 11.8871 49.2598 12.0911 49.4109 12.2952C49.713 12.6524 49.9648 12.9585 50.2669 13.3156C51.2739 14.6422 52.1803 16.0197 52.9355 17.4993C53.2377 18.0605 53.4894 18.6728 53.7412 19.234C56.007 28.2646 53.1873 35.9687 53.1873 35.9687C53.9426 35.8157 54.5468 35.7647 55 35.7136Z" fill="url(#paint0_radial_4863_144992)"/>
<path fill-rule="evenodd" clip-rule="evenodd" d="M55 35.7136L54.7986 36.3769C54.7986 36.4279 54.7986 36.4279 54.7482 36.4789C54.2447 38.2136 53.5901 39.8463 52.7845 41.3769C51.4753 43.8769 49.713 46.1728 47.6989 48.1116C45.3323 50.3565 42.5126 52.1422 39.3907 53.3157C36.571 54.3871 33.5498 54.9994 30.3776 54.9994C29.9245 54.9994 29.4713 54.9994 29.0181 54.9483C28.3635 54.8973 27.709 54.8463 27.0544 54.7443C22.7744 54.183 18.8469 52.5504 15.5237 50.1014C15.2215 49.8463 14.9194 49.6422 14.6173 49.3871C15.2216 48.8769 16.43 48.8259 16.43 48.8259L14.718 47.4483L10.4381 45.1014C9.63242 44.03 8.87714 42.9075 8.22256 41.734C8.0715 41.4279 7.92044 41.1728 7.76939 40.8667C7.76939 40.8667 7.76939 40.8667 7.76939 40.8157C7.61833 40.5096 7.46727 40.2034 7.31622 39.8973C6.86304 38.9279 6.51057 37.9075 6.1581 36.8361C5.90634 36.0708 5.70494 35.3055 5.55388 34.5402C5.45318 33.9789 5.35247 33.4177 5.25176 32.8565C5.1007 31.683 5 30.4585 5 29.234C5 28.9279 5 28.6728 5 28.3667C5 27.9585 5.05036 27.4993 5.05036 27.0912C5.10071 26.683 5.15105 26.2748 5.15105 25.8667C5.15105 25.8157 5.15105 25.8157 5.15105 25.7646C5.25176 25.2034 5.30211 24.6422 5.45317 24.081C5.60423 23.2646 5.80564 22.4993 6.0574 21.734C6.35952 20.6626 6.76233 19.5912 7.21551 18.6218C7.66868 17.6524 8.1722 16.683 8.72608 15.7646C10.4381 14.8463 11.5458 14.3361 11.5458 14.3361C11.5458 14.3361 41.1027 8.41767 41.5559 7.90747C42.0091 7.39726 44.2246 7.70338 44.2246 7.70338C45.6344 8.62175 46.8933 9.69318 48.1017 10.8666C48.4038 11.1218 48.6556 11.4279 48.9073 11.683C49.0584 11.8871 49.2598 12.0911 49.4109 12.2952C49.713 12.6524 49.9648 12.9585 50.2669 13.3156C51.2739 14.6422 52.1803 16.0197 52.9355 17.4993C53.2377 18.0605 53.4894 18.6728 53.7412 19.234C56.007 28.2646 53.1873 35.9687 53.1873 35.9687C53.9426 35.8157 54.5468 35.7647 55 35.7136Z" fill="url(#paint1_radial_4863_144992)"/>
<path fill-rule="evenodd" clip-rule="evenodd" d="M54.2951 29.2858C54.2951 30.2041 54.2447 31.1225 54.144 31.9898C53.993 33.3674 53.7412 34.6939 53.3887 35.9694C53.3887 36.0205 53.3887 36.0205 53.3887 36.0715C52.9356 37.7041 52.281 39.2347 51.5257 40.6633C50.2669 43.0103 48.6556 45.1531 46.7422 46.9899C44.5267 49.0817 41.858 50.7654 38.9376 51.8878C36.3192 52.9082 33.4492 53.4695 30.4784 53.4695C30.0755 53.4695 29.6224 53.4695 29.2196 53.4184C28.6153 53.3674 27.9607 53.3164 27.3565 53.2654C23.3283 52.7552 19.6526 51.1735 16.5307 48.8776C16.0776 48.5205 15.6244 48.1633 15.1712 47.8062C15.0705 47.7041 14.9194 47.6021 14.8187 47.5001C13.711 46.4797 12.6536 45.4082 11.7472 44.1837C10.992 43.2144 10.287 42.1429 9.63243 41.0205C9.48137 40.7654 9.33032 40.5103 9.22961 40.2041C9.22961 40.2041 9.22961 40.2041 9.22961 40.1531C9.07856 39.847 8.92751 39.5919 8.8268 39.2858C8.42398 38.3674 8.07151 37.398 7.7694 36.4286C7.56799 35.7143 7.36657 35 7.21552 34.2858C7.11481 33.7756 7.01411 33.2654 6.96375 32.7041C6.8127 31.5817 6.71199 30.4592 6.71199 29.2858C6.71199 29.0307 6.71199 28.7245 6.71199 28.4694C6.71199 28.0613 6.76235 27.6531 6.76235 27.296C6.8127 26.8878 6.81269 26.5306 6.86304 26.1225C6.86304 26.0715 6.86304 26.0715 6.86304 26.0204C6.91339 25.5102 7.0141 24.949 7.1148 24.4388C7.26586 23.6735 7.46727 22.9592 7.66868 22.1939C7.9708 21.1735 8.32327 20.2041 8.77644 19.2347C9.22962 18.2143 9.78348 17.1939 10.3877 16.2245C10.7905 15.5612 11.2437 14.898 11.7472 14.2857C12.4018 13.4184 13.1571 12.602 13.9124 11.8367C18.1923 7.60204 24.0836 5 30.5287 5C30.7805 5 31.0322 5 31.284 5C31.5358 5 31.8379 5 32.0896 5.05102C32.8449 5.10204 33.5499 5.20409 34.3051 5.30613C34.3051 5.30613 34.3051 5.30613 34.3555 5.30613C34.9597 5.40817 35.564 5.51021 36.1178 5.66327C36.8731 5.86735 37.6284 6.07143 38.3333 6.32654C38.8369 6.4796 39.29 6.68368 39.7936 6.88776C40.146 7.04083 40.4985 7.19388 40.851 7.34695C40.9013 7.39797 40.9517 7.39796 41.0524 7.44898C43.3686 8.57144 45.4834 10.1021 47.2961 11.9388C47.5478 12.1939 47.7996 12.449 48.0514 12.7041C48.2024 12.9082 48.4038 13.0612 48.5549 13.2653C48.8067 13.5714 49.1088 13.9286 49.3605 14.2347C50.3172 15.4592 51.1229 16.7857 51.8278 18.1633C52.6334 19.796 53.288 21.5306 53.7412 23.3164C54.0433 24.4388 54.1944 25.6123 54.3454 26.8368C54.2447 27.7041 54.2951 28.4694 54.2951 29.2858Z" fill="url(#paint2_radial_4863_144992)"/>
<path fill-rule="evenodd" clip-rule="evenodd" d="M18.7964 19.6426C18.7964 19.6426 18.1418 21.0712 18.6957 22.4998C19.1992 23.9283 20.7098 23.01 22.4721 22.4998C24.2345 21.9896 26.0472 20.1528 27.2053 18.9793C28.3634 17.8059 29.4711 16.2242 29.3704 14.6936C29.2697 13.163 27.6585 12.1426 27.6585 12.1426C27.6585 12.1426 28.2627 11.3773 27.7591 14.4385C27.2556 17.4487 26.6011 18.5712 25.9465 19.0304C25.2919 19.4895 23.3785 20.663 22.3211 21.3263C21.2637 21.9895 20.0552 22.6528 19.3503 22.4998C18.595 22.2447 18.2425 20.663 18.7964 19.6426Z" fill="url(#paint3_radial_4863_144992)"/>
<path fill-rule="evenodd" clip-rule="evenodd" d="M22.0191 18.5711C22.0191 18.5711 21.1127 19.3874 21.3645 20.0507C21.6163 20.7139 23.3282 20.3058 24.436 18.8772C25.5438 17.4486 24.6878 16.3262 24.6878 16.3262C24.6878 16.3262 24.2849 18.6731 23.2275 19.0813C22.1701 19.4894 21.8177 19.3364 21.8177 19.3364C21.8177 19.3364 21.5659 19.1323 22.0191 18.5711Z" fill="url(#paint4_radial_4863_144992)"/>
<path fill-rule="evenodd" clip-rule="evenodd" d="M19.2998 19.5917C19.2998 19.5917 20.1558 18.5713 21.1629 17.6529C22.1699 16.6835 23.8819 16.3263 23.8819 16.3263C23.8819 16.3263 22.8748 15.7651 21.5657 16.5304C20.3069 17.3468 19.2998 19.5917 19.2998 19.5917Z" fill="url(#paint5_radial_4863_144992)"/>
<path fill-rule="evenodd" clip-rule="evenodd" d="M15.6753 19.6426C15.6753 19.6426 17.7397 17.3467 20.207 16.3773C22.6743 15.4079 23.5303 15.1018 24.638 14.1834C25.7458 13.2651 26.9543 12.5508 26.9543 12.5508C26.9543 12.5508 24.5373 12.6528 20.8616 15.0508C17.1859 17.3467 15.6753 18.8773 15.6753 19.6426Z" fill="url(#paint6_radial_4863_144992)"/>
<path fill-rule="evenodd" clip-rule="evenodd" d="M10.6899 19.1839C10.6899 19.1839 14.2146 15.6124 16.984 14.1838C19.7534 12.7553 21.6164 11.8879 24.0837 11.2247C26.551 10.6124 30.3778 9.48996 30.3778 9.48996L31.0827 9.13281C31.0827 9.13281 23.1774 9.28587 18.0414 12.4491C12.9055 15.6124 10.6899 19.1839 10.6899 19.1839Z" fill="url(#paint7_radial_4863_144992)"/>
<path fill-rule="evenodd" clip-rule="evenodd" d="M14.9701 23.3163C14.9701 23.3163 15.5743 28.2653 16.4303 28.4694C17.2863 28.6735 20.3075 28.6735 24.8392 26.3265C29.3709 23.9796 30.2772 24.5408 32.7949 21.9388C35.3125 19.3367 36.3699 16.3775 37.1252 14.4387C37.9308 12.5 38.1322 10.2551 37.8805 9.5918C37.8805 9.5918 38.7365 10.102 38.7365 12.0408C38.7365 13.9796 38.1826 17.2449 37.3769 19.0816C36.5713 20.9694 34.4565 23.9286 31.9389 25.3571C29.4213 26.7857 24.3357 29.5918 19.4011 29.5408C14.4162 29.4898 15.2219 29.1327 14.7183 28.1122C14.1645 27.0918 14.9701 23.3163 14.9701 23.3163Z" fill="url(#paint8_radial_4863_144992)"/>
<path opacity="0.5" fill-rule="evenodd" clip-rule="evenodd" d="M7.21529 27.5C7.21529 27.5 8.12164 29.4898 8.57482 31.3266C9.07834 33.1633 8.97763 36.2245 11.0421 36.7347C13.1065 37.1939 15.9766 38.5715 17.034 38.2143C18.1418 37.8572 22.17 37.1429 24.4358 37.6021C26.7017 38.0613 30.7803 37.8062 32.1901 37.0919C33.6 36.3776 36.7218 34.4898 38.1821 33.9286C39.6423 33.3674 41.6564 31.7347 43.4187 29.949C45.1811 28.1633 45.1307 26.1225 45.5839 25.1021C46.0371 24.0817 46.893 20.051 46.7923 18.2143C46.6916 16.3776 45.5839 12.9592 45.5839 12.9592L44.5768 11.8878C44.5768 11.8878 45.8356 16.5817 45.2818 19.949C44.7279 23.2653 45.2314 24.6429 42.9655 27.8062C40.6997 31.0204 37.4771 33.5205 33.9021 34.6939C30.3271 35.9184 28.0109 35.7653 24.3351 36.1225C20.8608 36.4286 16.5305 36.2245 14.8185 35.7654C13.2576 35.3572 11.1931 34.3368 9.63221 31.7857C7.97057 29.1327 7.21529 27.5 7.21529 27.5Z" fill="#7D72B3"/>
<path opacity="0.4" fill-rule="evenodd" clip-rule="evenodd" d="M15.1207 22.2963C15.1207 22.2963 15.4732 27.6535 16.1278 28.1126C16.7823 28.5718 18.2426 28.7759 19.5517 28.3167C20.9112 27.8575 25.4429 26.3269 26.2486 25.8677C27.0542 25.4085 31.8377 22.9596 32.7944 22.1943C33.7511 21.48 35.0099 18.8779 35.4631 18.3677C35.9163 17.8575 37.0744 14.6432 37.3765 13.4187C37.729 12.1942 37.9304 10.7657 37.9304 10.7657C37.9304 10.7657 38.0311 10.1024 37.4772 9.84729C36.9233 9.64321 36.8226 9.84729 36.8226 9.84729C36.8226 9.84729 36.7219 10.6636 36.2184 12.9595C35.7149 15.2555 28.9676 23.1126 25.5437 25.2045C22.1197 27.2453 18.8971 27.3473 17.739 27.1943C16.5306 27.0412 15.0704 23.2147 15.1207 22.2963Z" fill="#7D72B3"/>
<path opacity="0.4" fill-rule="evenodd" clip-rule="evenodd" d="M14.9695 23.3167C14.9695 23.3167 15.1205 20.0004 15.9765 18.8779C16.8325 17.7555 19.7026 15.4595 21.3642 14.5922C23.0762 13.7248 25.4931 12.5003 26.3491 12.2963C27.2051 12.0922 27.8093 12.2963 27.8093 12.2963C27.8093 12.2963 26.8023 11.735 24.4357 12.3473C22.0692 12.9595 19.4005 15.1534 18.0913 15.8677C16.7821 16.531 14.8184 18.2146 14.3149 19.082C13.8617 19.8473 14.9695 23.3167 14.9695 23.3167Z" fill="#7D72B3"/>
<path opacity="0.4" fill-rule="evenodd" clip-rule="evenodd" d="M9.12861 19.7956L16.4297 13.316L20.9614 11.2241C20.9614 11.2241 25.4428 9.6935 27.5073 9.1833C29.5717 8.67309 34.1538 8.57105 34.1538 8.57105L36.5707 8.82615C36.5707 8.82615 32.3915 6.53023 26.1478 8.2139C19.9544 9.89758 15.8255 12.0404 14.0128 13.7751C12.2505 15.4588 9.48108 18.9282 9.12861 19.7956Z" fill="#7D72B3"/>
<path fill-rule="evenodd" clip-rule="evenodd" d="M8.92749 20.0513C8.92749 20.0513 5 24.8472 6.91339 27.8064C8.82679 30.7656 9.68278 35.0513 10.2367 36.0207C10.7905 36.9901 17.1349 38.5207 18.4441 38.2146C19.7533 37.9085 22.9255 37.0921 24.9899 37.8575C24.9899 37.8575 28.6657 37.5513 29.6727 37.5513C30.7301 37.5513 32.6435 36.633 33.0967 36.4289C33.5498 36.2248 36.0171 35.4085 37.2759 34.8983C38.5347 34.3881 40.5992 32.7554 41.4048 32.1432C42.2105 31.4799 44.3756 28.8779 44.8288 28.0615C45.2316 27.2452 46.4904 22.5513 46.7926 20.3064C47.0947 18.0615 46.1883 13.7758 45.433 12.2962C44.6777 10.8166 42.4622 9.43905 42.4622 9.43905L42.6133 8.77577L44.3756 7.70435C44.3756 7.70435 47.4471 11.735 47.6989 15.2554C47.8499 17.2962 48.3535 21.684 47.7996 23.5717C47.3968 25.1023 45.9366 29.4901 44.6274 31.0717C43.3686 32.6534 39.5418 36.684 37.5277 37.5003C35.5136 38.2656 29.4713 39.337 25.9466 39.3881C23.3283 39.4391 17.5881 38.9799 14.7684 38.8779C11.9486 38.7758 9.93455 36.9901 8.82679 36.0717C7.71904 35.1534 8.0715 32.7044 6.96375 30.7146C5.80564 28.7758 5.20141 26.1738 5.45317 24.7452C5.70494 23.4187 8.92749 20.0513 8.92749 20.0513Z" fill="url(#paint9_radial_4863_144992)"/>
<path fill-rule="evenodd" clip-rule="evenodd" d="M15.8261 38.3668C15.2218 38.2137 14.668 37.9076 14.0637 37.7546C13.7113 37.6525 13.4091 37.6015 13.0567 37.4995C12.7042 37.3974 12.3517 37.3464 11.9993 37.3464C11.2943 37.2954 10.5894 37.1423 10.1362 36.5811C9.7334 36.0709 9.48165 35.5097 9.3306 34.8464C9.07883 33.979 8.87741 33.1117 8.62565 32.2954C8.37389 31.479 8.07177 30.8158 7.6186 30.1015C7.46754 29.8464 7.31648 29.5403 7.11507 29.2852C6.96402 29.0301 6.71227 28.826 6.56121 28.5198C6.20874 27.8056 6.10802 27.0403 6.10802 26.2239C6.10802 25.8158 6.20874 25.4076 6.30945 24.9994C6.41015 24.4892 6.56121 24.03 6.81297 23.5709C7.06473 23.1627 7.26614 22.7035 7.5179 22.2953C8.07178 21.326 8.62566 20.3566 9.28024 19.4892C10.1362 18.4178 11.0929 17.3464 12.1 16.377C12.6539 15.8158 13.3084 15.3055 13.963 14.7953C14.5169 14.3872 15.0204 13.928 15.5239 13.5198C16.4303 12.8055 17.4877 12.3463 18.5451 11.8361C19.8039 11.2239 21.0627 10.6117 22.3719 10.1525C23.9328 9.59125 25.4937 9.13206 27.105 8.77492C28.9681 8.41777 30.8815 8.31573 32.7445 8.31573C33.7515 8.31573 34.8593 8.21369 35.8663 8.57084C36.4202 8.77492 37.0748 9.03002 37.528 9.33614C37.6287 9.43819 37.679 9.43818 37.7797 9.54022C37.8301 9.59124 37.8301 9.6933 37.8804 9.74432C37.9811 9.9484 38.0315 10.2035 38.0315 10.4076C38.0315 10.6117 37.9308 10.8157 37.9308 11.0198C37.9308 11.326 37.8301 11.6321 37.8301 11.9382C37.8301 12.2953 37.7294 12.5504 37.679 12.9076C37.5783 13.5198 37.4776 14.1321 37.2259 14.7443C36.8734 15.6117 36.6216 16.53 36.2692 17.3464C36.1685 17.6015 35.967 17.8055 35.816 18.0607C35.7153 18.3158 35.6146 18.4688 35.4635 18.7239C35.2118 19.1321 35.0104 19.5913 34.7082 19.9484C34.104 20.7647 33.5501 21.6321 32.7445 22.2953C31.7878 23.0607 30.7807 23.7239 29.7233 24.2852C29.0184 24.6423 28.3135 24.9484 27.6085 25.3056C27.0043 25.6117 26.3497 25.9688 25.6951 26.275C24.0839 27.0403 22.3215 27.6015 20.6095 28.1627C20.106 28.3158 19.6529 28.4688 19.1493 28.5709C18.6962 28.6219 18.1423 28.775 17.6891 28.775C17.1856 28.775 16.682 28.6219 16.1785 28.4688C15.3729 28.2137 15.2722 27.2954 15.2218 26.5301C15.1715 25.9688 15.1211 25.4076 15.0204 24.8974C14.9197 24.4382 14.9197 24.03 14.819 23.5709C14.7183 23.1117 14.6679 22.6525 14.6679 22.1933C14.6679 21.5811 14.8694 21.0709 15.0204 20.4586C15.1211 20.1015 15.1211 19.6933 15.3225 19.3362C15.5239 18.826 15.9268 18.3668 16.3799 18.0096C16.7828 17.6525 17.2359 17.2443 17.6388 16.8872C17.8905 16.6321 18.1926 16.479 18.4444 16.2749C18.8976 15.9178 19.4011 15.6117 19.955 15.3566C20.3578 15.1525 20.6599 14.7953 21.0627 14.5402C21.4655 14.2851 21.9187 14.03 22.3215 13.7749C22.674 13.5709 23.0768 13.4688 23.4796 13.3158C23.7817 13.2137 24.0839 13.0096 24.386 12.9076C24.6881 12.8055 24.9902 12.7545 25.2923 12.6525C25.5944 12.5504 25.8462 12.4484 26.1483 12.3463C26.5008 12.2443 26.8533 12.1423 27.1554 12.1423C27.8099 12.1423 28.1121 12.4484 28.3135 13.1117C28.5652 13.979 28.2631 14.7443 27.961 15.5606C27.7092 16.2239 27.4071 16.8362 27.2057 17.4994C26.9036 18.3668 26.098 18.826 25.4434 19.4382C24.7385 20.0505 23.8825 20.6627 23.0768 21.0198C22.8251 21.1219 22.5229 21.2239 22.2712 21.326C22.0698 21.428 21.818 21.5811 21.6166 21.6831C21.4655 21.7851 21.3648 21.8872 21.2138 21.9892C21.1131 22.0913 20.962 22.0913 20.811 22.1933C20.5088 22.3974 20.2067 22.6015 19.8543 22.7545C19.5521 22.9076 18.8976 23.0096 18.6961 22.6015C18.5954 22.3974 18.5954 22.1423 18.5451 21.9382C18.4947 21.6831 18.4947 21.428 18.4947 21.1729C18.4947 20.9178 18.5451 20.7137 18.5954 20.4586C18.6458 20.2035 18.7465 19.9994 18.8472 19.7443C19.099 19.03 19.5521 18.5198 19.955 17.9586C20.2067 17.6015 20.4585 17.2443 20.7606 16.8872C21.2138 16.377 21.8683 16.1729 22.4726 15.9688C23.0265 15.8157 23.8825 15.6627 24.4363 15.9688C24.8895 16.2749 24.5874 16.8872 24.4363 17.2443C24.3356 17.4484 24.2853 17.6525 24.1846 17.8566C24.1342 18.0096 24.1342 18.2137 24.0335 18.3668C23.8321 18.6729 23.4796 18.877 23.1775 19.1321C23.0768 19.2341 22.8754 19.3872 22.7243 19.4382C22.5229 19.4892 22.3215 19.4892 22.1201 19.5402C22.0194 19.5402 21.9691 19.6933 21.8684 19.6423C21.7677 19.5913 21.7676 19.4892 21.7676 19.3872C21.7676 19.2851 21.818 19.1831 21.8684 19.0811C21.8684 19.0811 21.8684 19.03 21.8684 18.979C21.9691 18.6729 22.3215 18.3158 22.4726 18.0607C22.7243 18.1627 22.5733 18.3157 22.5229 18.4688C22.4726 18.5708 22.4726 18.6729 22.4726 18.7749C22.4726 18.877 22.3215 19.03 22.4222 19.1321C22.4726 19.1831 22.7243 19.0811 22.7747 19.0811C23.3789 18.877 23.7314 18.2137 23.9328 17.6525C24.0335 17.2443 24.0335 16.6321 23.6307 16.428C23.3286 16.3259 22.9258 16.377 22.6236 16.377C21.4655 16.377 20.7606 17.6525 20.106 18.4688C19.7032 19.03 19.3507 19.6423 19.099 20.3055C18.9479 20.7647 18.8472 21.2239 18.7465 21.6831C18.6458 22.0403 18.5451 22.5505 19.0486 22.4994C19.3507 22.4484 19.6528 22.2954 19.955 22.1933C20.2067 22.0913 20.4081 22.0402 20.6599 21.8872C21.0124 21.6831 21.4655 21.6321 21.818 21.428C22.1201 21.2749 22.4222 21.1219 22.7243 20.9688C23.4796 20.5607 24.2853 19.7953 24.7888 19.1321C25.1413 18.6729 25.6951 18.3158 26.098 17.9076C26.5511 17.4994 26.7525 16.9382 27.0547 16.428C27.3568 15.8668 27.5078 15.3566 27.6589 14.7953C27.7596 14.2851 28.1121 13.6729 27.9107 13.1117C27.7596 12.5504 27.0043 12.5504 26.5511 12.6015C26.1483 12.6525 25.7455 12.7545 25.3427 12.8566C24.6377 13.1117 23.9832 13.4178 23.3286 13.7239C22.2712 14.1831 21.3648 14.8974 20.4081 15.5096C19.9046 15.8157 19.3507 16.0708 18.8976 16.428C18.5451 16.6831 18.243 17.0402 17.8905 17.2953C17.6388 17.4994 17.4877 17.7545 17.1856 17.9076C16.8331 18.1627 16.531 18.4178 16.2792 18.7239C16.0778 18.979 15.8261 19.3362 15.7253 19.6423C15.6246 19.8974 15.7253 20.1525 15.7253 20.4076C15.7253 20.7647 15.6247 21.1219 15.6247 21.479C15.6247 21.8362 15.6247 22.2443 15.6247 22.6015C15.6247 23.3668 15.5239 24.0811 15.5239 24.7954C15.5239 25.2545 15.6246 25.7647 15.7253 26.1729C15.7757 26.53 15.9268 26.8362 15.9771 27.1933C15.9771 27.4484 16.0275 27.7545 16.2289 27.9076C16.3296 27.9586 16.4806 28.0096 16.5813 28.0607C16.6821 28.1117 16.7828 28.1627 16.8835 28.1627C16.9338 28.1627 16.9842 28.2137 17.0849 28.2137C17.1352 28.2137 17.1856 28.3158 17.1856 28.3158C17.2863 28.3668 17.4877 28.3158 17.5884 28.3158C17.8905 28.2648 18.1926 28.2137 18.4444 28.1117C19.1997 28.0097 19.9046 28.0096 20.6095 27.7545C21.4152 27.4484 22.1705 26.9892 22.9258 26.6831C24.0839 26.1729 25.393 25.8158 26.5008 25.2035C27.0043 24.9484 27.5582 24.6423 28.0617 24.4382C29.3205 23.877 30.6297 23.4178 31.6871 22.5504C32.0899 22.2443 32.4424 21.8362 32.7948 21.479C32.9962 21.2749 33.1977 21.0709 33.3991 20.8158C33.9529 20.1015 34.4565 19.3362 34.8593 18.5709C35.0607 18.2647 35.1614 17.8566 35.3125 17.5504C35.6146 17.0402 35.9167 16.5811 36.2188 16.0709C36.4706 15.5606 36.6216 15.0504 36.7727 14.4892C36.8734 14.1321 36.9741 13.877 36.9237 13.5198C36.9237 12.8055 36.9741 12.1933 37.2762 11.53C37.4273 11.1729 37.679 10.6627 37.528 10.2545C37.4776 10.0504 37.1755 9.99942 37.0245 9.9484C36.6216 9.79533 36.2188 9.69328 35.816 9.54022C35.4635 9.38716 35.2118 9.18309 34.8089 9.13207C34.6579 9.08104 34.5068 9.08104 34.3558 9.08104C33.9529 9.08104 33.6508 9.38716 33.248 9.33614C33.1473 9.33614 33.0466 9.28512 32.8955 9.28512C32.6941 9.2341 32.4927 9.28512 32.2913 9.28512C31.8381 9.28512 31.4353 9.18309 30.9822 9.18309C30.4786 9.18309 29.9751 9.2341 29.4716 9.28512C28.9681 9.33614 28.5149 9.28512 28.0113 9.28512C27.7092 9.28512 27.5078 9.43818 27.2561 9.54022C27.0043 9.64226 26.7525 9.69328 26.5008 9.79533C26.249 9.89737 26.0476 9.9484 25.7958 9.99942C25.4434 9.99942 25.1413 9.94839 24.7888 10.0504C24.386 10.1525 23.9832 10.3055 23.5803 10.4586C22.5229 10.9178 21.4655 11.53 20.3578 11.8872C19.8039 12.0402 19.25 12.1423 18.7465 12.3463C18.5451 12.4484 18.394 12.5504 18.1926 12.7035C17.8402 12.9586 17.4877 13.1627 17.1352 13.3668C16.3296 13.877 15.5743 14.4382 14.7687 15.0504C13.8623 15.7137 13.0063 16.428 12.251 17.2953C10.9419 18.826 9.58235 20.3566 8.42424 22.0402C7.87036 22.8055 7.26613 23.6729 6.91367 24.5403V24.5913C6.71226 25.1015 6.61155 25.6117 6.6619 26.1729C6.6619 26.1729 6.6619 26.1729 6.6619 26.2239C6.71226 26.6831 6.91368 27.1933 7.06473 27.6015C7.26614 28.0097 7.36684 28.4178 7.6186 28.826C7.87036 29.2341 8.22283 29.5913 8.37389 30.0505C8.5753 30.6117 8.77671 31.2239 8.97812 31.8362C9.17953 32.5505 9.38094 33.3158 9.48165 34.0811C9.58235 34.5403 9.6327 35.0505 9.88446 35.4586C10.1866 36.0709 10.8412 36.275 11.395 36.6321C11.6971 36.8362 11.8482 36.8872 12.2007 36.8872C12.6538 36.9382 13.1574 37.0403 13.6106 37.1933C14.5673 37.4995 15.5743 37.7035 16.5813 37.7035C17.1856 37.7035 17.7898 37.5505 18.3437 37.4484C18.8976 37.3974 19.4514 37.3464 20.0053 37.2444C20.5088 37.1423 21.0124 37.0403 21.5159 37.0403C22.0194 37.0403 22.5733 37.1423 23.0265 37.2444C23.8825 37.4995 24.6881 37.6525 25.5441 37.6525C26.098 37.6525 26.6015 37.4995 27.1554 37.4995C27.6589 37.4484 28.1121 37.5505 28.6156 37.6015C29.4716 37.6525 30.3276 37.4484 31.1332 37.1423C31.6871 36.9382 32.1403 36.6831 32.6438 36.377C33.0466 36.1219 33.4494 36.0709 33.8522 35.9688C34.7082 35.7137 35.5642 35.4076 36.3699 34.9484C37.3769 34.3362 38.2329 33.4688 39.24 32.8566C39.7938 32.4994 40.4484 32.2443 41.0023 31.8872C41.4555 31.5811 41.9086 31.2239 42.2611 30.8158C42.7143 30.3566 43.1171 29.8974 43.5703 29.4382C43.9227 29.0811 44.0738 28.6219 44.2249 28.2137C44.527 27.5505 44.6277 26.8872 44.7284 26.1729C44.8291 25.4586 45.1312 24.8464 45.4333 24.2341C45.8361 23.4178 46.1382 22.6525 46.1886 21.7341C46.2389 21.0198 46.3397 20.3566 46.3397 19.6423C46.3397 19.1831 46.2893 18.7749 46.1886 18.3158C46.1382 17.9076 46.0375 17.4994 45.9872 17.0913C45.8865 16.5811 45.8865 16.0709 45.7858 15.5606C45.6851 15.1525 45.5844 14.6933 45.4837 14.2341C45.383 13.928 45.2823 13.6219 45.1815 13.3158C44.9801 12.8055 44.678 12.2953 44.3256 11.8361C44.1745 11.6321 43.9731 11.5811 43.822 11.479C43.671 11.377 43.671 11.2749 43.5199 11.2239C43.3185 11.1219 43.1171 11.0198 42.9157 10.9178C42.5632 10.7137 42.2107 10.6627 41.8583 10.4586C41.5562 10.3055 41.2541 10.0504 40.9519 9.84635C40.5995 9.64227 40.247 9.48921 39.9449 9.18309C39.6428 8.87697 39.4414 8.51982 39.1896 8.26472C38.8875 7.9586 38.4847 7.75451 38.1826 7.49941C37.6287 7.04023 36.9237 6.98921 36.3195 6.7341C36.0174 6.58104 35.6649 6.58104 35.3628 6.479C34.96 6.37696 34.7082 6.17288 34.3054 6.12186C33.9529 6.07084 33.6005 6.07084 33.1977 5.9688C32.9963 5.91778 32.7948 5.86676 32.5431 5.86676C32.1403 5.81574 31.6871 5.86675 31.2843 5.91777C30.9318 5.96879 30.529 5.91777 30.1765 5.91777C29.8744 5.91777 29.5219 5.96879 29.2198 5.91777C28.3135 5.76471 27.3568 5.81574 26.4504 5.86676C25.5944 5.91778 24.7385 5.96879 23.9328 6.27491C23.2279 6.53002 22.5733 6.7341 21.8684 6.98921C21.4152 7.19329 21.0124 7.44839 20.5592 7.70349C19.5018 8.31574 18.5451 9.03003 17.5884 9.69329C16.4806 10.4586 15.4232 11.2749 14.3658 12.0912C13.6609 12.6015 12.956 13.1627 12.3014 13.6729C11.9993 13.928 11.6972 14.1831 11.4454 14.4382C12.1 13.5708 12.8553 12.7545 13.6106 11.9892C17.8905 7.75452 23.7818 5.15247 30.2269 5.15247C30.4786 5.15247 30.7304 5.15247 30.9822 5.15247C31.2339 5.15247 31.536 5.15247 31.7878 5.20349C32.5431 5.25451 33.248 5.35655 34.0033 5.45859C34.0033 5.45859 34.0033 5.45859 34.0536 5.45859C34.8593 5.66267 35.6649 5.91777 36.5209 6.17288C37.2259 6.37696 37.8804 6.58104 38.535 6.78512C38.9882 6.93818 39.391 7.14226 39.8442 7.29532C40.247 7.44839 40.6498 7.60145 41.0023 7.80553C41.6065 8.16267 42.1604 8.57085 42.6639 8.97901C43.0164 9.23411 43.3689 9.59125 43.671 9.89737C44.1241 10.3566 44.527 10.8668 44.8794 11.377C45.6851 12.6525 46.3396 14.0811 46.6418 15.6117C46.8935 16.8872 46.8935 18.2137 46.8432 19.4892C46.7928 20.1525 46.6921 20.9178 46.5411 21.5811C46.39 22.3464 46.1382 23.0096 46.0375 23.775C45.9872 24.1321 46.0375 24.5402 45.9872 24.8974C45.9368 25.2035 45.8361 25.5096 45.7858 25.8158C45.6851 26.428 45.4837 27.0913 45.1815 27.6525C44.7787 28.4688 44.2752 29.1321 43.671 29.7954C43.0164 30.5607 42.3618 31.326 41.6569 32.0403C41.0023 32.8056 40.1966 33.4178 39.3407 33.928C38.6861 34.3362 37.9812 34.8464 37.2762 35.1015C36.5713 35.3566 35.816 35.7648 35.0607 35.8668C34.5068 35.9178 34.0536 36.1219 33.6005 36.479C33.3487 36.6831 33.097 36.9382 32.8452 37.1933C32.5934 37.3974 32.3417 37.4484 32.0395 37.5505C31.385 37.7546 30.7304 37.7035 30.0254 37.7035C29.0184 37.7035 28.0617 37.8056 27.105 37.9076C26.6015 37.9586 26.098 38.0097 25.6448 37.9586C25.1916 37.9076 24.7384 37.8056 24.3356 37.7546C23.8321 37.7035 23.3789 37.7035 22.8754 37.6015C22.4726 37.5505 22.1705 37.5505 21.818 37.6015C21.5159 37.6525 21.2138 37.6015 20.8613 37.6015C20.5592 37.6525 20.2067 37.7035 19.9046 37.7546C18.6962 38.0607 17.3366 38.7239 15.8261 38.3668Z" fill="#00C4FF"/>
<path fill-rule="evenodd" clip-rule="evenodd" d="M14.6672 49.4386C14.6672 49.4386 20.2563 50.408 22.774 50.357C26.6008 50.2549 31.0318 50.7141 34.4558 50.8162C37.8797 50.9182 43.8717 48.061 44.9794 47.5508C46.0872 47.0406 48.7055 45.51 51.0217 42.908C53.3379 40.3059 54.2443 36.0712 54.2443 36.0712H53.2876C53.2876 36.0712 52.9351 37.908 51.5252 39.9488C50.6692 41.1733 49.4608 42.2447 47.7992 43.7243C45.3822 45.8161 42.2604 47.4488 39.0882 48.2651C34.8586 49.3366 31.1325 49.0304 28.5142 49.4386C24.7881 49.9998 16.4296 48.6733 16.4296 48.6733L14.6672 49.4386Z" fill="url(#paint10_radial_4863_144992)"/>
<path fill-rule="evenodd" clip-rule="evenodd" d="M13.2075 46.6328C13.2075 46.6328 14.1139 48.9798 14.6677 49.4389C14.6677 49.4389 15.8762 49.49 16.4804 48.8777L14.7684 47.5002L13.2075 46.6328Z" fill="url(#paint11_radial_4863_144992)"/>
<path fill-rule="evenodd" clip-rule="evenodd" d="M54.3454 31.6835C54.3454 31.6835 54.9496 34.3365 55 35.7651C55 35.7651 54.0433 36.3773 53.3383 36.0712C53.3383 36.0712 54.1943 32.8059 54.3454 31.6835Z" fill="url(#paint12_radial_4863_144992)"/>
<path fill-rule="evenodd" clip-rule="evenodd" d="M38.1821 6.42877C38.1821 6.42877 43.167 6.93898 44.3251 7.75531C44.3251 7.75531 43.5195 8.67367 42.5628 8.82673C42.6131 8.77571 38.5849 6.53081 38.1821 6.42877Z" fill="#EE8CFF"/>
<path fill-rule="evenodd" clip-rule="evenodd" d="M8.77637 15.8159L10.8408 15.5097L11.6464 14.4383C11.6464 14.3873 10.1862 15.0506 8.77637 15.8159Z" fill="#FF61C7"/>
<path opacity="0.5" fill-rule="evenodd" clip-rule="evenodd" d="M10.438 45.1529C10.438 45.1529 20.1056 48.01 27.6081 48.1631C35.161 48.3161 37.9808 46.6325 41.2537 45.3059C44.5266 44.0304 49.8639 41.1223 51.4752 38.9284C53.0865 36.7855 54.3453 31.6835 54.3453 31.6835C54.3453 31.6835 52.7844 39.3365 51.4752 40.6631C50.1157 41.9896 44.1741 46.1223 43.1167 46.6325C42.0593 47.1427 39.2396 49.3366 34.0533 48.7243C34.0533 48.7243 30.5789 49.2345 29.3201 49.1325C28.0613 49.0304 26.0976 50.3059 22.5225 49.1325C22.5225 49.1325 17.5376 48.8774 16.4802 48.6223C15.3725 48.4182 10.438 45.1529 10.438 45.1529Z" fill="#54469B"/>
<path fill-rule="evenodd" clip-rule="evenodd" d="M12.8046 34.847C12.8046 34.847 20.8107 36.2756 26.6012 35.6634C32.3917 35.0511 35.5136 33.5715 37.1752 32.5001C38.8368 31.4286 42.0594 27.9082 43.2679 26.2756C44.4763 24.6939 45.0805 20.6633 45.0805 20.6633C45.0805 20.6633 45.282 24.5409 44.3253 26.2756C43.3182 27.9593 39.9446 31.1735 38.5347 32.0919C37.1249 33.0103 33.147 35.2552 31.0826 35.6123C29.0181 35.9695 25.5941 37.0409 23.0765 36.5817C20.6596 36.1736 14.6173 36.2756 12.8046 34.847Z" fill="#B04FE2"/>
<path fill-rule="evenodd" clip-rule="evenodd" d="M23.8818 47.8573C23.8818 47.8573 32.19 47.2961 35.0601 46.6328C37.9302 45.9695 41.7066 44.4389 44.3249 43.4185C46.9433 42.4491 48.9574 40.5103 50.4176 39.4389C51.8778 38.3675 53.7408 33.8777 53.7408 33.8777C53.7408 33.8777 52.5324 38.3165 50.7197 39.745C48.907 41.1736 44.2242 43.8267 38.9876 46.2246C33.0963 48.8777 28.5646 48.1124 23.8818 47.8573Z" fill="#8B40E0"/>
<path fill-rule="evenodd" clip-rule="evenodd" d="M52.9358 37.2447C53.0869 36.8365 53.1876 36.4284 53.3386 36.0712C52.8855 37.7039 52.2309 39.2345 51.4756 40.6631C51.2742 40.8672 50.9721 41.0712 50.7706 41.2753C50.5692 41.5304 50.3678 41.7345 50.1664 41.9896C49.0587 43.061 47.8502 44.0304 46.541 44.8468C45.2319 45.7141 43.9227 46.5304 42.4625 47.1937C41.3547 47.7039 40.1966 48.1121 39.0385 48.4182C38.0818 48.6733 37.0748 48.7753 36.1181 48.8263C35.6145 48.8774 35.1614 48.9284 34.6579 48.9794C34.0536 49.0304 33.399 49.0304 32.8452 49.1325C31.7878 49.3366 30.7304 49.4896 29.673 49.5406C28.7666 49.5917 27.8603 49.7447 26.9539 49.7447C25.7958 49.7447 24.6377 49.5406 23.4796 49.5406C22.3718 49.5406 21.2137 49.4896 20.106 49.3876C19.4514 49.3366 18.7968 49.1835 18.1423 49.1325C17.5884 49.0815 17.0345 48.9284 16.4806 48.8774C16.0274 48.5202 15.5743 48.1631 15.1211 47.8059C15.0204 47.7039 14.8693 47.6019 14.7686 47.4998C15.4232 47.7039 16.0274 47.908 16.682 48.1121C17.5884 48.4182 18.5954 48.5713 19.5018 48.6733C20.257 48.7753 21.2137 48.8264 21.969 48.6223C22.7747 48.4182 23.3285 48.6733 24.0335 48.9794C24.3859 49.1325 24.6881 49.1835 25.0405 49.2855C25.5441 49.4386 25.8965 49.3876 26.4001 49.3366C26.8532 49.2855 27.3064 49.1835 27.7092 49.1325C28.0617 49.0304 28.4645 48.8774 28.817 48.8263C29.4715 48.7243 30.1765 48.6223 30.8311 48.7753C31.5864 48.9284 32.3416 48.9794 33.0969 48.8774C33.9026 48.7243 34.6075 48.6733 35.4131 48.6733C35.6649 48.6733 35.9167 48.7243 36.1684 48.7243C36.4705 48.7753 36.7223 48.6733 37.0244 48.6733C37.528 48.6223 38.0315 48.5202 38.535 48.3672C38.9882 48.2141 39.4413 48.01 39.8945 47.857C40.8009 47.4998 41.5561 47.1937 42.3618 46.6325C43.0164 46.1733 43.7716 45.8672 44.4262 45.408C45.0808 44.9998 45.6347 44.4386 46.2893 44.0815C46.9942 43.6733 47.5984 43.1121 48.253 42.6529C48.6558 42.3468 49.0587 41.9896 49.4615 41.6835C49.8139 41.4284 50.2168 41.2243 50.5692 40.9182C51.1231 40.408 51.677 39.8978 52.0798 39.1835C52.4323 38.5712 52.7344 37.908 52.9358 37.2447Z" fill="#00C4FF"/>
<path fill-rule="evenodd" clip-rule="evenodd" d="M27.3565 23.8265C27.3565 23.8265 33.0967 19.0306 35.5136 14.3878C35.564 14.3878 28.8167 21.3776 27.3565 23.8265Z" fill="#FF77F4"/>
<path fill-rule="evenodd" clip-rule="evenodd" d="M21.3142 29.4892C21.3142 29.4892 24.9396 29.4892 28.9678 27.8055C32.996 26.1219 35.0101 22.6014 35.0101 22.6014C35.0101 22.6014 32.2911 25.2545 29.3203 26.7341C26.3495 28.2137 24.134 28.5708 21.3142 29.4892Z" fill="#F9C6FF"/>
<path fill-rule="evenodd" clip-rule="evenodd" d="M35.6646 21.7858C35.6646 21.7858 36.0674 20.7144 36.8227 18.8777C37.5779 17.0409 38.1822 16.0205 38.1822 16.0205C38.1822 16.0205 37.9808 18.8776 35.6646 21.7858Z" fill="#EA9CF4"/>
<path fill-rule="evenodd" clip-rule="evenodd" d="M20.0556 39.2343C20.0556 39.2343 25.0908 40.4588 31.687 39.2343C38.2832 38.0098 38.5349 37.6017 40.3476 36.1221C42.1603 34.6935 43.4695 32.8568 44.1744 32.1425C44.8794 31.4282 45.7857 29.0302 45.7857 29.0302C45.7857 29.0302 43.9227 32.3976 41.254 34.6935C38.5853 36.9384 36.3698 38.0608 31.8884 38.7751C27.4574 39.4384 22.3214 39.3364 20.0556 39.2343Z" fill="#D374F4"/>
<path fill-rule="evenodd" clip-rule="evenodd" d="M24.4863 50.3579C24.4863 50.3579 29.0684 50.7661 30.9315 51.1232C32.7945 51.5314 36.3695 51.4803 38.434 50.715C40.4984 49.9497 44.5266 47.7559 44.5266 47.7559C44.5266 47.7559 40.7502 49.8987 36.2185 50.4089C31.7371 50.8681 28.9677 50.1028 24.4863 50.3579Z" fill="#D374F4"/>
<path fill-rule="evenodd" clip-rule="evenodd" d="M45.8864 47.0913C45.8864 47.0913 48.8069 45.1015 50.2167 43.826C50.2167 43.775 48.7062 45.9179 45.8864 47.0913Z" fill="#D374F4"/>
<path fill-rule="evenodd" clip-rule="evenodd" d="M23.7816 21.8882C23.7816 21.8882 27.1048 19.3371 28.1622 17.5514C29.2196 15.7147 29.3203 14.6943 29.3203 14.6943C29.3203 14.6943 29.7735 16.48 27.8098 18.7249C25.7957 20.9698 23.7816 21.8882 23.7816 21.8882Z" fill="#F2C4F8"/>
<path fill-rule="evenodd" clip-rule="evenodd" d="M8.17256 35.2043C8.12221 36.3268 8.72644 37.6023 10.6902 38.3676C12.6539 39.1329 14.1645 38.9288 14.1645 38.9288C14.1645 38.9288 11.8986 38.4696 10.6398 37.6023C9.38102 36.6329 8.17256 35.2043 8.17256 35.2043Z" fill="#F5CEFA"/>
<defs>
<radialGradient id="paint0_radial_4863_144992" cx="0" cy="0" r="1" gradientUnits="userSpaceOnUse" gradientTransform="translate(14.5539 20.247) scale(38.9821 39.4993)">
<stop offset="0.00558659" stop-color="#FF9AFF"/>
<stop offset="0.0930098" stop-color="#FB94FF"/>
<stop offset="0.2093" stop-color="#F183FF"/>
<stop offset="0.3418" stop-color="#E068FF"/>
<stop offset="0.4864" stop-color="#C841FF"/>
<stop offset="0.639" stop-color="#A910FF"/>
<stop offset="0.6844" stop-color="#9F00FF"/>
<stop offset="0.7432" stop-color="#9900F8"/>
<stop offset="0.8282" stop-color="#8700E5"/>
<stop offset="0.9287" stop-color="#6A00C6"/>
<stop offset="1" stop-color="#5200AB"/>
</radialGradient>
<radialGradient id="paint1_radial_4863_144992" cx="0" cy="0" r="1" gradientUnits="userSpaceOnUse" gradientTransform="translate(14.5539 20.247) scale(38.9821 39.4993)">
<stop offset="0.00558659" stop-color="#FF9AFF"/>
<stop offset="0.0930098" stop-color="#FB94FF"/>
<stop offset="0.2093" stop-color="#F183FF"/>
<stop offset="0.3418" stop-color="#E068FF"/>
<stop offset="0.4864" stop-color="#C841FF"/>
<stop offset="0.639" stop-color="#A910FF"/>
<stop offset="0.6844" stop-color="#9F00FF"/>
<stop offset="0.7432" stop-color="#9900F8"/>
<stop offset="0.8282" stop-color="#8700E5"/>
<stop offset="0.9287" stop-color="#6A00C6"/>
<stop offset="1" stop-color="#5200AB"/>
</radialGradient>
<radialGradient id="paint2_radial_4863_144992" cx="0" cy="0" r="1" gradientUnits="userSpaceOnUse" gradientTransform="translate(15.6594 17.9622) scale(38.319 38.8274)">
<stop offset="0.00558659" stop-color="#FF9AFF"/>
<stop offset="0.0930098" stop-color="#FB94FF"/>
<stop offset="0.2093" stop-color="#F183FF"/>
<stop offset="0.3418" stop-color="#E068FF"/>
<stop offset="0.4864" stop-color="#C841FF"/>
<stop offset="0.639" stop-color="#A910FF"/>
<stop offset="0.6844" stop-color="#9F00FF"/>
<stop offset="0.7432" stop-color="#9900F8"/>
<stop offset="0.8282" stop-color="#8700E5"/>
<stop offset="0.9287" stop-color="#6A00C6"/>
<stop offset="1" stop-color="#5200AB"/>
</radialGradient>
<radialGradient id="paint3_radial_4863_144992" cx="0" cy="0" r="1" gradientUnits="userSpaceOnUse" gradientTransform="translate(20.6983 13.8555) scale(8.56828 8.68196)">
<stop offset="0.630208" stop-color="white"/>
<stop offset="1" stop-color="#EF9AFF"/>
</radialGradient>
<radialGradient id="paint4_radial_4863_144992" cx="0" cy="0" r="1" gradientUnits="userSpaceOnUse" gradientTransform="translate(22.0616 16.9938) scale(2.98077 3.02031)">
<stop stop-color="white"/>
<stop offset="1" stop-color="#F7ABFF"/>
</radialGradient>
<radialGradient id="paint5_radial_4863_144992" cx="0" cy="0" r="1" gradientUnits="userSpaceOnUse" gradientTransform="translate(20.2282 16.7144) scale(3.14099 3.18266)">
<stop stop-color="white"/>
<stop offset="1" stop-color="#F9D0FD"/>
</radialGradient>
<radialGradient id="paint6_radial_4863_144992" cx="0" cy="0" r="1" gradientUnits="userSpaceOnUse" gradientTransform="translate(18.0074 13.6491) scale(7.25555 7.35179)">
<stop stop-color="white"/>
<stop offset="1" stop-color="#F7C2FC"/>
</radialGradient>
<radialGradient id="paint7_radial_4863_144992" cx="0" cy="0" r="1" gradientUnits="userSpaceOnUse" gradientTransform="translate(14.9058 10.7921) scale(12.3015 12.4647)">
<stop stop-color="white"/>
<stop offset="1" stop-color="#F5AEFE"/>
</radialGradient>
<radialGradient id="paint8_radial_4863_144992" cx="0" cy="0" r="1" gradientUnits="userSpaceOnUse" gradientTransform="translate(19.4653 12.7661) scale(17.1405 17.3679)">
<stop offset="0.744792" stop-color="white"/>
<stop offset="0.9998" stop-color="#E886FF"/>
<stop offset="0.9999" stop-color="#ED8CFF"/>
</radialGradient>
<radialGradient id="paint9_radial_4863_144992" cx="0" cy="0" r="1" gradientUnits="userSpaceOnUse" gradientTransform="translate(14.1202 12.8943) scale(28.9582 29.3423)">
<stop offset="0.84375" stop-color="#EEADFE"/>
<stop offset="1" stop-color="#B439EE"/>
</radialGradient>
<radialGradient id="paint10_radial_4863_144992" cx="0" cy="0" r="1" gradientUnits="userSpaceOnUse" gradientTransform="translate(22.8001 38.4485) scale(22.8233 23.1261)">
<stop offset="0.572917" stop-color="#EEB9FF"/>
<stop offset="1" stop-color="#7801BD"/>
</radialGradient>
<radialGradient id="paint11_radial_4863_144992" cx="0" cy="0" r="1" gradientUnits="userSpaceOnUse" gradientTransform="translate(13.8132 47.3712) scale(2.46324 2.49592)">
<stop stop-color="#6D00C2"/>
<stop offset="0.3995" stop-color="#6600BC"/>
<stop offset="0.976" stop-color="#5300AC"/>
<stop offset="1" stop-color="#5200AB"/>
</radialGradient>
<radialGradient id="paint12_radial_4863_144992" cx="0" cy="0" r="1" gradientUnits="userSpaceOnUse" gradientTransform="translate(53.6514 32.8585) scale(2.57285 2.60699)">
<stop stop-color="#1F0081"/>
<stop offset="0.73" stop-color="#260087"/>
<stop offset="1" stop-color="#2A008B"/>
</radialGradient>
</defs>
</svg>
