<svg width="100" height="100" viewBox="0 0 100 100" fill="none" xmlns="http://www.w3.org/2000/svg">
<g opacity="0.965123">
<path d="M31.787 25.5137C34.0516 23.742 37.1757 23.5598 39.6314 25.0562L86.1363 53.3947C86.5188 53.7013 86.9332 54.0979 87.2196 54.4943C88.6952 56.5372 88.1015 58.9962 85.386 61.0112L68.3276 74.3945C65.9149 76.2603 62.9059 76.4555 60.3159 75.0055L13.9549 46.5745C13.5331 46.3153 13.1611 45.9827 12.8564 45.5923C11.4466 43.786 11.7658 41.1778 13.5694 39.7667L31.787 25.5137Z" fill="#5E5E5E"/>
<mask id="mask0_1_1233" style="mask-type:luminance" maskUnits="userSpaceOnUse" x="11" y="24" width="78" height="52">
<path d="M31.787 25.5137C34.0516 23.742 37.1757 23.5598 39.6314 25.0562L86.1363 53.3947C86.5188 53.7013 86.9332 54.0979 87.2196 54.4943C88.6952 56.5372 88.1015 58.9962 85.386 61.0112L68.3276 74.3945C65.9149 76.2603 62.9059 76.4555 60.3159 75.0055L13.9549 46.5745C13.5331 46.3153 13.1611 45.9827 12.8564 45.5923C11.4466 43.786 11.7658 41.1778 13.5694 39.7667L31.787 25.5137Z" fill="white"/>
</mask>
<g mask="url(#mask0_1_1233)">
<g filter="url(#filter0_f_1_1233)">
<path d="M31.7168 24.9416C33.9814 23.1698 37.1055 22.9876 39.5612 24.4841L86.0661 52.8225C86.4486 53.1291 86.8631 53.5257 87.1494 53.9221C88.625 55.965 88.0313 58.4241 85.3158 60.439L68.2574 73.8224C65.8447 75.6881 62.8357 75.8833 60.2457 74.4333L13.8847 46.0024C13.4629 45.7432 13.0909 45.4106 12.7862 45.0202C11.3764 43.2138 11.6956 40.6056 13.4992 39.1946L31.7168 24.9416Z" fill="#CBCBCB"/>
</g>
<g filter="url(#filter1_f_1_1233)">
<path d="M31.7457 24.7056C34.0103 22.9339 37.1344 22.7516 39.5902 24.2481L86.095 52.5866C86.4775 52.8932 86.892 53.2897 87.1783 53.6862C88.654 55.7291 88.0602 58.1881 85.3447 60.2031L68.2863 73.5864C65.8737 75.4522 62.8646 75.6474 60.2747 74.1974L13.9136 45.7664C13.4919 45.5072 13.1199 45.1746 12.8152 44.7842C11.4054 42.9779 11.7246 40.3697 13.5281 38.9586L31.7457 24.7056Z" fill="#F1F1F1"/>
</g>
<path d="M31.787 25.5137C34.0516 23.7419 37.1757 23.5597 39.6314 25.0562L86.1363 53.3946C86.5187 53.7012 86.9641 54.0851 87.2196 54.4942C87.768 55.3723 88.3328 57.8369 85.5992 59.7469L68.2346 73.4539C65.822 75.3196 63.1182 75.6559 60.5282 74.2059L14.1141 45.7577C13.6924 45.4986 13.3204 45.1659 13.0157 44.7755C11.6059 42.9692 11.9388 41.0295 13.7424 39.6184L31.787 25.5137Z" fill="#1A1A19"/>
</g>
<path opacity="0.709589" d="M55.8326 68.6181L81.2755 50.6487L85.8515 53.359C88.3542 55.2343 87.6469 57.4864 86.0342 58.8087L68.0538 72.963C65.66 74.813 64.0971 73.6217 62.1096 72.4554L55.8326 68.6181Z" fill="#AAAAAA"/>
<mask id="mask1_1_1233" style="mask-type:luminance" maskUnits="userSpaceOnUse" x="55" y="50" width="33" height="24">
<path d="M55.8326 68.6181L81.2755 50.6487L85.8515 53.359C88.3542 55.2343 87.6469 57.4864 86.0342 58.8087L68.0538 72.963C65.66 74.813 64.0971 73.6217 62.1096 72.4554L55.8326 68.6181Z" fill="white"/>
</mask>
<g mask="url(#mask1_1_1233)">
<g opacity="0.709589" filter="url(#filter2_f_1_1233)">
<path d="M55.4473 69.2341L81.3717 50.5411L85.8976 53.3156C87.7825 54.7473 87.854 56.9987 86.271 58.2558L67.9405 72.6665C66.2619 74.0084 64.2702 74.4515 61.7243 73.0713L55.4473 69.2341Z" fill="#FAFAF9"/>
</g>
<g opacity="0.709589" filter="url(#filter3_f_1_1233)">
<path d="M54.5325 68.8939L80.8124 50.1829L85.4918 52.9046C87.9945 54.7799 87.5838 56.9438 85.9936 58.3049L67.676 72.719C65.1726 74.4701 62.7152 73.9202 60.8095 72.7311L54.5325 68.8939Z" fill="#FAFAFA"/>
</g>
</g>
<path opacity="0.709589" d="M17.4599 36.9374L69.1466 69.8825L66.2705 72.1366C63.4493 74.2821 62.2792 74.7693 60.1846 73.5027C50.0924 67.3331 34.8369 57.999 14.418 45.5004C11.6953 43.641 11.9977 41.1643 14.0209 39.6477L17.4599 36.9374Z" fill="#C8C8C8"/>
<mask id="mask2_1_1233" style="mask-type:luminance" maskUnits="userSpaceOnUse" x="12" y="36" width="58" height="39">
<path d="M17.4599 36.9374L69.1466 69.8825L66.2705 72.1366C63.4493 74.2821 62.2792 74.7693 60.1846 73.5027C50.0924 67.3331 34.8369 57.999 14.418 45.5004C11.6953 43.641 11.9977 41.1643 14.0209 39.6477L17.4599 36.9374Z" fill="white"/>
</mask>
<g mask="url(#mask2_1_1233)">
<g opacity="0.709589" filter="url(#filter4_f_1_1233)">
<path d="M17.5961 36.6302L69.1472 70.7916L66.271 73.0457C63.9736 74.6375 62.0546 74.3311 60.194 73.2312L14.5683 45.3077C11.8456 43.4483 12.1339 40.8571 14.1572 39.3406L17.5961 36.6302Z" fill="#FBFBFB"/>
</g>
<g opacity="0.709589" filter="url(#filter5_f_1_1233)">
<path d="M17.2324 37.3233L70.0955 70.2873L67.2194 72.5414C65.3994 74.0839 63.0101 74.5758 59.9867 72.9567L14.0913 44.8572C12.0495 43.4116 11.7702 41.5502 13.7935 40.0337L17.2324 37.3233Z" fill="#FFF9F0"/>
</g>
</g>
<path d="M31.7451 25.4602L31.7451 25.4602L13.6347 39.642L13.6344 39.6422C13.1431 40.032 12.5703 40.8161 12.4574 41.7422C12.3436 42.6754 12.6983 43.7399 14.0398 44.6777L14.0398 44.6778L14.0432 44.6799L60.0134 72.8891L60.0134 72.8891L60.0158 72.8904C62.6294 74.3537 65.6678 74.1564 68.1021 72.274L68.1026 72.2736L85.9511 58.2007L85.9511 58.2007L85.9534 58.1988C87.3871 56.9617 87.5469 55.5559 87.1317 54.5453C86.9467 54.0951 86.5059 53.6568 86.1216 53.3487L86.1219 53.3482L86.1145 53.3437L39.6667 24.9982L39.6667 24.9982C37.1868 23.487 34.032 23.671 31.7451 25.4602Z" fill="url(#paint0_linear_1_1233)" stroke="black" stroke-width="0.13573"/>
<path d="M86.965 54.6699C86.7869 54.2363 86.3577 53.807 85.9752 53.5004L39.6558 25.2553C38.7716 24.7165 37.7869 24.3443 36.7831 24.1713C37.7753 24.2771 38.7523 24.5989 39.6418 25.1409L85.9612 53.386C86.3436 53.6925 86.7728 54.1219 86.951 54.5554C87.0543 54.807 87.1288 55.0835 87.1587 55.3762C87.1228 55.1257 87.0548 54.8884 86.965 54.6699Z" fill="#535353"/>
<path d="M31.8291 25.857C34.0937 24.0853 36.8256 23.7498 39.6946 25.5712L85.5719 53.5221C87.4272 54.599 87.0335 56.9013 85.6167 57.9022L68.0185 71.8771C65.6058 73.7429 62.5967 73.938 60.0068 72.488L14.478 44.4029C14.0815 44.1141 13.7411 43.8535 13.4737 43.5887C12.1694 42.297 12.999 40.5849 13.9226 39.8793L31.8291 25.857Z" fill="black"/>
<path d="M31.7521 25.5174L31.7521 25.5174L13.8456 39.5396C13.2206 40.0272 12.7783 40.7031 12.6603 41.4262C12.542 42.1518 12.7515 42.9188 13.4189 43.5797C13.6903 43.8484 14.0344 44.1116 14.431 44.4005L14.4309 44.4007L14.4353 44.4034L59.9641 72.4885L59.9641 72.4886L59.9666 72.49C62.5802 73.9532 65.6186 73.756 68.0529 71.8735L68.0536 71.873L85.6488 57.9003C85.6494 57.9 85.6499 57.8996 85.6504 57.8992C86.3747 57.3868 86.8374 56.5426 86.8821 55.6869C86.9269 54.8276 86.5498 53.9583 85.5996 53.4065C85.5994 53.4063 85.5991 53.4062 85.5989 53.4061L39.7239 25.4566C39.7237 25.4565 39.7236 25.4563 39.7234 25.4562C38.2802 24.5402 36.8604 24.1064 35.513 24.1271C34.1651 24.1478 32.8949 24.6234 31.7521 25.5174Z" fill="black" stroke="black" stroke-width="0.13573"/>
<path fill-rule="evenodd" clip-rule="evenodd" d="M83.5678 52.3161C83.7334 52.4122 83.9733 52.5299 84.2535 52.6658L39.6876 25.5138C38.7367 24.9102 37.8008 24.5435 36.8921 24.3874C37.8484 24.6232 38.7846 25.0366 39.6375 25.5781L83.5678 52.3161ZM13.0019 42.9434C13.3752 43.3624 13.8561 43.7598 14.4211 44.1039L59.9145 72.2089C60.8549 72.7354 61.8965 73.1839 62.9258 73.3572C61.9277 73.2643 60.9363 72.9551 59.9998 72.4308L14.5789 44.4445C14.5149 44.3979 14.4516 44.3527 14.3885 44.3076L14.3882 44.3075C14.0603 44.0734 13.7384 43.8436 13.3618 43.4444C13.2101 43.2836 13.0915 43.1155 13.0019 42.9434ZM65.4891 73.115C66.3616 72.7935 67.2015 72.2582 67.9903 71.6482L85.5886 57.6732C85.8784 57.4685 86.1311 57.2861 86.3693 57.0442C86.1715 57.3545 85.9142 57.6297 85.6097 57.8449L68.0114 71.8198C67.2226 72.4298 66.37 72.8613 65.4891 73.115Z" fill="#454746"/>
<path d="M68.8719 71.6519C69.1998 71.9882 69.4363 72.6818 69.479 73.494L69.1317 73.7674C69.0246 72.8954 68.8262 72.3259 68.5264 71.9265L68.8719 71.6519Z" fill="url(#paint1_linear_1_1233)"/>
<path d="M59.2531 72.409C58.988 72.7764 58.9181 73.389 59.0626 74.2303L58.7006 74.0159C58.5366 73.2581 58.6144 72.6591 58.9339 72.2189L59.2531 72.409Z" fill="url(#paint2_linear_1_1233)"/>
<path d="M15.4906 45.5418C15.2043 46.0112 15.1239 46.6328 15.2636 47.3663L14.8666 47.1247C14.7709 46.3453 14.8656 45.7443 15.1449 45.3408L15.4906 45.5418Z" fill="url(#paint3_linear_1_1233)"/>
<path d="M78.2181 65.2254C78.3532 65.1222 78.7174 65.1045 78.7973 65.364C78.8772 65.6235 78.7546 66.0383 78.5472 66.2031L76.4201 67.8732C76.015 68.1614 75.9051 68.0214 75.8819 67.6797C75.8755 67.5859 75.8331 67.1578 76.105 66.8969L78.2181 65.2254Z" fill="url(#paint4_linear_1_1233)"/>
<path d="M78.1604 65.3779C78.3167 65.2342 78.6982 65.1755 78.7781 65.435C78.858 65.6944 78.7547 66.0383 78.5473 66.2031L76.4446 67.8734C76.0396 68.1616 75.9476 68.0435 75.9245 67.7019C75.9181 67.6081 75.8827 67.2372 76.1546 66.9763L78.1604 65.3779Z" fill="url(#paint5_linear_1_1233)"/>
<mask id="mask3_1_1233" style="mask-type:luminance" maskUnits="userSpaceOnUse" x="75" y="65" width="4" height="4">
<path d="M78.1604 65.3779C78.3167 65.2342 78.6982 65.1755 78.7781 65.435C78.858 65.6944 78.7547 66.0383 78.5473 66.2031L76.4446 67.8734C76.0396 68.1616 75.9476 68.0435 75.9245 67.7019C75.9181 67.6081 75.8827 67.2372 76.1546 66.9763L78.1604 65.3779Z" fill="white"/>
</mask>
<g mask="url(#mask3_1_1233)">
<g filter="url(#filter6_f_1_1233)">
<path d="M78.9276 65.5547L78.8675 66.0654L78.3619 65.9083L78.422 65.3976L78.9276 65.5547Z" fill="url(#paint6_linear_1_1233)"/>
</g>
<path d="M77.9177 65.2916C78.074 65.1479 78.4555 65.0891 78.5354 65.3486C78.6153 65.6081 78.512 65.952 78.3046 66.1167L76.202 67.7871C75.7969 68.0753 75.705 67.9572 75.6818 67.6155C75.6754 67.5217 75.64 67.1508 75.9119 66.89L77.9177 65.2916Z" fill="url(#paint7_linear_1_1233)"/>
</g>
<path d="M73.322 70.2048C73.1908 70.3661 73.0042 70.4193 72.9112 70.3343C72.82 70.2524 72.8566 70.0629 72.987 69.9003C73.1124 69.729 73.2839 69.6488 73.3758 69.732C73.4696 69.8183 73.4482 70.0348 73.322 70.2048Z" fill="url(#paint8_linear_1_1233)"/>
<mask id="mask4_1_1233" style="mask-type:luminance" maskUnits="userSpaceOnUse" x="72" y="69" width="2" height="2">
<path d="M73.322 70.2048C73.1908 70.3661 73.0042 70.4193 72.9112 70.3343C72.82 70.2524 72.8566 70.0629 72.987 69.9003C73.1124 69.729 73.2839 69.6488 73.3758 69.732C73.4696 69.8183 73.4482 70.0348 73.322 70.2048Z" fill="white"/>
</mask>
<g mask="url(#mask4_1_1233)">
<path d="M73.2577 70.1546C73.1266 70.3159 72.94 70.3691 72.847 70.2841C72.7558 70.2023 72.7924 70.0128 72.9227 69.8501C73.0482 69.6788 73.2197 69.5987 73.3116 69.6818C73.4054 69.7682 73.384 69.9847 73.2577 70.1546Z" fill="url(#paint9_linear_1_1233)"/>
<path d="M73.1296 70.0543C72.9985 70.2156 72.8119 70.2688 72.7188 70.1837C72.6276 70.1019 72.6642 69.9124 72.7946 69.7498C72.9201 69.5785 73.0915 69.4983 73.1835 69.5815C73.2772 69.6678 73.2558 69.8843 73.1296 70.0543Z" fill="url(#paint10_linear_1_1233)"/>
</g>
<path d="M72.528 70.825C72.3969 70.9863 72.2103 71.0395 72.1173 70.9544C72.026 70.8726 72.0626 70.6831 72.193 70.5205C72.3185 70.3492 72.4899 70.269 72.5819 70.3522C72.6757 70.4385 72.6543 70.655 72.528 70.825Z" fill="url(#paint11_linear_1_1233)"/>
<mask id="mask5_1_1233" style="mask-type:luminance" maskUnits="userSpaceOnUse" x="72" y="70" width="1" height="1">
<path d="M72.528 70.825C72.3969 70.9863 72.2103 71.0395 72.1173 70.9544C72.026 70.8726 72.0626 70.6831 72.193 70.5205C72.3185 70.3492 72.4899 70.269 72.5819 70.3522C72.6757 70.4385 72.6543 70.655 72.528 70.825Z" fill="white"/>
</mask>
<g mask="url(#mask5_1_1233)">
<path d="M72.464 70.7747C72.3329 70.9361 72.1463 70.9892 72.0533 70.9042C71.9621 70.8224 71.9987 70.6329 72.129 70.4702C72.2545 70.2989 72.426 70.2188 72.5179 70.3019C72.6117 70.3883 72.5903 70.6048 72.464 70.7747Z" fill="url(#paint12_linear_1_1233)"/>
<path d="M72.3356 70.6744C72.2045 70.8357 72.0179 70.8889 71.9249 70.8039C71.8336 70.722 71.8703 70.5326 72.0006 70.3699C72.1261 70.1986 72.2975 70.1184 72.3895 70.2016C72.4833 70.2879 72.4619 70.5044 72.3356 70.6744Z" fill="url(#paint13_linear_1_1233)"/>
</g>
<path d="M71.627 71.5164C71.4959 71.6778 71.3093 71.7309 71.2163 71.6459C71.125 71.5641 71.1616 71.3746 71.292 71.2119C71.4175 71.0406 71.5889 70.9605 71.6809 71.0436C71.7747 71.13 71.7533 71.3465 71.627 71.5164Z" fill="url(#paint14_linear_1_1233)"/>
<mask id="mask6_1_1233" style="mask-type:luminance" maskUnits="userSpaceOnUse" x="71" y="71" width="1" height="1">
<path d="M71.627 71.5164C71.4959 71.6778 71.3093 71.7309 71.2163 71.6459C71.125 71.5641 71.1616 71.3746 71.292 71.2119C71.4175 71.0406 71.5889 70.9605 71.6809 71.0436C71.7747 71.13 71.7533 71.3465 71.627 71.5164Z" fill="white"/>
</mask>
<g mask="url(#mask6_1_1233)">
<path d="M71.5628 71.4662C71.4317 71.6275 71.2451 71.6807 71.1521 71.5957C71.0608 71.5138 71.0974 71.3244 71.2278 71.1617C71.3533 70.9904 71.5247 70.9103 71.6167 70.9934C71.7105 71.0798 71.689 71.2962 71.5628 71.4662Z" fill="url(#paint15_linear_1_1233)"/>
<path d="M71.4345 71.3658C71.3034 71.5271 71.1168 71.5803 71.0238 71.4953C70.9325 71.4135 70.9691 71.224 71.0995 71.0613C71.225 70.89 71.3964 70.8099 71.4884 70.893C71.5822 70.9794 71.5608 71.1958 71.4345 71.3658Z" fill="url(#paint16_linear_1_1233)"/>
</g>
<path d="M85.8021 60.3674C85.6709 60.5287 85.4843 60.5819 85.3913 60.4969C85.3001 60.415 85.3367 60.2255 85.4671 60.0629C85.5926 59.8916 85.764 59.8114 85.856 59.8946C85.9497 59.9809 85.9283 60.1974 85.8021 60.3674Z" fill="url(#paint17_linear_1_1233)"/>
<mask id="mask7_1_1233" style="mask-type:luminance" maskUnits="userSpaceOnUse" x="85" y="59" width="1" height="2">
<path d="M85.8021 60.3674C85.6709 60.5287 85.4843 60.5819 85.3913 60.4969C85.3001 60.415 85.3367 60.2255 85.4671 60.0629C85.5926 59.8916 85.764 59.8114 85.856 59.8946C85.9497 59.9809 85.9283 60.1974 85.8021 60.3674Z" fill="white"/>
</mask>
<g mask="url(#mask7_1_1233)">
<path d="M85.738 60.3172C85.6069 60.4785 85.4203 60.5317 85.3272 60.4467C85.236 60.3649 85.2726 60.1754 85.403 60.0127C85.5285 59.8414 85.6999 59.7613 85.7919 59.8444C85.8857 59.9308 85.8642 60.1472 85.738 60.3172Z" fill="url(#paint18_linear_1_1233)"/>
<path d="M85.6096 60.2168C85.4784 60.3781 85.2918 60.4312 85.1988 60.3462C85.1076 60.2644 85.1442 60.0749 85.2745 59.9123C85.4 59.741 85.5715 59.6608 85.6634 59.744C85.7572 59.8303 85.7358 60.0468 85.6096 60.2168Z" fill="url(#paint19_linear_1_1233)"/>
</g>
<path d="M85.0082 60.9876C84.8771 61.149 84.6905 61.2021 84.5975 61.1171C84.5063 61.0353 84.5429 60.8458 84.6732 60.6831C84.7987 60.5118 84.9701 60.4317 85.0621 60.5148C85.1559 60.6012 85.1345 60.8177 85.0082 60.9876Z" fill="url(#paint20_linear_1_1233)"/>
<mask id="mask8_1_1233" style="mask-type:luminance" maskUnits="userSpaceOnUse" x="84" y="60" width="2" height="2">
<path d="M85.0082 60.9876C84.8771 61.149 84.6905 61.2021 84.5975 61.1171C84.5063 61.0353 84.5429 60.8458 84.6732 60.6831C84.7987 60.5118 84.9701 60.4317 85.0621 60.5148C85.1559 60.6012 85.1345 60.8177 85.0082 60.9876Z" fill="white"/>
</mask>
<g mask="url(#mask8_1_1233)">
<path d="M84.944 60.9374C84.8129 61.0987 84.6263 61.1519 84.5333 61.0669C84.442 60.985 84.4787 60.7956 84.609 60.6329C84.7345 60.4616 84.9059 60.3814 84.9979 60.4646C85.0917 60.5509 85.0703 60.7674 84.944 60.9374Z" fill="url(#paint21_linear_1_1233)"/>
<path d="M84.8157 60.837C84.6846 60.9983 84.498 61.0515 84.405 60.9665C84.3137 60.8846 84.3504 60.6952 84.4807 60.5325C84.6062 60.3612 84.7776 60.281 84.8696 60.3642C84.9634 60.4505 84.942 60.667 84.8157 60.837Z" fill="url(#paint22_linear_1_1233)"/>
</g>
<path d="M84.1071 61.679C83.976 61.8404 83.7894 61.8935 83.6964 61.8085C83.6051 61.7267 83.6417 61.5372 83.7721 61.3745C83.8976 61.2032 84.069 61.1231 84.161 61.2062C84.2548 61.2926 84.2334 61.5091 84.1071 61.679Z" fill="url(#paint23_linear_1_1233)"/>
<mask id="mask9_1_1233" style="mask-type:luminance" maskUnits="userSpaceOnUse" x="83" y="61" width="2" height="1">
<path d="M84.1071 61.679C83.976 61.8404 83.7894 61.8935 83.6964 61.8085C83.6051 61.7267 83.6417 61.5372 83.7721 61.3745C83.8976 61.2032 84.069 61.1231 84.161 61.2062C84.2548 61.2926 84.2334 61.5091 84.1071 61.679Z" fill="white"/>
</mask>
<g mask="url(#mask9_1_1233)">
<path d="M84.0429 61.6288C83.9118 61.7901 83.7252 61.8433 83.6322 61.7583C83.5409 61.6765 83.5775 61.487 83.7079 61.3243C83.8334 61.153 84.0048 61.0729 84.0968 61.156C84.1906 61.2424 84.1691 61.4588 84.0429 61.6288Z" fill="url(#paint24_linear_1_1233)"/>
<path d="M83.9146 61.5285C83.7835 61.6898 83.5969 61.7429 83.5039 61.6579C83.4126 61.5761 83.4492 61.3866 83.5796 61.224C83.7051 61.0527 83.8765 60.9725 83.9685 61.0557C84.0623 61.142 84.0408 61.3585 83.9146 61.5285Z" fill="url(#paint25_linear_1_1233)"/>
</g>
<path d="M83.242 62.3554C83.1109 62.5167 82.9243 62.5699 82.8313 62.4849C82.74 62.4031 82.7766 62.2136 82.907 62.0509C83.0325 61.8796 83.2039 61.7995 83.2959 61.8826C83.3897 61.969 83.3682 62.1855 83.242 62.3554Z" fill="url(#paint26_linear_1_1233)"/>
<mask id="mask10_1_1233" style="mask-type:luminance" maskUnits="userSpaceOnUse" x="82" y="61" width="2" height="2">
<path d="M83.242 62.3554C83.1109 62.5167 82.9243 62.5699 82.8313 62.4849C82.74 62.4031 82.7766 62.2136 82.907 62.0509C83.0325 61.8796 83.2039 61.7995 83.2959 61.8826C83.3897 61.969 83.3682 62.1855 83.242 62.3554Z" fill="white"/>
</mask>
<g mask="url(#mask10_1_1233)">
<path d="M83.199 62.3131C83.0679 62.4745 82.8813 62.5276 82.7883 62.4426C82.697 62.3608 82.7337 62.1713 82.864 62.0086C82.9895 61.8373 83.1609 61.7572 83.2529 61.8403C83.3467 61.9267 83.3253 62.1432 83.199 62.3131Z" fill="url(#paint27_linear_1_1233)"/>
<path d="M83.0707 62.2128C82.9396 62.3741 82.753 62.4273 82.66 62.3423C82.5688 62.2604 82.6054 62.0709 82.7357 61.9083C82.8612 61.737 83.0326 61.6568 83.1246 61.74C83.2184 61.8263 83.197 62.0428 83.0707 62.2128Z" fill="url(#paint28_linear_1_1233)"/>
</g>
<path d="M82.4694 62.9835C82.3383 63.1449 82.1517 63.198 82.0587 63.113C81.9674 63.0312 82.004 62.8417 82.1344 62.679C82.2599 62.5077 82.4313 62.4276 82.5233 62.5107C82.6171 62.5971 82.5957 62.8136 82.4694 62.9835Z" fill="url(#paint29_linear_1_1233)"/>
<mask id="mask11_1_1233" style="mask-type:luminance" maskUnits="userSpaceOnUse" x="82" y="62" width="1" height="2">
<path d="M82.4694 62.9835C82.3383 63.1449 82.1517 63.198 82.0587 63.113C81.9674 63.0312 82.004 62.8417 82.1344 62.679C82.2599 62.5077 82.4313 62.4276 82.5233 62.5107C82.6171 62.5971 82.5957 62.8136 82.4694 62.9835Z" fill="white"/>
</mask>
<g mask="url(#mask11_1_1233)">
<path d="M82.4052 62.9334C82.2741 63.0948 82.0875 63.1479 81.9945 63.0629C81.9032 62.9811 81.9398 62.7916 82.0702 62.6289C82.1957 62.4576 82.3671 62.3775 82.4591 62.4606C82.5529 62.547 82.5315 62.7635 82.4052 62.9334Z" fill="url(#paint30_linear_1_1233)"/>
<path d="M82.2769 62.833C82.1458 62.9943 81.9592 63.0475 81.8662 62.9624C81.7749 62.8806 81.8115 62.6911 81.9419 62.5285C82.0674 62.3572 82.2388 62.277 82.3308 62.3602C82.4246 62.4465 82.4032 62.663 82.2769 62.833Z" fill="url(#paint31_linear_1_1233)"/>
</g>
<path d="M81.6755 63.6037C81.5444 63.765 81.3578 63.8182 81.2647 63.7332C81.1735 63.6514 81.2101 63.4619 81.3405 63.2992C81.466 63.1279 81.6374 63.0478 81.7294 63.1309C81.8231 63.2173 81.8017 63.4337 81.6755 63.6037Z" fill="url(#paint32_linear_1_1233)"/>
<mask id="mask12_1_1233" style="mask-type:luminance" maskUnits="userSpaceOnUse" x="81" y="63" width="1" height="1">
<path d="M81.6755 63.6037C81.5444 63.765 81.3578 63.8182 81.2647 63.7332C81.1735 63.6514 81.2101 63.4619 81.3405 63.2992C81.466 63.1279 81.6374 63.0478 81.7294 63.1309C81.8231 63.2173 81.8017 63.4337 81.6755 63.6037Z" fill="white"/>
</mask>
<g mask="url(#mask12_1_1233)">
<path d="M81.6111 63.5535C81.48 63.7149 81.2934 63.768 81.2004 63.683C81.1092 63.6012 81.1458 63.4117 81.2761 63.2491C81.4016 63.0778 81.573 62.9976 81.665 63.0808C81.7588 63.1671 81.7374 63.3836 81.6111 63.5535Z" fill="url(#paint33_linear_1_1233)"/>
<path d="M81.483 63.4531C81.3518 63.6145 81.1653 63.6676 81.0722 63.5826C80.981 63.5008 81.0176 63.3113 81.148 63.1486C81.2735 62.9773 81.4449 62.8972 81.5369 62.9803C81.6306 63.0667 81.6092 63.2832 81.483 63.4531Z" fill="url(#paint34_linear_1_1233)"/>
</g>
<path d="M79.964 65.0044C79.8088 65.1929 79.5882 65.2553 79.4784 65.1563C79.3708 65.0609 79.4144 64.8398 79.5687 64.6497C79.7173 64.4496 79.92 64.3558 80.0285 64.4526C80.1392 64.5532 80.1135 64.8059 79.964 65.0044Z" fill="url(#paint35_linear_1_1233)"/>
<mask id="mask13_1_1233" style="mask-type:luminance" maskUnits="userSpaceOnUse" x="79" y="64" width="2" height="2">
<path d="M79.964 65.0044C79.8088 65.1929 79.5882 65.2553 79.4784 65.1563C79.3708 65.0609 79.4144 64.8398 79.5687 64.6497C79.7173 64.4496 79.92 64.3558 80.0285 64.4526C80.1392 64.5532 80.1135 64.8059 79.964 65.0044Z" fill="white"/>
</mask>
<g mask="url(#mask13_1_1233)">
<path d="M79.8883 64.9459C79.7331 65.1344 79.5125 65.1967 79.4027 65.0977C79.2951 65.0024 79.3387 64.7812 79.493 64.5912C79.6416 64.3911 79.8443 64.2972 79.9529 64.3941C80.0635 64.4947 80.0378 64.7473 79.8883 64.9459Z" fill="url(#paint36_linear_1_1233)"/>
<path d="M79.6775 64.895L79.5525 64.9692L79.6203 64.8361L79.5719 64.7537L79.6932 64.7206L79.7883 64.5954L79.7954 64.7081L79.9026 64.7131L79.7857 64.8158L79.7569 64.9441L79.6775 64.895Z" fill="url(#paint37_linear_1_1233)"/>
</g>
<path d="M75.2078 68.7826C75.0526 68.971 74.832 69.0334 74.7222 68.9344C74.6145 68.8391 74.6582 68.6179 74.8125 68.4279C74.9611 68.2277 75.1638 68.1339 75.2723 68.2308C75.383 68.3313 75.3573 68.584 75.2078 68.7826Z" fill="url(#paint38_linear_1_1233)"/>
<mask id="mask14_1_1233" style="mask-type:luminance" maskUnits="userSpaceOnUse" x="74" y="68" width="2" height="1">
<path d="M75.2078 68.7826C75.0526 68.971 74.832 69.0334 74.7222 68.9344C74.6145 68.8391 74.6582 68.6179 74.8125 68.4279C74.9611 68.2277 75.1638 68.1339 75.2723 68.2308C75.383 68.3313 75.3573 68.584 75.2078 68.7826Z" fill="white"/>
</mask>
<g mask="url(#mask14_1_1233)">
<path d="M75.1321 68.724C74.9769 68.9125 74.7563 68.9749 74.6465 68.8759C74.5389 68.7805 74.5825 68.5594 74.7368 68.3693C74.8854 68.1692 75.0881 68.0754 75.1966 68.1722C75.3073 68.2728 75.2816 68.5255 75.1321 68.724Z" fill="url(#paint39_linear_1_1233)"/>
<path d="M74.9214 68.6731L74.7964 68.7473L74.8642 68.6142L74.8157 68.5318L74.9371 68.4987L75.0322 68.3735L75.0393 68.4862L75.1465 68.4912L75.0296 68.5939L75.0008 68.7222L74.9214 68.6731Z" fill="url(#paint40_linear_1_1233)"/>
</g>
<path d="M29.9433 55.4201C30.1745 55.5802 30.2146 55.7822 30.2275 56.0113C30.2455 56.3323 29.9352 56.3187 29.6938 56.1954L26.5607 54.2927C26.2039 54.0578 26.2173 53.8247 26.3452 53.6101C26.3968 53.5234 26.6142 53.3949 26.8722 53.5454L29.9433 55.4201Z" fill="url(#paint41_linear_1_1233)"/>
<g filter="url(#filter7_d_1_1233)">
<path d="M29.9095 55.4377C30.1295 55.5876 30.1567 55.8088 30.1805 56.0029C30.2083 56.2756 29.9495 56.3567 29.593 56.1909L26.4962 54.3012C26.2048 54.1188 26.1987 53.9029 26.3082 53.6967C26.4188 53.4886 26.6455 53.4411 26.8912 53.5955L29.9095 55.4377Z" fill="url(#paint42_linear_1_1233)"/>
</g>
<mask id="mask15_1_1233" style="mask-type:luminance" maskUnits="userSpaceOnUse" x="26" y="53" width="5" height="4">
<path d="M29.9095 55.4377C30.1295 55.5876 30.1567 55.8088 30.1805 56.0029C30.2083 56.2756 29.9495 56.3567 29.593 56.1909L26.4962 54.3012C26.2048 54.1188 26.1987 53.9029 26.3082 53.6967C26.4188 53.4886 26.6455 53.4411 26.8912 53.5955L29.9095 55.4377Z" fill="white"/>
</mask>
<g mask="url(#mask15_1_1233)">
<g filter="url(#filter8_f_1_1233)">
<path d="M30.1547 55.3826L29.7579 55.85L26.3818 53.7802L26.8474 53.3778L30.1547 55.3826Z" fill="url(#paint43_linear_1_1233)"/>
</g>
</g>
<path fill-rule="evenodd" clip-rule="evenodd" d="M29.7761 55.5905C29.9709 55.7282 29.9421 55.9113 29.9626 56.0783C29.9843 56.2552 29.7739 56.281 29.5608 56.1687L26.5032 54.3206C26.3258 54.2103 26.282 54.1017 26.2614 54.0345C26.2407 53.9673 26.2488 53.8039 26.3357 53.7229C26.4225 53.6419 26.6154 53.6829 26.755 53.7642L29.7761 55.5905Z" fill="url(#paint44_linear_1_1233)"/>
<mask id="mask16_1_1233" style="mask-type:luminance" maskUnits="userSpaceOnUse" x="26" y="53" width="4" height="4">
<path fill-rule="evenodd" clip-rule="evenodd" d="M29.7761 55.5905C29.9709 55.7282 29.9421 55.9113 29.9626 56.0783C29.9843 56.2552 29.7739 56.281 29.5608 56.1687L26.5032 54.3206C26.3258 54.2103 26.282 54.1017 26.2614 54.0345C26.2407 53.9673 26.2488 53.8039 26.3357 53.7229C26.4225 53.6419 26.6154 53.6829 26.755 53.7642L29.7761 55.5905Z" fill="white"/>
</mask>
<g mask="url(#mask16_1_1233)">
<path fill-rule="evenodd" clip-rule="evenodd" d="M30.6906 55.7097C30.815 55.7938 30.9127 55.9522 30.8544 56.1441C30.8373 56.2001 30.6812 56.4412 30.4681 56.3289L26.1203 53.7032L26.3721 53.1468L30.6906 55.7097Z" fill="#1E1D1D"/>
</g>
<path d="M24.7944 52.2192C25.0256 52.3792 25.0657 52.5812 25.0786 52.8104C25.0966 53.1314 24.7863 53.1177 24.5449 52.9945L21.4117 51.0918C21.0549 50.8568 21.0684 50.6237 21.1963 50.4091C21.2479 50.3225 21.4653 50.194 21.7233 50.3444L24.7944 52.2192Z" fill="url(#paint45_linear_1_1233)"/>
<g filter="url(#filter9_d_1_1233)">
<path d="M24.7605 52.2369C24.9805 52.3867 25.0076 52.608 25.0315 52.8021C25.0592 53.0748 24.8004 53.1558 24.444 52.99L21.3472 51.1003C21.0558 50.918 21.0496 50.702 21.1592 50.4959C21.2697 50.2877 21.4965 50.2402 21.7421 50.3947L24.7605 52.2369Z" fill="url(#paint46_linear_1_1233)"/>
</g>
<mask id="mask17_1_1233" style="mask-type:luminance" maskUnits="userSpaceOnUse" x="21" y="50" width="5" height="4">
<path d="M24.7605 52.2369C24.9805 52.3867 25.0076 52.608 25.0315 52.8021C25.0592 53.0748 24.8004 53.1558 24.444 52.99L21.3472 51.1003C21.0558 50.918 21.0496 50.702 21.1592 50.4959C21.2697 50.2877 21.4965 50.2402 21.7421 50.3947L24.7605 52.2369Z" fill="white"/>
</mask>
<g mask="url(#mask17_1_1233)">
<g filter="url(#filter10_f_1_1233)">
<path d="M25.0058 52.1817L24.609 52.6492L21.2329 50.5794L21.6984 50.177L25.0058 52.1817Z" fill="url(#paint47_linear_1_1233)"/>
</g>
</g>
<path fill-rule="evenodd" clip-rule="evenodd" d="M24.6272 52.3895C24.822 52.5272 24.7932 52.7103 24.8137 52.8773C24.8354 53.0542 24.625 53.08 24.4119 52.9677L21.3543 51.1196C21.1769 51.0093 21.1331 50.9007 21.1124 50.8335C21.0918 50.7663 21.0999 50.603 21.1867 50.5219C21.2736 50.4409 21.4665 50.4819 21.606 50.5632L24.6272 52.3895Z" fill="url(#paint48_linear_1_1233)"/>
<mask id="mask18_1_1233" style="mask-type:luminance" maskUnits="userSpaceOnUse" x="21" y="50" width="4" height="4">
<path fill-rule="evenodd" clip-rule="evenodd" d="M24.6272 52.3895C24.822 52.5272 24.7932 52.7103 24.8137 52.8773C24.8354 53.0542 24.625 53.08 24.4119 52.9677L21.3543 51.1196C21.1769 51.0093 21.1331 50.9007 21.1124 50.8335C21.0918 50.7663 21.0999 50.603 21.1867 50.5219C21.2736 50.4409 21.4665 50.4819 21.606 50.5632L24.6272 52.3895Z" fill="white"/>
</mask>
<g mask="url(#mask18_1_1233)">
<path fill-rule="evenodd" clip-rule="evenodd" d="M25.5414 52.5089C25.6658 52.5929 25.7635 52.7513 25.7052 52.9432C25.6881 52.9992 25.532 53.2403 25.3189 53.128L20.9712 50.5024L21.2229 49.9459L25.5414 52.5089Z" fill="#1E1D1D"/>
</g>
<g filter="url(#filter11_d_1_1233)">
<path fill-rule="evenodd" clip-rule="evenodd" d="M17.3818 47.7504L18.9546 48.7204C19.194 48.8603 19.1647 49.0023 19.1892 49.2617C19.2067 49.4542 19.1165 49.5801 18.9132 49.4519L17.2706 48.4571C17.1111 48.3642 17.0073 48.095 17.0498 47.9137C17.0894 47.7309 17.2561 47.6787 17.3818 47.7504Z" fill="url(#paint49_linear_1_1233)"/>
</g>
<mask id="mask19_1_1233" style="mask-type:luminance" maskUnits="userSpaceOnUse" x="17" y="47" width="3" height="3">
<path fill-rule="evenodd" clip-rule="evenodd" d="M17.3818 47.7504L18.9546 48.7204C19.194 48.8603 19.1647 49.0023 19.1892 49.2617C19.2067 49.4542 19.1165 49.5801 18.9132 49.4519L17.2706 48.4571C17.1111 48.3642 17.0073 48.095 17.0498 47.9137C17.0894 47.7309 17.2561 47.6787 17.3818 47.7504Z" fill="white"/>
</mask>
<g mask="url(#mask19_1_1233)">
<path fill-rule="evenodd" clip-rule="evenodd" d="M17.6314 47.6941L19.2638 48.6764C19.402 48.7595 19.4452 48.9816 19.3604 49.1725C19.2756 49.3633 19.1565 49.4667 18.9826 49.3621L17.3502 48.3799C17.1854 48.2807 17.1429 48.08 17.2278 47.8892C17.3126 47.6983 17.4933 47.611 17.6314 47.6941Z" fill="url(#paint50_linear_1_1233)"/>
</g>
<g filter="url(#filter12_d_1_1233)">
<path d="M19.0125 48.7788C19.1312 48.8621 19.1451 48.951 19.1583 49.0584C19.1737 49.2093 19.0344 49.2537 18.8421 49.1613L17.1775 48.1672C17.0202 48.0658 17.0165 47.9463 17.0751 47.8324C17.1343 47.7174 17.2563 47.6915 17.389 47.7775L19.0125 48.7788Z" fill="url(#paint51_linear_1_1233)"/>
</g>
<mask id="mask20_1_1233" style="mask-type:luminance" maskUnits="userSpaceOnUse" x="17" y="47" width="3" height="3">
<path d="M19.0125 48.7788C19.1312 48.8621 19.1451 48.951 19.1583 49.0584C19.1737 49.2093 19.0344 49.2537 18.8421 49.1613L17.1775 48.1672C17.0202 48.0658 17.0165 47.9463 17.0751 47.8324C17.1343 47.7174 17.2563 47.6915 17.389 47.7775L19.0125 48.7788Z" fill="white"/>
</mask>
<g mask="url(#mask20_1_1233)">
<g filter="url(#filter13_f_1_1233)">
<path d="M19.1501 48.7722L18.9372 49.0301L17.1148 47.8786L17.3648 47.6568L19.1501 48.7722Z" fill="url(#paint52_linear_1_1233)"/>
</g>
</g>
<path fill-rule="evenodd" clip-rule="evenodd" d="M18.9396 48.8294C19.0324 48.8907 19.0605 48.9979 19.0409 49.0997C19.0213 49.2015 18.9397 49.2115 18.8246 49.149L17.1812 48.178C17.0855 48.1166 17.0617 48.0564 17.0504 48.0192C17.0392 47.982 17.0432 47.8916 17.0899 47.847C17.1365 47.8023 17.2405 47.8253 17.3158 47.8705L18.9396 48.8294Z" fill="url(#paint53_linear_1_1233)"/>
<mask id="mask21_1_1233" style="mask-type:luminance" maskUnits="userSpaceOnUse" x="17" y="47" width="3" height="3">
<path fill-rule="evenodd" clip-rule="evenodd" d="M18.9396 48.8294C19.0324 48.8907 19.0605 48.9979 19.0409 49.0997C19.0213 49.2015 18.9397 49.2115 18.8246 49.149L17.1812 48.178C17.0855 48.1166 17.0617 48.0564 17.0504 48.0192C17.0392 47.982 17.0432 47.8916 17.0899 47.847C17.1365 47.8023 17.2405 47.8253 17.3158 47.8705L18.9396 48.8294Z" fill="white"/>
</mask>
<g mask="url(#mask21_1_1233)">
<path fill-rule="evenodd" clip-rule="evenodd" d="M19.4394 48.9543C19.5066 49.0011 19.5595 49.0889 19.5284 49.195C19.5193 49.2259 19.4321 49.3305 19.3171 49.2679L16.9773 47.8643L17.1084 47.5282L19.4394 48.9543Z" fill="#140000"/>
</g>
<g filter="url(#filter14_d_1_1233)">
<path fill-rule="evenodd" clip-rule="evenodd" d="M25.8279 31.8762C25.9707 31.7626 26.1645 31.7779 26.2609 31.9104C26.3572 32.043 26.3196 32.2425 26.1769 32.356L23.5784 34.3774C23.4356 34.491 23.2418 34.4756 23.1454 34.3431C23.0491 34.2106 23.0867 34.0111 23.2295 33.8975L25.8279 31.8762Z" fill="#030303"/>
</g>
<mask id="mask22_1_1233" style="mask-type:luminance" maskUnits="userSpaceOnUse" x="23" y="31" width="4" height="4">
<path fill-rule="evenodd" clip-rule="evenodd" d="M25.8279 31.8762C25.9707 31.7626 26.1645 31.7779 26.2609 31.9104C26.3572 32.043 26.3196 32.2425 26.1769 32.356L23.5784 34.3774C23.4356 34.491 23.2418 34.4756 23.1454 34.3431C23.0491 34.2106 23.0867 34.0111 23.2295 33.8975L25.8279 31.8762Z" fill="white"/>
</mask>
<g mask="url(#mask22_1_1233)">
<path fill-rule="evenodd" clip-rule="evenodd" d="M25.842 31.9906C25.9847 31.877 26.1785 31.8924 26.2749 32.0249C26.3712 32.1574 26.3336 32.3569 26.1909 32.4705L23.5924 34.4918C23.4497 34.6054 23.2558 34.5901 23.1595 34.4576C23.0631 34.3251 23.1007 34.1256 23.2435 34.012L25.842 31.9906Z" fill="#1A1A1A"/>
</g>
<path d="M27.4824 31.463C27.1984 31.4979 26.9445 31.334 26.9154 31.097C26.8863 30.86 27.093 30.6396 27.377 30.6048C27.661 30.5699 27.9148 30.7337 27.9439 30.9707C27.973 31.2077 27.7664 31.4281 27.4824 31.463Z" fill="url(#paint54_linear_1_1233)"/>
<mask id="mask23_1_1233" style="mask-type:luminance" maskUnits="userSpaceOnUse" x="26" y="30" width="2" height="2">
<path d="M27.4824 31.463C27.1984 31.4979 26.9445 31.334 26.9154 31.097C26.8863 30.86 27.093 30.6396 27.377 30.6048C27.661 30.5699 27.9148 30.7337 27.9439 30.9707C27.973 31.2077 27.7664 31.4281 27.4824 31.463Z" fill="white"/>
</mask>
<g mask="url(#mask23_1_1233)">
<g filter="url(#filter15_d_1_1233)">
<path fill-rule="evenodd" clip-rule="evenodd" d="M27.4291 31.3139C27.2594 31.3328 27.1126 31.2286 27.1012 31.081C27.0897 30.9334 27.218 30.7984 27.3876 30.7795C27.5573 30.7605 27.7041 30.8648 27.7155 31.0124C27.727 31.1599 27.5987 31.2949 27.4291 31.3139Z" fill="#10141E"/>
</g>
<mask id="mask24_1_1233" style="mask-type:luminance" maskUnits="userSpaceOnUse" x="27" y="30" width="1" height="2">
<path fill-rule="evenodd" clip-rule="evenodd" d="M27.4291 31.3139C27.2594 31.3328 27.1126 31.2286 27.1012 31.081C27.0897 30.9334 27.218 30.7984 27.3876 30.7795C27.5573 30.7605 27.7041 30.8648 27.7155 31.0124C27.727 31.1599 27.5987 31.2949 27.4291 31.3139Z" fill="white"/>
</mask>
<g mask="url(#mask24_1_1233)">
<path fill-rule="evenodd" clip-rule="evenodd" d="M27.3433 30.9824C27.3093 30.9875 27.2802 30.9672 27.2783 30.9371C27.2764 30.9069 27.3025 30.8784 27.3365 30.8733C27.3705 30.8682 27.3997 30.8885 27.4015 30.9186C27.4034 30.9488 27.3774 30.9773 27.3433 30.9824Z" fill="url(#paint55_linear_1_1233)"/>
<path fill-rule="evenodd" clip-rule="evenodd" d="M27.4963 30.8753C27.4465 30.7273 27.4566 30.6248 27.5057 30.6072C27.5549 30.5896 27.6243 30.6635 27.6741 30.8116C27.7239 30.9597 27.7208 31.0831 27.6717 31.1007C27.6226 31.1183 27.5461 31.0234 27.4963 30.8753Z" fill="#365191"/>
<path fill-rule="evenodd" clip-rule="evenodd" d="M27.2034 31.1944C27.1593 31.0632 27.1556 30.9453 27.1952 30.9311C27.2347 30.917 27.3026 31.0118 27.3467 31.143C27.3908 31.2742 27.3833 31.3587 27.3437 31.3729C27.3041 31.3871 27.2475 31.3256 27.2034 31.1944Z" fill="#24396B"/>
<path fill-rule="evenodd" clip-rule="evenodd" d="M27.4254 31.233C27.4174 31.2121 27.4635 31.1746 27.5282 31.1492C27.593 31.1238 27.652 31.12 27.6599 31.1409C27.6679 31.1617 27.6219 31.1992 27.5571 31.2246C27.4923 31.2501 27.4333 31.2538 27.4254 31.233Z" fill="white" fill-opacity="0.2" style="mix-blend-mode:overlay"/>
<path fill-rule="evenodd" clip-rule="evenodd" d="M27.4137 31.1894C27.4057 31.1685 27.4517 31.131 27.5165 31.1056C27.5813 31.0802 27.6402 31.0765 27.6482 31.0973C27.6562 31.1181 27.6101 31.1556 27.5454 31.1811C27.4806 31.2065 27.4216 31.2102 27.4137 31.1894Z" fill="white" fill-opacity="0.5" style="mix-blend-mode:overlay"/>
<path fill-rule="evenodd" clip-rule="evenodd" d="M27.3641 31.009C27.3622 30.9789 27.3883 30.9504 27.4223 30.9453C27.4564 30.9402 27.4855 30.9605 27.4874 30.9906C27.4892 31.0207 27.4632 31.0493 27.4291 31.0544C27.3951 31.0594 27.366 31.0392 27.3641 31.009Z" fill="white" style="mix-blend-mode:overlay"/>
</g>
<g filter="url(#filter16_ii_1_1233)">
<path fill-rule="evenodd" clip-rule="evenodd" d="M27.4553 31.3237C27.2992 31.3526 27.1138 31.2639 27.0912 31.0965C27.0686 30.9296 27.2191 30.7623 27.3775 30.7523C27.536 30.7426 27.7045 30.843 27.7247 30.9902C27.7449 31.1379 27.6114 31.295 27.4553 31.3237Z" fill="black" fill-opacity="0.01"/>
</g>
<mask id="mask25_1_1233" style="mask-type:luminance" maskUnits="userSpaceOnUse" x="27" y="30" width="1" height="2">
<path fill-rule="evenodd" clip-rule="evenodd" d="M27.4553 31.3237C27.2992 31.3526 27.1138 31.2639 27.0912 31.0965C27.0686 30.9296 27.2191 30.7623 27.3775 30.7523C27.536 30.7426 27.7045 30.843 27.7247 30.9902C27.7449 31.1379 27.6114 31.295 27.4553 31.3237Z" fill="white"/>
</mask>
<g mask="url(#mask25_1_1233)">
</g>
</g>
<mask id="mask26_1_1233" style="mask-type:luminance" maskUnits="userSpaceOnUse" x="13" y="24" width="73" height="49">
<path d="M30.7887 27.9375C30.7773 27.9276 30.7668 27.9166 30.7576 27.9047C30.6794 27.8042 30.6975 27.6593 30.7978 27.5811L33.015 25.8535C34.5617 24.6483 36.6916 24.5258 38.3666 25.5456L84.6848 53.7469C84.8773 53.8641 85.0476 54.0148 85.1875 54.1917C85.8388 55.0155 85.7 56.2119 84.8775 56.8638L66.7472 71.2331C65.197 72.4618 63.0459 72.5925 61.3579 71.5607L14.8795 43.1492C14.6895 43.0331 14.5221 42.8835 14.3854 42.7076C13.7604 41.9036 13.9045 40.7447 14.7073 40.1191L17.4595 37.9746C17.6104 37.8569 17.8138 37.8322 17.9886 37.9102L18.4598 38.1205C19.3162 38.5026 20.3132 38.38 21.0515 37.8017L31.1531 29.8887C31.6038 29.5357 31.6832 28.8836 31.3305 28.4322C31.2892 28.3793 31.2428 28.3305 31.192 28.2866L30.7887 27.9375Z" fill="white"/>
</mask>
<g mask="url(#mask26_1_1233)">
<path fill-rule="evenodd" clip-rule="evenodd" d="M12.5309 41.7199L35.5308 23.7959L87.0576 55.1611L64.1143 73.3105L12.5309 41.7199Z" fill="url(#paint56_linear_1_1233)"/>
</g>
</g>
<defs>
<filter id="filter0_f_1_1233" x="9.69302" y="21.2618" width="80.457" height="56.3416" filterUnits="userSpaceOnUse" color-interpolation-filters="sRGB">
<feFlood flood-opacity="0" result="BackgroundImageFix"/>
<feBlend mode="normal" in="SourceGraphic" in2="BackgroundImageFix" result="shape"/>
<feGaussianBlur stdDeviation="1.10686" result="effect1_foregroundBlur_1_1233"/>
</filter>
<filter id="filter1_f_1_1233" x="11.1978" y="22.5017" width="77.5054" height="53.3899" filterUnits="userSpaceOnUse" color-interpolation-filters="sRGB">
<feFlood flood-opacity="0" result="BackgroundImageFix"/>
<feBlend mode="normal" in="SourceGraphic" in2="BackgroundImageFix" result="shape"/>
<feGaussianBlur stdDeviation="0.368953" result="effect1_foregroundBlur_1_1233"/>
</filter>
<filter id="filter2_f_1_1233" x="54.7094" y="49.8032" width="33.4187" height="24.8488" filterUnits="userSpaceOnUse" color-interpolation-filters="sRGB">
<feFlood flood-opacity="0" result="BackgroundImageFix"/>
<feBlend mode="normal" in="SourceGraphic" in2="BackgroundImageFix" result="shape"/>
<feGaussianBlur stdDeviation="0.368953" result="effect1_foregroundBlur_1_1233"/>
</filter>
<filter id="filter3_f_1_1233" x="54.1635" y="49.814" width="33.4831" height="24.3917" filterUnits="userSpaceOnUse" color-interpolation-filters="sRGB">
<feFlood flood-opacity="0" result="BackgroundImageFix"/>
<feBlend mode="normal" in="SourceGraphic" in2="BackgroundImageFix" result="shape"/>
<feGaussianBlur stdDeviation="0.184476" result="effect1_foregroundBlur_1_1233"/>
</filter>
<filter id="filter4_f_1_1233" x="11.8447" y="35.8923" width="58.0404" height="38.9939" filterUnits="userSpaceOnUse" color-interpolation-filters="sRGB">
<feFlood flood-opacity="0" result="BackgroundImageFix"/>
<feBlend mode="normal" in="SourceGraphic" in2="BackgroundImageFix" result="shape"/>
<feGaussianBlur stdDeviation="0.368953" result="effect1_foregroundBlur_1_1233"/>
</filter>
<filter id="filter5_f_1_1233" x="12.0414" y="36.9544" width="58.4231" height="37.3733" filterUnits="userSpaceOnUse" color-interpolation-filters="sRGB">
<feFlood flood-opacity="0" result="BackgroundImageFix"/>
<feBlend mode="normal" in="SourceGraphic" in2="BackgroundImageFix" result="shape"/>
<feGaussianBlur stdDeviation="0.184476" result="effect1_foregroundBlur_1_1233"/>
</filter>
<filter id="filter6_f_1_1233" x="77.993" y="65.0287" width="1.30346" height="1.40563" filterUnits="userSpaceOnUse" color-interpolation-filters="sRGB">
<feFlood flood-opacity="0" result="BackgroundImageFix"/>
<feBlend mode="normal" in="SourceGraphic" in2="BackgroundImageFix" result="shape"/>
<feGaussianBlur stdDeviation="0.184476" result="effect1_foregroundBlur_1_1233"/>
</filter>
<filter id="filter7_d_1_1233" x="26.1748" y="53.5045" width="4.00781" height="2.77209" filterUnits="userSpaceOnUse" color-interpolation-filters="sRGB">
<feFlood flood-opacity="0" result="BackgroundImageFix"/>
<feColorMatrix in="SourceAlpha" type="matrix" values="0 0 0 0 0 0 0 0 0 0 0 0 0 0 0 0 0 0 127 0" result="hardAlpha"/>
<feOffset dx="-0.067865"/>
<feColorMatrix type="matrix" values="0 0 0 0 0.190051 0 0 0 0 0.188489 0 0 0 0 0.187505 0 0 0 1 0"/>
<feBlend mode="normal" in2="BackgroundImageFix" result="effect1_dropShadow_1_1233"/>
<feBlend mode="normal" in="SourceGraphic" in2="effect1_dropShadow_1_1233" result="shape"/>
</filter>
<filter id="filter8_f_1_1233" x="26.0129" y="53.0089" width="4.51073" height="3.21007" filterUnits="userSpaceOnUse" color-interpolation-filters="sRGB">
<feFlood flood-opacity="0" result="BackgroundImageFix"/>
<feBlend mode="normal" in="SourceGraphic" in2="BackgroundImageFix" result="shape"/>
<feGaussianBlur stdDeviation="0.184476" result="effect1_foregroundBlur_1_1233"/>
</filter>
<filter id="filter9_d_1_1233" x="21.0258" y="50.3036" width="4.00781" height="2.77209" filterUnits="userSpaceOnUse" color-interpolation-filters="sRGB">
<feFlood flood-opacity="0" result="BackgroundImageFix"/>
<feColorMatrix in="SourceAlpha" type="matrix" values="0 0 0 0 0 0 0 0 0 0 0 0 0 0 0 0 0 0 127 0" result="hardAlpha"/>
<feOffset dx="-0.067865"/>
<feColorMatrix type="matrix" values="0 0 0 0 0.190051 0 0 0 0 0.188489 0 0 0 0 0.187505 0 0 0 1 0"/>
<feBlend mode="normal" in2="BackgroundImageFix" result="effect1_dropShadow_1_1233"/>
<feBlend mode="normal" in="SourceGraphic" in2="effect1_dropShadow_1_1233" result="shape"/>
</filter>
<filter id="filter10_f_1_1233" x="20.864" y="49.808" width="4.51073" height="3.21007" filterUnits="userSpaceOnUse" color-interpolation-filters="sRGB">
<feFlood flood-opacity="0" result="BackgroundImageFix"/>
<feBlend mode="normal" in="SourceGraphic" in2="BackgroundImageFix" result="shape"/>
<feGaussianBlur stdDeviation="0.184476" result="effect1_foregroundBlur_1_1233"/>
</filter>
<filter id="filter11_d_1_1233" x="17.0403" y="47.7194" width="2.151" height="1.85241" filterUnits="userSpaceOnUse" color-interpolation-filters="sRGB">
<feFlood flood-opacity="0" result="BackgroundImageFix"/>
<feColorMatrix in="SourceAlpha" type="matrix" values="0 0 0 0 0 0 0 0 0 0 0 0 0 0 0 0 0 0 127 0" result="hardAlpha"/>
<feOffset dy="0.067865"/>
<feColorMatrix type="matrix" values="0 0 0 0 1 0 0 0 0 1 0 0 0 0 1 0 0 0 0.200747 0"/>
<feBlend mode="normal" in2="BackgroundImageFix" result="effect1_dropShadow_1_1233"/>
<feBlend mode="normal" in="SourceGraphic" in2="effect1_dropShadow_1_1233" result="shape"/>
</filter>
<filter id="filter12_d_1_1233" x="16.9724" y="47.7266" width="2.18701" height="1.48279" filterUnits="userSpaceOnUse" color-interpolation-filters="sRGB">
<feFlood flood-opacity="0" result="BackgroundImageFix"/>
<feColorMatrix in="SourceAlpha" type="matrix" values="0 0 0 0 0 0 0 0 0 0 0 0 0 0 0 0 0 0 127 0" result="hardAlpha"/>
<feOffset dx="-0.067865"/>
<feColorMatrix type="matrix" values="0 0 0 0 0.190051 0 0 0 0 0.188489 0 0 0 0 0.187505 0 0 0 1 0"/>
<feBlend mode="normal" in2="BackgroundImageFix" result="effect1_dropShadow_1_1233"/>
<feBlend mode="normal" in="SourceGraphic" in2="effect1_dropShadow_1_1233" result="shape"/>
</filter>
<filter id="filter13_f_1_1233" x="16.7458" y="47.2879" width="2.77331" height="2.1112" filterUnits="userSpaceOnUse" color-interpolation-filters="sRGB">
<feFlood flood-opacity="0" result="BackgroundImageFix"/>
<feBlend mode="normal" in="SourceGraphic" in2="BackgroundImageFix" result="shape"/>
<feGaussianBlur stdDeviation="0.184476" result="effect1_foregroundBlur_1_1233"/>
</filter>
<filter id="filter14_d_1_1233" x="23.0242" y="31.7322" width="3.29003" height="2.72125" filterUnits="userSpaceOnUse" color-interpolation-filters="sRGB">
<feFlood flood-opacity="0" result="BackgroundImageFix"/>
<feColorMatrix in="SourceAlpha" type="matrix" values="0 0 0 0 0 0 0 0 0 0 0 0 0 0 0 0 0 0 127 0" result="hardAlpha"/>
<feOffset dx="-0.067865" dy="-0.067865"/>
<feColorMatrix type="matrix" values="0 0 0 0 1 0 0 0 0 1 0 0 0 0 1 0 0 0 0.125991 0"/>
<feBlend mode="normal" in2="BackgroundImageFix" result="effect1_dropShadow_1_1233"/>
<feBlend mode="normal" in="SourceGraphic" in2="effect1_dropShadow_1_1233" result="shape"/>
</filter>
<filter id="filter15_d_1_1233" x="26.829" y="30.5058" width="1.15864" height="1.0818" filterUnits="userSpaceOnUse" color-interpolation-filters="sRGB">
<feFlood flood-opacity="0" result="BackgroundImageFix"/>
<feColorMatrix in="SourceAlpha" type="matrix" values="0 0 0 0 0 0 0 0 0 0 0 0 0 0 0 0 0 0 127 0" result="hardAlpha"/>
<feOffset/>
<feGaussianBlur stdDeviation="0.13573"/>
<feColorMatrix type="matrix" values="0 0 0 0 0 0 0 0 0 0 0 0 0 0 0 0 0 0 1 0"/>
<feBlend mode="normal" in2="BackgroundImageFix" result="effect1_dropShadow_1_1233"/>
<feBlend mode="normal" in="SourceGraphic" in2="effect1_dropShadow_1_1233" result="shape"/>
</filter>
<filter id="filter16_ii_1_1233" x="27.0889" y="30.7516" width="0.773547" height="0.713184" filterUnits="userSpaceOnUse" color-interpolation-filters="sRGB">
<feFlood flood-opacity="0" result="BackgroundImageFix"/>
<feBlend mode="normal" in="SourceGraphic" in2="BackgroundImageFix" result="shape"/>
<feColorMatrix in="SourceAlpha" type="matrix" values="0 0 0 0 0 0 0 0 0 0 0 0 0 0 0 0 0 0 127 0" result="hardAlpha"/>
<feOffset dx="0.13573" dy="0.13573"/>
<feGaussianBlur stdDeviation="0.067865"/>
<feComposite in2="hardAlpha" operator="arithmetic" k2="-1" k3="1"/>
<feColorMatrix type="matrix" values="0 0 0 0 0 0 0 0 0 0 0 0 0 0 0 0 0 0 0.5 0"/>
<feBlend mode="normal" in2="shape" result="effect1_innerShadow_1_1233"/>
<feColorMatrix in="SourceAlpha" type="matrix" values="0 0 0 0 0 0 0 0 0 0 0 0 0 0 0 0 0 0 127 0" result="hardAlpha"/>
<feOffset/>
<feGaussianBlur stdDeviation="0.13573"/>
<feComposite in2="hardAlpha" operator="arithmetic" k2="-1" k3="1"/>
<feColorMatrix type="matrix" values="0 0 0 0 0 0 0 0 0 0 0 0 0 0 0 0 0 0 0.5 0"/>
<feBlend mode="normal" in2="effect1_innerShadow_1_1233" result="effect2_innerShadow_1_1233"/>
</filter>
<linearGradient id="paint0_linear_1_1233" x1="55.8955" y1="35.8246" x2="54.8747" y2="39.2833" gradientUnits="userSpaceOnUse">
<stop/>
<stop offset="1" stop-color="#454746"/>
</linearGradient>
<linearGradient id="paint1_linear_1_1233" x1="68.8603" y1="72.059" x2="69.1941" y2="72.3978" gradientUnits="userSpaceOnUse">
<stop stop-color="#B6B5B5"/>
<stop offset="1" stop-color="#60605F"/>
</linearGradient>
<linearGradient id="paint2_linear_1_1233" x1="58.8271" y1="72.6149" x2="59.172" y2="72.6333" gradientUnits="userSpaceOnUse">
<stop stop-color="#B6B5B5"/>
<stop offset="1" stop-color="#60605F"/>
</linearGradient>
<linearGradient id="paint3_linear_1_1233" x1="15.0333" y1="45.7399" x2="15.382" y2="46.0579" gradientUnits="userSpaceOnUse">
<stop stop-color="#B6B5B5"/>
<stop offset="1" stop-color="#60605F"/>
</linearGradient>
<linearGradient id="paint4_linear_1_1233" x1="76.5455" y1="66.559" x2="76.7634" y2="67.2825" gradientUnits="userSpaceOnUse">
<stop stop-color="#A9A8A7"/>
<stop offset="1" stop-color="#6B6B6B"/>
</linearGradient>
<linearGradient id="paint5_linear_1_1233" x1="77.2498" y1="66.3263" x2="75.9558" y2="67.8726" gradientUnits="userSpaceOnUse">
<stop stop-color="#FBFBFB"/>
<stop offset="1" stop-color="#7C7C7C"/>
</linearGradient>
<linearGradient id="paint6_linear_1_1233" x1="78.3957" y1="65.674" x2="78.6404" y2="66.0351" gradientUnits="userSpaceOnUse">
<stop stop-color="#656564"/>
<stop offset="1" stop-color="#101010"/>
</linearGradient>
<linearGradient id="paint7_linear_1_1233" x1="76.6755" y1="66.4621" x2="77.0538" y2="67.1584" gradientUnits="userSpaceOnUse">
<stop stop-color="#151414"/>
<stop offset="1" stop-color="#515050"/>
</linearGradient>
<linearGradient id="paint8_linear_1_1233" x1="72.9339" y1="70.1367" x2="73.0994" y2="70.2901" gradientUnits="userSpaceOnUse">
<stop stop-color="#767575"/>
<stop offset="1" stop-color="#FAF9F8"/>
</linearGradient>
<linearGradient id="paint9_linear_1_1233" x1="72.7397" y1="69.7067" x2="72.8179" y2="70.3434" gradientUnits="userSpaceOnUse">
<stop stop-color="#252525"/>
<stop offset="1" stop-color="#131313"/>
</linearGradient>
<linearGradient id="paint10_linear_1_1233" x1="72.6116" y1="69.6063" x2="72.6898" y2="70.243" gradientUnits="userSpaceOnUse">
<stop stop-color="#585858"/>
<stop offset="1" stop-color="#909090"/>
</linearGradient>
<linearGradient id="paint11_linear_1_1233" x1="72.14" y1="70.7568" x2="72.3055" y2="70.9103" gradientUnits="userSpaceOnUse">
<stop stop-color="#767575"/>
<stop offset="1" stop-color="#FAF9F8"/>
</linearGradient>
<linearGradient id="paint12_linear_1_1233" x1="71.946" y1="70.3268" x2="72.0242" y2="70.9635" gradientUnits="userSpaceOnUse">
<stop stop-color="#252525"/>
<stop offset="1" stop-color="#131313"/>
</linearGradient>
<linearGradient id="paint13_linear_1_1233" x1="71.8176" y1="70.2264" x2="71.8958" y2="70.8632" gradientUnits="userSpaceOnUse">
<stop stop-color="#585858"/>
<stop offset="1" stop-color="#909090"/>
</linearGradient>
<linearGradient id="paint14_linear_1_1233" x1="71.239" y1="71.4483" x2="71.4045" y2="71.6018" gradientUnits="userSpaceOnUse">
<stop stop-color="#767575"/>
<stop offset="1" stop-color="#FAF9F8"/>
</linearGradient>
<linearGradient id="paint15_linear_1_1233" x1="71.0448" y1="71.0182" x2="71.123" y2="71.655" gradientUnits="userSpaceOnUse">
<stop stop-color="#252525"/>
<stop offset="1" stop-color="#131313"/>
</linearGradient>
<linearGradient id="paint16_linear_1_1233" x1="70.9165" y1="70.9178" x2="70.9947" y2="71.5546" gradientUnits="userSpaceOnUse">
<stop stop-color="#585858"/>
<stop offset="1" stop-color="#909090"/>
</linearGradient>
<linearGradient id="paint17_linear_1_1233" x1="85.414" y1="60.2993" x2="85.5795" y2="60.4527" gradientUnits="userSpaceOnUse">
<stop stop-color="#767575"/>
<stop offset="1" stop-color="#FAF9F8"/>
</linearGradient>
<linearGradient id="paint18_linear_1_1233" x1="85.22" y1="59.8693" x2="85.2981" y2="60.506" gradientUnits="userSpaceOnUse">
<stop stop-color="#252525"/>
<stop offset="1" stop-color="#131313"/>
</linearGradient>
<linearGradient id="paint19_linear_1_1233" x1="85.0916" y1="59.7688" x2="85.1697" y2="60.4055" gradientUnits="userSpaceOnUse">
<stop stop-color="#585858"/>
<stop offset="1" stop-color="#909090"/>
</linearGradient>
<linearGradient id="paint20_linear_1_1233" x1="84.6202" y1="60.9195" x2="84.7857" y2="61.0729" gradientUnits="userSpaceOnUse">
<stop stop-color="#767575"/>
<stop offset="1" stop-color="#FAF9F8"/>
</linearGradient>
<linearGradient id="paint21_linear_1_1233" x1="84.426" y1="60.4894" x2="84.5042" y2="61.1262" gradientUnits="userSpaceOnUse">
<stop stop-color="#252525"/>
<stop offset="1" stop-color="#131313"/>
</linearGradient>
<linearGradient id="paint22_linear_1_1233" x1="84.2977" y1="60.389" x2="84.3759" y2="61.0258" gradientUnits="userSpaceOnUse">
<stop stop-color="#585858"/>
<stop offset="1" stop-color="#909090"/>
</linearGradient>
<linearGradient id="paint23_linear_1_1233" x1="83.7191" y1="61.6109" x2="83.8846" y2="61.7643" gradientUnits="userSpaceOnUse">
<stop stop-color="#767575"/>
<stop offset="1" stop-color="#FAF9F8"/>
</linearGradient>
<linearGradient id="paint24_linear_1_1233" x1="83.5249" y1="61.1808" x2="83.6031" y2="61.8176" gradientUnits="userSpaceOnUse">
<stop stop-color="#252525"/>
<stop offset="1" stop-color="#131313"/>
</linearGradient>
<linearGradient id="paint25_linear_1_1233" x1="83.3966" y1="61.0805" x2="83.4748" y2="61.7172" gradientUnits="userSpaceOnUse">
<stop stop-color="#585858"/>
<stop offset="1" stop-color="#909090"/>
</linearGradient>
<linearGradient id="paint26_linear_1_1233" x1="82.854" y1="62.2873" x2="83.0195" y2="62.4407" gradientUnits="userSpaceOnUse">
<stop stop-color="#767575"/>
<stop offset="1" stop-color="#FAF9F8"/>
</linearGradient>
<linearGradient id="paint27_linear_1_1233" x1="82.681" y1="61.8652" x2="82.7592" y2="62.5019" gradientUnits="userSpaceOnUse">
<stop stop-color="#252525"/>
<stop offset="1" stop-color="#131313"/>
</linearGradient>
<linearGradient id="paint28_linear_1_1233" x1="82.5527" y1="61.7648" x2="82.6309" y2="62.4015" gradientUnits="userSpaceOnUse">
<stop stop-color="#585858"/>
<stop offset="1" stop-color="#909090"/>
</linearGradient>
<linearGradient id="paint29_linear_1_1233" x1="82.0814" y1="62.9154" x2="82.2469" y2="63.0689" gradientUnits="userSpaceOnUse">
<stop stop-color="#767575"/>
<stop offset="1" stop-color="#FAF9F8"/>
</linearGradient>
<linearGradient id="paint30_linear_1_1233" x1="81.8872" y1="62.4855" x2="81.9654" y2="63.1222" gradientUnits="userSpaceOnUse">
<stop stop-color="#252525"/>
<stop offset="1" stop-color="#131313"/>
</linearGradient>
<linearGradient id="paint31_linear_1_1233" x1="81.7589" y1="62.385" x2="81.8371" y2="63.0217" gradientUnits="userSpaceOnUse">
<stop stop-color="#585858"/>
<stop offset="1" stop-color="#909090"/>
</linearGradient>
<linearGradient id="paint32_linear_1_1233" x1="81.2875" y1="63.5356" x2="81.4529" y2="63.689" gradientUnits="userSpaceOnUse">
<stop stop-color="#767575"/>
<stop offset="1" stop-color="#FAF9F8"/>
</linearGradient>
<linearGradient id="paint33_linear_1_1233" x1="81.0931" y1="63.1056" x2="81.1713" y2="63.7423" gradientUnits="userSpaceOnUse">
<stop stop-color="#252525"/>
<stop offset="1" stop-color="#131313"/>
</linearGradient>
<linearGradient id="paint34_linear_1_1233" x1="80.965" y1="63.0052" x2="81.0431" y2="63.6419" gradientUnits="userSpaceOnUse">
<stop stop-color="#585858"/>
<stop offset="1" stop-color="#909090"/>
</linearGradient>
<linearGradient id="paint35_linear_1_1233" x1="80.0283" y1="64.8615" x2="79.8849" y2="65.084" gradientUnits="userSpaceOnUse">
<stop stop-color="#2A2A2A"/>
<stop offset="1" stop-color="#FCFCFC"/>
</linearGradient>
<linearGradient id="paint36_linear_1_1233" x1="79.9127" y1="64.575" x2="79.9762" y2="65.0923" gradientUnits="userSpaceOnUse">
<stop stop-color="#2C2C2C"/>
<stop offset="1" stop-color="#807F7E"/>
</linearGradient>
<linearGradient id="paint37_linear_1_1233" x1="79.6256" y1="64.7878" x2="79.6464" y2="64.9577" gradientUnits="userSpaceOnUse">
<stop stop-color="#171717"/>
<stop offset="1" stop-color="#FDFDFD"/>
</linearGradient>
<linearGradient id="paint38_linear_1_1233" x1="75.272" y1="68.6396" x2="75.1287" y2="68.8621" gradientUnits="userSpaceOnUse">
<stop stop-color="#2A2A2A"/>
<stop offset="1" stop-color="#FCFCFC"/>
</linearGradient>
<linearGradient id="paint39_linear_1_1233" x1="75.1564" y1="68.3532" x2="75.2199" y2="68.8705" gradientUnits="userSpaceOnUse">
<stop stop-color="#2C2C2C"/>
<stop offset="1" stop-color="#807F7E"/>
</linearGradient>
<linearGradient id="paint40_linear_1_1233" x1="74.8695" y1="68.5659" x2="74.8903" y2="68.7358" gradientUnits="userSpaceOnUse">
<stop stop-color="#171717"/>
<stop offset="1" stop-color="#FDFDFD"/>
</linearGradient>
<linearGradient id="paint41_linear_1_1233" x1="28.1542" y1="54.4206" x2="27.8298" y2="55.2194" gradientUnits="userSpaceOnUse">
<stop stop-color="#333333"/>
<stop offset="1" stop-color="#D8D8D8"/>
</linearGradient>
<linearGradient id="paint42_linear_1_1233" x1="28.1181" y1="52.1831" x2="25.5326" y2="55.5499" gradientUnits="userSpaceOnUse">
<stop stop-color="#383838"/>
<stop offset="1" stop-color="#868585"/>
</linearGradient>
<linearGradient id="paint43_linear_1_1233" x1="27.7968" y1="52.6787" x2="26.3809" y2="55.8671" gradientUnits="userSpaceOnUse">
<stop stop-color="#FAF9F8"/>
<stop offset="1" stop-color="#E5E5E5"/>
</linearGradient>
<linearGradient id="paint44_linear_1_1233" x1="28.0388" y1="54.881" x2="27.8689" y2="55.1782" gradientUnits="userSpaceOnUse">
<stop stop-color="#A6A6A5"/>
<stop offset="1" stop-color="#646363"/>
</linearGradient>
<linearGradient id="paint45_linear_1_1233" x1="23.0053" y1="51.2197" x2="22.6809" y2="52.0185" gradientUnits="userSpaceOnUse">
<stop stop-color="#333333"/>
<stop offset="1" stop-color="#D8D8D8"/>
</linearGradient>
<linearGradient id="paint46_linear_1_1233" x1="22.9691" y1="48.9823" x2="20.3835" y2="52.3491" gradientUnits="userSpaceOnUse">
<stop stop-color="#383838"/>
<stop offset="1" stop-color="#868585"/>
</linearGradient>
<linearGradient id="paint47_linear_1_1233" x1="22.6479" y1="49.4779" x2="21.232" y2="52.6662" gradientUnits="userSpaceOnUse">
<stop stop-color="#FAF9F8"/>
<stop offset="1" stop-color="#E5E5E5"/>
</linearGradient>
<linearGradient id="paint48_linear_1_1233" x1="22.8899" y1="51.6801" x2="22.72" y2="51.9773" gradientUnits="userSpaceOnUse">
<stop stop-color="#A6A6A5"/>
<stop offset="1" stop-color="#646363"/>
</linearGradient>
<linearGradient id="paint49_linear_1_1233" x1="17.0676" y1="48.5251" x2="17.5421" y2="48.671" gradientUnits="userSpaceOnUse">
<stop stop-color="#333232"/>
<stop offset="1" stop-color="#545353"/>
</linearGradient>
<linearGradient id="paint50_linear_1_1233" x1="18.2336" y1="48.4223" x2="18.1125" y2="48.6666" gradientUnits="userSpaceOnUse">
<stop stop-color="#2D2D2D"/>
<stop offset="1" stop-color="#B6B5B4"/>
</linearGradient>
<linearGradient id="paint51_linear_1_1233" x1="18.0498" y1="47.0185" x2="16.667" y2="48.8301" gradientUnits="userSpaceOnUse">
<stop stop-color="#383838"/>
<stop offset="1" stop-color="#868585"/>
</linearGradient>
<linearGradient id="paint52_linear_1_1233" x1="17.875" y1="47.2717" x2="17.0756" y2="49.0139" gradientUnits="userSpaceOnUse">
<stop stop-color="#FAF9F8"/>
<stop offset="1" stop-color="#E5E5E5"/>
</linearGradient>
<linearGradient id="paint53_linear_1_1233" x1="18.0118" y1="48.4633" x2="17.9195" y2="48.6222" gradientUnits="userSpaceOnUse">
<stop stop-color="#A6A6A5"/>
<stop offset="1" stop-color="#646363"/>
</linearGradient>
<linearGradient id="paint54_linear_1_1233" x1="27.8912" y1="30.5416" x2="27.9966" y2="31.3998" gradientUnits="userSpaceOnUse">
<stop stop-color="#17161B"/>
<stop offset="1" stop-color="#0C1220"/>
</linearGradient>
<linearGradient id="paint55_linear_1_1233" x1="27.2934" y1="30.9411" x2="27.3553" y2="30.9743" gradientUnits="userSpaceOnUse">
<stop stop-color="#B7DEF3"/>
<stop offset="1" stop-color="#2986F2"/>
</linearGradient>
<linearGradient id="paint56_linear_1_1233" x1="10.7043" y1="26.8442" x2="89.8149" y2="68.5534" gradientUnits="userSpaceOnUse">
<stop stop-color="#3913B8"/>
<stop offset="1" stop-color="#7573D8"/>
</linearGradient>
</defs>
</svg>
