<svg width="32" height="32" viewBox="0 0 32 32" fill="none" xmlns="http://www.w3.org/2000/svg">
<path d="M10.7887 27.5C7.55374 27.5 4.53817 26.5591 2 24.9356C4.15499 25.0751 7.95807 24.7411 10.3236 22.4848C6.76508 22.3215 5.16026 19.5923 4.95094 18.426C5.25329 18.5426 6.6953 18.6826 7.50934 18.356C3.4159 17.3296 2.78793 13.7373 2.92748 12.641C3.695 13.1775 4.99745 13.3641 5.50913 13.3174C1.69479 10.5882 3.06703 6.48276 3.74151 5.59635C6.47882 9.38867 10.5812 11.5186 15.6564 11.637C15.5607 11.2174 15.5102 10.7804 15.5102 10.3316C15.5102 7.11092 18.1134 4.5 21.3247 4.5C23.0025 4.5 24.5144 5.21275 25.5757 6.35284C26.6969 6.09011 28.3843 5.47507 29.2092 4.9432C28.7934 6.43611 27.4989 7.68149 26.7159 8.14308C26.7095 8.12731 26.7224 8.15878 26.7159 8.14308C27.4037 8.03904 29.2648 7.68137 30 7.18256C29.6364 8.02125 28.264 9.41573 27.1377 10.1964C27.3473 19.4381 20.2765 27.5 10.7887 27.5Z" fill="#47ACDF"/>
</svg>
