<svg width="24" height="24" viewBox="0 0 24 24" fill="none" xmlns="http://www.w3.org/2000/svg">
<g filter="url(#filter0_di_3759_134743)">
<mask id="mask0_3759_134743" style="mask-type:luminance" maskUnits="userSpaceOnUse" x="2" y="4" width="20" height="16">
<path d="M20.4451 4.85718H3.55491C2.69616 4.85718 2 5.55333 2 6.41209V17.588C2 18.4467 2.69616 19.1429 3.55491 19.1429H20.4451C21.3038 19.1429 22 18.4467 22 17.588V6.41209C22 5.55333 21.3038 4.85718 20.4451 4.85718Z" fill="white"/>
</mask>
<g mask="url(#mask0_3759_134743)">
<path d="M20.0952 4.85718H3.90476C2.85279 4.85718 2 5.70997 2 6.76194V17.2381C2 18.2901 2.85279 19.1429 3.90476 19.1429H20.0952C21.1473 19.1429 22 18.2901 22 17.2381V6.76194C22 5.70997 21.1473 4.85718 20.0952 4.85718Z" fill="#F93939"/>
<path fill-rule="evenodd" clip-rule="evenodd" d="M12 14.381C13.3143 14.381 14.3809 13.3144 14.3809 12.0001C14.3809 10.6858 13.3143 9.61914 12 9.61914C10.6857 9.61914 9.61902 10.6858 9.61902 12.0001C9.61902 13.3144 10.6857 14.381 12 14.381ZM12 13.4287C12.7885 13.4287 13.4285 12.5763 13.4285 11.5239C13.4285 10.4715 12.7885 9.61914 12 9.61914C11.2114 9.61914 10.5714 10.4715 10.5714 11.5239C10.5714 12.5763 11.2114 13.4287 12 13.4287ZM12 12.4763C12.2628 12.4763 12.4762 12.0496 12.4762 11.5239C12.4762 10.9982 12.2628 10.5715 12 10.5715C11.7371 10.5715 11.5238 10.9982 11.5238 11.5239C11.5238 12.0496 11.7371 12.4763 12 12.4763Z" fill="white"/>
<path fill-rule="evenodd" clip-rule="evenodd" d="M15.3333 4.85718H22V19.1429H15.3333V4.85718Z" fill="#249F58"/>
<path fill-rule="evenodd" clip-rule="evenodd" d="M2 4.85718H8.66667V19.1429H2V4.85718Z" fill="#151515"/>
</g>
</g>
<defs>
<filter id="filter0_di_3759_134743" x="1.42857" y="4.28575" width="21.1429" height="19.4285" filterUnits="userSpaceOnUse" color-interpolation-filters="sRGB">
<feFlood flood-opacity="0" result="BackgroundImageFix"/>
<feColorMatrix in="SourceAlpha" type="matrix" values="0 0 0 0 0 0 0 0 0 0 0 0 0 0 0 0 0 0 127 0" result="hardAlpha"/>
<feOffset/>
<feGaussianBlur stdDeviation="0.285714"/>
<feComposite in2="hardAlpha" operator="out"/>
<feColorMatrix type="matrix" values="0 0 0 0 0.258824 0 0 0 0 0.278431 0 0 0 0 0.298039 0 0 0 0.32 0"/>
<feBlend mode="normal" in2="BackgroundImageFix" result="effect1_dropShadow_3759_134743"/>
<feBlend mode="normal" in="SourceGraphic" in2="effect1_dropShadow_3759_134743" result="shape"/>
<feColorMatrix in="SourceAlpha" type="matrix" values="0 0 0 0 0 0 0 0 0 0 0 0 0 0 0 0 0 0 127 0" result="hardAlpha"/>
<feOffset dy="4.57143"/>
<feGaussianBlur stdDeviation="3.42857"/>
<feComposite in2="hardAlpha" operator="arithmetic" k2="-1" k3="1"/>
<feColorMatrix type="matrix" values="0 0 0 0 0.258824 0 0 0 0 0.278431 0 0 0 0 0.298039 0 0 0 0.08 0"/>
<feBlend mode="normal" in2="shape" result="effect2_innerShadow_3759_134743"/>
</filter>
</defs>
</svg>
