<svg width="24" height="24" viewBox="0 0 24 24" fill="none" xmlns="http://www.w3.org/2000/svg">
<g filter="url(#filter0_di_3766_134929)">
<mask id="mask0_3766_134929" style="mask-type:luminance" maskUnits="userSpaceOnUse" x="2" y="4" width="20" height="16">
<path d="M20.4451 4.85718H3.55491C2.69616 4.85718 2 5.55333 2 6.41209V17.588C2 18.4467 2.69616 19.1429 3.55491 19.1429H20.4451C21.3038 19.1429 22 18.4467 22 17.588V6.41209C22 5.55333 21.3038 4.85718 20.4451 4.85718Z" fill="white"/>
</mask>
<g mask="url(#mask0_3766_134929)">
<path d="M20.4451 4.85718H3.55491C2.69616 4.85718 2 5.55333 2 6.41209V17.588C2 18.4467 2.69616 19.1429 3.55491 19.1429H20.4451C21.3038 19.1429 22 18.4467 22 17.588V6.41209C22 5.55333 21.3038 4.85718 20.4451 4.85718Z" fill="white"/>
<path d="M20.0952 4.85718H3.90476C2.85279 4.85718 2 5.70997 2 6.76194V17.2381C2 18.2901 2.85279 19.1429 3.90476 19.1429H20.0952C21.1473 19.1429 22 18.2901 22 17.2381V6.76194C22 5.70997 21.1473 4.85718 20.0952 4.85718Z" fill="white"/>
<path fill-rule="evenodd" clip-rule="evenodd" d="M2 4.85718H11.5238V19.1429H2V4.85718Z" fill="#249F58"/>
<path fill-rule="evenodd" clip-rule="evenodd" d="M14.4305 14.6315C13.6477 15.6382 12.4229 16.2858 11.0477 16.2858C8.68101 16.2858 6.76196 14.3667 6.76196 12.0001C6.76196 9.6334 8.68101 7.71436 11.0477 7.71436C12.4229 7.71436 13.6477 8.36197 14.4305 9.36864C13.8258 8.92864 13.0648 8.66674 12.2382 8.66674C10.2667 8.66674 8.66672 10.1591 8.66672 12.0001C8.66672 13.841 10.2667 15.3334 12.2382 15.3334C13.0648 15.3334 13.8258 15.0715 14.4305 14.6315Z" fill="#F93939"/>
<path fill-rule="evenodd" clip-rule="evenodd" d="M14.3809 12L15.3332 11.5238L15.8094 10.5714L16.2856 11.5238L17.238 12L16.2856 12.4762L15.8094 13.4286L15.3332 12.4762L14.3809 12Z" fill="#F93939"/>
</g>
</g>
<defs>
<filter id="filter0_di_3766_134929" x="1.42857" y="4.28575" width="21.1429" height="19.4286" filterUnits="userSpaceOnUse" color-interpolation-filters="sRGB">
<feFlood flood-opacity="0" result="BackgroundImageFix"/>
<feColorMatrix in="SourceAlpha" type="matrix" values="0 0 0 0 0 0 0 0 0 0 0 0 0 0 0 0 0 0 127 0" result="hardAlpha"/>
<feOffset/>
<feGaussianBlur stdDeviation="0.285714"/>
<feComposite in2="hardAlpha" operator="out"/>
<feColorMatrix type="matrix" values="0 0 0 0 0.258824 0 0 0 0 0.278431 0 0 0 0 0.298039 0 0 0 0.32 0"/>
<feBlend mode="normal" in2="BackgroundImageFix" result="effect1_dropShadow_3766_134929"/>
<feBlend mode="normal" in="SourceGraphic" in2="effect1_dropShadow_3766_134929" result="shape"/>
<feColorMatrix in="SourceAlpha" type="matrix" values="0 0 0 0 0 0 0 0 0 0 0 0 0 0 0 0 0 0 127 0" result="hardAlpha"/>
<feOffset dy="4.57143"/>
<feGaussianBlur stdDeviation="3.42857"/>
<feComposite in2="hardAlpha" operator="arithmetic" k2="-1" k3="1"/>
<feColorMatrix type="matrix" values="0 0 0 0 0.258824 0 0 0 0 0.278431 0 0 0 0 0.298039 0 0 0 0.08 0"/>
<feBlend mode="normal" in2="shape" result="effect2_innerShadow_3766_134929"/>
</filter>
</defs>
</svg>
