<svg width="24" height="24" viewBox="0 0 24 24" fill="none" xmlns="http://www.w3.org/2000/svg">
<g filter="url(#filter0_di_3766_134928)">
<mask id="mask0_3766_134928" style="mask-type:luminance" maskUnits="userSpaceOnUse" x="2" y="4" width="20" height="16">
<path d="M20.4451 4.85718H3.55491C2.69616 4.85718 2 5.55333 2 6.41209V17.588C2 18.4467 2.69616 19.1429 3.55491 19.1429H20.4451C21.3038 19.1429 22 18.4467 22 17.588V6.41209C22 5.55333 21.3038 4.85718 20.4451 4.85718Z" fill="white"/>
</mask>
<g mask="url(#mask0_3766_134928)">
<path d="M20.0952 4.85718H3.90476C2.85279 4.85718 2 5.70997 2 6.76194V17.2381C2 18.2901 2.85279 19.1429 3.90476 19.1429H20.0952C21.1473 19.1429 22 18.2901 22 17.2381V6.76194C22 5.70997 21.1473 4.85718 20.0952 4.85718Z" fill="#FFDA2C"/>
<path fill-rule="evenodd" clip-rule="evenodd" d="M13.3677 14.3191C13.9525 14.141 14.381 13.5972 14.381 12.9525V10.0953C14.381 9.30008 13.741 8.66675 12.9525 8.66675H11.0477C10.261 8.66675 9.61914 9.30484 9.61914 10.0953V12.9525C9.61914 13.602 10.0458 14.1429 10.6325 14.3201C10.8096 14.9106 11.3544 15.3334 12.0001 15.3334C12.6496 15.3334 13.1906 14.9048 13.3677 14.3191Z" fill="#D4AF2C"/>
<path fill-rule="evenodd" clip-rule="evenodd" d="M10.5713 9.61902H11.5237V11.0476H10.5713V9.61902ZM12.4761 11.5238H13.4284V12.9524H12.4761V11.5238Z" fill="#AF010D"/>
<path fill-rule="evenodd" clip-rule="evenodd" d="M12.4761 9.61902H13.4284V11.0476H12.4761V9.61902ZM10.5713 11.5238H11.5237V12.9524H10.5713V11.5238Z" fill="#FFDA2C"/>
<path fill-rule="evenodd" clip-rule="evenodd" d="M15.3333 4.85718H21.9999V19.1429H15.3333V4.85718Z" fill="#F93939"/>
<path fill-rule="evenodd" clip-rule="evenodd" d="M2 4.85718H8.66667V19.1429H2V4.85718Z" fill="#1A47B8"/>
</g>
</g>
<defs>
<filter id="filter0_di_3766_134928" x="1.42857" y="4.28575" width="21.1429" height="19.4286" filterUnits="userSpaceOnUse" color-interpolation-filters="sRGB">
<feFlood flood-opacity="0" result="BackgroundImageFix"/>
<feColorMatrix in="SourceAlpha" type="matrix" values="0 0 0 0 0 0 0 0 0 0 0 0 0 0 0 0 0 0 127 0" result="hardAlpha"/>
<feOffset/>
<feGaussianBlur stdDeviation="0.285714"/>
<feComposite in2="hardAlpha" operator="out"/>
<feColorMatrix type="matrix" values="0 0 0 0 0.258824 0 0 0 0 0.278431 0 0 0 0 0.298039 0 0 0 0.32 0"/>
<feBlend mode="normal" in2="BackgroundImageFix" result="effect1_dropShadow_3766_134928"/>
<feBlend mode="normal" in="SourceGraphic" in2="effect1_dropShadow_3766_134928" result="shape"/>
<feColorMatrix in="SourceAlpha" type="matrix" values="0 0 0 0 0 0 0 0 0 0 0 0 0 0 0 0 0 0 127 0" result="hardAlpha"/>
<feOffset dy="4.57143"/>
<feGaussianBlur stdDeviation="3.42857"/>
<feComposite in2="hardAlpha" operator="arithmetic" k2="-1" k3="1"/>
<feColorMatrix type="matrix" values="0 0 0 0 0.258824 0 0 0 0 0.278431 0 0 0 0 0.298039 0 0 0 0.08 0"/>
<feBlend mode="normal" in2="shape" result="effect2_innerShadow_3766_134928"/>
</filter>
</defs>
</svg>
