<svg width="24" height="24" viewBox="0 0 24 24" fill="none" xmlns="http://www.w3.org/2000/svg">
<g filter="url(#filter0_di_3766_135049)">
<mask id="mask0_3766_135049" style="mask-type:luminance" maskUnits="userSpaceOnUse" x="2" y="4" width="20" height="16">
<path d="M20.4451 4.85718H3.55491C2.69616 4.85718 2 5.55333 2 6.41209V17.588C2 18.4467 2.69616 19.1429 3.55491 19.1429H20.4451C21.3038 19.1429 22 18.4467 22 17.588V6.41209C22 5.55333 21.3038 4.85718 20.4451 4.85718Z" fill="white"/>
</mask>
<g mask="url(#mask0_3766_135049)">
<path d="M20.445 4.85718H3.55485C2.6961 4.85718 1.99994 5.55333 1.99994 6.41209V17.588C1.99994 18.4467 2.6961 19.1429 3.55485 19.1429H20.445C21.3038 19.1429 21.9999 18.4467 21.9999 17.588V6.41209C21.9999 5.55333 21.3038 4.85718 20.445 4.85718Z" fill="#151515"/>
<path d="M1.99994 4.85718H21.9999V19.1429H1.99994V4.85718Z" fill="#151515"/>
<path fill-rule="evenodd" clip-rule="evenodd" d="M1.99988 13.4286H21.9998V19.1429H1.99988V13.4286Z" fill="white"/>
<path d="M11.9999 13.4286C13.8409 13.4286 15.3332 11.9362 15.3332 10.0953C15.3332 8.25434 13.8409 6.76196 11.9999 6.76196C10.1589 6.76196 8.66656 8.25434 8.66656 10.0953C8.66656 11.9362 10.1589 13.4286 11.9999 13.4286Z" fill="#FFDA2C"/>
<path fill-rule="evenodd" clip-rule="evenodd" d="M1.99988 10.5714H21.9998V13.4285H1.99988V10.5714Z" fill="#3A99FF"/>
<path d="M1.99994 19.1429H21.9999V4.85718L12 18.4936L1.99994 4.85718V19.1429Z" fill="#F93939"/>
</g>
</g>
<defs>
<filter id="filter0_di_3766_135049" x="1.42857" y="4.28575" width="21.1428" height="19.4286" filterUnits="userSpaceOnUse" color-interpolation-filters="sRGB">
<feFlood flood-opacity="0" result="BackgroundImageFix"/>
<feColorMatrix in="SourceAlpha" type="matrix" values="0 0 0 0 0 0 0 0 0 0 0 0 0 0 0 0 0 0 127 0" result="hardAlpha"/>
<feOffset/>
<feGaussianBlur stdDeviation="0.285714"/>
<feComposite in2="hardAlpha" operator="out"/>
<feColorMatrix type="matrix" values="0 0 0 0 0.258824 0 0 0 0 0.278431 0 0 0 0 0.298039 0 0 0 0.32 0"/>
<feBlend mode="normal" in2="BackgroundImageFix" result="effect1_dropShadow_3766_135049"/>
<feBlend mode="normal" in="SourceGraphic" in2="effect1_dropShadow_3766_135049" result="shape"/>
<feColorMatrix in="SourceAlpha" type="matrix" values="0 0 0 0 0 0 0 0 0 0 0 0 0 0 0 0 0 0 127 0" result="hardAlpha"/>
<feOffset dy="4.57143"/>
<feGaussianBlur stdDeviation="3.42857"/>
<feComposite in2="hardAlpha" operator="arithmetic" k2="-1" k3="1"/>
<feColorMatrix type="matrix" values="0 0 0 0 0.258824 0 0 0 0 0.278431 0 0 0 0 0.298039 0 0 0 0.08 0"/>
<feBlend mode="normal" in2="shape" result="effect2_innerShadow_3766_135049"/>
</filter>
</defs>
</svg>
