<svg width="24" height="24" viewBox="0 0 24 24" fill="none" xmlns="http://www.w3.org/2000/svg">
<g filter="url(#filter0_di_8089_52794)">
<mask id="mask0_8089_52794" style="mask-type:luminance" maskUnits="userSpaceOnUse" x="2" y="4" width="20" height="16">
<path d="M20.4451 4.85718H3.55491C2.69616 4.85718 2 5.55333 2 6.41209V17.588C2 18.4467 2.69616 19.1429 3.55491 19.1429H20.4451C21.3038 19.1429 22 18.4467 22 17.588V6.41209C22 5.55333 21.3038 4.85718 20.4451 4.85718Z" fill="white"/>
</mask>
<g mask="url(#mask0_8089_52794)">
<path d="M20.4451 4.85718H3.55491C2.69616 4.85718 2 5.55333 2 6.41209V17.588C2 18.4467 2.69616 19.1429 3.55491 19.1429H20.4451C21.3038 19.1429 22 18.4467 22 17.588V6.41209C22 5.55333 21.3038 4.85718 20.4451 4.85718Z" fill="#3ECBF8"/>
<path d="M20.0952 4.85718H3.90476C2.85279 4.85718 2 5.70997 2 6.76194V17.2381C2 18.2901 2.85279 19.1429 3.90476 19.1429H20.0952C21.1473 19.1429 22 18.2901 22 17.2381V6.76194C22 5.70997 21.1473 4.85718 20.0952 4.85718Z" fill="#3ECBF8"/>
<path fill-rule="evenodd" clip-rule="evenodd" d="M2 13.4285H22V14.3808H2V13.4285ZM2 15.3332H22V16.2856H2V15.3332Z" fill="#FFDA2C"/>
<path fill-rule="evenodd" clip-rule="evenodd" d="M6.27145 9.12863C7.10002 9.07625 7.71431 8.89053 7.71431 8.66672C7.71431 8.44387 7.10002 8.2572 6.27145 8.20482C6.21907 7.37625 6.03336 6.76196 5.80955 6.76196C5.58669 6.76196 5.40002 7.37625 5.34764 8.20482C4.51907 8.2572 3.90479 8.44292 3.90479 8.66672C3.90479 8.88958 4.51907 9.07625 5.34764 9.12863C5.40002 9.9572 5.58574 10.5715 5.80955 10.5715C6.0324 10.5715 6.21907 9.9572 6.27145 9.12863Z" fill="#F93939"/>
<path fill-rule="evenodd" clip-rule="evenodd" d="M6.27148 9.12855C7.10005 9.07617 7.71434 8.89046 7.71434 8.66665C7.71434 8.44379 7.10005 8.25712 6.27148 8.20474C6.2191 7.37617 6.03338 6.76189 5.80958 6.76189C5.58672 6.76189 5.40005 7.37617 5.34767 8.20474C4.5191 8.25712 3.90481 8.44284 3.90481 8.66665C3.90481 8.88951 4.5191 9.07617 5.34767 9.12855C5.40005 9.95712 5.58577 10.5714 5.80958 10.5714C6.03243 10.5714 6.2191 9.95712 6.27148 9.12855ZM6.30002 9.60469L6.74764 9.15707C6.67621 10.298 6.43811 11.0475 5.80954 11.0475C5.18097 11.0475 4.94287 10.2971 4.8724 9.15803L5.31811 9.60374C4.17907 9.53326 3.42859 9.29517 3.42859 8.6666C3.42859 8.03803 4.17907 7.79993 5.31811 7.72945L4.8724 8.17517C4.94287 7.03612 5.18097 6.28564 5.80954 6.28564C6.43811 6.28564 6.67621 7.03612 6.74668 8.17517L6.30097 7.72945C7.44002 7.79993 8.19049 8.03803 8.19049 8.6666C8.19049 9.29517 7.44002 9.53326 6.30097 9.60374L6.30002 9.60469Z" fill="white"/>
</g>
</g>
<defs>
<filter id="filter0_di_8089_52794" x="1.90282" y="4.76" width="20.1944" height="15.1603" filterUnits="userSpaceOnUse" color-interpolation-filters="sRGB">
<feFlood flood-opacity="0" result="BackgroundImageFix"/>
<feColorMatrix in="SourceAlpha" type="matrix" values="0 0 0 0 0 0 0 0 0 0 0 0 0 0 0 0 0 0 127 0" result="hardAlpha"/>
<feOffset/>
<feGaussianBlur stdDeviation="0.0485908"/>
<feComposite in2="hardAlpha" operator="out"/>
<feColorMatrix type="matrix" values="0 0 0 0 0.258824 0 0 0 0 0.278431 0 0 0 0 0.298039 0 0 0 0.32 0"/>
<feBlend mode="normal" in2="BackgroundImageFix" result="effect1_dropShadow_8089_52794"/>
<feBlend mode="normal" in="SourceGraphic" in2="effect1_dropShadow_8089_52794" result="shape"/>
<feColorMatrix in="SourceAlpha" type="matrix" values="0 0 0 0 0 0 0 0 0 0 0 0 0 0 0 0 0 0 127 0" result="hardAlpha"/>
<feOffset dy="0.777454"/>
<feGaussianBlur stdDeviation="0.58309"/>
<feComposite in2="hardAlpha" operator="arithmetic" k2="-1" k3="1"/>
<feColorMatrix type="matrix" values="0 0 0 0 0.258824 0 0 0 0 0.278431 0 0 0 0 0.298039 0 0 0 0.08 0"/>
<feBlend mode="normal" in2="shape" result="effect2_innerShadow_8089_52794"/>
</filter>
</defs>
</svg>
