<svg width="24" height="24" viewBox="0 0 24 24" fill="none" xmlns="http://www.w3.org/2000/svg">
<g filter="url(#filter0_di_8089_52796)">
<mask id="mask0_8089_52796" style="mask-type:luminance" maskUnits="userSpaceOnUse" x="2" y="4" width="20" height="16">
<path d="M20.4451 4.85718H3.55491C2.69616 4.85718 2 5.55333 2 6.41209V17.588C2 18.4467 2.69616 19.1429 3.55491 19.1429H20.4451C21.3038 19.1429 22 18.4467 22 17.588V6.41209C22 5.55333 21.3038 4.85718 20.4451 4.85718Z" fill="white"/>
</mask>
<g mask="url(#mask0_8089_52796)">
<path d="M20.4451 4.85718H3.55491C2.69616 4.85718 2 5.55333 2 6.41209V17.588C2 18.4467 2.69616 19.1429 3.55491 19.1429H20.4451C21.3038 19.1429 22 18.4467 22 17.588V6.41209C22 5.55333 21.3038 4.85718 20.4451 4.85718Z" fill="#1A47B8"/>
<path d="M20.0952 4.85718H3.90476C2.85279 4.85718 2 5.70997 2 6.76194V17.2381C2 18.2901 2.85279 19.1429 3.90476 19.1429H20.0952C21.1473 19.1429 22 18.2901 22 17.2381V6.76194C22 5.70997 21.1473 4.85718 20.0952 4.85718Z" fill="#1A47B8"/>
<path fill-rule="evenodd" clip-rule="evenodd" d="M5.80957 15.8093L6.76195 15.3332L7.23814 14.3808L7.71433 15.3332L8.66671 15.8093L7.71433 16.2856L7.23814 17.2379L6.76195 16.2856L5.80957 15.8093ZM15.3334 7.71411V8.66649H16.2858V7.71411H15.3334ZM18.1905 8.66649V9.61887H19.1429V8.66649H18.1905ZM14.381 10.5713V11.5236H15.3334V10.5713H14.381ZM17.2381 11.5236V12.476H18.1905V11.5236H17.2381ZM16.2858 14.3808V15.3332H17.2381V14.3808H16.2858Z" fill="white"/>
<path d="M10.5714 5.80933H3.90477C3.37879 5.80933 2.95239 6.23572 2.95239 6.76171V11.5236C2.95239 12.0496 3.37879 12.476 3.90477 12.476H10.5714C11.0974 12.476 11.5238 12.0496 11.5238 11.5236V6.76171C11.5238 6.23572 11.0974 5.80933 10.5714 5.80933Z" fill="white"/>
<path fill-rule="evenodd" clip-rule="evenodd" d="M6.76199 9.61911H3.90485V8.66672H6.76199V6.76196H7.71437V8.66672H10.5715V9.61911H7.71437V11.5239H6.76199V9.61911ZM9.14294 10.5715V11.5239H10.5715V10.5715H9.14294ZM9.14294 6.76196V7.71434H10.5715V6.76196H9.14294ZM3.90485 10.5715V11.5239H5.33342V10.5715H3.90485ZM3.90485 6.76196V7.71434H5.33342V6.76196H3.90485Z" fill="#F93939"/>
</g>
</g>
<defs>
<filter id="filter0_di_8089_52796" x="1.90282" y="4.76" width="20.1944" height="15.1603" filterUnits="userSpaceOnUse" color-interpolation-filters="sRGB">
<feFlood flood-opacity="0" result="BackgroundImageFix"/>
<feColorMatrix in="SourceAlpha" type="matrix" values="0 0 0 0 0 0 0 0 0 0 0 0 0 0 0 0 0 0 127 0" result="hardAlpha"/>
<feOffset/>
<feGaussianBlur stdDeviation="0.0485908"/>
<feComposite in2="hardAlpha" operator="out"/>
<feColorMatrix type="matrix" values="0 0 0 0 0.258824 0 0 0 0 0.278431 0 0 0 0 0.298039 0 0 0 0.32 0"/>
<feBlend mode="normal" in2="BackgroundImageFix" result="effect1_dropShadow_8089_52796"/>
<feBlend mode="normal" in="SourceGraphic" in2="effect1_dropShadow_8089_52796" result="shape"/>
<feColorMatrix in="SourceAlpha" type="matrix" values="0 0 0 0 0 0 0 0 0 0 0 0 0 0 0 0 0 0 127 0" result="hardAlpha"/>
<feOffset dy="0.777454"/>
<feGaussianBlur stdDeviation="0.58309"/>
<feComposite in2="hardAlpha" operator="arithmetic" k2="-1" k3="1"/>
<feColorMatrix type="matrix" values="0 0 0 0 0.258824 0 0 0 0 0.278431 0 0 0 0 0.298039 0 0 0 0.08 0"/>
<feBlend mode="normal" in2="shape" result="effect2_innerShadow_8089_52796"/>
</filter>
</defs>
</svg>
