<svg width="24" height="24" viewBox="0 0 24 24" fill="none" xmlns="http://www.w3.org/2000/svg">
<g filter="url(#filter0_dd_8089_52798)">
<g clip-path="url(#clip0_8089_52798)">
<path d="M20.0952 4.85718H3.90476C2.85279 4.85718 2 5.70997 2 6.76194V17.2381C2 18.2901 2.85279 19.1429 3.90476 19.1429H20.0952C21.1472 19.1429 22 18.2901 22 17.2381V6.76194C22 5.70997 21.1472 4.85718 20.0952 4.85718Z" fill="#F93939"/>
<path fill-rule="evenodd" clip-rule="evenodd" d="M2 14.381H22V19.1429H2V14.381Z" fill="#249F58"/>
<path fill-rule="evenodd" clip-rule="evenodd" d="M13.4285 11.5239H14.3809V12.4762H13.4285V11.5239Z" fill="white"/>
<path fill-rule="evenodd" clip-rule="evenodd" d="M13.9047 13.4286C13.4704 14.0067 12.779 14.381 11.9999 14.381C10.6857 14.381 9.61899 13.3143 9.61899 12C9.61899 10.6857 10.6857 9.61908 11.9999 9.61908C12.779 9.61908 13.4704 9.99337 13.9047 10.5715H12.4761C11.6876 10.5715 11.0476 11.2115 11.0476 12C11.0476 12.7886 11.6876 13.4286 12.4761 13.4286H13.9047Z" fill="white"/>
<path fill-rule="evenodd" clip-rule="evenodd" d="M2 4.85718H22V9.61908H2V4.85718Z" fill="#3ECBF8"/>
</g>
</g>
<defs>
<filter id="filter0_dd_8089_52798" x="0.833819" y="4.46845" width="22.3324" height="16.618" filterUnits="userSpaceOnUse" color-interpolation-filters="sRGB">
<feFlood flood-opacity="0" result="BackgroundImageFix"/>
<feColorMatrix in="SourceAlpha" type="matrix" values="0 0 0 0 0 0 0 0 0 0 0 0 0 0 0 0 0 0 127 0" result="hardAlpha"/>
<feOffset dy="0.777454"/>
<feGaussianBlur stdDeviation="0.58309"/>
<feComposite in2="hardAlpha" operator="out"/>
<feColorMatrix type="matrix" values="0 0 0 0 0.258824 0 0 0 0 0.278431 0 0 0 0 0.298039 0 0 0 0.08 0"/>
<feBlend mode="normal" in2="BackgroundImageFix" result="effect1_dropShadow_8089_52798"/>
<feColorMatrix in="SourceAlpha" type="matrix" values="0 0 0 0 0 0 0 0 0 0 0 0 0 0 0 0 0 0 127 0" result="hardAlpha"/>
<feOffset/>
<feGaussianBlur stdDeviation="0.0485909"/>
<feComposite in2="hardAlpha" operator="out"/>
<feColorMatrix type="matrix" values="0 0 0 0 0.258824 0 0 0 0 0.278431 0 0 0 0 0.298039 0 0 0 0.32 0"/>
<feBlend mode="normal" in2="effect1_dropShadow_8089_52798" result="effect2_dropShadow_8089_52798"/>
<feBlend mode="normal" in="SourceGraphic" in2="effect2_dropShadow_8089_52798" result="shape"/>
</filter>
<clipPath id="clip0_8089_52798">
<rect x="2" y="4.85718" width="20" height="14.2857" rx="1.55491" fill="white"/>
</clipPath>
</defs>
</svg>
