<svg width="24" height="24" viewBox="0 0 24 24" fill="none" xmlns="http://www.w3.org/2000/svg">
<g filter="url(#filter0_dd_8124_53237)">
<g clip-path="url(#clip0_8124_53237)">
<path d="M20.0949 4.85718H3.90446C2.85249 4.85718 1.99969 5.70997 1.99969 6.76194V17.2381C1.99969 18.2901 2.85249 19.1429 3.90446 19.1429H20.0949C21.1469 19.1429 21.9997 18.2901 21.9997 17.2381V6.76194C21.9997 5.70997 21.1469 4.85718 20.0949 4.85718Z" fill="#FFDA2C"/>
<path fill-rule="evenodd" clip-rule="evenodd" d="M1.99969 4.85718H8.66636V19.1429H1.99969V4.85718ZM15.333 4.85718H21.9997V19.1429H15.333V4.85718Z" fill="#1A47B8"/>
<path fill-rule="evenodd" clip-rule="evenodd" d="M11.5235 14.381H12.4759V15.3334H11.5235V14.381ZM13.4283 12.4762H14.3807V13.4286H13.4283V12.4762ZM9.61878 12.4762H10.5712V13.4286H9.61878V12.4762Z" fill="#AE6A3E"/>
<path fill-rule="evenodd" clip-rule="evenodd" d="M12.4759 12.4762V8.66672H11.5235V12.4762L10.5712 12.4762V13.4286L11.5235 13.4286V14.381H12.4759V13.4286L13.4283 13.4286V12.4762L12.4759 12.4762ZM13.4283 9.6191H14.3807V12.4762H13.4283V9.6191ZM9.61878 9.6191H10.5712V12.4762H9.61878V9.6191Z" fill="#151515"/>
</g>
</g>
<defs>
<filter id="filter0_dd_8124_53237" x="0.833819" y="4.46845" width="22.3324" height="16.618" filterUnits="userSpaceOnUse" color-interpolation-filters="sRGB">
<feFlood flood-opacity="0" result="BackgroundImageFix"/>
<feColorMatrix in="SourceAlpha" type="matrix" values="0 0 0 0 0 0 0 0 0 0 0 0 0 0 0 0 0 0 127 0" result="hardAlpha"/>
<feOffset dy="0.777454"/>
<feGaussianBlur stdDeviation="0.58309"/>
<feComposite in2="hardAlpha" operator="out"/>
<feColorMatrix type="matrix" values="0 0 0 0 0.258824 0 0 0 0 0.278431 0 0 0 0 0.298039 0 0 0 0.08 0"/>
<feBlend mode="normal" in2="BackgroundImageFix" result="effect1_dropShadow_8124_53237"/>
<feColorMatrix in="SourceAlpha" type="matrix" values="0 0 0 0 0 0 0 0 0 0 0 0 0 0 0 0 0 0 127 0" result="hardAlpha"/>
<feOffset/>
<feGaussianBlur stdDeviation="0.0485909"/>
<feComposite in2="hardAlpha" operator="out"/>
<feColorMatrix type="matrix" values="0 0 0 0 0.258824 0 0 0 0 0.278431 0 0 0 0 0.298039 0 0 0 0.32 0"/>
<feBlend mode="normal" in2="effect1_dropShadow_8124_53237" result="effect2_dropShadow_8124_53237"/>
<feBlend mode="normal" in="SourceGraphic" in2="effect2_dropShadow_8124_53237" result="shape"/>
</filter>
<clipPath id="clip0_8124_53237">
<rect x="2" y="4.85718" width="20" height="14.2857" rx="1.55491" fill="white"/>
</clipPath>
</defs>
</svg>
