<svg width="24" height="24" viewBox="0 0 24 24" fill="none" xmlns="http://www.w3.org/2000/svg">
<g filter="url(#filter0_dd_8124_53238)">
<g clip-path="url(#clip0_8124_53238)">
<rect x="2" y="4.85718" width="20" height="14.2857" rx="1.55491" fill="#F93939"/>
<path d="M20.0952 4.85718H3.90476C2.85279 4.85718 2 5.70997 2 6.76194V17.2381C2 18.2901 2.85279 19.1429 3.90476 19.1429H20.0952C21.1472 19.1429 22 18.2901 22 17.2381V6.76194C22 5.70997 21.1472 4.85718 20.0952 4.85718Z" fill="#F93939"/>
<path fill-rule="evenodd" clip-rule="evenodd" d="M6.762 15.3333H22.0001V19.1429H6.762V15.3333Z" fill="#249F58"/>
<path fill-rule="evenodd" clip-rule="evenodd" d="M4.85714 4.85718L6.7619 6.28575L4.85714 7.71432V4.85718ZM4.85714 7.71432L6.7619 9.14289L4.85714 10.5715V7.71432ZM4.85714 10.5715L6.7619 12L4.85714 13.4286V10.5715ZM4.85714 13.4286L6.7619 14.8572L4.85714 16.2857V13.4286ZM4.85714 16.2857L6.7619 17.7143L4.85714 19.1429V16.2857ZM3.90476 4.85718L2 6.28575L3.90476 7.71432V4.85718ZM3.90476 7.71432L2 9.14289L3.90476 10.5715V7.71432ZM3.90476 10.5715L2 12L3.90476 13.4286V10.5715ZM3.90476 13.4286L2 14.8572L3.90476 16.2857V13.4286ZM3.90476 16.2857L2 17.7143L3.90476 19.1429V16.2857ZM3.90476 4.85718H4.85714V6.76194H3.90476V4.85718ZM3.90476 17.2381H4.85714V19.1429H3.90476V17.2381ZM3.90476 9.61908H4.85714V11.5238H3.90476V9.61908ZM3.90476 7.71432H4.85714V8.6667H3.90476V7.71432ZM3.90476 15.3334H4.85714V16.2857H3.90476V15.3334ZM3.90476 12.4762H4.85714V14.381H3.90476V12.4762Z" fill="white"/>
</g>
</g>
<defs>
<filter id="filter0_dd_8124_53238" x="0.833819" y="4.46845" width="22.3324" height="16.618" filterUnits="userSpaceOnUse" color-interpolation-filters="sRGB">
<feFlood flood-opacity="0" result="BackgroundImageFix"/>
<feColorMatrix in="SourceAlpha" type="matrix" values="0 0 0 0 0 0 0 0 0 0 0 0 0 0 0 0 0 0 127 0" result="hardAlpha"/>
<feOffset dy="0.777454"/>
<feGaussianBlur stdDeviation="0.58309"/>
<feComposite in2="hardAlpha" operator="out"/>
<feColorMatrix type="matrix" values="0 0 0 0 0.258824 0 0 0 0 0.278431 0 0 0 0 0.298039 0 0 0 0.08 0"/>
<feBlend mode="normal" in2="BackgroundImageFix" result="effect1_dropShadow_8124_53238"/>
<feColorMatrix in="SourceAlpha" type="matrix" values="0 0 0 0 0 0 0 0 0 0 0 0 0 0 0 0 0 0 127 0" result="hardAlpha"/>
<feOffset/>
<feGaussianBlur stdDeviation="0.0485909"/>
<feComposite in2="hardAlpha" operator="out"/>
<feColorMatrix type="matrix" values="0 0 0 0 0.258824 0 0 0 0 0.278431 0 0 0 0 0.298039 0 0 0 0.32 0"/>
<feBlend mode="normal" in2="effect1_dropShadow_8124_53238" result="effect2_dropShadow_8124_53238"/>
<feBlend mode="normal" in="SourceGraphic" in2="effect2_dropShadow_8124_53238" result="shape"/>
</filter>
<clipPath id="clip0_8124_53238">
<rect x="2" y="4.85718" width="20" height="14.2857" rx="1.55491" fill="white"/>
</clipPath>
</defs>
</svg>
