<svg width="24" height="24" viewBox="0 0 24 24" fill="none" xmlns="http://www.w3.org/2000/svg">
<g filter="url(#filter0_dd_8124_53240)">
<g clip-path="url(#clip0_8124_53240)">
<rect x="2" y="4.85718" width="20" height="14.2857" rx="1.55491" fill="#1A47B8"/>
<path d="M11.9999 16.2857C14.3668 16.2857 16.2856 14.367 16.2856 12C16.2856 9.63309 14.3668 7.71431 11.9999 7.71431C9.63295 7.71431 7.71417 9.63309 7.71417 12C7.71417 14.367 9.63295 16.2857 11.9999 16.2857Z" fill="white"/>
<path fill-rule="evenodd" clip-rule="evenodd" d="M10.0951 12.4762H13.9046V13.4286H10.0951V12.4762Z" fill="#CBCBCB"/>
<path fill-rule="evenodd" clip-rule="evenodd" d="M9.61899 9.6191H10.5714V10.5715H9.61899V9.6191ZM11.5238 8.66672H12.4761V9.6191H11.5238V8.66672ZM13.4285 9.6191H14.3809V10.5715H13.4285V9.6191ZM14.3809 11.5239H15.3333V12.4762H14.3809V11.5239ZM13.4285 13.4286H14.3809V14.381H13.4285V13.4286Z" fill="#249F58"/>
<path fill-rule="evenodd" clip-rule="evenodd" d="M12.4763 11.5239H13.4286V12.4762H12.4763V11.5239Z" fill="#AE6A3E"/>
<path fill-rule="evenodd" clip-rule="evenodd" d="M10.5714 11.5239H11.5238V12.4762H10.5714V11.5239Z" fill="#FFDA2C"/>
<path fill-rule="evenodd" clip-rule="evenodd" d="M11.5238 14.381H12.4762V15.3334H11.5238V14.381ZM9.61901 13.4286H10.5714V14.381H9.61901V13.4286ZM8.66663 11.5239H9.61901V12.4762H8.66663V11.5239Z" fill="#249F58"/>
<path fill-rule="evenodd" clip-rule="evenodd" d="M12.4763 10.5715H13.4286V11.5239H12.4763V10.5715Z" fill="#151515"/>
<path fill-rule="evenodd" clip-rule="evenodd" d="M10.5714 10.5715L11.5238 10.5715V11.5239H10.5714L10.5714 10.5715Z" fill="#AE6A3E"/>
<path fill-rule="evenodd" clip-rule="evenodd" d="M2 17.2381H22V19.1429H2V17.2381ZM2 4.85718H22V6.76194H2V4.85718Z" fill="#F93939"/>
</g>
</g>
<defs>
<filter id="filter0_dd_8124_53240" x="0.833819" y="4.46845" width="22.3324" height="16.618" filterUnits="userSpaceOnUse" color-interpolation-filters="sRGB">
<feFlood flood-opacity="0" result="BackgroundImageFix"/>
<feColorMatrix in="SourceAlpha" type="matrix" values="0 0 0 0 0 0 0 0 0 0 0 0 0 0 0 0 0 0 127 0" result="hardAlpha"/>
<feOffset dy="0.777454"/>
<feGaussianBlur stdDeviation="0.58309"/>
<feComposite in2="hardAlpha" operator="out"/>
<feColorMatrix type="matrix" values="0 0 0 0 0.258824 0 0 0 0 0.278431 0 0 0 0 0.298039 0 0 0 0.08 0"/>
<feBlend mode="normal" in2="BackgroundImageFix" result="effect1_dropShadow_8124_53240"/>
<feColorMatrix in="SourceAlpha" type="matrix" values="0 0 0 0 0 0 0 0 0 0 0 0 0 0 0 0 0 0 127 0" result="hardAlpha"/>
<feOffset/>
<feGaussianBlur stdDeviation="0.0485909"/>
<feComposite in2="hardAlpha" operator="out"/>
<feColorMatrix type="matrix" values="0 0 0 0 0.258824 0 0 0 0 0.278431 0 0 0 0 0.298039 0 0 0 0.32 0"/>
<feBlend mode="normal" in2="effect1_dropShadow_8124_53240" result="effect2_dropShadow_8124_53240"/>
<feBlend mode="normal" in="SourceGraphic" in2="effect2_dropShadow_8124_53240" result="shape"/>
</filter>
<clipPath id="clip0_8124_53240">
<rect x="2" y="4.85718" width="20" height="14.2857" rx="1.55491" fill="white"/>
</clipPath>
</defs>
</svg>
