<svg width="24" height="24" viewBox="0 0 24 24" fill="none" xmlns="http://www.w3.org/2000/svg">
<g filter="url(#filter0_dd_8124_53242)">
<g clip-path="url(#clip0_8124_53242)">
<rect x="2" y="4.85718" width="20" height="14.2857" rx="1.55491" fill="#FF6C2D"/>
<path d="M20.0952 4.85718H3.90476C2.85279 4.85718 2 5.70997 2 6.76194V17.2381C2 18.2901 2.85279 19.1429 3.90476 19.1429H20.0952C21.1472 19.1429 22 18.2901 22 17.2381V6.76194C22 5.70997 21.1472 4.85718 20.0952 4.85718Z" fill="#FF6C2D"/>
<path fill-rule="evenodd" clip-rule="evenodd" d="M2 19.1429L22 4.85718H2V19.1429Z" fill="#FFDA2C"/>
<path fill-rule="evenodd" clip-rule="evenodd" d="M4.85709 14.381L5.33328 15.8095L7.23804 16.2857L7.71423 15.3334L11.5238 15.8095L10.5714 13.4286H12.4761L15.3333 14.381L16.2857 13.4286L13.4285 12.4762L14.3809 11.5238H17.238L17.7142 10.5715H15.3333V9.61907H17.238L18.1904 8.66669L14.3809 7.71431L11.5238 10.5715L12.4761 11.5238L9.61899 11.0476L7.71423 14.381L6.76185 15.3334L4.85709 14.381Z" fill="white"/>
</g>
</g>
<defs>
<filter id="filter0_dd_8124_53242" x="0.833819" y="4.46845" width="22.3324" height="16.618" filterUnits="userSpaceOnUse" color-interpolation-filters="sRGB">
<feFlood flood-opacity="0" result="BackgroundImageFix"/>
<feColorMatrix in="SourceAlpha" type="matrix" values="0 0 0 0 0 0 0 0 0 0 0 0 0 0 0 0 0 0 127 0" result="hardAlpha"/>
<feOffset dy="0.777454"/>
<feGaussianBlur stdDeviation="0.58309"/>
<feComposite in2="hardAlpha" operator="out"/>
<feColorMatrix type="matrix" values="0 0 0 0 0.258824 0 0 0 0 0.278431 0 0 0 0 0.298039 0 0 0 0.08 0"/>
<feBlend mode="normal" in2="BackgroundImageFix" result="effect1_dropShadow_8124_53242"/>
<feColorMatrix in="SourceAlpha" type="matrix" values="0 0 0 0 0 0 0 0 0 0 0 0 0 0 0 0 0 0 127 0" result="hardAlpha"/>
<feOffset/>
<feGaussianBlur stdDeviation="0.0485909"/>
<feComposite in2="hardAlpha" operator="out"/>
<feColorMatrix type="matrix" values="0 0 0 0 0.258824 0 0 0 0 0.278431 0 0 0 0 0.298039 0 0 0 0.32 0"/>
<feBlend mode="normal" in2="effect1_dropShadow_8124_53242" result="effect2_dropShadow_8124_53242"/>
<feBlend mode="normal" in="SourceGraphic" in2="effect2_dropShadow_8124_53242" result="shape"/>
</filter>
<clipPath id="clip0_8124_53242">
<rect x="2" y="4.85718" width="20" height="14.2857" rx="1.55491" fill="white"/>
</clipPath>
</defs>
</svg>
