<svg width="24" height="24" viewBox="0 0 24 24" fill="none" xmlns="http://www.w3.org/2000/svg">
<g filter="url(#filter0_dd_8124_53243)">
<g clip-path="url(#clip0_8124_53243)">
<path d="M20.0955 4.85718H3.90507C2.8531 4.85718 2.00031 5.70997 2.00031 6.76194V17.2381C2.00031 18.2901 2.8531 19.1429 3.90507 19.1429H20.0955C21.1475 19.1429 22.0003 18.2901 22.0003 17.2381V6.76194C22.0003 5.70997 21.1475 4.85718 20.0955 4.85718Z" fill="#FFDA2C"/>
<path fill-rule="evenodd" clip-rule="evenodd" d="M2.00031 14.381H22.0003V19.1429H2.00031V14.381Z" fill="#249F58"/>
<path fill-rule="evenodd" clip-rule="evenodd" d="M10.5717 11.5239H11.524V12.4762H10.5717V11.5239ZM12.4764 11.5239H13.4288V12.4762H12.4764V11.5239Z" fill="#03BCDB"/>
<path fill-rule="evenodd" clip-rule="evenodd" d="M13.4288 11.5239L14.3812 11.5238V13.4286H13.4288L13.4288 11.5239ZM12.4764 10.5714H13.4288L13.4288 11.5239H12.4764L12.4764 10.5714ZM10.5717 10.5714H11.5241L11.524 11.5239H10.5717L10.5717 10.5714ZM9.6193 11.5238L10.5717 11.5239L10.5717 13.4286H9.6193V11.5238Z" fill="#AF010D"/>
<path fill-rule="evenodd" clip-rule="evenodd" d="M11.524 12.4762H12.4764L12.4764 13.4286H11.524L11.524 12.4762Z" fill="#249F58"/>
<path fill-rule="evenodd" clip-rule="evenodd" d="M12.4764 12.4762H13.4288L13.4288 13.4286L12.4764 13.4286L12.4764 12.4762ZM10.5717 12.4762H11.524L11.524 13.4286L10.5717 13.4286L10.5717 12.4762Z" fill="#D4AF2C"/>
<path fill-rule="evenodd" clip-rule="evenodd" d="M11.524 11.5239H12.4764V12.4762H11.524V11.5239Z" fill="#249F58"/>
<path fill-rule="evenodd" clip-rule="evenodd" d="M11.5241 10.5714H12.4764L12.4764 11.5239H11.524L11.5241 10.5714Z" fill="#151515"/>
<path fill-rule="evenodd" clip-rule="evenodd" d="M2.00031 4.85718H22.0003V9.61908H2.00031V4.85718Z" fill="#F93939"/>
</g>
</g>
<defs>
<filter id="filter0_dd_8124_53243" x="0.833819" y="4.46845" width="22.3324" height="16.618" filterUnits="userSpaceOnUse" color-interpolation-filters="sRGB">
<feFlood flood-opacity="0" result="BackgroundImageFix"/>
<feColorMatrix in="SourceAlpha" type="matrix" values="0 0 0 0 0 0 0 0 0 0 0 0 0 0 0 0 0 0 127 0" result="hardAlpha"/>
<feOffset dy="0.777454"/>
<feGaussianBlur stdDeviation="0.58309"/>
<feComposite in2="hardAlpha" operator="out"/>
<feColorMatrix type="matrix" values="0 0 0 0 0.258824 0 0 0 0 0.278431 0 0 0 0 0.298039 0 0 0 0.08 0"/>
<feBlend mode="normal" in2="BackgroundImageFix" result="effect1_dropShadow_8124_53243"/>
<feColorMatrix in="SourceAlpha" type="matrix" values="0 0 0 0 0 0 0 0 0 0 0 0 0 0 0 0 0 0 127 0" result="hardAlpha"/>
<feOffset/>
<feGaussianBlur stdDeviation="0.0485909"/>
<feComposite in2="hardAlpha" operator="out"/>
<feColorMatrix type="matrix" values="0 0 0 0 0.258824 0 0 0 0 0.278431 0 0 0 0 0.298039 0 0 0 0.32 0"/>
<feBlend mode="normal" in2="effect1_dropShadow_8124_53243" result="effect2_dropShadow_8124_53243"/>
<feBlend mode="normal" in="SourceGraphic" in2="effect2_dropShadow_8124_53243" result="shape"/>
</filter>
<clipPath id="clip0_8124_53243">
<rect x="2" y="4.85718" width="20" height="14.2857" rx="1.55491" fill="white"/>
</clipPath>
</defs>
</svg>
