<svg width="24" height="24" viewBox="0 0 24 24" fill="none" xmlns="http://www.w3.org/2000/svg">
<g filter="url(#filter0_dd_8124_53244)">
<g clip-path="url(#clip0_8124_53244)">
<rect x="2" y="4.85718" width="20" height="14.2857" rx="1.55491" fill="#FFDA2C"/>
<path d="M20.0952 4.85718H3.90476C2.85279 4.85718 2 5.70997 2 6.76194V17.2381C2 18.2901 2.85279 19.1429 3.90476 19.1429H20.0952C21.1472 19.1429 22 18.2901 22 17.2381V6.76194C22 5.70997 21.1472 4.85718 20.0952 4.85718Z" fill="#FFDA2C"/>
<path fill-rule="evenodd" clip-rule="evenodd" d="M2 4.85718L22 18.1905L21.8829 19.2381L2 19.1429V4.85718Z" fill="#1A47B8"/>
<path fill-rule="evenodd" clip-rule="evenodd" d="M2.95236 7.71431H3.90474V8.66669H2.95236V7.71431ZM5.8095 9.61907H6.76189V10.5715H5.8095V9.61907ZM8.66665 11.5238H9.61903V12.4762H8.66665V11.5238ZM11.5238 13.4286H12.4762V14.381H11.5238V13.4286ZM14.3809 15.3334H15.3333V16.2857H14.3809V15.3334ZM17.2381 17.2381H18.1905V18.1905H17.2381V17.2381Z" fill="white"/>
</g>
</g>
<defs>
<filter id="filter0_dd_8124_53244" x="0.833819" y="4.46845" width="22.3324" height="16.618" filterUnits="userSpaceOnUse" color-interpolation-filters="sRGB">
<feFlood flood-opacity="0" result="BackgroundImageFix"/>
<feColorMatrix in="SourceAlpha" type="matrix" values="0 0 0 0 0 0 0 0 0 0 0 0 0 0 0 0 0 0 127 0" result="hardAlpha"/>
<feOffset dy="0.777454"/>
<feGaussianBlur stdDeviation="0.58309"/>
<feComposite in2="hardAlpha" operator="out"/>
<feColorMatrix type="matrix" values="0 0 0 0 0.258824 0 0 0 0 0.278431 0 0 0 0 0.298039 0 0 0 0.08 0"/>
<feBlend mode="normal" in2="BackgroundImageFix" result="effect1_dropShadow_8124_53244"/>
<feColorMatrix in="SourceAlpha" type="matrix" values="0 0 0 0 0 0 0 0 0 0 0 0 0 0 0 0 0 0 127 0" result="hardAlpha"/>
<feOffset/>
<feGaussianBlur stdDeviation="0.0485909"/>
<feComposite in2="hardAlpha" operator="out"/>
<feColorMatrix type="matrix" values="0 0 0 0 0.258824 0 0 0 0 0.278431 0 0 0 0 0.298039 0 0 0 0.32 0"/>
<feBlend mode="normal" in2="effect1_dropShadow_8124_53244" result="effect2_dropShadow_8124_53244"/>
<feBlend mode="normal" in="SourceGraphic" in2="effect2_dropShadow_8124_53244" result="shape"/>
</filter>
<clipPath id="clip0_8124_53244">
<rect x="2" y="4.85718" width="20" height="14.2857" rx="1.55491" fill="white"/>
</clipPath>
</defs>
</svg>
