<svg width="24" height="24" viewBox="0 0 24 24" fill="none" xmlns="http://www.w3.org/2000/svg">
<g filter="url(#filter0_dd_8124_53250)">
<g clip-path="url(#clip0_8124_53250)">
<path d="M20.0952 4.85718H3.90476C2.85279 4.85718 2 5.70997 2 6.76194V17.2381C2 18.2901 2.85279 19.1429 3.90476 19.1429H20.0952C21.1472 19.1429 22 18.2901 22 17.2381V6.76194C22 5.70997 21.1472 4.85718 20.0952 4.85718Z" fill="#F93939"/>
<path fill-rule="evenodd" clip-rule="evenodd" d="M2 4.85718L11.5238 12.4762L2 19.1429V4.85718ZM22 4.85718L12.4762 12.4762L22 19.1429V4.85718Z" fill="#00B731"/>
<path fill-rule="evenodd" clip-rule="evenodd" d="M8.81714 11.0057L2 6.28575V4.85718H3.42857L9.94952 9.37146C10.5143 8.92956 11.2257 8.6667 12 8.6667C12.7733 8.6667 13.4857 8.92956 14.0505 9.37146L20.5714 4.85718H22V6.28575L15.1829 11.0057C15.281 11.32 15.3333 11.6534 15.3333 12C15.3333 12.3467 15.281 12.68 15.1829 12.9943L22 17.7143V19.1429H20.5714L14.0505 14.6286C13.4848 15.0705 12.7743 15.3334 12 15.3334C11.2267 15.3334 10.5143 15.0705 9.94952 14.6286L3.42857 19.1429H2V17.7143L8.81714 12.9943C8.71905 12.68 8.66667 12.3467 8.66667 12C8.66667 11.6534 8.71905 11.32 8.81714 11.0057Z" fill="white"/>
<path fill-rule="evenodd" clip-rule="evenodd" d="M11.5238 10.5714H12.4762V11.5238H11.5238V10.5714ZM12.4762 12.4762L13.4286 12.4762V13.4286H12.4762L12.4762 12.4762ZM10.5714 12.4762L11.5238 12.4762L11.5238 13.4286H10.5714V12.4762Z" fill="#AF010D"/>
</g>
</g>
<defs>
<filter id="filter0_dd_8124_53250" x="0.833819" y="4.46845" width="22.3324" height="16.618" filterUnits="userSpaceOnUse" color-interpolation-filters="sRGB">
<feFlood flood-opacity="0" result="BackgroundImageFix"/>
<feColorMatrix in="SourceAlpha" type="matrix" values="0 0 0 0 0 0 0 0 0 0 0 0 0 0 0 0 0 0 127 0" result="hardAlpha"/>
<feOffset dy="0.777454"/>
<feGaussianBlur stdDeviation="0.58309"/>
<feComposite in2="hardAlpha" operator="out"/>
<feColorMatrix type="matrix" values="0 0 0 0 0.258824 0 0 0 0 0.278431 0 0 0 0 0.298039 0 0 0 0.08 0"/>
<feBlend mode="normal" in2="BackgroundImageFix" result="effect1_dropShadow_8124_53250"/>
<feColorMatrix in="SourceAlpha" type="matrix" values="0 0 0 0 0 0 0 0 0 0 0 0 0 0 0 0 0 0 127 0" result="hardAlpha"/>
<feOffset/>
<feGaussianBlur stdDeviation="0.0485909"/>
<feComposite in2="hardAlpha" operator="out"/>
<feColorMatrix type="matrix" values="0 0 0 0 0.258824 0 0 0 0 0.278431 0 0 0 0 0.298039 0 0 0 0.32 0"/>
<feBlend mode="normal" in2="effect1_dropShadow_8124_53250" result="effect2_dropShadow_8124_53250"/>
<feBlend mode="normal" in="SourceGraphic" in2="effect2_dropShadow_8124_53250" result="shape"/>
</filter>
<clipPath id="clip0_8124_53250">
<rect x="2" y="4.85718" width="20" height="14.2857" rx="1.55491" fill="white"/>
</clipPath>
</defs>
</svg>
