<svg width="24" height="24" viewBox="0 0 24 24" fill="none" xmlns="http://www.w3.org/2000/svg">
<g filter="url(#filter0_dd_9220_40738)">
<g clip-path="url(#clip0_9220_40738)">
<rect x="2" y="4.85718" width="20" height="14.2857" rx="1.55491" fill="#1A47B8"/>
<path fill-rule="evenodd" clip-rule="evenodd" d="M2 14.3811H22V15.3335H2V14.3811Z" fill="white"/>
<path fill-rule="evenodd" clip-rule="evenodd" d="M2 13.4287H22V14.3811H2V13.4287Z" fill="#F93939"/>
<path fill-rule="evenodd" clip-rule="evenodd" d="M2 12.4763H22V13.4287H2V12.4763Z" fill="white"/>
<path fill-rule="evenodd" clip-rule="evenodd" d="M6.76183 11.5239H7.71421V12.4763H6.76183V11.5239ZM8.66659 10.5715H9.61897V11.5239H8.66659V10.5715ZM10.5714 11.5239H11.5237V12.4763H10.5714V11.5239ZM11.5237 13.4287H12.4761V14.3811H11.5237V13.4287ZM5.80945 13.4287H6.76183V14.3811H5.80945V13.4287ZM10.5714 15.3334H11.5237V16.2858H10.5714V15.3334ZM8.66659 16.2858H9.61897V17.2382H8.66659V16.2858ZM6.76183 15.3334H7.71421V16.2858H6.76183V15.3334Z" fill="#FFDA2C"/>
</g>
</g>
<defs>
<filter id="filter0_dd_9220_40738" x="0.833819" y="4.46845" width="22.3324" height="16.618" filterUnits="userSpaceOnUse" color-interpolation-filters="sRGB">
<feFlood flood-opacity="0" result="BackgroundImageFix"/>
<feColorMatrix in="SourceAlpha" type="matrix" values="0 0 0 0 0 0 0 0 0 0 0 0 0 0 0 0 0 0 127 0" result="hardAlpha"/>
<feOffset dy="0.777454"/>
<feGaussianBlur stdDeviation="0.58309"/>
<feComposite in2="hardAlpha" operator="out"/>
<feColorMatrix type="matrix" values="0 0 0 0 0.258824 0 0 0 0 0.278431 0 0 0 0 0.298039 0 0 0 0.08 0"/>
<feBlend mode="normal" in2="BackgroundImageFix" result="effect1_dropShadow_9220_40738"/>
<feColorMatrix in="SourceAlpha" type="matrix" values="0 0 0 0 0 0 0 0 0 0 0 0 0 0 0 0 0 0 127 0" result="hardAlpha"/>
<feOffset/>
<feGaussianBlur stdDeviation="0.0485909"/>
<feComposite in2="hardAlpha" operator="out"/>
<feColorMatrix type="matrix" values="0 0 0 0 0.258824 0 0 0 0 0.278431 0 0 0 0 0.298039 0 0 0 0.32 0"/>
<feBlend mode="normal" in2="effect1_dropShadow_9220_40738" result="effect2_dropShadow_9220_40738"/>
<feBlend mode="normal" in="SourceGraphic" in2="effect2_dropShadow_9220_40738" result="shape"/>
</filter>
<clipPath id="clip0_9220_40738">
<rect x="2" y="4.85718" width="20" height="14.2857" rx="1.55491" fill="white"/>
</clipPath>
</defs>
</svg>
