<svg width="24" height="24" viewBox="0 0 24 24" fill="none" xmlns="http://www.w3.org/2000/svg">
<g filter="url(#filter0_dd_9220_40744)">
<g clip-path="url(#clip0_9220_40744)">
<rect x="2" y="4.85718" width="20" height="14.2857" rx="1.55491" fill="#F93939"/>
<path d="M20.0952 4.85718H3.90476C2.85279 4.85718 2 5.70997 2 6.76194V17.2381C2 18.2901 2.85279 19.1429 3.90476 19.1429H20.0952C21.1472 19.1429 22 18.2901 22 17.2381V6.76194C22 5.70997 21.1472 4.85718 20.0952 4.85718Z" fill="#F93939"/>
<path fill-rule="evenodd" clip-rule="evenodd" d="M7.2363 11.7429L5.8363 12.4791L6.10297 10.92L4.97154 9.81526L6.5363 9.58955L7.2363 8.1705L7.93535 9.58955L9.50011 9.81526L8.36678 10.92L8.63535 12.4781L7.2363 11.7429ZM10.5715 7.71431H11.5239V8.66669H10.5715V7.71431ZM11.5239 9.61907H12.4763V10.5715H11.5239V9.61907ZM11.5239 11.5238H12.4763V12.4762H11.5239V11.5238ZM10.5715 13.4286H11.5239V14.381H10.5715V13.4286Z" fill="#FFDA2C"/>
</g>
</g>
<defs>
<filter id="filter0_dd_9220_40744" x="0.833819" y="4.46845" width="22.3324" height="16.618" filterUnits="userSpaceOnUse" color-interpolation-filters="sRGB">
<feFlood flood-opacity="0" result="BackgroundImageFix"/>
<feColorMatrix in="SourceAlpha" type="matrix" values="0 0 0 0 0 0 0 0 0 0 0 0 0 0 0 0 0 0 127 0" result="hardAlpha"/>
<feOffset dy="0.777454"/>
<feGaussianBlur stdDeviation="0.58309"/>
<feComposite in2="hardAlpha" operator="out"/>
<feColorMatrix type="matrix" values="0 0 0 0 0.258824 0 0 0 0 0.278431 0 0 0 0 0.298039 0 0 0 0.08 0"/>
<feBlend mode="normal" in2="BackgroundImageFix" result="effect1_dropShadow_9220_40744"/>
<feColorMatrix in="SourceAlpha" type="matrix" values="0 0 0 0 0 0 0 0 0 0 0 0 0 0 0 0 0 0 127 0" result="hardAlpha"/>
<feOffset/>
<feGaussianBlur stdDeviation="0.0485909"/>
<feComposite in2="hardAlpha" operator="out"/>
<feColorMatrix type="matrix" values="0 0 0 0 0.258824 0 0 0 0 0.278431 0 0 0 0 0.298039 0 0 0 0.32 0"/>
<feBlend mode="normal" in2="effect1_dropShadow_9220_40744" result="effect2_dropShadow_9220_40744"/>
<feBlend mode="normal" in="SourceGraphic" in2="effect2_dropShadow_9220_40744" result="shape"/>
</filter>
<clipPath id="clip0_9220_40744">
<rect x="2" y="4.85718" width="20" height="14.2857" rx="1.55491" fill="white"/>
</clipPath>
</defs>
</svg>
