<svg width="24" height="24" viewBox="0 0 24 24" fill="none" xmlns="http://www.w3.org/2000/svg">
<g filter="url(#filter0_dd_9227_41191)">
<g clip-path="url(#clip0_9227_41191)">
<rect x="2" y="4.85718" width="20" height="14.2857" rx="1.55491" fill="#3A99FF"/>
<path fill-rule="evenodd" clip-rule="evenodd" d="M6.28394 9.83834L4.88394 10.5745L5.15061 9.01548L4.01918 7.91072L5.58394 7.685L6.28394 6.26596L6.98299 7.685L8.54775 7.91072L7.41442 9.01548L7.68299 10.5736" fill="#FFDA2C"/>
<path fill-rule="evenodd" clip-rule="evenodd" d="M2 18.1907L22 7.71455V3.90503L2 14.3812V18.1907Z" fill="#FFDA2C"/>
<path fill-rule="evenodd" clip-rule="evenodd" d="M2 20.0955L22 9.61928V5.80975L2 16.2859V20.0955Z" fill="#FFDA2C"/>
<path fill-rule="evenodd" clip-rule="evenodd" d="M2 19.1431L22 8.66692V4.85739L2 15.3336V19.1431Z" fill="#F93939"/>
</g>
</g>
<defs>
<filter id="filter0_dd_9227_41191" x="0.833819" y="4.46845" width="22.3324" height="16.618" filterUnits="userSpaceOnUse" color-interpolation-filters="sRGB">
<feFlood flood-opacity="0" result="BackgroundImageFix"/>
<feColorMatrix in="SourceAlpha" type="matrix" values="0 0 0 0 0 0 0 0 0 0 0 0 0 0 0 0 0 0 127 0" result="hardAlpha"/>
<feOffset dy="0.777454"/>
<feGaussianBlur stdDeviation="0.58309"/>
<feComposite in2="hardAlpha" operator="out"/>
<feColorMatrix type="matrix" values="0 0 0 0 0.258824 0 0 0 0 0.278431 0 0 0 0 0.298039 0 0 0 0.08 0"/>
<feBlend mode="normal" in2="BackgroundImageFix" result="effect1_dropShadow_9227_41191"/>
<feColorMatrix in="SourceAlpha" type="matrix" values="0 0 0 0 0 0 0 0 0 0 0 0 0 0 0 0 0 0 127 0" result="hardAlpha"/>
<feOffset/>
<feGaussianBlur stdDeviation="0.0485909"/>
<feComposite in2="hardAlpha" operator="out"/>
<feColorMatrix type="matrix" values="0 0 0 0 0.258824 0 0 0 0 0.278431 0 0 0 0 0.298039 0 0 0 0.32 0"/>
<feBlend mode="normal" in2="effect1_dropShadow_9227_41191" result="effect2_dropShadow_9227_41191"/>
<feBlend mode="normal" in="SourceGraphic" in2="effect2_dropShadow_9227_41191" result="shape"/>
</filter>
<clipPath id="clip0_9227_41191">
<rect x="2" y="4.85718" width="20" height="14.2857" rx="1.55491" fill="white"/>
</clipPath>
</defs>
</svg>
