<svg width="24" height="24" viewBox="0 0 24 24" fill="none" xmlns="http://www.w3.org/2000/svg">
<g filter="url(#filter0_dd_9220_40748)">
<g clip-path="url(#clip0_9220_40748)">
<rect x="2" y="4.85718" width="20" height="14.2857" rx="1.55491" fill="white"/>
<path fill-rule="evenodd" clip-rule="evenodd" d="M2 14.3809H22V19.1428H2V14.3809Z" fill="#1A47B8"/>
<mask id="mask0_9220_40748" style="mask-type:alpha" maskUnits="userSpaceOnUse" x="9" y="9" width="6" height="7">
<path d="M14.3809 12.9525C14.3809 14.2668 13.3142 15.3334 11.9999 15.3334C10.6856 15.3334 9.61896 14.2668 9.61896 12.9525V9.61914H14.3809V12.9525Z" fill="white"/>
</mask>
<g mask="url(#mask0_9220_40748)">
<path d="M14.381 12.9525C14.381 14.2668 13.3143 15.3334 12 15.3334C10.6857 15.3334 9.61908 14.2668 9.61908 12.9525V9.61914H14.381V12.9525Z" fill="#F93939"/>
<path fill-rule="evenodd" clip-rule="evenodd" d="M10.5715 14.381H11.5238V15.3334H10.5715V14.381ZM12.4762 14.381H13.4286V15.3334H12.4762V14.381ZM11.5238 13.4287H12.4762V14.381H11.5238V13.4287ZM10.5715 12.4763H11.5238V13.4287H10.5715V12.4763ZM12.4762 12.4763H13.4286V13.4287H12.4762V12.4763ZM11.5238 11.5239H12.4762V12.4763H11.5238V11.5239ZM10.5715 10.5715H11.5238V11.5239H10.5715V10.5715ZM12.4762 10.5715H13.4286V11.5239H12.4762V10.5715ZM11.5238 9.61914H12.4762V10.5715H11.5238V9.61914ZM13.4286 9.61914H14.381V10.5715H13.4286V9.61914ZM13.4286 11.5239H14.381V12.4763H13.4286V11.5239ZM13.4286 13.4287H14.381V14.381H13.4286V13.4287ZM9.61908 13.4287H10.5715V14.381H9.61908V13.4287ZM9.61908 11.5239H10.5715V12.4763H9.61908V11.5239ZM9.61908 9.61914H10.5715V10.5715H9.61908V9.61914Z" fill="white"/>
</g>
</g>
</g>
<defs>
<filter id="filter0_dd_9220_40748" x="0.833819" y="4.46845" width="22.3324" height="16.618" filterUnits="userSpaceOnUse" color-interpolation-filters="sRGB">
<feFlood flood-opacity="0" result="BackgroundImageFix"/>
<feColorMatrix in="SourceAlpha" type="matrix" values="0 0 0 0 0 0 0 0 0 0 0 0 0 0 0 0 0 0 127 0" result="hardAlpha"/>
<feOffset dy="0.777454"/>
<feGaussianBlur stdDeviation="0.58309"/>
<feComposite in2="hardAlpha" operator="out"/>
<feColorMatrix type="matrix" values="0 0 0 0 0.258824 0 0 0 0 0.278431 0 0 0 0 0.298039 0 0 0 0.08 0"/>
<feBlend mode="normal" in2="BackgroundImageFix" result="effect1_dropShadow_9220_40748"/>
<feColorMatrix in="SourceAlpha" type="matrix" values="0 0 0 0 0 0 0 0 0 0 0 0 0 0 0 0 0 0 127 0" result="hardAlpha"/>
<feOffset/>
<feGaussianBlur stdDeviation="0.0485909"/>
<feComposite in2="hardAlpha" operator="out"/>
<feColorMatrix type="matrix" values="0 0 0 0 0.258824 0 0 0 0 0.278431 0 0 0 0 0.298039 0 0 0 0.32 0"/>
<feBlend mode="normal" in2="effect1_dropShadow_9220_40748" result="effect2_dropShadow_9220_40748"/>
<feBlend mode="normal" in="SourceGraphic" in2="effect2_dropShadow_9220_40748" result="shape"/>
</filter>
<clipPath id="clip0_9220_40748">
<rect x="2" y="4.85718" width="20" height="14.2857" rx="1.55491" fill="white"/>
</clipPath>
</defs>
</svg>
