<svg width="24" height="24" viewBox="0 0 24 24" fill="none" xmlns="http://www.w3.org/2000/svg">
<g filter="url(#filter0_dd_9220_40750)">
<rect x="2" y="4.85718" width="20" height="14.2857" rx="1.55491" fill="white"/>
<path fill-rule="evenodd" clip-rule="evenodd" d="M6.76183 13.4289L11.5237 15.3337V16.2861L5.80945 14.3813L6.76183 13.4289ZM17.238 13.4289L12.4761 15.3337V16.2861L18.1904 14.3813L17.238 13.4289ZM11.5237 15.3337H12.4761V17.2384H11.5237V15.3337Z" fill="#0A6A30"/>
<path fill-rule="evenodd" clip-rule="evenodd" d="M6.76191 10.5717C6.76191 10.5717 7.71429 13.4289 10.5714 13.4289C13.4286 13.4289 16.2857 10.5717 16.2857 10.5717H14.381L17.2381 7.7146L11.5238 9.61936L9.61905 7.7146L8.66667 9.61936L6.76191 10.5717Z" fill="#FF6C2D"/>
</g>
<defs>
<filter id="filter0_dd_9220_40750" x="0.833819" y="4.46845" width="22.3324" height="16.618" filterUnits="userSpaceOnUse" color-interpolation-filters="sRGB">
<feFlood flood-opacity="0" result="BackgroundImageFix"/>
<feColorMatrix in="SourceAlpha" type="matrix" values="0 0 0 0 0 0 0 0 0 0 0 0 0 0 0 0 0 0 127 0" result="hardAlpha"/>
<feOffset dy="0.777454"/>
<feGaussianBlur stdDeviation="0.58309"/>
<feComposite in2="hardAlpha" operator="out"/>
<feColorMatrix type="matrix" values="0 0 0 0 0.258824 0 0 0 0 0.278431 0 0 0 0 0.298039 0 0 0 0.08 0"/>
<feBlend mode="normal" in2="BackgroundImageFix" result="effect1_dropShadow_9220_40750"/>
<feColorMatrix in="SourceAlpha" type="matrix" values="0 0 0 0 0 0 0 0 0 0 0 0 0 0 0 0 0 0 127 0" result="hardAlpha"/>
<feOffset/>
<feGaussianBlur stdDeviation="0.0485909"/>
<feComposite in2="hardAlpha" operator="out"/>
<feColorMatrix type="matrix" values="0 0 0 0 0.258824 0 0 0 0 0.278431 0 0 0 0 0.298039 0 0 0 0.32 0"/>
<feBlend mode="normal" in2="effect1_dropShadow_9220_40750" result="effect2_dropShadow_9220_40750"/>
<feBlend mode="normal" in="SourceGraphic" in2="effect2_dropShadow_9220_40750" result="shape"/>
</filter>
</defs>
</svg>
