<svg width="24" height="24" viewBox="0 0 24 24" fill="none" xmlns="http://www.w3.org/2000/svg">
<g filter="url(#filter0_dd_9234_41248)">
<g clip-path="url(#clip0_9234_41248)">
<rect x="2" y="4.85718" width="20" height="14.2857" rx="1.55491" fill="#DA291C"/>
<path d="M11.4004 11.11C12.0364 11.533 12.0364 12.4671 11.4004 12.8901L2 19.1429V4.85718L11.4004 11.11Z" fill="#FFC72C"/>
<path d="M8.53849 11.3809C8.88099 11.7226 8.88099 12.2775 8.53849 12.6192L2 19.1429V4.85718L8.53849 11.3809Z" fill="#000008"/>
<path d="M4.00689 10.9178C3.97755 10.6369 4.3248 10.4826 4.51364 10.6926L5.94089 12.2798C6.12974 12.4898 5.93952 12.8188 5.6633 12.7599L3.57568 12.3147C3.29946 12.2558 3.25999 11.8778 3.51808 11.7631L5.46863 10.8962C5.72672 10.7815 5.9808 11.0641 5.83943 11.3086L4.77095 13.1564C4.62958 13.4009 4.25793 13.3217 4.2286 13.0408L4.00689 10.9178Z" fill="white"/>
</g>
</g>
<defs>
<filter id="filter0_dd_9234_41248" x="0.833819" y="4.46845" width="22.3324" height="16.618" filterUnits="userSpaceOnUse" color-interpolation-filters="sRGB">
<feFlood flood-opacity="0" result="BackgroundImageFix"/>
<feColorMatrix in="SourceAlpha" type="matrix" values="0 0 0 0 0 0 0 0 0 0 0 0 0 0 0 0 0 0 127 0" result="hardAlpha"/>
<feOffset dy="0.777454"/>
<feGaussianBlur stdDeviation="0.58309"/>
<feComposite in2="hardAlpha" operator="out"/>
<feColorMatrix type="matrix" values="0 0 0 0 0.258824 0 0 0 0 0.278431 0 0 0 0 0.298039 0 0 0 0.08 0"/>
<feBlend mode="normal" in2="BackgroundImageFix" result="effect1_dropShadow_9234_41248"/>
<feColorMatrix in="SourceAlpha" type="matrix" values="0 0 0 0 0 0 0 0 0 0 0 0 0 0 0 0 0 0 127 0" result="hardAlpha"/>
<feOffset/>
<feGaussianBlur stdDeviation="0.0485909"/>
<feComposite in2="hardAlpha" operator="out"/>
<feColorMatrix type="matrix" values="0 0 0 0 0.258824 0 0 0 0 0.278431 0 0 0 0 0.298039 0 0 0 0.32 0"/>
<feBlend mode="normal" in2="effect1_dropShadow_9234_41248" result="effect2_dropShadow_9234_41248"/>
<feBlend mode="normal" in="SourceGraphic" in2="effect2_dropShadow_9234_41248" result="shape"/>
</filter>
<clipPath id="clip0_9234_41248">
<rect x="2" y="4.85718" width="20" height="14.2857" rx="1.55491" fill="white"/>
</clipPath>
</defs>
</svg>
