<svg width="24" height="24" viewBox="0 0 24 24" fill="none" xmlns="http://www.w3.org/2000/svg">
<g filter="url(#filter0_dd_9234_41240)">
<g clip-path="url(#clip0_9234_41240)">
<path d="M20.0952 4.85718H3.90476C2.85279 4.85718 2 5.70997 2 6.76194V17.2381C2 18.2901 2.85279 19.1429 3.90476 19.1429H20.0952C21.1472 19.1429 22 18.2901 22 17.2381V6.76194C22 5.70997 21.1472 4.85718 20.0952 4.85718Z" fill="#1A47B8"/>
<path fill-rule="evenodd" clip-rule="evenodd" d="M2 15.3334H22V19.1429H2V15.3334Z" fill="#F93939"/>
<path fill-rule="evenodd" clip-rule="evenodd" d="M2 4.85718H22V12.4762H2V4.85718Z" fill="#FFDA2C"/>
<path d="M11.9999 14.381C12.7889 14.381 13.4285 13.5282 13.4285 12.4763C13.4285 11.4243 12.7889 10.5715 11.9999 10.5715C11.2109 10.5715 10.5714 11.4243 10.5714 12.4763C10.5714 13.5282 11.2109 14.381 11.9999 14.381Z" fill="#3ECBF8"/>
<path fill-rule="evenodd" clip-rule="evenodd" d="M9.61901 11.5239V13.4286L11.5238 14.381H12.4762L14.3809 13.4286V11.5239L15.3333 13.4286L14.3809 14.381L12.4762 15.3334H11.5238L9.61901 14.381L8.66663 13.4286L9.61901 11.5239Z" fill="#FFDA2C"/>
<path fill-rule="evenodd" clip-rule="evenodd" d="M7.71427 8.66672H10.5714L12 9.6191L13.4286 8.66672H16.2857L13.4286 9.6191L12.4762 10.5715H11.5238L10.5714 9.6191L7.71427 8.66672Z" fill="#151515"/>
</g>
</g>
<defs>
<filter id="filter0_dd_9234_41240" x="0.833819" y="4.46845" width="22.3324" height="16.618" filterUnits="userSpaceOnUse" color-interpolation-filters="sRGB">
<feFlood flood-opacity="0" result="BackgroundImageFix"/>
<feColorMatrix in="SourceAlpha" type="matrix" values="0 0 0 0 0 0 0 0 0 0 0 0 0 0 0 0 0 0 127 0" result="hardAlpha"/>
<feOffset dy="0.777454"/>
<feGaussianBlur stdDeviation="0.58309"/>
<feComposite in2="hardAlpha" operator="out"/>
<feColorMatrix type="matrix" values="0 0 0 0 0.258824 0 0 0 0 0.278431 0 0 0 0 0.298039 0 0 0 0.08 0"/>
<feBlend mode="normal" in2="BackgroundImageFix" result="effect1_dropShadow_9234_41240"/>
<feColorMatrix in="SourceAlpha" type="matrix" values="0 0 0 0 0 0 0 0 0 0 0 0 0 0 0 0 0 0 127 0" result="hardAlpha"/>
<feOffset/>
<feGaussianBlur stdDeviation="0.0485909"/>
<feComposite in2="hardAlpha" operator="out"/>
<feColorMatrix type="matrix" values="0 0 0 0 0.258824 0 0 0 0 0.278431 0 0 0 0 0.298039 0 0 0 0.32 0"/>
<feBlend mode="normal" in2="effect1_dropShadow_9234_41240" result="effect2_dropShadow_9234_41240"/>
<feBlend mode="normal" in="SourceGraphic" in2="effect2_dropShadow_9234_41240" result="shape"/>
</filter>
<clipPath id="clip0_9234_41240">
<rect x="2" y="4.85718" width="20" height="14.2857" rx="1.55491" fill="white"/>
</clipPath>
</defs>
</svg>
