<svg width="24" height="24" viewBox="0 0 24 24" fill="none" xmlns="http://www.w3.org/2000/svg">
<g filter="url(#filter0_dd_9234_41242)">
<g clip-path="url(#clip0_9234_41242)">
<rect x="2" y="4.85718" width="20" height="14.2857" rx="1.55491" fill="white"/>
<path fill-rule="evenodd" clip-rule="evenodd" d="M2 14.381H22V19.1429H2V14.381ZM2 4.85718H22V9.61908H2V4.85718Z" fill="#1A47B8"/>
<path d="M12 13.4286C12.789 13.4286 13.4286 12.789 13.4286 12.0001C13.4286 11.2111 12.789 10.5715 12 10.5715C11.211 10.5715 10.5714 11.2111 10.5714 12.0001C10.5714 12.789 11.211 13.4286 12 13.4286Z" fill="#1A47B8"/>
<path d="M12 12.4762C12.263 12.4762 12.4762 12.263 12.4762 12C12.4762 11.7371 12.263 11.5239 12 11.5239C11.737 11.5239 11.5238 11.7371 11.5238 12C11.5238 12.263 11.737 12.4762 12 12.4762Z" fill="#FFDA2C"/>
<path fill-rule="evenodd" clip-rule="evenodd" d="M9.61909 11.5239L10.5715 12.4762L12 13.4286L13.4286 12.4762L14.381 11.5239L13.4286 13.4286H10.5715L9.61909 11.5239Z" fill="#249F58"/>
</g>
</g>
<defs>
<filter id="filter0_dd_9234_41242" x="0.833819" y="4.46845" width="22.3324" height="16.618" filterUnits="userSpaceOnUse" color-interpolation-filters="sRGB">
<feFlood flood-opacity="0" result="BackgroundImageFix"/>
<feColorMatrix in="SourceAlpha" type="matrix" values="0 0 0 0 0 0 0 0 0 0 0 0 0 0 0 0 0 0 127 0" result="hardAlpha"/>
<feOffset dy="0.777454"/>
<feGaussianBlur stdDeviation="0.58309"/>
<feComposite in2="hardAlpha" operator="out"/>
<feColorMatrix type="matrix" values="0 0 0 0 0.258824 0 0 0 0 0.278431 0 0 0 0 0.298039 0 0 0 0.08 0"/>
<feBlend mode="normal" in2="BackgroundImageFix" result="effect1_dropShadow_9234_41242"/>
<feColorMatrix in="SourceAlpha" type="matrix" values="0 0 0 0 0 0 0 0 0 0 0 0 0 0 0 0 0 0 127 0" result="hardAlpha"/>
<feOffset/>
<feGaussianBlur stdDeviation="0.0485909"/>
<feComposite in2="hardAlpha" operator="out"/>
<feColorMatrix type="matrix" values="0 0 0 0 0.258824 0 0 0 0 0.278431 0 0 0 0 0.298039 0 0 0 0.32 0"/>
<feBlend mode="normal" in2="effect1_dropShadow_9234_41242" result="effect2_dropShadow_9234_41242"/>
<feBlend mode="normal" in="SourceGraphic" in2="effect2_dropShadow_9234_41242" result="shape"/>
</filter>
<clipPath id="clip0_9234_41242">
<rect x="2" y="4.85718" width="20" height="14.2857" rx="1.55491" fill="white"/>
</clipPath>
</defs>
</svg>
