<svg width="24" height="24" viewBox="0 0 24 24" fill="none" xmlns="http://www.w3.org/2000/svg">
<g filter="url(#filter0_dd_9234_41244)">
<g clip-path="url(#clip0_9234_41244)">
<rect x="2" y="4.85718" width="20" height="14.2857" rx="1.55491" fill="#3A99FF"/>
<path d="M20.0952 4.85718H3.90476C2.85279 4.85718 2 5.70997 2 6.76194V17.2381C2 18.2901 2.85279 19.1429 3.90476 19.1429H20.0952C21.1472 19.1429 22 18.2901 22 17.2381V6.76194C22 5.70997 21.1472 4.85718 20.0952 4.85718Z" fill="#3A99FF"/>
<path fill-rule="evenodd" clip-rule="evenodd" d="M2 4.85718H22V12.4762H2V4.85718Z" fill="#249F58"/>
<path fill-rule="evenodd" clip-rule="evenodd" d="M2 4.85718L22 12L2 19.1429V4.85718Z" fill="#F93939"/>
<path fill-rule="evenodd" clip-rule="evenodd" d="M10.5715 12C10.5715 10.6858 9.5048 9.61909 8.19051 9.1429C6.87623 9.61909 5.80956 10.6858 5.80956 12C5.80956 13.1524 6.62861 14.1124 7.71432 14.3334V11.0458C7.71432 10.7839 7.93528 10.5715 8.19051 10.5715C8.45337 10.5715 8.6667 10.7762 8.6667 11.0458V14.3334C9.75242 14.1124 10.5715 13.1524 10.5715 12ZM11.5238 12C11.5238 10.1591 10.0315 8.66671 8.19051 9.1429C6.34956 8.66671 4.85718 10.1591 4.85718 12C4.85718 13.841 6.34956 15.3334 8.19051 15.3334C10.0315 15.3334 11.5238 13.841 11.5238 12Z" fill="#FFDA2C"/>
</g>
</g>
<defs>
<filter id="filter0_dd_9234_41244" x="0.833819" y="4.46845" width="22.3324" height="16.618" filterUnits="userSpaceOnUse" color-interpolation-filters="sRGB">
<feFlood flood-opacity="0" result="BackgroundImageFix"/>
<feColorMatrix in="SourceAlpha" type="matrix" values="0 0 0 0 0 0 0 0 0 0 0 0 0 0 0 0 0 0 127 0" result="hardAlpha"/>
<feOffset dy="0.777454"/>
<feGaussianBlur stdDeviation="0.58309"/>
<feComposite in2="hardAlpha" operator="out"/>
<feColorMatrix type="matrix" values="0 0 0 0 0.258824 0 0 0 0 0.278431 0 0 0 0 0.298039 0 0 0 0.08 0"/>
<feBlend mode="normal" in2="BackgroundImageFix" result="effect1_dropShadow_9234_41244"/>
<feColorMatrix in="SourceAlpha" type="matrix" values="0 0 0 0 0 0 0 0 0 0 0 0 0 0 0 0 0 0 127 0" result="hardAlpha"/>
<feOffset/>
<feGaussianBlur stdDeviation="0.0485909"/>
<feComposite in2="hardAlpha" operator="out"/>
<feColorMatrix type="matrix" values="0 0 0 0 0.258824 0 0 0 0 0.278431 0 0 0 0 0.298039 0 0 0 0.32 0"/>
<feBlend mode="normal" in2="effect1_dropShadow_9234_41244" result="effect2_dropShadow_9234_41244"/>
<feBlend mode="normal" in="SourceGraphic" in2="effect2_dropShadow_9234_41244" result="shape"/>
</filter>
<clipPath id="clip0_9234_41244">
<rect x="2" y="4.85718" width="20" height="14.2857" rx="1.55491" fill="white"/>
</clipPath>
</defs>
</svg>
