<svg width="24" height="24" viewBox="0 0 24 24" fill="none" xmlns="http://www.w3.org/2000/svg">
<g filter="url(#filter0_dd_9234_41246)">
<g clip-path="url(#clip0_9234_41246)">
<rect x="2" y="4.85718" width="20" height="14.2857" rx="1.55491" fill="#FFDA2C"/>
<path fill-rule="evenodd" clip-rule="evenodd" d="M2 16.2857H22V19.1429H2V16.2857ZM2 4.85718H22V7.71432H2V4.85718Z" fill="#4769C1"/>
<path fill-rule="evenodd" clip-rule="evenodd" d="M2 8.66672H22V15.3334H2V8.66672Z" fill="#BC0A33"/>
<path fill-rule="evenodd" clip-rule="evenodd" d="M5.80954 12.4763H18.1905V13.4286H5.80954V12.4763ZM7.7143 10.5715H17.2381V11.5239H7.7143V10.5715Z" fill="#FFDA2C"/>
<path fill-rule="evenodd" clip-rule="evenodd" d="M17.2381 10.5715H19.1429V11.5239H17.2381V10.5715Z" fill="#CBCBCB"/>
<path fill-rule="evenodd" clip-rule="evenodd" d="M11.9999 14.381C14.3666 14.381 16.2856 12 16.2856 12C16.2856 12 14.3666 9.61908 11.9999 9.61908C9.63322 9.61908 7.71417 12 7.71417 12C7.71417 12 9.63322 14.381 11.9999 14.381Z" fill="white"/>
<path fill-rule="evenodd" clip-rule="evenodd" d="M14.3809 11.5239H15.3333V12.4762H14.3809V11.5239Z" fill="#151515"/>
<path fill-rule="evenodd" clip-rule="evenodd" d="M11.9999 14.381C12.4761 14.381 13.4285 12 13.4285 12C13.4285 12 12.4761 9.61908 11.9999 9.61908C9.63322 9.61908 7.71417 12 7.71417 12C7.71417 12 9.63322 14.381 11.9999 14.381Z" fill="#151515"/>
<path fill-rule="evenodd" clip-rule="evenodd" d="M9.61899 11.5239H10.5714V12.4762H9.61899V11.5239ZM11.5238 11.5239H12.4761V12.4762H11.5238V11.5239Z" fill="#CBCBCB"/>
</g>
</g>
<defs>
<filter id="filter0_dd_9234_41246" x="0.833819" y="4.46845" width="22.3324" height="16.618" filterUnits="userSpaceOnUse" color-interpolation-filters="sRGB">
<feFlood flood-opacity="0" result="BackgroundImageFix"/>
<feColorMatrix in="SourceAlpha" type="matrix" values="0 0 0 0 0 0 0 0 0 0 0 0 0 0 0 0 0 0 127 0" result="hardAlpha"/>
<feOffset dy="0.777454"/>
<feGaussianBlur stdDeviation="0.58309"/>
<feComposite in2="hardAlpha" operator="out"/>
<feColorMatrix type="matrix" values="0 0 0 0 0.258824 0 0 0 0 0.278431 0 0 0 0 0.298039 0 0 0 0.08 0"/>
<feBlend mode="normal" in2="BackgroundImageFix" result="effect1_dropShadow_9234_41246"/>
<feColorMatrix in="SourceAlpha" type="matrix" values="0 0 0 0 0 0 0 0 0 0 0 0 0 0 0 0 0 0 127 0" result="hardAlpha"/>
<feOffset/>
<feGaussianBlur stdDeviation="0.0485909"/>
<feComposite in2="hardAlpha" operator="out"/>
<feColorMatrix type="matrix" values="0 0 0 0 0.258824 0 0 0 0 0.278431 0 0 0 0 0.298039 0 0 0 0.32 0"/>
<feBlend mode="normal" in2="effect1_dropShadow_9234_41246" result="effect2_dropShadow_9234_41246"/>
<feBlend mode="normal" in="SourceGraphic" in2="effect2_dropShadow_9234_41246" result="shape"/>
</filter>
<clipPath id="clip0_9234_41246">
<rect x="2" y="4.85718" width="20" height="14.2857" rx="1.55491" fill="white"/>
</clipPath>
</defs>
</svg>
