<svg width="24" height="24" viewBox="0 0 24 24" fill="none" xmlns="http://www.w3.org/2000/svg">
<g filter="url(#filter0_dd_9235_41262)">
<rect x="2" y="4.85718" width="20" height="14.2857" rx="1.55491" fill="#3ECBF8"/>
<path fill-rule="evenodd" clip-rule="evenodd" d="M19.143 14.381V11.0477C19.143 10.2524 18.503 9.61911 17.7144 9.61911H15.8097C15.023 9.61911 14.3811 10.2572 14.3811 11.0477V14.381C14.3811 14.5544 15.3335 16.2858 16.762 16.2858C18.1906 16.2858 19.143 14.5496 19.143 14.381Z" fill="white"/>
<path fill-rule="evenodd" clip-rule="evenodd" d="M17.2382 12.4763V13.541H19.143V14.4572H17.2382V16.2858H16.2858V14.4572H14.3811V13.541H16.2858V12.4763H14.3811V9.61911H19.143V12.4763H17.2382Z" fill="#F93939"/>
<path fill-rule="evenodd" clip-rule="evenodd" d="M15.3334 10.5715H18.1906V11.5239H15.3334V10.5715Z" fill="#FFDA2C"/>
<path d="M10.5715 5.80957H3.90483C3.37885 5.80957 2.95245 6.23597 2.95245 6.76195V11.5239C2.95245 12.0498 3.37885 12.4762 3.90483 12.4762H10.5715C11.0975 12.4762 11.5239 12.0498 11.5239 11.5239V6.76195C11.5239 6.23597 11.0975 5.80957 10.5715 5.80957Z" fill="white"/>
<path fill-rule="evenodd" clip-rule="evenodd" d="M6.76205 9.61912H3.90491V8.66674H6.76205V6.76198H7.71443V8.66674H10.5716V9.61912H7.71443V11.5239H6.76205V9.61912ZM9.14301 10.5715V11.5239H10.5716V10.5715H9.14301ZM9.14301 6.76198V7.71436H10.5716V6.76198H9.14301ZM3.90491 10.5715V11.5239H5.33348V10.5715H3.90491ZM3.90491 6.76198V7.71436H5.33348V6.76198H3.90491Z" fill="#F93939"/>
</g>
<defs>
<filter id="filter0_dd_9235_41262" x="0.833819" y="4.46845" width="22.3324" height="16.618" filterUnits="userSpaceOnUse" color-interpolation-filters="sRGB">
<feFlood flood-opacity="0" result="BackgroundImageFix"/>
<feColorMatrix in="SourceAlpha" type="matrix" values="0 0 0 0 0 0 0 0 0 0 0 0 0 0 0 0 0 0 127 0" result="hardAlpha"/>
<feOffset dy="0.777454"/>
<feGaussianBlur stdDeviation="0.58309"/>
<feComposite in2="hardAlpha" operator="out"/>
<feColorMatrix type="matrix" values="0 0 0 0 0.258824 0 0 0 0 0.278431 0 0 0 0 0.298039 0 0 0 0.08 0"/>
<feBlend mode="normal" in2="BackgroundImageFix" result="effect1_dropShadow_9235_41262"/>
<feColorMatrix in="SourceAlpha" type="matrix" values="0 0 0 0 0 0 0 0 0 0 0 0 0 0 0 0 0 0 127 0" result="hardAlpha"/>
<feOffset/>
<feGaussianBlur stdDeviation="0.0485909"/>
<feComposite in2="hardAlpha" operator="out"/>
<feColorMatrix type="matrix" values="0 0 0 0 0.258824 0 0 0 0 0.278431 0 0 0 0 0.298039 0 0 0 0.32 0"/>
<feBlend mode="normal" in2="effect1_dropShadow_9235_41262" result="effect2_dropShadow_9235_41262"/>
<feBlend mode="normal" in="SourceGraphic" in2="effect2_dropShadow_9235_41262" result="shape"/>
</filter>
</defs>
</svg>
