<svg width="24" height="24" viewBox="0 0 24 24" fill="none" xmlns="http://www.w3.org/2000/svg">
<g filter="url(#filter0_dd_9237_41311)">
<g clip-path="url(#clip0_9237_41311)">
<rect x="2" y="4.85718" width="20" height="14.2857" rx="1.55491" fill="white"/>
<path fill-rule="evenodd" clip-rule="evenodd" d="M10.5714 13.4286H2V10.5715H10.5714V4.85718H13.4286V10.5715H22V13.4286H13.4286V19.1429H10.5714V13.4286Z" fill="#F93939"/>
<path fill-rule="evenodd" clip-rule="evenodd" d="M16.2857 15.3334H15.3334V16.2858H16.2857V17.2381H17.2381V16.2858H18.1905V15.3334H17.2381V14.381H16.2857V15.3334ZM16.2857 7.71433H15.3334V8.66671H16.2857V9.61909H17.2381V8.66671H18.1905V7.71433H17.2381V6.76195H16.2857V7.71433ZM6.76192 7.71433H5.80954V8.66671H6.76192V9.61909H7.7143V8.66671H8.66669V7.71433H7.7143V6.76195H6.76192V7.71433ZM6.76192 15.3334H5.80954V16.2858H6.76192V17.2381H7.7143V16.2858H8.66669V15.3334H7.7143V14.381H6.76192V15.3334Z" fill="#F93939"/>
</g>
</g>
<defs>
<filter id="filter0_dd_9237_41311" x="0.833819" y="4.46845" width="22.3324" height="16.618" filterUnits="userSpaceOnUse" color-interpolation-filters="sRGB">
<feFlood flood-opacity="0" result="BackgroundImageFix"/>
<feColorMatrix in="SourceAlpha" type="matrix" values="0 0 0 0 0 0 0 0 0 0 0 0 0 0 0 0 0 0 127 0" result="hardAlpha"/>
<feOffset dy="0.777454"/>
<feGaussianBlur stdDeviation="0.58309"/>
<feComposite in2="hardAlpha" operator="out"/>
<feColorMatrix type="matrix" values="0 0 0 0 0.258824 0 0 0 0 0.278431 0 0 0 0 0.298039 0 0 0 0.08 0"/>
<feBlend mode="normal" in2="BackgroundImageFix" result="effect1_dropShadow_9237_41311"/>
<feColorMatrix in="SourceAlpha" type="matrix" values="0 0 0 0 0 0 0 0 0 0 0 0 0 0 0 0 0 0 127 0" result="hardAlpha"/>
<feOffset/>
<feGaussianBlur stdDeviation="0.0485909"/>
<feComposite in2="hardAlpha" operator="out"/>
<feColorMatrix type="matrix" values="0 0 0 0 0.258824 0 0 0 0 0.278431 0 0 0 0 0.298039 0 0 0 0.32 0"/>
<feBlend mode="normal" in2="effect1_dropShadow_9237_41311" result="effect2_dropShadow_9237_41311"/>
<feBlend mode="normal" in="SourceGraphic" in2="effect2_dropShadow_9237_41311" result="shape"/>
</filter>
<clipPath id="clip0_9237_41311">
<rect x="2" y="4.85718" width="20" height="14.2857" rx="1.55491" fill="white"/>
</clipPath>
</defs>
</svg>
