<svg width="24" height="24" viewBox="0 0 24 24" fill="none" xmlns="http://www.w3.org/2000/svg">
<g filter="url(#filter0_dd_9237_41314)">
<g clip-path="url(#clip0_9237_41314)">
<rect x="2" y="4.85718" width="20" height="14.2857" rx="1.55491" fill="white"/>
<path fill-rule="evenodd" clip-rule="evenodd" d="M2 4.85718H5.80952V8.6667H2V4.85718ZM7.71429 4.85718H11.5238V8.6667H7.71429V4.85718ZM2 10.5715H5.80952V14.381H2V10.5715ZM7.71429 10.5715H11.5238V14.381H7.71429V10.5715ZM11.5238 4.85718H22V6.76194H11.5238V4.85718ZM11.5238 8.6667H22V10.5715H11.5238V8.6667Z" fill="#1A47B8"/>
<path fill-rule="evenodd" clip-rule="evenodd" d="M2 12.4762H22V14.381L2 14.381V12.4762ZM5.80952 12.4762H7.71429V14.381H5.80952V12.4762ZM2 16.2857H22V18.1905H2V16.2857Z" fill="#1A47B8"/>
</g>
</g>
<defs>
<filter id="filter0_dd_9237_41314" x="0.833819" y="4.46845" width="22.3324" height="16.618" filterUnits="userSpaceOnUse" color-interpolation-filters="sRGB">
<feFlood flood-opacity="0" result="BackgroundImageFix"/>
<feColorMatrix in="SourceAlpha" type="matrix" values="0 0 0 0 0 0 0 0 0 0 0 0 0 0 0 0 0 0 127 0" result="hardAlpha"/>
<feOffset dy="0.777454"/>
<feGaussianBlur stdDeviation="0.58309"/>
<feComposite in2="hardAlpha" operator="out"/>
<feColorMatrix type="matrix" values="0 0 0 0 0.258824 0 0 0 0 0.278431 0 0 0 0 0.298039 0 0 0 0.08 0"/>
<feBlend mode="normal" in2="BackgroundImageFix" result="effect1_dropShadow_9237_41314"/>
<feColorMatrix in="SourceAlpha" type="matrix" values="0 0 0 0 0 0 0 0 0 0 0 0 0 0 0 0 0 0 127 0" result="hardAlpha"/>
<feOffset/>
<feGaussianBlur stdDeviation="0.0485909"/>
<feComposite in2="hardAlpha" operator="out"/>
<feColorMatrix type="matrix" values="0 0 0 0 0.258824 0 0 0 0 0.278431 0 0 0 0 0.298039 0 0 0 0.32 0"/>
<feBlend mode="normal" in2="effect1_dropShadow_9237_41314" result="effect2_dropShadow_9237_41314"/>
<feBlend mode="normal" in="SourceGraphic" in2="effect2_dropShadow_9237_41314" result="shape"/>
</filter>
<clipPath id="clip0_9237_41314">
<rect x="2" y="4.85718" width="20" height="14.2857" rx="1.55491" fill="white"/>
</clipPath>
</defs>
</svg>
