<svg width="24" height="24" viewBox="0 0 24 24" fill="none" xmlns="http://www.w3.org/2000/svg">
<g filter="url(#filter0_dd_9237_41315)">
<rect x="2" y="4.85718" width="20" height="14.2857" rx="1.55491" fill="#F93939"/>
<path fill-rule="evenodd" clip-rule="evenodd" d="M4.85709 7.71459H19.1428V16.286H4.85709V7.71459Z" fill="#FFDA2C"/>
<path fill-rule="evenodd" clip-rule="evenodd" d="M4.85709 7.71459L11.9999 12.0003L4.85709 16.286V7.71459Z" fill="#249F58"/>
<path fill-rule="evenodd" clip-rule="evenodd" d="M5.80954 11.5241H6.76192V12.4765H5.80954V11.5241Z" fill="#FFDA2C"/>
<path fill-rule="evenodd" clip-rule="evenodd" d="M19.1428 7.71459L11.9999 12.0003L19.1428 16.286V7.71459Z" fill="#249F58"/>
<path fill-rule="evenodd" clip-rule="evenodd" d="M8.66663 5.80981H9.61901V6.7622H8.66663V5.80981ZM11.5238 5.80981H12.4762V6.7622H11.5238V5.80981ZM14.3809 5.80981H15.3333V6.7622H14.3809V5.80981ZM8.66663 17.2384H9.61901V18.1908H8.66663V17.2384ZM11.5238 17.2384H12.4762V18.1908H11.5238V17.2384ZM14.3809 17.2384H15.3333V18.1908H14.3809V17.2384Z" fill="#FFDA2C"/>
<path d="M11.9999 14.3813C13.3149 14.3813 14.3809 13.3153 14.3809 12.0003C14.3809 10.6853 13.3149 9.61936 11.9999 9.61936C10.685 9.61936 9.61899 10.6853 9.61899 12.0003C9.61899 13.3153 10.685 14.3813 11.9999 14.3813Z" fill="#F93939"/>
<path fill-rule="evenodd" clip-rule="evenodd" d="M12 13.1908L10.6 13.927L10.8667 12.3679L9.73525 11.2632L11.3 11.0375L11.9999 9.61936L12.7 11.0384L14.2648 11.2641L13.1314 12.3689L13.3981 13.927" fill="#FFDA2C"/>
</g>
<defs>
<filter id="filter0_dd_9237_41315" x="0.833819" y="4.46845" width="22.3324" height="16.618" filterUnits="userSpaceOnUse" color-interpolation-filters="sRGB">
<feFlood flood-opacity="0" result="BackgroundImageFix"/>
<feColorMatrix in="SourceAlpha" type="matrix" values="0 0 0 0 0 0 0 0 0 0 0 0 0 0 0 0 0 0 127 0" result="hardAlpha"/>
<feOffset dy="0.777454"/>
<feGaussianBlur stdDeviation="0.58309"/>
<feComposite in2="hardAlpha" operator="out"/>
<feColorMatrix type="matrix" values="0 0 0 0 0.258824 0 0 0 0 0.278431 0 0 0 0 0.298039 0 0 0 0.08 0"/>
<feBlend mode="normal" in2="BackgroundImageFix" result="effect1_dropShadow_9237_41315"/>
<feColorMatrix in="SourceAlpha" type="matrix" values="0 0 0 0 0 0 0 0 0 0 0 0 0 0 0 0 0 0 127 0" result="hardAlpha"/>
<feOffset/>
<feGaussianBlur stdDeviation="0.0485909"/>
<feComposite in2="hardAlpha" operator="out"/>
<feColorMatrix type="matrix" values="0 0 0 0 0.258824 0 0 0 0 0.278431 0 0 0 0 0.298039 0 0 0 0.32 0"/>
<feBlend mode="normal" in2="effect1_dropShadow_9237_41315" result="effect2_dropShadow_9237_41315"/>
<feBlend mode="normal" in="SourceGraphic" in2="effect2_dropShadow_9237_41315" result="shape"/>
</filter>
</defs>
</svg>
