<svg width="24" height="24" viewBox="0 0 24 24" fill="none" xmlns="http://www.w3.org/2000/svg">
<g filter="url(#filter0_dd_9237_41316)">
<g clip-path="url(#clip0_9237_41316)">
<rect x="2" y="4.85718" width="20" height="14.2857" rx="1.55491" fill="white"/>
<path d="M12.0002 12.4762C12.2632 12.4762 12.4764 12.0498 12.4764 11.5238C12.4764 10.9978 12.2632 10.5714 12.0002 10.5714C11.7372 10.5714 11.524 10.9978 11.524 11.5238C11.524 12.0498 11.7372 12.4762 12.0002 12.4762Z" fill="#FFDA2C"/>
<path fill-rule="evenodd" clip-rule="evenodd" d="M14.3812 12C14.3812 10.6857 13.3145 9.61908 12.0002 9.61908C10.686 9.61908 9.6193 10.6857 9.6193 12C9.6193 13.3143 10.686 14.381 12.0002 14.381C13.3145 14.381 14.3812 13.3143 14.3812 12ZM12.0002 13.4286C12.7888 13.4286 13.4288 12.5762 13.4288 11.5238C13.4288 10.4715 12.7888 9.61908 12.0002 9.61908C11.2117 9.61908 10.5717 10.4715 10.5717 11.5238C10.5717 12.5762 11.2117 13.4286 12.0002 13.4286Z" fill="#249F58"/>
<path d="M16.2859 4.85718H22.0002V19.1429H16.2859V4.85718Z" fill="#3ECBF8"/>
<path d="M2.00031 4.85718H7.71459V19.1429H2.00031V4.85718Z" fill="#3ECBF8"/>
</g>
</g>
<defs>
<filter id="filter0_dd_9237_41316" x="0.833819" y="4.46845" width="22.3324" height="16.618" filterUnits="userSpaceOnUse" color-interpolation-filters="sRGB">
<feFlood flood-opacity="0" result="BackgroundImageFix"/>
<feColorMatrix in="SourceAlpha" type="matrix" values="0 0 0 0 0 0 0 0 0 0 0 0 0 0 0 0 0 0 127 0" result="hardAlpha"/>
<feOffset dy="0.777454"/>
<feGaussianBlur stdDeviation="0.58309"/>
<feComposite in2="hardAlpha" operator="out"/>
<feColorMatrix type="matrix" values="0 0 0 0 0.258824 0 0 0 0 0.278431 0 0 0 0 0.298039 0 0 0 0.08 0"/>
<feBlend mode="normal" in2="BackgroundImageFix" result="effect1_dropShadow_9237_41316"/>
<feColorMatrix in="SourceAlpha" type="matrix" values="0 0 0 0 0 0 0 0 0 0 0 0 0 0 0 0 0 0 127 0" result="hardAlpha"/>
<feOffset/>
<feGaussianBlur stdDeviation="0.0485909"/>
<feComposite in2="hardAlpha" operator="out"/>
<feColorMatrix type="matrix" values="0 0 0 0 0.258824 0 0 0 0 0.278431 0 0 0 0 0.298039 0 0 0 0.32 0"/>
<feBlend mode="normal" in2="effect1_dropShadow_9237_41316" result="effect2_dropShadow_9237_41316"/>
<feBlend mode="normal" in="SourceGraphic" in2="effect2_dropShadow_9237_41316" result="shape"/>
</filter>
<clipPath id="clip0_9237_41316">
<rect x="2" y="4.85718" width="20" height="14.2857" rx="1.55491" fill="white"/>
</clipPath>
</defs>
</svg>
