<svg width="24" height="24" viewBox="0 0 24 24" fill="none" xmlns="http://www.w3.org/2000/svg">
<g filter="url(#filter0_dd_9237_41362)">
<g clip-path="url(#clip0_9237_41362)">
<rect x="2" y="4.85718" width="20" height="14.2857" rx="1.55491" fill="#F93939"/>
<path fill-rule="evenodd" clip-rule="evenodd" d="M2 4.85718H22V12.4762H2V4.85718Z" fill="#1A47B8"/>
<path fill-rule="evenodd" clip-rule="evenodd" d="M7.71427 9.61908H15.6508V14.381H7.71427V9.61908Z" fill="white"/>
<path fill-rule="evenodd" clip-rule="evenodd" d="M10.8886 11.2063H12.4759V14.3809H10.8886V11.2063Z" fill="#FFDA2C"/>
<path fill-rule="evenodd" clip-rule="evenodd" d="M9.30191 12C9.30191 10.6858 10.3591 9.61909 11.6829 9.61909C12.9971 9.61909 14.0638 10.6762 14.0638 12V14.381H9.30191V12ZM10.8892 12.008C10.8892 11.5635 11.2575 11.2064 11.6829 11.2064C12.121 11.2064 12.4765 11.5461 12.4765 12.008V14.381H10.8892V12.008Z" fill="#249F58"/>
</g>
</g>
<defs>
<filter id="filter0_dd_9237_41362" x="0.833819" y="4.46845" width="22.3324" height="16.618" filterUnits="userSpaceOnUse" color-interpolation-filters="sRGB">
<feFlood flood-opacity="0" result="BackgroundImageFix"/>
<feColorMatrix in="SourceAlpha" type="matrix" values="0 0 0 0 0 0 0 0 0 0 0 0 0 0 0 0 0 0 127 0" result="hardAlpha"/>
<feOffset dy="0.777454"/>
<feGaussianBlur stdDeviation="0.58309"/>
<feComposite in2="hardAlpha" operator="out"/>
<feColorMatrix type="matrix" values="0 0 0 0 0.258824 0 0 0 0 0.278431 0 0 0 0 0.298039 0 0 0 0.08 0"/>
<feBlend mode="normal" in2="BackgroundImageFix" result="effect1_dropShadow_9237_41362"/>
<feColorMatrix in="SourceAlpha" type="matrix" values="0 0 0 0 0 0 0 0 0 0 0 0 0 0 0 0 0 0 127 0" result="hardAlpha"/>
<feOffset/>
<feGaussianBlur stdDeviation="0.0485909"/>
<feComposite in2="hardAlpha" operator="out"/>
<feColorMatrix type="matrix" values="0 0 0 0 0.258824 0 0 0 0 0.278431 0 0 0 0 0.298039 0 0 0 0.32 0"/>
<feBlend mode="normal" in2="effect1_dropShadow_9237_41362" result="effect2_dropShadow_9237_41362"/>
<feBlend mode="normal" in="SourceGraphic" in2="effect2_dropShadow_9237_41362" result="shape"/>
</filter>
<clipPath id="clip0_9237_41362">
<rect x="2" y="4.85718" width="20" height="14.2857" rx="1.55491" fill="white"/>
</clipPath>
</defs>
</svg>
