<svg width="24" height="24" viewBox="0 0 24 24" fill="none" xmlns="http://www.w3.org/2000/svg">
<g filter="url(#filter0_dd_9239_41386)">
<g clip-path="url(#clip0_9239_41386)">
<rect x="2" y="4.85718" width="20" height="14.2857" rx="1.55491" fill="white"/>
<path fill-rule="evenodd" clip-rule="evenodd" d="M2 14.381H22V19.1429H2V14.381Z" fill="#F93939"/>
<path fill-rule="evenodd" clip-rule="evenodd" d="M12 13.4286C13.3143 13.4286 14.381 12.7886 14.381 12C14.381 11.2114 13.3143 10.5714 12 10.5714C10.6858 10.5714 9.61909 11.2114 9.61909 12C9.61909 12.7886 10.6858 13.4286 12 13.4286ZM12 12.7143C12.7886 12.7143 13.4286 12.2343 13.4286 11.6429C13.4286 11.0524 12.7886 10.5714 12 10.5714C11.2115 10.5714 10.5715 11.0514 10.5715 11.6429C10.5715 12.2333 11.2115 12.7143 12 12.7143Z" fill="#F93939"/>
<path d="M12 12.4762C12.263 12.4762 12.4762 12.0498 12.4762 11.5238C12.4762 10.9978 12.263 10.5714 12 10.5714C11.737 10.5714 11.5238 10.9978 11.5238 11.5238C11.5238 12.0498 11.737 12.4762 12 12.4762Z" fill="#AF010D"/>
<path fill-rule="evenodd" clip-rule="evenodd" d="M2 4.85718H22V9.61908H2V4.85718Z" fill="#00B731"/>
</g>
</g>
<defs>
<filter id="filter0_dd_9239_41386" x="0.833819" y="4.46845" width="22.3324" height="16.618" filterUnits="userSpaceOnUse" color-interpolation-filters="sRGB">
<feFlood flood-opacity="0" result="BackgroundImageFix"/>
<feColorMatrix in="SourceAlpha" type="matrix" values="0 0 0 0 0 0 0 0 0 0 0 0 0 0 0 0 0 0 127 0" result="hardAlpha"/>
<feOffset dy="0.777454"/>
<feGaussianBlur stdDeviation="0.58309"/>
<feComposite in2="hardAlpha" operator="out"/>
<feColorMatrix type="matrix" values="0 0 0 0 0.258824 0 0 0 0 0.278431 0 0 0 0 0.298039 0 0 0 0.08 0"/>
<feBlend mode="normal" in2="BackgroundImageFix" result="effect1_dropShadow_9239_41386"/>
<feColorMatrix in="SourceAlpha" type="matrix" values="0 0 0 0 0 0 0 0 0 0 0 0 0 0 0 0 0 0 127 0" result="hardAlpha"/>
<feOffset/>
<feGaussianBlur stdDeviation="0.0485909"/>
<feComposite in2="hardAlpha" operator="out"/>
<feColorMatrix type="matrix" values="0 0 0 0 0.258824 0 0 0 0 0.278431 0 0 0 0 0.298039 0 0 0 0.32 0"/>
<feBlend mode="normal" in2="effect1_dropShadow_9239_41386" result="effect2_dropShadow_9239_41386"/>
<feBlend mode="normal" in="SourceGraphic" in2="effect2_dropShadow_9239_41386" result="shape"/>
</filter>
<clipPath id="clip0_9239_41386">
<rect x="2" y="4.85718" width="20" height="14.2857" rx="1.55491" fill="white"/>
</clipPath>
</defs>
</svg>
