<svg width="24" height="24" viewBox="0 0 24 24" fill="none" xmlns="http://www.w3.org/2000/svg">
<g filter="url(#filter0_dd_9241_41442)">
<rect x="2" y="4.85718" width="20" height="14.2857" rx="1.55491" fill="#03BCDB"/>
<path d="M12.9525 13.4286C14.2675 13.4286 15.3334 12.3626 15.3334 11.0476C15.3334 9.73268 14.2675 8.66669 12.9525 8.66669C11.6375 8.66669 10.5715 9.73268 10.5715 11.0476C10.5715 12.3626 11.6375 13.4286 12.9525 13.4286Z" fill="#FFDA2C"/>
<path fill-rule="evenodd" clip-rule="evenodd" d="M9.61917 11.5239L10.5716 13.4286L12.9525 14.381L15.3335 13.4286L16.2858 11.5239V14.381L12.9525 15.3334L9.61917 14.381V11.5239Z" fill="#FFDA2C"/>
<path fill-rule="evenodd" clip-rule="evenodd" d="M3.90491 7.23339C3.90491 6.97339 4.12586 6.76196 4.3811 6.76196C4.64395 6.76196 4.85729 6.96768 4.85729 7.23339V9.14768C4.85729 9.40768 4.63634 9.61911 4.3811 9.61911C4.11824 9.61911 3.90491 9.41339 3.90491 9.14768V7.23339ZM4.85729 9.13815C4.85729 8.87815 5.07824 8.66672 5.33348 8.66672C5.59634 8.66672 5.80967 8.87244 5.80967 9.13815V11.0524C5.80967 11.3124 5.58872 11.5239 5.33348 11.5239C5.07062 11.5239 4.85729 11.3182 4.85729 11.0524V9.13815ZM4.85729 12.9477C4.85729 12.6877 5.07824 12.4762 5.33348 12.4762C5.59634 12.4762 5.80967 12.682 5.80967 12.9477V14.862C5.80967 15.122 5.58872 15.3334 5.33348 15.3334C5.07062 15.3334 4.85729 15.1277 4.85729 14.862V12.9477ZM3.90491 14.8524C3.90491 14.5924 4.12586 14.381 4.3811 14.381C4.64395 14.381 4.85729 14.5867 4.85729 14.8524V16.7667C4.85729 17.0267 4.63634 17.2382 4.3811 17.2382C4.11824 17.2382 3.90491 17.0324 3.90491 16.7667V14.8524ZM3.90491 11.0477C3.90491 10.7848 4.12586 10.5715 4.3811 10.5715C4.64395 10.5715 4.85729 10.7924 4.85729 11.0477C4.85729 11.3105 4.63634 11.5239 4.3811 11.5239C4.11824 11.5239 3.90491 11.3029 3.90491 11.0477ZM4.85729 7.23815C4.85729 6.9753 5.07824 6.76196 5.33348 6.76196C5.59634 6.76196 5.80967 6.98292 5.80967 7.23815C5.80967 7.50101 5.58872 7.71434 5.33348 7.71434C5.07062 7.71434 4.85729 7.49339 4.85729 7.23815ZM3.90491 12.0001C3.90491 11.7372 4.12586 11.5239 4.3811 11.5239C4.64395 11.5239 4.85729 11.7448 4.85729 12.0001C4.85729 12.2629 4.63634 12.4762 4.3811 12.4762C4.11824 12.4762 3.90491 12.2553 3.90491 12.0001ZM4.85729 16.762C4.85729 16.4991 5.07824 16.2858 5.33348 16.2858C5.59634 16.2858 5.80967 16.5067 5.80967 16.762C5.80967 17.0248 5.58872 17.2382 5.33348 17.2382C5.07062 17.2382 4.85729 17.0172 4.85729 16.762ZM3.90491 12.9524C3.90491 12.6896 4.12586 12.4762 4.3811 12.4762C4.64395 12.4762 4.85729 12.6972 4.85729 12.9524C4.85729 13.2153 4.63634 13.4286 4.3811 13.4286C4.11824 13.4286 3.90491 13.2077 3.90491 12.9524Z" fill="#FFDA2C"/>
</g>
<defs>
<filter id="filter0_dd_9241_41442" x="0.833819" y="4.46845" width="22.3324" height="16.618" filterUnits="userSpaceOnUse" color-interpolation-filters="sRGB">
<feFlood flood-opacity="0" result="BackgroundImageFix"/>
<feColorMatrix in="SourceAlpha" type="matrix" values="0 0 0 0 0 0 0 0 0 0 0 0 0 0 0 0 0 0 127 0" result="hardAlpha"/>
<feOffset dy="0.777454"/>
<feGaussianBlur stdDeviation="0.58309"/>
<feComposite in2="hardAlpha" operator="out"/>
<feColorMatrix type="matrix" values="0 0 0 0 0.258824 0 0 0 0 0.278431 0 0 0 0 0.298039 0 0 0 0.08 0"/>
<feBlend mode="normal" in2="BackgroundImageFix" result="effect1_dropShadow_9241_41442"/>
<feColorMatrix in="SourceAlpha" type="matrix" values="0 0 0 0 0 0 0 0 0 0 0 0 0 0 0 0 0 0 127 0" result="hardAlpha"/>
<feOffset/>
<feGaussianBlur stdDeviation="0.0485909"/>
<feComposite in2="hardAlpha" operator="out"/>
<feColorMatrix type="matrix" values="0 0 0 0 0.258824 0 0 0 0 0.278431 0 0 0 0 0.298039 0 0 0 0.32 0"/>
<feBlend mode="normal" in2="effect1_dropShadow_9241_41442" result="effect2_dropShadow_9241_41442"/>
<feBlend mode="normal" in="SourceGraphic" in2="effect2_dropShadow_9241_41442" result="shape"/>
</filter>
</defs>
</svg>
