<svg width="24" height="24" viewBox="0 0 24 24" fill="none" xmlns="http://www.w3.org/2000/svg">
<g filter="url(#filter0_dd_9241_41443)">
<g clip-path="url(#clip0_9241_41443)">
<rect x="2" y="4.85718" width="20" height="14.2857" rx="1.55491" fill="#151515"/>
<path fill-rule="evenodd" clip-rule="evenodd" d="M2 15.3332H22V19.1427H2V15.3332Z" fill="#0A6A30"/>
<path fill-rule="evenodd" clip-rule="evenodd" d="M2 14.3808H22V15.3332H2V14.3808Z" fill="white"/>
<path fill-rule="evenodd" clip-rule="evenodd" d="M2 9.61891H22V14.3808H2V9.61891Z" fill="#F93939"/>
<path fill-rule="evenodd" clip-rule="evenodd" d="M2 8.6665H22V9.61891H2V8.6665Z" fill="white"/>
<path fill-rule="evenodd" clip-rule="evenodd" d="M13.823 10.4895C13.8916 10.4895 14.2992 9.85137 14.2992 9.0609C14.2992 8.27232 13.8916 7.63232 13.823 7.63232C13.7563 7.63232 13.3468 8.27232 13.3468 9.0609C13.3468 9.85137 13.7563 10.4895 13.823 10.4895ZM11.024 10.0714C10.9763 10.119 10.2335 9.95709 9.67729 9.39804C9.12014 8.83994 8.95633 8.09899 9.0049 8.05137C9.05252 8.00375 9.79348 8.16566 10.3516 8.7247C10.9097 9.2828 11.0725 10.0238 11.0249 10.0723L11.024 10.0714ZM12.8135 14.3885C12.8611 14.3438 13.604 14.4961 14.1611 15.0171C14.7182 15.5409 14.882 16.2333 14.8344 16.278C14.7868 16.3228 14.044 16.1704 13.4859 15.6495C12.9287 15.1257 12.7649 14.4333 12.8135 14.3885ZM11.024 14.3885C10.9763 14.3438 10.2335 14.4961 9.67729 15.0171C9.12014 15.5409 8.95633 16.2333 9.0049 16.278C9.05252 16.3228 9.79348 16.1704 10.3516 15.6495C10.9097 15.1257 11.0725 14.4333 11.0249 14.3885H11.024Z" fill="white"/>
<path fill-rule="evenodd" clip-rule="evenodd" d="M12.0001 16.2857C12.3401 16.2857 14.381 14.3667 14.381 12C14.381 9.63332 12.3401 7.71427 12.0001 7.71427C11.6601 7.71427 9.61911 9.63332 9.61911 12C9.61911 14.3667 11.6601 16.2857 12.0001 16.2857Z" fill="#F93939"/>
<path fill-rule="evenodd" clip-rule="evenodd" d="M10.0953 13.4285C10.162 13.4285 10.5715 12.7885 10.5715 12C10.5715 11.2114 10.162 10.5714 10.0953 10.5714C10.0286 10.5714 9.61911 11.2114 9.61911 12C9.61911 12.7886 10.0286 13.4285 10.0953 13.4285ZM13.9048 13.4285C13.9715 13.4285 14.381 12.7886 14.381 12C14.381 11.2114 13.9715 10.5714 13.9048 10.5714C13.8382 10.5714 13.4286 11.2114 13.4286 12C13.4286 12.7885 13.8382 13.4285 13.9048 13.4285Z" fill="#151515"/>
<path d="M12.4762 12C12.4762 11.211 12.263 10.5714 12 10.5714C11.737 10.5714 11.5238 11.211 11.5238 12C11.5238 12.789 11.737 13.4285 12 13.4285C12.263 13.4285 12.4762 12.789 12.4762 12Z" fill="white"/>
</g>
</g>
<defs>
<filter id="filter0_dd_9241_41443" x="0.833819" y="4.46845" width="22.3324" height="16.618" filterUnits="userSpaceOnUse" color-interpolation-filters="sRGB">
<feFlood flood-opacity="0" result="BackgroundImageFix"/>
<feColorMatrix in="SourceAlpha" type="matrix" values="0 0 0 0 0 0 0 0 0 0 0 0 0 0 0 0 0 0 127 0" result="hardAlpha"/>
<feOffset dy="0.777454"/>
<feGaussianBlur stdDeviation="0.58309"/>
<feComposite in2="hardAlpha" operator="out"/>
<feColorMatrix type="matrix" values="0 0 0 0 0.258824 0 0 0 0 0.278431 0 0 0 0 0.298039 0 0 0 0.08 0"/>
<feBlend mode="normal" in2="BackgroundImageFix" result="effect1_dropShadow_9241_41443"/>
<feColorMatrix in="SourceAlpha" type="matrix" values="0 0 0 0 0 0 0 0 0 0 0 0 0 0 0 0 0 0 127 0" result="hardAlpha"/>
<feOffset/>
<feGaussianBlur stdDeviation="0.0485909"/>
<feComposite in2="hardAlpha" operator="out"/>
<feColorMatrix type="matrix" values="0 0 0 0 0.258824 0 0 0 0 0.278431 0 0 0 0 0.298039 0 0 0 0.32 0"/>
<feBlend mode="normal" in2="effect1_dropShadow_9241_41443" result="effect2_dropShadow_9241_41443"/>
<feBlend mode="normal" in="SourceGraphic" in2="effect2_dropShadow_9241_41443" result="shape"/>
</filter>
<clipPath id="clip0_9241_41443">
<rect x="2" y="4.85718" width="20" height="14.2857" rx="1.55491" fill="white"/>
</clipPath>
</defs>
</svg>
