<svg width="24" height="24" viewBox="0 0 24 24" fill="none" xmlns="http://www.w3.org/2000/svg">
<g filter="url(#filter0_dd_9241_41444)">
<g clip-path="url(#clip0_9241_41444)">
<rect x="2" y="4.85718" width="20" height="14.2857" rx="1.55491" fill="#F93939"/>
<path d="M12 15.3334C13.8409 15.3334 15.3333 13.841 15.3333 12C15.3333 10.1591 13.8409 8.66669 12 8.66669C10.159 8.66669 8.66663 10.1591 8.66663 12C8.66663 13.841 10.159 15.3334 12 15.3334Z" fill="#FFDA2C"/>
<path fill-rule="evenodd" clip-rule="evenodd" d="M2 12.4762H22V19.1429H2V12.4762Z" fill="#232C80"/>
<path fill-rule="evenodd" clip-rule="evenodd" d="M2 12.4762H22V13.4286H2V12.4762ZM2 14.381H22V15.3334H2V14.381ZM2 16.2858H22V17.2381H2V16.2858Z" fill="white"/>
<path fill-rule="evenodd" clip-rule="evenodd" d="M9.61909 6.76196L12 7.71434L14.381 6.76196H9.61909Z" fill="#FFDA2C"/>
</g>
</g>
<defs>
<filter id="filter0_dd_9241_41444" x="0.833819" y="4.46845" width="22.3324" height="16.618" filterUnits="userSpaceOnUse" color-interpolation-filters="sRGB">
<feFlood flood-opacity="0" result="BackgroundImageFix"/>
<feColorMatrix in="SourceAlpha" type="matrix" values="0 0 0 0 0 0 0 0 0 0 0 0 0 0 0 0 0 0 127 0" result="hardAlpha"/>
<feOffset dy="0.777454"/>
<feGaussianBlur stdDeviation="0.58309"/>
<feComposite in2="hardAlpha" operator="out"/>
<feColorMatrix type="matrix" values="0 0 0 0 0.258824 0 0 0 0 0.278431 0 0 0 0 0.298039 0 0 0 0.08 0"/>
<feBlend mode="normal" in2="BackgroundImageFix" result="effect1_dropShadow_9241_41444"/>
<feColorMatrix in="SourceAlpha" type="matrix" values="0 0 0 0 0 0 0 0 0 0 0 0 0 0 0 0 0 0 127 0" result="hardAlpha"/>
<feOffset/>
<feGaussianBlur stdDeviation="0.0485909"/>
<feComposite in2="hardAlpha" operator="out"/>
<feColorMatrix type="matrix" values="0 0 0 0 0.258824 0 0 0 0 0.278431 0 0 0 0 0.298039 0 0 0 0.32 0"/>
<feBlend mode="normal" in2="effect1_dropShadow_9241_41444" result="effect2_dropShadow_9241_41444"/>
<feBlend mode="normal" in="SourceGraphic" in2="effect2_dropShadow_9241_41444" result="shape"/>
</filter>
<clipPath id="clip0_9241_41444">
<rect x="2" y="4.85718" width="20" height="14.2857" rx="1.55491" fill="white"/>
</clipPath>
</defs>
</svg>
