<svg width="24" height="24" viewBox="0 0 24 24" fill="none" xmlns="http://www.w3.org/2000/svg">
<g filter="url(#filter0_dd_9241_41445)">
<rect x="2" y="4.85718" width="20" height="14.2857" rx="1.55491" fill="#244AA5"/>
<path d="M13.3918 7.78207C13.3505 7.78207 13.3137 7.75594 13.3 7.71693L13.208 7.45347C13.1776 7.36645 13.0545 7.36669 13.0244 7.45383L12.9337 7.71658C12.9202 7.75577 12.8833 7.78207 12.8419 7.78207H12.5584C12.4626 7.78207 12.4246 7.90606 12.5039 7.95974L12.7213 8.10682C12.7579 8.13152 12.7732 8.17773 12.7586 8.21936L12.6733 8.46371C12.6424 8.55214 12.7422 8.62879 12.8197 8.57613L13.0612 8.41196C13.0941 8.3896 13.1373 8.38955 13.1703 8.41184L13.4148 8.57727C13.4923 8.6297 13.5919 8.55306 13.561 8.46473L13.4753 8.21936C13.4608 8.17773 13.4761 8.13152 13.5126 8.10682L13.73 7.95974C13.8094 7.90606 13.7714 7.78207 13.6756 7.78207H13.3918Z" fill="white"/>
<path d="M15.4987 8.12734C15.4574 8.12734 15.4207 8.10127 15.407 8.06232L15.315 7.79995C15.2845 7.71309 15.1616 7.71332 15.1314 7.80031L15.0408 8.06197C15.0272 8.1011 14.9904 8.12734 14.949 8.12734H14.6654C14.5696 8.12734 14.5316 8.25133 14.6109 8.30502L14.8283 8.45209C14.8649 8.4768 14.8802 8.523 14.8656 8.56464L14.7803 8.80898C14.7494 8.89742 14.8492 8.97406 14.9267 8.92141L15.1682 8.75724C15.2011 8.73487 15.2443 8.73483 15.2773 8.75712L15.5218 8.92255C15.5993 8.97497 15.6989 8.89834 15.668 8.81L15.5823 8.56464C15.5678 8.523 15.5831 8.4768 15.6196 8.45209L15.837 8.30502C15.9164 8.25133 15.8784 8.12734 15.7826 8.12734H15.4987Z" fill="white"/>
<path d="M17.5086 8.80849C17.4672 8.80849 17.4303 8.78225 17.4168 8.74312L17.3262 8.48146C17.296 8.39448 17.1731 8.39424 17.1426 8.48111L17.0506 8.74348C17.0369 8.78242 17.0002 8.80849 16.9589 8.80849H16.675C16.5792 8.80849 16.5412 8.93249 16.6206 8.98617L16.838 9.13324C16.8745 9.15795 16.8898 9.20416 16.8753 9.24579L16.7896 9.49116C16.7587 9.57949 16.8583 9.65613 16.9358 9.6037L17.1803 9.43827C17.2133 9.41598 17.2565 9.41603 17.2894 9.43839L17.5309 9.60256C17.6084 9.65521 17.7082 9.57857 17.6773 9.49013L17.592 9.24579C17.5774 9.20416 17.5927 9.15795 17.6292 9.13324L17.8467 8.98617C17.926 8.93249 17.888 8.80849 17.7922 8.80849H17.5086Z" fill="white"/>
<path d="M11.2522 7.78207C11.2108 7.78207 11.1739 7.75577 11.1604 7.71658L11.0697 7.45383C11.0397 7.36669 10.9165 7.36645 10.8861 7.45347L10.7941 7.71693C10.7805 7.75594 10.7436 7.78207 10.7023 7.78207H10.4186C10.3227 7.78207 10.2847 7.90606 10.3641 7.95974L10.5815 8.10682C10.618 8.13152 10.6334 8.17773 10.6188 8.21936L10.5331 8.46473C10.5022 8.55306 10.6018 8.6297 10.6793 8.57727L10.9238 8.41184C10.9568 8.38955 11 8.3896 11.0329 8.41196L11.2745 8.57613C11.3519 8.62879 11.4517 8.55214 11.4208 8.46371L11.3355 8.21936C11.3209 8.17773 11.3362 8.13152 11.3728 8.10682L11.5902 7.95974C11.6696 7.90606 11.6316 7.78207 11.5357 7.78207H11.2522Z" fill="white"/>
<path d="M9.14522 8.12734C9.10381 8.12734 9.06694 8.1011 9.05339 8.06197L8.96275 7.80031C8.93262 7.71332 8.80968 7.71309 8.77922 7.79995L8.68719 8.06232C8.67353 8.10127 8.63676 8.12734 8.59549 8.12734H8.31162C8.2158 8.12734 8.1778 8.25133 8.25717 8.30502L8.47458 8.45209C8.51111 8.4768 8.52642 8.523 8.51188 8.56463L8.42616 8.81C8.39531 8.89834 8.49486 8.97497 8.57236 8.92255L8.81691 8.75712C8.84987 8.73483 8.89308 8.73487 8.92599 8.75724L9.16753 8.92141C9.24501 8.97406 9.3448 8.89742 9.3139 8.80898L9.22855 8.56464C9.214 8.523 9.22932 8.4768 9.26584 8.45209L9.48326 8.30502C9.56262 8.25133 9.52462 8.12734 9.42881 8.12734H9.14522Z" fill="white"/>
<path d="M7.13535 8.80849C7.09408 8.80849 7.05731 8.78242 7.04365 8.74348L6.95163 8.48111C6.92116 8.39424 6.79823 8.39448 6.76809 8.48146L6.67745 8.74312C6.6639 8.78225 6.62704 8.80849 6.58562 8.80849H6.30203C6.20622 8.80849 6.16822 8.93249 6.24758 8.98617L6.465 9.13324C6.50153 9.15795 6.51684 9.20416 6.5023 9.24579L6.41694 9.49013C6.38605 9.57857 6.48584 9.65521 6.56331 9.60256L6.80485 9.43839C6.83776 9.41603 6.88098 9.41598 6.91393 9.43827L7.15848 9.6037C7.23598 9.65612 7.33554 9.57949 7.30468 9.49116L7.21896 9.24579C7.20442 9.20416 7.21973 9.15795 7.25626 9.13324L7.47368 8.98617C7.55304 8.93249 7.51504 8.80849 7.41923 8.80849H7.13535Z" fill="white"/>
<path d="M10.9632 10.229C10.8598 10.1463 11.1287 9.96115 11.2124 9.91926C11.3104 9.82132 11.5061 9.80389 11.6382 9.8171C11.7552 9.8288 11.8115 9.86879 11.7829 9.99281C11.746 10.1524 11.7262 10.2566 11.8009 10.4112C11.8956 10.6075 12.1213 10.6712 12.3288 10.6989C12.4659 10.7172 12.6163 10.7256 12.7407 10.7904C12.799 10.8208 12.8882 10.8865 12.8894 10.9588C12.8928 11.1626 12.8544 11.3687 13.0684 11.4712C13.3148 11.5893 13.6003 11.7935 13.7426 12.0343C13.8455 12.2084 13.7279 12.3352 13.7426 12.5197C13.7513 12.6283 13.9309 12.6958 14.0074 12.7314C14.3087 12.8718 14.6128 13.0126 14.9342 13.1008C15.0358 13.1287 15.4705 13.1575 15.4784 13.3321V13.3321C15.4814 13.3971 15.4846 13.4685 15.4768 13.5331C15.4648 13.6319 15.4073 13.718 15.391 13.8159C15.3387 14.1296 14.8828 14.0913 14.6824 14.2809C14.5949 14.3637 14.6001 14.5269 14.5664 14.6347C14.5487 14.6916 14.5464 14.8231 14.5043 14.8652C14.4149 14.9546 14.2584 14.9954 14.1496 15.0564C13.9972 15.142 13.849 15.2306 13.7263 15.3564C13.6795 15.4043 13.602 15.5122 13.5252 15.483C13.4179 15.4423 13.3142 15.3628 13.218 15.3016C13.1014 15.2275 12.9618 15.2696 12.8322 15.291C12.6317 15.3241 12.4408 15.3884 12.2438 15.4356C12.0739 15.4764 11.9041 15.4998 11.7371 15.5525C11.6514 15.5796 11.5935 15.6541 11.5181 15.6988C11.3789 15.7812 11.1183 15.8669 10.9738 15.7593C10.863 15.6767 10.7566 15.6256 10.6919 15.4961C10.6649 15.4422 10.6604 15.3778 10.6534 15.3188C10.6272 15.0961 10.6314 14.9172 10.4475 14.7532C10.1044 14.4474 9.70265 14.2158 9.36057 13.9058C9.13325 13.6997 8.91072 13.4903 8.73129 13.2405C8.63438 13.1056 8.6087 13.0177 8.6087 12.8581C8.6087 12.7514 8.68062 12.692 8.76725 12.6292C8.93082 12.5108 9.14118 12.4941 9.32788 12.4364C9.6398 12.34 9.92177 12.1767 10.2016 12.0147L10.213 12.0081C10.3847 11.9087 10.539 11.8002 10.6976 11.6812C10.8391 11.5751 10.9205 11.413 10.9844 11.2514C11.0427 11.104 11.1158 10.9721 11.1544 10.8174C11.1874 10.6853 11.2966 10.6188 11.2304 10.4783C11.1686 10.3469 11.0742 10.3179 10.9632 10.229Z" fill="#D0A650"/>
</g>
<defs>
<filter id="filter0_dd_9241_41445" x="0.833819" y="4.46845" width="22.3324" height="16.618" filterUnits="userSpaceOnUse" color-interpolation-filters="sRGB">
<feFlood flood-opacity="0" result="BackgroundImageFix"/>
<feColorMatrix in="SourceAlpha" type="matrix" values="0 0 0 0 0 0 0 0 0 0 0 0 0 0 0 0 0 0 127 0" result="hardAlpha"/>
<feOffset dy="0.777454"/>
<feGaussianBlur stdDeviation="0.583091"/>
<feComposite in2="hardAlpha" operator="out"/>
<feColorMatrix type="matrix" values="0 0 0 0 0.258824 0 0 0 0 0.278431 0 0 0 0 0.298039 0 0 0 0.08 0"/>
<feBlend mode="normal" in2="BackgroundImageFix" result="effect1_dropShadow_9241_41445"/>
<feColorMatrix in="SourceAlpha" type="matrix" values="0 0 0 0 0 0 0 0 0 0 0 0 0 0 0 0 0 0 127 0" result="hardAlpha"/>
<feOffset/>
<feGaussianBlur stdDeviation="0.0485909"/>
<feComposite in2="hardAlpha" operator="out"/>
<feColorMatrix type="matrix" values="0 0 0 0 0.258824 0 0 0 0 0.278431 0 0 0 0 0.298039 0 0 0 0.32 0"/>
<feBlend mode="normal" in2="effect1_dropShadow_9241_41445" result="effect2_dropShadow_9241_41445"/>
<feBlend mode="normal" in="SourceGraphic" in2="effect2_dropShadow_9241_41445" result="shape"/>
</filter>
</defs>
</svg>
