<svg width="24" height="24" viewBox="0 0 24 24" fill="none" xmlns="http://www.w3.org/2000/svg">
<g filter="url(#filter0_dd_9253_41643)">
<g clip-path="url(#clip0_9253_41643)">
<rect x="2" y="4.85718" width="20" height="14.2857" rx="1.55491" fill="white"/>
<path fill-rule="evenodd" clip-rule="evenodd" d="M8.66667 4.85718H22V5.80956H8.66667V4.85718ZM8.66667 6.76194H22V7.71432H8.66667V6.76194ZM8.66667 8.6667H22V9.61908H8.66667V8.6667ZM8.66667 10.5715H22V11.5238H8.66667V10.5715ZM2 12.4762H22V13.4286H2V12.4762ZM2 14.381H22V15.3334H2V14.381ZM2 16.2857H22V17.2381H2V16.2857Z" fill="#F93939"/>
<path d="M22 18.1905H2V19.1429H22V18.1905Z" fill="#F93939"/>
<path fill-rule="evenodd" clip-rule="evenodd" d="M2 4.85718H8.66667V11.5238H2V4.85718Z" fill="#1A47B8"/>
<path fill-rule="evenodd" clip-rule="evenodd" d="M5.27608 9.52104L3.83989 10.2763L4.11417 8.67628L2.95227 7.5458L4.55798 7.31247L5.27608 5.85723L5.99417 7.31151L7.59989 7.54485L6.43798 8.67818L6.71227 10.2763" fill="white"/>
</g>
</g>
<defs>
<filter id="filter0_dd_9253_41643" x="0.833819" y="4.46845" width="22.3324" height="16.618" filterUnits="userSpaceOnUse" color-interpolation-filters="sRGB">
<feFlood flood-opacity="0" result="BackgroundImageFix"/>
<feColorMatrix in="SourceAlpha" type="matrix" values="0 0 0 0 0 0 0 0 0 0 0 0 0 0 0 0 0 0 127 0" result="hardAlpha"/>
<feOffset dy="0.777454"/>
<feGaussianBlur stdDeviation="0.58309"/>
<feComposite in2="hardAlpha" operator="out"/>
<feColorMatrix type="matrix" values="0 0 0 0 0.258824 0 0 0 0 0.278431 0 0 0 0 0.298039 0 0 0 0.08 0"/>
<feBlend mode="normal" in2="BackgroundImageFix" result="effect1_dropShadow_9253_41643"/>
<feColorMatrix in="SourceAlpha" type="matrix" values="0 0 0 0 0 0 0 0 0 0 0 0 0 0 0 0 0 0 127 0" result="hardAlpha"/>
<feOffset/>
<feGaussianBlur stdDeviation="0.0485909"/>
<feComposite in2="hardAlpha" operator="out"/>
<feColorMatrix type="matrix" values="0 0 0 0 0.258824 0 0 0 0 0.278431 0 0 0 0 0.298039 0 0 0 0.32 0"/>
<feBlend mode="normal" in2="effect1_dropShadow_9253_41643" result="effect2_dropShadow_9253_41643"/>
<feBlend mode="normal" in="SourceGraphic" in2="effect2_dropShadow_9253_41643" result="shape"/>
</filter>
<clipPath id="clip0_9253_41643">
<rect x="2" y="4.85718" width="20" height="14.2857" rx="1.55491" fill="white"/>
</clipPath>
</defs>
</svg>
