<svg width="24" height="24" viewBox="0 0 24 24" fill="none" xmlns="http://www.w3.org/2000/svg">
<g filter="url(#filter0_dd_9254_41741)">
<g clip-path="url(#clip0_9254_41741)">
<rect x="2" y="4.85718" width="20" height="14.2857" rx="1.55491" fill="white"/>
<path d="M2.00001 17.1649H22V18.1905H2.00001V17.1649Z" fill="#AF010D"/>
<path d="M2.00001 15.1137H22V16.1393H2.00001V15.1137Z" fill="#AF010D"/>
<path d="M2.00001 13.0623H22V14.0879H2.00001V13.0623Z" fill="#AF010D"/>
<path d="M2.00001 11.011H22V12.0367H2.00001V11.011Z" fill="#AF010D"/>
<path d="M2.00001 8.9598H22V9.98544H2.00001V8.9598Z" fill="#AF010D"/>
<path d="M2.00001 6.90841H22V7.93406H2.00001V6.90841Z" fill="#AF010D"/>
<path d="M2 4.85718H22V5.88282H2V4.85718Z" fill="#AF010D"/>
<path fill-rule="evenodd" clip-rule="evenodd" d="M2 4.85718H12.4763V13.0667H2.00009L2 4.85718Z" fill="#1A47B8"/>
<path fill-rule="evenodd" clip-rule="evenodd" d="M8.66672 8.66672H9.6191V9.6191H8.66672V8.66672Z" fill="#FFDA2C"/>
<path fill-rule="evenodd" clip-rule="evenodd" d="M9.14289 10.5715C8.70861 11.1496 8.01718 11.5239 7.23813 11.5239C5.92385 11.5239 4.85718 10.4572 4.85718 9.1429C4.85718 7.82862 5.92385 6.76195 7.23813 6.76195C8.01718 6.76195 8.70861 7.13623 9.14289 7.71433H7.71432C6.92575 7.71433 6.28575 8.35433 6.28575 9.1429C6.28575 9.93147 6.92575 10.5715 7.71432 10.5715H9.14289Z" fill="#FFDA2C"/>
</g>
</g>
<defs>
<filter id="filter0_dd_9254_41741" x="0.833819" y="4.46845" width="22.3324" height="16.618" filterUnits="userSpaceOnUse" color-interpolation-filters="sRGB">
<feFlood flood-opacity="0" result="BackgroundImageFix"/>
<feColorMatrix in="SourceAlpha" type="matrix" values="0 0 0 0 0 0 0 0 0 0 0 0 0 0 0 0 0 0 127 0" result="hardAlpha"/>
<feOffset dy="0.777454"/>
<feGaussianBlur stdDeviation="0.58309"/>
<feComposite in2="hardAlpha" operator="out"/>
<feColorMatrix type="matrix" values="0 0 0 0 0.258824 0 0 0 0 0.278431 0 0 0 0 0.298039 0 0 0 0.08 0"/>
<feBlend mode="normal" in2="BackgroundImageFix" result="effect1_dropShadow_9254_41741"/>
<feColorMatrix in="SourceAlpha" type="matrix" values="0 0 0 0 0 0 0 0 0 0 0 0 0 0 0 0 0 0 127 0" result="hardAlpha"/>
<feOffset/>
<feGaussianBlur stdDeviation="0.0485909"/>
<feComposite in2="hardAlpha" operator="out"/>
<feColorMatrix type="matrix" values="0 0 0 0 0.258824 0 0 0 0 0.278431 0 0 0 0 0.298039 0 0 0 0.32 0"/>
<feBlend mode="normal" in2="effect1_dropShadow_9254_41741" result="effect2_dropShadow_9254_41741"/>
<feBlend mode="normal" in="SourceGraphic" in2="effect2_dropShadow_9254_41741" result="shape"/>
</filter>
<clipPath id="clip0_9254_41741">
<rect x="2" y="4.85718" width="20" height="14.2857" rx="1.55491" fill="white"/>
</clipPath>
</defs>
</svg>
