<svg width="24" height="24" viewBox="0 0 24 24" fill="none" xmlns="http://www.w3.org/2000/svg">
<g filter="url(#filter0_dd_9254_41749)">
<rect x="2" y="4.85718" width="20" height="14.2857" rx="1.55491" fill="#3A99FF"/>
<path fill-rule="evenodd" clip-rule="evenodd" d="M11.5238 8.66674H11.0428C10.7762 8.66674 10.5714 8.88007 10.5714 9.14293C10.5714 9.39816 10.7828 9.61912 11.0428 9.61912H11.5238V10.1001C11.5238 10.3667 11.7371 10.5715 12 10.5715C12.2552 10.5715 12.4762 10.3601 12.4762 10.1001V9.61912H12.9571C13.2238 9.61912 13.4285 9.40578 13.4285 9.14293C13.4285 8.88769 13.2171 8.66674 12.9571 8.66674H12.4762V8.18578C12.4762 7.91912 12.2628 7.71436 12 7.71436C11.7447 7.71436 11.5238 7.92578 11.5238 8.18578V8.66674ZM15.3333 11.5239H14.8523C14.5857 11.5239 14.3809 11.7372 14.3809 12.0001C14.3809 12.2553 14.5923 12.4763 14.8523 12.4763H15.3333V12.9572C15.3333 13.2239 15.5466 13.4286 15.8095 13.4286C16.0647 13.4286 16.2857 13.2172 16.2857 12.9572V12.4763H16.7666C17.0333 12.4763 17.2381 12.2629 17.2381 12.0001C17.2381 11.7448 17.0266 11.5239 16.7666 11.5239H16.2857V11.0429C16.2857 10.7763 16.0723 10.5715 15.8095 10.5715C15.5543 10.5715 15.3333 10.7829 15.3333 11.0429V11.5239ZM11.5238 14.381H11.0428C10.7762 14.381 10.5714 14.5944 10.5714 14.8572C10.5714 15.1125 10.7828 15.3334 11.0428 15.3334H11.5238V15.8144C11.5238 16.081 11.7371 16.2858 12 16.2858C12.2552 16.2858 12.4762 16.0744 12.4762 15.8144V15.3334H12.9571C13.2238 15.3334 13.4285 15.1201 13.4285 14.8572C13.4285 14.602 13.2171 14.381 12.9571 14.381H12.4762V13.9001C12.4762 13.6334 12.2628 13.4286 12 13.4286C11.7447 13.4286 11.5238 13.6401 11.5238 13.9001V14.381ZM7.71425 11.5239H7.2333C6.96663 11.5239 6.76187 11.7372 6.76187 12.0001C6.76187 12.2553 6.9733 12.4763 7.2333 12.4763H7.71425V12.9572C7.71425 13.2239 7.92759 13.4286 8.19044 13.4286C8.44568 13.4286 8.66663 13.2172 8.66663 12.9572V12.4763H9.14759C9.41425 12.4763 9.61901 12.2629 9.61901 12.0001C9.61901 11.7448 9.40759 11.5239 9.14759 11.5239H8.66663V11.0429C8.66663 10.7763 8.4533 10.5715 8.19044 10.5715C7.9352 10.5715 7.71425 10.7829 7.71425 11.0429V11.5239Z" fill="white"/>
</g>
<defs>
<filter id="filter0_dd_9254_41749" x="0.833819" y="4.46845" width="22.3324" height="16.618" filterUnits="userSpaceOnUse" color-interpolation-filters="sRGB">
<feFlood flood-opacity="0" result="BackgroundImageFix"/>
<feColorMatrix in="SourceAlpha" type="matrix" values="0 0 0 0 0 0 0 0 0 0 0 0 0 0 0 0 0 0 127 0" result="hardAlpha"/>
<feOffset dy="0.777454"/>
<feGaussianBlur stdDeviation="0.58309"/>
<feComposite in2="hardAlpha" operator="out"/>
<feColorMatrix type="matrix" values="0 0 0 0 0.258824 0 0 0 0 0.278431 0 0 0 0 0.298039 0 0 0 0.08 0"/>
<feBlend mode="normal" in2="BackgroundImageFix" result="effect1_dropShadow_9254_41749"/>
<feColorMatrix in="SourceAlpha" type="matrix" values="0 0 0 0 0 0 0 0 0 0 0 0 0 0 0 0 0 0 127 0" result="hardAlpha"/>
<feOffset/>
<feGaussianBlur stdDeviation="0.0485909"/>
<feComposite in2="hardAlpha" operator="out"/>
<feColorMatrix type="matrix" values="0 0 0 0 0.258824 0 0 0 0 0.278431 0 0 0 0 0.298039 0 0 0 0.32 0"/>
<feBlend mode="normal" in2="effect1_dropShadow_9254_41749" result="effect2_dropShadow_9254_41749"/>
<feBlend mode="normal" in="SourceGraphic" in2="effect2_dropShadow_9254_41749" result="shape"/>
</filter>
</defs>
</svg>
