<svg width="24" height="24" viewBox="0 0 24 24" fill="none" xmlns="http://www.w3.org/2000/svg">
<g filter="url(#filter0_dd_9254_41750)">
<g clip-path="url(#clip0_9254_41750)">
<rect x="2" y="4.85718" width="20" height="14.2857" rx="1.55491" fill="#FFDA2C"/>
<path fill-rule="evenodd" clip-rule="evenodd" d="M9.61909 9.6191H14.381V14.381H9.61909V9.6191ZM9.61909 14.381L12 16.2858L14.381 14.381H9.61909ZM11.5238 8.66672H12.4762V9.6191H11.5238V8.66672Z" fill="#AE6A3E"/>
<path fill-rule="evenodd" clip-rule="evenodd" d="M10.5714 12.4763H13.4286V13.9048H10.5714V12.4763ZM10.5714 13.9048L12 14.8572L13.4286 13.9048H10.5714Z" fill="#1A47B8"/>
<path fill-rule="evenodd" clip-rule="evenodd" d="M10.5714 10.5715H13.4286V12.4763H10.5714V10.5715Z" fill="#AF010D"/>
<path fill-rule="evenodd" clip-rule="evenodd" d="M12.0001 11.5239C12.263 11.5239 12.4763 11.7277 12.4763 12.0048V12.9477C12.4763 13.2143 12.2553 13.4286 12.0001 13.4286C11.7372 13.4286 11.5239 13.2248 11.5239 12.9477V12.0048C11.5239 11.7381 11.7449 11.5239 12.0001 11.5239Z" fill="#FFDA2C"/>
<path fill-rule="evenodd" clip-rule="evenodd" d="M15.3334 4.85718H22V19.1429H15.3334V4.85718Z" fill="#AF010D"/>
<path fill-rule="evenodd" clip-rule="evenodd" d="M2 4.85718H8.66667V19.1429H2V4.85718Z" fill="#1A47B8"/>
</g>
</g>
<defs>
<filter id="filter0_dd_9254_41750" x="0.833819" y="4.46845" width="22.3324" height="16.618" filterUnits="userSpaceOnUse" color-interpolation-filters="sRGB">
<feFlood flood-opacity="0" result="BackgroundImageFix"/>
<feColorMatrix in="SourceAlpha" type="matrix" values="0 0 0 0 0 0 0 0 0 0 0 0 0 0 0 0 0 0 127 0" result="hardAlpha"/>
<feOffset dy="0.777454"/>
<feGaussianBlur stdDeviation="0.58309"/>
<feComposite in2="hardAlpha" operator="out"/>
<feColorMatrix type="matrix" values="0 0 0 0 0.258824 0 0 0 0 0.278431 0 0 0 0 0.298039 0 0 0 0.08 0"/>
<feBlend mode="normal" in2="BackgroundImageFix" result="effect1_dropShadow_9254_41750"/>
<feColorMatrix in="SourceAlpha" type="matrix" values="0 0 0 0 0 0 0 0 0 0 0 0 0 0 0 0 0 0 127 0" result="hardAlpha"/>
<feOffset/>
<feGaussianBlur stdDeviation="0.0485909"/>
<feComposite in2="hardAlpha" operator="out"/>
<feColorMatrix type="matrix" values="0 0 0 0 0.258824 0 0 0 0 0.278431 0 0 0 0 0.298039 0 0 0 0.32 0"/>
<feBlend mode="normal" in2="effect1_dropShadow_9254_41750" result="effect2_dropShadow_9254_41750"/>
<feBlend mode="normal" in="SourceGraphic" in2="effect2_dropShadow_9254_41750" result="shape"/>
</filter>
<clipPath id="clip0_9254_41750">
<rect x="2" y="4.85718" width="20" height="14.2857" rx="1.55491" fill="white"/>
</clipPath>
</defs>
</svg>
