<svg width="24" height="24" viewBox="0 0 24 24" fill="none" xmlns="http://www.w3.org/2000/svg">
<g filter="url(#filter0_dd_9254_41756)">
<g clip-path="url(#clip0_9254_41756)">
<rect x="2" y="4.85718" width="20" height="14.2857" rx="1.55491" fill="#151515"/>
<path fill-rule="evenodd" clip-rule="evenodd" d="M2.00002 14.3813H22V19.1433H2.00002V14.3813Z" fill="#FFDA2C"/>
<path fill-rule="evenodd" clip-rule="evenodd" d="M2.00014 4.85718H22.0001V9.61908H2.00014V4.85718Z" fill="#249F58"/>
<path opacity="0.35" fill-rule="evenodd" clip-rule="evenodd" d="M2.00014 4.85718H22.0001V9.61908H2.00014V4.85718Z" fill="#1A47B8"/>
<path fill-rule="evenodd" clip-rule="evenodd" d="M2.00002 8.66675H22V9.61913H2.00002V8.66675ZM2.00002 14.381H22V15.3334H2.00002V14.381Z" fill="white"/>
<path fill-rule="evenodd" clip-rule="evenodd" d="M2.00014 4.85718V19.1743L11.5239 12L2.00014 4.85718Z" fill="#F93939"/>
<path fill-rule="evenodd" clip-rule="evenodd" d="M5.21718 13.1906L3.81718 13.9268L4.08385 12.3677L2.95242 11.263L4.51718 11.0372L5.21718 9.61914L5.91623 11.0382L7.48099 11.2639L6.34766 12.3687L6.61623 13.9268" fill="#FFDA2C"/>
<path fill-rule="evenodd" clip-rule="evenodd" d="M4.17184 10.9372L4.50898 10.6001L6.52803 12.6211L6.19279 12.9572L4.17184 10.9382V10.9372Z" fill="#151515"/>
<path fill-rule="evenodd" clip-rule="evenodd" d="M6.52898 10.9372L6.19279 10.6001L4.17184 12.6211L4.50898 12.9572L6.52803 10.9382L6.52898 10.9372Z" fill="#151515"/>
</g>
</g>
<defs>
<filter id="filter0_dd_9254_41756" x="0.833819" y="4.46845" width="22.3324" height="16.618" filterUnits="userSpaceOnUse" color-interpolation-filters="sRGB">
<feFlood flood-opacity="0" result="BackgroundImageFix"/>
<feColorMatrix in="SourceAlpha" type="matrix" values="0 0 0 0 0 0 0 0 0 0 0 0 0 0 0 0 0 0 127 0" result="hardAlpha"/>
<feOffset dy="0.777454"/>
<feGaussianBlur stdDeviation="0.58309"/>
<feComposite in2="hardAlpha" operator="out"/>
<feColorMatrix type="matrix" values="0 0 0 0 0.258824 0 0 0 0 0.278431 0 0 0 0 0.298039 0 0 0 0.08 0"/>
<feBlend mode="normal" in2="BackgroundImageFix" result="effect1_dropShadow_9254_41756"/>
<feColorMatrix in="SourceAlpha" type="matrix" values="0 0 0 0 0 0 0 0 0 0 0 0 0 0 0 0 0 0 127 0" result="hardAlpha"/>
<feOffset/>
<feGaussianBlur stdDeviation="0.0485909"/>
<feComposite in2="hardAlpha" operator="out"/>
<feColorMatrix type="matrix" values="0 0 0 0 0.258824 0 0 0 0 0.278431 0 0 0 0 0.298039 0 0 0 0.32 0"/>
<feBlend mode="normal" in2="effect1_dropShadow_9254_41756" result="effect2_dropShadow_9254_41756"/>
<feBlend mode="normal" in="SourceGraphic" in2="effect2_dropShadow_9254_41756" result="shape"/>
</filter>
<clipPath id="clip0_9254_41756">
<rect x="2" y="4.85718" width="20" height="14.2857" rx="1.55491" fill="white"/>
</clipPath>
</defs>
</svg>
