<svg width="24" height="24" viewBox="0 0 24 24" fill="none" xmlns="http://www.w3.org/2000/svg">
<g filter="url(#filter0_dd_9255_41805)">
<g clip-path="url(#clip0_9255_41805)">
<rect x="2" y="4.85718" width="20" height="14.2857" rx="1.55491" fill="#1A47B8"/>
<path fill-rule="evenodd" clip-rule="evenodd" d="M2 19.1427H22V6.7618L2 17.238V19.1427Z" fill="#249F58"/>
<path fill-rule="evenodd" clip-rule="evenodd" d="M6.28394 9.83802L4.88394 10.5742L5.15061 9.01516L4.01918 7.9104L5.58394 7.68469L6.28394 6.26564L6.98299 7.68469L8.54775 7.9104L7.41442 9.01516L7.68299 10.5733" fill="#FFDA2C"/>
<path fill-rule="evenodd" clip-rule="evenodd" d="M2 18.1904L22 7.71419V3.90466L2 14.3809V18.1904Z" fill="white"/>
<path fill-rule="evenodd" clip-rule="evenodd" d="M2 20.0951L22 9.61896V5.80943L2 16.2856V20.0951Z" fill="white"/>
<path fill-rule="evenodd" clip-rule="evenodd" d="M2 19.1427L22 8.66655V4.85702L2 15.3332V19.1427Z" fill="#F93939"/>
</g>
</g>
<defs>
<filter id="filter0_dd_9255_41805" x="0.833819" y="4.46845" width="22.3324" height="16.6181" filterUnits="userSpaceOnUse" color-interpolation-filters="sRGB">
<feFlood flood-opacity="0" result="BackgroundImageFix"/>
<feColorMatrix in="SourceAlpha" type="matrix" values="0 0 0 0 0 0 0 0 0 0 0 0 0 0 0 0 0 0 127 0" result="hardAlpha"/>
<feOffset dy="0.777454"/>
<feGaussianBlur stdDeviation="0.58309"/>
<feComposite in2="hardAlpha" operator="out"/>
<feColorMatrix type="matrix" values="0 0 0 0 0.258824 0 0 0 0 0.278431 0 0 0 0 0.298039 0 0 0 0.08 0"/>
<feBlend mode="normal" in2="BackgroundImageFix" result="effect1_dropShadow_9255_41805"/>
<feColorMatrix in="SourceAlpha" type="matrix" values="0 0 0 0 0 0 0 0 0 0 0 0 0 0 0 0 0 0 127 0" result="hardAlpha"/>
<feOffset/>
<feGaussianBlur stdDeviation="0.0485909"/>
<feComposite in2="hardAlpha" operator="out"/>
<feColorMatrix type="matrix" values="0 0 0 0 0.258824 0 0 0 0 0.278431 0 0 0 0 0.298039 0 0 0 0.32 0"/>
<feBlend mode="normal" in2="effect1_dropShadow_9255_41805" result="effect2_dropShadow_9255_41805"/>
<feBlend mode="normal" in="SourceGraphic" in2="effect2_dropShadow_9255_41805" result="shape"/>
</filter>
<clipPath id="clip0_9255_41805">
<rect x="2" y="4.85718" width="20" height="14.2857" rx="1.55491" fill="white"/>
</clipPath>
</defs>
</svg>
