<svg width="24" height="24" viewBox="0 0 24 24" fill="none" xmlns="http://www.w3.org/2000/svg">
<g filter="url(#filter0_dd_9255_41807)">
<g clip-path="url(#clip0_9255_41807)">
<path fill-rule="evenodd" clip-rule="evenodd" d="M2 4.85718L14.381 12.4762H7.71429L14.381 19.1429H2V4.85718Z" fill="#003495"/>
<path fill-rule="evenodd" clip-rule="evenodd" d="M2.95242 6.76195L10.5715 11.5239H4.85718L11.5238 18.1905H2.95237C2.95236 17.7143 2.95242 17.7562 2.95242 17.2362V6.76195Z" fill="#DF0A37"/>
<path d="M5.33339 17.2382C6.12237 17.2382 6.76196 16.5986 6.76196 15.8096C6.76196 15.0206 6.12237 14.381 5.33339 14.381C4.54441 14.381 3.90482 15.0206 3.90482 15.8096C3.90482 16.5986 4.54441 17.2382 5.33339 17.2382Z" fill="white"/>
<path fill-rule="evenodd" clip-rule="evenodd" d="M6.68101 9.61908C6.73339 9.69337 6.76196 9.77337 6.76196 9.85718C6.76196 10.2515 6.12196 10.5715 5.33339 10.5715C4.54482 10.5715 3.90482 10.2515 3.90482 9.85718C3.90482 9.77337 3.93339 9.69337 3.98577 9.61908C4.18196 9.75813 4.71149 9.85718 5.33339 9.85718C5.9553 9.85718 6.48577 9.75813 6.68101 9.61908Z" fill="white"/>
</g>
</g>
<defs>
<filter id="filter0_dd_9255_41807" x="0.833819" y="4.46845" width="22.3324" height="16.6181" filterUnits="userSpaceOnUse" color-interpolation-filters="sRGB">
<feFlood flood-opacity="0" result="BackgroundImageFix"/>
<feColorMatrix in="SourceAlpha" type="matrix" values="0 0 0 0 0 0 0 0 0 0 0 0 0 0 0 0 0 0 127 0" result="hardAlpha"/>
<feOffset dy="0.777454"/>
<feGaussianBlur stdDeviation="0.58309"/>
<feComposite in2="hardAlpha" operator="out"/>
<feColorMatrix type="matrix" values="0 0 0 0 0.258824 0 0 0 0 0.278431 0 0 0 0 0.298039 0 0 0 0.08 0"/>
<feBlend mode="normal" in2="BackgroundImageFix" result="effect1_dropShadow_9255_41807"/>
<feColorMatrix in="SourceAlpha" type="matrix" values="0 0 0 0 0 0 0 0 0 0 0 0 0 0 0 0 0 0 127 0" result="hardAlpha"/>
<feOffset/>
<feGaussianBlur stdDeviation="0.0485909"/>
<feComposite in2="hardAlpha" operator="out"/>
<feColorMatrix type="matrix" values="0 0 0 0 0.258824 0 0 0 0 0.278431 0 0 0 0 0.298039 0 0 0 0.32 0"/>
<feBlend mode="normal" in2="effect1_dropShadow_9255_41807" result="effect2_dropShadow_9255_41807"/>
<feBlend mode="normal" in="SourceGraphic" in2="effect2_dropShadow_9255_41807" result="shape"/>
</filter>
<clipPath id="clip0_9255_41807">
<rect x="2" y="4.85718" width="20" height="14.2857" rx="1.55491" fill="white"/>
</clipPath>
</defs>
</svg>
