<svg width="24" height="24" viewBox="0 0 24 24" fill="none" xmlns="http://www.w3.org/2000/svg">
<g filter="url(#filter0_dd_9255_41813)">
<g clip-path="url(#clip0_9255_41813)">
<rect x="2" y="4.85718" width="20" height="14.2857" rx="1.55491" fill="#AF010D"/>
<path fill-rule="evenodd" clip-rule="evenodd" d="M2 4.85718L11.5238 11.5238H12.4762L5.80952 4.85718H2ZM2 19.1429L11.5238 12.4762H12.4762L5.80952 19.1429H2Z" fill="#FFDA2C"/>
<path fill-rule="evenodd" clip-rule="evenodd" d="M12.4762 11.5238H11.5238L18.1905 4.85718H22L12.4762 11.5238ZM12.4762 12.4762H11.5238L18.1905 19.1429H22L12.4762 12.4762ZM9.61905 11.5238L2 10.5715V13.4286L9.61905 12.4762V11.5238ZM14.381 11.5238L22 10.5715V13.4286L14.381 12.4762V11.5238ZM11.5238 9.61908L10.5714 4.85718H13.4286L12.4762 9.61908H11.5238ZM11.5238 14.381L10.5714 19.1429H13.4286L12.4762 14.381" fill="#FFDA2C"/>
<path d="M12 14.381C13.315 14.381 14.381 13.315 14.381 12C14.381 10.685 13.315 9.61906 12 9.61906C10.6851 9.61906 9.61909 10.685 9.61909 12C9.61909 13.315 10.6851 14.381 12 14.381Z" fill="#AF010D"/>
<path d="M11.9999 13.4286C12.7889 13.4286 13.4285 12.789 13.4285 12C13.4285 11.2111 12.7889 10.5715 11.9999 10.5715C11.2109 10.5715 10.5714 11.2111 10.5714 12C10.5714 12.789 11.2109 13.4286 11.9999 13.4286Z" fill="#FFDA2C"/>
</g>
</g>
<defs>
<filter id="filter0_dd_9255_41813" x="0.833819" y="4.46845" width="22.3324" height="16.6181" filterUnits="userSpaceOnUse" color-interpolation-filters="sRGB">
<feFlood flood-opacity="0" result="BackgroundImageFix"/>
<feColorMatrix in="SourceAlpha" type="matrix" values="0 0 0 0 0 0 0 0 0 0 0 0 0 0 0 0 0 0 127 0" result="hardAlpha"/>
<feOffset dy="0.777454"/>
<feGaussianBlur stdDeviation="0.58309"/>
<feComposite in2="hardAlpha" operator="out"/>
<feColorMatrix type="matrix" values="0 0 0 0 0.258824 0 0 0 0 0.278431 0 0 0 0 0.298039 0 0 0 0.08 0"/>
<feBlend mode="normal" in2="BackgroundImageFix" result="effect1_dropShadow_9255_41813"/>
<feColorMatrix in="SourceAlpha" type="matrix" values="0 0 0 0 0 0 0 0 0 0 0 0 0 0 0 0 0 0 127 0" result="hardAlpha"/>
<feOffset/>
<feGaussianBlur stdDeviation="0.0485909"/>
<feComposite in2="hardAlpha" operator="out"/>
<feColorMatrix type="matrix" values="0 0 0 0 0.258824 0 0 0 0 0.278431 0 0 0 0 0.298039 0 0 0 0.32 0"/>
<feBlend mode="normal" in2="effect1_dropShadow_9255_41813" result="effect2_dropShadow_9255_41813"/>
<feBlend mode="normal" in="SourceGraphic" in2="effect2_dropShadow_9255_41813" result="shape"/>
</filter>
<clipPath id="clip0_9255_41813">
<rect x="2" y="4.85718" width="20" height="14.2857" rx="1.55491" fill="white"/>
</clipPath>
</defs>
</svg>
