<svg width="24" height="24" viewBox="0 0 24 24" fill="none" xmlns="http://www.w3.org/2000/svg">
<g filter="url(#filter0_dd_9255_41815)">
<rect x="2" y="4.85718" width="20" height="14.2857" rx="1.55491" fill="#1A47B8"/>
<path fill-rule="evenodd" clip-rule="evenodd" d="M2 15.3334H22V16.2858H2V15.3334Z" fill="white"/>
<path fill-rule="evenodd" clip-rule="evenodd" d="M2 8.66672H22V15.3334H2V8.66672Z" fill="#F93939"/>
<path d="M7.23804 14.381C8.553 14.381 9.61899 13.315 9.61899 12.0001C9.61899 10.6851 8.553 9.6191 7.23804 9.6191C5.92307 9.6191 4.85709 10.6851 4.85709 12.0001C4.85709 13.315 5.92307 14.381 7.23804 14.381Z" fill="white"/>
<path fill-rule="evenodd" clip-rule="evenodd" d="M7.23674 12.9296L6.09388 13.5296L6.31293 12.2581L5.38912 11.3591L6.66531 11.1734L7.23674 10.0172L7.80817 11.1743L9.08436 11.361L8.16055 12.261L8.37959 13.5334" fill="#F93939"/>
<path fill-rule="evenodd" clip-rule="evenodd" d="M2 7.71436H22V8.66672H2V7.71436Z" fill="white"/>
</g>
<defs>
<filter id="filter0_dd_9255_41815" x="0.833819" y="4.46845" width="22.3324" height="16.6181" filterUnits="userSpaceOnUse" color-interpolation-filters="sRGB">
<feFlood flood-opacity="0" result="BackgroundImageFix"/>
<feColorMatrix in="SourceAlpha" type="matrix" values="0 0 0 0 0 0 0 0 0 0 0 0 0 0 0 0 0 0 127 0" result="hardAlpha"/>
<feOffset dy="0.777454"/>
<feGaussianBlur stdDeviation="0.58309"/>
<feComposite in2="hardAlpha" operator="out"/>
<feColorMatrix type="matrix" values="0 0 0 0 0.258824 0 0 0 0 0.278431 0 0 0 0 0.298039 0 0 0 0.08 0"/>
<feBlend mode="normal" in2="BackgroundImageFix" result="effect1_dropShadow_9255_41815"/>
<feColorMatrix in="SourceAlpha" type="matrix" values="0 0 0 0 0 0 0 0 0 0 0 0 0 0 0 0 0 0 127 0" result="hardAlpha"/>
<feOffset/>
<feGaussianBlur stdDeviation="0.0485909"/>
<feComposite in2="hardAlpha" operator="out"/>
<feColorMatrix type="matrix" values="0 0 0 0 0.258824 0 0 0 0 0.278431 0 0 0 0 0.298039 0 0 0 0.32 0"/>
<feBlend mode="normal" in2="effect1_dropShadow_9255_41815" result="effect2_dropShadow_9255_41815"/>
<feBlend mode="normal" in="SourceGraphic" in2="effect2_dropShadow_9255_41815" result="shape"/>
</filter>
</defs>
</svg>
