<svg width="24" height="24" viewBox="0 0 24 24" fill="none" xmlns="http://www.w3.org/2000/svg">
<g filter="url(#filter0_dd_9255_41820)">
<g clip-path="url(#clip0_9255_41820)">
<rect x="2" y="4.85718" width="20" height="14.2857" rx="1.55491" fill="#F93939"/>
<path d="M20.0952 4.85718H3.90476C2.85279 4.85718 2 5.70997 2 6.76194V17.2381C2 18.2901 2.85279 19.1429 3.90476 19.1429H20.0952C21.1472 19.1429 22 18.2901 22 17.2381V6.76194C22 5.70997 21.1472 4.85718 20.0952 4.85718Z" fill="#F93939"/>
<path fill-rule="evenodd" clip-rule="evenodd" d="M7.71427 14.381H22V19.1429H7.71427V14.381Z" fill="#249F58"/>
<path fill-rule="evenodd" clip-rule="evenodd" d="M7.71398 4.85718H21.9997V9.61908H7.71398V4.85718ZM6.35779 8.57432C6.30541 8.65337 6.24541 8.7267 6.17684 8.79623C5.61779 9.35432 4.71303 9.35432 4.15588 8.79623C3.59779 8.23908 3.59779 7.33432 4.15588 6.77718C4.22446 6.7067 4.29874 6.6467 4.37779 6.59432C4.1635 6.99432 4.33969 7.63432 4.82922 8.12289C5.31874 8.61051 5.95779 8.78765 6.35874 8.57337L6.35779 8.57432Z" fill="white"/>
<path fill-rule="evenodd" clip-rule="evenodd" d="M4.30845 8.57428C4.36083 8.65333 4.42083 8.72666 4.4894 8.79618C5.04845 9.35428 5.95321 9.35428 6.51035 8.79618C7.06845 8.23904 7.06845 7.33428 6.51035 6.77713C6.44178 6.70666 6.3675 6.64666 6.28845 6.59428C6.50273 6.99428 6.32654 7.63428 5.83702 8.12285C5.3475 8.61047 4.70845 8.78761 4.3075 8.57333L4.30845 8.57428Z" fill="white"/>
</g>
</g>
<defs>
<filter id="filter0_dd_9255_41820" x="0.833819" y="4.46845" width="22.3324" height="16.6181" filterUnits="userSpaceOnUse" color-interpolation-filters="sRGB">
<feFlood flood-opacity="0" result="BackgroundImageFix"/>
<feColorMatrix in="SourceAlpha" type="matrix" values="0 0 0 0 0 0 0 0 0 0 0 0 0 0 0 0 0 0 127 0" result="hardAlpha"/>
<feOffset dy="0.777454"/>
<feGaussianBlur stdDeviation="0.58309"/>
<feComposite in2="hardAlpha" operator="out"/>
<feColorMatrix type="matrix" values="0 0 0 0 0.258824 0 0 0 0 0.278431 0 0 0 0 0.298039 0 0 0 0.08 0"/>
<feBlend mode="normal" in2="BackgroundImageFix" result="effect1_dropShadow_9255_41820"/>
<feColorMatrix in="SourceAlpha" type="matrix" values="0 0 0 0 0 0 0 0 0 0 0 0 0 0 0 0 0 0 127 0" result="hardAlpha"/>
<feOffset/>
<feGaussianBlur stdDeviation="0.0485909"/>
<feComposite in2="hardAlpha" operator="out"/>
<feColorMatrix type="matrix" values="0 0 0 0 0.258824 0 0 0 0 0.278431 0 0 0 0 0.298039 0 0 0 0.32 0"/>
<feBlend mode="normal" in2="effect1_dropShadow_9255_41820" result="effect2_dropShadow_9255_41820"/>
<feBlend mode="normal" in="SourceGraphic" in2="effect2_dropShadow_9255_41820" result="shape"/>
</filter>
<clipPath id="clip0_9255_41820">
<rect x="2" y="4.85718" width="20" height="14.2857" rx="1.55491" fill="white"/>
</clipPath>
</defs>
</svg>
