<svg width="24" height="24" viewBox="0 0 24 24" fill="none" xmlns="http://www.w3.org/2000/svg">
<g filter="url(#filter0_dd_9256_41864)">
<g clip-path="url(#clip0_9256_41864)">
<rect x="2" y="4.85718" width="20" height="14.2857" rx="1.55491" fill="white"/>
<path d="M20.0952 4.85718H3.90476C2.85279 4.85718 2 5.70997 2 6.76194V17.2381C2 18.2901 2.85279 19.1429 3.90476 19.1429H20.0952C21.1472 19.1429 22 18.2901 22 17.2381V6.76194C22 5.70997 21.1472 4.85718 20.0952 4.85718Z" fill="white"/>
<path fill-rule="evenodd" clip-rule="evenodd" d="M17.2134 16.261C17.1505 16.8286 16.9714 17.2381 16.7619 17.2381C16.5524 17.2381 16.3734 16.8286 16.3105 16.261C15.7429 16.1981 15.3334 16.0191 15.3334 15.8096C15.3334 15.6 15.7429 15.421 16.3105 15.3581C16.3734 14.7905 16.5514 14.381 16.7619 14.381C16.9714 14.381 17.1505 14.7905 17.2134 15.3581C17.781 15.421 18.1905 15.5991 18.1905 15.8096C18.1905 16.0191 17.781 16.1981 17.2134 16.261Z" fill="#F93939"/>
<path fill-rule="evenodd" clip-rule="evenodd" d="M2 12.4762H11.5238V19.1429H2V12.4762Z" fill="#1A47B8"/>
<path fill-rule="evenodd" clip-rule="evenodd" d="M7.68954 9.59431C7.62669 10.1619 7.44764 10.5715 7.23811 10.5715C7.02859 10.5715 6.84954 10.1619 6.78669 9.59431C6.21907 9.53145 5.80954 9.35241 5.80954 9.14288C5.80954 8.93336 6.21907 8.75431 6.78669 8.69145C6.84954 8.12383 7.02859 7.71431 7.23811 7.71431C7.44764 7.71431 7.62669 8.12383 7.68954 8.69145C8.25716 8.75431 8.66669 8.93336 8.66669 9.14288C8.66669 9.35241 8.25716 9.53145 7.68954 9.59431Z" fill="#1A47B8"/>
<path fill-rule="evenodd" clip-rule="evenodd" d="M11.5238 4.85718H22V12.4762L11.5238 12.4762V4.85718Z" fill="#F93939"/>
</g>
</g>
<defs>
<filter id="filter0_dd_9256_41864" x="0.833819" y="4.46845" width="22.3324" height="16.6181" filterUnits="userSpaceOnUse" color-interpolation-filters="sRGB">
<feFlood flood-opacity="0" result="BackgroundImageFix"/>
<feColorMatrix in="SourceAlpha" type="matrix" values="0 0 0 0 0 0 0 0 0 0 0 0 0 0 0 0 0 0 127 0" result="hardAlpha"/>
<feOffset dy="0.777454"/>
<feGaussianBlur stdDeviation="0.58309"/>
<feComposite in2="hardAlpha" operator="out"/>
<feColorMatrix type="matrix" values="0 0 0 0 0.258824 0 0 0 0 0.278431 0 0 0 0 0.298039 0 0 0 0.08 0"/>
<feBlend mode="normal" in2="BackgroundImageFix" result="effect1_dropShadow_9256_41864"/>
<feColorMatrix in="SourceAlpha" type="matrix" values="0 0 0 0 0 0 0 0 0 0 0 0 0 0 0 0 0 0 127 0" result="hardAlpha"/>
<feOffset/>
<feGaussianBlur stdDeviation="0.0485909"/>
<feComposite in2="hardAlpha" operator="out"/>
<feColorMatrix type="matrix" values="0 0 0 0 0.258824 0 0 0 0 0.278431 0 0 0 0 0.298039 0 0 0 0.32 0"/>
<feBlend mode="normal" in2="effect1_dropShadow_9256_41864" result="effect2_dropShadow_9256_41864"/>
<feBlend mode="normal" in="SourceGraphic" in2="effect2_dropShadow_9256_41864" result="shape"/>
</filter>
<clipPath id="clip0_9256_41864">
<rect x="2" y="4.85718" width="20" height="14.2857" rx="1.55491" fill="white"/>
</clipPath>
</defs>
</svg>
