<svg width="24" height="24" viewBox="0 0 24 24" fill="none" xmlns="http://www.w3.org/2000/svg">
<g filter="url(#filter0_dd_9256_41866)">
<g clip-path="url(#clip0_9256_41866)">
<rect x="2" y="4.85718" width="20" height="14.2857" rx="1.55491" fill="white"/>
<path fill-rule="evenodd" clip-rule="evenodd" d="M2.00024 14.3811H22.0002V19.143H2.00024V14.3811Z" fill="#1A47B8"/>
<path fill-rule="evenodd" clip-rule="evenodd" d="M13.4002 11.7144C13.4192 11.8068 13.4287 11.902 13.4287 12.0001C13.4287 12.7887 12.7887 13.4287 12.0002 13.4287C11.2116 13.4287 10.5716 12.7887 10.5716 12.0001C10.5716 11.902 10.5811 11.8068 10.6002 11.7144C10.7335 12.1487 11.3087 12.4763 12.0002 12.4763C12.6916 12.4763 13.2668 12.1487 13.4002 11.7144Z" fill="#249F58"/>
<path d="M12.0001 11.524C12.2631 11.524 12.4763 11.3108 12.4763 11.0478C12.4763 10.7848 12.2631 10.5716 12.0001 10.5716C11.7372 10.5716 11.524 10.7848 11.524 11.0478C11.524 11.3108 11.7372 11.524 12.0001 11.524Z" fill="#FFDA2C"/>
<path fill-rule="evenodd" clip-rule="evenodd" d="M2.00024 4.8573H22.0002V9.6192H2.00024V4.8573Z" fill="#F93939"/>
</g>
</g>
<defs>
<filter id="filter0_dd_9256_41866" x="0.833819" y="4.46845" width="22.3324" height="16.6181" filterUnits="userSpaceOnUse" color-interpolation-filters="sRGB">
<feFlood flood-opacity="0" result="BackgroundImageFix"/>
<feColorMatrix in="SourceAlpha" type="matrix" values="0 0 0 0 0 0 0 0 0 0 0 0 0 0 0 0 0 0 127 0" result="hardAlpha"/>
<feOffset dy="0.777454"/>
<feGaussianBlur stdDeviation="0.58309"/>
<feComposite in2="hardAlpha" operator="out"/>
<feColorMatrix type="matrix" values="0 0 0 0 0.258824 0 0 0 0 0.278431 0 0 0 0 0.298039 0 0 0 0.08 0"/>
<feBlend mode="normal" in2="BackgroundImageFix" result="effect1_dropShadow_9256_41866"/>
<feColorMatrix in="SourceAlpha" type="matrix" values="0 0 0 0 0 0 0 0 0 0 0 0 0 0 0 0 0 0 127 0" result="hardAlpha"/>
<feOffset/>
<feGaussianBlur stdDeviation="0.0485909"/>
<feComposite in2="hardAlpha" operator="out"/>
<feColorMatrix type="matrix" values="0 0 0 0 0.258824 0 0 0 0 0.278431 0 0 0 0 0.298039 0 0 0 0.32 0"/>
<feBlend mode="normal" in2="effect1_dropShadow_9256_41866" result="effect2_dropShadow_9256_41866"/>
<feBlend mode="normal" in="SourceGraphic" in2="effect2_dropShadow_9256_41866" result="shape"/>
</filter>
<clipPath id="clip0_9256_41866">
<rect x="2" y="4.85718" width="20" height="14.2857" rx="1.55491" fill="white"/>
</clipPath>
</defs>
</svg>
