<svg width="24" height="24" viewBox="0 0 24 24" fill="none" xmlns="http://www.w3.org/2000/svg">
<g filter="url(#filter0_dd_9256_41868)">
<g clip-path="url(#clip0_9256_41868)">
<rect x="2" y="4.85718" width="20" height="14.2857" rx="1.55491" fill="#F93939"/>
<path d="M20.0952 4.85718H3.90476C2.85279 4.85718 2 5.70997 2 6.76194V17.2381C2 18.2901 2.85279 19.1429 3.90476 19.1429H20.0952C21.1472 19.1429 22 18.2901 22 17.2381V6.76194C22 5.70997 21.1472 4.85718 20.0952 4.85718Z" fill="#F93939"/>
<path fill-rule="evenodd" clip-rule="evenodd" d="M2 4.85718H22V12.4762H2V4.85718Z" fill="#1A47B8"/>
<path fill-rule="evenodd" clip-rule="evenodd" d="M2 4.85718V19.1743L11.5238 12L2 4.85718Z" fill="white"/>
<path d="M4.38101 15.3334C4.644 15.3334 4.8572 15.1202 4.8572 14.8572C4.8572 14.5942 4.644 14.381 4.38101 14.381C4.11802 14.381 3.90482 14.5942 3.90482 14.8572C3.90482 15.1202 4.11802 15.3334 4.38101 15.3334Z" fill="#FFDA2C"/>
<path d="M9.14282 12.4762C9.40581 12.4762 9.61901 12.263 9.61901 12C9.61901 11.7371 9.40581 11.5239 9.14282 11.5239C8.87983 11.5239 8.66663 11.7371 8.66663 12C8.66663 12.263 8.87983 12.4762 9.14282 12.4762Z" fill="#FFDA2C"/>
<path fill-rule="evenodd" clip-rule="evenodd" d="M6.27149 12.4619C7.10006 12.4095 7.71434 12.2238 7.71434 12C7.71434 11.7772 7.10006 11.5905 6.27149 11.5381C6.2191 10.7095 6.03339 10.0953 5.80958 10.0953C5.58672 10.0953 5.40006 10.7095 5.34768 11.5381C4.5191 11.5905 3.90482 11.7762 3.90482 12C3.90482 12.2229 4.5191 12.4095 5.34768 12.4619C5.3991 13.2905 5.58577 13.9048 5.80958 13.9048C6.03244 13.9048 6.2191 13.2905 6.27149 12.4619Z" fill="#FFDA2C"/>
<path d="M4.38101 9.6191C4.644 9.6191 4.8572 9.4059 4.8572 9.14291C4.8572 8.87992 4.644 8.66672 4.38101 8.66672C4.11802 8.66672 3.90482 8.87992 3.90482 9.14291C3.90482 9.4059 4.11802 9.6191 4.38101 9.6191Z" fill="#FFDA2C"/>
</g>
</g>
<defs>
<filter id="filter0_dd_9256_41868" x="0.833819" y="4.46845" width="22.3324" height="16.6181" filterUnits="userSpaceOnUse" color-interpolation-filters="sRGB">
<feFlood flood-opacity="0" result="BackgroundImageFix"/>
<feColorMatrix in="SourceAlpha" type="matrix" values="0 0 0 0 0 0 0 0 0 0 0 0 0 0 0 0 0 0 127 0" result="hardAlpha"/>
<feOffset dy="0.777454"/>
<feGaussianBlur stdDeviation="0.58309"/>
<feComposite in2="hardAlpha" operator="out"/>
<feColorMatrix type="matrix" values="0 0 0 0 0.258824 0 0 0 0 0.278431 0 0 0 0 0.298039 0 0 0 0.08 0"/>
<feBlend mode="normal" in2="BackgroundImageFix" result="effect1_dropShadow_9256_41868"/>
<feColorMatrix in="SourceAlpha" type="matrix" values="0 0 0 0 0 0 0 0 0 0 0 0 0 0 0 0 0 0 127 0" result="hardAlpha"/>
<feOffset/>
<feGaussianBlur stdDeviation="0.0485909"/>
<feComposite in2="hardAlpha" operator="out"/>
<feColorMatrix type="matrix" values="0 0 0 0 0.258824 0 0 0 0 0.278431 0 0 0 0 0.298039 0 0 0 0.32 0"/>
<feBlend mode="normal" in2="effect1_dropShadow_9256_41868" result="effect2_dropShadow_9256_41868"/>
<feBlend mode="normal" in="SourceGraphic" in2="effect2_dropShadow_9256_41868" result="shape"/>
</filter>
<clipPath id="clip0_9256_41868">
<rect x="2" y="4.85718" width="20" height="14.2857" rx="1.55491" fill="white"/>
</clipPath>
</defs>
</svg>
