<svg width="24" height="24" viewBox="0 0 24 24" fill="none" xmlns="http://www.w3.org/2000/svg">
<g filter="url(#filter0_dd_9256_41870)">
<g clip-path="url(#clip0_9256_41870)">
<rect x="2" y="4.85718" width="20" height="14.2857" rx="1.55491" fill="#F93939"/>
<path fill-rule="evenodd" clip-rule="evenodd" d="M2 4.85718H8.66667V19.1429H2V4.85718Z" fill="#249F58"/>
<path d="M8.66669 14.381C10.2446 14.381 11.5238 13.1018 11.5238 11.5239C11.5238 9.94591 10.2446 8.66672 8.66669 8.66672C7.08873 8.66672 5.80954 9.94591 5.80954 11.5239C5.80954 13.1018 7.08873 14.381 8.66669 14.381Z" fill="#FFDA2C"/>
<path fill-rule="evenodd" clip-rule="evenodd" d="M10.5714 12.4762V9.61906H6.7619V12.4762C6.7619 13.0019 7.61429 13.4286 8.66667 13.4286C9.71905 13.4286 10.5714 13.0019 10.5714 12.4762Z" fill="#F93939"/>
<path fill-rule="evenodd" clip-rule="evenodd" d="M7.71427 10.5715H9.61903V12.4762H7.71427V10.5715Z" fill="white"/>
<path fill-rule="evenodd" clip-rule="evenodd" d="M7.71427 10.5715H8.66665V11.5238H7.71427V10.5715ZM8.66665 11.5238H9.61903V12.4762H8.66665V11.5238Z" fill="#1A47B8"/>
</g>
</g>
<defs>
<filter id="filter0_dd_9256_41870" x="0.833819" y="4.46845" width="22.3324" height="16.6181" filterUnits="userSpaceOnUse" color-interpolation-filters="sRGB">
<feFlood flood-opacity="0" result="BackgroundImageFix"/>
<feColorMatrix in="SourceAlpha" type="matrix" values="0 0 0 0 0 0 0 0 0 0 0 0 0 0 0 0 0 0 127 0" result="hardAlpha"/>
<feOffset dy="0.777454"/>
<feGaussianBlur stdDeviation="0.58309"/>
<feComposite in2="hardAlpha" operator="out"/>
<feColorMatrix type="matrix" values="0 0 0 0 0.258824 0 0 0 0 0.278431 0 0 0 0 0.298039 0 0 0 0.08 0"/>
<feBlend mode="normal" in2="BackgroundImageFix" result="effect1_dropShadow_9256_41870"/>
<feColorMatrix in="SourceAlpha" type="matrix" values="0 0 0 0 0 0 0 0 0 0 0 0 0 0 0 0 0 0 127 0" result="hardAlpha"/>
<feOffset/>
<feGaussianBlur stdDeviation="0.0485909"/>
<feComposite in2="hardAlpha" operator="out"/>
<feColorMatrix type="matrix" values="0 0 0 0 0.258824 0 0 0 0 0.278431 0 0 0 0 0.298039 0 0 0 0.32 0"/>
<feBlend mode="normal" in2="effect1_dropShadow_9256_41870" result="effect2_dropShadow_9256_41870"/>
<feBlend mode="normal" in="SourceGraphic" in2="effect2_dropShadow_9256_41870" result="shape"/>
</filter>
<clipPath id="clip0_9256_41870">
<rect x="2" y="4.85718" width="20" height="14.2857" rx="1.55491" fill="white"/>
</clipPath>
</defs>
</svg>
