<svg width="24" height="24" viewBox="0 0 24 24" fill="none" xmlns="http://www.w3.org/2000/svg">
<g filter="url(#filter0_dd_9267_40232)">
<rect x="2" y="4.85718" width="20" height="14.2857" rx="1.55491" fill="#249F58"/>
<path fill-rule="evenodd" clip-rule="evenodd" d="M17.2381 14.381V13.4286H6.76188L8.66664 14.381H14.3809C14.3809 14.9067 15.0209 15.3333 15.8095 15.3333C16.5981 15.3333 17.2381 14.9067 17.2381 14.381ZM10.3143 8.57715C10.3028 8.57715 10.2857 8.58286 10.2638 8.5962C10.2124 8.63048 10.1114 8.7362 10.1076 8.8581C10.1047 8.92762 10.0914 8.92762 10.1362 8.97239C10.1685 9.0181 10.2028 9.01429 10.2676 8.97905C10.3057 8.95048 10.3181 8.93429 10.3314 8.88762C10.3466 8.81143 10.2485 8.92572 10.2362 8.8381C10.2143 8.7581 10.2771 8.72382 10.3362 8.64762C10.3381 8.60953 10.3381 8.58096 10.3143 8.57905V8.57715ZM11.2695 8.58191C11.2504 8.58572 11.2285 8.61048 11.1971 8.66572C11.1752 8.72477 11.079 8.81429 11.1495 8.99905C11.2047 9.1162 11.2285 9.30572 11.2028 9.5181C11.1628 9.5781 11.1552 9.59905 11.1028 9.65905C11.0304 9.7381 10.9504 9.7181 10.8914 9.68762C10.8343 9.64953 10.7904 9.63048 10.7647 9.51048C10.7695 9.32001 10.7809 9.00382 10.7457 8.93715C10.6943 8.83429 10.6085 8.87048 10.5724 8.90191C10.3981 9.06382 10.3114 9.33334 10.2581 9.54953C10.2104 9.70572 10.1581 9.66001 10.1219 9.59715C10.0333 9.51334 10.0266 8.86382 9.91997 8.97143C9.74854 9.46096 10.0181 9.99715 10.2057 9.94477C10.339 10.0019 10.4247 9.74477 10.48 9.46382C10.5181 9.38477 10.5466 9.37524 10.5657 9.4162C10.5609 9.78953 10.5943 9.87334 10.6895 9.98572C10.9028 10.1514 11.08 10.0067 11.0943 9.99334L11.2609 9.82762C11.299 9.78953 11.3466 9.78572 11.399 9.82001C11.4504 9.86762 11.4438 9.94667 11.5514 10.001C11.6447 10.0391 11.84 10.0105 11.8847 9.93143C11.9466 9.82667 11.9609 9.79048 11.9895 9.75048C12.0333 9.69334 12.1085 9.71905 12.1085 9.73715C12.1019 9.77048 12.0581 9.80382 12.0876 9.86096C12.14 9.89905 12.1524 9.87429 12.1828 9.86572C12.2914 9.81429 12.3733 9.5781 12.3733 9.5781C12.3781 9.49048 12.3285 9.49715 12.2971 9.51524C12.2543 9.54096 12.2524 9.54953 12.2114 9.57524C12.1571 9.58286 12.0543 9.6181 12.0038 9.53905C11.9514 9.44382 11.9514 9.31239 11.9114 9.21524C11.9114 9.20953 11.8419 9.06572 11.9057 9.05715C11.9371 9.06286 12.0076 9.08096 12.0181 9.02286C12.0524 8.96572 11.9447 8.80382 11.8714 8.72382C11.8085 8.65429 11.7209 8.64572 11.6362 8.7162C11.5762 8.77143 11.5857 8.83239 11.5733 8.89048C11.559 8.95715 11.5619 9.04001 11.6304 9.12858C11.6895 9.24477 11.7971 9.39524 11.7609 9.60667C11.7609 9.60667 11.699 9.70762 11.5895 9.69429C11.5419 9.68477 11.4676 9.66572 11.4276 9.37048C11.399 9.14858 11.4352 8.83715 11.3419 8.69143C11.32 8.63715 11.3019 8.58382 11.2714 8.58667L11.2695 8.58191ZM10.9666 8.60667C10.9381 8.60953 10.9066 8.64286 10.8809 8.70667C10.859 8.7562 10.8314 9.01143 10.8362 9.01143C10.8171 9.08762 10.9152 9.12001 10.96 9.02286C11.0266 8.84191 11.0266 8.76572 11.0304 8.69143C11.0209 8.63429 10.9952 8.60572 10.9666 8.60762V8.60667ZM12.0838 8.62572C12.0552 8.62953 12.0314 8.64667 12.0228 8.69048C12.0104 8.79143 12.0171 8.84762 12.0343 8.93239C12.0466 8.98953 12.1295 9.08286 12.1695 9.1381C12.3628 9.3981 12.5504 9.65905 12.7295 9.92858C12.7581 10.1305 12.7771 10.3267 12.7914 10.5229C12.8219 10.9514 12.8295 11.4848 12.8038 11.9371C12.8838 11.94 13.0133 11.8067 13.0581 11.6133C13.0866 11.3429 13.0485 10.7943 13.0447 10.6343L13.0352 10.4076C13.2447 10.7505 13.4466 11.1124 13.6447 11.5086C13.7181 11.4743 13.7019 11.0657 13.66 11.0086C13.5 10.6657 13.279 10.3267 13.2095 10.1962C13.1838 10.1486 13.0971 10.0181 12.9952 9.86667C12.9762 9.64953 12.9552 9.46667 12.9419 9.41143C12.9085 9.18286 13.0352 9.43715 13.0181 9.30477C12.9762 9.0762 12.8504 8.92191 12.7019 8.71239C12.6543 8.64572 12.6543 8.63048 12.5809 8.72953C12.5381 8.82953 12.5381 8.91334 12.5524 8.99143C12.5314 8.96286 12.5076 8.93048 12.4733 8.88858L12.2304 8.68286C12.1971 8.65905 12.1324 8.62286 12.0838 8.62572ZM15.3943 8.66096C15.38 8.65905 15.3657 8.66572 15.3466 8.69143C15.3133 8.72001 15.2781 8.77429 15.28 8.84382C15.2866 8.96286 15.3085 9.08572 15.3162 9.20572L15.3257 9.25334C15.3124 9.2381 15.3009 9.22477 15.2943 9.21905C15.059 8.97143 15.4019 9.17715 15.2485 8.98762C15.12 8.84477 15.0819 8.80096 14.9724 8.71524C14.9152 8.68096 14.8828 8.61239 14.8647 8.72858C14.8571 8.83048 14.8495 8.94953 14.8552 9.03524C14.8552 9.08286 14.9057 9.17334 14.9485 9.22572C15.1047 9.41905 15.2647 9.62382 15.4247 9.83715C15.459 10.2724 15.4676 10.6714 15.5009 11.1076C15.4971 11.2943 15.44 11.5419 15.3866 11.5648C15.3866 11.5648 15.3028 11.6124 15.2476 11.56C15.2066 11.5438 15.0457 11.2905 15.0457 11.2905C14.9628 11.2143 14.9076 11.2362 14.8495 11.2905C14.6876 11.4467 14.6133 11.74 14.5038 11.9419C14.4752 11.9867 14.3962 12.0257 14.3076 11.9381C14.0819 11.6295 14.2124 11.1905 14.1857 11.3038C13.9857 11.5305 14.0733 11.9057 14.119 11.9867C14.1857 12.12 14.239 12.2057 14.3666 12.2695C14.4857 12.3552 14.5762 12.3029 14.6276 12.241C14.7457 12.1191 14.7476 11.8057 14.8028 11.7438C14.8409 11.6295 14.939 11.6486 14.9866 11.7C15.0343 11.7667 15.0876 11.8095 15.1552 11.8457C15.2657 11.9429 15.3971 11.96 15.5266 11.8714C15.6152 11.8219 15.6733 11.7571 15.7247 11.6295C15.7819 11.481 15.7533 10.7 15.7409 10.2657L15.9885 10.6238C16.0228 11.0048 16.039 11.381 16.0266 11.741C16.019 11.8124 16.2771 11.5276 16.2743 11.3924C16.2743 11.2752 16.2762 11.1676 16.2743 11.0686C16.4009 11.2686 16.5219 11.4714 16.6362 11.6781C16.7076 11.64 16.6838 11.2371 16.639 11.1829C16.519 10.981 16.3647 10.7638 16.2457 10.5943C16.2219 10.3819 16.1904 10.1314 16.1752 10.0543C16.1533 9.93429 16.1304 9.75429 16.0962 9.61239C16.0866 9.5581 16.0581 9.38096 16.0676 9.36477C16.0809 9.32381 16.1343 9.36477 16.16 9.31905C16.1981 9.2762 16.0247 8.82382 15.9362 8.6962C15.9047 8.63905 15.8466 8.6581 15.7762 8.75334C15.7095 8.81429 15.7343 8.95524 15.759 9.08953C15.8238 9.43239 15.8828 9.77905 15.9285 10.1276C15.8428 9.99905 15.7381 9.84477 15.6352 9.69715L15.6219 9.63048C15.6219 9.62286 15.6085 9.34953 15.5962 9.28477C15.5933 9.2581 15.5866 9.25048 15.6152 9.25429C15.6438 9.27905 15.6476 9.28001 15.6657 9.28858C15.6962 9.29239 15.7228 9.24286 15.7038 9.1962L15.4276 8.68762C15.4181 8.67524 15.4047 8.66382 15.3895 8.66191L15.3943 8.66096ZM6.8514 8.67048C6.79902 8.66858 6.74378 8.69905 6.76569 8.76096C6.75235 8.79429 6.86473 8.90667 6.88473 8.96858C6.90092 9.01334 6.86569 9.15429 6.90378 9.16858C6.93711 9.18286 6.98378 9.06953 7.00092 8.96572C7.01045 8.90858 7.00378 8.71239 6.87045 8.67239C6.86378 8.67048 6.85711 8.67048 6.8495 8.66953L6.8514 8.67048ZM16.5847 8.67048C16.5724 8.67239 16.5581 8.68953 16.5371 8.73715C16.4847 8.82286 16.4666 8.97524 16.4876 9.10858C16.6114 9.9562 16.7066 10.7771 16.7257 11.5276C16.7143 11.6 16.7104 11.6381 16.6781 11.7276C16.6038 11.8229 16.5219 11.941 16.4447 11.9981C16.3685 12.0552 16.2047 12.1105 16.1514 12.1524C15.98 12.2495 15.98 12.3619 16.1171 12.3667C16.3533 12.3381 16.6333 12.3191 16.8257 12.0286C16.8771 11.9476 16.9381 11.7267 16.94 11.5905C16.959 10.8 16.9304 10.0238 16.8114 9.45143C16.8038 9.39429 16.779 9.26762 16.7885 9.25143C16.8028 9.21143 16.88 9.25429 16.9076 9.20953C16.9485 9.16762 16.7076 8.86001 16.6238 8.72858C16.6066 8.6962 16.5952 8.66858 16.5819 8.67143L16.5847 8.67048ZM14.1057 8.68382C14.0962 8.68572 14.0828 8.70096 14.0562 8.7362C13.9895 8.95143 13.9666 9.12667 13.9924 9.26191C14.1638 10.1476 14.3352 10.9524 14.3085 11.7952C14.3885 11.7952 14.4819 11.6114 14.5219 11.4286C14.5438 11.1762 14.5066 11.0229 14.5009 10.8762C14.4943 10.7276 14.3333 9.52762 14.3009 9.4162C14.2609 9.20477 14.4571 9.38762 14.4362 9.26572C14.3676 9.10953 14.1981 8.88477 14.1466 8.74858C14.1276 8.71239 14.1238 8.67905 14.1085 8.68191L14.1057 8.68382ZM8.07331 8.70096C8.05426 8.70477 8.03235 8.72191 8.02569 8.74858C8.02092 8.76762 8.03331 8.79905 8.01616 8.80858C8.00664 8.8181 7.97045 8.81143 7.97235 8.76096C7.97235 8.74382 7.95997 8.72667 7.95331 8.7162C7.94569 8.71239 7.94092 8.71143 7.92759 8.71143C7.9114 8.71143 7.9114 8.7162 7.90283 8.73048C7.89902 8.74382 7.89331 8.75715 7.89331 8.77239C7.8914 8.79143 7.88378 8.7962 7.8714 8.79905C7.85616 8.79905 7.85902 8.80096 7.84759 8.79239C7.83807 8.78572 7.83045 8.78286 7.83045 8.76953C7.83045 8.75524 7.82664 8.73143 7.82283 8.72382C7.81616 8.71429 7.80569 8.71048 7.79426 8.70762C7.7314 8.70762 7.72759 8.78191 7.73045 8.80858C7.72569 8.81429 7.72378 8.94191 7.8095 8.9781C7.92378 9.03334 8.14092 9.00953 8.13331 8.82382C8.13331 8.80762 8.12854 8.75239 8.12664 8.7381C8.11521 8.70953 8.09331 8.70001 8.07235 8.70286L8.07331 8.70096ZM9.62188 8.70286C9.58188 8.70477 9.54569 8.7162 9.51712 8.73143C9.44092 8.80477 9.42188 8.92191 9.48283 8.99524C9.53997 9.02381 9.59997 9.08096 9.56092 9.11429C9.39521 9.29048 8.96378 9.58667 8.94188 9.64096V9.64667H8.94569V9.64858C8.96759 9.66286 9.23807 9.66286 9.26759 9.64858H9.2695C9.36283 9.61334 9.80283 9.11048 9.80283 9.11048C9.77997 9.09143 9.75902 9.0762 9.73616 9.0562C9.7114 9.03524 9.71426 9.01429 9.73616 8.99334C9.84473 8.93048 9.81045 8.79048 9.75331 8.72667C9.70569 8.70572 9.66188 8.6981 9.62188 8.70096V8.70286ZM13.6695 8.70286C13.6581 8.70572 13.6438 8.72191 13.6219 8.76953C13.5695 8.85524 13.5343 9.00286 13.539 9.14096C13.6514 9.92191 13.6857 10.6048 13.76 11.3857C13.7657 11.4619 13.7543 11.5705 13.7047 11.6143C13.5181 11.8086 13.2504 12.0467 12.959 12.1571C12.9276 12.1924 13.0371 12.3419 13.1781 12.3419C13.4143 12.3133 13.6219 12.1819 13.8162 11.8324C13.8666 11.7514 13.9571 11.5771 13.959 11.4419C13.9781 10.6495 13.9209 10.0324 13.8009 9.46096C13.7943 9.40382 13.799 9.33715 13.8085 9.32191C13.8238 9.30286 13.8752 9.32191 13.9038 9.27715C13.9438 9.23524 13.7952 8.89334 13.7114 8.76286C13.6943 8.72953 13.6847 8.70286 13.6695 8.70382V8.70286ZM7.39902 8.72858C7.36664 8.73239 7.33616 8.75715 7.32092 8.79524C7.31616 8.91905 7.31521 9.04286 7.33045 9.15905C7.38759 9.36191 7.40378 9.54001 7.4314 9.74667C7.44092 10.0248 7.2714 9.86667 7.27902 9.72953C7.31712 9.55048 7.30759 9.26953 7.27331 9.1981C7.24473 9.12667 7.21426 9.10953 7.14759 9.12191C7.09521 9.1181 6.95902 9.26477 6.92092 9.51239C6.92092 9.51239 6.88854 9.6381 6.87521 9.75048C6.85616 9.87715 6.77235 9.96762 6.71331 9.73334C6.66283 9.56191 6.63235 9.14286 6.54759 9.24001C6.52283 9.56762 6.49426 10.1448 6.77235 10.2038C7.1095 10.2362 6.92283 9.63429 7.04473 9.52477C7.06854 9.47239 7.1114 9.47143 7.11426 9.53905V10.0505C7.11045 10.2162 7.21902 10.2657 7.30473 10.3C7.39331 10.2933 7.4514 10.2962 7.48569 10.3819L7.52854 11.2676C7.52854 11.2676 7.73235 11.3248 7.74188 10.7695C7.7514 10.4429 7.67521 10.1695 7.71997 10.1057C7.72188 10.0429 7.80188 10.0391 7.85712 10.0705C7.94569 10.1324 7.98473 10.2086 8.12188 10.1781C8.3314 10.121 8.45521 10.02 8.45807 9.86001C8.44854 9.70762 8.4295 9.55524 8.36283 9.40286C8.37235 9.3762 8.32473 9.30477 8.33426 9.27715C8.37045 9.33429 8.42759 9.33048 8.43902 9.27715C8.40473 9.16001 8.3495 9.04858 8.25997 9.00096C8.18664 8.93429 8.07902 8.94858 8.03902 9.08382C8.01997 9.24001 8.09616 9.42477 8.21045 9.5762C8.23331 9.63524 8.26759 9.73334 8.25235 9.82191C8.19235 9.8562 8.13235 9.84096 8.08092 9.78858C8.08092 9.78858 7.91616 9.66477 7.91616 9.6362C7.96092 9.35524 7.92569 9.32191 7.90188 9.24572C7.88473 9.13715 7.83331 9.10286 7.79235 9.02858C7.75045 8.98382 7.69426 8.98382 7.66854 9.02858C7.59426 9.15524 7.62854 9.42858 7.68188 9.54953C7.71997 9.66191 7.77902 9.73239 7.7514 9.73239C7.72854 9.79429 7.68092 9.78001 7.64664 9.70667C7.59902 9.55429 7.58759 9.32953 7.58759 9.22762C7.57331 9.10191 7.55712 8.83239 7.47331 8.76382C7.4514 8.73334 7.42569 8.72286 7.39997 8.72572L7.39902 8.72858ZM8.58188 8.72858C8.56569 8.73239 8.54664 8.74191 8.52473 8.74762C8.45331 8.76953 8.38664 8.83143 8.40759 8.95143C8.49331 9.46572 8.54759 9.85905 8.63235 10.3733C8.64473 10.4343 8.59426 10.5133 8.5295 10.5067C8.41902 10.4305 8.3914 10.2781 8.20283 10.2857C8.06569 10.2857 7.9095 10.4362 7.89045 10.5791C7.86759 10.6933 7.85997 10.8171 7.89045 10.9162C7.98569 11.0305 8.10188 11.0191 8.20283 10.9924C8.28569 10.9591 8.35521 10.8781 8.38378 10.8971C8.40283 10.9286 8.38188 11.1962 7.99331 11.4019C7.75331 11.5105 7.56283 11.5352 7.45997 11.341C7.39711 11.2191 7.46569 10.7543 7.3095 10.861C6.84664 12.0533 8.39235 12.2191 8.56473 10.9105C8.57616 10.8724 8.6095 10.8362 8.63426 10.8457C8.64378 10.8505 8.65331 10.8648 8.65711 10.8914C8.62092 12.0762 7.46092 12.1581 7.26473 11.7848C7.21521 11.6971 7.20092 11.501 7.19616 11.3848C7.18664 11.3133 7.1695 11.2724 7.14854 11.2562C7.10092 11.221 7.03807 11.3133 7.02473 11.4724C7.00569 11.601 7.01045 11.6362 7.01045 11.76C7.07331 12.6962 8.56569 12.2933 8.80854 11.5219C8.92854 11.1219 8.80569 10.82 8.84664 10.7829L8.8495 10.781H8.85235L8.85711 10.7791C9.00569 10.9391 9.21331 10.7981 9.25902 10.7438C9.27807 10.7152 9.32759 10.6962 9.36188 10.7343C9.47616 10.8162 9.67997 10.7771 9.72188 10.6295C9.74664 10.4867 9.76759 10.34 9.77235 10.1867C9.69616 10.2105 9.63521 10.2276 9.61045 10.2533C9.60473 10.26 9.60092 10.2676 9.59902 10.2752L9.57997 10.4019C9.57997 10.4067 9.57807 10.4095 9.57616 10.4114C9.57331 10.4181 9.56664 10.4229 9.56283 10.4257C9.53616 10.44 9.4895 10.4324 9.48664 10.3933C9.4514 10.2314 9.30378 10.2105 9.21426 10.4629C9.15426 10.5105 9.04283 10.52 9.03331 10.4476C9.04759 10.2781 8.97902 10.2552 8.84283 10.3352L8.7114 9.34477C8.76854 9.34191 8.81997 9.38286 8.87331 9.3181C8.81616 9.14286 8.69711 8.78667 8.6295 8.75239H8.62759L8.61807 8.74286C8.61807 8.74096 8.61521 8.74001 8.61331 8.73905L8.6095 8.73334C8.60569 8.73334 8.60188 8.73143 8.59997 8.73048C8.59331 8.72858 8.58759 8.72858 8.58092 8.72858H8.58188ZM13.1933 8.73239C13.1343 8.73048 13.0695 8.76762 13.0943 8.84191C13.079 8.88286 13.2209 9.02001 13.2438 9.09429C13.2847 9.20858 13.2124 9.32001 13.2552 9.3362C13.2952 9.35334 13.3504 9.21715 13.3695 9.09048C13.3943 8.98762 13.3219 8.7781 13.2171 8.73524L13.1933 8.73334V8.73239ZM9.59997 8.85715C9.62664 8.85524 9.65902 8.88001 9.67616 8.91429C9.69235 8.95239 9.68378 8.98762 9.65712 8.99429C9.62854 9.00096 9.59235 8.97715 9.57521 8.93905C9.55807 8.90096 9.56569 8.86572 9.59426 8.85905H9.59997V8.85715ZM16.2638 9.03048C16.2095 9.02858 16.1495 9.06858 16.1743 9.14953C16.1609 9.19334 16.2885 9.34191 16.3104 9.42382C16.3295 9.48096 16.2819 9.66762 16.32 9.68477C16.3562 9.70381 16.4057 9.55524 16.4247 9.4181C16.4362 9.34191 16.3809 9.08001 16.2866 9.03334C16.28 9.03143 16.2724 9.02953 16.2647 9.02953L16.2638 9.03048ZM12.5781 9.12191C12.5847 9.14382 12.5895 9.16572 12.5924 9.18858C12.6038 9.2362 12.6133 9.28381 12.6228 9.33334C12.5809 9.27429 12.5466 9.22667 12.5304 9.20953C12.4352 9.09524 12.5324 9.13524 12.5781 9.12191ZM13.4285 9.53905C13.4076 9.54286 13.3876 9.56096 13.3809 9.58953C13.3752 9.60667 13.3885 9.63715 13.3714 9.64667C13.3619 9.6562 13.3238 9.65048 13.3266 9.59905C13.3266 9.58191 13.3143 9.56382 13.3076 9.55429C13.3 9.54953 13.2952 9.54762 13.2819 9.54762C13.2657 9.54762 13.2657 9.55239 13.2571 9.56667C13.2533 9.58001 13.2476 9.59334 13.2476 9.60953C13.2476 9.62858 13.24 9.63429 13.2266 9.6381C13.2114 9.6381 13.2143 9.6381 13.2019 9.63143C13.1943 9.62191 13.1857 9.62001 13.1857 9.60667C13.1857 9.59239 13.1828 9.57048 13.1781 9.56096C13.1714 9.55143 13.1619 9.54858 13.1495 9.54477C13.0876 9.54477 13.0828 9.61715 13.0866 9.64382C13.0828 9.64953 13.08 9.77905 13.1657 9.81524C13.2819 9.86953 13.499 9.84381 13.4895 9.65905C13.4895 9.64286 13.4847 9.58762 13.4838 9.57334C13.4714 9.54477 13.4495 9.53524 13.4295 9.5381L13.4285 9.53905ZM9.55235 9.57715C9.53902 9.57715 9.51997 9.58096 9.49807 9.59429C9.39616 9.64953 9.35712 9.81334 9.42188 9.90858C9.47902 9.99429 9.57426 9.96286 9.58664 9.96286C9.68664 9.9762 9.74569 9.7762 9.74569 9.7762C9.74569 9.7762 9.74854 9.71905 9.6314 9.82572C9.57997 9.83524 9.57426 9.8162 9.56092 9.78762C9.5495 9.73715 9.5514 9.68286 9.57521 9.63239C9.58664 9.60096 9.57521 9.58096 9.55235 9.57905V9.57715ZM15.0314 9.60286C14.9743 9.60001 14.9143 9.63715 14.8981 9.71429C14.8981 9.76001 14.919 9.78477 14.9152 9.82667C14.9104 9.85048 14.8866 9.86477 14.8276 9.8381C14.8371 9.82858 14.7895 9.76382 14.7895 9.76382C14.7447 9.73524 14.6847 9.76381 14.6447 9.79048C14.6228 9.83048 14.6066 9.8981 14.6314 9.96667C14.6962 10.0876 14.92 10.2933 15.0266 10.2952C15.0285 10.1867 15.039 10.0419 15.0457 9.95239C15.0476 9.9181 15.0552 9.88096 15.0885 9.87239C15.1209 9.86286 15.1771 9.90477 15.1771 9.86953C15.1714 9.80096 15.1581 9.6981 15.12 9.65048C15.099 9.62191 15.0657 9.60477 15.0324 9.60286H15.0314ZM10.4952 9.98096L10.4924 9.98381C10.4924 9.98381 10.4904 9.98382 10.4895 9.98572C10.4781 9.99524 10.4647 10.0143 10.4352 10.0333C10.3847 10.0905 10.3762 10.1314 10.3781 10.2457C10.3819 10.2581 10.4733 10.5152 10.5524 10.6952C10.6057 10.8829 10.6543 11.0981 10.619 11.301C10.4952 11.5695 10.2476 11.8105 10.0066 11.9419C9.88283 11.98 9.77807 11.9667 9.7495 11.94C9.67902 11.8924 9.67807 11.8067 9.68283 11.7933V11.7905C9.88473 11.6495 10.1162 11.5352 10.2971 11.1552C10.3504 11.0095 10.3676 10.9219 10.3143 10.6981C10.2933 10.6124 10.2666 10.5457 10.2095 10.4848H10.2114C10.2457 10.4686 10.3352 10.5343 10.3495 10.4943C10.3276 10.3857 10.2543 10.2419 10.1733 10.1676C10.1009 10.101 10.0209 10.0943 9.95616 10.1543C9.88188 10.1962 9.86664 10.3448 9.90188 10.4743C9.94188 10.5714 10.0495 10.5886 10.1257 10.7857C10.1276 10.7991 10.1514 10.9333 10.1133 10.9886C10.0809 11.0857 9.67997 11.4019 9.6514 11.421L9.64854 11.4229L9.64664 11.4248H9.64283V11.4219C9.64092 11.4143 9.64283 11.3933 9.64283 11.3619C9.63997 11.3029 9.66473 11.1686 9.66188 11.1448V11.1429C9.52854 11.2286 9.48378 11.4905 9.45997 11.5686C9.12378 11.8 8.74283 11.9724 8.52283 12.2067C8.40854 12.3876 9.3114 12.0029 9.41616 11.9562L9.41902 11.9591C9.43997 11.981 9.44092 12.0571 9.50092 12.1267C9.59616 12.2533 9.79426 12.3314 9.98854 12.2829C10.3143 12.1657 10.5028 11.9438 10.6933 11.6971C10.72 11.6591 10.7628 11.6267 10.8028 11.6571C10.9333 11.9505 11.3124 12.16 11.8009 12.181C11.9152 12.0438 11.8609 11.9762 11.8152 11.9476C11.8009 11.9381 11.5724 11.8486 11.5362 11.76C11.5143 11.6781 11.5685 11.6048 11.6771 11.5505C11.9914 11.5124 12.3 11.4695 12.599 11.3733C12.6019 11.2724 12.6609 11.1229 12.7009 11.0571C12.7295 11.0124 12.7457 11.0076 12.7524 11.0019V11H12.7543V10.9876L12.7028 10.9571L11.7 10.9533C11.6876 10.9486 11.679 10.9438 11.6733 10.9391L11.6714 10.9362C11.6714 10.9362 11.6695 10.9362 11.6695 10.9343C11.6695 10.9324 11.6676 10.9324 11.6676 10.9324V10.9333V10.9276L11.6695 10.9248C11.6743 10.9191 11.6866 10.9124 11.7009 10.9057C11.9409 10.8743 12.3657 10.8048 12.3943 10.3962C12.3895 10.1829 12.3028 10.0438 12.0419 10.0057C11.8495 10.02 11.7124 10.2057 11.7343 10.4095C11.7247 10.4638 11.7533 10.5714 11.6962 10.5838C11.3285 10.6181 10.9266 10.8486 10.9133 11.0143H10.9076C10.9076 11.0162 10.9057 11.0162 10.9047 11.0162H10.8952C10.8714 11.0086 10.8409 10.9686 10.8457 10.9143C10.8314 10.6286 10.7381 10.3048 10.5933 10.0571C10.5409 10.0048 10.5171 9.98382 10.5038 9.98096H10.4952ZM11.4552 10.1314C11.4362 10.1352 11.4143 10.1524 11.4076 10.181C11.4028 10.2 11.4171 10.2305 11.4 10.24C11.3904 10.2495 11.3524 10.2438 11.3543 10.1924C11.3543 10.1762 11.3419 10.1581 11.3352 10.1476C11.3276 10.1429 11.3228 10.1419 11.3104 10.1419C11.2943 10.1419 11.2933 10.1457 11.2847 10.1591C11.28 10.1724 11.2752 10.1876 11.2752 10.2019C11.2733 10.221 11.2657 10.2267 11.2533 10.2286C11.2381 10.2286 11.2419 10.2314 11.2295 10.2238C11.2219 10.2162 11.2124 10.2124 11.2124 10.1991C11.2124 10.1848 11.2095 10.161 11.2057 10.1514C11.199 10.1448 11.1885 10.1419 11.1771 10.1381C11.1133 10.1381 11.1104 10.2095 11.1133 10.2371C11.1085 10.2419 11.1057 10.3705 11.1914 10.4067C11.3057 10.4619 11.5819 10.4295 11.5152 10.2514C11.5152 10.2352 11.5104 10.18 11.5095 10.1657C11.4971 10.1371 11.4752 10.1276 11.4543 10.1305L11.4552 10.1314ZM15.3266 10.2905H15.3171C15.3171 10.2905 14.7819 10.6714 14.7695 10.6848C14.7162 10.7324 14.7428 10.8971 14.7695 10.8781C14.8076 10.8924 15.3457 10.5276 15.3352 10.4848C15.359 10.4867 15.3704 10.2971 15.3257 10.2895L15.3266 10.2905ZM11.9609 10.3476C11.9819 10.3448 12.0104 10.3524 12.0371 10.3667C12.0781 10.3914 12.1038 10.4257 12.099 10.4524V10.4562C12.0971 10.4562 12.0971 10.4562 12.0971 10.4581V10.46C12.0971 10.46 12.0952 10.46 12.0952 10.4619C12.0952 10.4638 12.0924 10.4657 12.0904 10.4676C12.0714 10.4867 12.0276 10.4829 11.9857 10.4581C11.9457 10.4362 11.9219 10.401 11.9238 10.3762V10.3733L11.9285 10.3638C11.9285 10.3638 11.9285 10.3619 11.9304 10.361L11.9352 10.3552C11.9419 10.3505 11.9504 10.3457 11.9609 10.3457V10.3476ZM7.27711 10.4429C7.00092 10.4486 6.59426 10.8067 6.58378 11.0048L7.45997 10.5857C7.41235 10.5133 7.45711 10.4486 7.27711 10.4429ZM8.17521 10.5667C8.20188 10.5686 8.23045 10.5819 8.24569 10.62C8.25902 10.6552 8.24569 10.6914 8.2295 10.7095V10.7124C8.21616 10.7276 8.17616 10.7219 8.14664 10.7219C8.1114 10.72 8.09426 10.7143 8.07331 10.6857C8.06188 10.6524 8.09235 10.621 8.10664 10.5981L8.11331 10.5886C8.12283 10.5791 8.14188 10.5714 8.16092 10.5695L8.17331 10.5676L8.17521 10.5667ZM15.2228 10.6781C15.1724 10.6838 15.1257 10.7305 15.1466 10.8048C15.1333 10.8486 15.2133 11.0019 15.2352 11.0829C15.2543 11.14 15.2104 11.3048 15.2495 11.321C15.2857 11.34 15.38 11.2257 15.3771 11.0791C15.3866 11.0029 15.3504 10.7267 15.2562 10.681C15.2447 10.6781 15.2333 10.6771 15.2219 10.6781H15.2228ZM9.23807 10.9486C9.19426 10.9514 9.15521 10.9743 9.17331 11.0362C9.17045 11.08 9.29712 11.1343 9.30378 11.2362C9.32092 11.28 9.27521 11.4171 9.31331 11.4286C9.34759 11.4429 9.39521 11.3333 9.41331 11.2343C9.42283 11.1791 9.3695 10.9867 9.27997 10.9514C9.26569 10.9476 9.2514 10.9467 9.23711 10.9476L9.23807 10.9486ZM11.0285 11.1924H11.04C11.1524 11.2229 11.3162 11.2267 11.459 11.24C11.5762 11.2495 11.6333 11.3391 11.5257 11.3781C11.4171 11.4143 11.3133 11.4448 11.3133 11.5991C11.3266 11.6752 11.3228 11.7152 11.3114 11.7324C11.3114 11.7352 11.3085 11.7371 11.3076 11.7381C11.3076 11.7381 11.3076 11.74 11.3057 11.74V11.7419H11.3028L11.2962 11.7448H11.2914C11.2657 11.7495 11.2285 11.7257 11.2009 11.7105C11.1343 11.6629 10.9485 11.5486 10.9219 11.301C10.9181 11.2438 10.96 11.1962 11.0266 11.1914L11.0285 11.1924ZM6.65331 11.3829C6.64664 11.3829 6.63426 11.4038 6.61521 11.4276C6.4495 11.6895 6.43426 12.081 6.52569 12.1991C6.57331 12.2533 6.65331 12.2781 6.71235 12.261C6.81711 12.2162 6.86188 12.0057 6.83616 11.9295C6.80283 11.8752 6.77521 11.8667 6.74092 11.9124C6.66759 12.06 6.63616 11.9581 6.6314 11.8743C6.61997 11.7191 6.63521 11.5743 6.65235 11.46C6.66188 11.4029 6.66188 11.381 6.65235 11.381L6.65331 11.3829ZM12.2695 11.7276C12.2571 11.7276 12.2447 11.7295 12.2314 11.7371C12.2285 11.7371 12.1133 11.8133 12.0762 11.8686C12.0533 11.8857 12.0571 11.9 12.0628 11.9305C12.08 11.9714 12.1104 11.9591 12.1466 11.94C12.1943 11.9324 12.2162 11.9638 12.2133 12.02C12.1914 12.0914 12.2228 12.1171 12.2228 12.1219C12.2228 12.1257 12.2676 12.1648 12.3209 12.1343C12.4324 12.0914 12.5019 12.0486 12.659 12.0152C12.7 12.0152 12.6971 11.9048 12.6324 11.901C12.5466 11.9048 12.4704 11.9105 12.3847 11.9771C12.3324 11.9886 12.3238 11.9562 12.3114 11.9276C12.2981 11.8571 12.3419 11.8076 12.3324 11.7543C12.3343 11.7571 12.3057 11.7314 12.2685 11.7295L12.2695 11.7276ZM15.8657 11.861L15.7895 11.8686C15.7552 11.8752 15.7438 11.8905 15.7371 11.9324C15.74 11.9943 15.7781 11.9914 15.8181 12.0162C15.8409 12.0448 15.8562 12.0714 15.8162 12.121C15.7781 12.1543 15.7524 12.1733 15.7143 12.2067C15.6981 12.2371 15.6857 12.2829 15.7409 12.2981C15.8409 12.3267 16.0724 12.1762 16.0724 12.1743C16.1104 12.1457 16.0971 12.0914 16.0943 12.0914C16.0714 12.0667 16.0219 12.0819 15.9895 12.0771C15.9733 12.0771 15.9228 12.0695 15.9457 12.0238C15.9666 11.9952 15.9743 11.9791 15.9885 11.9438C16.0028 11.9095 15.9885 11.8867 15.9333 11.8676C15.9047 11.8619 15.8857 11.86 15.8638 11.861H15.8657ZM14.4819 15.5371C14.739 15.5495 14.979 15.54 15.2343 15.5524C15.2762 15.5867 15.2562 15.6667 15.2295 15.68L15.2247 15.6819H15.2181L15.0028 15.6762V15.6638C14.9819 15.6048 14.839 15.6086 14.8047 15.6543V15.6571C14.8028 15.6571 14.8019 15.66 14.8019 15.661L14.8 15.6657V15.6771C14.6857 15.6914 14.5857 15.6733 14.4733 15.6695C14.44 15.6286 14.4447 15.5552 14.4828 15.5362L14.4819 15.5371Z" fill="white"/>
</g>
<defs>
<filter id="filter0_dd_9267_40232" x="0.833819" y="4.46845" width="22.3324" height="16.618" filterUnits="userSpaceOnUse" color-interpolation-filters="sRGB">
<feFlood flood-opacity="0" result="BackgroundImageFix"/>
<feColorMatrix in="SourceAlpha" type="matrix" values="0 0 0 0 0 0 0 0 0 0 0 0 0 0 0 0 0 0 127 0" result="hardAlpha"/>
<feOffset dy="0.777454"/>
<feGaussianBlur stdDeviation="0.58309"/>
<feComposite in2="hardAlpha" operator="out"/>
<feColorMatrix type="matrix" values="0 0 0 0 0.258824 0 0 0 0 0.278431 0 0 0 0 0.298039 0 0 0 0.08 0"/>
<feBlend mode="normal" in2="BackgroundImageFix" result="effect1_dropShadow_9267_40232"/>
<feColorMatrix in="SourceAlpha" type="matrix" values="0 0 0 0 0 0 0 0 0 0 0 0 0 0 0 0 0 0 127 0" result="hardAlpha"/>
<feOffset/>
<feGaussianBlur stdDeviation="0.0485909"/>
<feComposite in2="hardAlpha" operator="out"/>
<feColorMatrix type="matrix" values="0 0 0 0 0.258824 0 0 0 0 0.278431 0 0 0 0 0.298039 0 0 0 0.32 0"/>
<feBlend mode="normal" in2="effect1_dropShadow_9267_40232" result="effect2_dropShadow_9267_40232"/>
<feBlend mode="normal" in="SourceGraphic" in2="effect2_dropShadow_9267_40232" result="shape"/>
</filter>
</defs>
</svg>
