<svg width="24" height="24" viewBox="0 0 24 24" fill="none" xmlns="http://www.w3.org/2000/svg">
<g filter="url(#filter0_dd_9267_40252)">
<g clip-path="url(#clip0_9267_40252)">
<rect x="2" y="4.85718" width="20" height="14.2857" rx="1.55491" fill="#1A47B8"/>
<path d="M22.0003 4.85718H2.00031V11.5238H22.0003V4.85718Z" fill="#F93939"/>
<path fill-rule="evenodd" clip-rule="evenodd" d="M2.00031 4.85718L11.5241 12L2.00031 19.1429V4.85718Z" fill="white"/>
<path d="M5.80977 14.381C6.33576 14.381 6.76215 13.5282 6.76215 12.4762C6.76215 11.4243 6.33576 10.5715 5.80977 10.5715C5.28379 10.5715 4.85739 11.4243 4.85739 12.4762C4.85739 13.5282 5.28379 14.381 5.80977 14.381Z" fill="#3ECBF8"/>
<path fill-rule="evenodd" clip-rule="evenodd" d="M4.85741 11.5239V13.4286H6.76217V11.5239L7.71455 13.4286L6.76217 14.381H4.85741L3.90503 13.4286L4.85741 11.5239Z" fill="#FFDA2C"/>
<path fill-rule="evenodd" clip-rule="evenodd" d="M2.95257 9.61911H4.85733L5.80977 10.5715L6.7621 9.61911H8.66686L6.7621 10.5715H4.85733L2.95257 9.61911Z" fill="#AE6A3E"/>
</g>
</g>
<defs>
<filter id="filter0_dd_9267_40252" x="0.833819" y="4.46845" width="22.3324" height="16.618" filterUnits="userSpaceOnUse" color-interpolation-filters="sRGB">
<feFlood flood-opacity="0" result="BackgroundImageFix"/>
<feColorMatrix in="SourceAlpha" type="matrix" values="0 0 0 0 0 0 0 0 0 0 0 0 0 0 0 0 0 0 127 0" result="hardAlpha"/>
<feOffset dy="0.777454"/>
<feGaussianBlur stdDeviation="0.58309"/>
<feComposite in2="hardAlpha" operator="out"/>
<feColorMatrix type="matrix" values="0 0 0 0 0.258824 0 0 0 0 0.278431 0 0 0 0 0.298039 0 0 0 0.08 0"/>
<feBlend mode="normal" in2="BackgroundImageFix" result="effect1_dropShadow_9267_40252"/>
<feColorMatrix in="SourceAlpha" type="matrix" values="0 0 0 0 0 0 0 0 0 0 0 0 0 0 0 0 0 0 127 0" result="hardAlpha"/>
<feOffset/>
<feGaussianBlur stdDeviation="0.0485909"/>
<feComposite in2="hardAlpha" operator="out"/>
<feColorMatrix type="matrix" values="0 0 0 0 0.258824 0 0 0 0 0.278431 0 0 0 0 0.298039 0 0 0 0.32 0"/>
<feBlend mode="normal" in2="effect1_dropShadow_9267_40252" result="effect2_dropShadow_9267_40252"/>
<feBlend mode="normal" in="SourceGraphic" in2="effect2_dropShadow_9267_40252" result="shape"/>
</filter>
<clipPath id="clip0_9267_40252">
<rect x="2" y="4.85718" width="20" height="14.2857" rx="1.55491" fill="white"/>
</clipPath>
</defs>
</svg>
