<svg width="24" height="24" viewBox="0 0 24 24" fill="none" xmlns="http://www.w3.org/2000/svg">
<g filter="url(#filter0_dd_9267_40239)">
<g clip-path="url(#clip0_9267_40239)">
<rect x="2" y="4.85718" width="20" height="14.2857" rx="1.55491" fill="#1A47B8"/>
<path fill-rule="evenodd" clip-rule="evenodd" d="M2 14.381H22V19.1429H2V14.381Z" fill="#F93939"/>
<path fill-rule="evenodd" clip-rule="evenodd" d="M2 4.85718H22V9.61908H2V4.85718Z" fill="white"/>
<path d="M8.19046 7.71431H6.2857C5.75971 7.71431 5.33331 8.14071 5.33331 8.66669V11.0476C5.33331 11.5736 5.75971 12 6.2857 12H8.19046C8.71644 12 9.14284 11.5736 9.14284 11.0476V8.66669C9.14284 8.14071 8.71644 7.71431 8.19046 7.71431Z" fill="#F93939"/>
<path d="M7.71421 7.71431H6.76183C6.23584 7.71431 5.80945 8.14071 5.80945 8.66669V10.5715C5.80945 11.0974 6.23584 11.5238 6.76183 11.5238H7.71421C8.2402 11.5238 8.66659 11.0974 8.66659 10.5715V8.66669C8.66659 8.14071 8.2402 7.71431 7.71421 7.71431Z" fill="#1A47B8"/>
<path fill-rule="evenodd" clip-rule="evenodd" d="M5.80945 10.5715L7.23802 10.0953L8.66659 10.5715L7.71421 11.5238H6.76183L5.80945 10.5715Z" fill="white"/>
<path fill-rule="evenodd" clip-rule="evenodd" d="M6.7619 8.66672H7.71429V9.6191H6.7619V8.66672Z" fill="#FFDA2C"/>
</g>
</g>
<defs>
<filter id="filter0_dd_9267_40239" x="0.833819" y="4.46845" width="22.3324" height="16.618" filterUnits="userSpaceOnUse" color-interpolation-filters="sRGB">
<feFlood flood-opacity="0" result="BackgroundImageFix"/>
<feColorMatrix in="SourceAlpha" type="matrix" values="0 0 0 0 0 0 0 0 0 0 0 0 0 0 0 0 0 0 127 0" result="hardAlpha"/>
<feOffset dy="0.777454"/>
<feGaussianBlur stdDeviation="0.58309"/>
<feComposite in2="hardAlpha" operator="out"/>
<feColorMatrix type="matrix" values="0 0 0 0 0.258824 0 0 0 0 0.278431 0 0 0 0 0.298039 0 0 0 0.08 0"/>
<feBlend mode="normal" in2="BackgroundImageFix" result="effect1_dropShadow_9267_40239"/>
<feColorMatrix in="SourceAlpha" type="matrix" values="0 0 0 0 0 0 0 0 0 0 0 0 0 0 0 0 0 0 127 0" result="hardAlpha"/>
<feOffset/>
<feGaussianBlur stdDeviation="0.0485909"/>
<feComposite in2="hardAlpha" operator="out"/>
<feColorMatrix type="matrix" values="0 0 0 0 0.258824 0 0 0 0 0.278431 0 0 0 0 0.298039 0 0 0 0.32 0"/>
<feBlend mode="normal" in2="effect1_dropShadow_9267_40239" result="effect2_dropShadow_9267_40239"/>
<feBlend mode="normal" in="SourceGraphic" in2="effect2_dropShadow_9267_40239" result="shape"/>
</filter>
<clipPath id="clip0_9267_40239">
<rect x="2" y="4.85718" width="20" height="14.2857" rx="1.55491" fill="white"/>
</clipPath>
</defs>
</svg>
