<svg width="24" height="24" viewBox="0 0 24 24" fill="none" xmlns="http://www.w3.org/2000/svg">
<g filter="url(#filter0_dd_9267_40240)">
<g clip-path="url(#clip0_9267_40240)">
<rect x="2" y="4.85718" width="20" height="14.2857" rx="1.55491" fill="#1A47B8"/>
<path fill-rule="evenodd" clip-rule="evenodd" d="M2 19.1429H22V4.85718L2 19.1429Z" fill="#FFDA2C"/>
<path fill-rule="evenodd" clip-rule="evenodd" d="M3.90482 19.1429L22 19.1429L22.0001 6.76197L3.90482 19.1429Z" fill="#249F58"/>
<path fill-rule="evenodd" clip-rule="evenodd" d="M6.87822 10.2458L6.28965 10.5715L6.40203 9.88197L5.92584 9.39435L6.58298 9.2934L6.87822 8.66673L7.17346 9.2934L7.8306 9.39435L7.35441 9.88197L7.46679 10.5715L6.87822 10.2458ZM4.97346 8.34102L4.38489 8.66673L4.49727 7.97721L4.02108 7.48959L4.67822 7.38864L4.97346 6.76197L5.2687 7.38864L5.92584 7.48959L5.44965 7.97721L5.56203 8.66673L4.97346 8.34102ZM8.78298 8.34102L8.19441 8.66673L8.30679 7.97721L7.8306 7.48959L8.48774 7.38864L8.78298 6.76197L9.07822 7.38864L9.73536 7.48959L9.25917 7.97721L9.37155 8.66673L8.78298 8.34102ZM8.78298 12.1505L8.19441 12.4763L8.30679 11.7867L7.8306 11.2991L8.48774 11.1982L8.78298 10.5715L9.07822 11.1982L9.73536 11.2991L9.25917 11.7867L9.37155 12.4763L8.78298 12.1505ZM4.97346 12.1505L4.38489 12.4763L4.49727 11.7867L4.02108 11.2991L4.67822 11.1982L4.97346 10.5715L5.2687 11.1982L5.92584 11.2991L5.44965 11.7867L5.56203 12.4763L4.97346 12.1505Z" fill="white"/>
</g>
</g>
<defs>
<filter id="filter0_dd_9267_40240" x="0.833819" y="4.46845" width="22.3324" height="16.618" filterUnits="userSpaceOnUse" color-interpolation-filters="sRGB">
<feFlood flood-opacity="0" result="BackgroundImageFix"/>
<feColorMatrix in="SourceAlpha" type="matrix" values="0 0 0 0 0 0 0 0 0 0 0 0 0 0 0 0 0 0 127 0" result="hardAlpha"/>
<feOffset dy="0.777454"/>
<feGaussianBlur stdDeviation="0.58309"/>
<feComposite in2="hardAlpha" operator="out"/>
<feColorMatrix type="matrix" values="0 0 0 0 0.258824 0 0 0 0 0.278431 0 0 0 0 0.298039 0 0 0 0.08 0"/>
<feBlend mode="normal" in2="BackgroundImageFix" result="effect1_dropShadow_9267_40240"/>
<feColorMatrix in="SourceAlpha" type="matrix" values="0 0 0 0 0 0 0 0 0 0 0 0 0 0 0 0 0 0 127 0" result="hardAlpha"/>
<feOffset/>
<feGaussianBlur stdDeviation="0.0485909"/>
<feComposite in2="hardAlpha" operator="out"/>
<feColorMatrix type="matrix" values="0 0 0 0 0.258824 0 0 0 0 0.278431 0 0 0 0 0.298039 0 0 0 0.32 0"/>
<feBlend mode="normal" in2="effect1_dropShadow_9267_40240" result="effect2_dropShadow_9267_40240"/>
<feBlend mode="normal" in="SourceGraphic" in2="effect2_dropShadow_9267_40240" result="shape"/>
</filter>
<clipPath id="clip0_9267_40240">
<rect x="2" y="4.85718" width="20" height="14.2857" rx="1.55491" fill="white"/>
</clipPath>
</defs>
</svg>
