<svg width="24" height="24" viewBox="0 0 24 24" fill="none" xmlns="http://www.w3.org/2000/svg">
<g filter="url(#filter0_dd_9267_40242)">
<g clip-path="url(#clip0_9267_40242)">
<rect x="2" y="4.85718" width="20" height="14.2857" rx="1.55491" fill="white"/>
<path d="M20.0949 4.85718H3.90446C2.85249 4.85718 1.99969 5.70997 1.99969 6.76194V17.2381C1.99969 18.2901 2.85249 19.1429 3.90446 19.1429H20.0949C21.1469 19.1429 21.9997 18.2901 21.9997 17.2381V6.76194C21.9997 5.70997 21.1469 4.85718 20.0949 4.85718Z" fill="white"/>
<path fill-rule="evenodd" clip-rule="evenodd" d="M1.99969 14.381H21.9997V19.1429H1.99969V14.381Z" fill="#1A47B8"/>
<path fill-rule="evenodd" clip-rule="evenodd" d="M1.99969 4.85718H21.9997V9.61908H1.99969V4.85718Z" fill="#F93939"/>
<path fill-rule="evenodd" clip-rule="evenodd" d="M9.63112 14.381L3.90446 19.1743H1.99969V4.85718H3.90446L9.61874 9.61908L21.9997 9.61908V14.381L9.63112 14.381Z" fill="white"/>
<path fill-rule="evenodd" clip-rule="evenodd" d="M9.33303 13.4286L2.47589 19.1429L1.99969 19.1743V4.85718H2.47589L9.33303 10.5715H21.9997V13.4286H9.33303Z" fill="#249F58"/>
<path fill-rule="evenodd" clip-rule="evenodd" d="M1.99969 7.71431L7.71398 12L1.99969 16.2857V7.71431Z" fill="#FFDA2C"/>
<path fill-rule="evenodd" clip-rule="evenodd" d="M1.99969 8.66672L6.5235 12.0001L1.99969 15.3334V8.66672Z" fill="#151515"/>
</g>
</g>
<defs>
<filter id="filter0_dd_9267_40242" x="0.833819" y="4.46845" width="22.3324" height="16.618" filterUnits="userSpaceOnUse" color-interpolation-filters="sRGB">
<feFlood flood-opacity="0" result="BackgroundImageFix"/>
<feColorMatrix in="SourceAlpha" type="matrix" values="0 0 0 0 0 0 0 0 0 0 0 0 0 0 0 0 0 0 127 0" result="hardAlpha"/>
<feOffset dy="0.777454"/>
<feGaussianBlur stdDeviation="0.58309"/>
<feComposite in2="hardAlpha" operator="out"/>
<feColorMatrix type="matrix" values="0 0 0 0 0.258824 0 0 0 0 0.278431 0 0 0 0 0.298039 0 0 0 0.08 0"/>
<feBlend mode="normal" in2="BackgroundImageFix" result="effect1_dropShadow_9267_40242"/>
<feColorMatrix in="SourceAlpha" type="matrix" values="0 0 0 0 0 0 0 0 0 0 0 0 0 0 0 0 0 0 127 0" result="hardAlpha"/>
<feOffset/>
<feGaussianBlur stdDeviation="0.0485909"/>
<feComposite in2="hardAlpha" operator="out"/>
<feColorMatrix type="matrix" values="0 0 0 0 0.258824 0 0 0 0 0.278431 0 0 0 0 0.298039 0 0 0 0.32 0"/>
<feBlend mode="normal" in2="effect1_dropShadow_9267_40242" result="effect2_dropShadow_9267_40242"/>
<feBlend mode="normal" in="SourceGraphic" in2="effect2_dropShadow_9267_40242" result="shape"/>
</filter>
<clipPath id="clip0_9267_40242">
<rect x="2" y="4.85718" width="20" height="14.2857" rx="1.55491" fill="white"/>
</clipPath>
</defs>
</svg>
