<svg width="24" height="24" viewBox="0 0 24 24" fill="none" xmlns="http://www.w3.org/2000/svg">
<g filter="url(#filter0_dd_9267_40243)">
<g clip-path="url(#clip0_9267_40243)">
<rect x="2" y="4.85718" width="20" height="14.2857" rx="1.55491" fill="white"/>
<path fill-rule="evenodd" clip-rule="evenodd" d="M2 15.3334H22V19.1429H2V15.3334Z" fill="#249F58"/>
<path fill-rule="evenodd" clip-rule="evenodd" d="M2 9.61911H22V14.381H2V9.61911Z" fill="#F93939"/>
<path fill-rule="evenodd" clip-rule="evenodd" d="M2 4.85718H22V8.6667H2V4.85718Z" fill="#151515"/>
<path fill-rule="evenodd" clip-rule="evenodd" d="M2 4.85718L13.4286 12L2 19.1429V4.85718Z" fill="#1A47B8"/>
<path fill-rule="evenodd" clip-rule="evenodd" d="M6.50792 13.1733L5.24126 14.1191L5.2603 12.5381L3.96983 11.6238L5.47935 11.1553L5.94888 9.64573L6.86316 10.9362L8.44411 10.9172L7.49745 12.1838L8.00507 13.681L6.50792 13.1733Z" fill="#FFDA2C"/>
</g>
</g>
<defs>
<filter id="filter0_dd_9267_40243" x="0.833819" y="4.46845" width="22.3324" height="16.618" filterUnits="userSpaceOnUse" color-interpolation-filters="sRGB">
<feFlood flood-opacity="0" result="BackgroundImageFix"/>
<feColorMatrix in="SourceAlpha" type="matrix" values="0 0 0 0 0 0 0 0 0 0 0 0 0 0 0 0 0 0 127 0" result="hardAlpha"/>
<feOffset dy="0.777454"/>
<feGaussianBlur stdDeviation="0.58309"/>
<feComposite in2="hardAlpha" operator="out"/>
<feColorMatrix type="matrix" values="0 0 0 0 0.258824 0 0 0 0 0.278431 0 0 0 0 0.298039 0 0 0 0.08 0"/>
<feBlend mode="normal" in2="BackgroundImageFix" result="effect1_dropShadow_9267_40243"/>
<feColorMatrix in="SourceAlpha" type="matrix" values="0 0 0 0 0 0 0 0 0 0 0 0 0 0 0 0 0 0 127 0" result="hardAlpha"/>
<feOffset/>
<feGaussianBlur stdDeviation="0.0485909"/>
<feComposite in2="hardAlpha" operator="out"/>
<feColorMatrix type="matrix" values="0 0 0 0 0.258824 0 0 0 0 0.278431 0 0 0 0 0.298039 0 0 0 0.32 0"/>
<feBlend mode="normal" in2="effect1_dropShadow_9267_40243" result="effect2_dropShadow_9267_40243"/>
<feBlend mode="normal" in="SourceGraphic" in2="effect2_dropShadow_9267_40243" result="shape"/>
</filter>
<clipPath id="clip0_9267_40243">
<rect x="2" y="4.85718" width="20" height="14.2857" rx="1.55491" fill="white"/>
</clipPath>
</defs>
</svg>
