<svg width="24" height="24" viewBox="0 0 24 24" fill="none" xmlns="http://www.w3.org/2000/svg">
<g filter="url(#filter0_dd_9267_40251)">
<rect x="2" y="4.85718" width="20" height="14.2857" rx="1.55491" fill="white"/>
<path fill-rule="evenodd" clip-rule="evenodd" d="M15.3333 12.0001C15.3333 13.841 13.8409 15.3334 12 15.3334C10.159 15.3334 8.66664 13.841 8.66664 12.0001C8.66664 10.9334 10.9047 10.4858 12.7885 10.6544C12.9885 10.601 13.2038 10.5715 13.4285 10.5715C14.4809 10.5715 15.3333 11.2115 15.3333 12.0001Z" fill="#232C80"/>
<path fill-rule="evenodd" clip-rule="evenodd" d="M11.5238 11.5239C11.5238 11.5239 12.3762 10.5715 13.4285 10.5715C14.4809 10.5715 15.3333 11.2115 15.3333 12.0001C15.3333 10.1591 13.8409 8.66676 12 8.66676C10.6695 8.66676 9.52092 9.44581 8.98664 10.5734C8.66664 11.5239 8.66664 11.802 8.66664 12.0001C9.14283 12.4763 9.67235 12.4763 10.0952 12.4763C10.5181 12.4763 10.8981 12.2925 11.16 12.0001L11.5238 11.5239Z" fill="#F93939"/>
<path fill-rule="evenodd" clip-rule="evenodd" d="M16.2856 9.61912H18.1904L16.2856 7.71436H15.3333L16.2856 9.61912ZM7.71422 9.61912H5.80946L7.71422 7.71436H8.6666L7.71422 9.61912ZM16.2856 14.381H18.1904L16.2856 16.2858H15.3333L16.2856 14.381ZM7.71422 14.381H5.80946L7.71422 16.2858H8.6666L7.71422 14.381Z" fill="#151515"/>
</g>
<defs>
<filter id="filter0_dd_9267_40251" x="0.833819" y="4.46845" width="22.3324" height="16.618" filterUnits="userSpaceOnUse" color-interpolation-filters="sRGB">
<feFlood flood-opacity="0" result="BackgroundImageFix"/>
<feColorMatrix in="SourceAlpha" type="matrix" values="0 0 0 0 0 0 0 0 0 0 0 0 0 0 0 0 0 0 127 0" result="hardAlpha"/>
<feOffset dy="0.777454"/>
<feGaussianBlur stdDeviation="0.58309"/>
<feComposite in2="hardAlpha" operator="out"/>
<feColorMatrix type="matrix" values="0 0 0 0 0.258824 0 0 0 0 0.278431 0 0 0 0 0.298039 0 0 0 0.08 0"/>
<feBlend mode="normal" in2="BackgroundImageFix" result="effect1_dropShadow_9267_40251"/>
<feColorMatrix in="SourceAlpha" type="matrix" values="0 0 0 0 0 0 0 0 0 0 0 0 0 0 0 0 0 0 127 0" result="hardAlpha"/>
<feOffset/>
<feGaussianBlur stdDeviation="0.0485909"/>
<feComposite in2="hardAlpha" operator="out"/>
<feColorMatrix type="matrix" values="0 0 0 0 0.258824 0 0 0 0 0.278431 0 0 0 0 0.298039 0 0 0 0.32 0"/>
<feBlend mode="normal" in2="effect1_dropShadow_9267_40251" result="effect2_dropShadow_9267_40251"/>
<feBlend mode="normal" in="SourceGraphic" in2="effect2_dropShadow_9267_40251" result="shape"/>
</filter>
</defs>
</svg>
