<svg width="24" height="24" viewBox="0 0 24 24" fill="none" xmlns="http://www.w3.org/2000/svg">
<g filter="url(#filter0_dd_9267_40244)">
<g clip-path="url(#clip0_9267_40244)">
<rect x="2" y="4.85718" width="20" height="14.2857" rx="1.55491" fill="#F93939"/>
<path d="M20.0952 4.85718H3.90476C2.85279 4.85718 2 5.70997 2 6.76194V17.2381C2 18.2901 2.85279 19.1429 3.90476 19.1429H20.0952C21.1472 19.1429 22 18.2901 22 17.2381V6.76194C22 5.70997 21.1472 4.85718 20.0952 4.85718Z" fill="#F93939"/>
<path fill-rule="evenodd" clip-rule="evenodd" d="M2 8.66672H22V15.3334H2V8.66672Z" fill="#FFDA2C"/>
<path fill-rule="evenodd" clip-rule="evenodd" d="M10.5714 10.7829V13.1829C10.5714 13.8496 9.93145 14.3829 9.14288 14.3829H7.23811C6.45145 14.381 5.80954 13.8448 5.80954 13.181V10.781C5.80954 10.2363 6.23621 9.78102 6.82288 9.6334C7.00002 9.13816 7.54478 9.58197 8.1905 9.58197C8.84002 9.58197 9.38097 9.14102 9.55811 9.63435C10.1429 9.78578 10.5714 10.242 10.5714 10.7829Z" fill="#D4AF2C"/>
<path fill-rule="evenodd" clip-rule="evenodd" d="M10.5714 11.5239H11.5238V14.381H10.5714V11.5239ZM4.85709 11.5239H5.80947V14.381H4.85709V11.5239Z" fill="#CBCBCB"/>
<path fill-rule="evenodd" clip-rule="evenodd" d="M10.5714 13.4286H11.5238V14.381H10.5714V13.4286ZM4.85709 13.4286H5.80947V14.381H4.85709V13.4286Z" fill="#1A47B8"/>
<path fill-rule="evenodd" clip-rule="evenodd" d="M10.5714 10.5715H11.5238V11.5239H10.5714V10.5715ZM4.85709 10.5715H5.80947V11.5239H4.85709V10.5715Z" fill="#D4AF2C"/>
<path fill-rule="evenodd" clip-rule="evenodd" d="M6.7619 10.5715H7.71429V12H6.7619V10.5715ZM8.66667 12.4762H9.61905V13.9048H8.66667V12.4762Z" fill="#AF010D"/>
<path fill-rule="evenodd" clip-rule="evenodd" d="M6.7619 12.4762H7.71429V13.9048H6.7619V12.4762Z" fill="#FFDA2C"/>
<path fill-rule="evenodd" clip-rule="evenodd" d="M8.66663 10.5715H9.61901V12H8.66663V10.5715Z" fill="#AE6A3E"/>
<path fill-rule="evenodd" clip-rule="evenodd" d="M7.71429 10.5715L6.7619 9.61911H9.61905L8.66663 10.5715H7.71429Z" fill="#AF010D"/>
<path fill-rule="evenodd" clip-rule="evenodd" d="M7.71417 8.66672H8.66655V9.6191H7.71417V8.66672Z" fill="#D4AF2C"/>
</g>
</g>
<defs>
<filter id="filter0_dd_9267_40244" x="0.833819" y="4.46845" width="22.3324" height="16.618" filterUnits="userSpaceOnUse" color-interpolation-filters="sRGB">
<feFlood flood-opacity="0" result="BackgroundImageFix"/>
<feColorMatrix in="SourceAlpha" type="matrix" values="0 0 0 0 0 0 0 0 0 0 0 0 0 0 0 0 0 0 127 0" result="hardAlpha"/>
<feOffset dy="0.777454"/>
<feGaussianBlur stdDeviation="0.58309"/>
<feComposite in2="hardAlpha" operator="out"/>
<feColorMatrix type="matrix" values="0 0 0 0 0.258824 0 0 0 0 0.278431 0 0 0 0 0.298039 0 0 0 0.08 0"/>
<feBlend mode="normal" in2="BackgroundImageFix" result="effect1_dropShadow_9267_40244"/>
<feColorMatrix in="SourceAlpha" type="matrix" values="0 0 0 0 0 0 0 0 0 0 0 0 0 0 0 0 0 0 127 0" result="hardAlpha"/>
<feOffset/>
<feGaussianBlur stdDeviation="0.0485909"/>
<feComposite in2="hardAlpha" operator="out"/>
<feColorMatrix type="matrix" values="0 0 0 0 0.258824 0 0 0 0 0.278431 0 0 0 0 0.298039 0 0 0 0.32 0"/>
<feBlend mode="normal" in2="effect1_dropShadow_9267_40244" result="effect2_dropShadow_9267_40244"/>
<feBlend mode="normal" in="SourceGraphic" in2="effect2_dropShadow_9267_40244" result="shape"/>
</filter>
<clipPath id="clip0_9267_40244">
<rect x="2" y="4.85718" width="20" height="14.2857" rx="1.55491" fill="white"/>
</clipPath>
</defs>
</svg>
