<svg width="24" height="24" viewBox="0 0 24 24" fill="none" xmlns="http://www.w3.org/2000/svg">
<g filter="url(#filter0_dd_9267_40245)">
<g clip-path="url(#clip0_9267_40245)">
<rect x="2" y="4.85718" width="20" height="14.2857" rx="1.55491" fill="#FFDA2C"/>
<rect x="2" y="4.85718" width="20" height="14.2857" fill="#FFDA2C"/>
<rect opacity="0.3" x="2" y="4.85718" width="20" height="14.2857" fill="#FF6C2D"/>
<path fill-rule="evenodd" clip-rule="evenodd" d="M10.5714 6.76196H20.0952V17.2382H10.5714V6.76196ZM13.9381 14.9677L13.9933 14.9258L14.0162 14.9677C14.0476 15.0248 14.1342 15.0229 14.1914 14.9677L14.2362 14.9229L14.2742 14.9658C14.3219 15.0229 14.4114 15.0229 14.4685 14.9658C14.5104 14.9258 14.5162 14.9248 14.5428 14.9563C14.5581 14.9734 14.6047 14.9944 14.6457 15.001C14.72 15.0144 14.7219 15.0134 14.7647 14.9267C14.8028 14.8544 14.8076 14.8258 14.799 14.7553C14.7933 14.7077 14.7866 14.6334 14.7847 14.5886C14.7828 14.5067 14.7828 14.5058 14.8723 14.4648C14.92 14.442 14.9771 14.4115 14.999 14.3963C15.0342 14.3715 15.1323 14.2182 15.1323 14.1867C15.1323 14.1791 15.0942 14.1677 15.0466 14.1601C14.8609 14.1315 14.8295 13.9982 14.9514 13.7506C15.1485 13.3486 15.2676 12.9553 15.2685 12.7048C15.2685 12.5934 15.2733 12.5553 15.2847 12.581C15.3285 12.6791 15.2495 13.0953 15.1295 13.3953L15.0819 13.5163L15.1276 13.502C15.1523 13.4925 15.3019 13.4096 15.4581 13.3153C15.8866 13.0582 16.0342 13.0067 16.3123 13.022C16.5447 13.0353 16.6438 13.0953 16.8076 13.3248C16.8952 13.4458 16.979 13.5325 17.1314 13.6601C17.459 13.9325 17.4723 13.9553 17.4876 14.2753C17.5038 14.5991 17.4971 14.6182 17.3114 14.6715C17.1542 14.7172 17.0542 14.8144 17.0285 14.9506C17.0152 15.0239 17.0447 15.0267 17.1238 14.9582L17.1809 14.9086L17.2076 14.9582C17.2419 15.0248 17.3142 15.0248 17.3742 14.9582L17.419 14.9106L17.4647 14.9582C17.5371 15.0344 17.6333 15.0172 17.66 14.9201C17.6647 14.9029 17.679 14.9086 17.7076 14.941C17.76 15.002 17.8942 15.0286 17.9095 14.9791C17.9152 14.962 17.9038 14.9172 17.8857 14.8801C17.8076 14.7239 17.7828 14.6486 17.7809 14.5639C17.7809 14.4458 17.8066 14.3886 17.9085 14.2915C18.0323 14.1744 18.0704 14.0248 17.9771 14.0248C17.92 14.0248 17.8609 13.9553 17.8247 13.8439C17.7485 13.6201 17.7628 13.3677 17.8762 12.9486C17.9904 12.5201 18.0038 12.4439 18.0047 12.1582C18.0047 11.9267 18.0019 11.8867 17.9619 11.7601C17.9381 11.6839 17.8885 11.5677 17.8533 11.5048L17.7895 11.3906L17.8723 11.2972C18.1266 11.0172 18.0752 10.5582 17.7676 10.3829C17.6752 10.3277 17.6514 10.3229 17.4876 10.3258C17.3885 10.3258 17.24 10.3429 17.1542 10.3639C17.0666 10.3829 16.92 10.4001 16.819 10.4001C16.659 10.4001 16.6323 10.3963 16.5714 10.3525C16.5066 10.3067 16.4952 10.2858 16.4828 10.181C16.4809 10.1582 16.4695 10.1372 16.4581 10.1334C16.4362 10.1239 16.3342 10.2382 16.3209 10.2915C16.3133 10.3163 16.3066 10.3144 16.2857 10.282C16.2714 10.2582 16.2514 10.2058 16.2409 10.1658C16.2152 10.0629 16.2466 9.98484 16.3362 9.9277L16.4076 9.88389L16.3676 9.8496C16.2819 9.77913 16.1362 9.82674 16.0838 9.94484C16.0685 9.97627 16.0523 10.0039 16.0476 10.0039C16.0428 10.0039 16.0142 9.97246 15.9847 9.93436C15.8742 9.79151 15.9123 9.57817 16.0609 9.51246C16.139 9.47817 16.2085 9.50484 16.2228 9.57436C16.2447 9.68103 16.3142 9.54103 16.3019 9.41436C16.2923 9.33055 16.2923 9.32674 16.3371 9.32674C16.3981 9.32674 16.5276 9.43341 16.5685 9.51722C16.6162 9.61246 16.6114 9.76484 16.559 9.87722L16.5209 9.96579L16.5723 9.95246C16.6485 9.93151 16.7247 9.86674 16.7628 9.79055C16.8028 9.70865 16.8076 9.5496 16.7723 9.46294C16.7371 9.38008 16.7409 9.3677 16.7914 9.39627C16.879 9.44389 16.9247 9.49532 16.96 9.58675C16.9923 9.6677 16.9942 9.6877 16.9771 9.77246C16.9676 9.82484 16.9438 9.89341 16.9257 9.92484C16.8971 9.97532 16.8971 9.98389 16.919 9.98389C16.96 9.98389 17.0476 9.93151 17.0781 9.88865C17.0933 9.86579 17.1162 9.81246 17.1285 9.76675L17.1504 9.68675L17.1762 9.7477C17.2123 9.83341 17.2809 9.91246 17.3666 9.96103C17.459 10.0144 17.4971 10.0182 17.4495 9.96865C17.4171 9.93532 17.3571 9.70198 17.3752 9.68008C17.3847 9.66675 17.5104 9.79436 17.6514 9.96389C17.7866 10.1258 17.8704 10.1772 17.9942 10.1772C18.1533 10.1772 18.2447 9.99436 18.1752 9.82198C18.1323 9.72103 18.04 9.7077 17.9866 9.79341C17.9619 9.83341 17.9552 9.86484 17.9619 9.90579C17.9714 9.95722 17.9676 9.96294 17.9333 9.96294C17.8857 9.96294 17.7962 9.88674 17.6362 9.7077C17.3914 9.43627 17.0933 9.20579 16.879 9.12198C16.7409 9.06675 16.4466 9.04579 16.3076 9.08008C16.1552 9.11627 15.9742 9.23246 15.8771 9.35627C15.7038 9.57532 15.7019 9.86579 15.8704 10.1315L15.9181 10.2077L15.8857 10.2744C15.8381 10.3734 15.8419 10.5058 15.8952 10.6029C15.919 10.6458 15.9428 10.681 15.9485 10.681C15.9542 10.681 15.96 10.6525 15.9619 10.6191C15.9666 10.5334 15.9942 10.4763 16.0419 10.4544C16.0838 10.4334 16.1114 10.4429 16.3066 10.5458C16.5114 10.6553 16.8476 10.662 17.2057 10.5648C17.3819 10.5191 17.5885 10.522 17.68 10.5725C17.8466 10.6658 17.8857 10.9077 17.7628 11.0915C17.7095 11.1696 17.6581 11.202 17.4866 11.2648C17.3552 11.3125 17.3247 11.3163 17.0266 11.3125C16.7723 11.3086 16.6809 11.3153 16.5771 11.3439C16.4647 11.3753 16.3962 11.3782 16.0647 11.3677L15.6819 11.3544L15.7247 11.402C15.7476 11.4267 15.7819 11.4591 15.7981 11.4715C15.8266 11.4925 15.8266 11.4953 15.7828 11.5163C15.7571 11.5296 15.7019 11.5391 15.659 11.5391H15.58L15.5704 11.6287C15.5647 11.6782 15.5647 11.7334 15.5704 11.7553C15.58 11.7867 15.5771 11.7906 15.5514 11.7791C15.5362 11.7696 15.4904 11.7553 15.4504 11.7439C15.4104 11.7325 15.3571 11.7106 15.3314 11.6934C15.2876 11.6648 15.2838 11.6648 15.2666 11.7029C15.2533 11.7372 15.12 11.8686 15.1 11.8686C15.0971 11.8686 15.0933 11.8429 15.0904 11.8115C15.0904 11.781 15.0714 11.7001 15.0485 11.6325C15.0276 11.5658 15.0047 11.4915 14.999 11.4686C14.9895 11.4344 14.9866 11.4325 14.9752 11.4591C14.9685 11.4753 14.9581 11.521 14.9523 11.561C14.9476 11.5991 14.9276 11.6658 14.9085 11.7039L14.8742 11.7744L14.8523 11.7134C14.8295 11.6486 14.7904 11.5801 14.7762 11.5801C14.7714 11.5801 14.7628 11.602 14.7571 11.6277C14.7476 11.6801 14.6552 11.8277 14.6333 11.8277C14.6238 11.8277 14.6171 11.7858 14.6171 11.7353C14.6171 11.6839 14.6104 11.6429 14.6009 11.6429C14.5933 11.6429 14.5857 11.6553 14.5857 11.6715C14.5857 11.7096 14.5066 11.8267 14.4809 11.8267C14.4685 11.8267 14.4504 11.8401 14.439 11.8572C14.4104 11.901 14.3866 11.8953 14.3981 11.8477C14.4047 11.8239 14.4009 11.7715 14.3904 11.7286L14.3647 11.6287C14.3609 11.6134 14.3333 11.6172 14.2733 11.6429C14.1762 11.6839 14.1438 11.6772 14.1933 11.6239C14.2123 11.6048 14.2409 11.5401 14.2552 11.4791C14.2704 11.4182 14.2933 11.3648 14.3066 11.3582C14.3238 11.3525 14.3228 11.361 14.3019 11.3982C14.2876 11.4248 14.2752 11.461 14.2752 11.4782C14.2752 11.4953 14.2628 11.5353 14.2495 11.5686C14.2362 11.6029 14.2276 11.6325 14.2304 11.6353C14.2342 11.6401 14.2704 11.622 14.3123 11.5953L14.3885 11.5477V11.5906C14.3885 11.6144 14.3981 11.6763 14.4076 11.7296L14.4285 11.8248L14.48 11.7934C14.5323 11.761 14.5828 11.6458 14.5828 11.5572C14.5828 11.5115 14.6019 11.5191 14.6095 11.5667L14.6362 11.681L14.659 11.7706L14.6942 11.7134C14.7133 11.682 14.739 11.621 14.7495 11.5772C14.7685 11.5029 14.7952 11.4706 14.7952 11.5248C14.7952 11.5648 14.8771 11.7058 14.8923 11.6944C14.9 11.6886 14.9152 11.6353 14.9257 11.5763C14.9485 11.4525 14.9847 11.3686 15.0085 11.3858C15.0181 11.3934 15.02 11.4048 15.0152 11.4144C15.0114 11.4239 15.0295 11.5048 15.0571 11.5934C15.0857 11.682 15.1142 11.7715 15.119 11.7915C15.1285 11.8248 15.1381 11.8201 15.1971 11.7506C15.2352 11.7077 15.2676 11.6601 15.2714 11.6439C15.2771 11.621 15.2857 11.622 15.319 11.6496C15.3666 11.6896 15.5285 11.7544 15.5409 11.7372C15.5457 11.7315 15.5504 11.6753 15.5504 11.6134L15.5533 11.4991L15.6009 11.5115C15.6266 11.5191 15.68 11.5182 15.72 11.5115L15.7923 11.4972L15.7285 11.4382C15.6933 11.4058 15.6571 11.3639 15.6485 11.3448C15.639 11.3258 15.6066 11.3067 15.5723 11.3039C15.4742 11.2925 15.3019 11.1639 15.3019 11.1039C15.3019 11.0915 15.3257 11.1106 15.3552 11.1467C15.42 11.2248 15.5095 11.2744 15.5876 11.2744H15.6466L15.6104 11.2115C15.5895 11.1734 15.5704 11.1048 15.5657 11.0467C15.559 10.9563 15.5514 10.942 15.48 10.8753C15.4371 10.8353 15.3828 10.7753 15.3609 10.742L15.3209 10.682L15.3 10.7534C15.2885 10.7934 15.2742 10.8248 15.2695 10.8248C15.2638 10.8248 15.2409 10.802 15.2219 10.7744C15.2 10.7458 15.1781 10.7229 15.1742 10.7229C15.1676 10.7229 15.1495 10.761 15.1314 10.8087L15.1 10.8915L15.0752 10.8439C15.0609 10.8153 15.0295 10.7696 15.0038 10.7391C14.9781 10.7067 14.9638 10.682 14.9733 10.682C14.9828 10.682 15.0152 10.7144 15.0447 10.7534L15.099 10.8258L15.1209 10.7725C15.1333 10.742 15.1381 10.6934 15.1323 10.6544C15.1228 10.5972 15.1247 10.5953 15.1419 10.6306C15.1514 10.6534 15.1828 10.6972 15.2114 10.7258L15.2628 10.7829L15.2981 10.6972C15.3333 10.6115 15.3342 10.6115 15.3495 10.661C15.3714 10.7296 15.5257 10.8991 15.6571 10.9963C15.6762 11.0115 15.6685 10.9582 15.6314 10.8391C15.6219 10.8077 15.6123 10.7506 15.6123 10.7125C15.6123 10.6553 15.6009 10.6296 15.5457 10.5744C15.4676 10.4944 15.4428 10.4382 15.4276 10.3096C15.4219 10.2572 15.4085 10.1991 15.3971 10.181C15.3809 10.1525 15.3781 10.1686 15.3828 10.2648C15.3847 10.3315 15.3781 10.4115 15.3676 10.4458L15.3485 10.5067L15.3333 10.4553C15.3238 10.4267 15.2885 10.3791 15.2523 10.3458C15.2142 10.3144 15.1904 10.2829 15.1952 10.2763C15.2 10.2706 15.2381 10.2991 15.2781 10.341C15.34 10.4048 15.3542 10.4115 15.3619 10.3839C15.3714 10.3506 15.3619 10.2067 15.3428 10.1077C15.3333 10.0563 15.3333 10.0563 15.3809 10.1172C15.4152 10.1648 15.4333 10.2182 15.4476 10.3134C15.4666 10.4344 15.4762 10.4563 15.56 10.5515C15.6104 10.6115 15.6552 10.6563 15.6571 10.6525C15.6609 10.6486 15.6666 10.4963 15.6714 10.3144C15.6809 9.96675 15.6714 9.88389 15.6076 9.77627L15.5752 9.72103L15.6257 9.6477C15.6923 9.55246 15.7228 9.47627 15.7362 9.37151L15.7476 9.28579L15.6904 9.35913C15.6428 9.41817 15.6209 9.43151 15.5666 9.43151C15.5123 9.43151 15.4904 9.42008 15.4552 9.3677C15.4114 9.30579 15.3333 9.24674 15.259 9.21722C15.2304 9.2077 15.2209 9.21151 15.2209 9.23627C15.2209 9.25532 15.2066 9.30674 15.1876 9.35246L15.1542 9.43627L15.0838 9.34294C15.04 9.28579 14.9885 9.24198 14.9504 9.22865C14.8523 9.19436 14.8476 9.19722 14.8476 9.29532C14.8476 9.44103 14.8 9.46865 14.7142 9.37151C14.6504 9.29532 14.5962 9.28008 14.4733 9.29817L14.3781 9.31246L14.3971 9.3696C14.4104 9.41722 14.4066 9.43627 14.3762 9.49055C14.3266 9.57817 14.2619 9.61627 14.1628 9.61627C14.1171 9.61627 14.06 9.62865 14.0352 9.64484C14.0114 9.65913 13.9514 9.67722 13.9019 9.68294C13.8523 9.6896 13.8 9.70198 13.7847 9.70865C13.7619 9.72008 13.759 9.71055 13.7657 9.64008C13.7781 9.53151 13.7219 9.45246 13.6323 9.45246C13.5181 9.45246 13.4657 9.58865 13.5104 9.76865C13.5189 9.79907 13.5273 9.84599 13.5331 9.87814L13.5352 9.8896C13.5419 9.92294 13.5923 10.0115 13.6571 10.0963C13.7181 10.1782 13.7752 10.2629 13.7847 10.2848C13.7942 10.3067 13.8257 10.342 13.8542 10.3629L13.9066 10.401L13.9 10.3277C13.8923 10.2458 13.9057 10.2325 13.9381 10.2896C13.9504 10.3115 13.98 10.3448 14.0047 10.3658C14.0428 10.3963 14.0495 10.3972 14.0495 10.3696C14.0495 10.3506 14.0571 10.3125 14.0666 10.2801L14.0857 10.2229L14.1142 10.301C14.1314 10.3439 14.1866 10.442 14.2362 10.5201C14.3333 10.6677 14.3923 10.8344 14.3619 10.8725C14.3495 10.8886 14.3162 10.8867 14.2476 10.8686C14.1933 10.8553 14.1266 10.8477 14.099 10.8525C14.0419 10.862 14.039 10.8525 14.0733 10.7953C14.1095 10.7353 14.1038 10.7258 14.0323 10.7258C13.9495 10.7258 13.7447 10.6725 13.6657 10.6306C13.5895 10.5925 13.5704 10.602 13.5485 10.6972L13.5076 10.8734L13.4857 10.9686L13.5685 10.9591C13.6142 10.9525 13.6733 10.9401 13.699 10.9286C13.7257 10.9191 13.7495 10.9134 13.7523 10.9163C13.7552 10.9201 13.7428 10.9582 13.7266 11.0001L13.6942 11.0763L13.7466 11.0629C13.7752 11.0553 13.8181 11.0363 13.8419 11.021C13.8838 10.9944 13.8866 10.9963 13.92 11.0658C13.96 11.1515 13.9923 11.1486 13.999 11.0563C14.0066 10.9629 14.0304 10.9772 14.0752 11.102C14.1162 11.222 14.1609 11.2639 14.1685 11.1934C14.1714 11.1706 14.1933 11.1315 14.219 11.1077C14.2695 11.0601 14.3076 11.0753 14.3285 11.1496C14.3523 11.2258 14.3019 11.3058 14.1571 11.4239C13.8619 11.6601 13.6923 11.9839 13.6428 12.3953C13.599 12.7667 13.7362 13.1515 14.0114 13.4277C14.1428 13.561 14.3523 13.6991 14.339 13.6467C14.2838 13.4201 14.2857 12.9896 14.3428 12.9163C14.3523 12.9048 14.3485 12.9496 14.3362 13.0153C14.2904 13.261 14.3104 13.4563 14.4285 13.9144C14.5333 14.3296 14.52 14.5067 14.3695 14.6229C14.3219 14.661 14.2895 14.6667 14.16 14.6648C14.019 14.6629 14.0038 14.6667 13.9581 14.7144C13.9142 14.762 13.8581 14.9144 13.8581 14.9848C13.8581 15.0229 13.8895 15.0182 13.9533 14.9696L13.9381 14.9677ZM12.8714 14.2058C12.8866 14.1801 12.8981 14.1391 12.8981 14.1153C12.8981 14.0791 12.9104 14.0696 12.9714 14.0582L13.0447 14.0448L12.9971 13.9925C12.9381 13.9315 12.9323 13.8839 12.9838 13.8839C13.0342 13.8839 13.1209 13.8134 13.1342 13.7601C13.1409 13.7372 13.1371 13.7048 13.1266 13.6877C13.0981 13.6448 13.0438 13.6515 13.0342 13.6991C13.0228 13.7506 13.0057 13.7515 12.9647 13.6991C12.9038 13.6229 12.9019 13.4629 12.9619 13.3696C12.9885 13.3258 12.9885 13.322 12.9523 13.2782C12.9142 13.2286 12.8857 13.1325 12.9047 13.1096C12.9104 13.1029 12.9409 13.1096 12.9714 13.1229C13.0171 13.142 13.0352 13.1439 13.0533 13.1229C13.1104 13.0658 13.0485 12.9896 12.9581 13.0067C12.9228 13.0134 12.9085 13.0067 12.9028 12.982C12.899 12.9629 12.8676 12.9372 12.8314 12.9248C12.7685 12.9039 12.7676 12.9058 12.7676 12.9629C12.7676 13.0267 12.739 13.0391 12.6885 12.9982C12.6457 12.9648 12.6047 12.9906 12.6047 13.0506C12.6047 13.1058 12.6476 13.1334 12.7228 13.1267C12.78 13.122 12.7828 13.1801 12.7276 13.262L12.6876 13.322L12.719 13.382C12.7666 13.4706 12.7619 13.6182 12.7095 13.6915L12.6714 13.7486L12.6447 13.7029C12.6085 13.6391 12.559 13.6439 12.5447 13.7125C12.5352 13.7572 12.5447 13.7772 12.5857 13.8248C12.6142 13.8563 12.6552 13.882 12.6771 13.882C12.7323 13.882 12.7304 13.9391 12.6733 13.9982L12.6285 14.0439L12.699 14.0582C12.7371 14.0658 12.7676 14.081 12.7676 14.0915C12.7676 14.1296 12.8152 14.2515 12.8314 14.2515C12.8409 14.2515 12.86 14.2325 12.8723 14.2067L12.8714 14.2058ZM13.1123 12.1391C13.2704 12.0467 13.2838 11.8115 13.1352 11.7486C13.0733 11.7239 13.0342 11.7391 13.0114 11.7934C12.9923 11.8363 13.0047 11.9134 13.0304 11.9134C13.0381 11.9134 13.0447 11.9267 13.0447 11.9439C13.0447 12.0258 12.8038 12.0629 12.7057 11.9963C12.6714 11.9725 12.6581 11.9125 12.6866 11.9125C12.7057 11.9125 12.7219 11.8496 12.7114 11.8058C12.6962 11.7467 12.6504 11.7258 12.5857 11.7486C12.4381 11.8001 12.4428 12.0306 12.5923 12.1296C12.7162 12.2086 12.9866 12.2134 13.1142 12.1391H13.1123ZM13.0142 11.9582C13.0238 11.9486 13.02 11.9296 13.0047 11.9134C12.9714 11.8782 12.9733 11.8258 13.0095 11.7658C13.0381 11.721 13.0409 11.6544 13.0504 10.9791C13.0666 9.81341 13.1314 8.93817 13.2171 8.72865C13.2514 8.64484 13.2457 8.64294 13.1581 8.72389C13.0438 8.82674 12.9581 8.96198 12.8819 9.15246C12.7371 9.51436 12.6866 10.002 12.6866 11.042C12.6866 11.6325 12.6904 11.7086 12.7152 11.7658C12.74 11.8172 12.7409 11.8372 12.7247 11.8934C12.7133 11.9296 12.7085 11.9648 12.7133 11.9696C12.7457 12.0115 12.98 12.001 13.0152 11.9572L13.0142 11.9582ZM12.4761 7.71434H11.5238V8.66672H12.4761V7.71434ZM19.1428 7.71434H18.1904V8.66672H19.1428V7.71434ZM12.4761 15.3334H11.5238V16.2858H12.4761V15.3334ZM19.1428 15.3334H18.1904V16.2858H19.1428V15.3334Z" fill="#AF010D"/>
<path fill-rule="evenodd" clip-rule="evenodd" d="M6.76187 6.76196H9.61901V17.2382H6.76187V6.76196Z" fill="#FF6C2D"/>
<path opacity="0.2" fill-rule="evenodd" clip-rule="evenodd" d="M6.76187 6.76196H9.61901V17.2382H6.76187V6.76196Z" fill="#151515"/>
<path fill-rule="evenodd" clip-rule="evenodd" d="M3.90493 6.76196H6.76207V17.2382H3.90493V6.76196Z" fill="#0A6A30"/>
</g>
</g>
<defs>
<filter id="filter0_dd_9267_40245" x="0.833819" y="4.46845" width="22.3324" height="16.618" filterUnits="userSpaceOnUse" color-interpolation-filters="sRGB">
<feFlood flood-opacity="0" result="BackgroundImageFix"/>
<feColorMatrix in="SourceAlpha" type="matrix" values="0 0 0 0 0 0 0 0 0 0 0 0 0 0 0 0 0 0 127 0" result="hardAlpha"/>
<feOffset dy="0.777454"/>
<feGaussianBlur stdDeviation="0.58309"/>
<feComposite in2="hardAlpha" operator="out"/>
<feColorMatrix type="matrix" values="0 0 0 0 0.258824 0 0 0 0 0.278431 0 0 0 0 0.298039 0 0 0 0.08 0"/>
<feBlend mode="normal" in2="BackgroundImageFix" result="effect1_dropShadow_9267_40245"/>
<feColorMatrix in="SourceAlpha" type="matrix" values="0 0 0 0 0 0 0 0 0 0 0 0 0 0 0 0 0 0 127 0" result="hardAlpha"/>
<feOffset/>
<feGaussianBlur stdDeviation="0.0485909"/>
<feComposite in2="hardAlpha" operator="out"/>
<feColorMatrix type="matrix" values="0 0 0 0 0.258824 0 0 0 0 0.278431 0 0 0 0 0.298039 0 0 0 0.32 0"/>
<feBlend mode="normal" in2="effect1_dropShadow_9267_40245" result="effect2_dropShadow_9267_40245"/>
<feBlend mode="normal" in="SourceGraphic" in2="effect2_dropShadow_9267_40245" result="shape"/>
</filter>
<clipPath id="clip0_9267_40245">
<rect x="2" y="4.85718" width="20" height="14.2857" rx="1.55491" fill="white"/>
</clipPath>
</defs>
</svg>
