<svg width="24" height="24" viewBox="0 0 24 24" fill="none" xmlns="http://www.w3.org/2000/svg">
<g filter="url(#filter0_dd_9267_40250)">
<g clip-path="url(#clip0_9267_40250)">
<rect x="2" y="4.85718" width="20" height="14.2857" rx="1.55491" fill="white"/>
<path fill-rule="evenodd" clip-rule="evenodd" d="M2 14.381H22V19.1429H2V14.381Z" fill="#151515"/>
<path fill-rule="evenodd" clip-rule="evenodd" d="M8.19056 13.1905L6.79056 13.9267L7.05723 12.3677L5.9258 11.2629L7.49056 11.0372L8.19056 9.61908L8.89056 11.0381L10.4553 11.2638L9.32199 12.3686L9.58866 13.9267L8.19056 13.1905ZM15.8096 13.1905L14.4096 13.9267L14.6763 12.3677L13.5448 11.2629L15.1096 11.0372L15.8096 9.61908L16.5096 11.0381L18.0744 11.2638L16.941 12.3686L17.2077 13.9267" fill="#249F58"/>
<path fill-rule="evenodd" clip-rule="evenodd" d="M2 4.85718H22V9.61908H2V4.85718Z" fill="#AF010D"/>
</g>
</g>
<defs>
<filter id="filter0_dd_9267_40250" x="0.833819" y="4.46845" width="22.3324" height="16.618" filterUnits="userSpaceOnUse" color-interpolation-filters="sRGB">
<feFlood flood-opacity="0" result="BackgroundImageFix"/>
<feColorMatrix in="SourceAlpha" type="matrix" values="0 0 0 0 0 0 0 0 0 0 0 0 0 0 0 0 0 0 127 0" result="hardAlpha"/>
<feOffset dy="0.777454"/>
<feGaussianBlur stdDeviation="0.58309"/>
<feComposite in2="hardAlpha" operator="out"/>
<feColorMatrix type="matrix" values="0 0 0 0 0.258824 0 0 0 0 0.278431 0 0 0 0 0.298039 0 0 0 0.08 0"/>
<feBlend mode="normal" in2="BackgroundImageFix" result="effect1_dropShadow_9267_40250"/>
<feColorMatrix in="SourceAlpha" type="matrix" values="0 0 0 0 0 0 0 0 0 0 0 0 0 0 0 0 0 0 127 0" result="hardAlpha"/>
<feOffset/>
<feGaussianBlur stdDeviation="0.0485909"/>
<feComposite in2="hardAlpha" operator="out"/>
<feColorMatrix type="matrix" values="0 0 0 0 0.258824 0 0 0 0 0.278431 0 0 0 0 0.298039 0 0 0 0.32 0"/>
<feBlend mode="normal" in2="effect1_dropShadow_9267_40250" result="effect2_dropShadow_9267_40250"/>
<feBlend mode="normal" in="SourceGraphic" in2="effect2_dropShadow_9267_40250" result="shape"/>
</filter>
<clipPath id="clip0_9267_40250">
<rect x="2" y="4.85718" width="20" height="14.2857" rx="1.55491" fill="white"/>
</clipPath>
</defs>
</svg>
