<svg width="24" height="24" viewBox="0 0 24 24" fill="none" xmlns="http://www.w3.org/2000/svg">
<g filter="url(#filter0_dd_9268_40177)">
<g clip-path="url(#clip0_9268_40177)">
<rect x="2" y="4.85718" width="20" height="14.2857" rx="1.55491" fill="white"/>
<path fill-rule="evenodd" clip-rule="evenodd" d="M2 14.381H22V19.1429H2V14.381Z" fill="#249F58"/>
<path fill-rule="evenodd" clip-rule="evenodd" d="M13.4 11.7143C13.4191 11.8067 13.4286 11.9019 13.4286 12C13.4286 12.7886 12.7886 13.4286 12 13.4286C11.2114 13.4286 10.5714 12.7886 10.5714 12C10.5714 11.9019 10.581 11.8067 10.6 11.7143C10.7334 12.1486 11.3086 12.4762 12 12.4762C12.6914 12.4762 13.2667 12.1486 13.4 11.7143ZM12 11.5238C12.2629 11.5238 12.4762 11.3105 12.4762 11.0476C12.4762 10.7848 12.2629 10.5714 12 10.5714C11.7372 10.5714 11.5238 10.7848 11.5238 11.0476C11.5238 11.3105 11.7372 11.5238 12 11.5238Z" fill="#FFDA2C"/>
<path fill-rule="evenodd" clip-rule="evenodd" d="M2 4.85718H22V9.61908H2V4.85718Z" fill="#AF010D"/>
</g>
</g>
<defs>
<filter id="filter0_dd_9268_40177" x="0.833819" y="4.46845" width="22.3324" height="16.618" filterUnits="userSpaceOnUse" color-interpolation-filters="sRGB">
<feFlood flood-opacity="0" result="BackgroundImageFix"/>
<feColorMatrix in="SourceAlpha" type="matrix" values="0 0 0 0 0 0 0 0 0 0 0 0 0 0 0 0 0 0 127 0" result="hardAlpha"/>
<feOffset dy="0.777454"/>
<feGaussianBlur stdDeviation="0.58309"/>
<feComposite in2="hardAlpha" operator="out"/>
<feColorMatrix type="matrix" values="0 0 0 0 0.258824 0 0 0 0 0.278431 0 0 0 0 0.298039 0 0 0 0.08 0"/>
<feBlend mode="normal" in2="BackgroundImageFix" result="effect1_dropShadow_9268_40177"/>
<feColorMatrix in="SourceAlpha" type="matrix" values="0 0 0 0 0 0 0 0 0 0 0 0 0 0 0 0 0 0 127 0" result="hardAlpha"/>
<feOffset/>
<feGaussianBlur stdDeviation="0.0485909"/>
<feComposite in2="hardAlpha" operator="out"/>
<feColorMatrix type="matrix" values="0 0 0 0 0.258824 0 0 0 0 0.278431 0 0 0 0 0.298039 0 0 0 0.32 0"/>
<feBlend mode="normal" in2="effect1_dropShadow_9268_40177" result="effect2_dropShadow_9268_40177"/>
<feBlend mode="normal" in="SourceGraphic" in2="effect2_dropShadow_9268_40177" result="shape"/>
</filter>
<clipPath id="clip0_9268_40177">
<rect x="2" y="4.85718" width="20" height="14.2857" rx="1.55491" fill="white"/>
</clipPath>
</defs>
</svg>
