<svg width="24" height="24" viewBox="0 0 24 24" fill="none" xmlns="http://www.w3.org/2000/svg">
<g filter="url(#filter0_dd_9268_40180)">
<g clip-path="url(#clip0_9268_40180)">
<rect x="2" y="4.85718" width="20" height="14.2857" rx="1.55491" fill="#FFDA2C"/>
<path fill-rule="evenodd" clip-rule="evenodd" d="M8.66667 4.85718H22V7.71432H8.66667V4.85718ZM8.66667 10.5715H22V13.4286H8.66667V10.5715ZM2 16.2857H22V19.1429H2V16.2857Z" fill="#0A6A30"/>
<path fill-rule="evenodd" clip-rule="evenodd" d="M2 4.85718H10.5714V13.4286H2V4.85718Z" fill="#F93939"/>
<path fill-rule="evenodd" clip-rule="evenodd" d="M6.22863 10.4734L4.79244 11.2286L5.06672 9.62864L3.90482 8.49816L5.51053 8.26483L6.22863 6.80959L6.94672 8.26388L8.55244 8.49721L7.39053 9.63054L7.66482 11.2286" fill="white"/>
</g>
</g>
<defs>
<filter id="filter0_dd_9268_40180" x="0.833819" y="4.46845" width="22.3324" height="16.618" filterUnits="userSpaceOnUse" color-interpolation-filters="sRGB">
<feFlood flood-opacity="0" result="BackgroundImageFix"/>
<feColorMatrix in="SourceAlpha" type="matrix" values="0 0 0 0 0 0 0 0 0 0 0 0 0 0 0 0 0 0 127 0" result="hardAlpha"/>
<feOffset dy="0.777454"/>
<feGaussianBlur stdDeviation="0.58309"/>
<feComposite in2="hardAlpha" operator="out"/>
<feColorMatrix type="matrix" values="0 0 0 0 0.258824 0 0 0 0 0.278431 0 0 0 0 0.298039 0 0 0 0.08 0"/>
<feBlend mode="normal" in2="BackgroundImageFix" result="effect1_dropShadow_9268_40180"/>
<feColorMatrix in="SourceAlpha" type="matrix" values="0 0 0 0 0 0 0 0 0 0 0 0 0 0 0 0 0 0 127 0" result="hardAlpha"/>
<feOffset/>
<feGaussianBlur stdDeviation="0.0485909"/>
<feComposite in2="hardAlpha" operator="out"/>
<feColorMatrix type="matrix" values="0 0 0 0 0.258824 0 0 0 0 0.278431 0 0 0 0 0.298039 0 0 0 0.32 0"/>
<feBlend mode="normal" in2="effect1_dropShadow_9268_40180" result="effect2_dropShadow_9268_40180"/>
<feBlend mode="normal" in="SourceGraphic" in2="effect2_dropShadow_9268_40180" result="shape"/>
</filter>
<clipPath id="clip0_9268_40180">
<rect x="2" y="4.85718" width="20" height="14.2857" rx="1.55491" fill="white"/>
</clipPath>
</defs>
</svg>
