<svg width="24" height="24" viewBox="0 0 24 24" fill="none" xmlns="http://www.w3.org/2000/svg">
<g filter="url(#filter0_dd_9268_40183)">
<rect x="2" y="4.85718" width="20" height="14.2857" rx="1.55491" fill="#F93939"/>
<path d="M12 15.3334C13.8409 15.3334 15.3333 13.841 15.3333 12.0001C15.3333 10.1591 13.8409 8.66675 12 8.66675C10.159 8.66675 8.66663 10.1591 8.66663 12.0001C8.66663 13.841 10.159 15.3334 12 15.3334Z" fill="white"/>
<path fill-rule="evenodd" clip-rule="evenodd" d="M13.4285 11.5239H14.3809V12.4763H13.4285V11.5239Z" fill="#F93939"/>
<path fill-rule="evenodd" clip-rule="evenodd" d="M13.9048 13.4287C13.4705 14.0068 12.7791 14.381 12 14.381C10.6857 14.381 9.61908 13.3144 9.61908 12.0001C9.61908 10.6858 10.6857 9.61913 12 9.61913C12.7791 9.61913 13.4705 9.99342 13.9048 10.5715H12.4762C11.6877 10.5715 11.0477 11.2115 11.0477 12.0001C11.0477 12.7887 11.6877 13.4287 12.4762 13.4287H13.9048Z" fill="#F93939"/>
</g>
<defs>
<filter id="filter0_dd_9268_40183" x="0.833819" y="4.46845" width="22.3324" height="16.618" filterUnits="userSpaceOnUse" color-interpolation-filters="sRGB">
<feFlood flood-opacity="0" result="BackgroundImageFix"/>
<feColorMatrix in="SourceAlpha" type="matrix" values="0 0 0 0 0 0 0 0 0 0 0 0 0 0 0 0 0 0 127 0" result="hardAlpha"/>
<feOffset dy="0.777454"/>
<feGaussianBlur stdDeviation="0.58309"/>
<feComposite in2="hardAlpha" operator="out"/>
<feColorMatrix type="matrix" values="0 0 0 0 0.258824 0 0 0 0 0.278431 0 0 0 0 0.298039 0 0 0 0.08 0"/>
<feBlend mode="normal" in2="BackgroundImageFix" result="effect1_dropShadow_9268_40183"/>
<feColorMatrix in="SourceAlpha" type="matrix" values="0 0 0 0 0 0 0 0 0 0 0 0 0 0 0 0 0 0 127 0" result="hardAlpha"/>
<feOffset/>
<feGaussianBlur stdDeviation="0.0485909"/>
<feComposite in2="hardAlpha" operator="out"/>
<feColorMatrix type="matrix" values="0 0 0 0 0.258824 0 0 0 0 0.278431 0 0 0 0 0.298039 0 0 0 0.32 0"/>
<feBlend mode="normal" in2="effect1_dropShadow_9268_40183" result="effect2_dropShadow_9268_40183"/>
<feBlend mode="normal" in="SourceGraphic" in2="effect2_dropShadow_9268_40183" result="shape"/>
</filter>
</defs>
</svg>
