<svg width="24" height="24" viewBox="0 0 24 24" fill="none" xmlns="http://www.w3.org/2000/svg">
<g filter="url(#filter0_dd_9268_40185)">
<g clip-path="url(#clip0_9268_40185)">
<rect x="2" y="4.85718" width="20" height="14.2857" rx="1.55491" fill="#249F58"/>
<path fill-rule="evenodd" clip-rule="evenodd" d="M12.7011 7.72764C12.7839 7.71812 12.8677 7.71431 12.9525 7.71431C14.2668 7.71431 15.3334 8.78098 15.3334 10.0953C15.3334 11.4095 14.2668 12.4762 12.9525 12.4762C11.6382 12.4762 10.5715 11.4095 10.5715 10.0953C10.5715 10.0095 10.5763 9.92669 10.5849 9.84383C10.6953 10.7905 11.4992 11.5238 12.4763 11.5238C13.5287 11.5238 14.3811 10.6715 14.3811 9.61907C14.3811 8.64288 13.6477 7.83812 12.7011 7.72764ZM11.5239 8.66669H12.4763V9.61907H11.5239V8.66669Z" fill="white"/>
<path fill-rule="evenodd" clip-rule="evenodd" d="M9.61917 8.66669H10.5716V9.61907H9.61917V8.66669ZM11.5239 6.76193H12.4763V7.71431H11.5239V6.76193Z" fill="white"/>
<path fill-rule="evenodd" clip-rule="evenodd" d="M3.90491 4.85718H4.85729V19.1429H3.90491V4.85718ZM5.80967 4.85718H6.76205V19.1429H5.80967V4.85718ZM7.71443 4.85718H8.66681V19.1429H7.71443V4.85718Z" fill="#D4AF2C"/>
<path fill-rule="evenodd" clip-rule="evenodd" d="M6.76205 4.85718L8.66681 6.28575L6.76205 7.71432V4.85718ZM6.76205 7.71432L8.66681 9.14289L6.76205 10.5715V7.71432ZM6.76205 10.5715L8.66681 12L6.76205 13.4286V10.5715ZM6.76205 13.4286L8.66681 14.8572L6.76205 16.2857V13.4286ZM6.76205 16.2857L8.66681 17.7143L6.76205 19.1429V16.2857ZM5.80967 4.85718L3.90491 6.28575L5.80967 7.71432V4.85718ZM5.80967 7.71432L3.90491 9.14289L5.80967 10.5715V7.71432ZM5.80967 10.5715L3.90491 12L5.80967 13.4286V10.5715ZM5.80967 13.4286L3.90491 14.8572L5.80967 16.2857V13.4286ZM5.80967 16.2857L3.90491 17.7143L5.80967 19.1429V16.2857ZM5.80967 4.85718H6.76205V6.76194H5.80967V4.85718ZM5.80967 17.2381H6.76205V19.1429H5.80967V17.2381ZM5.80967 9.61908H6.76205V11.5238H5.80967V9.61908ZM5.80967 7.71432H6.76205V8.6667H5.80967V7.71432ZM5.80967 15.3334H6.76205V16.2857H5.80967V15.3334ZM5.80967 12.4762H6.76205V14.381H5.80967V12.4762Z" fill="#AE6A3E"/>
</g>
</g>
<defs>
<filter id="filter0_dd_9268_40185" x="0.833819" y="4.46845" width="22.3324" height="16.618" filterUnits="userSpaceOnUse" color-interpolation-filters="sRGB">
<feFlood flood-opacity="0" result="BackgroundImageFix"/>
<feColorMatrix in="SourceAlpha" type="matrix" values="0 0 0 0 0 0 0 0 0 0 0 0 0 0 0 0 0 0 127 0" result="hardAlpha"/>
<feOffset dy="0.777454"/>
<feGaussianBlur stdDeviation="0.58309"/>
<feComposite in2="hardAlpha" operator="out"/>
<feColorMatrix type="matrix" values="0 0 0 0 0.258824 0 0 0 0 0.278431 0 0 0 0 0.298039 0 0 0 0.08 0"/>
<feBlend mode="normal" in2="BackgroundImageFix" result="effect1_dropShadow_9268_40185"/>
<feColorMatrix in="SourceAlpha" type="matrix" values="0 0 0 0 0 0 0 0 0 0 0 0 0 0 0 0 0 0 127 0" result="hardAlpha"/>
<feOffset/>
<feGaussianBlur stdDeviation="0.0485909"/>
<feComposite in2="hardAlpha" operator="out"/>
<feColorMatrix type="matrix" values="0 0 0 0 0.258824 0 0 0 0 0.278431 0 0 0 0 0.298039 0 0 0 0.32 0"/>
<feBlend mode="normal" in2="effect1_dropShadow_9268_40185" result="effect2_dropShadow_9268_40185"/>
<feBlend mode="normal" in="SourceGraphic" in2="effect2_dropShadow_9268_40185" result="shape"/>
</filter>
<clipPath id="clip0_9268_40185">
<rect x="2" y="4.85718" width="20" height="14.2857" rx="1.55491" fill="white"/>
</clipPath>
</defs>
</svg>
