<svg width="24" height="24" viewBox="0 0 24 24" fill="none" xmlns="http://www.w3.org/2000/svg">
<g filter="url(#filter0_dd_9268_40184)">
<rect x="2" y="4.85718" width="20" height="14.2857" rx="2.72109" fill="#F93939"/>
<path fill-rule="evenodd" clip-rule="evenodd" d="M15.3354 13.0973L14.2287 13.6782L14.4401 12.4468L13.5449 11.5735L14.783 11.3925L15.3354 10.2725L15.8877 11.3935L17.1258 11.5744L16.2306 12.4458L16.442 13.6773" fill="white"/>
<path fill-rule="evenodd" clip-rule="evenodd" d="M11.0477 15.3334C12.8886 15.3334 14.381 13.841 14.381 12.0001C14.381 10.1591 12.8886 8.66675 11.0477 8.66675C9.20674 8.66675 7.71436 10.1591 7.71436 12.0001C7.71436 13.841 9.20674 15.3334 11.0477 15.3334ZM12.0001 14.381C13.3144 14.381 14.381 13.3144 14.381 12.0001C14.381 10.6858 13.3144 9.61913 12.0001 9.61913C10.6858 9.61913 9.61912 10.6858 9.61912 12.0001C9.61912 13.3144 10.6858 14.381 12.0001 14.381Z" fill="white"/>
</g>
<defs>
<filter id="filter0_dd_9268_40184" x="0.833819" y="4.46845" width="22.3324" height="16.618" filterUnits="userSpaceOnUse" color-interpolation-filters="sRGB">
<feFlood flood-opacity="0" result="BackgroundImageFix"/>
<feColorMatrix in="SourceAlpha" type="matrix" values="0 0 0 0 0 0 0 0 0 0 0 0 0 0 0 0 0 0 127 0" result="hardAlpha"/>
<feOffset dy="0.777454"/>
<feGaussianBlur stdDeviation="0.58309"/>
<feComposite in2="hardAlpha" operator="out"/>
<feColorMatrix type="matrix" values="0 0 0 0 0.258824 0 0 0 0 0.278431 0 0 0 0 0.298039 0 0 0 0.08 0"/>
<feBlend mode="normal" in2="BackgroundImageFix" result="effect1_dropShadow_9268_40184"/>
<feColorMatrix in="SourceAlpha" type="matrix" values="0 0 0 0 0 0 0 0 0 0 0 0 0 0 0 0 0 0 127 0" result="hardAlpha"/>
<feOffset/>
<feGaussianBlur stdDeviation="0.0485909"/>
<feComposite in2="hardAlpha" operator="out"/>
<feColorMatrix type="matrix" values="0 0 0 0 0.258824 0 0 0 0 0.278431 0 0 0 0 0.298039 0 0 0 0.32 0"/>
<feBlend mode="normal" in2="effect1_dropShadow_9268_40184" result="effect2_dropShadow_9268_40184"/>
<feBlend mode="normal" in="SourceGraphic" in2="effect2_dropShadow_9268_40184" result="shape"/>
</filter>
</defs>
</svg>
