<svg width="24" height="24" viewBox="0 0 24 24" fill="none" xmlns="http://www.w3.org/2000/svg">
<g filter="url(#filter0_dd_9268_40372)">
<g clip-path="url(#clip0_9268_40372)">
<rect x="2" y="4.85718" width="20" height="14.2857" rx="1.55491" fill="#FFDA2C"/>
<path d="M1.99976 16.2857H21.9998V19.1429H1.99976V16.2857Z" fill="#F93939"/>
<path fill-rule="evenodd" clip-rule="evenodd" d="M1.99976 11.5238H21.9998V14.3809H1.99976V11.5238Z" fill="#151515"/>
<path fill-rule="evenodd" clip-rule="evenodd" d="M1.99976 8.66667H21.9998V11.5238H1.99976V8.66667Z" fill="#F93939"/>
<path d="M11.5236 14.381C13.1016 14.381 14.3808 13.1018 14.3808 11.5238C14.3808 9.94586 13.1016 8.66667 11.5236 8.66667C9.94567 8.66667 8.66648 9.94586 8.66648 11.5238C8.66648 13.1018 9.94567 14.381 11.5236 14.381Z" fill="white"/>
<path fill-rule="evenodd" clip-rule="evenodd" d="M11.5236 8.66667L10.5712 11.5238L11.5236 13.4286L12.476 11.5238V14.381L13.4283 11.5238L12.476 10.5714L11.5236 11.5238L11.5236 8.66667Z" fill="#151515"/>
<path fill-rule="evenodd" clip-rule="evenodd" d="M1.99976 4.85718H21.9998V6.76194H1.99976V4.85718Z" fill="#151515"/>
</g>
</g>
<defs>
<filter id="filter0_dd_9268_40372" x="0.833819" y="4.46845" width="22.3324" height="16.618" filterUnits="userSpaceOnUse" color-interpolation-filters="sRGB">
<feFlood flood-opacity="0" result="BackgroundImageFix"/>
<feColorMatrix in="SourceAlpha" type="matrix" values="0 0 0 0 0 0 0 0 0 0 0 0 0 0 0 0 0 0 127 0" result="hardAlpha"/>
<feOffset dy="0.777454"/>
<feGaussianBlur stdDeviation="0.58309"/>
<feComposite in2="hardAlpha" operator="out"/>
<feColorMatrix type="matrix" values="0 0 0 0 0.258824 0 0 0 0 0.278431 0 0 0 0 0.298039 0 0 0 0.08 0"/>
<feBlend mode="normal" in2="BackgroundImageFix" result="effect1_dropShadow_9268_40372"/>
<feColorMatrix in="SourceAlpha" type="matrix" values="0 0 0 0 0 0 0 0 0 0 0 0 0 0 0 0 0 0 127 0" result="hardAlpha"/>
<feOffset/>
<feGaussianBlur stdDeviation="0.0485909"/>
<feComposite in2="hardAlpha" operator="out"/>
<feColorMatrix type="matrix" values="0 0 0 0 0.258824 0 0 0 0 0.278431 0 0 0 0 0.298039 0 0 0 0.32 0"/>
<feBlend mode="normal" in2="effect1_dropShadow_9268_40372" result="effect2_dropShadow_9268_40372"/>
<feBlend mode="normal" in="SourceGraphic" in2="effect2_dropShadow_9268_40372" result="shape"/>
</filter>
<clipPath id="clip0_9268_40372">
<rect x="2" y="4.85718" width="20" height="14.2857" rx="1.55491" fill="white"/>
</clipPath>
</defs>
</svg>
