<svg width="24" height="24" viewBox="0 0 24 24" fill="none" xmlns="http://www.w3.org/2000/svg">
<g filter="url(#filter0_dd_8925_55292)">
<g clip-path="url(#clip0_8925_55292)">
<rect x="2" y="4.85718" width="20" height="14.2857" rx="1.55491" fill="white"/>
<path fill-rule="evenodd" clip-rule="evenodd" d="M2.0003 4.85718H10.5717V11.5238H2.0003V4.85718Z" fill="#1A47B8"/>
<path fill-rule="evenodd" clip-rule="evenodd" d="M10.5717 4.85718L10.5717 5.80956H22.0003V4.85718H10.5717ZM10.5717 6.76194V7.71432H22.0003V6.76194H10.5717ZM10.5717 8.6667V9.61908H22.0003V8.6667H10.5717ZM10.5717 10.5715L10.5717 11.5238H22.0003V10.5715H10.5717ZM2.0003 12.4762V13.4286H22.0003V12.4762H2.0003ZM2.0003 14.381V15.3334H22.0003V14.381H2.0003ZM2.0003 16.2857V17.2381H22.0003V16.2857H2.0003ZM2.0003 18.1905V19.1429H22.0003V18.1905H2.0003Z" fill="#F93939"/>
<path fill-rule="evenodd" clip-rule="evenodd" d="M2.95256 5.80954V6.76192H3.90495V5.80954H2.95256ZM4.85733 5.80954V6.76192H5.80971V5.80954H4.85733ZM6.76209 5.80954V6.76192H7.71447V5.80954H6.76209ZM8.66685 5.80954V6.76192H9.61923V5.80954H8.66685ZM7.71447 6.76192V7.7143H8.66685V6.76192H7.71447ZM5.80971 6.76192V7.7143H6.76209V6.76192H5.80971ZM3.90495 6.76192V7.7143H4.85733V6.76192H3.90495ZM2.95256 7.7143V8.66668H3.90495V7.7143H2.95256ZM4.85733 7.7143V8.66668H5.80971V7.7143H4.85733ZM6.76209 7.7143V8.66668H7.71447V7.7143H6.76209ZM8.66685 7.7143V8.66668H9.61923V7.7143H8.66685ZM2.95256 9.61906V10.5714H3.90495V9.61906H2.95256ZM4.85733 9.61906V10.5714H5.80971V9.61906H4.85733ZM6.76209 9.61906V10.5714H7.71447V9.61906H6.76209ZM8.66685 9.61906V10.5714H9.61923V9.61906H8.66685ZM7.71447 8.66668V9.61906H8.66685V8.66668H7.71447ZM5.80971 8.66668V9.61906H6.76209V8.66668H5.80971ZM3.90495 8.66668V9.61906H4.85733V8.66668H3.90495Z" fill="white"/>
</g>
</g>
<defs>
<filter id="filter0_dd_8925_55292" x="0.833819" y="4.46845" width="22.3324" height="16.618" filterUnits="userSpaceOnUse" color-interpolation-filters="sRGB">
<feFlood flood-opacity="0" result="BackgroundImageFix"/>
<feColorMatrix in="SourceAlpha" type="matrix" values="0 0 0 0 0 0 0 0 0 0 0 0 0 0 0 0 0 0 127 0" result="hardAlpha"/>
<feOffset dy="0.777454"/>
<feGaussianBlur stdDeviation="0.58309"/>
<feComposite in2="hardAlpha" operator="out"/>
<feColorMatrix type="matrix" values="0 0 0 0 0.258824 0 0 0 0 0.278431 0 0 0 0 0.298039 0 0 0 0.08 0"/>
<feBlend mode="normal" in2="BackgroundImageFix" result="effect1_dropShadow_8925_55292"/>
<feColorMatrix in="SourceAlpha" type="matrix" values="0 0 0 0 0 0 0 0 0 0 0 0 0 0 0 0 0 0 127 0" result="hardAlpha"/>
<feOffset/>
<feGaussianBlur stdDeviation="0.0485909"/>
<feComposite in2="hardAlpha" operator="out"/>
<feColorMatrix type="matrix" values="0 0 0 0 0.258824 0 0 0 0 0.278431 0 0 0 0 0.298039 0 0 0 0.32 0"/>
<feBlend mode="normal" in2="effect1_dropShadow_8925_55292" result="effect2_dropShadow_8925_55292"/>
<feBlend mode="normal" in="SourceGraphic" in2="effect2_dropShadow_8925_55292" result="shape"/>
</filter>
<clipPath id="clip0_8925_55292">
<rect x="2" y="4.85718" width="20" height="14.2857" rx="1.55491" fill="white"/>
</clipPath>
</defs>
</svg>
