<svg width="24" height="24" viewBox="0 0 24 24" fill="none" xmlns="http://www.w3.org/2000/svg">
<g filter="url(#filter0_dd_9268_40376)">
<g clip-path="url(#clip0_9268_40376)">
<rect x="2" y="4.85718" width="20" height="14.2857" rx="1.55491" fill="white"/>
<path fill-rule="evenodd" clip-rule="evenodd" d="M11.5239 7.71436H22.0001V9.61912H11.5239V7.71436ZM11.5239 11.5239H22.0001V13.4286H11.5239V11.5239ZM2.00012 15.3334H22.0001V17.2382H2.00012V15.3334Z" fill="#3A99FF"/>
<path fill-rule="evenodd" clip-rule="evenodd" d="M8.5524 11.4096C8.33336 12.5953 7.82859 13.4286 7.23812 13.4286C6.64764 13.4286 6.14288 12.5962 5.92383 11.4096C4.73812 11.1905 3.90479 10.6858 3.90479 10.0953C3.90479 9.50482 4.73717 9.00006 5.92383 8.78101C6.14288 7.5953 6.64764 6.76196 7.23812 6.76196C7.82859 6.76196 8.33336 7.59434 8.5524 8.78101C9.73812 9.00006 10.5715 9.50482 10.5715 10.0953C10.5715 10.6858 9.73907 11.1905 8.5524 11.4096Z" fill="#D4AF2C"/>
<path fill-rule="evenodd" clip-rule="evenodd" d="M7.8924 10.7496C7.83145 12.2762 7.56193 13.4286 7.23812 13.4286C6.91431 13.4286 6.64479 12.2762 6.58383 10.7496C5.05717 10.6886 3.90479 10.4191 3.90479 10.0953C3.90479 9.77149 5.05717 9.50196 6.58383 9.44101C6.64479 7.91434 6.91431 6.76196 7.23812 6.76196C7.56193 6.76196 7.83145 7.91434 7.8924 9.44101C9.41907 9.50196 10.5715 9.77149 10.5715 10.0953C10.5715 10.4191 9.41907 10.6886 7.8924 10.7496V10.7496Z" fill="#FFDA2C"/>
<path d="M7.23814 11.5236C8.02712 11.5236 8.66671 10.8841 8.66671 10.0951C8.66671 9.3061 8.02712 8.6665 7.23814 8.6665C6.44916 8.6665 5.80957 9.3061 5.80957 10.0951C5.80957 10.8841 6.44916 11.5236 7.23814 11.5236Z" fill="#FFDA2C"/>
</g>
</g>
<defs>
<filter id="filter0_dd_9268_40376" x="0.833819" y="4.46845" width="22.3324" height="16.618" filterUnits="userSpaceOnUse" color-interpolation-filters="sRGB">
<feFlood flood-opacity="0" result="BackgroundImageFix"/>
<feColorMatrix in="SourceAlpha" type="matrix" values="0 0 0 0 0 0 0 0 0 0 0 0 0 0 0 0 0 0 127 0" result="hardAlpha"/>
<feOffset dy="0.777454"/>
<feGaussianBlur stdDeviation="0.58309"/>
<feComposite in2="hardAlpha" operator="out"/>
<feColorMatrix type="matrix" values="0 0 0 0 0.258824 0 0 0 0 0.278431 0 0 0 0 0.298039 0 0 0 0.08 0"/>
<feBlend mode="normal" in2="BackgroundImageFix" result="effect1_dropShadow_9268_40376"/>
<feColorMatrix in="SourceAlpha" type="matrix" values="0 0 0 0 0 0 0 0 0 0 0 0 0 0 0 0 0 0 127 0" result="hardAlpha"/>
<feOffset/>
<feGaussianBlur stdDeviation="0.0485909"/>
<feComposite in2="hardAlpha" operator="out"/>
<feColorMatrix type="matrix" values="0 0 0 0 0.258824 0 0 0 0 0.278431 0 0 0 0 0.298039 0 0 0 0.32 0"/>
<feBlend mode="normal" in2="effect1_dropShadow_9268_40376" result="effect2_dropShadow_9268_40376"/>
<feBlend mode="normal" in="SourceGraphic" in2="effect2_dropShadow_9268_40376" result="shape"/>
</filter>
<clipPath id="clip0_9268_40376">
<rect x="2" y="4.85718" width="20" height="14.2857" rx="1.55491" fill="white"/>
</clipPath>
</defs>
</svg>
