<svg width="24" height="24" viewBox="0 0 24 24" fill="none" xmlns="http://www.w3.org/2000/svg">
<g filter="url(#filter0_dd_9271_40628)">
<g clip-path="url(#clip0_9271_40628)">
<path d="M20.0952 4.85718H3.90476C2.85279 4.85718 2 5.70997 2 6.76194V17.2381C2 18.2901 2.85279 19.1429 3.90476 19.1429H20.0952C21.1472 19.1429 22 18.2901 22 17.2381V6.76194C22 5.70997 21.1472 4.85718 20.0952 4.85718Z" fill="white"/>
<path fill-rule="evenodd" clip-rule="evenodd" d="M2 13.4286H22V19.1429H2V13.4286Z" fill="#249F58"/>
<path fill-rule="evenodd" clip-rule="evenodd" d="M2 4.85718H22V10.5715H2V4.85718Z" fill="#AF010D"/>
<path fill-rule="evenodd" clip-rule="evenodd" d="M10.7695 13.4286L3.90476 19.1743H2V4.85718H3.90476L10.7619 10.5715L22 10.5715V13.4286L10.7695 13.4286Z" fill="#151515"/>
<path fill-rule="evenodd" clip-rule="evenodd" d="M10.4762 12.4762L2.47619 19.1429L2 19.1743V4.85718H2.47619L10.4762 11.5238H22V12.4762H10.4762Z" fill="#FFDA2C"/>
<path fill-rule="evenodd" clip-rule="evenodd" d="M2 5.80956L9.61905 12L2 18.1905V5.80956Z" fill="#151515"/>
<path fill-rule="evenodd" clip-rule="evenodd" d="M3.57427 13.7591C3.19331 13.3238 2.95236 12.6972 2.95236 12C2.95236 10.6857 3.80474 9.61908 4.85712 9.61908C5.9095 9.61908 6.76189 10.6857 6.76189 12C6.76189 13.3143 5.9095 14.381 4.85712 14.381V13.4286C5.38284 13.4286 5.8095 12.7886 5.8095 12C5.8095 11.2115 5.38284 10.5715 4.85712 10.5715C4.33141 10.5715 3.90474 11.2115 3.90474 12C3.90474 12.4381 4.03617 12.8286 4.24189 13.0915L3.57427 13.7591Z" fill="#FFDA2C"/>
</g>
</g>
<defs>
<filter id="filter0_dd_9271_40628" x="0.833819" y="4.46845" width="22.3324" height="16.618" filterUnits="userSpaceOnUse" color-interpolation-filters="sRGB">
<feFlood flood-opacity="0" result="BackgroundImageFix"/>
<feColorMatrix in="SourceAlpha" type="matrix" values="0 0 0 0 0 0 0 0 0 0 0 0 0 0 0 0 0 0 127 0" result="hardAlpha"/>
<feOffset dy="0.777454"/>
<feGaussianBlur stdDeviation="0.58309"/>
<feComposite in2="hardAlpha" operator="out"/>
<feColorMatrix type="matrix" values="0 0 0 0 0.258824 0 0 0 0 0.278431 0 0 0 0 0.298039 0 0 0 0.08 0"/>
<feBlend mode="normal" in2="BackgroundImageFix" result="effect1_dropShadow_9271_40628"/>
<feColorMatrix in="SourceAlpha" type="matrix" values="0 0 0 0 0 0 0 0 0 0 0 0 0 0 0 0 0 0 127 0" result="hardAlpha"/>
<feOffset/>
<feGaussianBlur stdDeviation="0.0485909"/>
<feComposite in2="hardAlpha" operator="out"/>
<feColorMatrix type="matrix" values="0 0 0 0 0.258824 0 0 0 0 0.278431 0 0 0 0 0.298039 0 0 0 0.32 0"/>
<feBlend mode="normal" in2="effect1_dropShadow_9271_40628" result="effect2_dropShadow_9271_40628"/>
<feBlend mode="normal" in="SourceGraphic" in2="effect2_dropShadow_9271_40628" result="shape"/>
</filter>
<clipPath id="clip0_9271_40628">
<rect x="2" y="4.85718" width="20" height="14.2857" rx="1.55491" fill="white"/>
</clipPath>
</defs>
</svg>
