<svg width="60" height="60" viewBox="0 0 60 60" fill="none" xmlns="http://www.w3.org/2000/svg">
<rect width="60" height="60" fill="#002147"/>
<path d="M36.373 45.0396C39.8972 46.8871 44.226 45.9419 46.6557 42.7975C48.9771 39.7933 48.9453 35.5779 46.5789 32.5942L43.8692 29.177C39.784 24.0256 34.5297 19.9301 28.5488 17.2351L24.6825 15.4931C21.2126 13.9294 17.1345 14.9471 14.8096 17.9559C12.3816 21.0987 12.5326 25.5435 15.1736 28.5269L20.4471 34.4916C22.8543 37.2123 25.7354 39.4696 28.9476 41.1524L36.373 45.0396Z" stroke="#28D3D5" stroke-width="0.987447"/>
<path d="M24.2749 15.6042C25.4956 11.8412 29.2563 9.51854 33.2117 10.0846C36.9897 10.6251 39.9386 13.6624 40.3494 17.4361L40.82 21.7575C41.5292 28.2723 40.6583 34.8414 38.279 40.9135L36.7418 44.8378C35.3623 48.3599 31.7292 50.457 27.945 49.9152C23.9915 49.3489 20.9674 46.0661 20.7512 42.1024L20.3199 34.1827C20.1227 30.5693 20.5933 26.9572 21.7044 23.5292L24.2749 15.6042Z" stroke="#1EA7A8" stroke-width="0.987447"/>
<path d="M39.9006 17.1798C43.867 16.3736 47.85 18.4838 49.3778 22.2012C50.8352 25.7475 49.6681 29.8222 46.5482 32.08L43.2823 34.4435C37.9387 38.3108 31.7203 40.818 25.1723 41.745L21.2785 42.2969C17.448 42.8393 13.7361 40.7279 12.2771 37.1745C10.7492 33.4595 12.1008 29.1923 15.495 27.0088L21.8951 22.8918C24.9767 20.9096 28.4065 19.5159 32.0052 18.7845L39.9006 17.1798Z" stroke="#2168CC" stroke-width="0.987447"/>
<path d="M36.2998 17.2653C36.9903 18.9455 38.9241 19.7527 40.6191 19.0681C42.314 18.3836 43.1283 16.4665 42.4377 14.7863C41.7472 13.106 39.8134 12.2989 38.1184 12.9834C36.4234 13.668 35.6092 15.585 36.2998 17.2653Z" fill="#FF9000"/>
<path d="M26.2405 31.97C27.2764 34.4904 30.1771 35.7011 32.7196 34.6743C35.262 33.6474 36.4834 30.7718 35.4475 28.2515C34.4117 25.7311 31.511 24.5203 28.9685 25.5471C26.4261 26.574 25.2047 29.4496 26.2405 31.97Z" fill="#FCBE00"/>
<path d="M37.351 37.2391C37.8689 38.4993 39.3193 39.1047 40.5905 38.5913C41.8617 38.0779 42.4724 36.6401 41.9545 35.3799C41.4366 34.1197 39.9862 33.5143 38.715 34.0277C37.4437 34.5411 36.8331 35.9789 37.351 37.2391Z" fill="#FF9000"/>
<path d="M10.1844 23.379C10.7023 24.6392 12.1526 25.2446 13.4239 24.7312C14.6951 24.2178 15.3058 22.78 14.7879 21.5198C14.2699 20.2596 12.8196 19.6542 11.5483 20.1676C10.2771 20.681 9.66644 22.1188 10.1844 23.379Z" fill="#FF9000"/>
</svg>
