<svg width="60" height="60" viewBox="0 0 60 60" fill="none" xmlns="http://www.w3.org/2000/svg">
<rect y="3.05176e-05" width="60" height="60" fill="#1A3D7C"/>
<path d="M30 50C41.0457 50 50 41.0457 50 30C50 18.9543 41.0457 10 30 10C18.9543 10 10 18.9543 10 30C10 41.0457 18.9543 50 30 50Z" fill="#FFB600"/>
<path d="M24.2172 49.5308C24.3172 49.4508 34.2952 41.1724 29.3562 32.3742C24.0372 22.916 10.14 27.4751 10 27.5351L10.3799 28.6349C10.5199 28.5949 23.5173 24.3357 28.3564 32.954C32.8355 40.9125 23.5973 48.551 23.4973 48.631L24.2172 49.5308Z" fill="#0B4870"/>
<path d="M47.3328 26.4755C47.6927 26.4755 48.0527 26.4755 48.4326 26.4555L48.3726 25.2957C44.1135 25.4956 41.0141 24.4559 39.1345 22.2163C35.8951 18.3171 37.3348 11.9983 37.3548 11.9183L36.215 11.6584C36.155 11.9383 34.6154 18.597 38.2346 22.9562C40.1743 25.2957 43.2336 26.4755 47.3328 26.4755Z" fill="#0B4870"/>
<path d="M13.2391 39.3731C38.6741 34.6741 45.9127 17.4574 45.9927 17.2775L44.9129 16.8376C44.8529 16.9975 37.7943 33.6343 13.0392 38.2334L13.2391 39.3731Z" fill="#0B4870"/>
<path d="M41.8338 44.9917L42.9936 44.9517C42.1537 24.5757 20.678 12.858 20.458 12.738L19.9181 13.7578C20.1181 13.8578 41.014 25.2956 41.8338 44.9917Z" fill="#0B4870"/>
</svg>
