<svg width="60" height="60" viewBox="0 0 60 60" fill="none" xmlns="http://www.w3.org/2000/svg">
<path d="M48.9 0H5C2.23858 0 0 2.23858 0 5V7.33263C1.86235 7.57745 3.29994 9.17085 3.29994 11.1C3.29994 13.0292 1.86235 14.6226 0 14.8674V55C0 57.7614 2.23858 60 5 60H8.82072C9.02059 58.0893 10.6363 56.6 12.5999 56.6H13.4999C15.4635 56.6 17.0792 58.0893 17.2791 60H55C57.7614 60 60 57.7614 60 55V52.9H59.6C57.5013 52.9 55.8 51.1987 55.8 49.1C55.8 47.0013 57.5013 45.3 59.6 45.3H60V5C60 2.23858 57.7614 0 55 0H52.2V5.65C52.2 6.56127 51.4613 7.3 50.55 7.3C49.6387 7.3 48.9 6.56127 48.9 5.65V0Z" fill="#0572EC"/>
<path fill-rule="evenodd" clip-rule="evenodd" d="M17.6999 27.4658C17.6999 27.6867 17.5208 27.8658 17.2999 27.8658H5.99994C5.77902 27.8658 5.59991 27.6867 5.59991 27.4658V21.5658H3.85269C3.67282 22.3117 3.00113 22.8659 2.2 22.8659C1.26112 22.8659 0.5 22.1047 0.5 21.1659C0.5 20.227 1.26112 19.4659 2.2 19.4659C3.00109 19.4659 3.67277 20.02 3.85266 20.7658H5.59991V14.9443C4.91828 14.8258 4.40001 14.2313 4.40001 13.5158C4.40001 12.715 5.0492 12.0658 5.85001 12.0658C6.65082 12.0658 7.30001 12.715 7.30001 13.5158C7.30001 14.122 6.92801 14.6413 6.39984 14.8579L6.39991 14.8658V20.7658H8.59997V6.46581C8.59997 6.46579 8.59997 6.46582 8.59997 6.46581L7.0579 6.46576C6.69455 6.46576 6.4 6.17121 6.4 5.80787V2.05787C6.4 1.69452 6.69455 1.39997 7.0579 1.39997H10.7421C11.1055 1.39997 11.4 1.69452 11.4 2.05787V5.80787C11.4 6.17121 11.1055 6.46576 10.7421 6.46576H9.39997C9.39997 6.46575 9.39997 6.46578 9.39997 6.46576V8.16581H14.3C14.3001 7.22697 15.0612 6.4659 16 6.4659C16.9389 6.4659 17.7 7.22702 17.7 8.1659C17.7 9.10478 16.9389 9.8659 16 9.8659C15.3503 9.8659 14.7857 9.50143 14.4996 8.96581H9.39997V20.7658H15.2C15.421 20.7658 15.6 20.9449 15.6 21.1658C15.6 21.3867 15.421 21.5658 15.2 21.5658H6.39991V27.0658H17.2999C17.5208 27.0658 17.6999 27.2449 17.6999 27.4658ZM2.2 21.8585C2.58251 21.8585 2.89259 21.5484 2.89259 21.1659C2.89259 20.7834 2.58251 20.4733 2.2 20.4733C1.81749 20.4733 1.50741 20.7834 1.50741 21.1659C1.50741 21.5484 1.81749 21.8585 2.2 21.8585ZM16 8.85849C16.3825 8.85849 16.6926 8.54841 16.6926 8.1659C16.6926 7.78339 16.3825 7.47331 16 7.47331C15.6175 7.47331 15.3074 7.78339 15.3074 8.1659C15.3074 8.54841 15.6175 8.85849 16 8.85849ZM6.44075 13.5158C6.44075 13.842 6.17627 14.1065 5.85001 14.1065C5.52375 14.1065 5.25927 13.842 5.25927 13.5158C5.25927 13.1895 5.52375 12.925 5.85001 12.925C6.17627 12.925 6.44075 13.1895 6.44075 13.5158Z" fill="white"/>
<path fill-rule="evenodd" clip-rule="evenodd" d="M21.3 3.29991V17.3C21.3 17.5209 21.1209 17.7 20.9 17.7C20.6791 17.7 20.5 17.5209 20.5 17.3V2.9C20.5 2.88358 20.501 2.8674 20.5029 2.85151C20.5268 2.65342 20.6955 2.49991 20.9 2.49991H25.9298C26.0959 1.5345 26.9372 0.799988 27.95 0.799988C29.0822 0.799988 30 1.7178 30 2.84999C30 3.98217 29.0822 4.89999 27.95 4.89999C26.9724 4.89999 26.1546 4.21566 25.9495 3.29991H21.3ZM27.95 1.59999C27.2596 1.59999 26.7 2.15963 26.7 2.84999C26.7 3.54034 27.2596 4.09999 27.95 4.09999C28.6404 4.09999 29.2 3.54034 29.2 2.84999C29.2 2.15963 28.6404 1.59999 27.95 1.59999Z" fill="white"/>
<path fill-rule="evenodd" clip-rule="evenodd" d="M3.59996 57.1999C3.59996 56.3988 4.15413 55.727 4.90004 55.5472V50.1066L4.89998 50.0999L4.90004 50.0932V44.8H3.5C3.36193 44.8 3.24019 44.73 3.16831 44.6236C3.14429 44.5881 3.12583 44.5484 3.1142 44.506C3.10494 44.4722 3.09998 44.4367 3.09998 44.4V39.1702C2.13451 39.0042 1.39993 38.1628 1.39993 37.15C1.39993 36.0178 2.31775 35.1 3.44993 35.1C4.58212 35.1 5.49993 36.0178 5.49993 37.15C5.49993 38.1275 4.81567 38.9453 3.89998 39.1504V44H5.29432L5.30004 43.9999L5.30576 44H7.4C7.62091 44 7.8 44.1791 7.8 44.4C7.8 44.6209 7.62091 44.8 7.4 44.8H5.70004V49.6999H7.84734C8.02724 48.9541 8.69892 48.4 9.50001 48.4C10.4389 48.4 11.2 49.1611 11.2 50.1C11.2 51.0389 10.4389 51.8 9.50001 51.8C8.69888 51.8 8.02718 51.2458 7.84732 50.4999H5.70004V55.5472C6.44587 55.7271 6.99996 56.3988 6.99996 57.1999C6.99996 58.1388 6.23884 58.8999 5.29996 58.8999C4.36107 58.8999 3.59996 58.1388 3.59996 57.1999ZM5.29996 57.8925C5.68247 57.8925 5.99255 57.5824 5.99255 57.1999C5.99255 56.8174 5.68247 56.5073 5.29996 56.5073C4.91745 56.5073 4.60737 56.8174 4.60737 57.1999C4.60737 57.5824 4.91745 57.8925 5.29996 57.8925ZM9.50001 50.7926C9.88251 50.7926 10.1926 50.4825 10.1926 50.1C10.1926 49.7175 9.88251 49.4074 9.50001 49.4074C9.1175 49.4074 8.80741 49.7175 8.80741 50.1C8.80741 50.4825 9.1175 50.7926 9.50001 50.7926ZM2.19993 37.15C2.19993 36.4596 2.75958 35.9 3.44993 35.9C4.14029 35.9 4.69993 36.4596 4.69993 37.15C4.69993 37.8403 4.14029 38.4 3.44993 38.4C2.75958 38.4 2.19993 37.8403 2.19993 37.15Z" fill="white"/>
<path fill-rule="evenodd" clip-rule="evenodd" d="M59.1 33.8499C59.1 33.629 58.9209 33.4499 58.7 33.4499C58.698 33.4499 58.6961 33.4499 58.6942 33.45H55.7043C55.5056 32.9519 55.0188 32.5999 54.4499 32.5999C53.7043 32.5999 53.0999 33.2044 53.0999 33.95C53.0999 34.6955 53.7043 35.2999 54.4499 35.2999C55.0923 35.2999 55.63 34.8512 55.7664 34.25H58.3V42.5499H47.4C47.1791 42.5499 47 42.729 47 42.9499C47 43.1708 47.1791 43.3499 47.4 43.3499H58.6987C58.6991 43.3499 58.6995 43.3499 58.7 43.3499C58.7039 43.3499 58.7077 43.3499 58.7116 43.3498C58.9272 43.3436 59.1 43.167 59.1 42.9499C59.1 42.9473 59.1 42.9447 59.1 42.9421V33.8499ZM54.4499 34.5C54.7536 34.5 54.9999 34.2537 54.9999 33.95C54.9999 33.6462 54.7536 33.3999 54.4499 33.3999C54.1461 33.3999 53.8999 33.6462 53.8999 33.95C53.8999 34.2537 54.1461 34.5 54.4499 34.5Z" fill="white"/>
<path fill-rule="evenodd" clip-rule="evenodd" d="M54.9 28.0499C54.9 28.7955 54.2955 29.3999 53.55 29.3999C52.981 29.3999 52.4943 29.048 52.2956 28.5499H49.3C49.0791 28.5499 48.9 28.3708 48.9 28.1499C48.9 27.929 49.0791 27.7499 49.3 27.7499H52.2334C52.3698 27.1487 52.9075 26.6999 53.55 26.6999C54.2955 26.6999 54.9 27.3043 54.9 28.0499ZM53 28.0499C53 27.7462 53.2462 27.4999 53.55 27.4999C53.8537 27.4999 54.1 27.7462 54.1 28.0499C54.1 28.3537 53.8537 28.5999 53.55 28.5999C53.2462 28.5999 53 28.3537 53 28.0499Z" fill="white"/>
<path fill-rule="evenodd" clip-rule="evenodd" d="M19 54.9414C18.2388 55.2408 17.7 55.9824 17.7 56.8499C17.7 57.9821 18.6179 58.8999 19.75 58.8999C20.8822 58.8999 21.8 57.9821 21.8 56.8499C21.8 55.7344 20.9091 54.827 19.8 54.8005V52.5H28.0936L28.1 52.5C28.3209 52.5 28.5 52.3209 28.5 52.1V43.8C28.5 43.5791 28.3209 43.4 28.1 43.4C27.8791 43.4 27.7 43.5791 27.7 43.8V51.7H19.4057C19.4038 51.6999 19.4019 51.6999 19.4 51.6999C19.2205 51.6999 19.0687 51.8181 19.018 51.9809C19.0102 52.006 19.0048 52.0321 19.0021 52.0591C19.0007 52.0725 19 52.0862 19 52.1C19 52.1006 19 52.1013 19 52.1019V54.9414ZM18.5 56.8499C18.5 56.1595 19.0597 55.5999 19.75 55.5999C20.4404 55.5999 21 56.1595 21 56.8499C21 57.5402 20.4404 58.0999 19.75 58.0999C19.0597 58.0999 18.5 57.5402 18.5 56.8499Z" fill="white"/>
<path fill-rule="evenodd" clip-rule="evenodd" d="M55.4458 19.7001C55.5999 19.1241 56.1254 18.7 56.75 18.7C57.4955 18.7 58.0999 19.3045 58.0999 20.05C58.0999 20.7956 57.4955 21.4 56.75 21.4C56.1622 21.4 55.6621 21.0244 55.4768 20.5001H52.0046L51.9999 20.5001C51.779 20.5001 51.5999 20.321 51.5999 20.1001V12.4001H46.6999C46.479 12.4001 46.2999 12.2211 46.2999 12.0001C46.2999 11.7792 46.479 11.6001 46.6999 11.6001H47.5999V6.90005H42.1999V11.6001C42.1999 11.821 42.0208 12.0001 41.7999 12.0001C41.5789 12.0001 41.3999 11.821 41.3999 11.6001V8.30015H34.8947C34.6229 9.11372 33.8549 9.70012 32.9499 9.70012C31.8177 9.70012 30.8999 8.78231 30.8999 7.65012C30.8999 6.51794 31.8177 5.60012 32.9499 5.60012C34.0316 5.60012 34.9177 6.43799 34.9945 7.50015H41.3999V3.42335C40.8755 3.23802 40.4999 2.73796 40.4999 2.15017C40.4999 1.40459 41.1043 0.800171 41.8499 0.800171C42.5955 0.800171 43.1999 1.40459 43.1999 2.15017C43.1999 2.77471 42.7758 3.3002 42.1999 3.45436V6.10005H47.9999C48.2209 6.10005 48.3999 6.27914 48.3999 6.50005C48.3999 6.50002 48.3999 6.50008 48.3999 6.50005V11.6001H51.9942L51.9999 11.6001L52.0056 11.6001H54.6494C54.8545 10.6844 55.6723 10.0001 56.6499 10.0001C57.7821 10.0001 58.6999 10.918 58.6999 12.0501C58.6999 13.1823 57.7821 14.1001 56.6499 14.1001C55.637 14.1001 54.7957 13.3656 54.6296 12.4001H52.3999V19.7001H55.4458ZM57.2999 20.05C57.2999 20.3538 57.0537 20.6 56.75 20.6C56.4462 20.6 56.2 20.3538 56.2 20.05C56.2 19.7463 56.4462 19.5 56.75 19.5C57.0537 19.5 57.2999 19.7463 57.2999 20.05ZM55.3999 12.0501C55.3999 11.3598 55.9595 10.8001 56.6499 10.8001C57.3402 10.8001 57.8999 11.3598 57.8999 12.0501C57.8999 12.7405 57.3402 13.3001 56.6499 13.3001C55.9595 13.3001 55.3999 12.7405 55.3999 12.0501ZM32.9499 6.40012C32.2595 6.40012 31.6999 6.95977 31.6999 7.65012C31.6999 8.34048 32.2595 8.90012 32.9499 8.90012C33.6402 8.90012 34.1999 8.34048 34.1999 7.65012C34.1999 6.95977 33.6402 6.40012 32.9499 6.40012ZM41.8499 2.70017C42.1536 2.70017 42.3999 2.45393 42.3999 2.15017C42.3999 1.84641 42.1536 1.60017 41.8499 1.60017C41.5461 1.60017 41.2999 1.84641 41.2999 2.15017C41.2999 2.45393 41.5461 2.70017 41.8499 2.70017Z" fill="white"/>
<path fill-rule="evenodd" clip-rule="evenodd" d="M30.9 54.8999C30.9 53.464 32.0641 52.2999 33.5 52.2999C34.8072 52.2999 35.889 53.2645 36.0726 54.5207C36.1126 54.5072 36.1555 54.4999 36.2 54.4999H42.3V52.4073L42.3 52.4L42.3 52.3927V44.2C42.3 43.9791 42.4791 43.8 42.7 43.8C42.921 43.8 43.1 43.9791 43.1 44.2V52H46.9001V49.7C46.9001 49.1477 47.3478 48.7 47.9001 48.7H53.5001C54.0523 48.7 54.5001 49.1477 54.5001 49.7V55.4C54.5001 55.9523 54.0523 56.4 53.5001 56.4H47.9001C47.3478 56.4 46.9001 55.9523 46.9001 55.4V52.8H43.1V54.8999C43.1 55.1208 42.921 55.3 42.7 55.3L42.693 55.2999H36.2C36.1555 55.2999 36.1126 55.2926 36.0726 55.2792C35.889 56.5354 34.8072 57.4999 33.5 57.4999C32.0641 57.4999 30.9 56.3359 30.9 54.8999ZM31.5 54.8999C31.5 53.7954 32.3955 52.8999 33.5 52.8999C34.6046 52.8999 35.5 53.7954 35.5 54.8999C35.5 56.0045 34.6046 56.8999 33.5 56.8999C32.3955 56.8999 31.5 56.0045 31.5 54.8999Z" fill="white"/>
<path d="M16.2 10.4001C16.2 10.1791 16.379 10.0001 16.6 10.0001H18.2C18.4209 10.0001 18.6 10.1791 18.6 10.4001V13.6001C18.6 13.821 18.4209 14.0001 18.2 14.0001H16.6C16.379 14.0001 16.2 13.821 16.2 13.6001V10.4001Z" fill="#FFDC00"/>
<path d="M19.8 10.4001C19.8 10.1792 19.9791 10.0001 20.2 10.0001H21.8C22.0209 10.0001 22.2 10.1792 22.2 10.4001V13.6001C22.2 13.821 22.0209 14.0001 21.8 14.0001H20.2C19.9791 14.0001 19.8 13.821 19.8 13.6001V10.4001Z" fill="#FFDC00"/>
<path d="M23.4 10.4001C23.4 10.1792 23.579 10.0001 23.8 10.0001H25.4C25.6209 10.0001 25.8 10.1792 25.8 10.4001V13.6001C25.8 13.821 25.6209 14.0001 25.4 14.0001H23.8C23.579 14.0001 23.4 13.821 23.4 13.6001V10.4001Z" fill="#FFDC00"/>
<path d="M26.9999 10.4001C26.9999 10.1792 27.179 10.0001 27.3999 10.0001H28.9999C29.2209 10.0001 29.3999 10.1792 29.3999 10.4001V13.6001C29.3999 13.821 29.2209 14.0001 28.9999 14.0001H27.3999C27.179 14.0001 26.9999 13.821 26.9999 13.6001V10.4001Z" fill="#FFDC00"/>
<path d="M30.6001 10.4001C30.6001 10.1792 30.7791 10.0001 31.0001 10.0001H32.6001C32.821 10.0001 33.0001 10.1792 33.0001 10.4001V13.6001C33.0001 13.821 32.821 14.0001 32.6001 14.0001H31.0001C30.7791 14.0001 30.6001 13.821 30.6001 13.6001V10.4001Z" fill="#FFDC00"/>
<path d="M34.2 10.4001C34.2 10.1792 34.3791 10.0001 34.6 10.0001H36.2C36.421 10.0001 36.6 10.1792 36.6 10.4001V13.6001C36.6 13.821 36.421 14.0001 36.2 14.0001H34.6C34.3791 14.0001 34.2 13.821 34.2 13.6001V10.4001Z" fill="#FFDC00"/>
<path d="M37.8 10.4001C37.8 10.1792 37.9791 10.0001 38.2 10.0001H39.8C40.0209 10.0001 40.2 10.1792 40.2 10.4001V13.6001C40.2 13.821 40.0209 14.0001 39.8 14.0001H38.2C37.9791 14.0001 37.8 13.821 37.8 13.6001V10.4001Z" fill="#FFDC00"/>
<path d="M41.4 10.4001C41.4 10.1792 41.5791 10.0001 41.8 10.0001H43.4C43.6209 10.0001 43.8 10.1792 43.8 10.4001V13.6001C43.8 13.821 43.6209 14.0001 43.4 14.0001H41.8C41.5791 14.0001 41.4 13.821 41.4 13.6001V10.4001Z" fill="#FFDC00"/>
<path d="M16.2 46.4C16.2 46.1791 16.379 46 16.6 46H18.2C18.4209 46 18.6 46.1791 18.6 46.4V49.6C18.6 49.8209 18.4209 50 18.2 50H16.6C16.379 50 16.2 49.8209 16.2 49.6V46.4Z" fill="#FFDC00"/>
<path d="M19.8 46.4C19.8 46.1791 19.9791 46 20.2 46H21.8C22.0209 46 22.2 46.1791 22.2 46.4V49.6C22.2 49.821 22.0209 50 21.8 50H20.2C19.9791 50 19.8 49.821 19.8 49.6V46.4Z" fill="#FFDC00"/>
<path d="M23.4 46.4C23.4 46.1791 23.579 46 23.8 46H25.4C25.6209 46 25.8 46.1791 25.8 46.4V49.6C25.8 49.821 25.6209 50 25.4 50H23.8C23.579 50 23.4 49.821 23.4 49.6V46.4Z" fill="#FFDC00"/>
<path d="M26.9999 46.4C26.9999 46.1791 27.179 46 27.3999 46H28.9999C29.2209 46 29.3999 46.1791 29.3999 46.4V49.6C29.3999 49.821 29.2209 50 28.9999 50H27.3999C27.179 50 26.9999 49.821 26.9999 49.6V46.4Z" fill="#FFDC00"/>
<path d="M30.6001 46.4C30.6001 46.1791 30.7791 46 31.0001 46H32.6001C32.821 46 33.0001 46.1791 33.0001 46.4V49.6C33.0001 49.821 32.821 50 32.6001 50H31.0001C30.7791 50 30.6001 49.821 30.6001 49.6V46.4Z" fill="#FFDC00"/>
<path d="M34.2 46.4C34.2 46.1791 34.3791 46 34.6 46H36.2C36.421 46 36.6 46.1791 36.6 46.4V49.6C36.6 49.821 36.421 50 36.2 50H34.6C34.3791 50 34.2 49.821 34.2 49.6V46.4Z" fill="#FFDC00"/>
<path d="M37.8 46.4C37.8 46.1791 37.9791 46 38.2 46H39.8C40.0209 46 40.2 46.1791 40.2 46.4V49.6C40.2 49.821 40.0209 50 39.8 50H38.2C37.9791 50 37.8 49.821 37.8 49.6V46.4Z" fill="#FFDC00"/>
<path d="M41.4 46.4C41.4 46.1791 41.5791 46 41.8 46H43.4C43.6209 46 43.8 46.1791 43.8 46.4V49.6C43.8 49.821 43.6209 50 43.4 50H41.8C41.5791 50 41.4 49.821 41.4 49.6V46.4Z" fill="#FFDC00"/>
<path d="M46.4 43.8001C46.1791 43.8001 46 43.621 46 43.4001V41.8001C46 41.5792 46.1791 41.4001 46.4 41.4001H49.6C49.8209 41.4001 50 41.5792 50 41.8001V43.4001C50 43.621 49.8209 43.8001 49.6 43.8001H46.4Z" fill="#FFDC00"/>
<path d="M46.4 40.2001C46.1791 40.2001 46 40.021 46 39.8001V38.2001C46 37.9792 46.1791 37.8001 46.4 37.8001H49.6C49.8209 37.8001 50 37.9792 50 38.2001V39.8001C50 40.021 49.8209 40.2001 49.6 40.2001H46.4Z" fill="#FFDC00"/>
<path d="M46.4 36.6C46.1791 36.6 46 36.4209 46 36.2V34.6C46 34.3791 46.1791 34.2 46.4 34.2H49.6C49.8209 34.2 50 34.3791 50 34.6V36.2C50 36.4209 49.8209 36.6 49.6 36.6H46.4Z" fill="#FFDC00"/>
<path d="M46.4 33.0001C46.1791 33.0001 46 32.821 46 32.6001V31.0001C46 30.7792 46.1791 30.6001 46.4 30.6001H49.6C49.8209 30.6001 50 30.7792 50 31.0001V32.6001C50 32.821 49.8209 33.0001 49.6 33.0001H46.4Z" fill="#FFDC00"/>
<path d="M46.4 29.4C46.1791 29.4 46 29.2209 46 29V27.4C46 27.1791 46.1791 27 46.4 27H49.6C49.8209 27 50 27.1791 50 27.4V29C50 29.2209 49.8209 29.4 49.6 29.4H46.4Z" fill="#FFDC00"/>
<path d="M46.4 25.8C46.1791 25.8 46 25.6209 46 25.4V23.8C46 23.5791 46.1791 23.4 46.4 23.4H49.6C49.8209 23.4 50 23.5791 50 23.8V25.4C50 25.6209 49.8209 25.8 49.6 25.8H46.4Z" fill="#FFDC00"/>
<path d="M46.4 22.2C46.1791 22.2 46 22.0209 46 21.8V20.2C46 19.9791 46.1791 19.8 46.4 19.8H49.6C49.8209 19.8 50 19.9791 50 20.2V21.8C50 22.0209 49.8209 22.2 49.6 22.2H46.4Z" fill="#FFDC00"/>
<path d="M46.4 18.6C46.1791 18.6 46 18.421 46 18.2V16.6C46 16.3791 46.1791 16.2 46.4 16.2H49.6C49.8209 16.2 50 16.3791 50 16.6V18.2C50 18.421 49.8209 18.6 49.6 18.6H46.4Z" fill="#FFDC00"/>
<path d="M10.4 43.8001C10.1791 43.8001 10 43.621 10 43.4001V41.8001C10 41.5792 10.1791 41.4001 10.4 41.4001H13.6C13.8209 41.4001 14 41.5792 14 41.8001V43.4001C14 43.621 13.8209 43.8001 13.6 43.8001H10.4Z" fill="#FFDC00"/>
<path d="M10.4 40.2001C10.1791 40.2001 10 40.021 10 39.8001V38.2001C10 37.9792 10.1791 37.8001 10.4 37.8001H13.6C13.821 37.8001 14 37.9792 14 38.2001V39.8001C14 40.021 13.821 40.2001 13.6 40.2001H10.4Z" fill="#FFDC00"/>
<path d="M10.4 36.6C10.1791 36.6 10 36.4209 10 36.2V34.6C10 34.3791 10.1791 34.2 10.4 34.2H13.6C13.821 34.2 14 34.3791 14 34.6V36.2C14 36.4209 13.821 36.6 13.6 36.6H10.4Z" fill="#FFDC00"/>
<path d="M10.4 33.0001C10.1791 33.0001 10 32.821 10 32.6001V31.0001C10 30.7792 10.1791 30.6001 10.4 30.6001H13.6C13.821 30.6001 14 30.7792 14 31.0001V32.6001C14 32.821 13.821 33.0001 13.6 33.0001H10.4Z" fill="#FFDC00"/>
<path d="M10.4 29.4C10.1791 29.4 10 29.2209 10 29V27.4C10 27.1791 10.1791 27 10.4 27H13.6C13.821 27 14 27.1791 14 27.4V29C14 29.2209 13.821 29.4 13.6 29.4H10.4Z" fill="#FFDC00"/>
<path d="M10.4 25.8C10.1791 25.8 10 25.6209 10 25.4V23.8C10 23.5791 10.1791 23.4 10.4 23.4H13.6C13.821 23.4 14 23.5791 14 23.8V25.4C14 25.6209 13.821 25.8 13.6 25.8H10.4Z" fill="#FFDC00"/>
<path d="M10.4 22.2C10.1791 22.2 10 22.0209 10 21.8V20.2C10 19.9791 10.1791 19.8 10.4 19.8H13.6C13.821 19.8 14 19.9791 14 20.2V21.8C14 22.0209 13.821 22.2 13.6 22.2H10.4Z" fill="#FFDC00"/>
<path d="M10.4 18.6C10.1791 18.6 10 18.421 10 18.2V16.6C10 16.3791 10.1791 16.2 10.4 16.2H13.6C13.821 16.2 14 16.3791 14 16.6V18.2C14 18.421 13.821 18.6 13.6 18.6H10.4Z" fill="#FFDC00"/>
<path d="M13 15C13 13.8954 13.8954 13 15 13H45C46.1045 13 47 13.8954 47 15V45C47 46.1046 46.1045 47 45 47H15C13.8954 47 13 46.1046 13 45V15Z" fill="#2ECC40"/>
<path d="M18 19.4118C18 18.6321 18.6321 18 19.4117 18H40.5876C41.3672 18 41.9993 18.6321 41.9993 19.4118V40.5876C41.9993 41.3673 41.3672 41.9993 40.5876 41.9993H19.4117C18.6321 41.9993 18 41.3673 18 40.5876V19.4118Z" fill="#0A2240"/>
</svg>
