<svg width="60" height="60" viewBox="0 0 60 60" fill="none" xmlns="http://www.w3.org/2000/svg">
<rect width="60" height="60" fill="#8B0000"/>
<path d="M20.5771 23.1796C24.3327 19.961 26.7038 15.9302 27.8616 10.5826C27.9796 10.0331 28.6581 9.79761 29.0545 10.2072C34.1929 15.5232 30.8042 23.857 34.4842 24.729C37.2719 25.115 38.1717 22.6158 38.5496 19.5842C38.6289 18.9499 39.4309 18.6913 39.8236 19.2045C45.1427 26.1665 38.981 31.4277 41.8148 33.6604C43.3765 34.8912 44.6542 35.4821 45.3824 35.7502C45.7493 35.8851 46.0093 36.2441 45.9411 36.6184C44.6855 43.5072 37.4139 49.9833 28.9402 49.9877C22.5886 49.9877 12.5311 46.6395 11.7051 31.8408C11.6664 31.1629 12.5772 30.7975 13.11 31.2371C14.3711 32.2771 16.237 33.4277 17.8318 32.8495C17.9701 32.7993 18.0844 32.6956 18.1508 32.5682C19.6073 29.8211 15.0275 29.211 20.5771 23.1796Z" fill="url(#paint0_linear_4601_142026)"/>
<path d="M23.0062 31.051C25.6648 28.7769 27.3426 25.9291 28.163 22.1509C28.246 21.7627 28.7272 21.5963 29.0075 21.8856C32.6433 25.6415 30.2446 31.5296 32.8516 32.1457C34.8244 32.4184 35.4604 30.6527 35.7278 28.5108C35.7831 28.0626 36.3528 27.8799 36.6294 28.2425C40.3961 33.1613 36.0338 36.8785 38.0398 38.456C39.146 39.3255 40.0495 39.7431 40.5657 39.9324C40.8257 40.0277 41.01 40.2814 40.9602 40.5458C40.0716 45.4131 34.9239 49.9886 28.9263 49.9917C24.4295 49.9917 17.3091 47.6261 16.7246 37.1704C16.697 36.6914 17.3422 36.4332 17.7202 36.7439C18.6126 37.4786 19.9345 38.2915 21.061 37.883C21.1606 37.8476 21.2399 37.7744 21.2878 37.6844C22.3184 35.7435 19.0772 35.3123 23.0062 31.051Z" fill="url(#paint1_linear_4601_142026)"/>
<path d="M24.8164 36.7835C26.6509 35.1988 27.8088 33.2145 28.3748 30.582C28.432 30.3115 28.7638 30.1955 28.9574 30.3972C31.4667 33.0142 29.8111 37.1168 31.6087 37.546C32.9712 37.7361 33.41 36.5058 33.5944 35.0133C33.6331 34.7012 34.0258 34.5738 34.2175 34.8265C36.8153 38.2538 33.8064 40.8439 35.1892 41.9429C35.9525 42.5488 36.5756 42.8397 36.9315 42.9717C37.1103 43.0381 37.2376 43.2149 37.2044 43.3991C36.5923 46.7904 33.0394 49.9786 28.9021 49.9808C25.7991 49.9808 20.8875 48.3325 20.4837 41.0472C20.4653 40.7135 20.9096 40.5336 21.1696 40.75C21.7872 41.262 22.698 41.8284 23.4761 41.5438C23.5443 41.519 23.5996 41.468 23.6328 41.4053C24.3426 40.0529 22.1062 39.7526 24.8164 36.7835Z" fill="url(#paint2_linear_4601_142026)"/>
<path d="M28.949 21.7476C21.8906 21.7476 16.1687 28.0721 16.1687 35.8738C16.1687 43.6755 21.8906 50 28.949 50C36.0073 50 41.7292 43.6755 41.7292 35.8738C41.7292 28.0721 36.0073 21.7476 28.949 21.7476Z" fill="url(#paint3_linear_4601_142026)"/>
<path d="M19.8648 17.834C17.5085 16.3271 19.8408 12.5918 21.4154 10.624C21.6421 10.3402 22.057 10.2773 22.3354 10.5076C23.8952 11.7983 24.0095 13.5269 23.7385 14.3556C23.3218 16.5803 21.6993 19.0056 19.8648 17.834Z" fill="url(#paint4_linear_4601_142026)"/>
<path d="M46.1274 32.5268C48.1813 32.5268 48.3878 29.5849 48.2698 27.7299C48.244 27.3273 47.8992 27.0163 47.5028 27.0856C46.096 27.3309 45.3456 28.2818 45.1686 28.8679C44.4735 30.3988 44.4588 32.5268 46.1274 32.5268Z" fill="url(#paint5_linear_4601_142026)"/>
<path d="M14.9147 30.2737C16.1278 30.2737 16.2514 28.5361 16.1813 27.4405C16.1665 27.2026 15.9619 27.019 15.7277 27.0599C14.8962 27.2048 14.4537 27.7664 14.3505 28.1126C13.9393 29.0168 13.9301 30.2737 14.9147 30.2737Z" fill="url(#paint6_linear_4601_142026)"/>
<defs>
<linearGradient id="paint0_linear_4601_142026" x1="28.8461" y1="9.34072" x2="28.8461" y2="49.9877" gradientUnits="userSpaceOnUse">
<stop stop-color="#FF5C20"/>
<stop offset="1" stop-color="#FFBC3B"/>
</linearGradient>
<linearGradient id="paint1_linear_4601_142026" x1="28.8599" y1="21.2735" x2="28.8599" y2="49.9917" gradientUnits="userSpaceOnUse">
<stop stop-color="#FFC83B"/>
<stop offset="1" stop-color="#FFBC3B"/>
</linearGradient>
<linearGradient id="paint2_linear_4601_142026" x1="28.856" y1="29.9706" x2="28.856" y2="49.9808" gradientUnits="userSpaceOnUse">
<stop stop-color="#FFE8AF"/>
<stop offset="1" stop-color="#FFD43B"/>
</linearGradient>
<linearGradient id="paint3_linear_4601_142026" x1="28.949" y1="50.0001" x2="27.4832" y2="35.9448" gradientUnits="userSpaceOnUse">
<stop stop-color="#FFD283"/>
<stop offset="1" stop-color="#FFB83C" stop-opacity="0"/>
</linearGradient>
<linearGradient id="paint4_linear_4601_142026" x1="23.6831" y1="11.3243" x2="19.6233" y2="17.6787" gradientUnits="userSpaceOnUse">
<stop stop-color="#FF703B"/>
<stop offset="1" stop-color="#FFBC3B"/>
</linearGradient>
<linearGradient id="paint5_linear_4601_142026" x1="46.5109" y1="27.0264" x2="46.5109" y2="32.5268" gradientUnits="userSpaceOnUse">
<stop stop-color="#FF703B"/>
<stop offset="1" stop-color="#FFBC3B"/>
</linearGradient>
<linearGradient id="paint6_linear_4601_142026" x1="15.1414" y1="27.025" x2="15.1414" y2="30.2737" gradientUnits="userSpaceOnUse">
<stop stop-color="#FF703B"/>
<stop offset="1" stop-color="#FFBC3B"/>
</linearGradient>
</defs>
</svg>
