<svg width="60" height="60" viewBox="0 0 60 60" fill="none" xmlns="http://www.w3.org/2000/svg">
<rect y="3.05176e-05" width="60" height="60" fill="#F3E5AB"/>
<path fill-rule="evenodd" clip-rule="evenodd" d="M6.99045 25.3736H7.01215V25.1153C7.01215 22.9326 8.78162 21.1631 10.9644 21.1631H24.6201C26.8029 21.1631 28.5723 22.9326 28.5723 25.1153V25.3736H31.5486V25.1153C31.5486 22.9326 33.3181 21.1631 35.5008 21.1631H49.1565C51.3393 21.1631 53.1088 22.9326 53.1088 25.1153V25.3785C53.6092 25.4283 54 25.8505 54 26.364C54 26.8775 53.6092 27.2998 53.1088 27.3496V34.8848C53.1088 37.0675 51.3393 38.837 49.1565 38.837H35.5008C33.3181 38.837 31.5486 37.0675 31.5486 34.8848V30.3051H28.5723V34.8848C28.5723 37.0675 26.8029 38.837 24.6201 38.837H10.9644C8.78162 38.837 7.01215 37.0675 7.01215 34.8848V27.3545H6.99045C6.44344 27.3545 6 26.911 6 26.364C6 25.817 6.44344 25.3736 6.99045 25.3736ZM24.6201 23.3764H10.9644C10.004 23.3764 9.2254 24.1549 9.2254 25.1153V25.3736H26.3591V25.1153C26.3591 24.1549 25.5805 23.3764 24.6201 23.3764ZM31.5486 28.2024V27.3545H28.5723V28.2024H31.5486ZM33.7618 27.3545V34.8848C33.7618 35.8452 34.5404 36.6238 35.5008 36.6238H49.1565C50.117 36.6238 50.8955 35.8452 50.8955 34.8848V27.3545H46.6734C46.8654 27.6185 47.0291 27.8946 47.1674 28.1748C47.7594 29.3746 47.9029 30.6724 47.8562 31.5281C47.8277 32.0512 47.3805 32.4521 46.8574 32.4236C46.3343 32.395 45.9334 31.9478 45.962 31.4247C45.9946 30.8269 45.8866 29.8662 45.4662 29.0143C45.1049 28.2822 44.5298 27.6529 43.5985 27.3545H33.7618ZM50.8955 25.3736V25.1153C50.8955 24.1549 50.117 23.3764 49.1565 23.3764H35.5008C34.5404 23.3764 33.7618 24.1549 33.7618 25.1153V25.3736H50.8955ZM26.3591 34.8848V27.3545H16.5822C15.6509 27.6529 15.0757 28.2822 14.7145 29.0143C14.2941 29.8662 14.1861 30.8269 14.2187 31.4247C14.2472 31.9478 13.8463 32.395 13.3233 32.4236C12.8002 32.4521 12.353 32.0512 12.3244 31.5281C12.2777 30.6724 12.4212 29.3746 13.0133 28.1748C13.1515 27.8946 13.3153 27.6185 13.5073 27.3545H9.2254V34.8848C9.2254 35.8452 10.004 36.6238 10.9644 36.6238H24.6201C25.5805 36.6238 26.3591 35.8452 26.3591 34.8848Z" fill="#2A5A67"/>
<path d="M11.1196 23.3389C10.0719 23.3389 9.22253 24.1882 9.22253 25.236V34.8075C9.22253 35.8552 10.0719 36.7045 11.1196 36.7045H24.4953C25.543 36.7045 26.3924 35.8552 26.3924 34.8075V25.236C26.3924 24.1882 25.543 23.3389 24.4953 23.3389H11.1196Z" fill="#71F0FB" fill-opacity="0.3"/>
<path d="M35.5907 23.3389C34.543 23.3389 33.6937 24.1882 33.6937 25.236V34.8075C33.6937 35.8552 34.543 36.7045 35.5907 36.7045H49.0541C50.1018 36.7045 50.9512 35.8552 50.9512 34.8075V25.236C50.9512 24.1882 50.1018 23.3389 49.0541 23.3389H35.5907Z" fill="#71F0FB" fill-opacity="0.3"/>
</svg>
