<svg width="60" height="60" viewBox="0 0 60 60" fill="none" xmlns="http://www.w3.org/2000/svg">
<rect y="3.05176e-05" width="60" height="60" fill="#381B3E"/>
<path fill-rule="evenodd" clip-rule="evenodd" d="M26.8388 14.2666V10.8057C28.912 10.901 32.629 12.4998 31.7549 18.0288H34.928L36.3574 19.5335L37.9374 18.0288H41.0221L42.8277 19.9097L44.3325 18.405C47.9689 19.3329 54.9708 23.4609 53.8874 32.5494C52.5332 43.91 39.8183 49.5527 37.6365 49.1765L36.3574 47.9728L35.1537 49.1765H31.3919L29.9624 47.9728L28.7586 49.1765H24.9968L23.6426 47.9728L22.3635 49.1765C20.1817 49.5527 7.46684 43.91 6.11259 32.5494C5.02919 23.4609 12.0312 19.3329 15.6676 18.405L17.1723 19.8345L19.0532 18.0288H22.1378L23.5673 19.5335L25.1473 18.0288H28.1632C28.8286 14.9565 27.6182 14.222 26.8388 14.2666ZM17.1371 23.1445V31.6462H25.7893L24.0589 29.8405H20.3723V26.0787L17.1371 23.1445ZM43.2413 31.6462V23.1445L40.0062 26.0787V29.8405H36.3196L34.5892 31.6462H43.2413ZM30.0001 32.1747L25.8622 36.2375L28.7678 35.6344C29.4817 35.4862 30.2182 35.4836 30.9332 35.6266L33.9877 36.2375L30.0001 32.1747ZM23.0808 43.457L17.1371 37.5133L24.8112 41.5008L26.8426 39.3942L28.4978 41.0494L30.2282 39.3942L31.7329 41.0494L33.3881 39.3942L35.57 41.5008L43.1688 37.4381L37.2252 43.457H23.0808Z" fill="#F6BE29"/>
<path fill-rule="evenodd" clip-rule="evenodd" d="M13.5459 22.392C9.8844 25.577 5.22478 34.0536 15.8782 42.48C13.1195 39.4706 8.79093 31.2398 13.5459 22.392ZM46.5519 22.392C50.2134 25.577 54.873 34.0536 44.2196 42.48C46.9783 39.4706 51.3069 31.2398 46.5519 22.392Z" fill="#C35A96"/>
</svg>
