<svg width="60" height="60" viewBox="0 0 60 60" fill="none" xmlns="http://www.w3.org/2000/svg">
<rect width="60" height="60" fill="#F0F4F8"/>
<path d="M17.7429 28.1599C19.8604 21.8188 24.3395 19.1171 26.314 18.5588C28.227 18.0177 30.8599 17.8745 33.4325 20.3509C36.3756 23.1838 34.8578 27.9219 32.4311 30.6407C30.0044 33.3594 28.7874 37.4278 31.3055 40.6972C33.6528 43.7449 39.0754 45.5608 43.0255 41.6063C36.5238 48.1153 30.7857 47.4283 26.359 45.7617C20.2372 43.4569 15.2166 35.7253 17.7429 28.1599Z" fill="#FE9D8F"/>
<path d="M15.0313 21.5519C18.8057 14.2907 24.7386 11.882 27.2328 11.585C29.6492 11.2972 32.8599 11.6282 35.4961 15.1149C38.512 19.1036 35.7695 24.5415 32.315 27.364C28.8604 30.1864 26.6098 34.8722 29.0283 39.3073C31.2827 43.4415 37.3335 46.7901 43.0243 42.6507C33.9169 49.2754 27.1109 47.346 22.0779 44.4832C15.1177 40.5243 10.5282 30.215 15.0313 21.5519Z" fill="url(#paint0_linear_4217_140085)"/>
<path d="M45.6925 18.3652C41.5463 12.146 36.0516 10.424 33.8225 10.3405C38.5705 12.2129 40.0919 16.6934 40.259 19.1175C40.2994 19.7027 40.1253 20.99 41.9309 23.4643C43.7364 25.9386 42.8504 26.8915 42.1816 27.0587C41.7358 27.1701 40.8943 27.8277 41.095 29.5664C41.3457 31.7398 40.8442 31.7398 40.0083 32.7429C39.1724 33.746 35.16 31.907 34.1569 35.0834C33.0574 38.5652 35.0114 39.1794 35.8287 40.5168C36.7482 42.0215 42.4324 43.8605 44.773 41.102C46.6454 38.8952 47.9494 35.7243 48.3674 34.4147C49.2033 31.6562 49.8386 24.5844 45.6925 18.3652Z" fill="url(#paint1_linear_4217_140085)"/>
<path fill-rule="evenodd" clip-rule="evenodd" d="M38.376 42.07C41.3244 40.9923 44.3292 38.5401 45.8585 33.5792C48.5917 24.7129 42.9683 18.7098 39.7863 16.7953C40.066 17.6583 40.21 18.4632 40.2552 19.1181C40.2595 19.1806 40.2613 19.2511 40.2634 19.3302C40.2809 19.9918 40.3143 21.2548 41.927 23.4648C43.7325 25.9391 42.8465 26.8921 42.1777 27.0592C41.7319 27.1707 40.8904 27.8283 41.0911 29.567C41.2969 31.3511 40.9958 31.6706 40.4189 32.2828C40.2931 32.4163 40.1541 32.5638 40.0044 32.7434C39.7031 33.105 38.9892 33.0973 38.1523 33.0883C36.6672 33.0724 34.7946 33.0523 34.153 35.084C33.3175 37.7296 34.245 38.7196 35.0973 39.6292C35.3667 39.9167 35.6285 40.1962 35.8248 40.5174C36.1636 41.0718 37.1492 41.6715 38.376 42.07Z" fill="#0D374E"/>
<path d="M13.6728 19.4522C18.3532 12.0957 24.8741 10.09 27.549 10.0064C30.1405 9.92527 33.5176 10.5748 35.9919 14.5203C38.8226 19.034 35.4068 24.5512 31.478 27.2261C27.5492 29.901 24.7254 34.6656 26.8805 39.5976C28.8894 44.195 34.9447 48.2542 41.4253 44.4459C31.1436 50.6316 24.0988 47.9518 19.0227 44.4459C12.0028 39.5976 8.08875 28.2291 13.6728 19.4522Z" fill="url(#paint2_linear_4217_140085)"/>
<path fill-rule="evenodd" clip-rule="evenodd" d="M30.2477 11.2668C27.2056 11.8525 20.2556 13.9446 16.9514 18.7981C13.0816 24.4823 11.6802 35.116 19.6265 42.0616C25.1633 46.9012 32.1765 47.4367 36.112 46.9967C36.7583 46.7692 37.4196 46.5048 38.0964 46.2006L38.3522 45.8916C33.4453 47.0783 28.5402 43.3953 26.8811 39.5985C24.726 34.6665 27.5498 29.9019 31.4786 27.227C35.4074 24.5521 38.8232 19.0349 35.9925 14.5212C34.4576 12.0736 32.5753 10.8944 30.7486 10.3712L30.2477 11.2668Z" fill="url(#paint3_linear_4217_140085)"/>
<path fill-rule="evenodd" clip-rule="evenodd" d="M25.4563 10.3324C26.3026 10.6106 27.2948 11.5025 27.4832 13.6823C27.7399 16.6538 27.0458 19.3852 23.9438 22.3563C19.2479 26.854 17.7008 38.2589 26.9035 44.6842L31.1367 44.4495C29.2113 43.2059 27.6736 41.4148 26.8796 39.5976C24.7245 34.6656 27.5483 29.901 31.4771 27.2261C33.3937 25.9212 35.1882 23.9399 36.195 21.7287L35.2457 13.4611C32.8678 10.4555 29.8878 9.93315 27.5481 10.0064C26.9973 10.0236 26.2835 10.1223 25.4563 10.3324Z" fill="url(#paint4_linear_4217_140085)"/>
<path fill-rule="evenodd" clip-rule="evenodd" d="M32.8191 11.4949C33.9615 12.6657 35.7949 15.8605 33.9893 19.2727C32.6428 21.8174 30.5595 23.5509 28.532 25.238C25.9618 27.3766 23.4812 29.4407 22.7046 32.9884C21.5328 38.3409 24.543 44.9479 30.3113 46.6205C32.4543 47.2419 34.1806 47.3398 35.5149 47.1741C36.5117 46.8538 37.545 46.4452 38.6164 45.9376C38.6855 45.873 38.7462 45.8094 38.7988 45.7475C33.7424 47.2796 28.583 43.4892 26.8724 39.578C24.7158 34.6474 27.5415 29.8842 31.4728 27.2101C35.4042 24.5359 38.8222 19.0204 35.9897 14.5079C34.8464 12.6865 33.5105 11.5678 32.1483 10.899L32.8191 11.4949Z" fill="#0C364D"/>
<defs>
<linearGradient id="paint0_linear_4217_140085" x1="23.0315" y1="12.063" x2="29.1117" y2="47.3551" gradientUnits="userSpaceOnUse">
<stop stop-color="#694561"/>
<stop offset="1" stop-color="#CF8482"/>
</linearGradient>
<linearGradient id="paint1_linear_4217_140085" x1="41.4024" y1="10.3405" x2="41.4024" y2="42.5258" gradientUnits="userSpaceOnUse">
<stop stop-color="#38B9C6"/>
<stop offset="1" stop-color="#104059"/>
</linearGradient>
<linearGradient id="paint2_linear_4217_140085" x1="26.2216" y1="10" x2="26.2216" y2="48.1473" gradientUnits="userSpaceOnUse">
<stop stop-color="#3FD3DD"/>
<stop offset="1" stop-color="#0B374D"/>
</linearGradient>
<linearGradient id="paint3_linear_4217_140085" x1="26.0985" y1="10.3712" x2="26.0985" y2="47.1202" gradientUnits="userSpaceOnUse">
<stop stop-color="#39B6C5"/>
<stop offset="1" stop-color="#163F58"/>
</linearGradient>
<linearGradient id="paint4_linear_4217_140085" x1="28.1965" y1="10" x2="28.1965" y2="44.6842" gradientUnits="userSpaceOnUse">
<stop stop-color="#5BFFFF"/>
<stop offset="1" stop-color="#256684"/>
</linearGradient>
</defs>
</svg>
