<svg width="100" height="100" viewBox="0 0 100 100" fill="none" xmlns="http://www.w3.org/2000/svg">
<path d="M11.9564 50.7459C8.15585 54.1904 10.8965 60.7784 11.8466 63.9692L59.7627 64.1175C57.3834 74.9595 70.5839 68.3697 77.4943 63.8634L90 64.0049C89.6439 57.7545 83.4312 51.8292 80.6541 49.6867C81.9512 47.2408 81.2073 34.6461 79.064 33.8266C77.6412 33.2826 72.9805 37.6524 72.1465 39.2982C62.9924 35.2413 49.9152 34.1646 44.257 34.7206C42.9108 32.8234 39.589 29.6513 38.1186 30.0198C36.9984 30.3006 34.6749 34.9187 34.1496 36.8317C30.3309 37.982 21.1703 46.7781 19.6881 51.3947C19.1662 50.9196 15.0594 47.9337 11.9564 50.7459Z" fill="white" stroke="black"/>
<path d="M38.6974 53.6786C39.3684 54.6297 41.0019 55.9364 42.4255 54.0319C42.556 53.8573 42.8214 53.8373 42.9725 53.9945C44.0129 55.0765 46.046 56.3174 47.7841 54.4904" stroke="black" stroke-linecap="round"/>
<ellipse cx="33.5198" cy="53.6424" rx="1.58134" ry="1.6974" transform="rotate(-14 33.5198 53.6424)" fill="black"/>
<ellipse cx="58.2929" cy="55.0229" rx="1.43088" ry="1.64459" transform="rotate(-14 58.2929 55.0229)" fill="black"/>
<path d="M19.4782 51.2278L22.7858 54.0505M59.6933 64.0402L61.6653 60.5298" stroke="black" stroke-linecap="round"/>
<ellipse cx="13.2018" cy="57.3897" rx="0.897831" ry="0.987185" transform="rotate(-14 13.2018 57.3897)" fill="#F190A2"/>
<ellipse cx="16.2453" cy="57.9509" rx="1.54695" ry="1.98297" transform="rotate(-7 16.2453 57.9509)" fill="#F190A2"/>
<ellipse cx="13.9382" cy="53.9167" rx="0.871424" ry="1.12014" transform="rotate(10 13.9382 53.9167)" fill="#F190A2"/>
<ellipse cx="17.6213" cy="54.1402" rx="1.44027" ry="0.854578" transform="rotate(-21 17.6213 54.1402)" fill="#F190A2"/>
<path d="M80.43 62.7228L78.9967 63.2688L77.5635 63.8148" stroke="black" stroke-linecap="round"/>
</svg>
