<svg width="100" height="100" viewBox="0 0 100 100" fill="none" xmlns="http://www.w3.org/2000/svg">
<path d="M32.3677 36.4733C28.6609 37.5899 20.0781 44.2405 17.8 49.9639C17.5254 50.6537 17.1923 51.3229 16.7285 51.9025C8.3477 62.375 3.85636 80.1774 27.6486 64.2141L58.798 64.6296L77.0953 64.3675L90 64.5135C89.6325 58.0636 83.2216 51.9493 80.356 49.7384C81.6944 47.2145 80.9268 34.218 78.7151 33.3724C77.2469 32.811 72.4375 37.3201 71.5769 39.0185C62.1307 34.8322 48.6362 33.7211 42.7975 34.2949C41.4083 32.3371 37.9806 29.0639 36.4633 29.4441C35.3074 29.7338 32.9098 34.4993 32.3677 36.4733Z" fill="white" stroke="black"/>
<path d="M37.0771 53.8537C37.7694 54.8351 39.4551 56.1834 40.924 54.2182C41.0587 54.038 41.3326 54.0174 41.4885 54.1796C42.5622 55.2961 44.6601 56.5766 46.4537 54.6913" stroke="black" stroke-linecap="round"/>
<ellipse cx="31.7356" cy="53.8157" rx="1.63179" ry="1.75156" transform="rotate(-14 31.7356 53.8157)" fill="black"/>
<ellipse cx="57.2977" cy="55.2401" rx="1.47653" ry="1.69706" transform="rotate(-14 57.2977 55.2401)" fill="black"/>
<path d="M64.4241 64.3191L64.4182 64.3026C62.968 60.2584 60.417 53.1438 64.1063 50.3507C66.6787 48.4031 69.0865 47.785 75.4512 53.8839" stroke="black" stroke-linecap="round"/>
<ellipse cx="65.0907" cy="56.615" rx="0.918872" ry="1.22337" transform="rotate(-14 65.0907 56.615)" fill="#F190A2"/>
<ellipse cx="65.8528" cy="53.1628" rx="0.918872" ry="1.22337" transform="rotate(-2 65.8528 53.1628)" fill="#F190A2"/>
<ellipse cx="69.9483" cy="53.1106" rx="0.918872" ry="1.45467" transform="rotate(76 69.9483 53.1106)" fill="#F190A2"/>
<ellipse cx="68.2993" cy="57.3499" rx="1.58743" ry="2.00409" transform="rotate(2 68.2993 57.3499)" fill="#F190A2"/>
</svg>
