<svg width="100" height="100" viewBox="0 0 100 100" fill="none" xmlns="http://www.w3.org/2000/svg">
<rect x="12" y="12" width="76" height="76" rx="8" stroke="black" stroke-width="4"/>
<path d="M38.6207 20H36.5518V22.069H38.6207V20Z" fill="black"/>
<path d="M42.7586 20H40.6896V22.069H42.7586V20Z" fill="black"/>
<path d="M44.8276 20H42.7587V22.069H44.8276V20Z" fill="black"/>
<path d="M46.8965 20H44.8276V22.069H46.8965V20Z" fill="black"/>
<path d="M48.9655 20H46.8965V22.069H48.9655V20Z" fill="black"/>
<path d="M51.0345 20H48.9655V22.069H51.0345V20Z" fill="black"/>
<path d="M53.1035 20H51.0345V22.069H53.1035V20Z" fill="black"/>
<path d="M55.1724 20H53.1035V22.069H55.1724V20Z" fill="black"/>
<path d="M57.2414 20H55.1724V22.069H57.2414V20Z" fill="black"/>
<path d="M63.4482 20H61.3793V22.069H63.4482V20Z" fill="black"/>
<path d="M44.8276 22.069H42.7587V24.1379H44.8276V22.069Z" fill="black"/>
<path d="M51.0345 22.069H48.9655V24.1379H51.0345V22.069Z" fill="black"/>
<path d="M55.1724 22.069H53.1035V24.1379H55.1724V22.069Z" fill="black"/>
<path d="M57.2414 22.069H55.1724V24.1379H57.2414V22.069Z" fill="black"/>
<path d="M61.3793 22.069H59.3104V24.1379H61.3793V22.069Z" fill="black"/>
<path d="M63.4482 22.069H61.3793V24.1379H63.4482V22.069Z" fill="black"/>
<path d="M42.7586 24.1381H40.6896V26.207H42.7586V24.1381Z" fill="black"/>
<path d="M48.9655 24.1381H46.8965V26.207H48.9655V24.1381Z" fill="black"/>
<path d="M51.0345 24.1381H48.9655V26.207H51.0345V24.1381Z" fill="black"/>
<path d="M59.3103 24.1381H57.2413V26.207H59.3103V24.1381Z" fill="black"/>
<path d="M63.4482 24.1381H61.3793V26.207H63.4482V24.1381Z" fill="black"/>
<path d="M38.6207 26.207H36.5518V28.276H38.6207V26.207Z" fill="black"/>
<path d="M40.6897 26.207H38.6207V28.276H40.6897V26.207Z" fill="black"/>
<path d="M42.7586 26.207H40.6896V28.276H42.7586V26.207Z" fill="black"/>
<path d="M44.8276 26.207H42.7587V28.276H44.8276V26.207Z" fill="black"/>
<path d="M46.8965 26.207H44.8276V28.276H46.8965V26.207Z" fill="black"/>
<path d="M53.1035 26.207H51.0345V28.276H53.1035V26.207Z" fill="black"/>
<path d="M55.1724 26.207H53.1035V28.276H55.1724V26.207Z" fill="black"/>
<path d="M59.3103 26.207H57.2413V28.276H59.3103V26.207Z" fill="black"/>
<path d="M61.3793 26.207H59.3104V28.276H61.3793V26.207Z" fill="black"/>
<path d="M63.4482 26.207H61.3793V28.276H63.4482V26.207Z" fill="black"/>
<path d="M40.6897 28.2759H38.6207V30.3448H40.6897V28.2759Z" fill="black"/>
<path d="M57.2414 28.2759H55.1724V30.3448H57.2414V28.2759Z" fill="black"/>
<path d="M59.3103 28.2759H57.2413V30.3448H59.3103V28.2759Z" fill="black"/>
<path d="M61.3793 28.2759H59.3104V30.3448H61.3793V28.2759Z" fill="black"/>
<path d="M40.6897 30.3448H38.6207V32.4138H40.6897V30.3448Z" fill="black"/>
<path d="M42.7586 30.3448H40.6896V32.4138H42.7586V30.3448Z" fill="black"/>
<path d="M46.8965 30.3448H44.8276V32.4138H46.8965V30.3448Z" fill="black"/>
<path d="M51.0345 30.3448H48.9655V32.4138H51.0345V30.3448Z" fill="black"/>
<path d="M53.1035 30.3448H51.0345V32.4138H53.1035V30.3448Z" fill="black"/>
<path d="M59.3103 30.3448H57.2413V32.4138H59.3103V30.3448Z" fill="black"/>
<path d="M61.3793 30.3448H59.3104V32.4138H61.3793V30.3448Z" fill="black"/>
<path d="M63.4482 30.3448H61.3793V32.4138H63.4482V30.3448Z" fill="black"/>
<path d="M38.6207 32.4139H36.5518V34.4829H38.6207V32.4139Z" fill="black"/>
<path d="M42.7586 32.4139H40.6896V34.4829H42.7586V32.4139Z" fill="black"/>
<path d="M46.8965 32.4139H44.8276V34.4829H46.8965V32.4139Z" fill="black"/>
<path d="M51.0345 32.4139H48.9655V34.4829H51.0345V32.4139Z" fill="black"/>
<path d="M55.1724 32.4139H53.1035V34.4829H55.1724V32.4139Z" fill="black"/>
<path d="M59.3103 32.4139H57.2413V34.4829H59.3103V32.4139Z" fill="black"/>
<path d="M63.4482 32.4139H61.3793V34.4829H63.4482V32.4139Z" fill="black"/>
<path d="M40.6897 34.4829H38.6207V36.5519H40.6897V34.4829Z" fill="black"/>
<path d="M42.7586 34.4829H40.6896V36.5519H42.7586V34.4829Z" fill="black"/>
<path d="M44.8276 34.4829H42.7587V36.5519H44.8276V34.4829Z" fill="black"/>
<path d="M46.8965 34.4829H44.8276V36.5519H46.8965V34.4829Z" fill="black"/>
<path d="M53.1035 34.4829H51.0345V36.5519H53.1035V34.4829Z" fill="black"/>
<path d="M63.4482 34.4829H61.3793V36.5519H63.4482V34.4829Z" fill="black"/>
<path d="M26.2069 36.5518H24.1379V38.6207H26.2069V36.5518Z" fill="black"/>
<path d="M30.3448 36.5518H28.2759V38.6207H30.3448V36.5518Z" fill="black"/>
<path d="M32.4138 36.5518H30.3448V38.6207H32.4138V36.5518Z" fill="black"/>
<path d="M34.4827 36.5518H32.4138V38.6207H34.4827V36.5518Z" fill="black"/>
<path d="M38.6207 36.5518H36.5518V38.6207H38.6207V36.5518Z" fill="black"/>
<path d="M42.7586 36.5518H40.6896V38.6207H42.7586V36.5518Z" fill="black"/>
<path d="M48.9655 36.5518H46.8965V38.6207H48.9655V36.5518Z" fill="black"/>
<path d="M51.0345 36.5518H48.9655V38.6207H51.0345V36.5518Z" fill="black"/>
<path d="M55.1724 36.5518H53.1035V38.6207H55.1724V36.5518Z" fill="black"/>
<path d="M61.3793 36.5518H59.3104V38.6207H61.3793V36.5518Z" fill="black"/>
<path d="M63.4482 36.5518H61.3793V38.6207H63.4482V36.5518Z" fill="black"/>
<path d="M65.5173 36.5518H63.4483V38.6207H65.5173V36.5518Z" fill="black"/>
<path d="M73.7931 36.5518H71.7241V38.6207H73.7931V36.5518Z" fill="black"/>
<path d="M80 36.5518H77.931V38.6207H80V36.5518Z" fill="black"/>
<path d="M26.2069 38.6207H24.1379V40.6897H26.2069V38.6207Z" fill="black"/>
<path d="M30.3448 38.6207H28.2759V40.6897H30.3448V38.6207Z" fill="black"/>
<path d="M32.4138 38.6207H30.3448V40.6897H32.4138V38.6207Z" fill="black"/>
<path d="M36.5518 38.6207H34.4828V40.6897H36.5518V38.6207Z" fill="black"/>
<path d="M40.6897 38.6207H38.6207V40.6897H40.6897V38.6207Z" fill="black"/>
<path d="M42.7586 38.6207H40.6896V40.6897H42.7586V38.6207Z" fill="black"/>
<path d="M48.9655 38.6207H46.8965V40.6897H48.9655V38.6207Z" fill="black"/>
<path d="M53.1035 38.6207H51.0345V40.6897H53.1035V38.6207Z" fill="black"/>
<path d="M55.1724 38.6207H53.1035V40.6897H55.1724V38.6207Z" fill="black"/>
<path d="M61.3793 38.6207H59.3104V40.6897H61.3793V38.6207Z" fill="black"/>
<path d="M63.4482 38.6207H61.3793V40.6897H63.4482V38.6207Z" fill="black"/>
<path d="M65.5173 38.6207H63.4483V40.6897H65.5173V38.6207Z" fill="black"/>
<path d="M67.5862 38.6207H65.5172V40.6897H67.5862V38.6207Z" fill="black"/>
<path d="M73.7931 38.6207H71.7241V40.6897H73.7931V38.6207Z" fill="black"/>
<path d="M75.8621 38.6207H73.7931V40.6897H75.8621V38.6207Z" fill="black"/>
<path d="M80 38.6207H77.931V40.6897H80V38.6207Z" fill="black"/>
<path d="M26.2069 40.6898H24.1379V42.7588H26.2069V40.6898Z" fill="black"/>
<path d="M28.2759 40.6898H26.2069V42.7588H28.2759V40.6898Z" fill="black"/>
<path d="M34.4827 40.6898H32.4138V42.7588H34.4827V40.6898Z" fill="black"/>
<path d="M38.6207 40.6898H36.5518V42.7588H38.6207V40.6898Z" fill="black"/>
<path d="M40.6897 40.6898H38.6207V42.7588H40.6897V40.6898Z" fill="black"/>
<path d="M42.7586 40.6898H40.6896V42.7588H42.7586V40.6898Z" fill="black"/>
<path d="M48.9655 40.6898H46.8965V42.7588H48.9655V40.6898Z" fill="black"/>
<path d="M53.1035 40.6898H51.0345V42.7588H53.1035V40.6898Z" fill="black"/>
<path d="M55.1724 40.6898H53.1035V42.7588H55.1724V40.6898Z" fill="black"/>
<path d="M59.3103 40.6898H57.2413V42.7588H59.3103V40.6898Z" fill="black"/>
<path d="M61.3793 40.6898H59.3104V42.7588H61.3793V40.6898Z" fill="black"/>
<path d="M63.4482 40.6898H61.3793V42.7588H63.4482V40.6898Z" fill="black"/>
<path d="M69.6551 40.6898H67.5862V42.7588H69.6551V40.6898Z" fill="black"/>
<path d="M75.8621 40.6898H73.7931V42.7588H75.8621V40.6898Z" fill="black"/>
<path d="M77.931 40.6898H75.8621V42.7588H77.931V40.6898Z" fill="black"/>
<path d="M80 40.6898H77.931V42.7588H80V40.6898Z" fill="black"/>
<path d="M22.069 42.7587H20V44.8276H22.069V42.7587Z" fill="black"/>
<path d="M24.1379 42.7587H22.069V44.8276H24.1379V42.7587Z" fill="black"/>
<path d="M42.7586 42.7587H40.6896V44.8276H42.7586V42.7587Z" fill="black"/>
<path d="M44.8276 42.7587H42.7587V44.8276H44.8276V42.7587Z" fill="black"/>
<path d="M46.8965 42.7587H44.8276V44.8276H46.8965V42.7587Z" fill="black"/>
<path d="M48.9655 42.7587H46.8965V44.8276H48.9655V42.7587Z" fill="black"/>
<path d="M57.2414 42.7587H55.1724V44.8276H57.2414V42.7587Z" fill="black"/>
<path d="M59.3103 42.7587H57.2413V44.8276H59.3103V42.7587Z" fill="black"/>
<path d="M63.4482 42.7587H61.3793V44.8276H63.4482V42.7587Z" fill="black"/>
<path d="M65.5173 42.7587H63.4483V44.8276H65.5173V42.7587Z" fill="black"/>
<path d="M67.5862 42.7587H65.5172V44.8276H67.5862V42.7587Z" fill="black"/>
<path d="M69.6551 42.7587H67.5862V44.8276H69.6551V42.7587Z" fill="black"/>
<path d="M73.7931 42.7587H71.7241V44.8276H73.7931V42.7587Z" fill="black"/>
<path d="M77.931 42.7587H75.8621V44.8276H77.931V42.7587Z" fill="black"/>
<path d="M22.069 44.8276H20V46.8966H22.069V44.8276Z" fill="black"/>
<path d="M24.1379 44.8276H22.069V46.8966H24.1379V44.8276Z" fill="black"/>
<path d="M28.2759 44.8276H26.2069V46.8966H28.2759V44.8276Z" fill="black"/>
<path d="M32.4138 44.8276H30.3448V46.8966H32.4138V44.8276Z" fill="black"/>
<path d="M34.4827 44.8276H32.4138V46.8966H34.4827V44.8276Z" fill="black"/>
<path d="M36.5518 44.8276H34.4828V46.8966H36.5518V44.8276Z" fill="black"/>
<path d="M38.6207 44.8276H36.5518V46.8966H38.6207V44.8276Z" fill="black"/>
<path d="M40.6897 44.8276H38.6207V46.8966H40.6897V44.8276Z" fill="black"/>
<path d="M42.7586 44.8276H40.6896V46.8966H42.7586V44.8276Z" fill="black"/>
<path d="M44.8276 44.8276H42.7587V46.8966H44.8276V44.8276Z" fill="black"/>
<path d="M46.8965 44.8276H44.8276V46.8966H46.8965V44.8276Z" fill="black"/>
<path d="M48.9655 44.8276H46.8965V46.8966H48.9655V44.8276Z" fill="black"/>
<path d="M55.1724 44.8276H53.1035V46.8966H55.1724V44.8276Z" fill="black"/>
<path d="M61.3793 44.8276H59.3104V46.8966H61.3793V44.8276Z" fill="black"/>
<path d="M63.4482 44.8276H61.3793V46.8966H63.4482V44.8276Z" fill="black"/>
<path d="M67.5862 44.8276H65.5172V46.8966H67.5862V44.8276Z" fill="black"/>
<path d="M69.6551 44.8276H67.5862V46.8966H69.6551V44.8276Z" fill="black"/>
<path d="M24.1379 46.8966H22.069V48.9656H24.1379V46.8966Z" fill="black"/>
<path d="M26.2069 46.8966H24.1379V48.9656H26.2069V46.8966Z" fill="black"/>
<path d="M28.2759 46.8966H26.2069V48.9656H28.2759V46.8966Z" fill="black"/>
<path d="M32.4138 46.8966H30.3448V48.9656H32.4138V46.8966Z" fill="black"/>
<path d="M38.6207 46.8966H36.5518V48.9656H38.6207V46.8966Z" fill="black"/>
<path d="M44.8276 46.8966H42.7587V48.9656H44.8276V46.8966Z" fill="black"/>
<path d="M55.1724 46.8966H53.1035V48.9656H55.1724V46.8966Z" fill="black"/>
<path d="M57.2414 46.8966H55.1724V48.9656H57.2414V46.8966Z" fill="black"/>
<path d="M63.4482 46.8966H61.3793V48.9656H63.4482V46.8966Z" fill="black"/>
<path d="M65.5173 46.8966H63.4483V48.9656H65.5173V46.8966Z" fill="black"/>
<path d="M67.5862 46.8966H65.5172V48.9656H67.5862V46.8966Z" fill="black"/>
<path d="M69.6551 46.8966H67.5862V48.9656H69.6551V46.8966Z" fill="black"/>
<path d="M80 46.8966H77.931V48.9656H80V46.8966Z" fill="black"/>
<path d="M24.1379 48.9657H22.069V51.0347H24.1379V48.9657Z" fill="black"/>
<path d="M28.2759 48.9657H26.2069V51.0347H28.2759V48.9657Z" fill="black"/>
<path d="M34.4827 48.9657H32.4138V51.0347H34.4827V48.9657Z" fill="black"/>
<path d="M38.6207 48.9657H36.5518V51.0347H38.6207V48.9657Z" fill="black"/>
<path d="M44.8276 48.9657H42.7587V51.0347H44.8276V48.9657Z" fill="black"/>
<path d="M46.8965 48.9657H44.8276V51.0347H46.8965V48.9657Z" fill="black"/>
<path d="M48.9655 48.9657H46.8965V51.0347H48.9655V48.9657Z" fill="black"/>
<path d="M51.0345 48.9657H48.9655V51.0347H51.0345V48.9657Z" fill="black"/>
<path d="M57.2414 48.9657H55.1724V51.0347H57.2414V48.9657Z" fill="black"/>
<path d="M59.3103 48.9657H57.2413V51.0347H59.3103V48.9657Z" fill="black"/>
<path d="M63.4482 48.9657H61.3793V51.0347H63.4482V48.9657Z" fill="black"/>
<path d="M69.6551 48.9657H67.5862V51.0347H69.6551V48.9657Z" fill="black"/>
<path d="M75.8621 48.9657H73.7931V51.0347H75.8621V48.9657Z" fill="black"/>
<path d="M77.931 48.9657H75.8621V51.0347H77.931V48.9657Z" fill="black"/>
<path d="M80 48.9657H77.931V51.0347H80V48.9657Z" fill="black"/>
<path d="M22.069 51.0345H20V53.1035H22.069V51.0345Z" fill="black"/>
<path d="M24.1379 51.0345H22.069V53.1035H24.1379V51.0345Z" fill="black"/>
<path d="M26.2069 51.0345H24.1379V53.1035H26.2069V51.0345Z" fill="black"/>
<path d="M28.2759 51.0345H26.2069V53.1035H28.2759V51.0345Z" fill="black"/>
<path d="M30.3448 51.0345H28.2759V53.1035H30.3448V51.0345Z" fill="black"/>
<path d="M32.4138 51.0345H30.3448V53.1035H32.4138V51.0345Z" fill="black"/>
<path d="M38.6207 51.0345H36.5518V53.1035H38.6207V51.0345Z" fill="black"/>
<path d="M40.6897 51.0345H38.6207V53.1035H40.6897V51.0345Z" fill="black"/>
<path d="M42.7586 51.0345H40.6896V53.1035H42.7586V51.0345Z" fill="black"/>
<path d="M44.8276 51.0345H42.7587V53.1035H44.8276V51.0345Z" fill="black"/>
<path d="M51.0345 51.0345H48.9655V53.1035H51.0345V51.0345Z" fill="black"/>
<path d="M57.2414 51.0345H55.1724V53.1035H57.2414V51.0345Z" fill="black"/>
<path d="M63.4482 51.0345H61.3793V53.1035H63.4482V51.0345Z" fill="black"/>
<path d="M65.5173 51.0345H63.4483V53.1035H65.5173V51.0345Z" fill="black"/>
<path d="M69.6551 51.0345H67.5862V53.1035H69.6551V51.0345Z" fill="black"/>
<path d="M80 51.0345H77.931V53.1035H80V51.0345Z" fill="black"/>
<path d="M22.069 53.1035H20V55.1725H22.069V53.1035Z" fill="black"/>
<path d="M24.1379 53.1035H22.069V55.1725H24.1379V53.1035Z" fill="black"/>
<path d="M26.2069 53.1035H24.1379V55.1725H26.2069V53.1035Z" fill="black"/>
<path d="M34.4827 53.1035H32.4138V55.1725H34.4827V53.1035Z" fill="black"/>
<path d="M36.5518 53.1035H34.4828V55.1725H36.5518V53.1035Z" fill="black"/>
<path d="M44.8276 53.1035H42.7587V55.1725H44.8276V53.1035Z" fill="black"/>
<path d="M46.8965 53.1035H44.8276V55.1725H46.8965V53.1035Z" fill="black"/>
<path d="M51.0345 53.1035H48.9655V55.1725H51.0345V53.1035Z" fill="black"/>
<path d="M53.1035 53.1035H51.0345V55.1725H53.1035V53.1035Z" fill="black"/>
<path d="M55.1724 53.1035H53.1035V55.1725H55.1724V53.1035Z" fill="black"/>
<path d="M67.5862 53.1035H65.5172V55.1725H67.5862V53.1035Z" fill="black"/>
<path d="M73.7931 53.1035H71.7241V55.1725H73.7931V53.1035Z" fill="black"/>
<path d="M77.931 53.1035H75.8621V55.1725H77.931V53.1035Z" fill="black"/>
<path d="M28.2759 55.1725H26.2069V57.2415H28.2759V55.1725Z" fill="black"/>
<path d="M32.4138 55.1725H30.3448V57.2415H32.4138V55.1725Z" fill="black"/>
<path d="M36.5518 55.1725H34.4828V57.2415H36.5518V55.1725Z" fill="black"/>
<path d="M40.6897 55.1725H38.6207V57.2415H40.6897V55.1725Z" fill="black"/>
<path d="M44.8276 55.1725H42.7587V57.2415H44.8276V55.1725Z" fill="black"/>
<path d="M46.8965 55.1725H44.8276V57.2415H46.8965V55.1725Z" fill="black"/>
<path d="M48.9655 55.1725H46.8965V57.2415H48.9655V55.1725Z" fill="black"/>
<path d="M51.0345 55.1725H48.9655V57.2415H51.0345V55.1725Z" fill="black"/>
<path d="M59.3103 55.1725H57.2413V57.2415H59.3103V55.1725Z" fill="black"/>
<path d="M61.3793 55.1725H59.3104V57.2415H61.3793V55.1725Z" fill="black"/>
<path d="M65.5173 55.1725H63.4483V57.2415H65.5173V55.1725Z" fill="black"/>
<path d="M75.8621 55.1725H73.7931V57.2415H75.8621V55.1725Z" fill="black"/>
<path d="M77.931 55.1725H75.8621V57.2415H77.931V55.1725Z" fill="black"/>
<path d="M80 55.1725H77.931V57.2415H80V55.1725Z" fill="black"/>
<path d="M22.069 57.2415H20V59.3104H22.069V57.2415Z" fill="black"/>
<path d="M34.4827 57.2415H32.4138V59.3104H34.4827V57.2415Z" fill="black"/>
<path d="M36.5518 57.2415H34.4828V59.3104H36.5518V57.2415Z" fill="black"/>
<path d="M38.6207 57.2415H36.5518V59.3104H38.6207V57.2415Z" fill="black"/>
<path d="M44.8276 57.2415H42.7587V59.3104H44.8276V57.2415Z" fill="black"/>
<path d="M46.8965 57.2415H44.8276V59.3104H46.8965V57.2415Z" fill="black"/>
<path d="M48.9655 57.2415H46.8965V59.3104H48.9655V57.2415Z" fill="black"/>
<path d="M51.0345 57.2415H48.9655V59.3104H51.0345V57.2415Z" fill="black"/>
<path d="M55.1724 57.2415H53.1035V59.3104H55.1724V57.2415Z" fill="black"/>
<path d="M59.3103 57.2415H57.2413V59.3104H59.3103V57.2415Z" fill="black"/>
<path d="M65.5173 57.2415H63.4483V59.3104H65.5173V57.2415Z" fill="black"/>
<path d="M69.6551 57.2415H67.5862V59.3104H69.6551V57.2415Z" fill="black"/>
<path d="M71.7241 57.2415H69.6552V59.3104H71.7241V57.2415Z" fill="black"/>
<path d="M77.931 57.2415H75.8621V59.3104H77.931V57.2415Z" fill="black"/>
<path d="M80 57.2415H77.931V59.3104H80V57.2415Z" fill="black"/>
<path d="M24.1379 59.3104H22.069V61.3794H24.1379V59.3104Z" fill="black"/>
<path d="M26.2069 59.3104H24.1379V61.3794H26.2069V59.3104Z" fill="black"/>
<path d="M30.3448 59.3104H28.2759V61.3794H30.3448V59.3104Z" fill="black"/>
<path d="M32.4138 59.3104H30.3448V61.3794H32.4138V59.3104Z" fill="black"/>
<path d="M38.6207 59.3104H36.5518V61.3794H38.6207V59.3104Z" fill="black"/>
<path d="M40.6897 59.3104H38.6207V61.3794H40.6897V59.3104Z" fill="black"/>
<path d="M42.7586 59.3104H40.6896V61.3794H42.7586V59.3104Z" fill="black"/>
<path d="M44.8276 59.3104H42.7587V61.3794H44.8276V59.3104Z" fill="black"/>
<path d="M46.8965 59.3104H44.8276V61.3794H46.8965V59.3104Z" fill="black"/>
<path d="M48.9655 59.3104H46.8965V61.3794H48.9655V59.3104Z" fill="black"/>
<path d="M55.1724 59.3104H53.1035V61.3794H55.1724V59.3104Z" fill="black"/>
<path d="M57.2414 59.3104H55.1724V61.3794H57.2414V59.3104Z" fill="black"/>
<path d="M59.3103 59.3104H57.2413V61.3794H59.3103V59.3104Z" fill="black"/>
<path d="M61.3793 59.3104H59.3104V61.3794H61.3793V59.3104Z" fill="black"/>
<path d="M67.5862 59.3104H65.5172V61.3794H67.5862V59.3104Z" fill="black"/>
<path d="M80 59.3104H77.931V61.3794H80V59.3104Z" fill="black"/>
<path d="M22.069 61.3794H20V63.4484H22.069V61.3794Z" fill="black"/>
<path d="M28.2759 61.3794H26.2069V63.4484H28.2759V61.3794Z" fill="black"/>
<path d="M30.3448 61.3794H28.2759V63.4484H30.3448V61.3794Z" fill="black"/>
<path d="M32.4138 61.3794H30.3448V63.4484H32.4138V61.3794Z" fill="black"/>
<path d="M34.4827 61.3794H32.4138V63.4484H34.4827V61.3794Z" fill="black"/>
<path d="M40.6897 61.3794H38.6207V63.4484H40.6897V61.3794Z" fill="black"/>
<path d="M42.7586 61.3794H40.6896V63.4484H42.7586V61.3794Z" fill="black"/>
<path d="M44.8276 61.3794H42.7587V63.4484H44.8276V61.3794Z" fill="black"/>
<path d="M48.9655 61.3794H46.8965V63.4484H48.9655V61.3794Z" fill="black"/>
<path d="M53.1035 61.3794H51.0345V63.4484H53.1035V61.3794Z" fill="black"/>
<path d="M57.2414 61.3794H55.1724V63.4484H57.2414V61.3794Z" fill="black"/>
<path d="M59.3103 61.3794H57.2413V63.4484H59.3103V61.3794Z" fill="black"/>
<path d="M63.4482 61.3794H61.3793V63.4484H63.4482V61.3794Z" fill="black"/>
<path d="M65.5173 61.3794H63.4483V63.4484H65.5173V61.3794Z" fill="black"/>
<path d="M67.5862 61.3794H65.5172V63.4484H67.5862V61.3794Z" fill="black"/>
<path d="M69.6551 61.3794H67.5862V63.4484H69.6551V61.3794Z" fill="black"/>
<path d="M71.7241 61.3794H69.6552V63.4484H71.7241V61.3794Z" fill="black"/>
<path d="M73.7931 61.3794H71.7241V63.4484H73.7931V61.3794Z" fill="black"/>
<path d="M80 61.3794H77.931V63.4484H80V61.3794Z" fill="black"/>
<path d="M38.6207 63.4482H36.5518V65.5172H38.6207V63.4482Z" fill="black"/>
<path d="M53.1035 63.4482H51.0345V65.5172H53.1035V63.4482Z" fill="black"/>
<path d="M57.2414 63.4482H55.1724V65.5172H57.2414V63.4482Z" fill="black"/>
<path d="M59.3103 63.4482H57.2413V65.5172H59.3103V63.4482Z" fill="black"/>
<path d="M61.3793 63.4482H59.3104V65.5172H61.3793V63.4482Z" fill="black"/>
<path d="M63.4482 63.4482H61.3793V65.5172H63.4482V63.4482Z" fill="black"/>
<path d="M71.7241 63.4482H69.6552V65.5172H71.7241V63.4482Z" fill="black"/>
<path d="M77.931 63.4482H75.8621V65.5172H77.931V63.4482Z" fill="black"/>
<path d="M80 63.4482H77.931V65.5172H80V63.4482Z" fill="black"/>
<path d="M44.8276 65.5173H42.7587V67.5863H44.8276V65.5173Z" fill="black"/>
<path d="M51.0345 65.5173H48.9655V67.5863H51.0345V65.5173Z" fill="black"/>
<path d="M53.1035 65.5173H51.0345V67.5863H53.1035V65.5173Z" fill="black"/>
<path d="M59.3103 65.5173H57.2413V67.5863H59.3103V65.5173Z" fill="black"/>
<path d="M61.3793 65.5173H59.3104V67.5863H61.3793V65.5173Z" fill="black"/>
<path d="M63.4482 65.5173H61.3793V67.5863H63.4482V65.5173Z" fill="black"/>
<path d="M67.5862 65.5173H65.5172V67.5863H67.5862V65.5173Z" fill="black"/>
<path d="M71.7241 65.5173H69.6552V67.5863H71.7241V65.5173Z" fill="black"/>
<path d="M75.8621 65.5173H73.7931V67.5863H75.8621V65.5173Z" fill="black"/>
<path d="M77.931 65.5173H75.8621V67.5863H77.931V65.5173Z" fill="black"/>
<path d="M80 65.5173H77.931V67.5863H80V65.5173Z" fill="black"/>
<path d="M38.6207 67.5863H36.5518V69.6553H38.6207V67.5863Z" fill="black"/>
<path d="M53.1035 67.5863H51.0345V69.6553H53.1035V67.5863Z" fill="black"/>
<path d="M55.1724 67.5863H53.1035V69.6553H55.1724V67.5863Z" fill="black"/>
<path d="M63.4482 67.5863H61.3793V69.6553H63.4482V67.5863Z" fill="black"/>
<path d="M71.7241 67.5863H69.6552V69.6553H71.7241V67.5863Z" fill="black"/>
<path d="M77.931 67.5863H75.8621V69.6553H77.931V67.5863Z" fill="black"/>
<path d="M80 67.5863H77.931V69.6553H80V67.5863Z" fill="black"/>
<path d="M38.6207 69.6553H36.5518V71.7242H38.6207V69.6553Z" fill="black"/>
<path d="M40.6897 69.6553H38.6207V71.7242H40.6897V69.6553Z" fill="black"/>
<path d="M44.8276 69.6553H42.7587V71.7242H44.8276V69.6553Z" fill="black"/>
<path d="M46.8965 69.6553H44.8276V71.7242H46.8965V69.6553Z" fill="black"/>
<path d="M48.9655 69.6553H46.8965V71.7242H48.9655V69.6553Z" fill="black"/>
<path d="M51.0345 69.6553H48.9655V71.7242H51.0345V69.6553Z" fill="black"/>
<path d="M53.1035 69.6553H51.0345V71.7242H53.1035V69.6553Z" fill="black"/>
<path d="M57.2414 69.6553H55.1724V71.7242H57.2414V69.6553Z" fill="black"/>
<path d="M59.3103 69.6553H57.2413V71.7242H59.3103V69.6553Z" fill="black"/>
<path d="M63.4482 69.6553H61.3793V71.7242H63.4482V69.6553Z" fill="black"/>
<path d="M65.5173 69.6553H63.4483V71.7242H65.5173V69.6553Z" fill="black"/>
<path d="M67.5862 69.6553H65.5172V71.7242H67.5862V69.6553Z" fill="black"/>
<path d="M69.6551 69.6553H67.5862V71.7242H69.6551V69.6553Z" fill="black"/>
<path d="M71.7241 69.6553H69.6552V71.7242H71.7241V69.6553Z" fill="black"/>
<path d="M73.7931 69.6553H71.7241V71.7242H73.7931V69.6553Z" fill="black"/>
<path d="M80 69.6553H77.931V71.7242H80V69.6553Z" fill="black"/>
<path d="M42.7586 71.7241H40.6896V73.7931H42.7586V71.7241Z" fill="black"/>
<path d="M51.0345 71.7241H48.9655V73.7931H51.0345V71.7241Z" fill="black"/>
<path d="M53.1035 71.7241H51.0345V73.7931H53.1035V71.7241Z" fill="black"/>
<path d="M63.4482 71.7241H61.3793V73.7931H63.4482V71.7241Z" fill="black"/>
<path d="M65.5173 71.7241H63.4483V73.7931H65.5173V71.7241Z" fill="black"/>
<path d="M71.7241 71.7241H69.6552V73.7931H71.7241V71.7241Z" fill="black"/>
<path d="M38.6207 73.7932H36.5518V75.8622H38.6207V73.7932Z" fill="black"/>
<path d="M42.7586 73.7932H40.6896V75.8622H42.7586V73.7932Z" fill="black"/>
<path d="M48.9655 73.7932H46.8965V75.8622H48.9655V73.7932Z" fill="black"/>
<path d="M51.0345 73.7932H48.9655V75.8622H51.0345V73.7932Z" fill="black"/>
<path d="M53.1035 73.7932H51.0345V75.8622H53.1035V73.7932Z" fill="black"/>
<path d="M55.1724 73.7932H53.1035V75.8622H55.1724V73.7932Z" fill="black"/>
<path d="M61.3793 73.7932H59.3104V75.8622H61.3793V73.7932Z" fill="black"/>
<path d="M69.6551 73.7932H67.5862V75.8622H69.6551V73.7932Z" fill="black"/>
<path d="M71.7241 73.7932H69.6552V75.8622H71.7241V73.7932Z" fill="black"/>
<path d="M75.8621 73.7932H73.7931V75.8622H75.8621V73.7932Z" fill="black"/>
<path d="M80 73.7932H77.931V75.8622H80V73.7932Z" fill="black"/>
<path d="M40.6897 75.8622H38.6207V77.9311H40.6897V75.8622Z" fill="black"/>
<path d="M42.7586 75.8622H40.6896V77.9311H42.7586V75.8622Z" fill="black"/>
<path d="M53.1035 75.8622H51.0345V77.9311H53.1035V75.8622Z" fill="black"/>
<path d="M57.2414 75.8622H55.1724V77.9311H57.2414V75.8622Z" fill="black"/>
<path d="M61.3793 75.8622H59.3104V77.9311H61.3793V75.8622Z" fill="black"/>
<path d="M67.5862 75.8622H65.5172V77.9311H67.5862V75.8622Z" fill="black"/>
<path d="M69.6551 75.8622H67.5862V77.9311H69.6551V75.8622Z" fill="black"/>
<path d="M77.931 75.8622H75.8621V77.9311H77.931V75.8622Z" fill="black"/>
<path d="M40.6897 77.931H38.6207V80H40.6897V77.931Z" fill="black"/>
<path d="M44.8276 77.931H42.7587V80H44.8276V77.931Z" fill="black"/>
<path d="M46.8965 77.931H44.8276V80H46.8965V77.931Z" fill="black"/>
<path d="M51.0345 77.931H48.9655V80H51.0345V77.931Z" fill="black"/>
<path d="M53.1035 77.931H51.0345V80H53.1035V77.931Z" fill="black"/>
<path d="M61.3793 77.931H59.3104V80H61.3793V77.931Z" fill="black"/>
<path d="M71.7241 77.931H69.6552V80H71.7241V77.931Z" fill="black"/>
<path d="M77.931 77.931H75.8621V80H77.931V77.931Z" fill="black"/>
<path d="M80 77.931H77.931V80H80V77.931Z" fill="black"/>
<path d="M32.3103 20H22.1724H20V22.1724V32.3103V34.4828H22.1724H32.3103H34.4828V32.3103V22.1724V20H32.3103ZM32.3103 32.3103H22.1724V22.1724H32.3103V32.3103Z" fill="black"/>
<path d="M77.8276 20H67.6896H65.5172V22.1724V32.3103V34.4828H67.6896H77.8276H80V32.3103V22.1724V20H77.8276ZM77.8276 32.3103H67.6896V22.1724H77.8276V32.3103Z" fill="black"/>
<path d="M32.3103 65.5173H22.1724H20V67.6897V77.8277V80.0001H22.1724H32.3103H34.4828V77.8277V67.6897V65.5173H32.3103ZM32.3103 77.8277H22.1724V67.6897H32.3103V77.8277Z" fill="black"/>
<path d="M30.3448 24.1381H24.1379V30.345H30.3448V24.1381Z" fill="black"/>
<path d="M75.862 24.1381H69.6552V30.345H75.862V24.1381Z" fill="black"/>
<path d="M30.3448 69.6553H24.1379V75.8622H30.3448V69.6553Z" fill="black"/>
<path d="M42.8808 56.4273V51.4553L49.7859 53.4917V58.1463L42.8808 56.4273Z" fill="#F15637"/>
<path d="M46.3528 51.9369L45.418 50.0635L42.8809 50.9734L46.3528 51.9369Z" fill="#F15637"/>
<path d="M57.1191 56.4273V51.4553L50.2141 53.4917V58.1463L57.1191 56.4273Z" fill="black"/>
<path d="M53.6471 51.9369L54.5819 50.0635L57.1191 50.9734L53.6471 51.9369Z" fill="black"/>
<path d="M48.5972 43.6735L45.5319 41.8536C45.2548 42.7636 44.9915 44.8434 46.1553 45.8834C45.8782 46.3947 45.3448 47.5005 45.4279 47.8332C46.6922 47.9979 49.2986 48.9252 49.6103 51.317H50V43.4209C49.366 43.4224 48.8523 43.5612 48.5972 43.6735Z" fill="#F15637"/>
<path d="M49.0616 52.2581C49.5126 49.3664 46.7722 48.4042 45.3456 48.2845L45.2944 49.2843C45.8325 49.3014 47.0268 49.4484 47.4983 49.8996C48.0877 50.4636 48.1134 51.9505 49.0616 52.2581Z" fill="#F15637"/>
<path d="M48.5972 43.6735L45.5319 41.8536C45.2548 42.7636 44.9915 44.8434 46.1553 45.8834C45.8782 46.3947 45.3448 47.5005 45.4279 47.8332C46.6922 47.9979 49.2986 48.9252 49.6103 51.317H50V43.4209C49.366 43.4224 48.8523 43.5612 48.5972 43.6735Z" fill="#F15637"/>
<path d="M49.0616 52.2581C49.5126 49.3664 46.7722 48.4042 45.3456 48.2845L45.2944 49.2843C45.8325 49.3014 47.0268 49.4484 47.4983 49.8996C48.0877 50.4636 48.1134 51.9505 49.0616 52.2581Z" fill="#F15637"/>
<path d="M48.5972 43.6736L45.5319 41.8538C45.2548 42.7637 44.9915 44.8436 46.1553 45.8835C45.8782 46.3948 45.3448 47.5006 45.4279 47.8334C46.6922 47.998 49.2986 48.9253 49.6103 51.3171H50V43.421C49.366 43.4225 48.8523 43.5613 48.5972 43.6736Z" fill="#F15637"/>
<path d="M49.0616 52.2582C49.5126 49.3665 46.7722 48.4043 45.3456 48.2847L45.2944 49.2845C45.8325 49.3016 47.0268 49.4485 47.4983 49.8997C48.0877 50.4637 48.1134 51.9506 49.0616 52.2582Z" fill="#F15637"/>
<path d="M51.4027 43.6735L54.4681 41.8536C54.7452 42.7636 55.0084 44.8434 53.8446 45.8834C54.1217 46.3947 54.6551 47.5005 54.572 47.8332C53.3078 47.9979 50.7014 48.9252 50.3896 51.317H50V43.4209C50.634 43.4224 51.1476 43.5612 51.4027 43.6735Z" fill="black"/>
<path d="M50.9384 52.2581C50.4873 49.3664 53.2277 48.4042 54.6543 48.2845L54.7056 49.2843C54.1674 49.3014 52.9732 49.4484 52.5016 49.8996C51.9122 50.4636 51.8866 51.9505 50.9384 52.2581Z" fill="black" stroke="white" stroke-width="0.10483"/>
<path d="M51.4027 43.6735L54.4681 41.8536C54.7452 42.7636 55.0084 44.8434 53.8446 45.8834C54.1217 46.3947 54.6551 47.5005 54.572 47.8332C53.3078 47.9979 50.7014 48.9252 50.3896 51.317H50V43.4209C50.634 43.4224 51.1476 43.5612 51.4027 43.6735Z" fill="black"/>
<path d="M50.9383 52.2582C50.4873 49.3665 53.2277 48.4043 54.6543 48.2847L54.7055 49.2845C54.1673 49.3016 52.9731 49.4485 52.5016 49.8997C51.9121 50.4637 51.8865 51.9506 50.9383 52.2582Z" fill="black" stroke="white" stroke-width="0.224363"/>
<path d="M47.961 47.6075L48.4378 47.1868L49.1671 47.9161L48.7183 48.3368L47.961 47.6075Z" stroke="white" stroke-width="0.280454"/>
<path d="M52.039 47.6075L51.5622 47.1868L50.8329 47.9161L51.2817 48.3368L52.039 47.6075Z" stroke="white" stroke-width="0.280454"/>
<path d="M48.6479 43.6735L45.5825 41.8536C45.3054 42.7636 45.0422 44.8434 46.206 45.8834C45.9289 46.3947 45.3955 47.5005 45.4786 47.8332C46.7428 47.9979 49.3492 48.9252 49.661 51.317H50.0506H50.4403C50.752 48.9252 53.3584 47.9979 54.6227 47.8332C54.7058 47.5005 54.1724 46.3947 53.8953 45.8834C55.0591 44.8434 54.7958 42.7636 54.5187 41.8536L51.4534 43.6735C51.1983 43.5612 50.6847 43.4224 50.0506 43.4209C49.4166 43.4224 48.903 43.5612 48.6479 43.6735Z" stroke="white" stroke-width="0.22"/>
</svg>
