<svg width="100" height="100" viewBox="0 0 100 100" fill="none" xmlns="http://www.w3.org/2000/svg">
<path fill-rule="evenodd" clip-rule="evenodd" d="M54.0571 16.9807C60.4048 18.747 63.3504 25.8623 68.8832 29.4403C74.3921 33.0029 82.6848 32.3023 86.2577 37.8045C89.8605 43.3528 89.5053 51.142 86.9332 57.2369C84.5302 62.9315 77.2029 64.3883 73.0918 69.0037C69.0662 73.5233 69.1387 82.4183 63.2517 83.824C57.2738 85.2515 53.4926 76.0416 47.4137 75.1356C39.6646 73.9806 31.5791 81.5637 24.5719 78.0591C17.7192 74.6318 15.1833 65.8325 13.7599 58.3039C12.2992 50.5785 13.0463 42.4215 16.4981 35.3574C19.9036 28.3883 25.8064 22.8015 32.7738 19.3925C39.3197 16.1897 47.0364 15.0271 54.0571 16.9807Z" fill="#EDECF5"/>
<rect x="61.3449" y="20.3409" width="50.2875" height="39.4803" rx="0.594015" transform="rotate(73 61.3449 20.3409)" fill="url(#paint0_linear_1_525)"/>
<rect x="62.8006" y="18.4432" width="50.2875" height="39.4803" rx="0.594015" transform="rotate(73 62.8006 18.4432)" fill="url(#paint1_linear_1_525)"/>
<path fill-rule="evenodd" clip-rule="evenodd" d="M35.6114 36.6555C35.4554 36.7062 35.3701 36.8738 35.4207 37.0298L35.5408 37.3993C35.5915 37.5553 35.7591 37.6407 35.9151 37.59L57.3828 30.6147C57.5388 30.564 57.6242 30.3964 57.5735 30.2404L57.4535 29.8709C57.4028 29.7149 57.2352 29.6295 57.0792 29.6802L35.6114 36.6555ZM36.6441 40.6573C36.4881 40.708 36.4027 40.8756 36.4534 41.0316L36.5735 41.4011C36.6241 41.5571 36.7917 41.6425 36.9477 41.5918L58.4155 34.6165C58.5715 34.5658 58.6569 34.3982 58.6062 34.2422L58.4861 33.8727C58.4354 33.7167 58.2679 33.6313 58.1119 33.682L36.6441 40.6573ZM37.6416 45.4869C37.5909 45.3309 37.6763 45.1633 37.8323 45.1127L59.3001 38.1374C59.4561 38.0867 59.6237 38.172 59.6743 38.328L59.7944 38.6976C59.8451 38.8536 59.7597 39.0211 59.6037 39.0718L38.1359 46.0471C37.9799 46.0978 37.8124 46.0124 37.7617 45.8564L37.6416 45.4869ZM39.6142 48.9736C39.4582 49.0243 39.3729 49.1919 39.4236 49.3479L39.5436 49.7174C39.5943 49.8734 39.7619 49.9588 39.9179 49.9081L58.9275 43.7315C59.0835 43.6808 59.1689 43.5132 59.1182 43.3572L58.9981 42.9877C58.9474 42.8317 58.7799 42.7463 58.6239 42.797L39.6142 48.9736ZM40.6111 53.0042C40.5604 52.8482 40.6457 52.6807 40.8017 52.63L55.6625 47.8014C55.8185 47.7507 55.9861 47.8361 56.0368 47.9921L56.1568 48.3616C56.2075 48.5176 56.1221 48.6852 55.9661 48.7359L41.1054 53.5645C40.9494 53.6151 40.7818 53.5298 40.7311 53.3738L40.6111 53.0042ZM42.5839 59.0043C42.4279 59.055 42.3425 59.2226 42.3932 59.3786L42.5133 59.7481C42.564 59.9041 42.7315 59.9895 42.8875 59.9388L64.0891 53.05C64.2451 52.9993 64.3305 52.8317 64.2798 52.6757L64.1597 52.3062C64.1091 52.1502 63.9415 52.0648 63.7855 52.1155L42.5839 59.0043ZM43.2845 63.221C43.2338 63.065 43.3192 62.8975 43.4752 62.8468L62.3584 56.7113C62.5144 56.6606 62.682 56.7459 62.7327 56.9019L62.8527 57.2715C62.9034 57.4275 62.8181 57.595 62.6621 57.6457L43.7788 63.7812C43.6228 63.8319 43.4553 63.7466 43.4046 63.5906L43.2845 63.221ZM44.6632 67.0619C44.5072 67.1126 44.4218 67.2801 44.4725 67.4361L44.5926 67.8056C44.6433 67.9617 44.8108 68.047 44.9668 67.9963L59.9454 63.1295C60.1015 63.0788 60.1868 62.9112 60.1361 62.7552L60.0161 62.3857C59.9654 62.2297 59.7978 62.1443 59.6418 62.195L44.6632 67.0619Z" fill="#8B83E0"/>
<path d="M83.2224 54.1102L89.598 26.4943C89.8194 25.5353 89.2215 24.5784 88.2625 24.357C87.3035 24.1357 86.3466 24.7336 86.1253 25.6925L79.7496 53.3085L83.2224 54.1102Z" fill="url(#paint2_linear_1_525)"/>
<path d="M79.7491 53.3088L83.2219 54.1105L80.7355 57.0728L79.7491 53.3088Z" fill="#D0CDF6"/>
<path fill-rule="evenodd" clip-rule="evenodd" d="M81.2771 56.4275L80.7355 57.0728L80.5172 56.2397C80.5929 56.2111 80.675 56.1955 80.7607 56.1955C80.9661 56.1955 81.1506 56.2852 81.2771 56.4275Z" fill="#757575"/>
<rect x="86.0218" y="26.1191" width="3.57383" height="0.505069" transform="rotate(13 86.0218 26.1191)" fill="#757AE8"/>
<circle cx="18.544" cy="53.6565" r="8.54294" fill="#EDECF5"/>
<path fill-rule="evenodd" clip-rule="evenodd" d="M11.2524 50.9425C11.8454 52.0035 14.1673 54.0444 18.7109 53.7199C23.2546 53.3954 24.8898 55.8108 25.1395 57.059L27.0834 53.4156C26.9559 48.8088 23.1814 45.1134 18.5438 45.1134C16.0034 45.1134 13.7221 46.2222 12.1572 47.9823L11.2524 50.9425Z" fill="#CAC2FB"/>
<path fill-rule="evenodd" clip-rule="evenodd" d="M25.3049 53.6565C25.3049 57.3904 22.278 60.4174 18.544 60.4174C14.8101 60.4174 11.7831 57.3904 11.7831 53.6565C11.7831 49.9225 14.8101 46.8956 18.544 46.8956C22.278 46.8956 25.3049 49.9225 25.3049 53.6565ZM24.9915 59.2613C23.4253 61.0615 21.1176 62.1994 18.544 62.1994C13.8259 62.1994 10.0011 58.3746 10.0011 53.6565C10.0011 48.9383 13.8259 45.1135 18.544 45.1135C23.2622 45.1135 27.087 48.9383 27.087 53.6565C27.087 54.9254 26.8103 56.1298 26.314 57.2125L27.9985 58.392C28.2672 58.5802 28.3326 58.9506 28.1444 59.2193L27.4281 60.2422C27.2399 60.511 26.8696 60.5763 26.6008 60.3881L24.9915 59.2613Z" fill="#656EBD"/>
<circle cx="15.9487" cy="27.983" r="1.30852" stroke="#989BEF" stroke-width="0.594015"/>
<circle cx="31.7856" cy="72.6176" r="1.30852" stroke="#989BEF" stroke-width="0.594015"/>
<circle cx="76.9314" cy="37.1616" r="0.884153" fill="#9CA0FD"/>
<circle cx="66.4432" cy="77.192" r="0.884153" fill="#9CA0FD"/>
<circle cx="59.2092" cy="76.308" r="0.884153" fill="#9CA0FD"/>
<circle cx="21.5474" cy="40.712" r="0.884153" fill="#9CA0FD"/>
<circle cx="18.3538" cy="51.4426" r="0.799467" fill="#706EE7"/>
<circle cx="22.6614" cy="50.5583" r="1.11465" fill="#706EE7"/>
<defs>
<linearGradient id="paint0_linear_1_525" x1="109.31" y1="21.532" x2="61.1354" y2="56.1855" gradientUnits="userSpaceOnUse">
<stop stop-color="#7B79E3"/>
<stop offset="1" stop-color="#777BE6"/>
</linearGradient>
<linearGradient id="paint1_linear_1_525" x1="111.518" y1="56.1712" x2="62.4081" y2="19.7269" gradientUnits="userSpaceOnUse">
<stop stop-color="#EDECFC"/>
<stop offset="1" stop-color="#D5CFE7"/>
</linearGradient>
<linearGradient id="paint2_linear_1_525" x1="88.2625" y1="24.357" x2="81.486" y2="53.7093" gradientUnits="userSpaceOnUse">
<stop stop-color="#9597C2"/>
<stop offset="1" stop-color="#7E81D9"/>
</linearGradient>
</defs>
</svg>
