<svg width="100" height="100" viewBox="0 0 100 100" fill="none" xmlns="http://www.w3.org/2000/svg">
<path d="M48.0618 81.7211C48.0555 79.9348 48.0365 77.5722 48.0112 76.4764L47.9732 74.4812H46.4846H44.9961L44.9771 77.9839L44.9644 81.4804H43.0705C41.62 81.4804 41.1576 81.4614 41.1196 81.4044C41.0943 81.36 41.0563 78.9974 41.0373 76.1597L41.0056 70.9974L39.7388 71.0101C39.042 71.0227 38.3643 71.0291 38.2376 71.0291H37.9969L37.9842 72.7266L37.9652 74.4178L36.0523 74.4368L34.1331 74.4495L34.1268 73.6134C34.1204 73.151 34.1268 69.4075 34.1331 65.2967C34.1394 61.1858 34.1268 57.6577 34.1014 57.455L34.0571 57.0877L32.5559 57.113L31.061 57.1383L31.0294 58.8739C31.0104 59.8303 30.985 60.6158 30.9787 60.6284C30.9724 60.6348 29.4268 60.6411 27.5456 60.6411H24.1252V62.3513V64.0615H22.1933H20.2614V62.3513V60.6411H18.5195H16.7776V58.7092V56.7773H18.5195H20.2614V55.0354V53.2935H21.9969C23.0927 53.2935 23.7515 53.2682 23.7768 53.2302C23.8021 53.1922 24.4419 53.1668 25.487 53.1668H27.1656L27.1782 51.4756L27.1972 49.7781L28.9074 49.7464L30.6177 49.7147L30.6493 42.7789C30.6683 38.9657 30.6873 35.8367 30.7 35.8303C30.7063 35.8177 31.4664 35.8113 32.3912 35.8113H34.0697L34.1078 35.6593C34.1268 35.577 34.1331 34.0441 34.1204 32.2452C34.1078 29.7559 34.1204 28.9705 34.1774 28.9135C34.2281 28.8691 34.7665 28.8438 35.894 28.8438H37.5345L37.5725 28.2927C37.5915 27.9824 37.5979 27.2476 37.5789 26.6522C37.5535 25.7781 37.5599 25.5564 37.6359 25.4994C37.6929 25.4487 38.2376 25.4234 39.3651 25.4107L41.0056 25.3917L41.0246 22.0029C41.031 19.8747 41.0626 18.5952 41.1006 18.5572C41.1386 18.5192 41.164 17.8224 41.164 16.7646V15.0354H51.6786C60.9834 15.0354 62.1933 15.0481 62.1933 15.1304C62.1933 15.1811 62.2376 15.2254 62.2883 15.2254C62.3706 15.2254 62.3833 15.4535 62.3833 16.8723V18.5192H64.1252H65.8671V20.2611V22.0029H67.6089H69.3508V23.7448V25.4867H71.0927H72.8346V27.2349V28.9768L74.4815 28.9578C75.7673 28.9451 76.1283 28.9578 76.1283 29.0211C76.1283 29.0592 76.1663 29.0972 76.2107 29.0972C76.2677 29.0972 76.2867 30.1613 76.2867 34.2088V39.3268L78.0159 39.3458L79.7388 39.3584V49.9681V60.5778H77.9969H76.255V65.7464C76.2614 68.5904 76.2424 70.934 76.2234 70.9594C76.198 70.9784 75.4189 71.0037 74.4815 71.0164L72.7776 71.0354L72.8156 76.1597C72.8536 80.9166 72.8473 81.2903 72.7523 81.2903C72.6889 81.2903 72.6446 81.3347 72.6446 81.3854C72.6446 81.4677 72.3975 81.4804 70.8077 81.4804H68.9708V77.9966C68.9708 75.7163 68.9518 74.5128 68.9074 74.5128C68.8694 74.5128 68.8441 73.8921 68.8441 72.7773V71.0481L68.5527 71.0037C68.1727 70.9531 66.1331 70.9531 65.9431 71.0101L65.791 71.0481L65.8417 74.4812L65.8861 77.9206L65.259 77.9586C64.9169 77.9776 63.3651 77.9903 61.8132 77.9903C60.2614 77.9903 58.9755 77.9903 58.9502 77.9903C58.9185 77.9966 58.8995 79.5675 58.8995 81.4804V84.9641H53.4838H48.0682L48.0618 81.7211ZM58.5195 55.0354V53.2935H60.2614H62.0032V51.7417V50.1898L53.5028 50.2025L44.9961 50.2215V51.7417V53.2618L46.7253 53.2808L48.4482 53.2935V55.0354V56.7773H53.4838H58.5195V55.0354ZM48.0682 37.8382V31.0607L44.7934 31.0734L41.5123 31.0924L41.4933 37.7749C41.487 41.4487 41.4933 44.4954 41.5123 44.5398C41.5313 44.5968 42.2534 44.6158 44.8061 44.6158H48.0682V37.8382ZM65.487 37.8382V31.0607H62.1933H58.8995V37.8382V44.6158H62.1933H65.487V37.8382Z" fill="#F4FFFF"/>
<path d="M23.7451 72.5494V70.6492H25.487H27.2289V68.939V67.2288H29.1291H31.0294V70.8392V74.4497H27.3872H23.7451V72.5494Z" fill="#F4FFFF"/>
<path d="M82.8424 56.9675V53.2937H84.6476C86.3705 53.2937 86.4592 53.3 86.5795 53.4204C86.7062 53.5471 86.7062 53.6294 86.7062 57.0942V60.6413H84.7743H82.8424V56.9675Z" fill="#F4FFFF"/>
<path d="M30.9026 86.5163V84.7744H22.1932H13.4838V83.0325V81.2906L11.7546 81.278L10.0317 81.259V77.8069V74.3548L13.4964 74.3358L16.9675 74.3231V72.5812V70.8393H18.7094H20.4513V69.1165V67.3872H18.7284H16.9992L16.9802 65.6644L16.9675 63.9351L15.2383 63.9225L13.5154 63.9035L13.4964 62.1806L13.4838 60.4514L11.7546 60.4387L10.0317 60.4197L10.0127 58.6968L10 56.9676H11.7419H13.4838V55.2257V53.4838H15.2257H16.9675V51.7419V50.0001H18.7094H20.4513L20.464 41.3096L20.483 32.6129L22.2059 32.5939L23.9351 32.5812L23.9477 29.1228L23.9667 25.6707L25.696 25.677L27.4188 25.6834V23.9351V22.1933H29.1607H30.9026V18.7095V15.2257H34.3864H37.8702V13.4838V11.7419H50.0317H62.1932V13.4838V15.2257H65.677H69.1607V16.9676V18.7095H70.9026H72.6445V20.4514V22.1933H74.3864H76.1283L76.1156 25.6644L76.0966 29.1291L74.3737 29.1481L72.6445 29.1608V27.4189V25.677H70.9026H69.1607V23.9351V22.1933H67.4188H65.677V20.4514V18.7095H63.9351H62.1932V16.9676V15.2257H51.7736H41.3539V16.9549C41.3476 18.2851 41.3286 18.7031 41.2652 18.7918C41.1892 18.8932 40.9485 18.8995 37.8765 18.8995H34.5764V22.3833V25.867H32.8345H31.0926V27.6089V29.3508H29.3508H27.6089V32.8346V36.3184H25.867H24.1251V44.8124C24.1251 52.8314 24.1188 53.3191 24.0174 53.3952C23.9287 53.4585 23.5107 53.4775 22.1805 53.4838H20.4513V55.2257V56.9676H18.7094H16.9675V58.7095C16.9675 60.217 16.9802 60.4514 17.0625 60.4514C17.1449 60.4514 17.1576 60.6731 17.1576 62.0666V63.6818H18.8044C20.2233 63.6818 20.4513 63.6944 20.4513 63.7768C20.4513 63.8591 20.6857 63.8718 22.1932 63.8718C23.707 63.8718 23.9351 63.8591 23.9351 63.7768C23.9351 63.6944 24.1631 63.6818 25.7593 63.6944L27.5772 63.7134L27.5962 65.5693C27.6089 67.1845 27.5962 67.4189 27.5139 67.4189C27.4632 67.4189 27.4188 67.4632 27.4188 67.5139C27.4188 67.5963 27.1908 67.6089 25.772 67.6089H24.1251V69.2241C24.1251 70.6176 24.1124 70.8393 24.0301 70.8393C23.9794 70.8393 23.9351 70.8837 23.9351 70.9343C23.9351 71.0104 23.6944 71.0294 22.3072 71.042L20.673 71.061L20.654 74.5321L20.6413 77.9969H17.1892H13.7371V79.5488V81.1006H22.4149H31.0926V82.8425V84.5844H39.6754C47.2637 84.5844 48.2581 84.5971 48.2581 84.6794C48.2581 84.7617 48.8789 84.7744 53.4838 84.7744C58.0887 84.7744 58.7094 84.7617 58.7094 84.6794C58.7094 84.5971 59.1275 84.5844 62.0982 84.5844H65.4869V82.8425V81.1006H67.3238C68.9137 81.1006 69.1607 81.1133 69.1607 81.1956C69.1607 81.278 69.3951 81.2906 70.9026 81.2906H72.6445V79.4537V77.6168H74.2597H75.8749V74.1964C75.8749 71.2004 75.8876 70.776 75.9699 70.776C76.0523 70.776 76.0649 70.5416 76.0713 69.0848C76.0776 68.1473 76.0776 67.3366 76.0713 67.2796C76.0586 67.1719 76.1726 67.1655 77.7055 67.1655H79.3587V63.7768C79.3587 60.8061 79.3713 60.388 79.4537 60.388C79.536 60.388 79.5487 59.1909 79.5487 49.9684V39.5488L77.8258 39.5361L76.0966 39.5171V34.3231V29.1291H77.8385H79.5804L79.5994 32.6002L79.612 36.065H81.3222H83.0325V43.0325V50.0001H84.7743H86.5162L86.5289 51.7293L86.5479 53.4522L88.2771 53.4712L90 53.4838V58.7095V63.9351H88.2581H86.5162V65.677V67.4189H83.0641H79.612V72.6129V77.8069L77.8702 77.8195L76.1219 77.8385L76.1093 79.5488L76.0966 81.259L74.3737 81.278L72.6445 81.2906V83.0325V84.7744H69.1607H65.677V86.5163V88.2582H48.2898H30.9026V86.5163ZM86.3262 62.0666C86.3262 60.6731 86.3389 60.4514 86.4212 60.4514C86.5036 60.4514 86.5162 60.0206 86.5162 56.9676V53.4838H84.7743H83.0325V56.9676C83.0325 60.0206 83.0451 60.4514 83.1275 60.4514C83.2098 60.4514 83.2225 60.6731 83.2225 62.0666V63.6818H84.7743H86.3262V62.0666Z" fill="black"/>
<path d="M48.2581 55.2254V53.4835L46.5352 53.4709L44.806 53.4519V51.7416V50.0314L53.5028 50.0124L62.1932 49.9998V51.7416V53.4835H60.4513H58.7094V55.2254V56.9673H53.4838H48.2581V55.2254Z" fill="black"/>
<path d="M41.3223 44.7299C41.3033 44.6856 41.2969 41.5565 41.3033 37.775L41.3223 30.9025L44.7934 30.8835L48.2581 30.8708V37.8384V44.8059H44.806C42.1014 44.8059 41.3413 44.7869 41.3223 44.7299Z" fill="black"/>
<path d="M58.7095 37.8384V30.8708H62.1932H65.677V37.8384V44.8059H62.1932H58.7095V37.8384Z" fill="black"/>
<path d="M37.6802 81.3855V77.9968H36.1283H34.5765V79.7386V81.4805H32.7396C31.1497 81.4805 30.9027 81.4679 30.9027 81.3855C30.9027 81.3032 30.0729 81.2905 23.8401 81.2905H16.7776V79.5486V77.8067H18.6145C20.2043 77.8067 20.4514 77.7941 20.4514 77.7117C20.4514 77.6294 20.6794 77.6167 22.0983 77.6167H23.7451V75.8432C23.7451 74.3103 23.7578 74.0696 23.8401 74.0696C23.8908 74.0696 23.9351 74.1139 23.9351 74.1646C23.9351 74.247 24.3595 74.2596 27.3872 74.2596H30.8393V70.8392V67.4188H30.681C30.567 67.4188 30.5226 67.3871 30.5226 67.2921C30.5226 67.2224 30.567 67.1654 30.6177 67.1654C30.7 67.1654 30.7127 66.76 30.7127 63.9033C30.7127 61.7687 30.6937 60.6413 30.6493 60.6413C30.6177 60.6413 30.586 60.5969 30.586 60.5462C30.586 60.4956 30.6303 60.4512 30.681 60.4512C30.7317 60.4512 30.7823 60.4449 30.7887 60.4386C30.795 60.4259 30.8203 59.6341 30.8393 58.6777L30.871 56.9358H32.5812H34.2914L34.3041 64.7584C34.3104 69.0593 34.3168 72.9611 34.3168 73.4235L34.3231 74.2596L36.0523 74.247L37.7752 74.228L37.8069 72.5177L37.8386 70.8075H39.5171H41.1956L41.2273 75.9698C41.2463 78.8075 41.2843 81.1702 41.3097 81.2145C41.3413 81.2525 41.4047 81.2905 41.4617 81.2905C41.5377 81.2905 41.5504 81.3348 41.5187 81.4869C41.4997 81.5945 41.4807 82.38 41.4807 83.2287V84.7743H39.5804H37.6802V81.3855Z" fill="#C1E5E9"/>
<path d="M58.703 81.3094C58.703 81.208 58.6904 80.3846 58.6904 79.4661C58.6777 78.0346 58.6904 77.8066 58.7727 77.7939C58.8234 77.7876 60.2486 77.7813 61.9398 77.7686C65.9239 77.7559 65.6769 77.7622 65.6769 77.6482C65.6769 77.5976 65.7213 77.5532 65.7719 77.5532C65.8543 77.5532 65.8669 77.7813 65.8669 79.2254C65.8669 80.1439 65.8859 80.9863 65.9049 81.094C65.9429 81.265 65.9303 81.2904 65.8099 81.2904C65.7339 81.2904 65.6769 81.3284 65.6769 81.3854C65.6769 81.4677 65.2462 81.4804 62.1931 81.4804H58.7094L58.703 81.3094Z" fill="#C1E5E9"/>
<path d="M44.7871 76.3055L44.8061 74.2912L46.472 74.2722C47.7705 74.2596 48.1378 74.2722 48.1632 74.3356C48.1759 74.3799 48.2012 75.2224 48.2075 76.2105L48.2265 77.9967H46.6303H45.0278V78.1551C45.0278 78.2691 44.9961 78.3134 44.9011 78.3134C44.7744 78.3134 44.7744 78.2817 44.7871 76.3055Z" fill="#C1E5E9"/>
<path d="M67.3112 74.5318L65.6833 74.5128L65.6453 74.2405C65.6263 74.0948 65.6136 73.265 65.6263 72.3909L65.6453 70.8074H67.3239H69.0024L69.0214 72.5683C69.0277 73.6641 69.0594 74.3228 69.0974 74.3228C69.1354 74.3228 69.1608 74.3798 69.1608 74.4495C69.1608 74.5318 69.1228 74.5698 69.0531 74.5635C68.9897 74.5508 68.2043 74.5382 67.3112 74.5318Z" fill="#C1E5E9"/>
<path d="M72.6192 74.1835C72.6002 73.9998 72.5812 73.17 72.5812 72.3466C72.5812 70.9531 72.5875 70.839 72.6952 70.8327C72.7522 70.8327 73.5376 70.8264 74.4307 70.82L76.0649 70.8074V72.6633V74.5128H74.3611H72.6635L72.6192 74.1835Z" fill="#C1E5E9"/>
<path d="M76.0522 64.1438C76.0396 63.9728 76.0396 63.0607 76.0522 62.1169L76.0712 60.3877H77.8068H79.5487V62.2183V64.0488L79.4093 64.0805C79.327 64.0995 78.7062 64.0995 78.0285 64.0868C76.5146 64.0552 76.3183 64.0805 76.3183 64.2895C76.3183 64.3972 76.2803 64.4415 76.1979 64.4415C76.0902 64.4415 76.0712 64.3909 76.0522 64.1438Z" fill="#C1E5E9"/>
<path d="M23.9351 51.5833V49.7781L25.5819 49.7971L27.2288 49.8224V42.9435C27.2288 36.8564 27.2415 36.071 27.3238 36.1027C27.3808 36.128 27.4188 36.1027 27.4188 36.0393C27.4188 35.9507 27.5962 35.938 29.0657 35.938H30.7126V32.5492C30.7126 29.5785 30.7252 29.1605 30.8076 29.1605C30.8583 29.1605 30.9026 29.1161 30.9026 29.0655C30.9026 28.9831 31.099 28.9705 32.3151 28.9705C33.0879 28.9705 33.829 28.9515 33.962 28.9325L34.1963 28.8881V27.2856C34.1963 25.8984 34.209 25.6767 34.2914 25.6767C34.342 25.6767 34.3864 25.6324 34.3864 25.5817C34.3864 25.4994 34.6144 25.4867 36.0332 25.4867H37.6801V22.0979V18.7092H39.4853C40.8155 18.7092 41.2906 18.6902 41.2906 18.6332C41.2906 18.5952 41.3096 18.5825 41.3286 18.6015C41.3539 18.6268 41.3412 18.6838 41.2969 18.7345C41.2462 18.7979 41.2272 19.6973 41.2272 22.1549C41.2336 23.9855 41.2146 25.5184 41.1955 25.55C41.1702 25.588 40.5305 25.6134 39.517 25.6134C38.3135 25.6134 37.8638 25.6324 37.8321 25.6894C37.8068 25.7274 37.7815 26.4938 37.7815 27.3806L37.7751 29.0021L36.1092 29.0211C34.9944 29.0275 34.418 29.0591 34.3674 29.1035C34.3104 29.1605 34.2977 29.9776 34.3104 32.4479C34.3167 34.2468 34.3104 35.7796 34.2914 35.862L34.2597 36.0013H32.5875C31.1243 36.0013 30.9089 36.014 30.8773 36.1027C30.8583 36.1597 30.8393 39.2761 30.8393 43.0386C30.8393 48.8089 30.8266 49.8794 30.7506 49.9111C30.7062 49.9301 29.9271 49.9491 29.0277 49.9554L27.3872 49.9681L27.3682 51.6466C27.3618 52.5651 27.3365 53.3315 27.3238 53.3442C27.3111 53.3632 26.5384 53.3758 25.6136 53.3822L23.9351 53.3885V51.5833Z" fill="#C1E5E9"/>
<path d="M30.9027 83.0323V81.2904H32.6446H34.3865V79.5485V77.8066H36.1284H37.8702V81.2904V84.7742H34.3865H30.9027V83.0323Z" fill="#89A8CF"/>
<path d="M41.3033 83.0513L41.3223 81.3221L43.0515 81.3031L44.7744 81.2904V79.7829C44.7744 78.9595 44.7934 78.174 44.8124 78.0473L44.8568 77.8066H46.5543H48.2582V81.2904V84.7742H44.7744H41.2906L41.3033 83.0513Z" fill="#89A8CF"/>
<path d="M58.7095 83.0324V81.2905H62.1932H65.677V83.0324V84.7743H62.1932H58.7095V83.0324Z" fill="#89A8CF"/>
<path d="M13.5345 79.5739C13.5218 78.6301 13.5282 77.8446 13.5408 77.832C13.5535 77.8193 14.3326 77.8066 15.27 77.8066H16.9676V79.5485V81.2904H15.2574H13.5535L13.5345 79.5739Z" fill="#89A8CF"/>
<path d="M65.7213 81.246C65.696 81.227 65.677 79.6561 65.677 77.7622V74.3228L67.4062 74.3354L69.1291 74.3544L69.1481 77.8255L69.1608 81.2903H67.4632C66.5258 81.2903 65.7403 81.2713 65.7213 81.246Z" fill="#89A8CF"/>
<path d="M20.464 74.3419L20.483 70.8708L22.2058 70.8518L23.9351 70.8391L23.9477 69.1226L23.9667 67.4124H25.6326C26.5447 67.4187 27.3238 67.4187 27.3555 67.4187C27.3935 67.4187 27.4188 68.0331 27.4188 69.1289V70.8391H25.6769H23.9351V74.3229V77.8067H22.1932H20.4513L20.464 74.3419Z" fill="#89A8CF"/>
<path d="M72.6445 76.0646V74.3228H74.3547H76.065V76.0646V77.8065H74.3547H72.6445V76.0646Z" fill="#89A8CF"/>
<path d="M27.4063 65.6642L27.3873 63.9033L25.6644 63.8843L23.9352 63.8716V62.1614V60.4512H27.4189H30.9027L30.89 63.9223L30.871 67.387L29.1482 67.406L27.4189 67.425L27.4063 65.6642Z" fill="#89A8CF"/>
<path d="M76.0776 65.6831C76.0903 64.7647 76.1219 63.9856 76.1473 63.9539C76.1979 63.9033 77.0467 63.8716 78.3135 63.8716C78.6302 63.8716 79.0356 63.8716 79.2193 63.8716H79.5487V65.6135V67.3554H77.8005H76.0586L76.0776 65.6831Z" fill="#89A8CF"/>
<path d="M16.9677 62.1804V60.4512H18.7095H20.4514V62.1614V63.8653L18.7095 63.8843L16.9677 63.9033V62.1804Z" fill="#89A8CF"/>
<path d="M83.0325 62.1614V60.4512H84.7744H86.5162V62.1614V63.8716H84.7744H83.0325V62.1614Z" fill="#89A8CF"/>
<path d="M24.0111 49.9492C23.9478 49.9049 23.9351 48.4797 23.9478 43.0134L23.9668 36.1218H25.6327C26.5448 36.1282 27.3239 36.1282 27.3555 36.1282C27.3999 36.1282 27.4189 38.4845 27.4189 43.064V49.9999H25.7593C24.8409 49.9999 24.0555 49.9746 24.0111 49.9492Z" fill="#89A8CF"/>
<path d="M27.4188 32.6316V29.1289L29.1607 29.1479L30.9026 29.1669V27.4187V25.6768H32.6445H34.3864V22.193V18.7092H36.1282H37.8701V22.193V25.6768H36.1282H34.3864V27.425V29.1669L34.247 29.1605C34.1647 29.1542 33.3792 29.1479 32.5051 29.1542L30.9026 29.1605V32.6443V36.1281H29.1607H27.4188V32.6316Z" fill="#89A8CF"/>
</svg>
