<svg width="100" height="100" viewBox="0 0 100 100" fill="none" xmlns="http://www.w3.org/2000/svg">
<path d="M28.4747 77.6693C28.4484 77.643 28.4286 76.2476 28.4286 74.5693V71.522H25.3682H22.3077V65.3682C22.3077 59.2604 22.3077 59.2143 22.1761 59.2143C22.0444 59.2143 22.0444 59.1683 22.0444 56.2263C22.0444 53.5607 22.0313 53.2316 21.9391 53.1987C21.8799 53.179 20.6162 53.1592 19.1156 53.1592C16.8581 53.1592 16.3842 53.1724 16.325 53.2514C16.2657 53.3238 16.2526 54.107 16.2657 56.2789C16.2789 58.5957 16.2657 59.2143 16.2065 59.2143C16.1407 59.2143 16.1209 60.5043 16.1209 65.434V71.6537H13.0605H10V62.3406V53.0276H13.0605H16.1209V49.9671V46.9066H19.2143H22.3077L22.3209 43.833L22.3406 40.7528H25.3879H28.4286V34.5858V28.4122H25.3682H22.3077V25.3517V22.2913H25.3682H28.4286V25.3517V28.4122H31.6207H34.8128V31.4068V34.4015H37.8075C40.1703 34.4015 40.7956 34.4212 40.789 34.4805C40.7758 34.5463 42.6582 34.5726 50.0033 34.5858L59.2308 34.5989V31.5056V28.4122H62.4097H65.5821L65.5492 31.5846C65.536 33.3353 65.5162 36.1456 65.5162 37.8371V40.9173L62.4887 40.9305L59.4611 40.9502L59.4414 46.9264L59.4282 52.8959H62.4953H65.5689L65.5228 53.2448C65.5031 53.4291 65.4833 54.8968 65.4833 56.5027V59.4118H47.0613H28.6458L28.5932 65.2629C28.5668 68.4813 28.5668 71.1469 28.5932 71.1864C28.6195 71.239 29.5607 71.2588 31.6273 71.2588C34.5693 71.2588 34.6154 71.2588 34.6154 71.3904C34.6154 71.4694 34.6615 71.522 34.7207 71.522C34.7997 71.522 34.8194 71.5615 34.7865 71.6734C34.7668 71.7524 34.747 73.1411 34.747 74.7602V77.7022L31.6339 77.7088C29.9227 77.7088 28.501 77.689 28.4747 77.6693ZM40.5586 46.9066V40.9502H34.6088H28.659L28.6392 46.9264L28.6261 52.8959L34.5891 52.8828L40.552 52.863L40.5586 46.9066Z" fill="#87E14F"/>
<path d="M64.891 77.577C64.891 77.5046 64.9371 77.4454 64.9897 77.4454C65.0753 77.4454 65.0884 77.1624 65.0884 75.2932C65.095 71.4166 65.095 71.5219 65.2332 71.5219C65.3583 71.5219 65.3715 71.4758 65.3517 71.1796C65.3451 71.0348 65.3715 70.9953 65.4768 70.9953C65.5689 70.9953 65.615 71.0348 65.615 71.127C65.615 71.2586 65.661 71.2586 68.4451 71.2586H71.2752V68.2311V65.2035H74.2962C75.9548 65.2035 77.4093 65.1837 77.5212 65.164L77.7252 65.1245V68.3232V71.5219H74.6318H71.5385V74.6153V77.7086H68.2147C64.9371 77.7086 64.891 77.7086 64.891 77.577Z" fill="#87E14F"/>
<path d="M71.341 28.5109C71.341 28.4583 71.3871 28.4122 71.4397 28.4122C71.5253 28.4122 71.5385 28.0305 71.5385 25.3517V22.2913H74.6318H77.7252V25.3517V28.4122H74.6318C71.9268 28.4122 71.5385 28.4254 71.5385 28.5109C71.5385 28.5636 71.4924 28.6096 71.4397 28.6096C71.3871 28.6096 71.341 28.5636 71.341 28.5109Z" fill="#87E14F"/>
<path d="M10 74.5823V71.4561H13.0605H16.1209V74.5823V77.7086H13.0605H10V74.5823Z" fill="#57C652"/>
<path d="M34.5759 77.6495C34.5627 77.6363 34.5496 76.2476 34.5496 74.5693V71.522H37.6429H40.7363L40.7495 74.5561C40.7626 76.2213 40.7561 77.61 40.7363 77.6297C40.7034 77.6758 34.622 77.6956 34.5759 77.6495Z" fill="#57C652"/>
<path d="M59.2768 77.6692C59.2505 77.6429 59.2308 76.2476 59.2308 74.5693V71.522L62.2781 71.5351L65.3188 71.5549V74.6285V77.6956L62.3242 77.7087C60.6722 77.7087 59.3032 77.6956 59.2768 77.6692Z" fill="#57C652"/>
<path d="M83.8725 77.6494C83.8593 77.6363 83.8462 73.4767 83.8462 68.4154V59.2142H80.7857C78.1069 59.2142 77.7252 59.2274 77.7252 59.3129C77.7252 59.3985 76.9815 59.4117 71.4068 59.4117C65.8322 59.4117 65.0884 59.3985 65.0884 59.3129C65.0884 59.2603 65.1345 59.2142 65.1872 59.2142C65.2727 59.2142 65.2859 58.8062 65.2991 56.1537C65.3188 53.2776 65.3122 53.0933 65.2069 53.0933C65.0687 53.0933 65.049 52.9945 65.174 52.9156C65.2135 52.8892 66.6154 52.8629 68.2805 52.8629H71.3081V46.9065V40.9501L68.2345 40.9304C65.5557 40.9172 65.1543 40.9041 65.1543 40.8185C65.1543 40.7658 65.1937 40.7198 65.2398 40.7198C65.2991 40.7198 65.3188 40.0484 65.3188 37.5672C65.3188 35.8296 65.332 34.4014 65.3517 34.3882C65.3715 34.3816 66.7668 34.3751 68.4582 34.3882L71.5385 34.408L71.5516 37.5672L71.5714 40.7329L74.6318 40.7395L77.6923 40.7527L77.7121 43.8263L77.7252 46.9065H80.7857H83.8462V49.967V53.0275L86.9264 53.0406L90 53.0604L89.9737 65.3351C89.9605 72.0879 89.9408 77.6165 89.9342 77.6297C89.9144 77.656 83.9054 77.6758 83.8725 77.6494Z" fill="#57C652"/>
<path d="M28.3891 71.3705C28.3496 71.2586 28.3825 65.2232 28.4286 65.1903C28.4483 65.1771 29.8897 65.1771 31.6404 65.1903C34.3718 65.2035 34.8128 65.2232 34.8128 65.3022C34.8128 65.3548 34.7667 65.4009 34.714 65.4009C34.6285 65.4009 34.6153 65.7826 34.6153 68.4285V71.456H31.5219C29.0143 71.456 28.4154 71.4363 28.3891 71.3705Z" fill="#57C652"/>
<path d="M65.3911 71.2521C65.3714 71.1402 65.3516 69.7778 65.3516 68.2245C65.3516 65.7564 65.3385 65.401 65.2529 65.401C65.2002 65.401 65.1542 65.3549 65.1542 65.3022C65.1542 65.2167 65.5227 65.2035 68.1028 65.2035C69.7218 65.2035 71.2027 65.1838 71.3936 65.164C71.7095 65.1245 71.7358 65.1311 71.7358 65.2628C71.7358 65.3549 71.6963 65.401 71.6042 65.401C71.4726 65.401 71.4726 65.447 71.4726 68.4285V71.4561H68.4516H65.4372L65.3911 71.2521Z" fill="#57C652"/>
<path d="M16.1011 59.1682C16.0748 59.1484 16.0551 57.7729 16.0551 56.1209C16.0551 53.8765 16.0748 53.0999 16.134 53.0406C16.1933 52.9814 16.9502 52.9617 19.1221 52.9617C20.7214 52.9617 22.0773 52.9814 22.1365 53.0012C22.2286 53.0341 22.2418 53.3763 22.2418 56.1274V59.2142H19.1945C17.5162 59.2142 16.1209 59.1945 16.1011 59.1682Z" fill="#57C652"/>
<path d="M28.4747 65.3548C28.4483 65.335 28.4286 63.9397 28.4286 62.2614V59.2141H53.0769H77.7252L77.712 62.2943L77.6923 65.368L53.1032 65.3877C39.5845 65.3943 28.4944 65.3811 28.4747 65.3548Z" fill="#2F6B39"/>
<path d="M34.6154 31.5055V28.4121L37.6956 28.4253L40.7692 28.445L40.7824 31.5252L40.7955 34.5989H37.7087H34.6154V31.5055Z" fill="#2F6B39"/>
<path d="M65.3846 34.5199C65.3648 34.4738 65.3582 33.0851 65.3714 31.4397L65.3846 28.445L68.4648 28.4253L71.5384 28.4121V31.5055V34.5989H68.478C66.0888 34.5989 65.4043 34.5791 65.3846 34.5199Z" fill="#2F6B39"/>
<path d="M28.4418 46.9263L28.4615 40.7527H34.6153H40.7692L40.7626 46.9065L40.7494 53.0604L34.589 53.0801L28.4286 53.0933L28.4418 46.9263Z" fill="#E9E9E9"/>
<path d="M59.2439 46.9263L59.2637 40.7527H65.3846H71.5056V46.9065V53.0604L65.3649 53.0801L59.2308 53.0933L59.2439 46.9263Z" fill="#E9E9E9"/>
</svg>
