<svg width="100" height="100" viewBox="0 0 100 100" fill="none" xmlns="http://www.w3.org/2000/svg">
<path d="M16.2944 64.9748V64.2134H16.6498H17.0051V64.9748V65.7362H16.6498H16.2944V64.9748Z" fill="#FFD1A4"/>
<path d="M15.8883 63.4518C15.8883 63.1167 15.9086 63.0964 16.2436 63.0964C16.5787 63.0964 16.599 63.1167 16.599 63.4518C16.599 63.7868 16.5787 63.8071 16.2436 63.8071C15.9086 63.8071 15.8883 63.7868 15.8883 63.4518Z" fill="#FFD1A4"/>
<path d="M43.0964 58.3249V56.396H45.0254H46.9543V58.3249V60.2539H45.0254H43.0964V58.3249Z" fill="#FFD1A4"/>
<path d="M53.0457 58.3249V56.396H55.0253H57.005V58.3249V60.2539H55.0253H53.0457V58.3249Z" fill="#FFD1A4"/>
<path d="M16.2944 56.802C16.2944 56.6701 16.3655 56.599 16.4975 56.599C16.6092 56.599 16.7005 56.5279 16.7005 56.4467C16.7005 56.3655 16.7716 56.2944 16.8528 56.2944C16.9543 56.2944 17.0051 56.4061 17.0051 56.6498C17.0051 56.9848 16.9848 57.0051 16.6498 57.0051C16.3655 57.0051 16.2944 56.9645 16.2944 56.802Z" fill="#FFD1A4"/>
<path d="M33.1167 43.6347C33.0761 43.6042 33.0457 42.7108 33.0457 41.655V39.7463H36.7106H40.3858L40.3147 40.2844C40.2842 40.5687 40.2538 41.4621 40.2538 42.2641V43.7057H36.7208C34.7715 43.7057 33.1472 43.6753 33.1167 43.6347Z" fill="#FFD1A4"/>
<path d="M59.7462 41.726V39.7463H63.3503H66.9543V41.726V43.7057H63.3503H59.7462V41.726Z" fill="#FFD1A4"/>
<path d="M43.0964 28.3757V26.4468H50.0508H57.0051V28.3757V30.3046H50.0508H43.0964V28.3757Z" fill="#FFD1A4"/>
<path d="M62.9949 85.1269V83.6041L49.8477 83.6244C39.3807 83.6447 36.7005 83.6244 36.7005 83.533C36.7005 83.4315 35.9594 83.401 33.3502 83.401C30.071 83.401 30 83.401 30 83.198C30 82.9949 30.071 82.9949 33.1979 82.9949H36.3959V81.6142V80.2436L33.1979 80.2741C30.6903 80.2944 30 80.2741 30 80.1827C30 80.1117 29.9188 80.0508 29.8172 80.0508C29.6548 80.0508 29.6446 79.9289 29.6852 78.5279L29.7157 77.0051H24.8832C20.6599 77.0051 20.0507 76.9848 20.0507 76.8528C20.0507 76.7716 19.9797 76.7005 19.8984 76.7005C19.7665 76.7005 19.7462 76.2741 19.7462 73.5025V70.3046H16.5482C13.7766 70.3046 13.3502 70.2843 13.3502 70.1523C13.3502 70.0711 13.2792 70 13.1979 70C13.066 70 13.0457 69.5533 13.0457 66.5482V63.0964H15.0253H17.005V64.7716V66.4467H18.6802H20.3553V68.0711V69.6954H21.9797H23.604V71.3705V73.0457H28.6294H33.6548V74.7208V76.3959H36.9543H40.2538L40.2741 78.0508L40.3045 79.6954L50.0304 79.7259L59.7462 79.7462V78.0711V76.3959L63.0761 76.3756L66.3959 76.3452L66.4264 74.7005L66.4467 73.0457H71.4213H76.3959V71.3705V69.6954H78.0101H79.6243L79.6852 69.066C79.7259 68.7106 79.736 67.9898 79.7259 67.4619L79.6954 66.4975L81.3705 66.4467L83.0457 66.3959L83.0761 64.7513L83.0964 63.0964H85.0253H86.9543V66.5482C86.9543 69.5533 86.934 70 86.802 70C86.7208 70 86.6497 70.0711 86.6497 70.1523C86.6497 70.2843 86.2233 70.3046 83.4416 70.3046H80.2436L80.2741 73.5025C80.2944 75.9797 80.2741 76.7005 80.1827 76.7005C80.0913 76.7005 80.0507 77.1269 80.0304 78.3553C80 79.9188 79.9898 80 79.7969 80.0304C79.5939 80.0609 79.5939 80.0101 79.6345 78.5279L79.6649 77.0051H74.9847H70.3045V78.3249C70.3045 79.137 70.3451 79.6447 70.4061 79.6447C70.467 79.6447 70.5076 79.736 70.5076 79.8477C70.5076 80 70.4365 80.0508 70.2538 80.0508C70.1116 80.0508 70 80.1117 70 80.1827C70 80.2741 69.2995 80.3046 66.8325 80.3046H63.6548L63.6243 81.6548L63.5939 82.9949H66.802C69.9289 82.9949 70 82.9949 70 83.198C70 83.401 69.9289 83.401 66.7005 83.401H63.401V85.0254C63.401 86.5787 63.3908 86.6497 63.1979 86.6497C63.005 86.6497 62.9949 86.5787 62.9949 85.1269Z" fill="#D6C3C6"/>
<path d="M20.0508 79.8478C20.0508 79.7158 20.1218 79.6448 20.2538 79.6448C20.3858 79.6448 20.4569 79.7158 20.4569 79.8478C20.4569 79.9798 20.3858 80.0509 20.2538 80.0509C20.1218 80.0509 20.0508 79.9798 20.0508 79.8478Z" fill="#D6C3C6"/>
<path d="M82.9949 74.8731V73.0457H83.3502C83.5939 73.0457 83.7055 73.0964 83.7055 73.1979C83.7055 73.2792 83.6345 73.3502 83.5532 73.3502C83.4213 73.3502 83.401 73.604 83.401 75.0253C83.401 76.6294 83.3908 76.7005 83.1979 76.7005C83.005 76.7005 82.9949 76.6294 82.9949 74.8731Z" fill="#D6C3C6"/>
<path d="M13.3502 73.1474C13.3502 73.0154 13.4213 72.9443 13.5533 72.9443C13.6852 72.9443 13.7563 73.0154 13.7563 73.1474C13.7563 73.2794 13.6852 73.3504 13.5533 73.3504C13.4213 73.3504 13.3502 73.2794 13.3502 73.1474Z" fill="#D6C3C6"/>
<path d="M10 69.797C10 69.6651 10.0711 69.594 10.203 69.594C10.335 69.594 10.4061 69.6651 10.4061 69.797C10.4061 69.929 10.335 70.0001 10.203 70.0001C10.0711 70.0001 10 69.929 10 69.797Z" fill="#D6C3C6"/>
<path d="M10 60.2539V59.9493H11.6751C13.0964 59.9493 13.3503 59.929 13.3503 59.7971C13.3503 59.7158 13.4213 59.6448 13.5025 59.6448C13.6041 59.6448 13.6548 59.7565 13.6548 60.0001V60.3554H12.0305C11.0152 60.3554 10.4061 60.396 10.4061 60.457C10.4061 60.5179 10.3147 60.5585 10.203 60.5585C10.0406 60.5585 10 60.4874 10 60.2539Z" fill="#D6C3C6"/>
<path d="M43.198 60.0001C43.198 59.8072 43.2488 59.6448 43.2995 59.6448C43.3604 59.6448 43.401 59.7158 43.401 59.7971C43.401 59.8884 43.4924 59.9493 43.6549 59.9493C43.8376 59.9493 43.9087 60.0001 43.9087 60.1524C43.9087 60.3148 43.8376 60.3554 43.5533 60.3554C43.2183 60.3554 43.198 60.3351 43.198 60.0001Z" fill="#D6C3C6"/>
<path d="M45.4315 60.1524C45.4315 59.9696 45.5026 59.9493 46.0407 59.9493C46.5178 59.9493 46.6498 59.9189 46.6498 59.7971C46.6498 59.7158 46.7209 59.6448 46.8021 59.6448C46.9036 59.6448 46.9544 59.7565 46.9544 60.0001V60.3554H46.1929C45.5026 60.3554 45.4315 60.3351 45.4315 60.1524Z" fill="#D6C3C6"/>
<path d="M53.1472 60.0001C53.1472 59.8072 53.198 59.6448 53.2487 59.6448C53.3097 59.6448 53.3503 59.7158 53.3503 59.7971C53.3503 59.8986 53.4619 59.9493 53.7056 59.9493C53.9899 59.9493 54.0609 59.99 54.0609 60.1524C54.0609 60.325 53.9899 60.3554 53.6041 60.3554C53.1472 60.3554 53.1472 60.3554 53.1472 60.0001Z" fill="#D6C3C6"/>
<path d="M56.0913 60.1525C56.0913 60.0002 56.1624 59.9494 56.3857 59.9494C56.5888 59.9494 56.7004 59.8885 56.7309 59.7768C56.7614 59.6753 56.7817 59.7667 56.7918 59.9799C56.802 60.3454 56.7918 60.3555 56.4466 60.3555C56.1624 60.3555 56.0913 60.3149 56.0913 60.1525Z" fill="#D6C3C6"/>
<path d="M86.3452 60.0001C86.3452 59.7565 86.396 59.6448 86.4975 59.6448C86.5787 59.6448 86.6498 59.7158 86.6498 59.7971C86.6498 59.929 86.9036 59.9493 88.3249 59.9493C89.929 59.9493 90 59.9595 90 60.1524C90 60.3453 89.929 60.3554 88.1726 60.3554H86.3452V60.0001Z" fill="#D6C3C6"/>
<path d="M13.3502 56.802C13.3502 56.599 13.3908 56.5888 15.0253 56.6193C16.5685 56.6498 16.7005 56.6396 16.7005 56.4772C16.7005 56.3757 16.7512 56.2944 16.802 56.2944C16.8629 56.2944 16.9035 56.4569 16.9035 56.6498V57.0051H15.1269C13.401 57.0051 13.3502 56.9949 13.3502 56.802Z" fill="#D6C3C6"/>
<path d="M83.066 56.9341C83.0254 56.9036 82.9949 47.1676 82.9949 35.3097C82.9949 21.0052 82.9645 13.7564 82.8934 13.7564C82.8426 13.7564 82.7919 13.6651 82.7919 13.5534C82.7919 13.391 82.8629 13.3503 83.0964 13.3503H83.401V34.9747V56.5991H85.0254C86.5787 56.5991 86.6497 56.6092 86.6497 56.8021C86.6497 56.995 86.5787 57.0052 84.8934 57.0052C83.9188 57.0052 83.0964 56.9747 83.066 56.9341Z" fill="#D6C3C6"/>
<path d="M19.8173 40.2946C19.7767 40.254 19.7462 35.6144 19.7462 29.9798V19.7463H21.6751H23.6041L23.6244 28.0712C23.6447 32.6499 23.6548 37.2793 23.6548 38.3555V40.3047L21.7665 40.3352C20.731 40.3453 19.8579 40.325 19.8173 40.2946Z" fill="#D6C3C6"/>
<path d="M76.3959 30.0509V19.7463H78.3248H80.2537V30.0509V40.3555H78.3248H76.3959V30.0509Z" fill="#D6C3C6"/>
<path d="M59.6447 23.5535C59.6447 23.4723 59.7157 23.4012 59.7969 23.4012C59.8782 23.4012 59.9492 23.3098 59.9492 23.1982C59.9492 23.0662 60.0203 22.9951 60.1523 22.9951C60.3147 22.9951 60.3553 23.0662 60.3553 23.3504C60.3553 23.6855 60.335 23.7058 60 23.7058C59.7563 23.7058 59.6447 23.655 59.6447 23.5535Z" fill="#D6C3C6"/>
<path d="M59.9492 20.2538C59.9492 20.1218 60.0203 20.0508 60.1523 20.0508C60.2842 20.0508 60.3553 20.1218 60.3553 20.2538C60.3553 20.3858 60.2842 20.4569 60.1523 20.4569C60.0203 20.4569 59.9492 20.3858 59.9492 20.2538Z" fill="#D6C3C6"/>
<path d="M29.6954 15.3808C29.6954 13.8275 29.6852 13.7564 29.4924 13.7564C29.3604 13.7564 29.2893 13.6854 29.2893 13.5534C29.2893 13.3808 29.3604 13.3503 29.6954 13.3503H30.1015V15.0255C30.1015 16.4468 30.1218 16.7006 30.2538 16.7006C30.335 16.7006 30.4061 16.7717 30.4061 16.8529C30.4061 16.9544 30.2944 17.0052 30.0507 17.0052H29.6954V15.3808Z" fill="#D6C3C6"/>
<path d="M16.7006 13.5534C16.7006 13.3706 16.7716 13.3503 17.2589 13.3503C17.7462 13.3503 17.8173 13.3706 17.8173 13.5534C17.8173 13.7361 17.7462 13.7564 17.2589 13.7564C16.7716 13.7564 16.7006 13.7361 16.7006 13.5534Z" fill="#D6C3C6"/>
<path d="M17.9188 13.5534C17.9188 13.3605 17.9899 13.3503 19.0863 13.3503C20.1828 13.3503 20.2538 13.3605 20.2538 13.5534C20.2538 13.7463 20.1828 13.7564 19.0863 13.7564C17.9899 13.7564 17.9188 13.7463 17.9188 13.5534Z" fill="#D6C3C6"/>
<path d="M20.3553 13.5534C20.3553 13.3605 20.4264 13.3503 21.5229 13.3503C22.6193 13.3503 22.6904 13.3605 22.6904 13.5534C22.6904 13.7463 22.6193 13.7564 21.5229 13.7564C20.4264 13.7564 20.3553 13.7463 20.3553 13.5534Z" fill="#D6C3C6"/>
<path d="M22.7919 13.5534C22.7919 13.391 22.8629 13.3503 23.1472 13.3503C23.4315 13.3503 23.5025 13.391 23.5025 13.5534C23.5025 13.7158 23.4315 13.7564 23.1472 13.7564C22.8629 13.7564 22.7919 13.7158 22.7919 13.5534Z" fill="#D6C3C6"/>
<path d="M24.0101 13.5534C24.0101 13.391 24.0812 13.3503 24.3655 13.3503C24.6497 13.3503 24.7208 13.391 24.7208 13.5534C24.7208 13.7158 24.6497 13.7564 24.3655 13.7564C24.0812 13.7564 24.0101 13.7158 24.0101 13.5534Z" fill="#D6C3C6"/>
<path d="M25.2284 13.5534C25.2284 13.391 25.2995 13.3503 25.5837 13.3503C25.868 13.3503 25.9391 13.391 25.9391 13.5534C25.9391 13.7158 25.868 13.7564 25.5837 13.7564C25.2995 13.7564 25.2284 13.7158 25.2284 13.5534Z" fill="#D6C3C6"/>
<path d="M26.4467 13.5534C26.4467 13.3605 26.5177 13.3503 27.6649 13.3503C28.8121 13.3503 28.8832 13.3605 28.8832 13.5534C28.8832 13.7463 28.8121 13.7564 27.6649 13.7564C26.5177 13.7564 26.4467 13.7463 26.4467 13.5534Z" fill="#D6C3C6"/>
<path d="M70 13.5534C70 13.3503 70.0711 13.3503 73.8071 13.3503C77.5431 13.3503 77.6142 13.3503 77.6142 13.5534C77.6142 13.7564 77.5431 13.7564 73.8071 13.7564C70.0711 13.7564 70 13.7564 70 13.5534Z" fill="#D6C3C6"/>
<path d="M78.0203 13.5534C78.0203 13.3706 78.0913 13.3503 78.6294 13.3503C79.1675 13.3503 79.2385 13.3706 79.2385 13.5534C79.2385 13.7361 79.1675 13.7564 78.6294 13.7564C78.0913 13.7564 78.0203 13.7361 78.0203 13.5534Z" fill="#D6C3C6"/>
<path d="M79.6447 13.5534C79.6447 13.391 79.7157 13.3503 80 13.3503C80.2842 13.3503 80.3553 13.391 80.3553 13.5534C80.3553 13.7158 80.2842 13.7564 80 13.7564C79.7157 13.7564 79.6447 13.7158 79.6447 13.5534Z" fill="#D6C3C6"/>
<path d="M80.4568 13.5534C80.4568 13.391 80.5279 13.3503 80.8121 13.3503C81.0964 13.3503 81.1674 13.391 81.1674 13.5534C81.1674 13.7158 81.0964 13.7564 80.8121 13.7564C80.5279 13.7564 80.4568 13.7158 80.4568 13.5534Z" fill="#D6C3C6"/>
<path d="M40.0203 79.9798C39.9797 79.9494 39.9492 79.188 39.9492 78.3047V76.7007H36.6497H33.3502V75.0255V73.3504H28.3248H23.2995V71.6753V70.0002H21.6751C20.2944 70.0002 20.0507 70.0205 20.0507 70.1524C20.0507 70.2337 19.9797 70.3047 19.8984 70.3047C19.8172 70.3047 19.7462 70.2337 19.7462 70.1524C19.7462 70.0712 19.8172 70.0002 19.8984 70.0002C20.0304 70.0002 20.0507 69.7565 20.0507 68.3758V66.7514H18.3756H16.7005V65.0763V63.4012H15.0253C13.604 63.4012 13.3502 63.4215 13.3502 63.5534C13.3502 63.6347 13.2792 63.7057 13.1979 63.7057C13.066 63.7057 13.0457 63.4316 13.0457 61.8783C13.0457 60.325 13.066 60.0509 13.1979 60.0509C13.2792 60.0509 13.3502 59.9798 13.3502 59.8986C13.3502 59.7666 13.5837 59.7463 14.8731 59.7463H16.3959V58.2235C16.3959 56.9342 16.4162 56.7007 16.5482 56.7007C16.6294 56.7007 16.7005 56.6296 16.7005 56.5484C16.7005 56.4164 16.9746 56.3961 18.5279 56.3961H20.3553V58.0712V59.7463H23.7056H27.0558V63.0458V66.3453H33.401H39.7462L39.7665 64.7007L39.7969 63.0458L41.4619 63.0154L43.1269 62.9849L43.0761 61.4113C43.0253 60.0814 43.0457 59.8276 43.1675 59.7768C43.2487 59.7463 43.3502 59.7666 43.3908 59.8377C43.4416 59.9189 43.9797 59.9595 45.0558 59.9798L46.6497 60.0001V58.3555C46.6497 56.9139 46.6294 56.7007 46.4873 56.7007C46.3959 56.7007 46.3451 56.6296 46.3655 56.5281C46.3858 56.3859 46.4974 56.3453 46.7817 56.3555C46.9847 56.3555 48.6193 56.3656 50.4061 56.3758C53.2182 56.3961 53.6548 56.4164 53.6548 56.5484C53.6548 56.6296 53.5837 56.7007 53.5025 56.7007C53.3705 56.7007 53.3502 56.924 53.3705 58.3352L53.401 59.9798L55.0253 59.9697C56.0304 59.9595 56.6599 59.9088 56.6802 59.8479C56.7005 59.7971 56.7817 59.7463 56.8629 59.7463C56.9746 59.7463 57.005 60.0408 57.005 61.3707V62.9951L58.6599 63.0154L60.3045 63.0458L60.335 64.7007L60.3553 66.3453H66.7106H73.066L73.0355 63.0763L73.005 59.7971L76.3248 59.7666L79.6446 59.7463V58.0712V56.3961H81.4213C83.736 56.3961 83.604 56.2844 83.604 58.2743V59.7463H85.1269C86.4162 59.7463 86.6497 59.7666 86.6497 59.8986C86.6497 59.9798 86.7208 60.0509 86.802 60.0509C86.934 60.0509 86.9543 60.325 86.9543 61.8783C86.9543 63.4316 86.934 63.7057 86.802 63.7057C86.7208 63.7057 86.6497 63.6347 86.6497 63.5534C86.6497 63.4215 86.4061 63.4012 85.0253 63.4012H83.401L83.3807 65.056L83.3502 66.7007L81.6751 66.7514L80.0101 66.8022L80 68.3758V69.9494L78.3553 69.9798L76.7005 70.0002V71.6753V73.3504H71.7259H66.7512L66.7309 75.0052L66.7005 76.6499L63.3807 76.6804L60.0507 76.7007V78.3758V80.0509H50.071C44.5786 80.0509 40.0507 80.0205 40.0203 79.9798ZM54.67 71.6753V66.9545H53.0457H51.4213V65.0255V63.1067L52.2132 63.0763L52.9949 63.0458L53.0253 61.7057L53.0558 60.3555H50H46.9543V61.726V63.0966H47.8172H48.6802V65.0255V66.9545H47.005H45.3299V71.6753V76.3961H50H54.67V71.6753Z" fill="white"/>
<path d="M70.1726 79.9798C70.132 79.9493 70.1016 79.858 70.1016 79.7768C70.1016 79.6854 70.2843 79.6448 70.7615 79.6448C71.3503 79.6448 71.4214 79.6651 71.4214 79.8478C71.4214 80.0306 71.3503 80.0509 70.8325 80.0509C70.5077 80.0509 70.2031 80.0204 70.1726 79.9798Z" fill="white"/>
<path d="M72.7411 79.8478C72.7411 79.6854 72.8122 79.6448 73.0964 79.6448C73.3807 79.6448 73.4517 79.6854 73.4517 79.8478C73.4517 80.0103 73.3807 80.0509 73.0964 80.0509C72.8122 80.0509 72.7411 80.0103 72.7411 79.8478Z" fill="white"/>
<path d="M79.9492 70.1624C79.9492 70.0609 80.0406 70 80.1624 70C80.4061 70 80.3756 70.2335 80.1218 70.2843C80.0203 70.3046 79.9492 70.2538 79.9492 70.1624Z" fill="white"/>
<path d="M33.0457 55.8375V53.0457H35.8375H38.6294V55.8375V58.6294H35.8375H33.0457V55.8375Z" fill="white"/>
<path d="M61.3706 55.8375V53.0457H64.1625H66.9544V55.8375V58.6294H64.1625H61.3706V55.8375Z" fill="white"/>
<path d="M23.3604 36.7819C23.3299 36.6499 23.2994 32.8326 23.2994 28.3047C23.2994 21.0357 23.2791 20.0509 23.1472 20.0509C23.0659 20.0509 22.9949 19.9798 22.9949 19.8986C22.9949 19.7666 23.2893 19.7463 25.0253 19.7463H27.0558V21.4215V23.0966H28.6802H30.3045V24.7717V26.4468L32.0101 26.4671L33.7055 26.4976V26.8834C33.6954 27.0864 33.6852 28.7007 33.6751 30.457L33.6548 33.655H30.3553H27.0558V35.3301V37.0052H25.2385C23.4416 37.0052 23.4213 37.0052 23.3604 36.7819Z" fill="white"/>
<path d="M73.0254 36.934C73.0254 36.8833 73.0153 36.1422 73.0051 35.2792L72.995 33.7056L69.6752 33.6752L66.3452 33.6549V30.0508V26.4467H68.0203H69.6955V24.7716V23.0965L71.3503 23.0762L72.995 23.0457V21.4213V19.797L75.0051 19.7665C76.7412 19.7462 77.0051 19.7665 77.0051 19.8985C77.0051 19.9797 76.934 20.0508 76.8528 20.0508C76.7209 20.0508 76.7005 21.0559 76.7005 28.5279V37.0051H74.8731C73.8681 37.0051 73.0356 36.9747 73.0254 36.934Z" fill="white"/>
<path d="M63.2994 16.9037C63.2994 16.7717 63.3705 16.7007 63.5025 16.7007C63.6345 16.7007 63.7055 16.7717 63.7055 16.9037C63.7055 17.0357 63.6345 17.1068 63.5025 17.1068C63.3705 17.1068 63.2994 17.0357 63.2994 16.9037Z" fill="white"/>
<path d="M18.0203 13.5636C18.0203 13.4012 18.0913 13.3708 18.4771 13.3809C18.8528 13.3809 18.934 13.4215 18.934 13.5738C18.934 13.7261 18.8528 13.7565 18.4771 13.7565C18.1015 13.7565 18.0203 13.7261 18.0203 13.5636Z" fill="white"/>
<path d="M19.6447 13.5737C19.6447 13.4316 19.7259 13.3808 20 13.3707C20.2944 13.3605 20.3553 13.391 20.3553 13.5534C20.3553 13.7158 20.2842 13.7564 20 13.7564C19.7259 13.7564 19.6447 13.7158 19.6447 13.5737Z" fill="white"/>
<path d="M20.4568 13.5636C20.4568 13.4113 20.5279 13.3707 20.7817 13.3809C21.005 13.391 21.1268 13.4621 21.1471 13.5839C21.1776 13.726 21.1065 13.7565 20.8223 13.7565C20.5279 13.7565 20.4568 13.7159 20.4568 13.5636Z" fill="white"/>
<path d="M21.4924 13.5839C21.5229 13.4316 21.6447 13.4012 22.1625 13.3809C22.7209 13.3605 22.7919 13.3809 22.7919 13.5636C22.7919 13.7362 22.7209 13.7565 22.1219 13.7565C21.5432 13.7565 21.462 13.7362 21.4924 13.5839Z" fill="white"/>
<path d="M23.1168 13.5838C23.1472 13.4315 23.2894 13.4011 24.0914 13.3808C24.9543 13.3605 25.0254 13.3706 25.0254 13.5533C25.0254 13.7361 24.9543 13.7564 24.0508 13.7564C23.1777 13.7564 23.0863 13.7361 23.1168 13.5838Z" fill="white"/>
<path d="M25.5533 13.5839C25.5837 13.4214 25.7157 13.4011 26.5279 13.4011C27.3502 13.4011 27.4619 13.4214 27.4619 13.5839C27.4619 13.7361 27.3502 13.7565 26.4873 13.7565C25.6142 13.7565 25.5228 13.7361 25.5533 13.5839Z" fill="white"/>
<path d="M28.7817 13.5534C28.7817 13.3605 28.8325 13.3402 29.3909 13.3706C29.8883 13.3909 30 13.4315 30 13.5737C30 13.7259 29.9086 13.7564 29.3909 13.7564C28.8427 13.7564 28.7817 13.7361 28.7817 13.5534Z" fill="white"/>
<path d="M70.0203 13.5837C70.0406 13.4619 70.1624 13.3908 70.3858 13.3705C70.6599 13.34 70.7107 13.3705 70.7107 13.5431C70.7107 13.7157 70.6498 13.7563 70.3452 13.7563C70.0609 13.7563 69.9899 13.7258 70.0203 13.5837Z" fill="white"/>
<path d="M72.6396 13.6041C72.6396 13.4417 73.0762 13.2894 73.2386 13.4011C73.4924 13.5534 73.3503 13.7564 72.995 13.7564C72.7513 13.7564 72.6396 13.7057 72.6396 13.6041Z" fill="white"/>
<path d="M73.4518 13.604C73.4518 13.4213 73.4518 13.4213 74.5381 13.4111C75.2792 13.401 75.3807 13.4213 75.3807 13.5837C75.3807 13.736 75.269 13.7563 74.4162 13.7563C73.6244 13.7563 73.4518 13.7258 73.4518 13.604Z" fill="white"/>
<path d="M78.1218 13.5737C78.1218 13.4316 78.203 13.3808 78.4772 13.3707C78.7716 13.3605 78.8325 13.391 78.8325 13.5534C78.8325 13.7158 78.7614 13.7564 78.4772 13.7564C78.203 13.7564 78.1218 13.7158 78.1218 13.5737Z" fill="white"/>
<path d="M48.071 74.8731V73.0457H49.9898C51.8883 73.0457 51.9086 73.0457 51.9695 73.2792C52 73.401 52.0304 74.2233 52.0304 75.1066V76.7005H50.0507H48.071V74.8731Z" fill="#FD6B53"/>
<path d="M26.7512 66.4467C26.7512 66.3147 26.8223 66.2437 26.9543 66.2437C27.0862 66.2437 27.1573 66.3147 27.1573 66.4467C27.1573 66.5787 27.0862 66.6497 26.9543 66.6497C26.8223 66.6497 26.7512 66.5787 26.7512 66.4467Z" fill="#FD6B53"/>
<path d="M39.6447 64.8225V62.9951H40.0507C40.4873 62.9951 40.6294 63.2286 40.2538 63.3301C40.0609 63.3809 40.0507 63.4723 40.0507 65.0154C40.0507 66.5789 40.0406 66.6499 39.8477 66.6499C39.6548 66.6499 39.6447 66.5789 39.6447 64.8225Z" fill="#FD6B53"/>
<path d="M72.9645 63.1777L72.995 59.6955L74.6498 59.665C75.6346 59.6548 76.2945 59.6041 76.2945 59.5432C76.2945 59.4823 76.4569 59.4417 76.6498 59.4417C76.9747 59.4417 77.0051 59.462 77.0051 59.7462V60.0508L75.1676 60.0711L73.3402 60.1015L73.3503 63.3807C73.3605 66.6092 73.3503 66.6498 73.1473 66.6498C72.9442 66.6498 72.9442 66.6092 72.9645 63.1777Z" fill="#FD6B53"/>
<path d="M60.0507 63.5433C60.0507 63.452 59.9594 63.3606 59.8477 63.3301C59.4924 63.2388 59.604 62.9951 60 62.9951C60.335 62.9951 60.3553 63.0154 60.3553 63.3504C60.3553 63.5941 60.3046 63.7058 60.203 63.7058C60.1218 63.7058 60.0507 63.6347 60.0507 63.5433Z" fill="#FD6B53"/>
<path d="M42.9949 61.4722C42.9949 59.7463 43.005 59.6448 43.1878 59.6448C43.3604 59.6448 43.5431 59.9798 43.4314 60.0915C43.401 60.1118 43.3908 60.8529 43.3908 61.7158C43.4111 63.2488 43.401 63.2996 43.1979 63.2996C43.005 63.2996 42.9949 63.2488 42.9949 61.4722Z" fill="#FD6B53"/>
<path d="M56.7005 60.3147C56.7005 60.1827 56.6396 60.0406 56.5787 60.0203C56.4772 59.9797 56.4772 59.9594 56.5787 59.9594C56.6396 59.9492 56.7005 59.8782 56.7005 59.797C56.7005 59.5939 56.9645 59.6041 57.0457 59.8071C57.0762 59.8985 57.1066 60.1015 57.1066 60.264C57.1066 60.4873 57.0559 60.5584 56.9036 60.5584C56.7614 60.5584 56.7005 60.4873 56.7005 60.3147Z" fill="#FD6B53"/>
<path d="M26.7513 60.2032C26.7513 60.0712 26.4771 60.0509 24.9238 60.0509C23.1675 60.0509 23.0964 60.0407 23.0964 59.8478C23.0964 59.6549 23.1675 59.6448 25.0761 59.6448H27.0558V60.0001C27.0558 60.2438 27.0051 60.3554 26.9035 60.3554C26.8223 60.3554 26.7513 60.2844 26.7513 60.2032Z" fill="#FD6B53"/>
<path d="M46.6498 60.2031C46.6498 60.1218 46.7005 60.0508 46.7513 60.0508C46.8122 60.0508 46.8528 60.1218 46.8528 60.2031C46.8528 60.2843 46.8122 60.3553 46.7513 60.3553C46.7005 60.3553 46.6498 60.2843 46.6498 60.2031Z" fill="#FD6B53"/>
<path d="M53.0457 60.2134C53.0457 60.1423 53.1269 60.051 53.2385 60.0205C53.3807 59.99 53.4111 60.0205 53.3807 60.1626C53.3198 60.386 53.0457 60.4266 53.0457 60.2134Z" fill="#FD6B53"/>
<path d="M44.1421 59.9798C44.4669 59.9595 44.9644 59.9595 45.2588 59.9798C45.5532 60.0001 45.2893 60.0103 44.67 60.0103C44.0608 60.0103 43.8172 60.0001 44.1421 59.9798Z" fill="#FD6B53"/>
<path d="M54.3959 59.9798C54.7716 59.9595 55.3807 59.9595 55.7665 59.9798C56.1421 60.0001 55.8274 60.0103 55.0761 60.0103C54.3249 60.0103 54.0101 60.0001 54.3959 59.9798Z" fill="#FD6B53"/>
<path d="M46.3452 56.4975C46.3452 56.3046 46.4366 56.2944 50 56.2944C53.5939 56.2944 53.6549 56.2944 53.6549 56.4975C53.6549 56.7005 53.6041 56.7005 50 56.7005C46.4467 56.6904 46.3452 56.6904 46.3452 56.4975Z" fill="#FD6B53"/>
<path d="M19.7462 40C19.7462 39.604 19.9899 39.4924 20.0812 39.8477C20.1117 39.9594 20.2031 40.0507 20.2944 40.0507C20.3858 40.0507 20.4569 40.1218 20.4569 40.203C20.4569 40.3046 20.3452 40.3553 20.1015 40.3553C19.7665 40.3553 19.7462 40.335 19.7462 40Z" fill="#FD6B53"/>
<path d="M22.9949 40.203C22.9949 40.1218 23.0659 40.0507 23.1573 40.0507C23.2487 40.0507 23.3401 39.9594 23.3705 39.8477C23.4619 39.4924 23.7055 39.604 23.7055 40C23.7055 40.335 23.6852 40.3553 23.3502 40.3553C23.1065 40.3553 22.9949 40.3046 22.9949 40.203Z" fill="#FD6B53"/>
<path d="M79.4417 40.2032C79.4417 40.0712 79.6244 40.0001 79.8782 40.0407C79.9188 40.0407 79.9493 39.9595 79.9493 39.8478C79.9493 39.7361 80 39.6448 80.0508 39.6448C80.1117 39.6448 80.1523 39.8072 80.1523 40.0001C80.1523 40.3351 80.132 40.3554 79.797 40.3554C79.5533 40.3554 79.4417 40.3047 79.4417 40.2032Z" fill="#FD6B53"/>
<path d="M76.2944 38.4773C76.2944 36.7717 76.3046 36.7007 76.4975 36.7007C76.6904 36.7007 76.7005 36.7717 76.7005 38.3758C76.7005 39.7971 76.7208 40.0509 76.8528 40.0509C76.934 40.0509 77.0051 40.1017 77.0051 40.1525C77.0051 40.2134 76.8427 40.254 76.6498 40.254H76.2944V38.4773Z" fill="#FD6B53"/>
<path d="M72.9442 36.7513C72.9442 36.4569 72.9848 36.396 73.1574 36.396C73.2792 36.396 73.33 36.4366 73.2995 36.5077C73.2589 36.5686 73.3198 36.6397 73.4417 36.6701C73.5635 36.7006 73.6549 36.8021 73.6549 36.9138C73.6549 37.066 73.5838 37.1067 73.2995 37.1067C72.9645 37.1067 72.9442 37.0864 72.9442 36.7513Z" fill="#FD6B53"/>
<path d="M29.7969 33.5535C29.7969 33.3606 29.8578 33.3504 31.5735 33.3504H33.3502V31.5738C33.3502 29.858 33.3603 29.7971 33.5532 29.7971C33.7563 29.7971 33.7563 29.8479 33.736 31.7565L33.7055 33.7057L31.7563 33.7362C29.8476 33.7565 29.7969 33.7565 29.7969 33.5535Z" fill="#FD6B53"/>
<path d="M66.3452 33.401C66.3452 33.1573 66.396 33.0457 66.4975 33.0457C66.5787 33.0457 66.6498 33.1167 66.6498 33.1979C66.6498 33.3299 66.9239 33.3502 68.4772 33.3502C70.2335 33.3502 70.3046 33.3604 70.3046 33.5533C70.3046 33.7462 70.2335 33.7563 68.3249 33.7563H66.3452V33.401Z" fill="#FD6B53"/>
<path d="M59.6447 29.9493C59.6447 29.6143 59.665 29.594 60 29.594C60.335 29.594 60.3553 29.6143 60.3553 29.9493C60.3553 30.2843 60.335 30.3047 60 30.3047C59.665 30.3047 59.6447 30.2843 59.6447 29.9493Z" fill="#FD6B53"/>
<path d="M26.8224 66.5788C26.7817 66.5483 26.7513 65.0356 26.7513 63.2285V59.929L24.9239 59.9696L23.0965 60.0001V58.5077V57.0052H21.5736C20.2843 57.0052 20.0508 56.9848 20.0508 56.8529C20.0508 56.7716 19.9797 56.7006 19.8985 56.7006C19.7665 56.7006 19.7462 56.2437 19.7462 53.198V49.6955H21.4213H23.0965V44.8732C23.0965 40.6498 23.1168 40.0508 23.2488 40.0508C23.33 40.0508 23.401 39.9798 23.401 39.8986C23.401 39.7666 23.6345 39.7463 24.9239 39.7463H26.4467V38.2234C26.4467 36.9341 26.467 36.7006 26.599 36.7006C26.6802 36.7006 26.7513 36.6295 26.7513 36.5483C26.7513 36.4163 26.9848 36.396 28.2234 36.396H29.6955V34.9036V33.4011H31.5432H33.401V31.6041V29.797L36.5482 29.7767L39.6955 29.7463L39.7259 28.1016L39.7462 26.4468H41.7259C43.4213 26.4468 43.7056 26.4671 43.7056 26.5991C43.7056 26.6803 43.6345 26.7513 43.5533 26.7513C43.4213 26.7513 43.401 26.995 43.401 28.3757V30.0001H50.0508H56.7005V28.3757C56.7005 26.995 56.6802 26.7513 56.5482 26.7513C56.467 26.7513 56.396 26.6803 56.396 26.5991C56.396 26.4671 56.6599 26.4468 58.3554 26.4671L60.3046 26.4975V28.1219V29.7463L63.4823 29.7767L66.6498 29.797V31.6346V33.4722L68.4772 33.4315L70.3046 33.4011V34.9036V36.396H71.8173C73.2488 36.396 73.3401 36.4062 73.2995 36.5889C73.2691 36.731 73.3097 36.7717 73.462 36.731C73.6447 36.6803 73.6548 36.7513 73.6548 38.2133V39.7463H75.0762C76.3351 39.7463 76.5178 39.7666 76.6904 39.9392C76.8731 40.1219 76.8833 40.4671 76.934 50.0914C76.9848 59.7564 76.9746 60.0508 76.7919 60.0508C76.6599 60.0508 76.6193 60.0001 76.6599 59.8782C76.7005 59.7564 76.6904 59.7361 76.6295 59.8173C76.5686 59.9087 76.0508 59.9493 74.9239 59.9696L73.2995 60.0001L73.2691 63.33L73.2488 66.6498H66.6498H60.0508V64.9747V63.2996H58.3757H56.7005V60.0305C56.7005 58.2437 56.6802 56.7412 56.6396 56.7107C56.5686 56.6397 43.5432 56.6295 43.4721 56.7006C43.4315 56.7412 43.3097 61.3808 43.2995 62.9747V63.2996H41.6244H39.9493V64.9747V66.6498H33.4213C29.8274 66.6498 26.8528 66.6194 26.8224 66.5788ZM36.396 61.4214V59.7463H38.934H41.4721V56.7006V53.6549H39.8985C38.5686 53.6549 38.3249 53.6346 38.3249 53.5026C38.3249 53.4214 38.2843 53.3503 38.2234 53.3503C38.1625 53.3503 38.1219 52.7716 38.1219 51.8275V50.3046H34.2132H30.3046V51.9798V53.6549L28.6599 53.6752L27.0051 53.7057L26.9746 56.396C26.9543 57.8782 26.9746 59.2387 27.0051 59.4214L27.066 59.7463H28.6802H30.3046V61.4214V63.0965H33.3503H36.396V61.4214ZM69.6955 61.4214V59.7463H71.3706H73.0457V56.7006V53.6549H71.3706H69.6955V51.9798V50.3046H65.8376H61.9797V51.8275C61.9797 53.1168 61.9594 53.3503 61.8274 53.3503C61.7462 53.3503 61.6752 53.4214 61.6752 53.5026C61.6752 53.6346 61.4417 53.6549 60.1523 53.6549H58.6295V56.7006V59.7463H61.1168H63.6041V61.4214V63.0965H66.6498H69.6955V61.4214ZM39.9696 41.726C40 40.2945 39.9797 40.0508 39.8477 40.0508C39.7158 40.0508 39.6955 39.8275 39.7259 38.528L39.7564 37.0052H38.3858H37.0051V38.528V40.0508H35.1777H33.3503V41.6549C33.3503 42.5381 33.3807 43.2996 33.4213 43.33C33.4518 43.3706 34.934 43.4011 36.7107 43.4011H39.9391L39.9696 41.726ZM66.6498 41.726V40.0508H64.8427H63.0457L63.0863 38.528L63.1168 37.0052H61.6853H60.2538V38.4874C60.2538 39.6143 60.2234 40.0001 60.1117 40.1016C60.0102 40.2133 59.5939 40.2539 58.4569 40.2742L56.9543 40.3046L56.9239 41.7057L56.8934 43.0965H58.4772C59.8071 43.0965 60.0508 43.1168 60.0508 43.2488C60.0508 43.3808 60.4873 43.4011 63.3503 43.4011H66.6498V41.726ZM43.0762 41.7057L43.0457 40.3046L41.7056 40.2742L40.3554 40.2437V41.6752V43.0965H41.7259H43.1066L43.0762 41.7057Z" fill="#F67339"/>
<path d="M45.0254 74.8123V72.9138L45.4112 72.9849C45.6142 73.0153 46.4366 73.0458 47.2386 73.0458C48.4467 73.0458 48.6802 73.0661 48.6802 73.1981C48.6802 73.2793 48.6091 73.3504 48.5279 73.3504C48.3959 73.3504 48.3756 73.6042 48.3756 75.0255V76.7006H46.7005H45.0254V74.8123Z" fill="#CF3F2F"/>
<path d="M51.7056 75.3604C51.7462 73.8375 51.6853 73.3502 51.4721 73.3502C51.3909 73.3502 51.3198 73.2792 51.3198 73.1979C51.3198 73.066 51.5939 73.0457 53.1472 73.0457H54.9746V74.8731V76.7005H53.33H51.6752L51.7056 75.3604Z" fill="#CF3F2F"/>
<path d="M49.4924 73.1474C49.4924 72.9748 49.5635 72.9443 49.8985 72.9443C50.2335 72.9443 50.3046 72.9748 50.3046 73.1474C50.3046 73.32 50.2335 73.3504 49.8985 73.3504C49.5635 73.3504 49.4924 73.32 49.4924 73.1474Z" fill="#CF3F2F"/>
<path d="M50.4061 73.1474C50.4061 72.9849 50.4772 72.9443 50.7615 72.9443C51.0457 72.9443 51.1168 72.9849 51.1168 73.1474C51.1168 73.3098 51.0457 73.3504 50.7615 73.3504C50.4772 73.3504 50.4061 73.3098 50.4061 73.1474Z" fill="#CF3F2F"/>
<path d="M20.0508 58.3757C20.0508 56.9544 20.0305 56.7006 19.8985 56.7006C19.8173 56.7006 19.7462 56.6295 19.7462 56.5483C19.7462 56.4671 19.8173 56.396 19.8985 56.396C19.9797 56.396 20.0508 56.4671 20.0508 56.5483C20.0508 56.6803 20.3046 56.7006 21.7259 56.7006H23.401V58.3757V60.0508H21.7259H20.0508V58.3757Z" fill="#CF3F2F"/>
<path d="M26.7005 59.7259C26.6701 59.5431 26.6599 58.0406 26.6701 56.3959L26.7005 53.401L27.6954 53.3705L28.6802 53.3401V56.7005V60.0507H27.7158H26.7614L26.7005 59.7259Z" fill="#CF3F2F"/>
<path d="M41.3706 56.7006C41.3706 53.4214 41.3706 53.3503 41.5737 53.3503C41.7767 53.3503 41.7767 53.4214 41.7767 56.7006C41.7767 59.9798 41.7767 60.0508 41.5737 60.0508C41.3706 60.0508 41.3706 59.9798 41.3706 56.7006Z" fill="#CF3F2F"/>
<path d="M71.4214 56.7006V53.3503H72.3859H73.3503V56.7006V60.0508H72.3859H71.4214V56.7006Z" fill="#CF3F2F"/>
<path d="M76.6193 56.2742C76.6193 54.193 76.6091 49.6854 76.6091 46.2742L76.599 40.0509H74.9746C73.4213 40.0509 73.3502 40.0407 73.3502 39.8478C73.3502 39.6549 73.4213 39.6448 74.9746 39.6448C76.3959 39.6448 76.599 39.6651 76.599 39.8072C76.599 39.8986 76.6903 39.99 76.802 40.0204C76.9949 40.0712 77.005 40.1625 77.005 41.5839V43.0966H78.6294H80.2538V49.8986C80.2538 55.8783 80.2335 56.7006 80.1015 56.7006C79.9695 56.7006 79.9492 56.9544 79.9492 58.3757V60.0509H78.2842H76.6193V56.2742Z" fill="#CF3F2F"/>
<path d="M38.3248 53.4518C38.3248 53.401 38.2538 53.3503 38.1725 53.3503C38.0406 53.3503 38.0203 53.0964 38.0203 51.6751C38.0203 50.0711 38.0304 50 38.2233 50C38.4162 50 38.4264 50.0711 38.4264 51.6751C38.4264 53.0964 38.4467 53.3503 38.5786 53.3503C38.6599 53.3503 38.7309 53.401 38.7309 53.4518C38.7309 53.5127 38.6396 53.5533 38.5279 53.5533C38.4162 53.5533 38.3248 53.5127 38.3248 53.4518Z" fill="#CF3F2F"/>
<path d="M19.7462 46.7006V43.0965H21.3706H22.9949V41.5737C22.9949 40.1219 23.0051 40.0508 23.198 40.0508C23.33 40.0508 23.401 39.9798 23.401 39.8478C23.401 39.6549 23.4721 39.6447 24.8731 39.6447H26.3452V38.1726C26.3452 36.7716 26.3554 36.7006 26.5482 36.7006C26.6599 36.7006 26.7513 36.6295 26.7513 36.5483C26.7513 36.4671 26.8224 36.396 26.9036 36.396C26.9848 36.396 27.0559 36.4671 27.0559 36.5483C27.0559 36.6295 26.9848 36.7006 26.9036 36.7006C26.7716 36.7006 26.7513 36.9544 26.7513 38.3757V40.0508H25.0762H23.401V45.0254V50.0001H21.7259C20.3046 50.0001 20.0508 50.0204 20.0508 50.1523C20.0508 50.2336 19.9797 50.3046 19.8985 50.3046C19.7665 50.3046 19.7462 49.8376 19.7462 46.7006Z" fill="#CF3F2F"/>
<path d="M56.6193 41.7057L56.6498 40.0001L58.3046 39.9697C59.7056 39.9494 59.9493 39.9189 59.9493 39.7869C59.9493 39.6955 60.0203 39.6448 60.1218 39.6651C60.3553 39.7057 60.4264 40.0509 60.2132 40.0509C60.1218 40.0509 60.0508 40.1321 60.0508 40.2336C60.0508 40.3961 59.9289 40.4062 58.5279 40.3656L57.0051 40.3351V41.8681C57.0051 43.3402 56.9949 43.4011 56.802 43.4011C56.599 43.4011 56.599 43.3504 56.6193 41.7057Z" fill="#CF3F2F"/>
<path d="M40.0508 40.2032C40.0508 40.1219 40.0102 40.0509 39.9493 40.0509C39.8985 40.0509 39.8478 39.9595 39.8478 39.8478C39.8478 39.7361 39.8985 39.6448 39.9493 39.6448C40.0102 39.6448 40.0508 39.7158 40.0508 39.7971C40.0508 39.9189 40.3249 39.9493 41.6955 39.9696C43.1777 40.0001 43.3503 40.0204 43.3808 40.1828C43.4112 40.3453 43.2793 40.3554 41.7361 40.3554C40.3046 40.3554 40.0508 40.3351 40.0508 40.2032Z" fill="#CF3F2F"/>
<path d="M62.9949 38.386C62.9949 36.7616 63.005 36.7007 63.1979 36.7007C63.401 36.7007 63.401 36.7514 63.3807 38.3454C63.3502 39.8276 63.3299 40.0002 63.1776 40.0306C63.005 40.0611 62.9949 39.9291 62.9949 38.386Z" fill="#CF3F2F"/>
<path d="M29.6954 33.5534C29.6954 33.4214 29.7665 33.3503 29.8883 33.3503C30.0305 33.3503 30.0711 33.4011 30.0305 33.5534C30 33.6651 29.9086 33.7564 29.8376 33.7564C29.7563 33.7564 29.6954 33.6651 29.6954 33.5534Z" fill="#CF3F2F"/>
<path d="M33.3503 29.8986C33.3503 29.7057 33.4112 29.6955 34.8731 29.6955H36.396V28.3757V27.0559H34.863C33.8071 27.0559 33.3604 27.0255 33.401 26.9443C33.4416 26.8833 33.3807 26.8123 33.2589 26.7818C33.0559 26.7311 33.0457 26.6701 33.0457 25.2184V23.7057H31.5229C30.2335 23.7057 30 23.6854 30 23.5534C30 23.4214 29.7564 23.4011 28.3757 23.4011H26.7513V21.726V20.0509H23.401C20.4873 20.0509 20.0508 20.0712 20.0508 20.2031C20.0508 20.2844 19.9797 20.3554 19.8985 20.3554C19.7665 20.3554 19.7462 20.0712 19.7462 18.4265V16.4976H24.8731C28.2234 16.4976 30 16.528 30 16.5991C30 16.66 30.0711 16.7006 30.1523 16.7006C30.2843 16.7006 30.3046 16.9341 30.3046 18.2234V19.7463H33.5026C36.2741 19.7463 36.7005 19.7666 36.7005 19.8986C36.7005 19.9798 36.7716 20.0509 36.8528 20.0509C36.9848 20.0509 37.0051 20.2844 37.0051 21.5737V23.0965H38.5279C39.7767 23.0965 40.0508 23.127 40.0508 23.2387C40.0508 23.3199 40.0914 23.4011 40.1422 23.4214C40.2944 23.4722 40.335 26.7514 40.1828 26.7514C40.0914 26.7514 40.0508 27.1778 40.0305 28.4062L40 30.0509L36.6802 30.0813C33.401 30.1016 33.3503 30.1016 33.3503 29.8986Z" fill="#CF3F2F"/>
<path d="M60.0102 29.929C59.9696 29.8377 59.9493 29.0965 59.9594 28.2844C59.9696 26.9646 59.9493 26.8021 59.797 26.7717C59.6751 26.7412 59.6447 26.6701 59.6853 26.5179C59.7157 26.396 59.7462 25.6448 59.7462 24.8529C59.7462 23.6448 59.7665 23.4011 59.8985 23.4011C59.9899 23.4011 60.0203 23.3402 59.9899 23.2488C59.9391 23.1168 60.1421 23.0965 61.5127 23.0965H63.0965V21.5737C63.0965 20.6295 63.1371 20.0509 63.198 20.0509C63.2589 20.0509 63.2995 19.9798 63.2995 19.8986C63.2995 19.7666 63.7259 19.7463 66.4975 19.7463H69.6954V18.2234C69.6954 16.9341 69.7157 16.7006 69.8477 16.7006C69.9289 16.7006 70 16.66 70 16.5991C70 16.528 71.7767 16.4976 75.1269 16.4976H80.2538V18.4265C80.2538 20.0712 80.2335 20.3554 80.1015 20.3554C80.0203 20.3554 79.9493 20.2844 79.9493 20.2031C79.9493 20.0712 79.5432 20.0509 76.6396 20.0712L73.3401 20.1016L73.3198 21.726L73.2995 23.3504L71.6548 23.3808C70.2741 23.4011 70 23.4316 70 23.5534C70 23.6854 69.7564 23.7057 68.4772 23.7057H66.9543V25.2285C66.9543 26.5179 66.934 26.7514 66.802 26.7514C66.7208 26.7514 66.6498 26.8224 66.6498 26.9036C66.6498 27.0356 66.4163 27.0559 65.1269 27.0559H63.6041V28.3757V29.6955H65.1269C66.5787 29.6955 66.6498 29.7057 66.6498 29.8986C66.6498 30.1016 66.5787 30.1016 63.3604 30.1016C60.3655 30.1016 60.0711 30.0915 60.0102 29.929Z" fill="#CF3F2F"/>
<path d="M30.0204 80.1827C30.0508 80.0101 30.3046 80 33.3808 79.9695C36.6498 79.9492 36.7006 79.9492 36.7006 80.1523C36.7006 80.3553 36.6396 80.3553 33.3401 80.3553C30.2031 80.3553 29.9899 80.3452 30.0204 80.1827Z" fill="#A7302F"/>
<path d="M63.3198 80.1828C63.3502 80.0103 63.6041 80.0001 66.6802 79.9696C69.533 79.9493 70 79.929 70 79.7971C70 79.6651 70.6396 79.6448 74.9848 79.6448C79.6751 79.6448 79.9594 79.6549 79.9289 79.8275C79.8985 79.99 79.5736 80.0001 74.9746 80.0103C70.5178 80.0204 70.0508 80.0407 70.0203 80.193C69.9898 80.3351 69.6447 80.3554 66.6396 80.3554C63.5025 80.3554 63.2893 80.3453 63.3198 80.1828Z" fill="#A7302F"/>
<path d="M20.1218 79.9798C20.0812 79.9493 20.0508 79.858 20.0508 79.7768C20.0508 79.6651 20.9442 79.6448 25.0356 79.6448C29.7259 79.6448 30.0102 79.6549 29.9797 79.8275C29.9493 79.99 29.6244 80.0001 25.066 80.0306C22.3858 80.0407 20.1523 80.0204 20.1218 79.9798Z" fill="#A7302F"/>
<path d="M79.6447 76.8528C79.6447 76.7716 79.7157 76.7005 79.7969 76.7005C79.8782 76.7005 79.9492 76.6092 79.9492 76.4975C79.9492 76.3655 80.0203 76.2944 80.1523 76.2944C80.2842 76.2944 80.3553 76.3655 80.3553 76.4975C80.3553 76.6295 80.2842 76.7005 80.1523 76.7005C80.0406 76.7005 79.9492 76.7716 79.9492 76.8528C79.9492 76.934 79.8782 77.0051 79.7969 77.0051C79.7157 77.0051 79.6447 76.934 79.6447 76.8528Z" fill="#A7302F"/>
<path d="M16.7006 76.4975C16.7006 76.3655 16.7716 76.2944 16.9036 76.2944C17.0356 76.2944 17.1067 76.3655 17.1067 76.4975C17.1067 76.6295 17.0356 76.7005 16.9036 76.7005C16.7716 76.7005 16.7006 76.6295 16.7006 76.4975Z" fill="#A7302F"/>
<path d="M45.0254 71.5128V69.6956H50H54.9746V71.523V73.3504L50 73.3402H45.0254V71.5128Z" fill="#A7302F"/>
<path d="M10.0609 69.929C10.0305 69.8883 10 67.6548 10 64.9543C10.0102 60.1523 10.0102 60.0508 10.203 60.0508C10.4061 60.0508 10.4061 60.1523 10.4061 65.0254C10.4061 69.1066 10.3858 70 10.2741 70C10.1929 70 10.1015 69.9696 10.0609 69.929Z" fill="#A7302F"/>
<path d="M51.3198 64.985C51.3198 63.3809 51.3401 63.1068 51.4823 63.056C51.5736 63.0256 52.0305 62.9951 52.5076 62.9951C53.2691 62.9951 53.3604 63.0154 53.33 63.1779C53.2995 63.32 53.1675 63.3504 52.5076 63.3809L51.7259 63.4114V65.0256C51.7259 66.4063 51.7462 66.6499 51.8782 66.6499C51.9594 66.6499 52.0305 66.7007 52.0305 66.7515C52.0305 66.8124 51.868 66.853 51.6752 66.853H51.3198V64.985Z" fill="#A7302F"/>
<path d="M48.3757 63.5535C48.3757 63.4317 48.2132 63.4012 47.5127 63.4012C46.7208 63.4012 46.6498 63.3809 46.6498 63.1982C46.6498 63.0053 46.7208 62.9951 47.665 62.9951H48.6802V63.3504C48.6802 63.5941 48.6295 63.7058 48.528 63.7058C48.4467 63.7058 48.3757 63.6347 48.3757 63.5535Z" fill="#A7302F"/>
<path d="M30 63.1982C30 62.9951 30.0711 62.9951 33.3503 62.9951C36.6294 62.9951 36.7005 62.9951 36.7005 63.1982C36.7005 63.4012 36.6294 63.4012 33.3503 63.4012C30.0711 63.4012 30 63.4012 30 63.1982Z" fill="#A7302F"/>
<path d="M63.2994 63.1982C63.2994 62.9951 63.3705 62.9951 66.6497 62.9951C69.9289 62.9951 69.9999 62.9951 69.9999 63.1982C69.9999 63.4012 69.9289 63.4012 66.6497 63.4012C63.3705 63.4012 63.2994 63.4012 63.2994 63.1982Z" fill="#A7302F"/>
<path d="M13.0457 60.1523C13.0457 60.1016 13.1167 60.0508 13.1979 60.0508C13.2893 60.0508 13.3502 59.9595 13.3502 59.797C13.3502 59.6143 13.401 59.5432 13.5533 59.5432C13.7056 59.5432 13.7563 59.6143 13.7563 59.797C13.7563 59.9798 13.7056 60.0508 13.5533 60.0508C13.4416 60.0508 13.3502 60.1016 13.3502 60.1523C13.3502 60.2133 13.2792 60.2539 13.1979 60.2539C13.1167 60.2539 13.0457 60.2133 13.0457 60.1523Z" fill="#A7302F"/>
<path d="M41.3706 59.7971C41.3706 59.4925 41.6244 59.4519 41.7056 59.7362C41.7564 59.9595 41.7056 60.0509 41.5026 60.0509C41.4315 60.0509 41.3706 59.9392 41.3706 59.7971Z" fill="#A7302F"/>
<path d="M58.3248 59.8478C58.3248 59.7158 58.3959 59.6448 58.5279 59.6448C58.6599 59.6448 58.7309 59.7158 58.7309 59.8478C58.7309 59.9798 58.6599 60.0509 58.5279 60.0509C58.3959 60.0509 58.3248 59.9798 58.3248 59.8478Z" fill="#A7302F"/>
<path d="M71.3198 56.7006C71.3198 53.4214 71.3198 53.3503 71.5229 53.3503C71.7259 53.3503 71.7259 53.4214 71.7259 56.7006C71.7259 59.9798 71.7259 60.0508 71.5229 60.0508C71.3198 60.0508 71.3198 59.9798 71.3198 56.7006Z" fill="#A7302F"/>
<path d="M83.2996 59.8478C83.2996 59.7158 83.3706 59.6448 83.5026 59.6448C83.6346 59.6448 83.7057 59.7158 83.7057 59.8478C83.7057 59.9798 83.6346 60.0509 83.5026 60.0509C83.3706 60.0509 83.2996 59.9798 83.2996 59.8478Z" fill="#A7302F"/>
<path d="M83.2994 56.8528C83.2994 56.7716 83.2284 56.7005 83.1472 56.7005C83.0659 56.7005 82.9949 56.6092 82.9949 56.4975C82.9949 56.3858 83.0659 56.2944 83.1472 56.2944C83.2284 56.2944 83.2994 56.3655 83.2994 56.4569C83.2994 56.5482 83.3908 56.6396 83.5025 56.6701C83.6142 56.7005 83.7055 56.7919 83.7055 56.863C83.7055 56.9442 83.6142 57.0051 83.5025 57.0051C83.3908 57.0051 83.2994 56.934 83.2994 56.8528Z" fill="#A7302F"/>
<path d="M79.9492 56.4975C79.9492 56.3655 80.0203 56.2944 80.1523 56.2944C80.2842 56.2944 80.3553 56.3655 80.3553 56.4975C80.3553 56.6295 80.2842 56.7005 80.1523 56.7005C80.0203 56.7005 79.9492 56.6295 79.9492 56.4975Z" fill="#A7302F"/>
<path d="M41.3706 53.6041C41.3706 53.462 41.4315 53.3503 41.5026 53.3503C41.7056 53.3503 41.7564 53.4417 41.7056 53.6651C41.6244 53.9493 41.3706 53.9087 41.3706 53.6041Z" fill="#A7302F"/>
<path d="M38.3248 53.5027C38.3248 53.4215 38.2538 53.3504 38.1725 53.3504C38.0913 53.3504 38.0203 53.2591 38.0203 53.1474C38.0203 53.0357 38.0913 52.9443 38.1725 52.9443C38.2538 52.9443 38.3248 53.0154 38.3248 53.1068C38.3248 53.1981 38.4162 53.2895 38.5279 53.32C38.6396 53.3504 38.7309 53.4418 38.7309 53.5129C38.7309 53.5941 38.6396 53.655 38.5279 53.655C38.4162 53.655 38.3248 53.5839 38.3248 53.5027Z" fill="#A7302F"/>
<path d="M30 50.203C30 50.0711 30.0711 50 30.203 50C30.335 50 30.4061 50.0711 30.4061 50.203C30.4061 50.335 30.335 50.4061 30.203 50.4061C30.0711 50.4061 30 50.335 30 50.203Z" fill="#A7302F"/>
<path d="M19.7462 41.726C19.7462 40.0306 19.7665 39.7463 19.8985 39.7463C19.9797 39.7463 20.0508 39.8174 20.0508 39.8986C20.0508 40.0306 20.2944 40.0509 21.6751 40.0509H23.2995V41.726V43.4012H21.6751C20.2944 43.4012 20.0508 43.4215 20.0508 43.5534C20.0508 43.6347 19.9797 43.7057 19.8985 43.7057C19.7665 43.7057 19.7462 43.4215 19.7462 41.726Z" fill="#A7302F"/>
<path d="M79.9492 43.5534C79.9492 43.4215 79.7055 43.4012 78.3248 43.4012H76.7004V41.726V40.0509H78.3248C79.7055 40.0509 79.9492 40.0306 79.9492 39.8986C79.9492 39.8174 80.0202 39.7463 80.1015 39.7463C80.2334 39.7463 80.2537 40.0306 80.2537 41.726C80.2537 43.4215 80.2334 43.7057 80.1015 43.7057C80.0202 43.7057 79.9492 43.6347 79.9492 43.5534Z" fill="#A7302F"/>
<path d="M42.9949 41.7259C42.9949 40.1218 43.005 40.0508 43.1979 40.0508C43.3908 40.0508 43.401 40.1218 43.401 41.7259C43.401 43.33 43.3908 43.401 43.1979 43.401C43.005 43.401 42.9949 43.33 42.9949 41.7259Z" fill="#A7302F"/>
<path d="M56.6803 43.33C56.6498 43.259 56.66 40.9849 56.6904 40.4366C56.7006 40.3351 56.7716 40.2539 56.8528 40.2539C56.9848 40.2539 57.0051 40.4976 57.0051 41.8275C57.0051 43.127 56.9848 43.4011 56.863 43.4011C56.7818 43.4011 56.7006 43.3707 56.6803 43.33Z" fill="#A7302F"/>
<path d="M59.6447 41.7159C59.6447 40.1727 59.6548 40.0408 59.8274 40.0712C59.9797 40.1017 60 40.2743 60.0304 41.7565C60.0507 43.3504 60.0507 43.4012 59.8477 43.4012C59.6548 43.4012 59.6447 43.3403 59.6447 41.7159Z" fill="#A7302F"/>
<path d="M40.0508 40.2032C40.0508 40.1219 39.9797 40.0509 39.8985 40.0509C39.8173 40.0509 39.7462 39.9595 39.7462 39.8478C39.7462 39.7361 39.8173 39.6448 39.8985 39.6448C39.9797 39.6448 40.0508 39.7158 40.0508 39.8072C40.0508 39.8986 40.1422 39.99 40.2538 40.0204C40.3655 40.0509 40.4569 40.1422 40.4569 40.2133C40.4569 40.2945 40.3655 40.3554 40.2538 40.3554C40.1422 40.3554 40.0508 40.2844 40.0508 40.2032Z" fill="#A7302F"/>
<path d="M23.5837 39.9697C23.4213 39.9393 23.401 39.7768 23.401 38.3149V36.7007H25.0254H26.6497V38.3555V40.0002H25.198C24.4061 40.0103 23.6751 39.99 23.5837 39.9697Z" fill="#A7302F"/>
<path d="M59.9492 38.3758C59.9492 36.7717 59.9594 36.7007 60.1523 36.7007C60.3452 36.7007 60.3553 36.7717 60.3553 38.3758C60.3553 39.9799 60.3452 40.0509 60.1523 40.0509C59.9594 40.0509 59.9492 39.9799 59.9492 38.3758Z" fill="#A7302F"/>
<path d="M73.3503 38.3554V36.7006H71.6751H70V35.0255V33.3503L71.6548 33.3706L73.2995 33.4011L73.3198 35.0255L73.3401 36.6498L74.9645 36.6803L76.599 36.7006V38.325V39.9493L75.9188 39.9595C75.533 39.9595 74.802 39.9696 74.2944 39.9798L73.3503 40.0001V38.3554Z" fill="#A7302F"/>
<path d="M26.731 35.127C26.7107 34.264 26.7208 33.5026 26.731 33.4519C26.7513 33.391 27.4112 33.3503 28.3858 33.3503H30V35.0255V36.7006H28.3756H26.7614L26.731 35.127Z" fill="#A7302F"/>
<path d="M33.3604 28.4062L33.3706 26.8021L31.6853 26.7717L30 26.7514V25.0762V23.4011H31.6751H33.3503V25.0762V26.7514H35.0254H36.7005V28.3757V30.0001H35.0254H33.3401L33.3604 28.4062Z" fill="#A7302F"/>
<path d="M63.2994 28.3757V26.7514H64.9746H66.6497V25.0762V23.4011H68.3248H69.9999V25.0762V26.7514H68.3248H66.6497V28.3757V30.0001H64.9746H63.2994V28.3757Z" fill="#A7302F"/>
<path d="M39.9492 25.0761C39.9492 23.6548 39.9289 23.401 39.7969 23.401C39.7157 23.401 39.6447 23.3299 39.6447 23.2487C39.6447 23.1675 39.736 23.0964 39.8477 23.0964C39.9594 23.0964 40.0507 23.1675 40.0507 23.2487C40.0507 23.3299 40.1218 23.401 40.203 23.401C40.335 23.401 40.3553 23.6548 40.3553 25.0761C40.3553 26.6802 40.3452 26.7513 40.1523 26.7513C39.9594 26.7513 39.9492 26.6802 39.9492 25.0761Z" fill="#A7302F"/>
<path d="M59.6447 25.0763C59.6447 23.5535 59.665 23.4012 59.8274 23.4012C59.9797 23.4012 60 23.259 60 21.7565C60 20.2641 60.0203 20.1017 60.1827 20.0712C60.3452 20.0408 60.3553 20.1626 60.3553 21.4925C60.3553 22.2946 60.3858 23.0458 60.4162 23.1575C60.4568 23.32 60.4162 23.391 60.2639 23.4316C60.0609 23.4824 60.0507 23.5433 60.0507 25.1169C60.0507 26.6804 60.0406 26.7514 59.8477 26.7514C59.6548 26.7514 59.6447 26.6804 59.6447 25.0763Z" fill="#A7302F"/>
<path d="M62.9949 21.726C62.9949 20.3047 63.0152 20.0509 63.1472 20.0509C63.2284 20.0509 63.2994 19.9798 63.2994 19.8986C63.2994 19.8174 63.3908 19.7463 63.5025 19.7463C63.6142 19.7463 63.7055 19.8174 63.7055 19.8986C63.7055 19.9798 63.6345 20.0509 63.5532 20.0509C63.4213 20.0509 63.401 20.3047 63.401 21.726C63.401 23.3301 63.3908 23.4012 63.1979 23.4012C63.005 23.4012 62.9949 23.3301 62.9949 21.726Z" fill="#A7302F"/>
<path d="M73.269 20.5586C73.269 20.3657 73.2893 20.2845 73.3198 20.386C73.3401 20.4774 73.3401 20.6398 73.3198 20.7413C73.2893 20.8327 73.269 20.7515 73.269 20.5586Z" fill="#A7302F"/>
<path d="M19.7462 16.7513V16.396H24.8731C29.3604 16.396 30 16.4163 30 16.5483C30 16.6295 30.0711 16.7006 30.1523 16.7006C30.2335 16.7006 30.3046 16.7919 30.3046 16.9036C30.3046 17.0153 30.2335 17.1067 30.1523 17.1067C30.0711 17.1067 30 17.0356 30 16.9544C30 16.8224 29.3807 16.8021 25.0254 16.8021C20.6701 16.8021 20.0508 16.8224 20.0508 16.9544C20.0508 17.0356 19.9797 17.1067 19.8985 17.1067C19.797 17.1067 19.7462 16.995 19.7462 16.7513Z" fill="#A7302F"/>
<path d="M69.6954 16.9036C69.6954 16.7919 69.7665 16.7006 69.8477 16.7006C69.9289 16.7006 70 16.6295 70 16.5483C70 16.4163 70.6396 16.396 75.1269 16.396H80.2538V16.7513C80.2538 16.995 80.203 17.1067 80.1015 17.1067C80.0203 17.1067 79.9492 17.0356 79.9492 16.9544C79.9492 16.8224 79.33 16.8021 74.9746 16.8021C70.6193 16.8021 70 16.8224 70 16.9544C70 17.0356 69.9289 17.1067 69.8477 17.1067C69.7665 17.1067 69.6954 17.0153 69.6954 16.9036Z" fill="#A7302F"/>
<path d="M16.7208 13.5838C16.7512 13.4112 17.1472 13.401 23.2487 13.3909C26.8223 13.3909 29.8071 13.401 29.8781 13.4315C29.939 13.4518 30 13.533 30 13.6142C30 13.736 28.9644 13.7564 23.3401 13.7564C17.0558 13.7564 16.6903 13.7462 16.7208 13.5838Z" fill="#A7302F"/>
<path d="M70.0202 13.5839C70.0507 13.4214 70.1725 13.4011 70.9136 13.4011C71.9492 13.4011 72.1319 13.4316 72.1319 13.6143C72.1319 13.726 71.9086 13.7565 71.0558 13.7565C70.0913 13.7565 69.9898 13.7361 70.0202 13.5839Z" fill="#A7302F"/>
<path d="M72.2335 13.6041C72.2335 13.5229 72.2944 13.4518 72.3655 13.4416C72.4264 13.4315 74.9239 13.4112 77.8985 13.3909C83.2284 13.3503 83.2995 13.3604 83.2995 13.5533C83.2995 13.7564 83.2183 13.7564 77.7665 13.7564C72.9137 13.7564 72.2335 13.7361 72.2335 13.6041Z" fill="#A7302F"/>
<path d="M38.731 83.5024C38.731 83.2994 38.802 83.2994 51.0152 83.2994H63.2995L63.3198 81.6547C63.3502 80.0608 63.3604 79.9999 63.5533 80.0304C63.665 80.0507 63.7563 80.0811 63.7563 80.0811C63.7563 80.0913 63.7462 80.8222 63.7259 81.7055C63.6954 83.1979 63.6751 83.2994 63.4924 83.2994C63.3706 83.2994 63.2995 83.3705 63.2995 83.5024C63.2995 83.7055 63.2284 83.7055 51.0152 83.7055C38.802 83.7055 38.731 83.7055 38.731 83.5024Z" fill="#090000"/>
<path d="M69.4924 80.2132C69.4924 80.0711 69.8376 79.9289 69.9391 80.0305C70.0914 80.1726 69.9797 80.3553 69.7462 80.3553C69.594 80.3553 69.4924 80.2944 69.4924 80.2132Z" fill="#090000"/>
<path d="M20.1116 79.9696C19.9594 79.8275 20.071 79.6448 20.3045 79.6448C20.6091 79.6448 20.6497 79.8986 20.3655 79.9798C20.2538 80.0103 20.1421 80.0001 20.1116 79.9696Z" fill="#090000"/>
<path d="M70 79.7971C70 79.7158 70.0508 79.6448 70.1015 79.6448C70.1624 79.6448 70.203 79.7158 70.203 79.7971C70.203 79.8783 70.1624 79.9493 70.1015 79.9493C70.0508 79.9493 70 79.8783 70 79.7971Z" fill="#090000"/>
<path d="M79.6447 76.8022C79.6447 76.7514 79.7157 76.7007 79.7969 76.7007C79.8782 76.7007 79.9492 76.7514 79.9492 76.8022C79.9492 76.8631 79.8782 76.9037 79.7969 76.9037C79.7157 76.9037 79.6447 76.8631 79.6447 76.8022Z" fill="#090000"/>
<path d="M16.7715 76.6294C16.6192 76.4771 16.7005 76.1929 16.9035 76.1929C17.0558 76.1929 17.1066 76.2639 17.1066 76.4467C17.1066 76.6903 16.9238 76.7919 16.7715 76.6294Z" fill="#090000"/>
<path d="M80.0203 76.6294C79.9797 76.599 79.9492 75.0863 79.9492 73.2792C79.9492 70.0711 79.9492 70 80.1523 70C80.3553 70 80.3553 70.0711 80.3553 73.3503C80.3553 76.0711 80.335 76.7005 80.2233 76.7005C80.1421 76.7005 80.0507 76.6701 80.0203 76.6294Z" fill="#090000"/>
<path d="M16.7005 73.5027C16.7005 73.4113 16.6091 73.3504 16.4467 73.3504C16.2639 73.3504 16.1929 73.2997 16.1929 73.1474C16.1929 72.9748 16.2639 72.9443 16.599 72.9443C16.9949 72.9443 17.0051 72.9545 17.0051 73.2997C17.0051 73.5433 16.9543 73.655 16.8528 73.655C16.7716 73.655 16.7005 73.5839 16.7005 73.5027Z" fill="#090000"/>
<path d="M82.9949 73.2997V72.9443H83.8578C84.6497 72.9443 84.7208 72.9646 84.7208 73.1474C84.7208 73.3301 84.6497 73.3504 84.0101 73.3504C83.4416 73.3504 83.2994 73.3809 83.2994 73.5027C83.2994 73.5839 83.2284 73.655 83.1472 73.655C83.0456 73.655 82.9949 73.5433 82.9949 73.2997Z" fill="#090000"/>
<path d="M13.7563 73.1474C13.7563 72.9545 13.8274 72.9443 14.9239 72.9443C16.0203 72.9443 16.0914 72.9545 16.0914 73.1474C16.0914 73.3403 16.0203 73.3504 14.9239 73.3504C13.8274 73.3504 13.7563 73.3403 13.7563 73.1474Z" fill="#090000"/>
<path d="M84.8224 73.1474C84.8224 72.9849 84.8935 72.9443 85.1777 72.9443C85.462 72.9443 85.533 72.9849 85.533 73.1474C85.533 73.3098 85.462 73.3504 85.1777 73.3504C84.8935 73.3504 84.8224 73.3098 84.8224 73.1474Z" fill="#090000"/>
<path d="M89.5939 65.0254C89.5939 60.1218 89.5939 60.0508 89.7969 60.0508C90 60.0508 90 60.1218 90 65.0254C90 69.929 90 70 89.7969 70C89.5939 70 89.5939 69.929 89.5939 65.0254Z" fill="#090000"/>
<path d="M45.0254 66.8528C45.0254 66.6599 45.0965 66.6498 46.7005 66.6498C48.1218 66.6498 48.3756 66.6295 48.3756 66.4975C48.3756 66.4163 48.4467 66.3452 48.5279 66.3452C48.6295 66.3452 48.6802 66.4569 48.6802 66.7005V67.0559H46.8528C45.0965 67.0559 45.0254 67.0457 45.0254 66.8528Z" fill="#090000"/>
<path d="M51.3198 66.6498C51.3198 66.2133 51.5533 66.0711 51.6548 66.4468C51.7056 66.6397 51.797 66.6498 53.3401 66.6498C54.9036 66.6498 54.9746 66.66 54.9746 66.8529C54.9746 67.0458 54.9036 67.0559 53.1472 67.0559H51.3198V66.6498Z" fill="#090000"/>
<path d="M51.3198 63.6043V62.9951H51.8782C52.3046 62.9951 52.4366 63.0256 52.4366 63.1474C52.4366 63.2286 52.3554 63.3098 52.264 63.3098C52.1625 63.32 52.0406 63.3301 51.9797 63.3504C51.929 63.3606 51.8173 63.3809 51.7462 63.3809C51.6752 63.3911 51.6142 63.5027 51.6244 63.6347C51.665 64.0611 51.6244 64.2134 51.4721 64.2134C51.3503 64.2134 51.3198 64.0814 51.3198 63.6043Z" fill="#090000"/>
<path d="M30.0406 63.3096C30.0203 63.2893 30 62.5381 30 61.6548V60.0508H29.1878H28.3756V56.7005V53.3503H29.1878H30L30.0203 51.7056L30.0507 50.0508L34.1929 50.0203C38.2741 50 38.3248 50 38.3248 50.203C38.3248 50.4061 38.2639 50.4061 34.3655 50.4061H30.4061V51.7259V53.0457H31.9695C33.269 53.0457 33.5431 53.0761 33.5939 53.198C33.6243 53.2893 33.5939 53.3503 33.5025 53.3503C33.3705 53.3503 33.3502 53.7157 33.3502 55.8376V58.3249H35.8375H38.3248V55.8376C38.3248 53.6954 38.3045 53.3503 38.1726 53.3503C38.0913 53.3503 38.0203 53.2792 38.0203 53.198C38.0203 53.1168 38.0913 53.0457 38.1726 53.0457C38.2538 53.0457 38.3248 53.1168 38.3248 53.198C38.3248 53.3299 38.5787 53.3503 40 53.3503H41.6751V56.7005V60.0508H39.1878H36.7005V61.6751V63.2893L33.3908 63.3198C31.5736 63.3401 30.0609 63.33 30.0406 63.3096Z" fill="#090000"/>
<path d="M46.7208 63.3401C46.6802 63.2995 46.6498 62.5381 46.6498 61.6548V60.0508H46.8833H47.1168L47.0762 61.5229C47.0457 62.5685 47.066 62.9949 47.1472 62.9949C47.2082 62.9949 47.2589 63.066 47.2589 63.1472C47.2589 63.2284 47.2183 63.2995 47.1675 63.2995C47.1168 63.2995 47.0051 63.3198 46.934 63.3503C46.8528 63.3807 46.7615 63.3706 46.7208 63.3401Z" fill="#090000"/>
<path d="M52.9238 63.3301C52.6091 63.2489 52.7106 62.9951 53.0558 62.9951C53.2893 62.9951 53.3604 63.0357 53.3299 63.1677C53.2995 63.3504 53.1777 63.4012 52.9238 63.3301Z" fill="#090000"/>
<path d="M63.3401 63.3096C63.3198 63.2893 63.2994 62.538 63.2994 61.6649V60.0507L60.8426 60.0304L58.3756 60L58.3451 56.6802L58.3248 53.3604L60.0203 53.3299L61.7258 53.2995L61.6954 55.8172L61.6649 58.3248H64.1624H66.6497V55.8375C66.6497 53.6954 66.6294 53.3502 66.4974 53.3502C66.4162 53.3502 66.3451 53.2792 66.3451 53.1979C66.3451 53.066 66.6192 53.0457 68.1725 53.0457C69.7258 53.0457 70 53.066 70 53.1979C70 53.3198 70.1624 53.3502 70.8121 53.3502H71.6243V56.7005V60.0507H70.8121H70V61.6751V63.2893L66.6903 63.3198C64.8731 63.3401 63.3604 63.3299 63.3401 63.3096Z" fill="#090000"/>
<path d="M13.0457 60.2132C13.0457 60.1422 13.1269 60.0508 13.2385 60.0203C13.3807 59.9899 13.4111 59.9087 13.3807 59.7056C13.3401 59.4924 13.3604 59.4417 13.5431 59.4417C13.6548 59.4417 13.7563 59.4924 13.7563 59.5432C13.7563 59.6041 14.3147 59.6447 15.2284 59.6447C16.6294 59.6447 16.7005 59.6548 16.7005 59.8477C16.7005 60.0406 16.6294 60.0508 15.0253 60.0508C13.604 60.0508 13.3502 60.0711 13.3502 60.2031C13.3502 60.2843 13.2792 60.3554 13.1979 60.3554C13.1167 60.3554 13.0457 60.2944 13.0457 60.2132Z" fill="#090000"/>
<path d="M86.6497 60.2031C86.6497 60.0813 86.3756 60.0508 85.0051 60.0305L83.3502 60.0001L83.3198 58.3554L83.2995 56.7006L81.6447 56.6803L80 56.6498L79.9695 36.6803C79.9492 19.0153 79.9289 16.7006 79.7969 16.7006C79.7157 16.7006 79.6447 16.6295 79.6447 16.5483C79.6447 16.4468 79.7563 16.396 80 16.396H80.3553V36.3452V56.2945H81.8274C83.2284 56.2945 83.2995 56.3046 83.2995 56.4975C83.2995 56.6295 83.3705 56.7006 83.5025 56.7006C83.6954 56.7006 83.7056 56.7716 83.7056 58.1828V59.6752L85.1776 59.6244L86.6497 59.5838V59.8173C86.6497 59.9595 86.7106 60.0508 86.802 60.0508C86.8832 60.0508 86.9543 60.1219 86.9543 60.2031C86.9543 60.2843 86.8832 60.3554 86.802 60.3554C86.7208 60.3554 86.6497 60.2843 86.6497 60.2031Z" fill="#090000"/>
<path d="M16.2944 56.9035C16.2944 56.7715 16.3655 56.7004 16.4975 56.7004C16.6599 56.7004 16.7005 56.6294 16.7005 56.3959C16.7005 56.1624 16.7411 56.0913 16.9036 56.0913C17.0152 56.0913 17.1066 56.1421 17.1066 56.1928C17.1066 56.2537 17.665 56.2944 18.5787 56.2944C19.9797 56.2944 20.0508 56.3045 20.0508 56.4974C20.0508 56.6903 19.9797 56.7004 18.3757 56.7004C16.7716 56.7004 16.7005 56.7106 16.7005 56.9035C16.7005 57.0355 16.6295 57.1065 16.4975 57.1065C16.3655 57.1065 16.2944 57.0355 16.2944 56.9035Z" fill="#090000"/>
<path d="M61.6752 50.203C61.6752 50 61.7462 50 65.8376 50C69.929 50 70 50 70 50.203C70 50.4061 69.929 50.4061 65.8376 50.4061C61.7462 50.4061 61.6752 50.4061 61.6752 50.203Z" fill="#090000"/>
<path d="M40.0508 43.1982C40.0508 43.0053 40.1218 42.9951 41.6751 42.9951C43.2284 42.9951 43.2995 43.0053 43.2995 43.1982C43.2995 43.3911 43.2284 43.4012 41.6751 43.4012C40.1218 43.4012 40.0508 43.3911 40.0508 43.1982Z" fill="#090000"/>
<path d="M56.7006 43.1982C56.7006 43.0053 56.7716 42.9951 58.3249 42.9951C59.8782 42.9951 59.9493 43.0053 59.9493 43.1982C59.9493 43.3911 59.8782 43.4012 58.3249 43.4012C56.7716 43.4012 56.7006 43.3911 56.7006 43.1982Z" fill="#090000"/>
<path d="M40.0508 40.2032C40.0508 40.0712 39.797 40.0509 38.3757 40.0509C36.7716 40.0509 36.7006 40.0408 36.7006 39.8479C36.7006 39.655 36.7716 39.6448 38.1726 39.6448H39.6447V38.1728C39.6447 36.7717 39.6549 36.7007 39.8478 36.7007C40.0407 36.7007 40.0508 36.7717 40.0508 38.3758C40.0508 39.7971 40.0711 40.0509 40.2031 40.0509C40.2843 40.0509 40.3554 40.122 40.3554 40.2032C40.3554 40.2844 40.2843 40.3555 40.2031 40.3555C40.1219 40.3555 40.0508 40.2844 40.0508 40.2032Z" fill="#090000"/>
<path d="M59.7462 40.2031C59.7462 40.1218 59.797 40.0508 59.8477 40.0508C59.9087 40.0508 59.9493 40.1218 59.9493 40.2031C59.9493 40.2843 59.9087 40.3553 59.8477 40.3553C59.797 40.3553 59.7462 40.2843 59.7462 40.2031Z" fill="#090000"/>
<path d="M60.0508 39.8478C60.0508 39.6549 60.1218 39.6448 61.6751 39.6448C63.2284 39.6448 63.2995 39.6549 63.2995 39.8478C63.2995 40.0407 63.2284 40.0509 61.6751 40.0509C60.1218 40.0509 60.0508 40.0407 60.0508 39.8478Z" fill="#090000"/>
<path d="M40.0508 26.5482C40.0508 26.3452 40.1422 26.3452 49.9797 26.3249C55.4315 26.3046 59.9087 26.2944 59.9188 26.2944C59.9188 26.2944 59.9493 26.3858 59.9696 26.4975C60 26.7005 59.9391 26.7005 50.0305 26.731C40.1218 26.7513 40.0508 26.7513 40.0508 26.5482Z" fill="#090000"/>
<path d="M40.0507 23.6041C40.0507 23.4721 39.9797 23.401 39.8477 23.401C39.6548 23.401 39.6447 23.33 39.6447 21.7259C39.6447 20.1218 39.6548 20.0508 39.8477 20.0508C40.0406 20.0508 40.0507 20.1218 40.0507 21.7259C40.0507 23.33 40.0609 23.401 40.2538 23.401C40.3858 23.401 40.4568 23.4721 40.4568 23.6041C40.4568 23.7361 40.3858 23.8071 40.2538 23.8071C40.1218 23.8071 40.0507 23.7361 40.0507 23.6041Z" fill="#090000"/>
<path d="M59.6447 23.604C59.6447 23.4721 59.7157 23.401 59.8477 23.401C59.9594 23.401 60.0507 23.3299 60.0507 23.2487C60.0507 23.1675 60.1218 23.0964 60.203 23.0964C60.4264 23.0964 60.3858 23.3705 60.1523 23.4315C60.0406 23.4619 59.9492 23.5533 59.9492 23.6447C59.9492 23.736 59.8782 23.8071 59.7969 23.8071C59.7157 23.8071 59.6447 23.7157 59.6447 23.604Z" fill="#090000"/>
<path d="M63.1776 20.0813C63.2487 20.0509 63.2995 19.8478 63.2995 19.5331C63.2995 19.1067 63.3299 19.0356 63.5025 19.0356C63.6751 19.0356 63.7056 19.1067 63.7056 19.5433C63.7056 19.8783 63.6649 20.0509 63.5837 20.0509C63.5127 20.0509 63.3604 20.0712 63.2487 20.0915C63.137 20.1118 63.1066 20.1016 63.1776 20.0813Z" fill="#090000"/>
<path d="M30 18.3757C30 16.9544 29.9797 16.7006 29.8477 16.7006C29.7665 16.7006 29.6954 16.6295 29.6954 16.5483C29.6954 16.4671 29.7665 16.396 29.8477 16.396C29.9289 16.396 30 16.4671 30 16.5483C30 16.6498 30.1015 16.7006 30.3147 16.7006C30.6294 16.7006 30.6294 16.7107 30.5482 17.0356C30.4975 17.2082 30.4569 17.9696 30.4569 18.7107C30.4569 20.0407 30.4569 20.0508 30.2335 20.0508C30 20.0508 30 20.0508 30 18.3757Z" fill="#090000"/>
<path d="M63.3198 17.0357C63.3401 16.8123 63.4112 16.7412 63.6345 16.7209C63.9492 16.6803 64.0102 16.9138 63.7665 17.1676C63.5127 17.4113 63.2792 17.3504 63.3198 17.0357Z" fill="#090000"/>
<path d="M30.8121 16.9037C30.8121 16.7413 30.8832 16.7007 31.1675 16.7007C31.4517 16.7007 31.5228 16.7413 31.5228 16.9037C31.5228 17.0662 31.4517 17.1068 31.1675 17.1068C30.8832 17.1068 30.8121 17.0662 30.8121 16.9037Z" fill="#090000"/>
<path d="M32.8427 16.9037C32.8427 16.7108 32.9137 16.7007 34.0102 16.7007C35.1066 16.7007 35.1777 16.7108 35.1777 16.9037C35.1777 17.0966 35.1066 17.1068 34.0102 17.1068C32.9137 17.1068 32.8427 17.0966 32.8427 16.9037Z" fill="#090000"/>
<path d="M35.2792 16.9037C35.2792 16.7413 35.3502 16.7007 35.6345 16.7007C35.9188 16.7007 35.9898 16.7413 35.9898 16.9037C35.9898 17.0662 35.9188 17.1068 35.6345 17.1068C35.3502 17.1068 35.2792 17.0662 35.2792 16.9037Z" fill="#090000"/>
<path d="M66.9543 16.9037C66.9543 16.7413 67.0254 16.7007 67.3097 16.7007C67.5939 16.7007 67.665 16.7413 67.665 16.9037C67.665 17.0662 67.5939 17.1068 67.3097 17.1068C67.0254 17.1068 66.9543 17.0662 66.9543 16.9037Z" fill="#090000"/>
<path d="M67.7665 16.9037C67.7665 16.7108 67.8375 16.7007 68.7309 16.7007C69.6243 16.7007 69.6954 16.7108 69.6954 16.9037C69.6954 17.0966 69.6243 17.1068 68.7309 17.1068C67.8375 17.1068 67.7665 17.0966 67.7665 16.9037Z" fill="#090000"/>
<path d="M16.7006 13.6549C16.7006 13.523 16.7716 13.4519 16.9036 13.4519C17.0356 13.4519 17.1067 13.523 17.1067 13.6549C17.1067 13.7869 17.0356 13.858 16.9036 13.858C16.7716 13.858 16.7006 13.7869 16.7006 13.6549Z" fill="#090000"/>
<path d="M36.7005 84.9746V83.2995H33.3503H30V81.6751V80.0507H33.2487C35.0355 80.0507 36.5279 80.0406 36.5787 80.0304C36.6193 80.0101 36.6599 80.7411 36.6802 81.6548L36.7005 83.2995L37.8477 83.3096C38.467 83.3198 44.4467 83.3299 51.1168 83.3401L63.2487 83.3604L63.2792 85.0051L63.2995 86.6497H50H36.7005V84.9746Z" fill="#010000"/>
<path d="M63.3807 83.0762C63.3604 82.9442 63.3502 82.2234 63.3502 81.4721V80.1015L66.6802 80.0711L70 80.0508V81.6751V83.2995H66.7106H63.4213L63.3807 83.0762Z" fill="#010000"/>
<path d="M74.9036 79.9697L70 79.9494V78.325V76.7007H74.9746H79.9492V78.3149C79.9492 79.2083 79.9188 79.9494 79.8782 79.9697C79.8274 79.99 77.5939 79.99 74.9036 79.9697Z" fill="#010000"/>
<path d="M20.0508 78.3249V76.7005H18.4366C17.0559 76.7005 16.8122 76.6802 16.7615 76.5381C16.731 76.4467 16.7005 75.6853 16.7005 74.8427V73.2995H15.0559H13.4011L13.3706 71.6548L13.3503 70H11.7259H10.1016V65.0254V60.0508H11.7259H13.3503V65.0254V70H16.7005H20.0508V73.3503V76.7005H25.0254H30V78.3249V79.9493H25.0254H20.0508V78.3249Z" fill="#010000"/>
<path d="M80.0508 76.5279C80.0508 76.4264 80.0406 74.9137 80.0305 73.1675L80 70H83.3299H86.6497V65.0254V60.0508H88.264C89.7157 60.0508 89.8883 60.0711 89.9391 60.2335C89.9695 60.3249 89.9695 61.0457 89.9492 61.8274C89.9289 62.6092 89.9086 64.7716 89.9086 66.6295L89.8985 70H88.2741H86.6497V71.6751V73.3503L84.9746 73.33L83.2995 73.2995V75.0051V76.7005H81.6751C80.1929 76.7005 80.0508 76.6802 80.0508 76.5279Z" fill="#010000"/>
<path d="M45.0457 68.3655L45.0762 66.731L46.731 66.7411L48.3756 66.7614V65.0254V63.2995H47.5635H46.7513V61.8376C46.7513 61.0356 46.7817 60.3046 46.8122 60.2132C46.863 60.0711 47.2487 60.0508 50.1117 60.0508H53.3503V61.6751V63.2995H52.4873H51.6244V65.0254V66.7513H53.2995H54.9746V68.3757V70H50H45.0254L45.0457 68.3655Z" fill="#010000"/>
<path d="M30.1117 63.1271C30.1117 63.0154 30.1421 62.9951 30.1726 63.0763C30.2132 63.1778 30.8832 63.1981 33.2386 63.1981C35.9898 63.188 36.5279 63.1474 36.5076 62.9545C36.4974 62.924 36.5279 62.8936 36.5787 62.8936C36.6193 62.8936 36.6497 62.9748 36.6497 63.0763C36.6497 63.2387 36.4162 63.2489 33.3807 63.2793C30.3046 63.2996 30.1015 63.2895 30.1117 63.1271Z" fill="#010000"/>
<path d="M63.4111 63.1271C63.4111 63.0155 63.4416 62.9952 63.472 63.0764C63.5532 63.2794 69.4822 63.249 69.7766 63.0459C69.9593 62.9139 69.9796 62.9139 69.9593 63.0764C69.9289 63.2388 69.6852 63.249 66.67 63.2794C63.604 63.2997 63.4009 63.2896 63.4111 63.1271Z" fill="#010000"/>
<path d="M13.4111 59.787C13.3807 59.6956 13.3502 58.9646 13.3502 58.1626V56.7007L15.005 56.721L16.6497 56.7514L16.6802 58.3555L16.7106 59.9494H15.0863C13.7055 59.9494 13.4619 59.9291 13.4111 59.787Z" fill="#010000"/>
<path d="M40.9442 59.8783C41.066 59.858 41.2487 59.858 41.3503 59.8783C41.4416 59.9087 41.3401 59.929 41.1168 59.9189C40.8934 59.9189 40.8122 59.8986 40.9442 59.8783Z" fill="#010000"/>
<path d="M41.5939 56.7819L41.5736 53.5534L40.1319 53.5433C39.3299 53.5331 38.6396 53.5331 38.599 53.5433C38.5482 53.5534 38.538 53.5128 38.5786 53.4519C38.6802 53.2895 41.5634 53.3199 41.6243 53.4824C41.6548 53.5534 41.6649 55.0458 41.6446 56.8022L41.6243 60.0001L41.5939 56.7819Z" fill="#010000"/>
<path d="M83.401 58.325V56.7007H85.0254H86.6497V58.3149V59.9291L85.0254 59.9393L83.401 59.9596V58.325Z" fill="#010000"/>
<path d="M61.6142 58.4873C61.5025 58.3553 61.4924 58.1726 61.4822 55.6142L61.4721 53.5533H59.9492C59.0051 53.5533 58.4264 53.5127 58.4264 53.4518C58.4264 53.3909 59.0355 53.3503 60.0508 53.3503H61.6751V51.7259V50.1015H65.736C67.9695 50.1015 69.8274 50.0914 69.8782 50.0812C69.9188 50.0609 69.9594 50.7919 69.9797 51.7056L70 53.3503H70.8122H71.6244L71.6041 53.7868C71.5939 54.1523 71.5838 54.1726 71.5533 53.8883L71.5127 53.5533H70.7614C70.3452 53.5533 69.9797 53.5127 69.9492 53.4518C69.8579 53.2995 66.9543 53.3198 66.9543 53.4721C66.9543 53.5635 66.9239 53.5635 66.8325 53.4721C66.7411 53.3807 66.0203 53.3503 64.1929 53.3503H61.6751V55.8782V58.4162L61.9594 58.4467L62.2335 58.4772L61.9695 58.5381C61.8274 58.5685 61.6751 58.5482 61.6142 58.4873Z" fill="#010000"/>
<path d="M33.736 58.4569C33.9187 58.4366 34.1929 58.4366 34.3451 58.4569C34.4974 58.4772 34.3451 58.4975 34.0101 58.4975C33.6751 58.4975 33.5533 58.4772 33.736 58.4569Z" fill="#010000"/>
<path d="M35.665 58.4569C35.7868 58.4366 35.9696 58.4366 36.0711 58.4569C36.1625 58.4873 36.0609 58.5076 35.8376 58.4975C35.6142 58.4975 35.533 58.4772 35.665 58.4569Z" fill="#010000"/>
<path d="M64.0914 58.4569C64.2132 58.4366 64.396 58.4366 64.4975 58.4569C64.5889 58.4873 64.4873 58.5076 64.264 58.4975C64.0406 58.4975 63.9594 58.4772 64.0914 58.4569Z" fill="#010000"/>
<path d="M28.4061 57.7667C28.4061 57.5433 28.4264 57.4621 28.4467 57.5941C28.467 57.7159 28.467 57.8987 28.4467 58.0002C28.4162 58.0915 28.3959 57.99 28.4061 57.7667Z" fill="#010000"/>
<path d="M16.7513 56.3758C16.7208 56.2438 16.7107 46.5484 16.7208 34.8225L16.7513 13.5027L23.3807 13.4722L30 13.4519V15.0763V16.7006H25.0254H20.0508V36.6499V56.5991H18.4264C16.8325 56.5991 16.8021 56.5991 16.7513 56.3758Z" fill="#010000"/>
<path d="M80.0406 38.5585C80.0406 28.6295 80.0406 19.6549 80.0508 18.5991L80.0609 16.7006H75.0356H70V18.3757V20.0509H66.6498H63.2995V21.726V23.4011H61.6751H60.0609L60.0305 21.7666C60.0102 20.8732 60.0203 20.1118 60.0406 20.0915C60.0609 20.0712 60.8122 20.0509 61.6955 20.0509C62.9036 20.0509 63.2995 20.0204 63.3097 19.929C63.3097 19.858 63.3198 19.1168 63.33 18.2742L63.3503 16.7514L66.3452 16.7311C67.9899 16.7209 69.4924 16.7108 69.665 16.7108L70 16.7006L70.0203 15.0458C70.0406 14.1422 70.0812 13.4113 70.132 13.4316C70.1726 13.4417 73.1472 13.4519 76.7513 13.4519H83.2995V35.0255V56.5991H81.6751H80.0508L80.0406 38.5585Z" fill="#010000"/>
<path d="M28.4061 55.3301C28.4061 55.1068 28.4264 55.0256 28.4467 55.1576C28.467 55.2794 28.467 55.4621 28.4467 55.5637C28.4162 55.655 28.3959 55.5535 28.4061 55.3301Z" fill="#010000"/>
<path d="M58.4569 54.1116C58.4569 53.8883 58.4772 53.8071 58.4975 53.9391C58.5178 54.0609 58.5178 54.2436 58.4975 54.3451C58.467 54.4365 58.4467 54.335 58.4569 54.1116Z" fill="#010000"/>
<path d="M28.4061 53.5026C28.4264 53.4518 28.8122 53.3909 29.269 53.3706L30.1015 53.3401V51.7259V50.1016H34.2132H38.3248V51.7259V53.3503H35.8477C33.9594 53.3503 33.3502 53.3808 33.3198 53.4823C33.2792 53.5838 33.2589 53.5838 33.2589 53.4823C33.2487 53.3198 30.203 53.2894 30.0507 53.4417C29.9086 53.5736 28.3655 53.6346 28.4061 53.5026Z" fill="#010000"/>
<path d="M40.0508 41.6751V40.0508H41.6751H43.2995V41.6751V43.2995H41.6751H40.0508V41.6751Z" fill="#010000"/>
<path d="M56.7006 41.6751V40.0508H58.3249H59.9493V41.6751V43.2995H58.3249H56.7006V41.6751Z" fill="#010000"/>
<path d="M36.7412 39.9596C36.7209 39.9393 36.7006 39.188 36.7006 38.3047V36.7007H38.3046C39.1879 36.7007 39.9391 36.721 39.9594 36.7413C39.9797 36.7616 39.9797 37.5027 39.9493 38.3758L39.8985 39.9697L38.3452 39.99C37.4823 39.99 36.7615 39.9799 36.7412 39.9596Z" fill="#010000"/>
<path d="M61.5533 39.9697L60.0508 39.9393V38.325V36.7007H61.6751H63.2995L63.2792 38.3454C63.2589 39.3403 63.2081 39.99 63.1472 39.99C63.0965 40.0002 62.3757 39.99 61.5533 39.9697Z" fill="#010000"/>
<path d="M41.797 26.6702L40.0406 26.6499L40.0711 25.0458L40.1016 23.4519L50.0305 23.4214L59.9493 23.4011V25.0255V26.6499L51.7564 26.6702C47.2386 26.6905 42.7615 26.6905 41.797 26.6702Z" fill="#010000"/>
<path d="M36.7005 21.7259V20.0508H33.4112H30.1218L30.1117 18.6498C30.1015 17.8782 30.1421 17.1269 30.1929 16.9747L30.2944 16.7107L33.5025 16.7208H36.7005V18.3858V20.0508H38.3553H40.0102L39.9898 21.5533C39.9797 22.3757 39.9695 23.1269 39.9594 23.2285C39.9492 23.3807 39.797 23.401 38.3249 23.401H36.7005V21.7259Z" fill="#010000"/>
</svg>
