<svg width="100" height="100" viewBox="0 0 100 100" fill="none" xmlns="http://www.w3.org/2000/svg">
<path d="M47.7545 83.6815V81.4361H56.1619H64.5692V77.2325V73.0288H66.6841H68.7989V64.752V56.4753H64.5953H60.3916V54.3604V52.2455H58.2767H56.1619V50.1567V48.068H54.0835H52L51.9686 45.6293C51.9478 44.2925 51.9321 40.4962 51.9321 37.1959V31.2011H49.8433H47.7545V29.1176C47.7545 27.269 47.7441 27.0288 47.671 27.0027C47.624 26.987 46.6736 26.9713 45.5561 26.9713H43.5248L43.5352 24.7416L43.5509 22.5066H45.7963H48.0418L48.0574 24.611L48.0679 26.7102H50.1566H52.2454V28.799V30.8878L54.3499 30.8982L56.4491 30.9139L56.4647 37.222L56.4752 43.5249H58.5117C60.2872 43.5249 60.5483 43.5353 60.5483 43.6032C60.5483 43.645 60.5848 43.6815 60.6266 43.6815C60.6945 43.6815 60.7049 43.9426 60.7049 45.7181V47.7546H62.6893C64.6057 47.7546 64.6788 47.7599 64.7781 47.8591C64.8773 47.9583 64.8825 48.0314 64.8825 49.9479V51.9322L65.1854 51.9374C65.3472 51.9374 66.2663 51.9374 67.2219 51.9374C68.7363 51.9322 68.9556 51.9426 68.9556 52.0105C68.9556 52.0523 68.9922 52.0888 69.0339 52.0888C69.1018 52.0888 69.1123 52.3499 69.1123 54.1254V56.162H71.1488C72.9243 56.162 73.1854 56.1724 73.1854 56.2403C73.1854 56.2821 73.2219 56.3186 73.2637 56.3186C73.3316 56.3186 73.342 57.2899 73.342 64.752C73.342 72.2142 73.3316 73.1855 73.2637 73.1855C73.2219 73.1855 73.1854 73.2116 73.1854 73.2377C73.1854 73.269 72.47 73.2899 71.1488 73.2899H69.1123V77.4413C69.1123 81.0967 69.1018 81.5928 69.0339 81.5928C68.9922 81.5928 68.9556 81.6293 68.9556 81.6711C68.9556 81.739 68.6945 81.7494 66.919 81.7494H64.8825V83.786C64.8825 85.5614 64.872 85.8225 64.8042 85.8225C64.7624 85.8225 64.7258 85.8487 64.7258 85.8748C64.7258 85.9113 61.8642 85.927 56.2402 85.927H47.7545V83.6815Z" fill="#17E1FE"/>
<path d="M39.3263 81.6606C39.2898 81.5301 39.295 78.0523 39.3316 77.5875L39.3629 77.2063H41.5979H43.8381V79.4778V81.7494H41.5979C39.5039 81.7494 39.3524 81.7442 39.3263 81.6606Z" fill="#17E1FE"/>
<path d="M56.1619 73.1594V68.7991H58.4334H60.7049V73.1594V77.5197H58.4334H56.1619V73.1594Z" fill="#17E1FE"/>
<path d="M35.1175 66.9974V64.8825H33.0026H30.8877V62.6371V60.3917H33.1592H35.4308V62.4804V64.5692H37.3629H39.295L39.3002 62.7572C39.3055 61.7546 39.3055 59.8642 39.3055 58.5535L39.3002 56.1619H41.5718H43.8381V60.3656V64.5692H45.7963H47.7545V58.2507V51.9321H50H52.2454V55.0287C52.2454 56.7363 52.2611 59.6501 52.282 61.5039L52.3133 64.8825H50.1932H48.0679V66.9974V69.1123H41.5927H35.1175V66.9974Z" fill="#17E1FE"/>
<path d="M56.188 22.7312C56.1724 22.6946 56.1671 21.6763 56.1724 20.4701L56.188 18.2769H58.4335H60.6789V20.5223V22.7677L58.4439 22.7834C56.6841 22.7938 56.2037 22.7834 56.188 22.7312Z" fill="#17E1FE"/>
<path d="M43.577 20.5223V18.2508H45.6657H47.7545V16.162V14.0732H49.9999H52.2454V16.3187V18.5641H50.1305H48.0156V20.679C48.0156 22.5954 47.9947 22.9766 47.8903 22.7155C47.8642 22.6477 47.5979 22.6372 45.7858 22.6477C44.1566 22.6581 43.7127 22.679 43.7232 22.7312C43.7284 22.7625 43.6971 22.7939 43.6553 22.7939C43.5874 22.7939 43.577 22.5067 43.577 20.5223Z" fill="#DC6537"/>
<path d="M47.8903 22.7103C47.8746 22.6633 47.859 21.6764 47.859 20.5171V18.4074H45.7963H43.7336L43.7232 20.5589C43.7075 22.5641 43.7023 22.7155 43.6188 22.7312C43.53 22.7469 43.5248 22.6215 43.5248 20.6581V18.5641L41.4308 18.5537L39.3368 18.538L39.3315 16.3604C39.3211 14.6424 39.3368 14.1777 39.389 14.1777C39.4203 14.1777 39.4516 14.1568 39.4516 14.1255C39.4516 14.0889 40.9242 14.0732 43.7597 14.0732C47.5561 14.0732 48.0678 14.0837 48.0678 14.1516C48.0678 14.1933 48.0313 14.2299 47.9895 14.2299C47.9216 14.2299 47.9112 14.4962 47.9112 16.3187C47.9112 18.1411 47.9216 18.4074 47.9895 18.4074C48.0574 18.4074 48.0678 18.6842 48.0678 20.6007C48.0678 22.4388 48.0574 22.7939 47.9947 22.7939C47.953 22.7939 47.906 22.7573 47.8903 22.7103Z" fill="#C6513A"/>
<path d="M51.9321 18.4856C51.9321 18.4438 51.9686 18.4072 52.0104 18.4072C52.0783 18.4072 52.0887 18.1409 52.0887 16.3184V14.2297H51.9582C51.8642 14.2297 51.8276 14.2036 51.8276 14.1252C51.8276 14.0469 51.8642 14.0208 51.9791 14.0208C52.3185 14.0208 52.2976 13.8641 52.2976 16.3237V18.5639H52.1148C51.9895 18.5639 51.9321 18.5378 51.9321 18.4856Z" fill="#C6513A"/>
<path d="M47.7336 85.8957C47.7179 85.8487 47.7023 85.7443 47.7023 85.6607C47.7023 85.5458 47.7284 85.5093 47.8067 85.5093C47.885 85.5093 47.9111 85.5458 47.9111 85.6398V85.7704H56.3185C63.7545 85.7704 64.7258 85.7599 64.7258 85.692C64.7258 85.6503 64.7519 85.6137 64.778 85.6137C64.8093 85.6137 64.8302 85.6607 64.8302 85.7182C64.8302 85.7756 64.8093 85.8226 64.778 85.8226C64.7519 85.8226 64.7258 85.8591 64.7258 85.9009C64.7258 85.9688 63.7493 85.9793 56.2454 85.9793C48.5587 85.9793 47.7649 85.974 47.7336 85.8957Z" fill="#106FA9"/>
<path d="M31.0444 81.6605C31.0444 81.6239 31.0235 81.5926 30.9921 81.5926C30.9556 81.5926 30.9399 80.825 30.9399 79.3994V77.2062H33.0287H35.1175V74.167C35.1175 72.4908 35.1018 69.7284 35.0809 68.0312L35.0496 64.9346H32.966H30.8877V64.7519C30.8877 64.6265 30.9138 64.5691 30.966 64.5691C31.0078 64.5691 31.0444 64.6056 31.0444 64.6474C31.0444 64.7153 31.3159 64.7257 33.1592 64.7257C35.0026 64.7257 35.2741 64.7153 35.2741 64.6474C35.2741 64.6056 35.3107 64.5691 35.3524 64.5691C35.3942 64.5691 35.4308 64.6056 35.4308 64.6474C35.4308 64.6892 35.3942 64.7257 35.3524 64.7257C35.2846 64.7257 35.2741 64.9973 35.2741 66.8406V68.9555H37.4726H39.671L39.6553 73.1592C39.6397 76.4751 39.6188 77.3628 39.5718 77.3628C39.5248 77.3628 39.5039 77.4412 39.5039 77.5874C39.5039 77.7075 39.4934 78.6318 39.4882 79.6344C39.4778 80.6422 39.483 81.4934 39.4934 81.5299C39.5039 81.5613 39.5457 81.5926 39.5874 81.5926C39.6292 81.5926 39.6605 81.6292 39.6605 81.6709C39.6605 81.7231 39.6031 81.7493 39.4778 81.7493H39.295V79.6344V77.5195H37.4308C36.4021 77.5195 35.53 77.5404 35.4987 77.5613C35.4464 77.5926 35.4308 78.0939 35.4203 79.6553L35.4047 81.7075L33.2271 81.7127C31.5091 81.7231 31.0444 81.7075 31.0444 81.6605Z" fill="#106FA9"/>
<path d="M43.5248 81.6712C43.5248 81.6294 43.5613 81.5928 43.6031 81.5928C43.671 81.5928 43.6814 81.4832 43.6814 80.9401C43.6814 80.3239 43.6867 80.2874 43.7859 80.2874C43.8851 80.2874 43.8903 80.3239 43.8903 81.0184V81.7495H43.7075C43.5822 81.7495 43.5248 81.7234 43.5248 81.6712Z" fill="#106FA9"/>
<path d="M47.7546 81.5666V81.3838H56.2402C63.6971 81.3838 64.7259 81.3942 64.7259 81.4621C64.7259 81.5039 64.7833 81.5509 64.8564 81.5718C64.9295 81.5874 64.987 81.6344 64.987 81.6762C64.987 81.718 64.9347 81.7493 64.8564 81.7493C64.7729 81.7493 64.7259 81.718 64.7259 81.671C64.7259 81.6031 63.7546 81.5927 56.3186 81.5927C48.8825 81.5927 47.9112 81.6031 47.9112 81.671C47.9112 81.7128 47.8747 81.7493 47.8329 81.7493C47.7807 81.7493 47.7546 81.6919 47.7546 81.5666Z" fill="#106FA9"/>
<path d="M68.7467 81.671C68.7467 81.6292 68.7833 81.5927 68.8303 81.5927C68.8773 81.5927 68.9242 81.5457 68.9399 81.4882C68.9556 81.4308 69.0026 81.3838 69.0391 81.3838C69.0809 81.3838 69.1122 81.4308 69.1122 81.4882C69.1122 81.5457 69.0757 81.5927 69.0339 81.5927C68.9921 81.5927 68.9556 81.6292 68.9556 81.671C68.9556 81.7128 68.9086 81.7493 68.8511 81.7493C68.7937 81.7493 68.7467 81.7128 68.7467 81.671Z" fill="#106FA9"/>
<path d="M43.6814 78.7207C43.6814 77.5509 43.671 77.363 43.6031 77.363C43.5613 77.363 43.5248 77.3264 43.5248 77.2846C43.5248 77.2324 43.5822 77.2063 43.7075 77.2063H43.8903V78.6423C43.8903 80.0418 43.8903 80.0784 43.7859 80.0784C43.6867 80.0784 43.6814 80.0418 43.6814 78.7207Z" fill="#106FA9"/>
<path d="M51.9738 77.5353L47.7545 77.5196V73.2376C47.7545 69.4674 47.7649 68.9556 47.8328 68.9556C47.9007 68.9556 47.9111 68.6841 47.9111 66.8408C47.9111 64.7624 47.9111 64.7259 47.8067 64.7259C47.7388 64.7259 47.7023 64.6893 47.7023 64.6214C47.7023 64.5535 47.7388 64.517 47.8067 64.517C47.8746 64.517 47.9111 64.5535 47.9111 64.6214C47.9111 64.7259 47.9477 64.7259 50.0156 64.7259H52.1148V62.6528C52.0939 52.5953 52.0887 52.0888 52.0104 52.0888C51.9686 52.0888 51.932 52.0522 51.932 52.0105C51.932 51.9582 51.9895 51.9321 52.1148 51.9321H52.2976V56.1619V60.3917H54.2297H56.1618V58.2768V56.1619H58.355C60.2715 56.1619 60.5482 56.1723 60.5482 56.2402C60.5482 56.282 60.5848 56.3186 60.6266 56.3186C60.6944 56.3186 60.7049 57.0653 60.7049 62.7154C60.7049 68.3656 60.6944 69.1123 60.6266 69.1123C60.5848 69.1123 60.5482 69.0757 60.5482 69.034C60.5482 68.9661 60.2767 68.9556 58.4333 68.9556H56.3185V73.1593V77.363H58.4333C60.2767 77.363 60.5482 77.3525 60.5482 77.2846C60.5482 77.2428 60.5848 77.2063 60.6266 77.2063C60.6788 77.2063 60.7049 77.2637 60.7049 77.3891V77.5718L58.449 77.5614C57.2062 77.5509 54.2924 77.5405 51.9738 77.5353ZM56.1618 66.8408V64.8825L54.2192 64.893L52.2715 64.9086L52.2558 66.7885C52.2506 67.8225 52.2558 68.6998 52.2715 68.7311C52.2871 68.7833 52.7258 68.799 54.2297 68.799H56.1618V66.8408Z" fill="#106FA9"/>
<path d="M64.5692 73.1593V72.9766H66.7624C68.6789 72.9766 68.9556 72.987 68.9556 73.0549C68.9556 73.1228 69.2272 73.1332 71.0705 73.1332C72.9139 73.1332 73.1854 73.1228 73.1854 73.0549C73.1854 73.0131 73.2115 72.9766 73.2376 72.9766C73.269 72.9766 73.2898 73.0236 73.2898 73.081C73.2898 73.1384 73.269 73.1854 73.2376 73.1854C73.2115 73.1854 73.1854 73.222 73.1854 73.2638C73.1854 73.3317 72.9139 73.3421 71.0705 73.3421C69.2272 73.3421 68.9556 73.3317 68.9556 73.2638C68.9556 73.1959 68.6841 73.1854 66.8408 73.1854C64.9974 73.1854 64.7259 73.1959 64.7259 73.2638C64.7259 73.3055 64.6893 73.3421 64.6475 73.3421C64.5953 73.3421 64.5692 73.2847 64.5692 73.1593Z" fill="#106FA9"/>
<path d="M39.295 60.5223C39.295 56.9661 39.3054 56.3186 39.3681 56.3186C39.4099 56.3186 39.4516 56.3708 39.4673 56.4387C39.483 56.5014 39.4934 58.3917 39.4882 60.6424C39.4778 64.5118 39.4725 64.7259 39.389 64.7259C39.3002 64.7259 39.295 64.5066 39.295 60.5223Z" fill="#106FA9"/>
<path d="M43.6814 60.5222C43.6814 56.8198 43.671 56.3185 43.6031 56.3185C43.5613 56.3185 43.5248 56.282 43.5248 56.2402C43.5248 56.188 43.5822 56.1619 43.7075 56.1619H43.8903V60.4439C43.8903 64.6893 43.8903 64.7258 43.7859 64.7258C43.6814 64.7258 43.6814 64.6893 43.6814 60.5222Z" fill="#106FA9"/>
<path d="M30.8877 60.5221V60.3394H31.1749C31.4256 60.3394 31.4621 60.3498 31.4621 60.4438C31.4621 60.5326 31.4256 60.5482 31.2532 60.5482C31.1018 60.5482 31.0444 60.5691 31.0444 60.6266C31.0444 60.6683 31.0078 60.7049 30.966 60.7049C30.9138 60.7049 30.8877 60.6474 30.8877 60.5221Z" fill="#106FA9"/>
<path d="M35.2741 60.6266C35.2741 60.5639 35.1801 60.5482 34.7519 60.5482C34.2663 60.5482 34.2297 60.543 34.2297 60.4438C34.2297 60.3446 34.2663 60.3394 34.8303 60.3394H35.4308V60.5221C35.4308 60.6474 35.4047 60.7049 35.3525 60.7049C35.3107 60.7049 35.2741 60.6683 35.2741 60.6266Z" fill="#106FA9"/>
<path d="M31.7233 60.4438C31.7233 60.3602 31.7598 60.3394 31.906 60.3394C32.0522 60.3394 32.0888 60.3602 32.0888 60.4438C32.0888 60.5273 32.0522 60.5482 31.906 60.5482C31.7598 60.5482 31.7233 60.5273 31.7233 60.4438Z" fill="#106FA9"/>
<path d="M33.0287 60.4438C33.0287 60.3602 33.0652 60.3394 33.2115 60.3394C33.3577 60.3394 33.3942 60.3602 33.3942 60.4438C33.3942 60.5273 33.3577 60.5482 33.2115 60.5482C33.0652 60.5482 33.0287 60.5273 33.0287 60.4438Z" fill="#106FA9"/>
<path d="M33.6553 60.4438C33.6553 60.3602 33.6919 60.3394 33.8381 60.3394C33.9843 60.3394 34.0209 60.3602 34.0209 60.4438C34.0209 60.5273 33.9843 60.5482 33.8381 60.5482C33.6919 60.5482 33.6553 60.5273 33.6553 60.4438Z" fill="#106FA9"/>
<path d="M56.1619 52.1149C56.1619 51.9896 56.188 51.9321 56.2402 51.9321C56.282 51.9321 56.3185 51.9687 56.3185 52.0105C56.3185 52.0783 56.5901 52.0888 58.4334 52.0888C60.5117 52.0888 60.5483 52.0888 60.5483 52.1932C60.5483 52.2977 60.5117 52.2977 58.3551 52.2977H56.1619V52.1149Z" fill="#106FA9"/>
<path d="M68.9451 52.2089C68.9295 52.1201 68.7885 52.1149 66.8407 52.1149C64.8929 52.1149 64.7519 52.1097 64.7363 52.0261C64.7206 51.9374 64.8459 51.9321 66.8355 51.9321C68.6841 51.9321 68.9556 51.9426 68.9556 52.0105C68.9556 52.0522 68.9921 52.0888 69.0339 52.0888C69.0757 52.0888 69.1123 52.1358 69.1123 52.1932C69.1123 52.3238 68.9713 52.3342 68.9451 52.2089Z" fill="#106FA9"/>
<path d="M51.9321 39.6606V31.2533H51.671C51.4465 31.2533 51.4099 31.2376 51.4099 31.1489C51.4099 31.0549 51.4465 31.0444 51.7493 31.0444C51.9373 31.0444 52.094 31.0601 52.094 31.0862C52.0992 31.1071 52.1097 34.1776 52.1149 37.9113C52.1253 41.645 52.1358 45.4204 52.1358 46.3081C52.141 47.6972 52.1514 47.9113 52.2193 47.9113C52.2611 47.9113 52.2976 47.9478 52.2976 47.9896C52.2976 48.0418 52.2402 48.0679 52.1149 48.0679H51.9321V39.6606Z" fill="#106FA9"/>
<path d="M47.7702 31.1748C47.7336 31.1331 47.7023 31.0286 47.7023 30.9399C47.7023 30.8198 47.7232 30.7832 47.8067 30.7832C47.885 30.7832 47.9111 30.8198 47.9111 30.9138C47.9111 31.0182 47.9373 31.0443 48.0417 31.0443C48.1357 31.0443 48.1722 31.0704 48.1722 31.1487C48.1722 31.2323 48.1357 31.2532 48.0051 31.2532C47.9111 31.248 47.8015 31.2166 47.7702 31.1748Z" fill="#106FA9"/>
<path d="M50.1566 31.1489C50.1566 31.0653 50.1932 31.0444 50.3394 31.0444C50.4856 31.0444 50.5222 31.0653 50.5222 31.1489C50.5222 31.2324 50.4856 31.2533 50.3394 31.2533C50.1932 31.2533 50.1566 31.2324 50.1566 31.1489Z" fill="#106FA9"/>
<path d="M50.5744 31.1489C50.5744 31.0549 50.611 31.0444 50.966 31.0444C51.3211 31.0444 51.3577 31.0549 51.3577 31.1489C51.3577 31.2429 51.3211 31.2533 50.966 31.2533C50.611 31.2533 50.5744 31.2429 50.5744 31.1489Z" fill="#106FA9"/>
<path d="M56.3185 31.1697C56.3185 31.1227 56.2715 31.0757 56.214 31.06C56.0313 31.013 56.0887 30.8877 56.2924 30.8877C56.4647 30.8877 56.4751 30.8981 56.4751 31.0705C56.4751 31.1958 56.449 31.2532 56.3968 31.2532C56.355 31.2532 56.3185 31.2167 56.3185 31.1697Z" fill="#106FA9"/>
<path d="M52.0888 28.9557V26.867H50H47.9112V27.0497C47.9112 27.196 47.8903 27.2325 47.8068 27.2325C47.7389 27.2325 47.7023 27.196 47.7023 27.1281C47.7023 27.0236 47.6658 27.0236 45.6136 27.0236H43.5248V26.7364C43.5248 26.5171 43.5404 26.4492 43.6031 26.4492C43.6762 26.4492 43.7023 26.5328 43.6867 26.7208C43.6762 26.8043 43.8224 26.8148 45.7702 26.8252C47.8277 26.8409 47.8642 26.8409 47.8903 26.7364C47.9164 26.632 47.953 26.632 50.0418 26.6477C51.2115 26.6529 52.1984 26.6685 52.235 26.6842C52.282 26.6999 52.2976 27.1907 52.2976 28.8774C52.2976 31.008 52.2976 31.0445 52.1932 31.0445C52.0888 31.0445 52.0888 31.008 52.0888 28.9557Z" fill="#106FA9"/>
<path d="M43.5248 22.7155C43.5248 22.5484 43.5457 22.4805 43.5979 22.4805C43.6867 22.4805 43.7337 22.5901 43.7075 22.7207C43.6971 22.7781 43.6867 22.8512 43.6867 22.8878C43.6814 22.9191 43.6449 22.9504 43.6031 22.9504C43.5457 22.9504 43.5248 22.8878 43.5248 22.7155Z" fill="#106FA9"/>
<path d="M47.9007 22.7572C47.8694 22.611 47.9112 22.4805 47.9947 22.4805C48.0417 22.4805 48.0678 22.5379 48.0678 22.6632C48.0678 22.8564 47.9425 22.9243 47.9007 22.7572Z" fill="#106FA9"/>
<path d="M56.1619 22.6108C56.1619 22.4072 56.2872 22.3549 56.3342 22.5325C56.3499 22.5899 56.3812 22.6369 56.4073 22.6317C56.5326 22.6108 56.6318 22.6474 56.6318 22.7153C56.6318 22.7727 56.5692 22.7936 56.3969 22.7936C56.1619 22.7936 56.1619 22.7936 56.1619 22.6108Z" fill="#106FA9"/>
<path d="M57.624 22.7204C57.624 22.6368 57.7546 22.595 57.9008 22.6264C58.0679 22.6681 58 22.7935 57.8068 22.7935C57.6815 22.7935 57.624 22.7674 57.624 22.7204Z" fill="#106FA9"/>
<path d="M58.8773 22.7204C58.8773 22.6368 59.0078 22.595 59.154 22.6264C59.3211 22.6681 59.2532 22.7935 59.06 22.7935C58.9347 22.7935 58.8773 22.7674 58.8773 22.7204Z" fill="#106FA9"/>
<path d="M60.1305 22.7204C60.1305 22.6368 60.261 22.595 60.4073 22.6264C60.5744 22.6681 60.5065 22.7935 60.3133 22.7935C60.1879 22.7935 60.1305 22.7674 60.1305 22.7204Z" fill="#106FA9"/>
<path d="M56.1619 18.4335C56.1619 18.2612 56.1723 18.2507 56.3446 18.2507C56.5483 18.2507 56.6057 18.3761 56.423 18.4231C56.3655 18.4387 56.3185 18.4857 56.3185 18.5327C56.3185 18.5797 56.282 18.6163 56.2402 18.6163C56.188 18.6163 56.1619 18.5588 56.1619 18.4335Z" fill="#106FA9"/>
<path d="M60.5483 18.5327C60.5483 18.4857 60.5013 18.4387 60.4439 18.4231C60.2611 18.3761 60.3186 18.2507 60.5222 18.2507C60.6945 18.2507 60.705 18.2612 60.705 18.4335C60.705 18.5588 60.6789 18.6163 60.6267 18.6163C60.5849 18.6163 60.5483 18.5797 60.5483 18.5327Z" fill="#106FA9"/>
<path d="M35.274 85.9008C35.274 85.8329 35.0025 85.8225 33.1592 85.8225H31.0443V84.9609C31.0443 84.1358 31.0495 84.0992 31.1487 84.0992C31.2479 84.0992 31.2532 84.1358 31.2532 84.8564V85.6136H33.1853H35.1174V83.577C35.1174 81.9739 35.1331 81.5457 35.1853 81.5562C35.2323 81.5614 35.2532 81.1123 35.2636 79.4674L35.274 77.3629H33.1853C31.3628 77.3629 31.0965 77.3734 31.0965 77.4413C31.0965 77.483 31.0495 77.5196 30.9921 77.5196C30.8876 77.5196 30.8876 77.483 30.8876 75.4308V73.3421H28.9555H27.0234V77.3629V81.3838H29.0547C31.0704 81.3838 31.0861 81.3838 31.1122 81.4935C31.1278 81.5562 31.1644 81.5875 31.1957 81.5666C31.2323 81.5457 31.2532 81.6032 31.2532 81.718C31.2532 81.8695 31.2323 81.906 31.1487 81.906C31.0652 81.906 31.0443 81.8695 31.0443 81.7494V81.5927L28.9451 81.5823L26.8406 81.5666L26.825 77.3786L26.8145 73.1854L24.7414 73.175C22.8093 73.1593 22.6631 73.1541 22.6474 73.0705C22.6317 72.9817 22.7571 72.9765 24.6683 72.9765H26.7101L26.6996 64.6475C26.6892 58.0105 26.6996 56.3185 26.7519 56.3185C26.7988 56.3185 26.8145 55.859 26.8145 54.2037V52.0888H28.9294H31.0443V50C31.0443 47.9478 31.0443 47.9112 31.1487 47.9112C31.2532 47.9112 31.2532 47.9478 31.2532 49.9217V51.9321H33.1853H35.1226L35.1069 49.9269C35.0913 48.047 35.0965 47.9165 35.1853 47.8903C35.2323 47.8799 35.274 47.8381 35.274 47.7963C35.274 47.7389 35.6344 47.7337 37.3106 47.7441L39.3524 47.7598L39.3367 45.718C39.3263 44.1149 39.3367 43.6815 39.3889 43.6815C39.4359 43.6815 39.4516 41.9634 39.4516 35.2742V26.8668H37.3628C35.3106 26.8668 35.274 26.8668 35.274 26.7624C35.274 26.658 35.3106 26.658 37.4673 26.658H39.6605V35.0914V43.5248H41.5926H43.5247V35.1175C43.5247 27.6815 43.5351 26.7102 43.603 26.7102C43.6448 26.7102 43.6814 26.7467 43.6814 26.7885C43.6814 26.8564 43.9529 26.8668 45.7962 26.8668C47.8746 26.8668 47.9111 26.8668 47.9111 26.7624C47.9111 26.6945 47.9477 26.658 48.0156 26.658C48.073 26.658 48.12 26.6945 48.12 26.7363C48.12 26.7781 48.0887 26.8146 48.0469 26.8146C48.0051 26.8146 47.9581 26.8355 47.9372 26.8616C47.9059 26.9138 47.8955 30.9922 47.9268 31.0235C47.9372 31.0339 48.8772 31.0496 50.0156 31.0548L52.0887 31.0653V39.4883V47.9112H54.2036H56.3184V50.0157V52.1253L58.3707 52.1149C59.4934 52.1149 60.449 52.1201 60.4855 52.1306C60.5325 52.1462 60.5482 52.6162 60.5482 54.235C60.5482 56.0522 60.5587 56.3185 60.6265 56.3185C60.6683 56.3185 60.7049 56.3551 60.7049 56.3969C60.7049 56.4387 60.6683 56.4752 60.6265 56.4752C60.5848 56.4752 60.5482 56.4387 60.5482 56.3969C60.5482 56.329 60.2767 56.3185 58.4333 56.3185C56.59 56.3185 56.3184 56.329 56.3184 56.3969C56.3184 56.4387 56.2819 56.4752 56.2401 56.4752C56.1722 56.4752 56.1618 56.2037 56.1618 54.3603V52.2454H54.1513C52.3968 52.2454 52.1409 52.235 52.1409 52.1671C52.1409 52.0992 51.8694 52.0888 50.026 52.0888H47.9111L47.9007 58.3969L47.885 64.6998L45.8119 64.7154L43.7336 64.7259V63.4883C43.7336 62.8042 43.7284 60.9138 43.7284 59.2846L43.7231 56.3185H41.5874H39.4516V60.5222V64.7259H37.3628H35.274V62.6266V60.5222H33.1592H31.0443V62.6475C31.0443 64.517 31.0547 64.7729 31.1226 64.7467C31.1905 64.7206 31.2009 65.1958 31.2009 68.8773V73.034L33.2375 73.0183L35.274 73.0026L35.2845 75.1854L35.3002 77.3682L37.3785 77.3629H39.4516V79.4778V81.5927H41.5926C43.462 81.5927 43.7336 81.5823 43.7336 81.5144C43.7336 81.4465 44.0103 81.4361 45.9007 81.4361C47.3106 81.4361 48.0678 81.4517 48.0678 81.4883C48.0678 81.5196 48.0312 81.5405 47.9895 81.5405C47.9216 81.5405 47.9111 81.8277 47.9007 83.6293C47.8902 84.7781 47.8955 85.7441 47.9007 85.7703C47.9111 85.8016 47.9529 85.8225 47.9947 85.8225C48.0365 85.8225 48.0678 85.859 48.0678 85.9008C48.0678 85.9687 47.3158 85.9791 41.6709 85.9791C36.026 85.9791 35.274 85.9687 35.274 85.9008ZM30.8876 54.2298V52.2977H28.9555H27.0234V54.2298V56.1619H28.9555H30.8876V54.2298Z" fill="white"/>
<path d="M64.5169 85.9061C64.5169 85.8695 64.5639 85.8225 64.6213 85.8069C64.7258 85.7808 64.7258 85.7338 64.7258 83.6868C64.7258 81.6293 64.7258 81.5928 64.8302 81.5928C64.9347 81.5928 64.9347 81.6293 64.9347 83.6032V85.6137H66.9451C68.919 85.6137 68.9556 85.6137 68.9556 85.7181C68.9556 85.8225 68.919 85.8225 66.8407 85.8225C64.9973 85.8225 64.7258 85.833 64.7258 85.9009C64.7258 85.9426 64.6788 85.9792 64.6213 85.9792C64.5639 85.9792 64.5169 85.9479 64.5169 85.9061Z" fill="white"/>
<path d="M31.0443 83.5509C31.0443 83.3002 31.0548 83.2637 31.1488 83.2637C31.2427 83.2637 31.2532 83.3002 31.2532 83.5509C31.2532 83.8015 31.2427 83.8381 31.1488 83.8381C31.0548 83.8381 31.0443 83.8015 31.0443 83.5509Z" fill="white"/>
<path d="M31.0443 83.0287C31.0443 82.8825 31.0652 82.8459 31.1488 82.8459C31.2323 82.8459 31.2532 82.8825 31.2532 83.0287C31.2532 83.1749 31.2323 83.2115 31.1488 83.2115C31.0652 83.2115 31.0443 83.1749 31.0443 83.0287Z" fill="white"/>
<path d="M31.0443 82.2977C31.0443 82.0471 31.0548 82.0105 31.1488 82.0105C31.2427 82.0105 31.2532 82.0471 31.2532 82.2977C31.2532 82.5484 31.2427 82.5849 31.1488 82.5849C31.0548 82.5849 31.0443 82.5484 31.0443 82.2977Z" fill="white"/>
<path d="M68.8511 81.6711C68.8511 81.6293 68.8772 81.5928 68.9034 81.5928C68.9347 81.5928 68.9556 81.5458 68.9556 81.4883C68.9556 81.3839 68.9921 81.3839 70.966 81.3839H72.9765V77.2847C72.9765 73.5666 72.9817 73.1854 73.06 73.1854C73.107 73.1854 73.154 73.1384 73.1697 73.081C73.1958 72.9766 73.2428 72.9766 75.2793 72.9766C77.3263 72.9766 77.3629 72.9766 77.3629 73.081C77.3629 73.1854 77.3263 73.1854 75.2741 73.1854H73.1853V77.3891V81.5928H71.0705C69.2271 81.5928 68.9556 81.6032 68.9556 81.6711C68.9556 81.7129 68.9347 81.7494 68.9034 81.7494C68.8772 81.7494 68.8511 81.7129 68.8511 81.6711Z" fill="white"/>
<path d="M64.5691 81.4883C64.5691 81.4621 64.6056 81.436 64.6474 81.436C64.6892 81.436 64.7257 81.4621 64.7257 81.4883C64.7257 81.5196 64.6892 81.5405 64.6474 81.5405C64.6056 81.5405 64.5691 81.5196 64.5691 81.4883Z" fill="white"/>
<path d="M39.4882 77.3264C39.4256 77.269 39.4464 77.2063 39.53 77.2063C39.5718 77.2063 39.6083 77.2429 39.6083 77.2846C39.6083 77.3682 39.5457 77.3891 39.4882 77.3264Z" fill="white"/>
<path d="M68.9555 73.2377C68.9555 73.1802 68.919 73.1332 68.8772 73.1332C68.8354 73.1332 68.7989 73.0967 68.7989 73.0549C68.7989 73.0131 68.8354 72.9766 68.8772 72.9766C68.919 72.9766 68.9555 73.0131 68.9555 73.0601C68.9555 73.1071 69.0025 73.1541 69.06 73.1698C69.1174 73.1854 69.1644 73.2324 69.1644 73.269C69.1644 73.3108 69.1174 73.3421 69.06 73.3421C68.9921 73.3421 68.9555 73.3055 68.9555 73.2377Z" fill="white"/>
<path d="M39.4777 73.1488C39.4882 73.0652 39.4986 72.0939 39.4986 70.9817L39.5038 68.9556H41.6709H43.8381V71.1227V73.2898H41.6501H39.4568L39.4777 73.1488Z" fill="white"/>
<path d="M73.1853 56.3967C73.1853 56.3549 73.1383 56.3184 73.0809 56.3184C72.9764 56.3184 72.9764 56.2818 72.9764 54.3079V52.2975H72.7937C72.6475 52.2975 72.6109 52.2766 72.6109 52.1931C72.6109 52.0991 72.6475 52.0886 72.8981 52.0886H73.1853V54.2035C73.1853 56.0468 73.1958 56.3184 73.2636 56.3184C73.3054 56.3184 73.342 56.3549 73.342 56.3967C73.342 56.4385 73.3054 56.475 73.2636 56.475C73.2219 56.475 73.1853 56.4385 73.1853 56.3967Z" fill="white"/>
<path d="M70.261 52.1931C70.261 52.1095 70.2976 52.0886 70.4438 52.0886C70.59 52.0886 70.6266 52.1095 70.6266 52.1931C70.6266 52.2766 70.59 52.2975 70.4438 52.2975C70.2976 52.2975 70.261 52.2766 70.261 52.1931Z" fill="white"/>
<path d="M64.7258 50C64.7258 47.9478 64.7258 47.9113 64.6213 47.9113C64.5535 47.9113 64.5169 47.8747 64.5169 47.8068C64.5169 47.7389 64.5535 47.7024 64.6161 47.7024C64.6683 47.7024 64.7258 47.7494 64.7414 47.8068C64.7571 47.8643 64.8041 47.9113 64.8511 47.9113C64.9242 47.9113 64.9347 48.1254 64.9347 50C64.9347 52.0523 64.9347 52.0888 64.8302 52.0888C64.7258 52.0888 64.7258 52.0523 64.7258 50Z" fill="white"/>
<path d="M60.5482 43.7599C60.5482 43.7181 60.5012 43.6815 60.4437 43.6815C60.3393 43.6815 60.3393 43.6554 60.3498 35.1855L60.3654 26.6841L62.5482 26.6685C64.6996 26.658 64.7257 26.658 64.7257 26.7625C64.7257 26.8669 64.6944 26.8669 62.637 26.8669H60.5482V35.2742C60.5482 42.7103 60.5586 43.6815 60.6265 43.6815C60.6683 43.6815 60.7048 43.7181 60.7048 43.7599C60.7048 43.8016 60.6683 43.8382 60.6265 43.8382C60.5847 43.8382 60.5482 43.8016 60.5482 43.7599Z" fill="white"/>
<path d="M52.1409 30.966C52.1409 30.9242 52.167 30.8877 52.1931 30.8877C52.2245 30.8877 52.2454 30.9242 52.2454 30.966C52.2454 31.0078 52.2245 31.0444 52.1931 31.0444C52.167 31.0444 52.1409 31.0078 52.1409 30.966Z" fill="white"/>
<path d="M39.3472 20.5223C39.3472 18.5379 39.3577 18.2507 39.4256 18.2507C39.4673 18.2507 39.4987 18.2821 39.4882 18.3186C39.483 18.3656 39.9321 18.3865 41.577 18.3969L43.6814 18.4074L43.6919 20.5118C43.7023 21.6711 43.7023 22.658 43.6919 22.705C43.6762 22.7886 43.4882 22.7938 41.5091 22.7938H39.3472V20.5223Z" fill="white"/>
<path d="M60.3394 22.7155C60.3394 22.6738 60.3759 22.6372 60.4229 22.6372C60.4699 22.6372 60.5169 22.5902 60.5326 22.5328C60.5796 22.35 60.7049 22.4074 60.7049 22.6111C60.7049 22.7834 60.6944 22.7939 60.5221 22.7939C60.3968 22.7939 60.3394 22.7677 60.3394 22.7155Z" fill="white"/>
<path d="M35.274 14.282C35.274 14.1775 35.3106 14.1775 37.3628 14.1775H39.4516V12.0888C39.4516 10.0366 39.4516 10 39.556 10C39.6605 10 39.6605 10.0366 39.6605 12.0104V14.0209H45.9529H52.2453V14.2037C52.2453 14.3029 52.2244 14.3864 52.1931 14.3864C52.167 14.3864 52.1409 14.3551 52.1409 14.3133C52.1409 14.2715 52.12 14.2298 52.0887 14.2193C52.0626 14.2089 49.2114 14.2141 45.7597 14.2298C40.7727 14.2507 39.4829 14.2715 39.4934 14.3238C39.4986 14.3708 39.0547 14.3864 37.3889 14.3864C35.3106 14.3864 35.274 14.3864 35.274 14.282Z" fill="white"/>
<path d="M60.3759 14.3499C60.355 14.3342 60.3394 13.3473 60.3394 12.1567C60.3394 10.0366 60.3394 10 60.4438 10C60.5482 10 60.5482 10.0366 60.5482 12.0888V14.1775H62.637C64.6892 14.1775 64.7258 14.1775 64.7258 14.282C64.7258 14.3864 64.6892 14.3864 62.5691 14.3864C61.3785 14.3864 60.3916 14.3708 60.3759 14.3499Z" fill="white"/>
<path d="M47.9111 20.6006V18.4074H50.026H52.1409V16.3134C52.1409 14.2664 52.1409 14.2194 52.0365 14.1933C51.979 14.1777 51.932 14.1307 51.932 14.0941C51.932 14.0314 52.6004 14.021 56.2088 14.021C60.4386 14.021 60.4856 14.021 60.5117 14.1254C60.5273 14.1829 60.5743 14.2299 60.6213 14.2299C60.6944 14.2299 60.7049 14.4492 60.7049 16.397C60.7049 18.2873 60.6944 18.5641 60.6265 18.5641C60.5848 18.5641 60.5482 18.5275 60.5482 18.4858C60.5482 18.4179 60.2767 18.4074 58.4333 18.4074H56.3184V20.5223C56.3184 22.3656 56.3289 22.6372 56.3968 22.6372C56.4386 22.6372 56.4751 22.6737 56.4751 22.7155C56.4751 22.7834 55.9634 22.7938 52.1931 22.7938H47.9111V20.6006Z" fill="#5F1449"/>
<path d="M39.295 16.3968C39.295 14.2715 39.295 14.2297 39.3994 14.2297C39.4986 14.2297 39.5039 14.2715 39.5039 16.3968C39.5039 18.5222 39.4986 18.5639 39.3994 18.5639C39.295 18.5639 39.295 18.5222 39.295 16.3968Z" fill="#5F1449"/>
<path d="M39.859 14.1881C39.6814 14.1515 39.7545 14.021 39.9478 14.021C40.0679 14.021 40.1305 14.0471 40.1305 14.0941C40.1305 14.1724 40 14.2194 39.859 14.1881Z" fill="#5F1449"/>
<path d="M41.1123 14.1881C40.9347 14.1515 41.0078 14.021 41.2011 14.021C41.3212 14.021 41.3838 14.0471 41.3838 14.0941C41.3838 14.1724 41.2533 14.2194 41.1123 14.1881Z" fill="#5F1449"/>
<path d="M39.5038 14.1255C39.5038 14.0994 39.5404 14.0732 39.5822 14.0732C39.6239 14.0732 39.6605 14.0994 39.6605 14.1255C39.6605 14.1568 39.6239 14.1777 39.5822 14.1777C39.5404 14.1777 39.5038 14.1568 39.5038 14.1255Z" fill="#5F1449"/>
<path d="M31.0966 81.6658C31.0966 81.6188 31.0496 81.5718 30.9921 81.5562C30.8877 81.5301 30.8877 81.4831 30.8877 79.3682C30.8877 77.4831 30.8981 77.2063 30.966 77.2063C31.0078 77.2063 31.0496 77.2115 31.0548 77.222C31.06 77.2272 31.0809 78.2037 31.0966 79.3891L31.1227 81.5457L33.201 81.5405C35.2323 81.5405 35.2741 81.5457 35.2741 81.6449C35.2741 81.7494 35.2323 81.7494 33.1853 81.7494C31.3107 81.7494 31.0966 81.7389 31.0966 81.6658Z" fill="#023A74"/>
<path d="M43.7233 81.0131C43.7181 80.6841 43.7233 79.7285 43.7285 78.8929L43.7442 77.3629L41.6136 77.3525L39.4778 77.3368V75.248V73.1593L41.5823 73.1436L43.6815 73.1332V71.0444V68.9556H45.7964H47.9113V73.1593V77.3629H51.0601C52.7886 77.3629 55.6293 77.3786 57.3786 77.3995L60.5484 77.4308V66.8773V56.3185H64.752C68.4544 56.3185 68.9557 56.3081 68.9557 56.2402C68.9557 56.1984 68.9922 56.1619 69.034 56.1619C69.0758 56.1619 69.1123 56.1984 69.1123 56.2402C69.1123 56.282 69.0758 56.3185 69.034 56.3185C68.9661 56.3185 68.9557 57.2898 68.9557 64.7258V73.1332H66.8408H64.7259V77.3368V81.5405H57.3734C53.3264 81.5405 48.6058 81.5561 46.8773 81.577L43.7337 81.6084L43.7233 81.0131Z" fill="#023A74"/>
<path d="M30.8877 73.2637C30.8877 73.2272 30.9242 73.1697 30.966 73.1488C31.0339 73.107 31.0444 72.5692 31.0548 68.9295L31.0705 64.752L33.1331 64.7676C34.2663 64.7781 35.1958 64.7885 35.201 64.7937C35.2062 64.799 35.2271 66.6893 35.248 68.9922L35.2898 73.1802L33.2062 73.1854C31.4256 73.1854 31.1122 73.1958 31.0652 73.2637C30.9921 73.3629 30.8877 73.3629 30.8877 73.2637Z" fill="#023A74"/>
<path d="M68.9556 73.2378C68.9556 73.2117 68.9922 73.1855 69.034 73.1855C69.0757 73.1855 69.1123 73.2117 69.1123 73.2378C69.1123 73.2691 69.0757 73.29 69.034 73.29C68.9922 73.29 68.9556 73.2691 68.9556 73.2378Z" fill="#023A74"/>
<path d="M52.1149 68.8877C52.0992 68.8564 52.094 67.906 52.0992 66.7885L52.1149 64.7519L54.2193 64.7363L56.3185 64.7258V66.8407V68.9556H54.2297C52.6005 68.9556 52.1305 68.9399 52.1149 68.8877Z" fill="#023A74"/>
<path d="M52.141 56.3184V52.0886H54.2298H56.3185V56.3184V60.5482H54.2298H52.141V56.3184Z" fill="#023A74"/>
<path d="M68.9555 52.1932C68.9555 52.1358 68.919 52.0888 68.8772 52.0888C68.8354 52.0888 68.7989 52.0522 68.7989 52.0105C68.7989 51.9687 68.8354 51.9321 68.8772 51.9321C68.919 51.9321 68.9555 51.9687 68.9555 52.0105C68.9555 52.0522 69.0025 52.0888 69.06 52.0888C69.1279 52.0888 69.1644 52.1253 69.1644 52.1932C69.1644 52.2611 69.1279 52.2977 69.06 52.2977C68.9921 52.2977 68.9555 52.2611 68.9555 52.1932Z" fill="#023A74"/>
<path d="M56.3186 31.1227C56.3186 31.0548 56.0522 31.0444 54.2298 31.0444H52.141V28.9504C52.141 26.9034 52.141 26.8564 52.0366 26.8303C51.9791 26.8146 51.9321 26.7676 51.9321 26.7311C51.9321 26.6684 52.3029 26.658 54.2037 26.658H56.4752V28.9295C56.4752 30.9138 56.4648 31.201 56.3969 31.201C56.3551 31.201 56.3186 31.1645 56.3186 31.1227Z" fill="#023A74"/>
<path d="M35.2741 87.8852V85.7703H33.1905H31.107L31.0861 85.5771C31.0495 85.2847 31.0443 81.9009 31.0756 81.739L31.107 81.5928H33.1905H35.2741V83.6815C35.2741 84.8304 35.2897 85.7755 35.3158 85.7808C35.3785 85.7912 47.4359 85.8173 56.2558 85.8173L64.7258 85.8225V87.9113V90.0001H49.9999H35.2741V87.8852Z" fill="black"/>
<path d="M64.778 83.6816V81.5929H66.8668H68.9556V77.3892V73.1855H71.06H73.1592L73.1436 77.3631L73.1331 81.5406L71.0548 81.5511L68.9817 81.5668L68.966 83.6712L68.9556 85.7704H66.8668H64.778V83.6816Z" fill="black"/>
<path d="M26.8668 77.3368V73.1332H24.7519H22.637V64.7258V56.3185H24.7519H26.8668V54.2193V52.1149H28.9712H31.0704L31.0809 51.0183C31.0861 50.4177 31.0966 49.4673 31.0966 48.919V47.9112H33.1853H35.2741V45.7963V43.6814H37.389H39.5039V35.248V26.8146H37.389H35.2741V20.5222V14.2297H37.3577H39.4412L39.4778 18.4334L39.5143 22.6371H41.5979H43.6814V33.1592V43.6814H41.5926H39.5039V45.7963V47.9112H37.389H35.2741V50V52.0888L33.1749 52.0992L31.0704 52.1149L31.0548 54.2193L31.0443 56.3185H28.9556H26.8668L26.8772 64.7415L26.8929 73.1593L28.966 73.1645C30.1096 73.1645 31.0443 73.1854 31.0443 73.201C31.0443 73.2219 31.0443 75.107 31.0443 77.389V81.5405H28.9556H26.8668V77.3368Z" fill="black"/>
<path d="M73.1853 64.7259V56.3186H75.2741H77.3629V64.7259V73.1332H75.2741H73.1853V64.7259Z" fill="black"/>
<path d="M68.9661 54.2192L68.9817 52.1148L71.0601 52.1043L73.1332 52.0991V54.2088V56.3184H71.0444H68.9556L68.9661 54.2192Z" fill="black"/>
<path d="M64.7676 50.0002L64.752 47.9114H66.8564H68.9556V50.0002V52.0889H66.8668H64.7781L64.7676 50.0002Z" fill="black"/>
<path d="M60.5482 45.7963V43.6814H62.637H64.7258L64.7153 45.7858L64.6997 47.8851L62.6265 47.9007L60.5482 47.9112V45.7963Z" fill="black"/>
<path d="M56.3184 35.248V26.8146H52.1148H47.9111V24.7258V22.6371H54.2297H60.5482V18.4334V14.2297H62.637H64.7258V20.5222V26.8146L62.6265 26.825L60.5221 26.8407L60.5064 35.2637L60.496 43.6814H58.4072H56.3184V35.248Z" fill="black"/>
<path d="M39.5038 12.0888V10H49.9999H60.496V12.0888V14.1775H49.9999H39.5038V12.0888Z" fill="black"/>
</svg>
