<svg width="100" height="100" viewBox="0 0 100 100" fill="none" xmlns="http://www.w3.org/2000/svg">
<path d="M15.0232 77.634C15.0232 77.5782 14.9798 77.5348 14.9302 77.5348C14.8496 77.5348 14.8372 75.817 14.8372 62.434V47.3333H17.4976C19.8666 47.3333 20.1643 47.3457 20.1953 47.4325C20.2139 47.4883 20.2325 53.1069 20.2325 59.9286V72.3317L27.662 72.3255C31.7426 72.3255 41.8573 72.3255 50.1426 72.3255H65.1937V74.9922V77.6588H40.3441C26.6697 77.6588 15.3829 77.6774 15.2589 77.696C15.0666 77.7271 15.0232 77.7209 15.0232 77.634Z" fill="#FC9A3A"/>
<path d="M34.8683 60.0155V57.3179H40.0466H45.2249V60.0155V62.7132H40.0466H34.8683V60.0155Z" fill="#FC9A3A"/>
<path d="M39.8791 52.6914C39.8481 52.6666 39.8295 51.4511 39.8295 49.9875V47.3333H42.5271H45.2248V49.9999V52.6666H42.8868C41.5969 52.6666 40.4062 52.6852 40.2326 52.7038C40.0651 52.7224 39.9039 52.7224 39.8791 52.6914Z" fill="#FC9A3A"/>
<path d="M54.8372 50.0185V47.3333H60.0155H65.1937L65.1813 50.0123L65.1627 52.6914L60.003 52.6976H54.8372V50.0185Z" fill="#FC9A3A"/>
<path d="M14.8372 37.5411V32.3256H19.8294H24.8217L24.8341 29.8635L24.8527 27.3953L27.5379 27.3767L30.217 27.3643V30.031V32.6977H27.7054H25.1937L25.2062 35.0108L25.2248 37.3178L42.4589 37.3364C55.2217 37.3488 59.7116 37.3302 59.7736 37.2806C59.8728 37.2 59.8914 36.9767 59.7984 36.9767C59.7674 36.9767 59.7364 36.8775 59.7364 36.7597C59.7364 36.6418 59.7674 36.5426 59.7984 36.5426C59.8418 36.5426 59.8604 35.0356 59.8604 32.1395V27.7364L47.3519 27.724L34.8372 27.7054L34.8186 25.0263L34.8062 22.3411H47.4821H60.1519L60.1953 22.5767C60.2139 22.7008 60.2325 23.8294 60.2325 25.0884V27.3643H62.5271H64.8217V24.8527V22.3411H67.5069H70.186L70.1736 25.0201L70.1674 27.7054L67.6806 27.724L65.1937 27.7364V35.2093V42.6822H45.0077H24.8217V40.2015V37.7209H22.5271H20.2325V40.2015V42.6822H17.9131C16.6418 42.6822 15.4263 42.7008 15.2155 42.7194L14.8372 42.7628V37.5411Z" fill="#FC9A3A"/>
<path d="M34.8682 52.8898C34.8682 50.2542 34.8496 47.9224 34.831 47.7115L34.7876 47.3333H37.4977C39.8605 47.3333 40.2016 47.3457 40.2016 47.4263C40.2016 47.4759 40.1581 47.5193 40.1085 47.5193C40.0279 47.5193 40.0155 47.8232 40.0279 50.0185C40.0403 51.972 40.0651 52.5053 40.1271 52.4991C40.1829 52.4867 40.2016 53.0139 40.2016 54.9922V57.5038H37.6279C35.3829 57.5038 35.0543 57.5162 35.0543 57.5968C35.0543 57.6464 35.0109 57.6898 34.9612 57.6898C34.8806 57.6898 34.8682 57.1131 34.8682 52.8898Z" fill="white"/>
<path d="M20.0465 50.1922C20.0465 48.8278 20.0279 47.6743 20.0093 47.6185C19.9907 47.5627 19.9349 47.5193 19.8853 47.5193C19.8357 47.5193 19.7985 47.4759 19.7985 47.4263C19.7985 47.3457 20.4186 47.3333 25.0078 47.3333H30.2171V49.9999V52.6666H25.1318H20.0465V50.1922Z" fill="white"/>
<path d="M14.8372 30.1238C14.8372 27.8788 14.8496 27.5502 14.9302 27.5502C14.9798 27.5502 15.0232 27.5067 15.0232 27.4571C15.0232 27.3765 15.3333 27.3641 17.4418 27.3641H19.8604V24.9455V22.5269H22.4341C24.6852 22.5269 25.0077 22.5145 25.0077 22.4339C25.0077 22.3533 25.5968 22.3408 30.1054 22.3533C34.1116 22.3657 35.203 22.3905 35.2279 22.4525C35.2403 22.4959 35.1968 22.5269 35.1348 22.5269C35.017 22.5269 35.017 22.6137 35.017 25.0199C35.0232 26.9548 35.0418 27.5129 35.1038 27.5315C35.141 27.5502 35.1782 27.5998 35.1782 27.6494C35.1782 27.7238 34.7813 27.7362 32.6046 27.7362C30.3472 27.7362 30.031 27.7238 30.031 27.6432C30.031 27.5626 29.7271 27.5502 27.5379 27.5626L25.0387 27.5812L25.0201 30.0494C25.0077 32.2137 25.0201 32.5114 25.1007 32.5114C25.1503 32.5114 25.1937 32.5548 25.1937 32.6044C25.1937 32.654 25.1503 32.6974 25.1007 32.6974C25.0511 32.6974 25.0077 32.654 25.0077 32.6044C25.0077 32.5238 24.4124 32.5114 20.0155 32.5114C15.6186 32.5114 15.0232 32.5238 15.0232 32.6044C15.0232 32.654 14.9798 32.6974 14.9302 32.6974C14.8496 32.6974 14.8372 32.3688 14.8372 30.1238Z" fill="white"/>
<path d="M59.8605 27.6494C59.8605 27.5998 59.9039 27.5502 59.9535 27.5315C60.0279 27.5005 60.0403 27.1533 60.0465 25.2618C60.0465 22.899 60.0279 22.5269 59.8791 22.5269C59.8294 22.5269 59.7984 22.4897 59.8108 22.4525C59.8356 22.3905 60.4434 22.3657 62.5147 22.3533C64.8713 22.3408 65.1938 22.3533 65.1938 22.4339C65.1938 22.4835 65.1504 22.5269 65.1008 22.5269C65.0201 22.5269 65.0077 22.8494 65.0077 25.0385C65.0077 27.2277 65.0201 27.5502 65.1008 27.5502C65.1504 27.5502 65.1938 27.5936 65.1938 27.6432C65.1938 27.6928 65.1504 27.7362 65.1008 27.7362C65.0512 27.7362 65.0077 27.6928 65.0077 27.6432C65.0077 27.5626 64.6915 27.5502 62.5271 27.5502C60.3628 27.5502 60.0465 27.5626 60.0465 27.6432C60.0465 27.6928 60.0031 27.7362 59.9535 27.7362C59.9039 27.7362 59.8605 27.699 59.8605 27.6494Z" fill="white"/>
<path d="M24.8341 64.9334L24.8527 57.3489L27.5379 57.3303L30.217 57.3179V62.3411V67.3644H32.6914H35.172L35.1906 69.8946C35.2031 71.2838 35.2031 72.4373 35.1906 72.4621C35.1782 72.4869 32.8465 72.5117 30 72.5117H24.8217L24.8341 64.9334Z" fill="#EF6F53"/>
<path d="M54.8372 67.4263V62.3411H57.5348H60.2325V67.4263V72.5116H57.5348H54.8372V67.4263Z" fill="#EF6F53"/>
<path d="M29.845 35.0234C29.845 32.8343 29.8574 32.5118 29.938 32.5118C29.9876 32.5118 30.031 32.4684 30.031 32.4188C30.031 32.3381 30.3349 32.3257 32.4186 32.3257H34.8062V29.9381C34.8062 28.0715 34.8248 27.5505 34.8868 27.5505C34.924 27.5505 40.6047 27.5443 47.507 27.5319L60.0465 27.5195V32.1211C60.0465 35.7428 60.0279 36.7226 59.9721 36.7474C59.9101 36.7722 59.9101 36.7846 59.9721 36.7846C60.0775 36.7908 60.0713 37.3738 59.9597 37.4668C59.8977 37.5164 55.9039 37.535 44.8589 37.535H29.845V35.0234Z" fill="#EF6F53"/>
<path d="M65.0078 72.6233C65.0078 72.5179 64.8465 72.5117 62.5147 72.5117H60.0155L60.0279 67.5194C60.0403 63.321 60.0279 62.5272 59.9535 62.5272C59.8853 62.5272 59.8667 62.1055 59.8481 60.0652C59.8357 58.707 59.8419 57.5225 59.8543 57.4233L59.8729 57.2559L62.4899 57.2683L65.1008 57.2869L65.1194 64.9024C65.1256 69.7644 65.1132 72.5613 65.0698 72.6233C65.014 72.7225 65.014 72.7225 65.0078 72.6233Z" fill="#AE4B53"/>
<path d="M29.845 32.6044C29.845 32.5548 29.8884 32.5114 29.938 32.5114C30.0186 32.5114 30.031 32.1951 30.031 30.0308V27.5501L32.5488 27.5377C35.0357 27.5191 35.0605 27.5191 35.0295 27.6432C35.0109 27.7114 34.9923 28.8339 34.9923 30.1424V32.5114H32.5116C30.3473 32.5114 30.031 32.5238 30.031 32.6044C30.031 32.654 29.9876 32.6974 29.938 32.6974C29.8884 32.6974 29.845 32.654 29.845 32.6044Z" fill="#AE4B53"/>
<path d="M59.9101 22.5395C59.6993 22.4961 59.7861 22.3411 60.0155 22.3411C60.1582 22.3411 60.2326 22.3721 60.2326 22.4279C60.2326 22.5209 60.0776 22.5767 59.9101 22.5395Z" fill="#AE4B53"/>
<path d="M74.7627 77.6772C65.9813 77.6586 64.8217 77.6462 64.8217 77.5656C64.8217 77.516 64.8651 77.4726 64.9147 77.4726C64.9953 77.4726 65.0077 77.1563 65.0077 74.992C65.0077 73.6276 64.9891 72.5113 64.9643 72.5113C64.9333 72.5113 64.9147 69.1253 64.9147 64.9951V57.4726L62.4837 57.454L60.0465 57.4416V57.6028C60.0465 57.7516 60.0279 57.764 59.8542 57.7268C59.7488 57.7082 58.5767 57.6896 57.2496 57.6896H54.8372L54.8496 55.0106C54.862 52.9392 54.8868 52.3315 54.9488 52.3067C54.986 52.2943 55.0232 52.3315 55.0232 52.3997C55.0232 52.5051 55.2155 52.5113 60.003 52.5051H64.9767L64.9953 50.0121C65.0077 47.823 64.9953 47.5191 64.9147 47.5191C64.8651 47.5191 64.8217 47.4757 64.8217 47.4261C64.8217 47.3454 65.9751 47.333 74.9922 47.3454L85.1689 47.364L85.1627 62.4338C85.1627 72.2757 85.1379 77.5098 85.1007 77.5222C85.0635 77.5346 85.0387 77.5842 85.0387 77.6338C85.0387 77.6896 84.9829 77.7144 84.8713 77.7082C84.772 77.6958 80.2263 77.6834 74.7627 77.6772ZM79.8294 62.533V52.747L79.5379 52.716C79.3705 52.7036 77.2062 52.6912 74.7131 52.6974H70.186L70.1736 62.4338C70.1612 67.792 70.1674 72.2075 70.186 72.2509C70.2046 72.3067 71.2341 72.3253 75.0232 72.3253H79.8294V62.533Z" fill="#BE2E3B"/>
<path d="M44.8528 62.6201C44.8528 62.5705 44.8962 62.5271 44.9458 62.5271C45.0264 62.5271 45.0388 62.2046 45.0388 60.0154C45.0388 57.8263 45.0264 57.5038 44.9458 57.5038C44.8652 57.5038 44.8528 57.1813 44.8528 54.9922C44.8528 52.803 44.8652 52.4805 44.9458 52.4805C45.0264 52.4805 45.0388 52.1643 45.0388 49.9999C45.0388 47.8356 45.0264 47.5193 44.9458 47.5193C44.8962 47.5193 44.8528 47.4759 44.8528 47.4263C44.8528 47.3457 45.1877 47.3333 47.5194 47.3333H50.1861V55.0232V62.7131H47.5194C45.1877 62.7131 44.8528 62.7007 44.8528 62.6201Z" fill="#BE2E3B"/>
<path d="M22.4527 57.7084L20.0465 57.6898V55.0851V52.4805H25.0388C29.4357 52.4805 30.031 52.4681 30.031 52.3875C30.031 52.3378 30.0744 52.2944 30.124 52.2944C30.2046 52.2944 30.2171 52.6355 30.2171 54.9921C30.2171 57.3487 30.2046 57.6898 30.124 57.6898C30.0744 57.6898 30.031 57.6464 30.031 57.5968C30.031 57.5161 29.7147 57.5037 27.5442 57.5037C25.1132 57.5037 25.0574 57.5037 25.0264 57.6278C25.0077 57.696 24.9643 57.7456 24.9209 57.7394C24.8837 57.727 23.7736 57.7146 22.4527 57.7084Z" fill="#BE2E3B"/>
<path d="M19.7985 42.6261C19.7985 42.5393 19.8357 42.4959 19.9225 42.4959C20.0465 42.4959 20.0465 42.4525 20.0465 40.0153V37.5347H22.5271H25.0078V40.0153C25.0078 42.1796 25.0202 42.4959 25.1008 42.4959C25.1504 42.4959 25.1938 42.5393 25.1938 42.5889C25.1938 42.6696 24.8961 42.682 22.8744 42.682C21.6031 42.682 20.3876 42.7006 20.1768 42.7192C19.8171 42.7626 19.7985 42.7564 19.7985 42.6261Z" fill="#BE2E3B"/>
<path d="M74.7627 42.7009C65.9813 42.6823 64.8217 42.6699 64.8217 42.5893C64.8217 42.5397 64.8651 42.4963 64.9147 42.4963C64.9953 42.4963 65.0077 42.1676 65.0077 39.9226V37.349H67.4263H69.8511L69.8325 32.456C69.8139 27.7304 69.8201 27.5568 69.9317 27.5257C69.9937 27.5133 70.0248 27.4699 69.9999 27.4327C69.9751 27.3831 72.1705 27.3645 77.4976 27.3645C84.1581 27.3645 85.0387 27.3769 85.0387 27.4575C85.0387 27.5071 85.0759 27.5505 85.1193 27.5505C85.1751 27.5505 85.1937 29.1009 85.1813 35.1288L85.1689 42.7133H84.9333C84.803 42.7133 80.2263 42.7071 74.7627 42.7009ZM79.7984 35.0234V32.7288H77.5038H75.2093L75.1906 35.042L75.1782 37.349L77.4852 37.3366L79.7984 37.318V35.0234Z" fill="#BE2E3B"/>
<path d="M25.0512 37.4915C24.9768 37.4233 25.0016 37.3489 25.1008 37.3489C25.1504 37.3489 25.1938 37.3923 25.1938 37.4419C25.1938 37.5411 25.1194 37.5659 25.0512 37.4915Z" fill="#BE2E3B"/>
<path d="M20.0465 65.0078V57.5039H22.5271H25.0077V65.0078V72.5117H22.5271H20.0465V65.0078Z" fill="#53113E"/>
<path d="M34.9923 72.3752C34.9985 72.2946 35.0047 71.1783 34.9985 69.8946C34.9923 67.8543 34.9799 67.5504 34.8993 67.5504C34.8497 67.5504 34.8063 67.5132 34.8063 67.4636C34.8063 67.3954 35.8977 67.3706 41.6466 67.3395C45.4047 67.3147 49.9505 67.3085 51.7489 67.3147L55.0233 67.3333V69.9256V72.5116H45.0016H34.9861L34.9923 72.3752Z" fill="#53113E"/>
<path d="M69.969 62.5272L69.9752 57.3179H72.5736H75.1783V62.5272V67.7365H72.5736H69.969V62.5272Z" fill="#53113E"/>
<path d="M54.8372 60.0155C54.8372 57.659 54.8496 57.3179 54.9302 57.3179C54.9798 57.3179 55.0232 57.3613 55.0232 57.4109C55.0232 57.4915 55.3581 57.5039 57.5224 57.5163L60.0155 57.5349L60.0341 60.0341L60.0527 62.5272H57.5348C55.3457 62.5272 55.0232 62.5396 55.0232 62.6202C55.0232 62.6698 54.9798 62.7132 54.9302 62.7132C54.8496 62.7132 54.8372 62.3721 54.8372 60.0155Z" fill="#53113E"/>
<path d="M25.0511 37.4916C25.0263 37.473 25.0077 36.3381 25.0077 34.9799V32.5117H27.5193H30.0309V35.0233V37.535H27.5627C26.2046 37.535 25.0697 37.5164 25.0511 37.4916Z" fill="#53113E"/>
<path d="M15.0233 80.0155V77.5349L12.5302 77.5225L10.031 77.5039L10.0124 52.5303L10 27.5504H12.5116H15.0233V25.0388V22.5272H17.5349H20.0465V25.0388V27.5504H17.5349H15.0233V35.0419V42.5272L50 42.5148L84.9767 42.4962V35.0419V27.5814L77.4915 27.5628L70 27.5504L70.0186 32.5427L70.031 37.5349H67.5194H65.0078V32.5427V27.5504L67.4884 27.538L69.969 27.5194L69.9876 25.0202L70 22.5272H47.5008H25.0078L25.0202 20.0279L25.0388 17.5349L50.0186 17.5163L74.9922 17.5039V20.0155V22.5272H80.0155H85.0388V25.0388V27.5504H87.5194H90L89.9876 52.5303L89.969 77.5039L87.507 77.5225L85.0388 77.5349V80.0155V82.4962H50.031H15.0233V80.0155ZM84.9891 62.5396C85.0016 54.3039 84.9953 47.5566 84.9829 47.5442C84.9705 47.5318 78.2233 47.5194 69.9876 47.5194H55.0233L55.0109 57.5225L54.9922 67.5194L42.5147 67.5318L30.031 67.5442V57.5349V47.5194H22.5271H15.0233V62.4838C15.0233 70.7194 15.0357 77.4667 15.0481 77.4791C15.0605 77.4915 30.8 77.5039 50.0248 77.5039H84.9767L84.9891 62.5396ZM50 55.0233V47.5194H42.4899C35.6682 47.5194 34.9798 47.5256 35.0171 47.6186C35.0357 47.6744 35.0543 51.0481 35.0543 55.1225V62.5272H42.5271H50V55.0233Z" fill="black"/>
<path d="M70.0124 72.4683C69.9876 72.4497 69.969 71.3334 69.969 69.9877V67.5505L70.5457 67.5443C70.8558 67.5443 71.9907 67.5443 73.0574 67.5505L74.9922 67.5567V62.5334V57.504H72.4806H69.969L69.9814 55.0109L70 52.5117H74.9922H79.9845L80.0031 62.5148L80.0155 72.5117H75.0357C72.2946 72.5117 70.031 72.4931 70.0124 72.4683Z" fill="black"/>
<path d="M40.0155 54.9921V52.4867L42.5271 52.4805H45.0388V54.9921V57.5037H42.5271H40.0155V54.9921Z" fill="black"/>
<path d="M75.0047 35.0417L75.0233 32.5425H77.5039H79.9846V35.0231V37.5037L77.4853 37.5223L74.9923 37.5347L75.0047 35.0417Z" fill="black"/>
</svg>
