<svg width="100" height="100" viewBox="0 0 100 100" fill="none" xmlns="http://www.w3.org/2000/svg">
<path d="M31.0379 87.8962V85.7924H28.9341H26.8303V83.6886V81.5849H24.7265H22.6227V79.4698V77.3492H20.5358H18.4432V68.9341V60.5189L20.5358 60.5021L22.6227 60.4909V52.0757V43.6606H20.5189H18.4152V41.5568V39.453H20.5189H22.6227V41.5568V43.6606H26.8303H31.0379V39.453V35.2454H33.1417H35.2455V31.0379V26.8303H37.3492H39.453V22.6227V18.4151H41.5568H43.6606V14.2076V10H45.7644H47.8682L47.8794 12.0926L47.8962 14.1795L49.9888 14.1964L52.0757 14.2076V20.5189V26.8303L56.3002 26.8415L60.5189 26.8583L60.5358 33.1529L60.547 39.453H64.7546H68.9621V41.5568V43.6606L71.0547 43.6718L73.1417 43.6886L73.1585 45.7812L73.1697 47.8682H71.0659H68.9621V52.0757V56.2833L71.0547 56.2945L73.1417 56.3114V66.8303V77.3492L71.0547 77.3661L68.9621 77.3773L68.9509 79.4698L68.9341 81.5568L66.8303 81.5849L64.7265 81.6129V83.6886V85.7644L62.6396 85.7812L60.547 85.7924L60.5358 87.885L60.5189 89.9719L45.7812 89.9888L31.0379 90V87.8962ZM56.115 83.6101C56.115 82.4993 56.1319 81.5568 56.1487 81.5063C56.1767 81.4278 56.418 81.4165 58.2525 81.4165H60.3226V79.3745C60.3226 78.2525 60.3394 77.2931 60.3563 77.2426C60.3843 77.1641 60.6255 77.1529 62.46 77.1529H64.5302L64.5414 75.0659L64.5582 72.9734L66.6508 72.9565L68.7377 72.9453V68.9341V64.9229H66.6676C64.8331 64.9229 64.5919 64.9116 64.5638 64.8331C64.547 64.7826 64.5302 60.0365 64.5302 54.2861V43.8289H62.6227H60.7153V45.9327V48.0365L58.432 48.0252L56.1431 48.0084L56.1262 39.6101L56.115 31.2062H51.9074H47.6999V24.8948V18.5835H45.7644H43.8289V22.791V26.9986H41.7251H39.6213V33.31V39.6213H37.5175H35.4138V45.9327V52.244H33.1417H30.8696V50.1403V48.0365H28.9341H26.9986L26.9874 56.4684L26.9706 64.8948L24.878 64.9116L22.791 64.9229V71.0379V77.1529H24.8948H26.9986V79.2847V81.4165H29.1024H31.2062V83.4811C31.2062 84.6199 31.223 85.568 31.2455 85.5849C31.2623 85.6073 36.8668 85.6241 43.6999 85.6241H56.115V83.6101Z" fill="#441D1D"/>
<path d="M77.3773 37.5735V35.4697H79.4811H81.5849V37.5735V39.6773H79.4811H77.3773V37.5735Z" fill="#441D1D"/>
<path d="M22.6228 29.0183V26.8303H24.7266H26.8304V29.0183V31.2062H24.7266H22.6228V29.0183Z" fill="#441D1D"/>
<path d="M68.9229 24.8276L68.9341 22.6509H71.0379H73.1417L73.1529 24.8276L73.1641 26.9987H71.0379H68.9117L68.9229 24.8276Z" fill="#441D1D"/>
<path d="M31.0378 16.3955V14.2075H33.1416H35.2454V16.3955V18.5834H33.1416H31.0378V16.3955Z" fill="#441D1D"/>
<path d="M60.5021 16.4123L60.519 14.2356L62.6396 14.2187L64.7546 14.2075V16.3955L64.749 18.5834H62.6171H60.4909L60.5021 16.4123Z" fill="#441D1D"/>
<path d="M31.038 81.669C31.038 81.6241 30.9987 81.5848 30.9538 81.5848C30.8809 81.5848 30.8697 81.3211 30.8697 79.5371V77.4894H28.85C27.0941 77.4894 26.8304 77.4782 26.8304 77.4053C26.8304 77.3604 26.7911 77.3211 26.7463 77.3211C26.6733 77.3211 26.6621 76.805 26.6621 73.0014V68.6816H26.8472C26.9482 68.6816 27.0604 68.7096 27.0997 68.7489C27.1502 68.7994 27.167 68.7994 27.167 68.7489C27.167 68.6984 27.6158 68.6816 29.0184 68.6816H30.8697V64.5021V60.3225H32.9735H35.0773V58.3871V56.4516H30.9538H26.8304V52.1598V47.8681H28.9342H31.038V49.9719V52.0757H33.1418C35.0212 52.0757 35.2456 52.0645 35.2456 51.9859C35.2456 51.9354 35.2792 51.9074 35.3129 51.9186C35.369 51.941 35.3914 52.4235 35.4026 54.028L35.4139 56.115L37.3381 56.1037L39.2568 56.0869L39.2736 52.0645L39.2848 48.0364H37.2652H35.2456V43.7447V39.453H37.3493C39.1838 39.453 39.4531 39.4418 39.4531 39.3688C39.4531 39.3239 39.4924 39.2847 39.5373 39.2847C39.6102 39.2847 39.6214 39.784 39.6214 43.4642V47.6437L39.7617 47.6774C39.8402 47.6942 40.7827 47.7054 41.8655 47.6942L43.829 47.6718V52.0589V56.4516L41.7421 56.4628L39.6495 56.4796L39.6214 58.5834L39.5934 60.6872L37.5176 60.7152L35.4419 60.7433L35.4251 64.9396L35.4139 69.1304H33.3101H31.2063V73.1416V77.1528H33.4223H35.6383V77.3492C35.6383 77.5063 35.6158 77.5455 35.5261 77.5455C35.4139 77.5455 35.4139 77.5848 35.4139 79.6493V81.7531H33.2259C31.3185 81.7531 31.038 81.7419 31.038 81.669Z" fill="#FA372B"/>
<path d="M56.115 64.9229V60.7153H54.0112H51.9074V58.5835V56.4516H49.8036H47.6998V52.0757V47.6999L49.7924 47.6886L51.8794 47.6718L51.8962 41.3717L51.9074 35.0771H54.0953C55.8064 35.0771 56.2833 35.094 56.2833 35.1501C56.2833 35.1837 56.2889 38.0561 56.3001 41.5288L56.3113 47.8401L58.4319 47.857L60.547 47.8682V45.7812L60.5413 43.6886L62.6171 43.6718L64.6984 43.6606L64.7096 47.857C64.7209 50.1683 64.7209 52.0982 64.7096 52.1487C64.6928 52.2328 64.5021 52.244 62.69 52.2553L60.6872 52.2721L60.6592 54.3478C60.6423 55.4923 60.6199 56.4292 60.6143 56.4404C60.6087 56.446 59.683 56.4516 58.5554 56.4516H56.5077V58.3871V60.3226H58.5834H60.6592V64.7265V69.1304H58.3871H56.115V64.9229ZM56.0589 52.0757V48.0365H54.1514H52.244V52.0757V56.115H54.1514H56.0589V52.0757Z" fill="#FA372B"/>
<path d="M43.4923 37.5345V35.4139H41.4727H39.4531V31.1222V26.8304H41.5569H43.6606V22.6229V18.4153H45.7644H47.8682V22.707V26.9987H45.8486H43.8289V28.9342V30.8697H45.8486C47.6045 30.8697 47.8682 30.8809 47.8682 30.9539C47.8682 30.9987 47.9131 31.038 47.9692 31.038C48.059 31.038 48.0646 31.2736 48.0477 35.3129C48.0421 37.6635 48.0253 39.5934 48.0197 39.599C48.0141 39.6046 46.993 39.6215 45.7476 39.6327L43.4923 39.6495V37.5345Z" fill="#FA372B"/>
<path d="M22.6228 33.1416V31.0378H24.7266H26.8304V33.1416V35.2454H24.7266H22.6228V33.1416Z" fill="#FA372B"/>
<path d="M68.9061 28.9341V26.8303L71.0211 26.8415L73.1417 26.8584L73.1585 28.9509L73.1697 31.0379H71.0435H68.9117L68.9061 28.9341Z" fill="#FA372B"/>
<path d="M31.0378 20.5191V18.4153H33.1416H35.2454V20.5191V22.6229H33.1416H31.0378V20.5191Z" fill="#FA372B"/>
<path d="M60.4909 20.5078V18.3872L62.6227 18.404L64.7546 18.4153V20.519V22.6228H62.6227H60.4909V20.5078Z" fill="#FA372B"/>
<path d="M31.0772 85.753C31.0548 85.7362 31.038 84.7881 31.038 83.6492V81.5847H28.9342H26.8304V79.4529V77.321L28.9117 77.3098C30.0562 77.2986 31.0043 77.3042 31.0155 77.3154C31.0267 77.3267 31.038 78.2972 31.038 79.4641V81.5847H33.1417C34.9762 81.5847 35.2455 81.5735 35.2455 81.5006C35.2455 81.4276 35.526 81.4164 37.4335 81.4164H39.6214V83.4304C39.6214 84.5356 39.6382 85.523 39.6551 85.6184L39.6943 85.7923H35.4026C33.0408 85.7923 31.0941 85.7755 31.0772 85.753Z" fill="#B61C36"/>
<path d="M47.6998 85.6801C47.6998 85.5903 47.7391 85.5679 47.8962 85.5679C48.0533 85.5679 48.0925 85.5903 48.0925 85.6801C48.0925 85.7698 48.0533 85.7923 47.8962 85.7923C47.7391 85.7923 47.6998 85.7698 47.6998 85.6801Z" fill="#B61C36"/>
<path d="M51.9075 83.5932V81.3884L54.0113 81.4053L56.115 81.4277L56.1263 79.3015L56.1431 77.1808L58.2301 77.164L60.3226 77.1528L60.3338 75.0602L60.3507 72.9733L62.4432 72.9564L64.5302 72.9452V71.0378V69.1304H62.4264C60.5919 69.1304 60.3226 69.1191 60.3226 69.0462C60.3226 69.0013 60.3619 68.9621 60.4068 68.9621C60.4797 68.9621 60.4909 68.4515 60.4909 64.7264C60.4909 61.0013 60.4797 60.4908 60.4068 60.4908C60.3338 60.4908 60.3226 60.2327 60.3226 58.5161C60.3226 57.4277 60.3058 56.4796 60.289 56.4123C60.2609 56.3169 60.2777 56.2832 60.3451 56.2832C60.3955 56.2832 60.4404 56.2776 60.446 56.272C60.4517 56.2608 60.4741 55.3239 60.4909 54.1794L60.519 52.1037L62.6228 52.0757L64.7265 52.0476L64.7097 58.2748C64.7041 61.7026 64.7097 64.5581 64.7265 64.6311L64.7546 64.7545H66.8191L68.878 64.7489L68.9061 68.9284L68.9341 73.1135L66.8303 73.1247L64.7265 73.1416L64.7097 75.2454L64.6985 77.3491L62.6228 77.3323L60.5526 77.3211L60.519 77.4445C60.5078 77.5175 60.4965 78.4712 60.5078 79.5651L60.519 81.5567L58.4488 81.5736C56.8724 81.5848 56.3619 81.6016 56.3282 81.6577C56.3058 81.6914 56.2833 82.6395 56.2833 83.7615V85.7923H54.0954H51.9075V83.5932Z" fill="#B61C36"/>
<path d="M23.0604 77.3323L22.6228 77.3155V71.0209V64.7264H24.7154H26.8023L26.8192 60.5076L26.8304 56.2832H29.0183H31.2063V58.415C31.2063 60.2832 31.195 60.5413 31.1221 60.5132C31.0492 60.4852 31.0379 60.9732 31.0379 64.7208C31.0379 68.4515 31.0492 68.962 31.1221 68.962C31.167 68.962 31.2063 69.0013 31.2063 69.0462C31.2063 69.0911 31.167 69.1303 31.1221 69.1303C31.0772 69.1303 31.0379 69.0967 31.0379 69.0518C31.0379 69.0069 30.9706 68.9564 30.8865 68.9284C30.6565 68.861 29.2988 68.861 29.2988 68.9284C29.2988 68.962 29.2708 68.9564 29.2315 68.9171C29.1473 68.833 28.85 68.8274 28.85 68.9115C28.85 68.9452 28.822 68.9508 28.7827 68.9228C28.6817 68.861 27.3353 68.8498 27.3353 68.9115C27.3353 68.9845 26.9762 68.9732 26.8977 68.8947C26.8472 68.8442 26.8304 69.7699 26.8304 73.0742C26.8304 76.4347 26.8135 77.3211 26.7631 77.3211C26.7238 77.3211 25.972 77.3267 25.0912 77.3379C24.2105 77.3435 23.296 77.3435 23.0604 77.3323Z" fill="#B61C36"/>
<path d="M31.0378 77.2032C31.0378 77.0686 31.1669 77.0854 31.1949 77.2257C31.2061 77.2818 31.1781 77.321 31.1276 77.321C31.0715 77.321 31.0378 77.2706 31.0378 77.2032Z" fill="#B61C36"/>
<path d="M35.0771 56.3675C35.0771 56.3226 35.1164 56.2833 35.1613 56.2833C35.2398 56.2833 35.2455 56.0309 35.2455 54.1964C35.2455 53.0463 35.2455 51.1501 35.2455 49.9888V47.8682H37.3492H39.453L39.4418 52.0645L39.425 56.2553L37.338 56.2721C35.5316 56.2833 35.2455 56.2945 35.2455 56.3675C35.2455 56.4123 35.2062 56.4516 35.1613 56.4516C35.1164 56.4516 35.0771 56.4123 35.0771 56.3675Z" fill="#B61C36"/>
<path d="M39.4643 56.3898C39.4755 56.3505 39.5204 56.3056 39.5597 56.2944C39.6046 56.2776 39.627 56.3 39.6102 56.3449C39.599 56.3842 39.5541 56.429 39.5148 56.4403C39.4699 56.4571 39.4475 56.4347 39.4643 56.3898Z" fill="#B61C36"/>
<path d="M51.9075 56.3675C51.9075 56.3226 51.9467 56.2833 51.9916 56.2833C52.0646 56.2833 52.0758 55.7784 52.0758 52.0757V47.8682L54.3647 47.8794C55.6214 47.885 56.5526 47.8962 56.4348 47.9074L56.2272 47.9299V52.0084C56.2272 54.2525 56.2272 56.1318 56.2272 56.1879C56.2272 56.2777 56.0926 56.2833 54.1515 56.2833C52.3451 56.2833 52.0758 56.2945 52.0758 56.3675C52.0758 56.4123 52.0365 56.4516 51.9916 56.4516C51.9467 56.4516 51.9075 56.4123 51.9075 56.3675Z" fill="#B61C36"/>
<path d="M47.6998 43.7447C47.6998 39.9691 47.711 39.453 47.784 39.453C47.8569 39.453 47.8681 39.1725 47.8681 37.2651V35.0771H49.8878H51.9074V33.0575V31.0378H54.1122H56.3113V33.1528V35.2735L54.1963 35.2566L52.0757 35.2454L52.0645 41.5399L52.0477 47.8401L49.9607 47.8569C48.1542 47.8681 47.8681 47.8794 47.8681 47.9523C47.8681 47.9972 47.8289 48.0364 47.784 48.0364C47.711 48.0364 47.6998 47.5203 47.6998 43.7447Z" fill="#B61C36"/>
<path d="M43.6607 47.913C43.6607 47.8569 43.2399 47.8456 41.714 47.8569C40.6368 47.8681 39.6887 47.8625 39.5934 47.8456L39.425 47.812L39.4419 41.5287L39.4531 35.2454H41.5569H43.6607V37.3772C43.6607 39.2454 43.6719 39.5034 43.7448 39.4754C43.8178 39.4473 43.829 39.941 43.829 43.711C43.829 47.4698 43.8178 47.9803 43.7448 47.9803C43.6999 47.9803 43.6607 47.9466 43.6607 47.913Z" fill="#B61C36"/>
<path d="M47.8794 31.1388C47.9131 31.0378 48.0365 31.021 48.0365 31.1164C48.0365 31.1669 47.9972 31.2061 47.9467 31.2061C47.8962 31.2061 47.8682 31.1781 47.8794 31.1388Z" fill="#B61C36"/>
<path d="M43.6606 28.9341V26.8303H45.7644H47.8682V28.9341V31.0379H45.7644H43.6606V28.9341Z" fill="#B61C36"/>
<path d="M39.4923 85.7531C39.4698 85.7363 39.453 84.7882 39.453 83.6494V81.5848H37.3492H35.2454L35.2566 79.453L35.2735 77.3212H33.1585H31.0378V73.1416V68.9621H33.1416H35.2454L35.2566 64.7714L35.2735 60.575L37.3492 60.547L39.4249 60.5189L39.453 58.4151L39.481 56.3113L41.5736 56.2945C43.3744 56.2833 43.6606 56.2721 43.6606 56.1991C43.6606 56.1543 43.6998 56.115 43.7447 56.115C43.8176 56.115 43.8289 56.6255 43.8176 60.5077L43.8008 64.8948L41.7139 64.9116L39.6213 64.9228V66.993V69.0631L39.0771 69.1024C38.7742 69.1248 37.899 69.136 37.1248 69.1304C36.3562 69.1192 35.655 69.1192 35.5708 69.1248L35.4137 69.1304V73.1585V77.1809L37.2202 77.1641C38.2188 77.1529 39.1669 77.1641 39.3296 77.1809L39.6213 77.2146V79.3184V81.4165H41.7251H43.8289V83.6045V85.7924H41.6802C40.4965 85.7924 39.5091 85.7756 39.4923 85.7531Z" fill="#FDA147"/>
<path d="M47.6998 83.6045V81.4165H49.8036H51.9074L51.9186 79.3015L51.9355 77.1809L54.0168 77.1641L56.1038 77.1529L56.1374 77.0238C56.1542 76.9565 56.1711 75.1557 56.1711 73.0182V69.1416L55.7054 69.1024C55.4474 69.0799 54.4937 69.0743 53.5848 69.0799L51.9355 69.1024L51.9186 67.0154L51.9074 64.9228H50.1795C49.2314 64.9228 48.2889 64.906 48.0813 64.8836L47.6998 64.8499V60.4853C47.6998 56.6367 47.711 56.115 47.784 56.115C47.8289 56.115 47.8681 56.1543 47.8681 56.1991C47.8681 56.2721 48.1374 56.2833 49.9719 56.2833H52.0757V58.4151V60.547H54.1795H56.2833V64.7545V68.9621H60.4909H64.6984V71.0379V73.1136L62.6115 73.1248L60.5189 73.1416L60.5021 75.2286L60.4909 77.3212L58.3983 77.3324L56.3113 77.3492L56.3001 79.453L56.2889 81.5568H54.1795H52.0757V83.6774V85.7924H49.8878L47.6998 85.7868V83.6045Z" fill="#FDA147"/>
<path d="M31.0939 60.502C31.0603 60.4908 31.0378 59.7334 31.0378 58.3814V56.2832H33.1416H35.2454V58.387V60.4908L34 60.4964C33.3099 60.4964 32.3899 60.502 31.9467 60.5076C31.5091 60.5132 31.122 60.5132 31.0939 60.502Z" fill="#FDA147"/>
<path d="M56.3395 58.387V56.2832H58.4152H60.491V58.387V60.4908H58.4152H56.3395V58.387Z" fill="#FDA147"/>
<path d="M43.6719 45.8655L43.6887 39.4812L45.7813 39.4643L47.8682 39.4531V45.8486V52.2441H45.7644H43.6606L43.6719 45.8655Z" fill="#FDA147"/>
<path d="M47.8794 33.1585L47.8963 31.0659L49.9888 31.0491L52.0758 31.0378V33.1416V35.2454H49.972H47.8682L47.8794 33.1585Z" fill="#FDA147"/>
<path d="M43.6606 83.6886V81.5848H41.5568H39.4531V79.4866V77.3884L39.195 77.3492C39.0547 77.3323 38.1179 77.3211 37.108 77.3267L35.2735 77.3436L35.2567 73.1528L35.2455 68.9621L35.397 68.9509C35.4867 68.9452 36.3002 68.934 37.209 68.9284C38.1179 68.9228 38.9986 68.9172 39.1613 68.9116L39.4531 68.906V66.8302C39.4531 65.2089 39.4699 64.7545 39.526 64.7545C39.5596 64.7545 40.5021 64.7489 41.6129 64.7433L43.6326 64.7265L43.6494 58.4039L43.6606 52.0757H45.7644H47.8682V58.3814V64.6872L48.1655 64.7152C48.3226 64.7265 49.209 64.7433 50.1291 64.7433C51.0435 64.7489 51.857 64.7545 51.9355 64.7545H52.0758L52.087 66.8359L52.1038 68.9116L54.2076 68.9228L56.3114 68.934L56.3226 73.1472L56.3395 77.3548H54.2188L52.1038 77.3492L52.087 79.4698L52.0758 81.5848H49.972H47.8682V83.6886V85.7924H45.7644H43.6606V83.6886Z" fill="white"/>
</svg>
