<svg width="100" height="100" viewBox="0 0 100 100" fill="none" xmlns="http://www.w3.org/2000/svg">
<path d="M46.1521 71.9835V71.0886L44.3505 71.0767L42.5489 71.0588L42.5668 69.2572L42.5847 67.4496H41.833H41.0813V68.3444V69.2393L38.355 69.2512L35.6227 69.2691L35.6048 70.1818L35.5869 71.0886H33.6838C32.0254 71.0886 31.7748 71.0767 31.7748 70.9991C31.7748 70.9514 31.739 70.9097 31.6973 70.9097C31.6316 70.9097 31.6257 70.7367 31.6436 70.0745L31.6734 69.2393H30.7368H29.8061V68.3444V67.4555L28.8993 67.4376L27.9866 67.4197L28.0105 66.5428L28.0284 65.6658L27.8315 65.63C27.7181 65.6121 26.9844 65.6002 26.1969 65.6121L24.7651 65.63L24.7472 66.5428L24.7293 67.4496H23.7211C22.8621 67.4496 22.707 67.4376 22.707 67.3601C22.707 67.3123 22.6652 67.2706 22.6175 67.2706C22.5399 67.2706 22.528 67.1393 22.528 66.4294V65.5883L20.8039 65.6121C19.1633 65.63 19.0738 65.6241 19.044 65.5167C19.0321 65.457 18.9903 65.4272 18.9545 65.451C18.9068 65.4749 18.8889 64.9619 18.8889 63.727V61.9611H17.0694H15.2498V61.0663V60.1714H14.4743C13.4363 60.1714 13.4601 60.1953 13.4601 59.1572V58.3817H12.6249C11.921 58.3817 11.7897 58.3698 11.7897 58.2922C11.7897 58.2445 11.748 58.2027 11.7002 58.2027C11.6227 58.2027 11.6108 58.0655 11.6227 57.2065L11.6406 56.2042L12.5951 56.1863C13.1201 56.1804 13.6093 56.1863 13.6868 56.2042C13.8181 56.234 13.8181 56.2519 13.8181 57.1289V58.0238H15.6376H17.4571V58.9186V59.8135H18.352H19.2468V60.7381V61.6688L19.9806 61.6509L20.7084 61.633L20.7263 60.7262L20.7442 59.8135H22.5578H24.3773V58.9186V58.0238H25.4512H26.525V58.9186V59.8135H27.4199H28.3147V60.7381V61.6628H29.2394H30.1641V62.5577V63.4525H31.0589H31.9538V64.3772V65.3019H33.7733H35.5929V66.1968V67.0916H38.1581H40.7293L40.7114 66.3638L40.6935 65.63L39.8166 65.6121L38.9337 65.5942V64.7053V63.8105H37.9732H37.0067L37.0485 63.4466C37.0664 63.2437 37.0843 62.7605 37.0843 62.3727V61.6628H38.1521H39.22L39.1902 62.5577L39.1544 63.4525H40.1149H41.0813V64.3474V65.2422H41.9463H42.8114V66.0715C42.8114 66.5308 42.8293 66.9425 42.8472 66.9962C42.8829 67.0797 43.4199 67.0916 48.3356 67.0916H53.7882V68.0163V68.941H55.6078H57.4273V70.0148V71.0886H53.7882H50.1492V71.9835V72.8783H48.1507H46.1521V71.9835ZM35.1991 68.9052C35.2767 68.8754 35.2946 68.7501 35.2946 68.1595V67.4496H33.6242H31.9538V68.1953V68.941H33.5287C34.3938 68.941 35.1454 68.9231 35.1991 68.9052ZM31.6555 66.3817C31.6555 65.5584 31.6973 65.6002 30.9098 65.6002C30.1223 65.6002 30.1641 65.5584 30.1641 66.3817V67.0916H30.9098H31.6555V66.3817ZM24.2819 65.2661C24.3595 65.2363 24.3773 65.111 24.3773 64.5204V63.8045L23.6495 63.8224L22.9158 63.8403L22.8979 64.5741L22.88 65.3019H23.5362C23.8941 65.3019 24.2282 65.284 24.2819 65.2661ZM29.7942 64.5443L29.8121 63.8105H29.0962C28.5056 63.8105 28.3803 63.8284 28.3505 63.9059C28.3028 64.0312 28.3028 65.0871 28.3505 65.2065C28.3803 65.29 28.4877 65.3019 29.0843 65.29L29.7763 65.2721L29.7942 64.5443ZM22.528 62.7068V61.9551L21.83 61.973L21.126 61.9909L21.1081 62.7247L21.0902 63.4525H21.8121H22.528V62.7068ZM27.9806 63.3571C27.9985 63.3034 28.0164 62.9693 28.0164 62.6114V61.9611H27.2707H26.525V62.7068V63.4525H27.2349C27.8255 63.4525 27.9508 63.4346 27.9806 63.3571ZM26.1671 60.9171V60.1714H25.4512H24.7353V60.9171V61.6628H25.4512H26.1671V60.9171Z" fill="#B6EBF7"/>
<path d="M59.8016 69.2513L58.9187 69.2334V68.3445V67.4496H57.994H57.0693V66.3758V65.302H59.0678H61.0664V66.1968V67.0917H64.5265H67.9866V66.1968V65.302H69.8061H71.6256V64.3773V63.4526H73.4452H75.2647V62.5577V61.6629L77.0246 61.651C77.991 61.645 78.8859 61.639 79.0112 61.639L79.2319 61.6331L79.2498 62.6353C79.2617 63.4944 79.2498 63.6316 79.1722 63.6316C79.1245 63.6316 79.0828 63.6733 79.0828 63.7211C79.0828 63.7986 78.8501 63.8105 77.3527 63.8105H75.6227V64.6457C75.6227 65.3497 75.6107 65.4809 75.5332 65.4809C75.4854 65.4809 75.4437 65.5167 75.4437 65.5585C75.4437 65.6122 75.0977 65.6241 73.8568 65.6122C72.9799 65.6002 72.2043 65.6062 72.1268 65.6241C71.9836 65.6599 71.9836 65.6718 71.9836 66.4653C71.9836 67.1394 71.9716 67.2706 71.8941 67.2706C71.8464 67.2706 71.8046 67.3124 71.8046 67.3601C71.8046 67.4377 71.5719 67.4496 70.0746 67.4496H68.3445V68.2848C68.3445 68.9888 68.3326 69.12 68.255 69.12C68.2073 69.12 68.1655 69.1558 68.1655 69.1976C68.1655 69.2513 67.3781 69.2691 64.4191 69.2691C62.3609 69.2691 60.2848 69.2632 59.8016 69.2513Z" fill="#B6EBF7"/>
<path d="M22.528 53.639V50.7456H23.6316H24.7353L24.7233 53.627L24.7054 56.5025L23.6197 56.5204L22.528 56.5323V53.639Z" fill="#B6EBF7"/>
<path d="M42.5011 67.4496C42.4773 67.3005 42.4952 67.2706 42.5906 67.2706C42.6682 67.2706 42.692 67.2408 42.6682 67.1752C42.6503 67.1215 42.6324 66.7099 42.6324 66.2505V65.4213H41.7674H40.9023V64.5264V63.6316H40.0075C39.2498 63.6316 39.1126 63.6435 39.1126 63.7211C39.1126 63.7747 39.0589 63.8105 38.9635 63.8105C38.868 63.8105 38.8143 63.7747 38.8143 63.7211C38.8143 63.6733 38.8561 63.6316 38.9038 63.6316C38.9814 63.6316 38.9933 63.5003 38.9933 62.8322C38.9933 62.3907 39.0112 61.991 39.0291 61.9433C39.053 61.8836 39.0231 61.8419 38.9396 61.8299C38.8621 61.818 38.8322 61.7882 38.8621 61.7464C38.8919 61.6927 39.4825 61.6689 40.8904 61.6569L42.871 61.6331V62.5398V63.4466L43.7838 63.4645L44.6905 63.4824L44.7084 64.3952L44.7263 65.302H48.3594H51.9985V66.2863V67.2706H47.3751H42.7517V67.4496C42.7517 67.5868 42.7219 67.6286 42.6383 67.6286C42.5608 67.6286 42.519 67.5749 42.5011 67.4496Z" fill="#53C3F5"/>
<path d="M40.5444 65.5346C40.5444 65.4392 40.5742 65.4153 40.7054 65.4332C40.8069 65.4452 40.8785 65.4929 40.8904 65.5585C40.9083 65.6361 40.8725 65.6599 40.7293 65.6599C40.5802 65.6599 40.5444 65.6361 40.5444 65.5346Z" fill="#53C3F5"/>
<path d="M35.2886 62.9336C35.2827 62.4444 35.2767 61.1439 35.2707 60.0402L35.2648 58.0238H36.1775H37.0843V57.0991V56.1804L37.9971 56.1625L38.9038 56.1446V55.2796V54.4146L39.8166 54.3967L40.7234 54.3788V51.8195V49.2542H39.8285H38.9337V48.3594V47.4645H36.3684H33.8032V48.3594V49.2542H32.8785H31.9538V51.0738V52.8933L29.9732 52.8814L27.9866 52.8635L28.0105 51.9865L28.0343 51.1036H27.0977H26.1671V50.1789V49.2542H25.2722H24.3774V48.3594V47.4645L18.006 47.4526L11.6406 47.4347L11.6227 44.5592L11.6108 41.6778H12.5355H13.4601V40.7531V39.8284H14.355H15.2499V38.9396C15.2499 38.2833 15.2678 38.0387 15.3274 38.0208C15.3632 38.0029 15.7092 38.0089 16.091 38.0268C16.4728 38.0447 16.8546 38.0387 16.9441 38.0149L17.0992 37.9791V37.0842V36.1894H17.9941H18.8889V35.2945V34.3997H19.9926H21.0962V35.2945V36.1894H21.9911H22.8859V37.1141V38.0387L24.5146 38.0268L26.1373 38.0089L26.1551 37.1021L26.173 36.1894H27.9866H29.8062V35.2945V34.3997H31.6257H33.4452V33.475V32.5503H34.5191H35.5869L35.6048 33.4571L35.6227 34.3698L36.5355 34.3877L37.4422 34.4056V35.4735V36.5473H34.6921H31.9359L31.9598 37.4243L31.9836 38.3072L30.1641 38.337L28.3446 38.3668L28.3267 39.1006L28.3088 39.8284H33.6242H38.9337V38.0089V36.1894L40.9143 36.2013L42.8949 36.2192L42.877 38.0208L42.8591 39.8284H44.5056H46.1522V38.9396C46.1522 38.2833 46.1701 38.0447 46.2297 38.0268C46.2655 38.0149 46.7607 38.0089 47.3155 38.0089L48.3296 38.0149L48.3475 38.9217L48.3654 39.8284H49.2543H50.1492V40.7531V41.6778H51.0739H51.9986V42.5727V43.4675H52.7144H53.4303V42.5727V41.6778H55.4288H57.4273V42.5727V43.4675H58.352H59.2767V44.3624V45.2572H60.1716H61.0664V46.1819V47.1066H62.8859H64.7055V48.0014V48.8963H65.6003H66.4952V49.821V50.7457H67.4199H68.3446V51.6405V52.5294L69.2513 52.5473L70.1581 52.5652L70.1641 54.3549V56.1446L71.9538 56.1745L73.7435 56.2043L73.7793 57.2185C73.8032 57.8568 73.7972 58.2624 73.7555 58.3102C73.7137 58.3639 73.0575 58.3818 70.8442 58.3818H67.9866V57.4571V56.5264L67.2588 56.5443L66.525 56.5622L66.537 57.3974C66.5429 57.9164 66.525 58.2565 66.4833 58.3042C66.4355 58.3639 65.827 58.3818 63.566 58.3818H60.7085V57.2781V56.1745H61.5735H62.4385V55.733C62.4385 55.4347 62.4624 55.2796 62.5161 55.2617C62.5757 55.2378 62.5757 55.2259 62.5161 55.2259C62.4206 55.2199 62.4027 53.9671 62.4982 53.9671C62.534 53.9671 62.5578 53.8717 62.5578 53.7583C62.5578 53.645 62.534 53.5495 62.4982 53.5495C62.4147 53.5495 62.4266 53.1439 62.5101 53.12C62.5459 53.1081 62.5638 53.0484 62.5399 52.9947C62.5101 52.9053 62.4027 52.8933 61.7823 52.8933H61.0664V53.818V54.7427H59.0679H57.0694V53.818V52.8933H51.7898H46.5101V56.5324V60.1715H44.5414H42.5727V59.2766V58.3818H40.0075H37.4422V60.1118C37.4422 61.6092 37.4303 61.8419 37.3528 61.8419C37.2752 61.8419 37.2633 61.9731 37.2633 62.6413C37.2633 63.0827 37.2454 63.4824 37.2275 63.5361C37.2036 63.6017 37.2275 63.6316 37.317 63.6316C37.4005 63.6316 37.4303 63.6614 37.4065 63.7211C37.3766 63.7986 37.1977 63.8105 36.3326 63.8105H35.2946L35.2886 62.9336ZM60.6965 51.8076L60.7144 51.1036H59.9926H59.2767V51.8195V52.5413L59.9807 52.5234L60.6786 52.5055L60.6965 51.8076ZM58.8352 50.6562C58.9009 50.5906 58.9188 50.4295 58.9068 49.9284L58.8889 49.2841L57.2663 49.2662L55.6376 49.2542V50V50.7457H57.1947C58.4773 50.7457 58.7637 50.7278 58.8352 50.6562ZM57.0694 46.3609V45.6152H56.3535H55.6376V46.3609V47.1066H56.3535H57.0694V46.3609ZM15.2499 43.6465V42.0358L15.1186 42.0059C15.0411 41.988 14.7249 41.9761 14.4147 41.988L13.8479 42.0059L13.83 43.6346L13.8181 45.2572H14.534H15.2499V43.6465ZM18.8889 42.7218V41.9701L18.1909 41.988L17.487 42.0059L17.4691 42.7397L17.4512 43.4675H18.173H18.8889V42.7218ZM22.528 42.7218V41.9701L21.83 41.988L21.1261 42.0059L21.1082 42.7397L21.0903 43.4675H21.8121H22.528V42.7218ZM49.7912 42.7576C49.7912 42.0715 49.7853 42.0477 49.66 42.0119C49.481 41.9642 48.5742 41.9642 48.4549 42.0119C48.3774 42.0417 48.3595 42.167 48.3595 42.7576V43.4675H49.0754H49.7912V42.7576ZM17.0873 40.9202L17.1052 40.1864H16.3535H15.6078V40.9321V41.6838L16.3416 41.6659L17.0694 41.648L17.0873 40.9202ZM47.9896 40.9142L48.0075 40.1804L47.2737 40.1983L46.5399 40.2162L46.522 40.8665C46.5161 41.2304 46.522 41.5585 46.534 41.6003C46.5578 41.6659 46.7249 41.6778 47.2678 41.6659L47.9717 41.648L47.9896 40.9142ZM18.8889 39.0827V38.337H18.173H17.4572V39.0827V39.8284H18.173H18.8889V39.0827ZM22.528 39.0827V38.337H21.8121H21.0962V39.0827V39.8284H21.8121H22.528V39.0827ZM20.6428 38.0029C20.7204 37.9731 20.7383 37.8478 20.7383 37.2572V36.5473H19.9926H19.2469V37.293V38.0387H19.8971C20.2551 38.0387 20.5892 38.0208 20.6428 38.0029Z" fill="#53C3F5"/>
<path d="M54.4027 60.1894L53.4302 60.1715V59.2766V58.3818H52.5354H51.6405V57.4571V56.5324H49.821H48.0015V55.4586V54.3848H50H51.9985V55.2796V56.1745H52.8933H53.7882V57.0992V58.0238H54.7129H55.6376V58.9187V59.8135H56.264H56.8904V60.0223V60.2311L56.1327 60.2192C55.7091 60.2133 54.9336 60.1954 54.4027 60.1894Z" fill="#53C3F5"/>
<path d="M17.2782 58.2922C17.2782 58.2146 17.123 58.2027 16.264 58.2027H15.2498L15.2617 54.492L15.2796 50.7754H16.3535H17.4273L17.4452 54.5815C17.4571 57.9342 17.4452 58.3817 17.3676 58.3817C17.3199 58.3817 17.2782 58.3399 17.2782 58.2922Z" fill="#53C3F5"/>
<path d="M20.7383 51.8194V48.8962H21.8121H22.8859V49.9104C22.8859 50.7695 22.874 50.9246 22.7964 50.9246C22.7189 50.9246 22.707 51.1751 22.707 52.8336V54.7426H21.7226H20.7383V51.8194Z" fill="#53C3F5"/>
<path d="M80.7353 49.2124C80.7114 49.1945 80.6935 48.7113 80.6935 48.1445V47.1125L83.6346 47.0946C85.2454 47.0826 86.5698 47.0767 86.5757 47.0767C86.5757 47.0767 86.5698 47.5658 86.5519 48.1684L86.528 49.2541H83.6466C82.0657 49.2541 80.7532 49.2362 80.7353 49.2124Z" fill="#53C3F5"/>
<path d="M75.2647 44.5414V43.4675H77.2632H79.2617V44.5414V45.6152H77.2632H75.2647V44.5414Z" fill="#53C3F5"/>
<path d="M51.7837 67.1752C51.8016 67.1215 51.8195 67.0678 51.8195 67.0558C51.8195 67.0439 51.8613 67.032 51.909 67.032C51.9567 67.032 51.9985 67.0857 51.9985 67.1513C51.9985 67.2348 51.9567 67.2706 51.8732 67.2706C51.7837 67.2706 51.7598 67.2467 51.7837 67.1752Z" fill="#1E86C4"/>
<path d="M35.2349 61.8121C35.2349 61.651 35.2588 61.6033 35.3423 61.6033C35.4318 61.6033 35.4557 61.651 35.4557 61.8121C35.4557 61.9731 35.4318 62.0209 35.3423 62.0209C35.2588 62.0209 35.2349 61.9731 35.2349 61.8121Z" fill="#1E86C4"/>
<path d="M55.2677 61.1259C55.2975 60.243 55.2975 60.2311 55.1663 60.2311C55.0828 60.2311 55.041 60.1953 55.041 60.1118C55.041 60.0163 55.0828 59.9924 55.2498 59.9924C55.393 59.9924 55.4586 59.9626 55.4586 59.903C55.4586 59.8254 55.6078 59.8135 56.443 59.8135H57.4273V60.8813V61.9432L57.2066 61.985C57.0813 62.0029 56.5861 62.0208 56.1089 62.0208H55.2319L55.2677 61.1259Z" fill="#1E86C4"/>
<path d="M68.6428 61.9553C68.5593 61.9195 68.2789 61.9016 68.0164 61.9136C67.7539 61.9195 66.4057 61.9195 65.0216 61.9136L62.4982 61.9016V61.0366V60.1716H60.7084H58.9187V58.352V56.5325H57.9941H57.0694V55.6377V54.7428H54.4445C52.1536 54.7428 51.8196 54.7309 51.8196 54.6533C51.8196 54.5996 51.7659 54.5638 51.6943 54.5638C51.5809 54.5638 51.569 54.54 51.6048 54.3789C51.6227 54.2775 51.6406 53.8599 51.6406 53.4542V52.7145H54.4445H57.2483V53.6391V54.5638H59.0679H60.8874V53.6391V52.7085L61.8002 52.7264L62.707 52.7443L62.7249 53.0068C62.7368 53.1738 62.7189 53.2872 62.6652 53.317C62.6055 53.3588 62.6055 53.3707 62.6652 53.3707C62.7129 53.3707 62.7368 53.49 62.7368 53.7585C62.7368 54.0269 62.7129 54.1462 62.6652 54.1462C62.6055 54.1462 62.6115 54.1641 62.6712 54.1999C62.7368 54.2417 62.7368 54.2536 62.6712 54.2834C62.6115 54.3073 62.6115 54.3192 62.6652 54.3192C62.701 54.3252 62.7368 54.3908 62.7368 54.4743C62.7368 54.5579 62.701 54.6235 62.6652 54.6235C62.6055 54.6235 62.6115 54.6414 62.6712 54.6772C62.7368 54.7189 62.7368 54.7309 62.6712 54.7607C62.6055 54.7846 62.6055 54.7965 62.6771 54.7965C62.7547 54.8025 62.7547 54.8084 62.6771 54.8621C62.5996 54.9158 62.5996 54.9218 62.6771 54.9218C62.7547 54.9218 62.7547 54.9277 62.6771 54.9814C62.6175 55.0172 62.6115 55.0411 62.6652 55.0411C62.707 55.0411 62.7368 55.1246 62.7368 55.2499C62.7368 55.3752 62.707 55.4587 62.6652 55.4587C62.6115 55.4587 62.6175 55.4825 62.6771 55.5183C62.7368 55.5541 62.7428 55.578 62.695 55.578C62.6533 55.578 62.6175 55.6138 62.6175 55.6615C62.6175 55.7092 62.6533 55.7629 62.695 55.7749C62.7547 55.7987 62.7547 55.8107 62.695 55.8107C62.6533 55.8166 62.6175 55.8524 62.6175 55.9001C62.6175 55.9479 62.6533 55.9956 62.695 56.0135C62.7487 56.0314 62.7487 56.0731 62.6831 56.1925L62.5996 56.3535H61.7405H60.8874V57.2782V58.2029H63.566C65.648 58.2029 66.2625 58.185 66.2983 58.1313C66.3222 58.0896 66.346 57.6779 66.346 57.2186V56.3834L67.2588 56.3655L68.1656 56.3476V57.2782V58.2029H70.8382C72.437 58.2029 73.5347 58.179 73.5705 58.1492C73.6003 58.1134 73.6123 57.7376 73.5944 57.2365C73.5705 56.5385 73.5466 56.3834 73.475 56.3774C73.4273 56.3714 73.3378 56.3655 73.2841 56.3595C73.2245 56.3595 73.1768 56.3118 73.1768 56.2641C73.1768 56.1865 73.5347 56.1746 76.0403 56.1746H78.9038V55.2797V54.3849H79.9777H81.0515V56.3834V58.3819H78.3371H75.6227V59.2767V60.1716L72.8964 60.1835L70.1641 60.2014L70.1462 61.1142L70.1283 62.0209L69.4601 62.015C69.0962 62.015 68.7263 61.9852 68.6428 61.9553Z" fill="#1E86C4"/>
<path d="M19.0678 60.2012V59.9924H18.173H17.2781V58.0833V56.1743H18.2625H19.2468V57.9282C19.2468 58.8887 19.2647 59.8432 19.2826 60.0461C19.3244 60.3921 19.3184 60.41 19.1931 60.41C19.0917 60.41 19.0678 60.3742 19.0678 60.2012Z" fill="#1E86C4"/>
<path d="M24.5384 60.1117C24.5086 59.9983 24.4549 59.9924 23.5183 59.9924H22.528L22.5399 58.1012C22.5518 56.6575 22.5757 56.2101 22.6353 56.1862C22.6711 56.1743 22.7069 56.2041 22.7069 56.2578C22.7069 56.3414 22.8262 56.3533 23.6316 56.3533C24.4131 56.3533 24.5563 56.3414 24.5563 56.2638C24.5563 56.2161 24.5981 56.1743 24.6458 56.1743C24.7233 56.1743 24.7353 56.3294 24.7353 57.1885C24.7353 58.0475 24.7233 58.2027 24.6458 58.2027C24.5682 58.2027 24.5563 58.3399 24.5563 59.0975C24.5563 59.8552 24.5682 59.9924 24.6458 59.9924C24.6935 59.9924 24.7353 60.0461 24.7353 60.1117C24.7353 60.1773 24.6995 60.231 24.6517 60.231C24.61 60.231 24.5563 60.1773 24.5384 60.1117Z" fill="#1E86C4"/>
<path d="M31.8344 60.0223V59.8135H32.6994H33.5645V60.0223V60.2311H32.6994H31.8344V60.0223Z" fill="#1E86C4"/>
<path d="M17.2722 54.9515C17.2722 54.9038 17.2662 54.4206 17.2662 53.8777C17.2662 52.6428 17.2603 52.7144 17.3677 52.7144C17.4452 52.7144 17.4571 52.8814 17.4571 53.8777C17.4571 54.874 17.4452 55.041 17.3677 55.041C17.3199 55.041 17.2782 54.9993 17.2722 54.9515Z" fill="#1E86C4"/>
<path d="M80.6935 51.9985V51.1036H79.7987H78.9038V50.1789V49.2543H77.1738C75.6764 49.2543 75.4437 49.2423 75.4437 49.1648C75.4437 49.117 75.4019 49.0753 75.3542 49.0753C75.2767 49.0753 75.2647 48.944 75.2647 48.2699V47.4645H74.4295C73.7494 47.4645 73.5943 47.4466 73.5943 47.381C73.5943 47.3333 73.5705 47.2856 73.5406 47.2736C73.5108 47.2617 73.475 46.4027 73.4631 45.3646L73.4452 43.4675H74.5309C75.4616 43.4675 75.6227 43.4795 75.6227 43.557C75.6227 43.6047 75.5809 43.6465 75.5332 43.6465C75.4556 43.6465 75.4437 43.7837 75.4437 44.5414V45.4362H76.428H77.4064L77.4243 46.2595L77.4422 47.0768L79.2498 47.0947C80.7949 47.1066 81.0515 47.1185 81.0515 47.1961C81.0515 47.2438 81.0097 47.2856 80.962 47.2856C80.8844 47.2856 80.8725 47.4109 80.8844 48.1685L80.9023 49.0455L83.6346 49.0634C86.0328 49.0753 86.3609 49.0634 86.3609 48.9858C86.3609 48.9381 86.4027 48.8963 86.4504 48.8963C86.528 48.8963 86.5399 49.0514 86.5399 49.9105C86.5399 50.7695 86.528 50.9247 86.4504 50.9247C86.4027 50.9247 86.3609 50.9664 86.3609 51.0141C86.3609 51.0917 86.1283 51.1036 84.6309 51.1036H82.9008V51.909C82.9008 52.5831 82.8889 52.7144 82.8113 52.7144C82.7636 52.7144 82.7218 52.7561 82.7218 52.8038C82.7218 52.8814 82.5667 52.8933 81.7077 52.8933H80.6935V51.9985Z" fill="#1E86C4"/>
<path d="M59.0977 51.8197V50.9248H59.9926H60.8934L60.8755 51.8077L60.8576 52.6847L59.9806 52.7026L59.0977 52.7205V51.8197Z" fill="#1E86C4"/>
<path d="M17.2662 52.5532C17.2304 52.3862 17.2781 52.2371 17.3736 52.2371C17.4273 52.2371 17.4571 52.3027 17.4571 52.4459C17.4571 52.6666 17.3139 52.7441 17.2662 52.5532Z" fill="#1E86C4"/>
<path d="M15.2617 50.0476L15.2796 48.9261L16.3713 48.9082L17.4571 48.8962V50.0297C17.4571 50.9544 17.4392 51.1632 17.3736 51.1632C17.3318 51.1632 17.2781 51.1095 17.2602 51.0439C17.2304 50.9305 17.1767 50.9246 16.3534 50.9246C15.5302 50.9246 15.4765 50.9305 15.4467 51.0439C15.4288 51.1095 15.3751 51.1632 15.3333 51.1632C15.2617 51.1632 15.2498 50.9723 15.2617 50.0476Z" fill="#1E86C4"/>
<path d="M55.4586 49.9999V49.0752L57.2662 49.0871L59.0678 49.105L59.0857 49.9283C59.0976 50.5845 59.0857 50.7695 59.0141 50.8351C58.9425 50.9126 58.6323 50.9246 57.1946 50.9246H55.4586V49.9999Z" fill="#1E86C4"/>
<path d="M86.3788 47.3513C86.3967 47.2678 86.3788 47.2499 86.2953 47.2678C86.1879 47.2976 86.1819 47.2499 86.1819 46.2775V45.2573H87.2558H88.3296V46.361V47.4646H87.3393C86.3967 47.4646 86.349 47.4587 86.3788 47.3513Z" fill="#1E86C4"/>
<path d="M55.4407 47.2438C55.4287 47.2139 55.4287 47.1602 55.4347 47.1244C55.4407 47.0827 55.4466 47.0051 55.4526 46.9574C55.4526 46.9097 55.5003 46.8679 55.5481 46.8679C55.6077 46.8679 55.6375 46.9335 55.6375 47.0767C55.6375 47.2199 55.6077 47.2855 55.554 47.2855C55.5063 47.2855 55.4526 47.2676 55.4407 47.2438Z" fill="#1E86C4"/>
<path d="M57.2483 69.2096C57.2483 69.1321 57.0037 69.1201 55.4287 69.1201H53.6092V68.1954V67.2767L52.7084 67.2588L51.8076 67.2409L51.8135 66.364L51.8255 65.481H48.1804H44.5413L44.5354 65.2305C44.5354 65.0873 44.5294 64.6816 44.5235 64.3177L44.5115 63.6615L43.6047 63.6436L42.692 63.6257V62.7189V61.8121L39.9776 61.83L37.2632 61.8479V60.0224C37.2632 58.4475 37.2513 58.2029 37.1737 58.2029C37.126 58.2029 37.0842 58.1611 37.0842 58.1134C37.0842 58.0657 37.126 58.0239 37.1737 58.0239C37.2214 58.0239 37.2632 58.0657 37.2632 58.1134C37.2632 58.191 37.6092 58.2029 40.0074 58.2029H42.7516V59.0978V59.9926H44.5413C46.0924 59.9926 46.3311 59.9807 46.3311 59.9031C46.3311 59.8256 46.5816 59.8136 48.2401 59.8136H50.1491V60.7085V61.6033H51.0738H51.9985V62.528V63.4527H52.8933H53.7822L53.8001 64.3655L53.818 65.2722L54.7308 65.2901L55.6375 65.308V66.1969V67.0918H56.4429C57.117 67.0918 57.2483 67.1037 57.2483 67.1813C57.2483 67.229 57.29 67.2708 57.3378 67.2708C57.4153 67.2708 57.4273 67.4259 57.4273 68.2849C57.4273 69.144 57.4153 69.2991 57.3378 69.2991C57.29 69.2991 57.2483 69.2573 57.2483 69.2096Z" fill="white"/>
<path d="M35.2349 67.3602C35.2349 67.3124 35.2766 67.2707 35.3244 67.2707C35.4019 67.2707 35.4138 67.1335 35.4138 66.3758V65.481H33.6241C32.0731 65.481 31.8344 65.4929 31.8344 65.5704C31.8344 65.6182 31.7807 65.6599 31.7151 65.6599C31.6376 65.6599 31.5958 65.6182 31.5958 65.5406C31.5958 65.4631 31.6256 65.4332 31.6853 65.4571C31.7628 65.4869 31.7748 65.3676 31.7748 64.5622V63.6316H30.8799C30.1223 63.6316 29.9851 63.6435 29.9851 63.7211C29.9851 63.7688 29.9433 63.8106 29.8956 63.8106C29.8478 63.8106 29.8061 63.7688 29.8061 63.7211C29.8061 63.6734 29.8478 63.6316 29.8956 63.6316C29.9731 63.6316 29.9851 63.4944 29.9851 62.7367V61.8419H29.0902C28.3326 61.8419 28.1953 61.8538 28.1953 61.9314C28.1953 61.9791 28.1417 62.0209 28.076 62.0209C27.9985 62.0209 27.9567 61.9791 27.9567 61.9015C27.9567 61.8359 27.9985 61.7822 28.0462 61.7822C28.1238 61.7822 28.1357 61.645 28.1357 60.8874V59.9925H27.2408C26.4832 59.9925 26.346 60.0045 26.346 60.082C26.346 60.1297 26.3042 60.1715 26.2565 60.1715C26.2088 60.1715 26.167 60.1297 26.167 60.082C26.167 60.0343 26.2088 59.9925 26.2565 59.9925C26.3341 59.9925 26.346 59.8553 26.346 59.0977V58.2028H25.4511H24.5563V55.3691V52.5354H25.5406H26.525V54.3549V56.1745H27.2408H27.9567V55.2796V54.3848H29.9552H31.9478L31.9657 55.2677L31.9836 56.1446L32.8963 56.1625L33.8031 56.1804V57.0992V58.0179L34.7099 58.0358C35.3661 58.0477 35.6167 58.0716 35.6405 58.1312C35.6525 58.167 35.6167 58.2028 35.5511 58.2028C35.4496 58.2028 35.4437 58.2983 35.4556 60.0701L35.4616 61.9314L34.6502 61.9612L33.8329 61.991L33.815 62.7248L33.7971 63.4526H34.6383C35.3423 63.4526 35.4735 63.4646 35.4735 63.5421C35.4735 63.5898 35.5033 63.6316 35.5332 63.6316C35.569 63.6316 35.5928 63.9478 35.5928 64.4668V65.302H37.3527C38.4862 65.302 39.1126 65.3259 39.1126 65.3616C39.1126 65.3974 39.1543 65.4213 39.2021 65.4213C39.2796 65.4213 39.2915 65.5645 39.2915 66.346V67.2707H37.3825C35.7241 67.2707 35.4735 67.2826 35.4735 67.3602C35.4735 67.4079 35.4198 67.4496 35.3542 67.4496C35.2886 67.4496 35.2349 67.4079 35.2349 67.3602ZM33.4452 60.8874V60.1715H32.7293H32.0134V60.8874V61.6033H32.7293H33.4452V60.8874ZM33.0753 60.0104C32.8844 59.9985 32.5622 59.9985 32.3594 60.0104C32.1506 60.0224 32.3057 60.0283 32.6995 60.0283C33.0932 60.0283 33.2602 60.0224 33.0753 60.0104ZM31.6555 59.0977V58.3818H30.9097H30.164V59.0977V59.8136H30.9097H31.6555V59.0977ZM29.7942 57.296L29.7763 56.5622L29.0484 56.5443L28.3147 56.5265V57.2781V58.0238H29.0604H29.8121L29.7942 57.296Z" fill="white"/>
<path d="M68.1656 67.3602C68.1656 67.2826 67.7241 67.2707 64.5265 67.2707H60.8874V66.3758C60.8874 65.6182 60.8755 65.481 60.7979 65.481C60.7204 65.481 60.7084 65.3259 60.7084 64.4668V63.4526L61.8002 63.4646L62.8859 63.4825L62.9038 64.3952L62.9217 65.302H65.4512H67.9866V64.3773V63.4526H68.9172H69.8538L69.824 62.6234C69.8061 61.9552 69.8121 61.8001 69.8777 61.824C69.9254 61.8419 69.9553 61.8061 69.9553 61.7286V61.6033H72.789C75.5809 61.6033 75.6227 61.6033 75.6227 61.7226C75.6227 61.7882 75.5809 61.8419 75.5332 61.8419C75.4556 61.8419 75.4437 61.9791 75.4437 62.7129C75.4437 63.5302 75.4497 63.5839 75.563 63.6137C75.6286 63.6316 75.6823 63.6853 75.6823 63.7271C75.6823 63.7748 75.6286 63.8106 75.563 63.8106C75.4974 63.8106 75.4437 63.7688 75.4437 63.7211C75.4437 63.6435 75.1991 63.6316 73.6242 63.6316H71.7987L71.8166 64.5444C71.8285 65.2304 71.8524 65.4452 71.912 65.4332C71.9478 65.4273 71.9836 65.475 71.9836 65.5406C71.9836 65.6063 71.9418 65.6599 71.8941 65.6599C71.8464 65.6599 71.8046 65.6182 71.8046 65.5705C71.8046 65.4929 71.56 65.481 69.9851 65.481H68.1656V66.3758C68.1656 67.1335 68.1775 67.2707 68.255 67.2707C68.3028 67.2707 68.3445 67.3124 68.3445 67.3602C68.3445 67.4079 68.3028 67.4497 68.255 67.4497C68.2073 67.4497 68.1656 67.4079 68.1656 67.3602Z" fill="white"/>
<path d="M57.117 61.985C57.0276 61.9015 57.0633 61.7106 57.1588 61.7464C57.2363 61.7762 57.2483 61.6569 57.2483 60.8874V59.9925H56.3534H55.4586V59.0977V58.2028H54.5339C53.7524 58.2028 53.6092 58.2147 53.6092 58.2923C53.6092 58.34 53.5674 58.3818 53.5197 58.3818C53.472 58.3818 53.4302 58.34 53.4302 58.2923C53.4302 58.2446 53.472 58.2028 53.5197 58.2028C53.5973 58.2028 53.6092 58.0596 53.6092 57.2781V56.3475L52.7144 56.3594C51.8911 56.3654 51.8195 56.3713 51.8195 56.4727C51.8195 56.5503 51.7897 56.5742 51.7002 56.5503C51.5689 56.5145 51.5331 56.3534 51.6644 56.3534C51.7777 56.3534 51.8076 56.1566 51.8135 55.2856L51.8255 54.5339L50 54.5518C48.4429 54.5637 48.1804 54.5816 48.1804 54.6532C48.1804 54.7308 48.0313 54.7427 47.2557 54.7427H46.3311V53.7285V52.7144H49.0753H51.8135L51.8314 53.6271L51.8493 54.5339L53.7464 54.5518L55.6375 54.5637V56.2938V58.0238H56.5324H57.4273V58.9187V59.8135H58.2624C58.9664 59.8135 59.0976 59.8255 59.0976 59.903C59.0976 59.9507 59.1394 59.9925 59.1871 59.9925C59.2647 59.9925 59.2766 60.1416 59.2766 60.9768V61.9612H58.519C58.0954 61.9612 57.6241 61.9791 57.4571 61.997C57.296 62.0149 57.1409 62.0149 57.117 61.985Z" fill="white"/>
<path d="M20.7263 60.1357C20.7084 60.1178 20.7084 59.7181 20.7263 59.2409L20.7562 58.3818H19.909H19.0679V57.3676V56.3475L18.1909 56.3594L17.308 56.3654L17.2901 52.7204C17.2782 49.5347 17.2662 49.0753 17.1887 49.0753C17.1409 49.0753 17.0992 49.0335 17.0992 48.9858C17.0992 48.9083 17.3438 48.8963 19.0798 48.9083C20.5951 48.9202 21.0604 48.9441 21.0843 49.0037C21.0962 49.0395 21.0664 49.0753 21.0127 49.0753C20.9292 49.0753 20.9172 49.3557 20.9172 51.8195V54.5638H21.8121H22.701L22.7189 55.4765C22.7308 55.9717 22.7308 57.1946 22.7189 58.1909L22.701 59.9925H21.8121C21.0544 59.9925 20.9172 60.0045 20.9172 60.082C20.9172 60.1715 20.7919 60.2073 20.7263 60.1357Z" fill="white"/>
<path d="M55.2797 60.1119C55.2797 60.0821 55.3214 60.0522 55.3691 60.0522C55.4169 60.0522 55.4586 60.0821 55.4586 60.1119C55.4586 60.1477 55.4169 60.1716 55.3691 60.1716C55.3214 60.1716 55.2797 60.1477 55.2797 60.1119Z" fill="white"/>
<path d="M13.4004 58.2921C13.4004 58.2444 13.4362 58.2026 13.4839 58.2026C13.6152 58.2026 13.639 58.0595 13.639 57.2183C13.639 56.5501 13.6271 56.4189 13.5436 56.3891C13.4899 56.3712 13.0902 56.3533 12.6487 56.3533C11.9925 56.3533 11.8374 56.3712 11.8135 56.4428C11.7897 56.4905 11.7419 56.5322 11.6942 56.5322C11.6226 56.5322 11.6107 55.9595 11.6226 52.7321L11.6405 48.926L13.6569 48.9081C15.3452 48.8962 15.6674 48.9081 15.6674 48.9797C15.6674 49.0214 15.6137 49.0751 15.5481 49.093C15.4287 49.1228 15.4287 49.1706 15.4347 53.6508V58.1728L14.5398 58.1907C13.7941 58.2026 13.639 58.2205 13.639 58.2921C13.639 58.3399 13.5853 58.3816 13.5197 58.3816C13.4541 58.3816 13.4004 58.3399 13.4004 58.2921Z" fill="white"/>
<path d="M69.9851 56.2997C69.9672 56.252 69.9553 55.4347 69.9553 54.4802L69.9613 52.7442L69.0664 52.7263L68.1656 52.7084V51.8195V50.9246H67.2409H66.3162V50.0059V49.0872H65.4393H64.5563L64.5384 48.1864L64.5206 47.2856H62.707H60.8874V46.3609V45.4422L59.9807 45.4243L59.0739 45.4064L59.0858 44.5294L59.0918 43.6465H58.173H57.2484V42.7516V41.8568H55.4288H53.6033L53.6153 42.7397L53.6212 43.6167H52.7144H51.8076L51.8136 42.7397L51.8255 41.8568H50.8949H49.9702V40.9321V40.0074H49.0754H48.1865L48.1686 40.9202L48.1507 41.8269H47.2558H46.361V40.9142V40.0074H44.5235H42.6861L42.6921 38.2058L42.698 36.3982L40.9083 36.3803L39.1126 36.3683V38.1879V40.0074H33.6242H28.1298L28.1477 39.1006L28.1656 38.1879L29.9792 38.158L31.7927 38.1282L31.7808 37.2453L31.7689 36.3683H34.5131H37.2633V35.4735V34.5846L36.3565 34.5667L35.4437 34.5488L35.4258 33.642L35.4079 32.7293H34.5191H33.6242V33.6539V34.5786H31.8047H29.9851V35.4735V36.3683H28.1656H26.352L26.3341 37.2811L26.3162 38.1879L24.5265 38.2177L22.7368 38.2475L22.7308 38.8441C22.7249 39.1722 22.7189 39.5659 22.7129 39.727L22.707 40.0074H21.8121H20.9173L20.9113 39.7389C20.9113 39.5898 20.9113 39.3512 20.9113 39.202C20.9113 39.0529 20.9113 38.7606 20.9113 38.5458L20.9173 38.158H21.8121H22.707V37.2632V36.3683H21.8121H20.9173V37.2572C20.9173 38.0149 20.9053 38.1521 20.8218 38.1819C20.7681 38.1998 20.3565 38.2177 19.8971 38.2177H19.0679V39.1125V40.0074H18.173H17.2842L17.2663 40.9202L17.2484 41.8269L16.3356 41.8448L15.4229 41.8627L15.4288 43.6345L15.4348 45.4064H14.534H13.6272L13.6332 43.6524C13.6391 42.686 13.657 41.8747 13.6749 41.8448C13.6928 41.815 14.0865 41.7971 14.5519 41.8031L15.399 41.809L15.4169 40.9082L15.4348 40.0074H14.534H13.6391V40.9321V41.8568H12.7144C11.9329 41.8568 11.7897 41.8687 11.7897 41.9463C11.7897 41.994 11.748 42.0357 11.7003 42.0357C11.6227 42.0357 11.6108 41.7792 11.6108 40.0969C11.6108 38.4146 11.6227 38.158 11.7003 38.158C11.748 38.158 11.7897 38.1342 11.7897 38.0984C11.7897 38.0686 12.1298 38.0328 12.6071 38.0268L13.4303 38.0089L13.4482 37.1856C13.4601 36.5115 13.478 36.3683 13.5496 36.3683C13.5974 36.3683 13.6391 36.3266 13.6391 36.2788C13.6391 36.2013 13.7704 36.1894 14.4445 36.1894H15.2499V35.3542C15.2499 34.6502 15.2618 34.519 15.3393 34.519C15.3871 34.519 15.4288 34.4951 15.4288 34.4593C15.4288 34.4235 16.0433 34.3996 17.1589 34.3996H18.8889V33.5645C18.8889 32.8605 18.9009 32.7293 18.9784 32.7293C19.0261 32.7293 19.0679 32.6875 19.0679 32.6398C19.0679 32.5622 19.1991 32.5503 19.9031 32.5503H20.7383V31.7151C20.7383 31.0111 20.7502 30.8799 20.8278 30.8799C20.8755 30.8799 20.9173 30.856 20.9173 30.8202C20.9173 30.7844 22.1641 30.7546 24.449 30.7486L27.9866 30.7307L28.0045 29.9134C28.0105 29.4302 28.0463 29.0902 28.0761 29.0902C28.1119 29.0902 28.1358 29.0484 28.1358 29.0007C28.1358 28.9231 28.4698 28.9112 30.7905 28.9112H33.4452V28.07C33.4452 27.4914 33.4631 27.2468 33.5109 27.2706C33.5466 27.2945 33.5884 27.2647 33.6003 27.205C33.6302 27.0976 33.7435 27.0917 36.3565 27.1096C38.003 27.1215 39.0888 27.1513 39.1007 27.1871C39.1126 27.2169 39.1544 27.2408 39.1962 27.2408C39.2558 27.2408 39.2737 27.4377 39.2678 28.0641L39.2618 28.8814L41.9046 28.8993C44.1954 28.9112 44.5414 28.9231 44.5414 29.0007C44.5414 29.0484 44.5832 29.0902 44.6309 29.0902C44.7085 29.0902 44.7204 29.2214 44.7204 29.9313V30.7725L45.5198 30.7486C46.2476 30.7307 46.3252 30.7427 46.355 30.8381C46.3669 30.8918 46.4147 30.9276 46.4624 30.9097C46.528 30.8859 46.5399 31.0231 46.522 31.7151L46.4982 32.5503H49.1589C51.4855 32.5503 51.8196 32.5622 51.8196 32.6398C51.8196 32.6875 51.8613 32.7293 51.9091 32.7293C51.9866 32.7293 51.9986 32.8605 51.9986 33.5645V34.3996H52.8039C53.2991 34.3996 53.6093 34.4235 53.6093 34.4593C53.6093 34.4951 53.651 34.519 53.6988 34.519C53.7763 34.519 53.7883 34.7576 53.7883 36.2848V38.0566L54.6235 38.0268C55.2857 38.0089 55.4587 38.0149 55.4587 38.0805C55.4587 38.1222 55.5004 38.158 55.5481 38.158C55.6257 38.158 55.6376 38.2893 55.6376 38.9932V39.8284H56.443C57.1171 39.8284 57.2484 39.8404 57.2484 39.9179C57.2484 39.9656 57.2901 40.0074 57.3379 40.0074C57.4094 40.0074 57.4273 40.1506 57.4393 40.8247L57.4572 41.648L58.2804 41.6659C58.7577 41.6718 59.0977 41.7076 59.0977 41.7375C59.0977 41.7732 59.1395 41.7971 59.1872 41.7971C59.2648 41.7971 59.2767 41.9284 59.2767 42.6323V43.4675H60.1716H61.0664V44.3624V45.2572H62.7965C64.2939 45.2572 64.5265 45.2691 64.5265 45.3467C64.5265 45.3944 64.5683 45.4362 64.616 45.4362C64.6936 45.4362 64.7055 45.5674 64.7055 46.2714V47.1066H65.5407C66.2446 47.1066 66.3759 47.1185 66.3759 47.1961C66.3759 47.2438 66.4057 47.2856 66.4355 47.2856C66.4713 47.2856 66.4952 47.5958 66.4952 48.0909V48.8963H67.3304C68.0343 48.8963 68.1656 48.9082 68.1656 48.9858C68.1656 49.0335 68.2074 49.0753 68.2551 49.0753C68.3326 49.0753 68.3446 49.2065 68.3446 49.9105V50.7457H69.1798C69.8837 50.7457 70.015 50.7576 70.015 50.8351C70.015 50.8829 70.0508 50.9246 70.0925 50.9246C70.1581 50.9246 70.1701 51.0857 70.1462 51.73L70.1164 52.5354H75.4974C80.2342 52.5354 80.8725 52.5473 80.8725 52.6249C80.8725 52.6726 80.9143 52.7143 80.962 52.7143C81.0396 52.7143 81.0515 52.8694 81.0515 53.7285C81.0515 54.5876 81.0396 54.7427 80.962 54.7427C80.9143 54.7427 80.8725 54.7009 80.8725 54.6532C80.8725 54.5756 80.7353 54.5637 79.9777 54.5637H79.0888L79.0709 55.4586L79.053 56.3534L74.537 56.3653C70.701 56.3832 70.009 56.3713 69.9851 56.2997ZM17.2782 39.0827V38.158H18.173H19.0679V37.2632V36.3683H19.9568C20.7144 36.3683 20.8516 36.3564 20.8815 36.2729C20.8994 36.2192 20.9173 35.8195 20.9173 35.378V34.5786H19.9926H19.0679V35.4735V36.3683H18.173H17.2782V37.2572C17.2782 38.0387 17.2663 38.1521 17.1768 38.1819C17.1231 38.2058 16.7353 38.2177 16.3237 38.2177C15.912 38.2117 15.5422 38.2117 15.5064 38.2117C15.4467 38.2177 15.4288 38.4325 15.4288 39.0708C15.4288 39.5421 15.4467 39.9477 15.4706 39.9656C15.4885 39.9895 15.9061 40.0074 16.3953 40.0074H17.2782V39.0827ZM48.1686 39.1066L48.1507 38.2117H47.3035C46.8323 38.2117 46.4266 38.2177 46.3908 38.2177C46.3252 38.2177 46.3073 39.9 46.3729 39.9656C46.3908 39.9895 46.8084 40.0074 47.2976 40.0074H48.1865L48.1686 39.1066Z" fill="white"/>
<path d="M35.2946 49.9999V48.8962H36.3684H37.4422V49.9999V51.1035H36.3684H35.2946V49.9999Z" fill="white"/>
<path d="M86.3609 47.3751C86.3609 47.2975 86.2058 47.2856 85.3467 47.2856H84.3326V45.466C84.3326 43.8911 84.3445 43.6465 84.4221 43.6465C84.4698 43.6465 84.5116 43.6047 84.5116 43.557C84.5116 43.4795 84.7621 43.4675 86.4206 43.4675H88.3296V44.5414C88.3296 45.4541 88.3177 45.6152 88.2401 45.6152C88.1924 45.6152 88.1506 45.5734 88.1506 45.5257C88.1506 45.4481 88.0134 45.4362 87.2558 45.4362H86.3609V46.3609C86.3609 47.1424 86.3728 47.2856 86.4504 47.2856C86.4981 47.2856 86.5399 47.3273 86.5399 47.3751C86.5399 47.4228 86.4981 47.4645 86.4504 47.4645C86.4027 47.4645 86.3609 47.4228 86.3609 47.3751Z" fill="white"/>
<path d="M55.4586 46.361V45.4363H56.3534H57.2483V46.361V47.2856H56.3534H55.4586V46.361Z" fill="white"/>
<path d="M73.475 42.7397V41.6479H75.4437H77.4124V42.4593C77.4124 42.9067 77.4303 43.3601 77.4482 43.4615L77.49 43.6465H75.5392C73.8509 43.6465 73.5944 43.6584 73.5944 43.7359C73.5944 43.7837 73.5705 43.8254 73.5347 43.8254C73.4989 43.8254 73.475 43.4257 73.475 42.7397Z" fill="white"/>
<path d="M17.2901 42.7396L17.308 41.8268L18.1909 41.8089L19.0679 41.791V42.7217V43.6463H18.173H17.2722L17.2901 42.7396Z" fill="white"/>
<path d="M20.9172 43.6047C20.8934 43.2706 20.9232 41.8985 20.947 41.8568C20.9709 41.821 21.3646 41.7971 21.8479 41.7971H22.7069L22.7129 42.2624C22.7189 42.513 22.7189 42.9246 22.7189 43.1692L22.7248 43.6167L21.818 43.6346C21.3229 43.6405 20.9172 43.6286 20.9172 43.6047Z" fill="white"/>
<path d="M48.1804 42.7515C48.1804 41.6896 48.085 41.7791 49.2006 41.8089L49.9403 41.8268L49.9582 42.7396L49.9761 43.6464H49.0753H48.1804V42.7515Z" fill="white"/>
<path d="M44.3027 72.8783L42.5428 72.8485V71.9835V71.1184L38.8918 71.1005C35.6942 71.0886 35.2349 71.0767 35.2349 70.9991C35.2349 70.9514 35.2766 70.9096 35.3244 70.9096C35.3959 70.9096 35.4138 70.7545 35.4258 70.0029L35.4437 69.0901L38.176 69.0722L40.9023 69.0603V68.1654V67.2706H40.0074H39.1126V66.3757V65.4809H37.2632H35.4138V64.5562V63.6315H34.519H33.6182L33.6361 62.7247L33.654 61.812L34.513 61.7941C35.1633 61.7821 35.384 61.8 35.4258 61.8537C35.4496 61.8955 35.4735 62.3131 35.4735 62.7844V63.6315H37.293H39.1126V64.5263V65.4212L39.9179 65.4272C40.3594 65.4331 40.7591 65.4391 40.8009 65.4451C40.8546 65.451 40.8784 65.6837 40.8903 66.3578L40.9082 67.2646L41.815 67.2825L42.7218 67.3004L42.7338 69.0901L42.7516 70.8798L44.5414 70.8977L46.3311 70.9096V71.8045C46.3311 72.5621 46.343 72.6994 46.4206 72.6994C46.4683 72.6994 46.51 72.753 46.51 72.8187C46.51 72.9201 46.4742 72.938 46.2893 72.9261C46.164 72.9141 45.2692 72.8962 44.3027 72.8783Z" fill="#0D53A3"/>
<path d="M57.0693 70.9991C57.0693 70.9513 57.1111 70.9096 57.1588 70.9096C57.2364 70.9096 57.2483 70.665 57.2483 69.0901V67.2705H56.3534H55.4586V66.3757V65.4868L54.5518 65.4689L53.639 65.451L53.6212 64.5442L53.6033 63.6314H52.7144H51.8195V62.7068V61.7761L50.9127 61.788L50 61.794L49.9821 60.8932C49.9701 60.1475 49.9522 59.9924 49.8807 59.9924C49.8329 59.9924 49.7912 59.9506 49.7912 59.9029C49.7912 59.8253 49.9344 59.8134 50.7159 59.8134H51.6405V59.0975V58.3816H49.821H48.0015V57.278C48.0015 56.3354 48.0134 56.1743 48.091 56.1743C48.1387 56.1743 48.1804 56.2161 48.1804 56.2638C48.1804 56.3414 48.425 56.3533 50 56.3533H51.8195V57.278V58.2027H52.7144H53.6092V59.0975V59.9924H54.349C54.7546 59.9924 55.1722 60.0103 55.2736 60.0282L55.4646 60.0699L55.4467 60.9528L55.4288 61.8417H56.1864C56.7352 61.8417 56.944 61.8238 56.9679 61.7701C56.9858 61.7105 57.0335 61.7105 57.1648 61.7522C57.2602 61.788 57.7315 61.8059 58.2207 61.794C58.9485 61.7821 59.0977 61.7642 59.0977 61.6926C59.0977 61.6449 59.1394 61.6031 59.1871 61.6031C59.2647 61.6031 59.2766 61.7642 59.2766 62.7068V63.8104H57.4571H55.6376V64.5263V65.2362L56.5145 65.2541C57.296 65.272 57.3974 65.2839 57.4153 65.3794C57.4273 65.439 57.3974 65.4808 57.3437 65.4808C57.2602 65.4808 57.2483 65.6001 57.2483 66.3757V67.2705H58.173H59.0977V68.1654V69.0602L59.9806 69.0662C60.4638 69.0722 60.9053 69.0722 60.9649 69.0662C61.0604 69.0543 61.0663 69.1378 61.0663 70.0684V71.0886H59.0678C57.3318 71.0886 57.0693 71.0766 57.0693 70.9991ZM55.2796 62.7425V62.0386L55.0947 61.9968C54.8561 61.9491 54.0089 61.9491 53.8836 61.9968C53.8061 62.0267 53.7882 62.1519 53.7882 62.7425V63.4525H54.5339H55.2796V62.7425ZM53.4183 60.9051L53.4362 60.1713H52.7144H51.9985V60.917V61.6687L52.7024 61.6508L53.4004 61.6329L53.4183 60.9051Z" fill="#0D53A3"/>
<path d="M26.346 69.2094C26.346 69.1617 26.3042 69.1199 26.2565 69.1199C26.179 69.1199 26.167 68.9887 26.167 68.2847V67.4496H25.2722C24.5145 67.4496 24.3773 67.4376 24.3773 67.3601C24.3773 67.3123 24.4191 67.2706 24.4668 67.2706C24.5384 67.2706 24.5563 67.1155 24.5682 66.3638L24.5861 65.451L26.3162 65.4391C27.2707 65.4272 28.0761 65.4212 28.1059 65.4212C28.1417 65.4212 28.1596 65.0931 28.1536 64.5443L28.1417 63.6613L27.2468 63.6434L26.346 63.6255V62.7367V61.8418H25.4511H24.5563V60.9171V59.9924H25.4511H26.346V60.8873V61.7762L27.2588 61.7941L28.1655 61.812V62.7247V63.6315H29.0783H29.991L29.9731 64.5443L29.9552 65.451L29.0783 65.4689L28.2013 65.4868L28.1834 66.3519C28.1715 66.8291 28.1775 67.2348 28.1894 67.2467C28.2013 67.2587 28.613 67.2706 29.1022 67.2706H29.9851V66.3519V65.4331L30.7547 65.4272C31.1782 65.4212 31.5958 65.4331 31.6793 65.457L31.8344 65.4928V66.3817V67.2706H33.654H35.4735V68.1595C35.4735 68.9171 35.4616 69.0543 35.3781 69.0842C35.3244 69.1021 34.5071 69.1199 33.5585 69.1199C32.0313 69.1199 31.8344 69.1319 31.8344 69.2154C31.8344 69.3407 31.6316 69.2989 31.6077 69.1617C31.5958 69.1021 31.6256 69.0603 31.6793 69.0603C31.7629 69.0603 31.7748 68.941 31.7748 68.1654V67.2706H30.8799H29.9851V68.1654C29.9851 68.9231 29.997 69.0603 30.0746 69.0603C30.1939 69.0603 30.1879 69.2154 30.0686 69.2631C30.0149 69.281 29.1558 69.2989 28.1596 69.2989C26.5846 69.2989 26.346 69.287 26.346 69.2094Z" fill="#0D53A3"/>
<path d="M22.528 65.5405C22.528 65.4749 22.5697 65.4212 22.6174 65.4212C22.689 65.4212 22.7069 65.272 22.7189 64.5442L22.7368 63.6613L23.6495 63.6434L24.5563 63.6255V64.5203C24.5563 65.272 24.5444 65.4152 24.4608 65.445C24.4071 65.4629 23.9955 65.4808 23.5362 65.4808C22.8382 65.4808 22.7069 65.4928 22.7069 65.5703C22.7069 65.618 22.6652 65.6598 22.6174 65.6598C22.5697 65.6598 22.528 65.6061 22.528 65.5405Z" fill="#0D53A3"/>
<path d="M60.6488 65.3617C60.6488 65.2842 60.6906 65.2424 60.7681 65.2424C60.8457 65.2424 60.8874 65.2842 60.8874 65.3617C60.8874 65.4393 60.8457 65.4811 60.7681 65.4811C60.6906 65.4811 60.6488 65.4393 60.6488 65.3617Z" fill="#0D53A3"/>
<path d="M62.7248 64.5741L62.7069 63.6613L61.8002 63.6434C61.0127 63.6315 60.8874 63.6434 60.8874 63.721C60.8874 63.7687 60.8456 63.8105 60.7979 63.8105C60.7204 63.8105 60.7084 63.5599 60.7084 61.9015V59.9924L61.6987 60.0044L62.689 60.0223L62.6831 60.8754L62.6711 61.7225H65.1946C66.5846 61.7284 67.9806 61.7284 68.2968 61.7284C68.6189 61.7284 68.8934 61.7523 68.9053 61.7762C68.953 61.8537 69.7166 61.8597 69.7166 61.7821C69.7166 61.7463 69.7823 61.7642 69.8658 61.8179C70.0149 61.9134 70.0149 61.9253 70.0149 62.7724V63.6315H69.0902H68.1656V64.5562V65.4809H65.4512H62.7427L62.7248 64.5741Z" fill="#0D53A3"/>
<path d="M15.4288 63.7212C15.4288 63.6734 15.387 63.6317 15.3393 63.6317C15.2617 63.6317 15.2498 63.4766 15.2498 62.6175C15.2498 61.7584 15.2617 61.6033 15.3393 61.6033C15.387 61.6033 15.4288 61.6451 15.4288 61.6928C15.4288 61.7704 15.6734 61.7823 17.2483 61.7823H19.0679L19.0738 60.9948C19.0738 60.5593 19.0738 59.754 19.0679 59.2051L19.0619 58.2029H19.9866H20.9172L20.8993 60.0105L20.8874 61.8121L19.9806 61.83L19.0679 61.8479V62.8263V63.8106H17.2483C15.6734 63.8106 15.4288 63.7987 15.4288 63.7212Z" fill="#0D53A3"/>
<path d="M20.9292 62.7247L20.947 61.8119L21.83 61.794L22.7069 61.7761V62.7068V63.6315H21.8121H20.9113L20.9292 62.7247Z" fill="#0D53A3"/>
<path d="M79.0708 61.9195C79.041 61.8181 78.7726 61.8121 74.4952 61.8121H69.9553L69.9672 60.9173L69.9851 60.0224L72.7174 60.0045L75.4437 59.9926V59.0977V58.2029H77.3527H79.2617V60.1119C79.2617 61.6988 79.2498 62.0209 79.1782 62.0209C79.1365 62.0209 79.0828 61.9732 79.0708 61.9195Z" fill="#0D53A3"/>
<path d="M31.8523 61.7643C31.8404 61.7405 31.8225 61.3348 31.8165 60.8695L31.8046 60.0223L30.8978 60.0045L29.985 59.9866V59.0977V58.2028H29.0603H28.1357V57.3139C28.1357 56.5324 28.1237 56.4191 28.0342 56.3892C27.9805 56.3654 27.5808 56.3534 27.1513 56.3594L26.3758 56.3654L26.3579 55.3751L26.3459 54.3848H27.3303C28.1655 54.3848 28.3146 54.3967 28.3146 54.4743C28.3146 54.522 28.2788 54.5637 28.2311 54.5637C28.1655 54.5637 28.1476 54.7487 28.1416 55.4586L28.1297 56.3475L29.0424 56.3654L29.9552 56.3833L29.9731 57.296L29.991 58.2028H30.9097H31.8344V59.0977V59.9866L32.0492 60.0283C32.1625 60.0462 32.5682 60.0522 32.944 60.0402L33.6241 60.0164V60.8933V61.7763L32.7531 61.7942C32.2759 61.8061 31.8702 61.7882 31.8523 61.7643Z" fill="#0D53A3"/>
<path d="M11.6108 56.3833C11.6108 56.1626 11.754 56.085 11.8017 56.2819C11.8375 56.4429 11.7897 56.5921 11.6943 56.5921C11.6406 56.5921 11.6108 56.5265 11.6108 56.3833Z" fill="#0D53A3"/>
<path d="M33.6242 56.4429C33.6242 56.3952 33.5824 56.3534 33.5347 56.3534C33.4571 56.3534 33.4452 56.2043 33.4452 55.3691V54.3848H36.1596H38.868L38.8859 53.478L38.9038 52.5652L39.906 52.5473L40.9023 52.5354V53.5436V54.5578L39.9955 54.5757L39.0828 54.5936V55.4586V56.3236L38.176 56.3415C37.4183 56.3534 37.2632 56.3713 37.2632 56.4429C37.2632 56.5205 37.0067 56.5324 35.4437 56.5324C33.8688 56.5324 33.6242 56.5205 33.6242 56.4429Z" fill="#0D53A3"/>
<path d="M77.2752 47.2439C77.2514 47.226 77.2335 46.8084 77.2335 46.3192V45.4363H78.1581C78.9396 45.4363 79.0828 45.4244 79.0828 45.3468C79.0828 45.2693 79.232 45.2573 80.0612 45.2573C80.6041 45.2573 81.0575 45.2752 81.0694 45.305C81.0813 45.3289 81.0813 45.7823 81.0634 46.3192L81.0336 47.2857H79.1723C78.1522 47.2857 77.2931 47.2678 77.2752 47.2439Z" fill="#0D53A3"/>
<path d="M82.507 47.1007C82.5249 46.9993 82.5428 46.5399 82.5428 46.0866V45.2573H83.5272H84.5056L84.5235 46.2715L84.5413 47.2857H83.5033H82.4713L82.507 47.1007Z" fill="#0D53A3"/>
<path d="M40.8904 73.654L40.8725 72.7592L36.3386 72.7413L31.8046 72.7293L31.7867 71.8225L31.7688 70.9098H29.0604H26.346V70.0149V69.1201H24.5265H22.7069V68.1954V67.2707H20.8874H19.0738L19.0559 66.3759L19.038 65.475L17.2483 65.4631L15.4586 65.4512L15.4407 64.5444L15.4228 63.6316H14.5339H13.6391L13.6271 61.83L13.6092 60.0224L12.7025 60.0045L11.7897 59.9866V59.0977V58.2029H10.8949H10V48.1805V38.1581H10.8949H11.7897V37.2633V36.3684H12.7144H13.6391V35.4437V34.519H14.5339H15.4288V33.6242V32.7293H17.2483H19.0619L19.0798 31.8225L19.0977 30.9098L20.0045 30.8919L20.9172 30.874V29.9851V29.0902H24.5265H28.1298L28.1477 28.1835L28.1655 27.2707L30.8799 27.2588L33.5943 27.2468L33.6122 26.346L33.6301 25.4512L36.3565 25.4631L39.0828 25.481L39.1007 26.358L39.1186 27.2409H41.827H44.5414V28.1656V29.0902H45.4362H46.3311V30.0149V30.9396H45.4362H44.5414V30.0149V29.0902L41.8151 29.0783L39.0828 29.0604L39.0708 28.2073C39.0649 27.736 39.0529 27.3363 39.041 27.3244C39.0231 27.3125 37.8121 27.3005 36.3326 27.3005L33.654 27.2946L33.6361 28.1954L33.6182 29.0902H30.9098H28.2013L28.1834 29.997L28.1655 30.9098L24.5384 30.9277L20.9172 30.9396V31.8345V32.7234L20.0045 32.7413L19.0977 32.7592L19.0798 33.6719L19.0619 34.5787H17.2483H15.4288V35.4735V36.3684H14.5339H13.645L13.6271 37.2812L13.6092 38.1879L12.6965 38.2058L11.7897 38.2237L11.8016 42.7398L11.8195 47.2558L18.1909 47.2737L24.5563 47.2856V48.1805V49.0753H25.4512H26.346V50V50.9247H27.2707H28.2013L28.1894 51.8076L28.1834 52.6846L29.9791 52.7025L31.7748 52.7144V50.8949V49.0753H32.6995H33.6182L33.6361 48.1805C33.648 47.6853 33.6719 47.2856 33.7017 47.2856C33.7256 47.2856 34.9545 47.2856 36.428 47.2856H39.1126V48.1805V49.0753H40.0075H40.9023V50.8949V52.7084L39.9955 52.7263L39.0828 52.7442V53.651V54.5638H36.3565H33.6242V55.4586V56.3535H35.4437H37.2632V57.2782V58.2029H35.4437H33.6242V57.2782V56.3595L32.7174 56.3416L31.8046 56.3237L31.7867 55.4467L31.7688 54.5638H29.0604H26.346V53.6391V52.7144H25.4512H24.5563V51.8196V50.9247H23.6316H22.7069V50V49.0753L17.2662 49.0932L11.8195 49.1052V53.6391V58.173L12.7323 58.1909L13.6391 58.2088V59.0977V59.9926H14.5339H15.4288L15.4407 61.8002L15.4586 63.6018L17.2603 63.6197L19.0679 63.6316V64.5444V65.4512L20.8874 65.4333L22.7069 65.4154V66.346V67.2707H24.5265H26.346V68.2014V69.126L29.0902 69.0902L31.8404 69.0545L31.8285 69.9672L31.8225 70.88L37.2752 70.9098L42.7219 70.9396V71.8046L42.7278 72.6697L44.5116 72.6995C45.4959 72.7174 47.1245 72.7234 48.1387 72.7114L49.9702 72.6935V71.8046V70.9098H55.4288H60.8874V69.9851V69.0604L64.5145 69.0724L68.1357 69.0902L68.1536 70.003L68.1715 70.9098H65.4571H62.7427L62.7248 71.8225L62.7069 72.7293L57.2662 72.7472L51.8195 72.7592V73.654V74.5489H46.3609H40.9083L40.8904 73.654ZM37.2632 50V49.0753H36.3684H35.4735V50V50.9247H36.3684H37.2632V50Z" fill="black"/>
<path d="M68.1656 68.1953V67.2706H69.9851H71.8047V66.346V65.4272L73.6123 65.4392L75.4139 65.4511L75.4318 66.3639L75.4497 67.2706H73.6302H71.8106L71.7927 68.1834L71.7748 69.0902L69.9732 69.1081L68.1656 69.12V68.1953Z" fill="black"/>
<path d="M55.4586 64.5443V63.6316H54.5339H53.6092V62.7367C53.6092 61.6748 53.5078 61.7643 54.6592 61.7941L55.4287 61.812L55.4466 62.7248L55.4645 63.6316H57.2781H59.0977L59.0857 61.8299L59.0678 60.0223L58.161 60.0044L57.2483 59.9865V59.0977V58.2028H56.3534H55.4586V56.3833V54.5637H56.3534H57.2483V55.4586V56.3534H58.173H59.0977V58.173V59.9925H59.9925H60.8874L60.8754 62.7248L60.8575 65.4511H58.161H55.4586V64.5443Z" fill="black"/>
<path d="M75.4437 64.5563V63.6316H77.2632H79.0827V60.9172V58.2028H79.9776H80.8724V55.4586V52.7144H75.4138H69.9492L69.9612 51.8374L69.9671 50.9545L69.0663 50.9366L68.1715 50.9187L68.1536 50.0119L68.1357 49.1052L67.2289 49.0873L66.3161 49.0694V48.1805V47.2856H65.4213H64.5264V46.3609V45.4363H62.7069H60.8874V44.5414V43.6465H59.9925H59.0976V42.7517V41.8628L58.1909 41.8449L57.2781 41.827L57.2602 40.9202L57.2423 40.0075H56.3534H55.4645L55.4466 39.1067L55.4287 38.2058L54.522 38.2118L53.6092 38.2237V36.3982V34.5787H52.7144H51.8195V33.654V32.7293H49.0753H46.3311V31.8345C46.3311 30.9575 46.3311 30.9396 46.4683 30.9098C46.5399 30.8919 47.7688 30.8859 49.1946 30.8919L51.7897 30.9098L51.8076 31.8225L51.8255 32.7293H52.7144H53.6092V33.6242V34.5131L54.522 34.531L55.4287 34.5489L55.4466 36.3505L55.4586 38.1521L56.3415 38.17L57.2185 38.1879L57.2363 39.1007L57.2542 40.0075H58.173H59.0976V40.9023V41.7972L60.9053 41.8091L62.7069 41.827L62.7248 42.7398L62.7427 43.6465H63.6316H64.5264V44.5414V45.4303L65.4392 45.4482L66.346 45.4661L66.3639 46.3788L66.3818 47.2856H67.2707H68.1655V48.1805V49.0694L69.0783 49.0873L69.985 49.1052L70.0029 50.0179L70.0208 50.9247H72.7293H75.4437V50V49.0813L74.5369 49.0634L73.6241 49.0455L73.6062 48.1685L73.5883 47.2856H72.6994H71.8046V41.827V36.3684H73.6241H75.4437V37.2633V38.1581H76.3385H77.2334V39.0828V40.0075H79.0529H80.8724L80.8844 41.8151L80.9023 43.6167L82.7039 43.6346L84.5056 43.6465L84.5234 42.7398L84.5413 41.827L87.2736 41.8091L90 41.7972V46.3609V50.9247H88.1804H86.3609V51.8196V52.7144H84.5413H82.7218V56.3535V59.9866L81.815 60.0045L80.9023 60.0224L80.8844 61.83L80.8724 63.6316H79.9776H79.0887L79.0708 64.5444L79.0529 65.4512L77.2513 65.4691L75.4437 65.481V64.5563ZM82.7218 51.8196V50.9247H84.5413H86.3609V49.1052V47.2856H87.2557H88.1506V45.4661V43.6465H86.3311H84.5115V44.5414V45.4363H83.6167H82.7278L82.7099 46.349L82.692 47.2558L81.7792 47.2737L80.8665 47.2916L80.8784 46.3788L80.8844 45.4661L79.9836 45.4482L79.0827 45.4303V44.5414V43.6525L78.1759 43.6346L77.2632 43.6167L77.2334 42.7219L77.2035 41.827H75.4437H73.6838L73.6539 42.7815C73.6361 43.3065 73.6301 44.5354 73.642 45.5138L73.6599 47.2856H74.5488H75.4437V48.1805V49.0753H77.2632H79.0827V50V50.9247H79.9776H80.8724V51.8196V52.7144H81.7971H82.7218V51.8196Z" fill="black"/>
<path d="M51.8195 60.917V59.9923H49.0753H46.3311V57.266V54.5337L47.2557 54.5516L48.1804 54.5695V56.3831V58.2026H50H51.8195V59.0974V59.9923H52.7144H53.6152L53.5973 60.9051L53.5794 61.8118L52.7024 61.8297L51.8195 61.8476V60.917Z" fill="black"/>
</svg>
