<svg id="eRSlWkZzhJo1" xmlns="http://www.w3.org/2000/svg" xmlns:xlink="http://www.w3.org/1999/xlink" viewBox="0 0 580 448" shape-rendering="geometricPrecision" text-rendering="geometricPrecision" project-id="25be1a6a62b244508434e99f22ce3cac" export-id="fc8d4684daeb4dc9b7aee00859c9f898" cached="false">
<style><![CDATA[
#eRSlWkZzhJo21 {animation: eRSlWkZzhJo21_c_o 2000ms linear infinite normal forwards}@keyframes eRSlWkZzhJo21_c_o { 0% {opacity: 0} 50% {opacity: 1} 100% {opacity: 0}}
]]></style>
<defs><linearGradient id="eRSlWkZzhJo5-fill" x1="170.137" y1="104.136" x2="170.137" y2="119.547" spreadMethod="pad" gradientUnits="userSpaceOnUse" gradientTransform="translate(0 0)"><stop id="eRSlWkZzhJo5-fill-0" offset="0%" stop-color="rgba(214,248,255,0.1)"/><stop id="eRSlWkZzhJo5-fill-1" offset="50%" stop-color="#01c5ec"/><stop id="eRSlWkZzhJo5-fill-2" offset="100%" stop-color="rgba(214,248,255,0.1)"/></linearGradient><linearGradient id="eRSlWkZzhJo6-fill" x1="290" y1="153.794" x2="290" y2="181.192" spreadMethod="pad" gradientUnits="userSpaceOnUse" gradientTransform="translate(0 0)"><stop id="eRSlWkZzhJo6-fill-0" offset="0%" stop-color="#01c5ec"/><stop id="eRSlWkZzhJo6-fill-1" offset="100%" stop-color="rgba(214,248,255,0.1)"/></linearGradient><linearGradient id="eRSlWkZzhJo7-fill" x1="362.815" y1="223.653" x2="325.144" y2="223.653" spreadMethod="pad" gradientUnits="userSpaceOnUse" gradientTransform="translate(0 0)"><stop id="eRSlWkZzhJo7-fill-0" offset="0%" stop-color="rgba(214,248,255,0.1)"/><stop id="eRSlWkZzhJo7-fill-1" offset="100%" stop-color="#01c5ec"/></linearGradient><linearGradient id="eRSlWkZzhJo8-fill" x1="217.226" y1="223.653" x2="254.897" y2="223.653" spreadMethod="pad" gradientUnits="userSpaceOnUse" gradientTransform="translate(0 0)"><stop id="eRSlWkZzhJo8-fill-0" offset="0%" stop-color="rgba(214,248,255,0.1)"/><stop id="eRSlWkZzhJo8-fill-1" offset="100%" stop-color="#01c5ec"/></linearGradient><linearGradient id="eRSlWkZzhJo9-fill" x1="507.465" y1="203.452" x2="507.465" y2="241.123" spreadMethod="pad" gradientUnits="userSpaceOnUse" gradientTransform="translate(0 0)"><stop id="eRSlWkZzhJo9-fill-0" offset="0%" stop-color="rgba(214,248,255,0.1)"/><stop id="eRSlWkZzhJo9-fill-1" offset="50%" stop-color="#01c5ec"/><stop id="eRSlWkZzhJo9-fill-2" offset="100%" stop-color="rgba(214,248,255,0.1)"/></linearGradient><linearGradient id="eRSlWkZzhJo10-fill" x1="457.808" y1="167.493" x2="473.219" y2="167.493" spreadMethod="pad" gradientUnits="userSpaceOnUse" gradientTransform="translate(0 0)"><stop id="eRSlWkZzhJo10-fill-0" offset="0%" stop-color="rgba(214,248,255,0.1)"/><stop id="eRSlWkZzhJo10-fill-1" offset="50%" stop-color="#01c5ec"/><stop id="eRSlWkZzhJo10-fill-2" offset="100%" stop-color="rgba(214,248,255,0.1)"/></linearGradient><linearGradient id="eRSlWkZzhJo11-fill" x1="106.781" y1="280.507" x2="122.191" y2="280.507" spreadMethod="pad" gradientUnits="userSpaceOnUse" gradientTransform="translate(0 0)"><stop id="eRSlWkZzhJo11-fill-0" offset="0%" stop-color="rgba(214,248,255,0.1)"/><stop id="eRSlWkZzhJo11-fill-1" offset="50%" stop-color="#01c5ec"/><stop id="eRSlWkZzhJo11-fill-2" offset="100%" stop-color="rgba(214,248,255,0.1)"/></linearGradient><linearGradient id="eRSlWkZzhJo12-fill" x1="457.808" y1="280.507" x2="473.219" y2="280.507" spreadMethod="pad" gradientUnits="userSpaceOnUse" gradientTransform="translate(0 0)"><stop id="eRSlWkZzhJo12-fill-0" offset="0%" stop-color="rgba(214,248,255,0.1)"/><stop id="eRSlWkZzhJo12-fill-1" offset="50%" stop-color="#01c5ec"/><stop id="eRSlWkZzhJo12-fill-2" offset="100%" stop-color="rgba(214,248,255,0.1)"/></linearGradient><linearGradient id="eRSlWkZzhJo13-fill" x1="409.863" y1="104.136" x2="409.863" y2="119.547" spreadMethod="pad" gradientUnits="userSpaceOnUse" gradientTransform="translate(0 0)"><stop id="eRSlWkZzhJo13-fill-0" offset="0%" stop-color="rgba(214,248,255,0.1)"/><stop id="eRSlWkZzhJo13-fill-1" offset="50%" stop-color="#01c5ec"/><stop id="eRSlWkZzhJo13-fill-2" offset="100%" stop-color="rgba(214,248,255,0.1)"/></linearGradient><linearGradient id="eRSlWkZzhJo14-fill" x1="409.863" y1="216.295" x2="409.863" y2="231.706" spreadMethod="pad" gradientUnits="userSpaceOnUse" gradientTransform="translate(0 0)"><stop id="eRSlWkZzhJo14-fill-0" offset="0%" stop-color="rgba(214,248,255,0.1)"/><stop id="eRSlWkZzhJo14-fill-1" offset="50%" stop-color="#01c5ec"/><stop id="eRSlWkZzhJo14-fill-2" offset="100%" stop-color="rgba(214,248,255,0.1)"/></linearGradient><linearGradient id="eRSlWkZzhJo15-fill" x1="409.863" y1="328.453" x2="409.863" y2="343.864" spreadMethod="pad" gradientUnits="userSpaceOnUse" gradientTransform="translate(0 0)"><stop id="eRSlWkZzhJo15-fill-0" offset="0%" stop-color="#d6f8ff"/><stop id="eRSlWkZzhJo15-fill-1" offset="50%" stop-color="#01c5ec"/><stop id="eRSlWkZzhJo15-fill-2" offset="100%" stop-color="rgba(214,248,255,0.1)"/></linearGradient><linearGradient id="eRSlWkZzhJo16-fill" x1="170.137" y1="328.453" x2="170.137" y2="343.864" spreadMethod="pad" gradientUnits="userSpaceOnUse" gradientTransform="translate(0 0)"><stop id="eRSlWkZzhJo16-fill-0" offset="0%" stop-color="rgba(214,248,255,0.1)"/><stop id="eRSlWkZzhJo16-fill-1" offset="50%" stop-color="#01c5ec"/><stop id="eRSlWkZzhJo16-fill-2" offset="100%" stop-color="rgba(214,248,255,0.1)"/></linearGradient><linearGradient id="eRSlWkZzhJo17-fill" x1="170.137" y1="216.295" x2="170.137" y2="231.706" spreadMethod="pad" gradientUnits="userSpaceOnUse" gradientTransform="translate(0 0)"><stop id="eRSlWkZzhJo17-fill-0" offset="0%" stop-color="rgba(214,248,255,0.1)"/><stop id="eRSlWkZzhJo17-fill-1" offset="50%" stop-color="#01c5ec"/><stop id="eRSlWkZzhJo17-fill-2" offset="100%" stop-color="rgba(214,248,255,0.1)"/></linearGradient><linearGradient id="eRSlWkZzhJo18-fill" x1="72.5346" y1="203.452" x2="72.5346" y2="241.123" spreadMethod="pad" gradientUnits="userSpaceOnUse" gradientTransform="translate(0 0)"><stop id="eRSlWkZzhJo18-fill-0" offset="0%" stop-color="rgba(214,248,255,0.1)"/><stop id="eRSlWkZzhJo18-fill-1" offset="50%" stop-color="#01c5ec"/><stop id="eRSlWkZzhJo18-fill-2" offset="100%" stop-color="rgba(214,248,255,0.1)"/></linearGradient><linearGradient id="eRSlWkZzhJo19-fill" x1="289.999" y1="266.808" x2="289.999" y2="294.206" spreadMethod="pad" gradientUnits="userSpaceOnUse" gradientTransform="translate(0 0)"><stop id="eRSlWkZzhJo19-fill-0" offset="0%" stop-color="rgba(214,248,255,0.1)"/><stop id="eRSlWkZzhJo19-fill-1" offset="100%" stop-color="#01c5ec"/></linearGradient><linearGradient id="eRSlWkZzhJo20-fill" x1="106.781" y1="167.493" x2="122.191" y2="167.493" spreadMethod="pad" gradientUnits="userSpaceOnUse" gradientTransform="translate(0 0)"><stop id="eRSlWkZzhJo20-fill-0" offset="0%" stop-color="rgba(214,248,255,0.1)"/><stop id="eRSlWkZzhJo20-fill-1" offset="50%" stop-color="#01c5ec"/><stop id="eRSlWkZzhJo20-fill-2" offset="100%" stop-color="rgba(214,248,255,0.1)"/></linearGradient><filter id="eRSlWkZzhJo108-filter" x="-150%" width="400%" y="-150%" height="400%"><feGaussianBlur id="eRSlWkZzhJo108-filter-drop-shadow-0-blur" in="SourceAlpha" stdDeviation="5,5"/><feOffset id="eRSlWkZzhJo108-filter-drop-shadow-0-offset" dx="0" dy="5" result="tmp"/><feFlood id="eRSlWkZzhJo108-filter-drop-shadow-0-flood" flood-color="rgba(23,0,102,0.1)"/><feComposite id="eRSlWkZzhJo108-filter-drop-shadow-0-composite" operator="in" in2="tmp"/><feMerge id="eRSlWkZzhJo108-filter-drop-shadow-0-merge" result="result"><feMergeNode id="eRSlWkZzhJo108-filter-drop-shadow-0-merge-node-1"/><feMergeNode id="eRSlWkZzhJo108-filter-drop-shadow-0-merge-node-2" in="SourceGraphic"/></feMerge></filter><filter id="eRSlWkZzhJo113-filter" x="-150%" width="400%" y="-150%" height="400%"><feGaussianBlur id="eRSlWkZzhJo113-filter-drop-shadow-0-blur" in="SourceAlpha" stdDeviation="5,5"/><feOffset id="eRSlWkZzhJo113-filter-drop-shadow-0-offset" dx="0" dy="5" result="tmp"/><feFlood id="eRSlWkZzhJo113-filter-drop-shadow-0-flood" flood-color="rgba(23,0,102,0.1)"/><feComposite id="eRSlWkZzhJo113-filter-drop-shadow-0-composite" operator="in" in2="tmp"/><feMerge id="eRSlWkZzhJo113-filter-drop-shadow-0-merge" result="result"><feMergeNode id="eRSlWkZzhJo113-filter-drop-shadow-0-merge-node-1"/><feMergeNode id="eRSlWkZzhJo113-filter-drop-shadow-0-merge-node-2" in="SourceGraphic"/></feMerge></filter><linearGradient id="eRSlWkZzhJo118-fill" x1="182.642" y1="258.033" x2="182.642" y2="302.981" spreadMethod="pad" gradientUnits="userSpaceOnUse" gradientTransform="translate(0 0)"><stop id="eRSlWkZzhJo118-fill-0" offset="0%" stop-color="#32b5f1"/><stop id="eRSlWkZzhJo118-fill-1" offset="100%" stop-color="#2b9fed"/></linearGradient><linearGradient id="eRSlWkZzhJo119-fill" x1="178.166" y1="263.706" x2="146.092" y2="290.629" spreadMethod="pad" gradientUnits="userSpaceOnUse" gradientTransform="translate(0 0)"><stop id="eRSlWkZzhJo119-fill-0" offset="0%" stop-color="#0f6fb3"/><stop id="eRSlWkZzhJo119-fill-1" offset="27.0551%" stop-color="#1279b7"/><stop id="eRSlWkZzhJo119-fill-2" offset="42.1376%" stop-color="#1176b5"/><stop id="eRSlWkZzhJo119-fill-3" offset="61.8197%" stop-color="#0e69ac"/><stop id="eRSlWkZzhJo119-fill-4" offset="85.5344%" stop-color="#0f70af"/><stop id="eRSlWkZzhJo119-fill-5" offset="100%" stop-color="#0f6dad"/></linearGradient><linearGradient id="eRSlWkZzhJo120-fill" x1="146.306" y1="270.849" x2="178.29" y2="297.332" spreadMethod="pad" gradientUnits="userSpaceOnUse" gradientTransform="translate(0 0)"><stop id="eRSlWkZzhJo120-fill-0" offset="0%" stop-color="#1791d2"/><stop id="eRSlWkZzhJo120-fill-1" offset="100%" stop-color="#1173c5"/></linearGradient><filter id="eRSlWkZzhJo121-filter" x="-150%" width="400%" y="-150%" height="400%"><feGaussianBlur id="eRSlWkZzhJo121-filter-drop-shadow-0-blur" in="SourceAlpha" stdDeviation="5,5"/><feOffset id="eRSlWkZzhJo121-filter-drop-shadow-0-offset" dx="0" dy="5" result="tmp"/><feFlood id="eRSlWkZzhJo121-filter-drop-shadow-0-flood" flood-color="rgba(23,0,102,0.1)"/><feComposite id="eRSlWkZzhJo121-filter-drop-shadow-0-composite" operator="in" in2="tmp"/><feMerge id="eRSlWkZzhJo121-filter-drop-shadow-0-merge" result="result"><feMergeNode id="eRSlWkZzhJo121-filter-drop-shadow-0-merge-node-1"/><feMergeNode id="eRSlWkZzhJo121-filter-drop-shadow-0-merge-node-2" in="SourceGraphic"/></feMerge></filter><linearGradient id="eRSlWkZzhJo124-fill" x1="387.389" y1="258.033" x2="402.152" y2="268.47" spreadMethod="pad" gradientUnits="userSpaceOnUse" gradientTransform="translate(0 0)"><stop id="eRSlWkZzhJo124-fill-0" offset="0%" stop-color="#392993"/><stop id="eRSlWkZzhJo124-fill-1" offset="100%" stop-color="#4b47b9"/></linearGradient><linearGradient id="eRSlWkZzhJo125-fill" x1="389.081" y1="268.587" x2="421.673" y2="295.47" spreadMethod="pad" gradientUnits="userSpaceOnUse" gradientTransform="translate(0 0)"><stop id="eRSlWkZzhJo125-fill-0" offset="0%" stop-color="#594bb9"/><stop id="eRSlWkZzhJo125-fill-1" offset="100%" stop-color="#60a8f2"/></linearGradient><linearGradient id="eRSlWkZzhJo126-fill" x1="409.957" y1="298.091" x2="432.337" y2="302.981" spreadMethod="pad" gradientUnits="userSpaceOnUse" gradientTransform="translate(0 0)"><stop id="eRSlWkZzhJo126-fill-0" offset="0%" stop-color="#61a2ef"/><stop id="eRSlWkZzhJo126-fill-1" offset="100%" stop-color="#58e6fd"/></linearGradient><linearGradient id="eRSlWkZzhJo127-fill" x1="404.127" y1="261.23" x2="432.337" y2="258.033" spreadMethod="pad" gradientUnits="userSpaceOnUse" gradientTransform="translate(0 0)"><stop id="eRSlWkZzhJo127-fill-0" offset="0%" stop-color="#534ebe"/><stop id="eRSlWkZzhJo127-fill-1" offset="100%" stop-color="#6875e2"/></linearGradient><linearGradient id="eRSlWkZzhJo128-fill" x1="424.25" y1="283.516" x2="432.337" y2="293.202" spreadMethod="pad" gradientUnits="userSpaceOnUse" gradientTransform="translate(0 0)"><stop id="eRSlWkZzhJo128-fill-0" offset="0%" stop-color="#71a5f3"/><stop id="eRSlWkZzhJo128-fill-1" offset="100%" stop-color="#6cc3fa"/></linearGradient><filter id="eRSlWkZzhJo130-filter" x="-150%" width="400%" y="-150%" height="400%"><feGaussianBlur id="eRSlWkZzhJo130-filter-drop-shadow-0-blur" in="SourceAlpha" stdDeviation="5,5"/><feOffset id="eRSlWkZzhJo130-filter-drop-shadow-0-offset" dx="0" dy="5" result="tmp"/><feFlood id="eRSlWkZzhJo130-filter-drop-shadow-0-flood" flood-color="rgba(23,0,102,0.1)"/><feComposite id="eRSlWkZzhJo130-filter-drop-shadow-0-composite" operator="in" in2="tmp"/><feMerge id="eRSlWkZzhJo130-filter-drop-shadow-0-merge" result="result"><feMergeNode id="eRSlWkZzhJo130-filter-drop-shadow-0-merge-node-1"/><feMergeNode id="eRSlWkZzhJo130-filter-drop-shadow-0-merge-node-2" in="SourceGraphic"/></feMerge></filter><filter id="eRSlWkZzhJo139-filter" x="-150%" width="400%" y="-150%" height="400%"><feGaussianBlur id="eRSlWkZzhJo139-filter-drop-shadow-0-blur" in="SourceAlpha" stdDeviation="5,5"/><feOffset id="eRSlWkZzhJo139-filter-drop-shadow-0-offset" dx="0" dy="5" result="tmp"/><feFlood id="eRSlWkZzhJo139-filter-drop-shadow-0-flood" flood-color="rgba(23,0,102,0.1)"/><feComposite id="eRSlWkZzhJo139-filter-drop-shadow-0-composite" operator="in" in2="tmp"/><feMerge id="eRSlWkZzhJo139-filter-drop-shadow-0-merge" result="result"><feMergeNode id="eRSlWkZzhJo139-filter-drop-shadow-0-merge-node-1"/><feMergeNode id="eRSlWkZzhJo139-filter-drop-shadow-0-merge-node-2" in="SourceGraphic"/></feMerge></filter><filter id="eRSlWkZzhJo151-filter" x="-150%" width="400%" y="-150%" height="400%"><feGaussianBlur id="eRSlWkZzhJo151-filter-drop-shadow-0-blur" in="SourceAlpha" stdDeviation="5,5"/><feOffset id="eRSlWkZzhJo151-filter-drop-shadow-0-offset" dx="0" dy="5" result="tmp"/><feFlood id="eRSlWkZzhJo151-filter-drop-shadow-0-flood" flood-color="rgba(23,0,102,0.1)"/><feComposite id="eRSlWkZzhJo151-filter-drop-shadow-0-composite" operator="in" in2="tmp"/><feMerge id="eRSlWkZzhJo151-filter-drop-shadow-0-merge" result="result"><feMergeNode id="eRSlWkZzhJo151-filter-drop-shadow-0-merge-node-1"/><feMergeNode id="eRSlWkZzhJo151-filter-drop-shadow-0-merge-node-2" in="SourceGraphic"/></feMerge></filter><radialGradient id="eRSlWkZzhJo161-fill" cx="0" cy="0" r="1" spreadMethod="pad" gradientUnits="userSpaceOnUse" gradientTransform="matrix(0 32.5345 -32.534302 0 32.533997 32.533997)"><stop id="eRSlWkZzhJo161-fill-0" offset="30%" stop-color="#48ffdc"/><stop id="eRSlWkZzhJo161-fill-1" offset="100%" stop-color="#635bff"/></radialGradient><filter id="eRSlWkZzhJo191-filter" x="-150%" width="400%" y="-150%" height="400%"><feGaussianBlur id="eRSlWkZzhJo191-filter-drop-shadow-0-blur" in="SourceAlpha" stdDeviation="5,5"/><feOffset id="eRSlWkZzhJo191-filter-drop-shadow-0-offset" dx="0" dy="5" result="tmp"/><feFlood id="eRSlWkZzhJo191-filter-drop-shadow-0-flood" flood-color="rgba(23,0,102,0.1)"/><feComposite id="eRSlWkZzhJo191-filter-drop-shadow-0-composite" operator="in" in2="tmp"/><feMerge id="eRSlWkZzhJo191-filter-drop-shadow-0-merge" result="result"><feMergeNode id="eRSlWkZzhJo191-filter-drop-shadow-0-merge-node-1"/><feMergeNode id="eRSlWkZzhJo191-filter-drop-shadow-0-merge-node-2" in="SourceGraphic"/></feMerge></filter><filter id="eRSlWkZzhJo195-filter" x="-150%" width="400%" y="-150%" height="400%"><feGaussianBlur id="eRSlWkZzhJo195-filter-drop-shadow-0-blur" in="SourceAlpha" stdDeviation="5,5"/><feOffset id="eRSlWkZzhJo195-filter-drop-shadow-0-offset" dx="0" dy="5" result="tmp"/><feFlood id="eRSlWkZzhJo195-filter-drop-shadow-0-flood" flood-color="rgba(23,0,102,0.1)"/><feComposite id="eRSlWkZzhJo195-filter-drop-shadow-0-composite" operator="in" in2="tmp"/><feMerge id="eRSlWkZzhJo195-filter-drop-shadow-0-merge" result="result"><feMergeNode id="eRSlWkZzhJo195-filter-drop-shadow-0-merge-node-1"/><feMergeNode id="eRSlWkZzhJo195-filter-drop-shadow-0-merge-node-2" in="SourceGraphic"/></feMerge></filter><filter id="eRSlWkZzhJo203-filter" x="-150%" width="400%" y="-150%" height="400%"><feGaussianBlur id="eRSlWkZzhJo203-filter-drop-shadow-0-blur" in="SourceAlpha" stdDeviation="5,5"/><feOffset id="eRSlWkZzhJo203-filter-drop-shadow-0-offset" dx="0" dy="5" result="tmp"/><feFlood id="eRSlWkZzhJo203-filter-drop-shadow-0-flood" flood-color="rgba(23,0,102,0.1)"/><feComposite id="eRSlWkZzhJo203-filter-drop-shadow-0-composite" operator="in" in2="tmp"/><feMerge id="eRSlWkZzhJo203-filter-drop-shadow-0-merge" result="result"><feMergeNode id="eRSlWkZzhJo203-filter-drop-shadow-0-merge-node-1"/><feMergeNode id="eRSlWkZzhJo203-filter-drop-shadow-0-merge-node-2" in="SourceGraphic"/></feMerge></filter><linearGradient id="eRSlWkZzhJo208-fill" x1="508.964" y1="282.862" x2="496.621" y2="291.709" spreadMethod="pad" gradientUnits="userSpaceOnUse" gradientTransform="translate(0 0)"><stop id="eRSlWkZzhJo208-fill-0" offset="0%" stop-color="#fe5004"/><stop id="eRSlWkZzhJo208-fill-1" offset="60.2538%" stop-color="#ffb915"/><stop id="eRSlWkZzhJo208-fill-2" offset="100%" stop-color="#fffc41"/></linearGradient><linearGradient id="eRSlWkZzhJo209-fill" x1="504.076" y1="283.611" x2="504.148" y2="284.895" spreadMethod="pad" gradientUnits="userSpaceOnUse" gradientTransform="translate(0 0)"><stop id="eRSlWkZzhJo209-fill-0" offset="0%" stop-color="#fd3e00"/><stop id="eRSlWkZzhJo209-fill-1" offset="100%" stop-color="rgba(253,68,0,0)"/></linearGradient><linearGradient id="eRSlWkZzhJo210-fill" x1="511.39" y1="276.226" x2="493.982" y2="291.708" spreadMethod="pad" gradientUnits="userSpaceOnUse" gradientTransform="translate(0 0)"><stop id="eRSlWkZzhJo210-fill-0" offset="0%" stop-color="#005fc6"/><stop id="eRSlWkZzhJo210-fill-1" offset="27.9756%" stop-color="#23a4df"/><stop id="eRSlWkZzhJo210-fill-2" offset="46.5158%" stop-color="#3ac2b7"/><stop id="eRSlWkZzhJo210-fill-3" offset="64.0642%" stop-color="#60ec7a"/><stop id="eRSlWkZzhJo210-fill-4" offset="81.8668%" stop-color="#cffdbd"/><stop id="eRSlWkZzhJo210-fill-5" offset="100%" stop-color="#d0fcb6"/></linearGradient><linearGradient id="eRSlWkZzhJo211-fill" x1="507.859" y1="279.187" x2="506.36" y2="277.831" spreadMethod="pad" gradientUnits="userSpaceOnUse" gradientTransform="translate(0 0)"><stop id="eRSlWkZzhJo211-fill-0" offset="0%" stop-color="#0061cb"/><stop id="eRSlWkZzhJo211-fill-1" offset="100%" stop-color="rgba(6,126,234,0)"/></linearGradient><linearGradient id="eRSlWkZzhJo212-fill" x1="518.81" y1="268.735" x2="495.907" y2="292.208" spreadMethod="pad" gradientUnits="userSpaceOnUse" gradientTransform="translate(0 0)"><stop id="eRSlWkZzhJo212-fill-0" offset="0%" stop-color="#8e55f1"/><stop id="eRSlWkZzhJo212-fill-1" offset="14.0795%" stop-color="#8b48df"/><stop id="eRSlWkZzhJo212-fill-2" offset="27.4905%" stop-color="#e04dd9"/><stop id="eRSlWkZzhJo212-fill-3" offset="49.2309%" stop-color="#f496c8"/><stop id="eRSlWkZzhJo212-fill-4" offset="63.3104%" stop-color="#fad2ba"/><stop id="eRSlWkZzhJo212-fill-5" offset="85.6964%" stop-color="#fef7e5"/><stop id="eRSlWkZzhJo212-fill-6" offset="100%" stop-color="#fff5bf"/></linearGradient><linearGradient id="eRSlWkZzhJo213-fill" x1="516.563" y1="278.545" x2="497.87" y2="287" spreadMethod="pad" gradientUnits="userSpaceOnUse" gradientTransform="translate(0 0)"><stop id="eRSlWkZzhJo213-fill-0" offset="0%" stop-color="#f41a73"/><stop id="eRSlWkZzhJo213-fill-1" offset="39.9909%" stop-color="#fc50a3"/><stop id="eRSlWkZzhJo213-fill-2" offset="58.4511%" stop-color="#fe9485"/><stop id="eRSlWkZzhJo213-fill-3" offset="70.3104%" stop-color="#ffaf88"/><stop id="eRSlWkZzhJo213-fill-4" offset="100%" stop-color="#ffc385"/></linearGradient><linearGradient id="eRSlWkZzhJo214-fill" x1="509.821" y1="281.149" x2="509.856" y2="282.862" spreadMethod="pad" gradientUnits="userSpaceOnUse" gradientTransform="translate(0 0)"><stop id="eRSlWkZzhJo214-fill-0" offset="0%" stop-color="#9b0008"/><stop id="eRSlWkZzhJo214-fill-1" offset="100%" stop-color="rgba(234,17,90,0)"/></linearGradient><linearGradient id="eRSlWkZzhJo215-fill" x1="518.809" y1="270.661" x2="501.936" y2="281.684" spreadMethod="pad" gradientUnits="userSpaceOnUse" gradientTransform="translate(0 0)"><stop id="eRSlWkZzhJo215-fill-0" offset="0%" stop-color="#231283"/><stop id="eRSlWkZzhJo215-fill-1" offset="36.2865%" stop-color="#7053c6"/><stop id="eRSlWkZzhJo215-fill-2" offset="46.6353%" stop-color="#7272db"/><stop id="eRSlWkZzhJo215-fill-3" offset="63.4311%" stop-color="#399ee9"/><stop id="eRSlWkZzhJo215-fill-4" offset="100%" stop-color="#00cfff"/></linearGradient><linearGradient id="eRSlWkZzhJo216-fill" x1="514.6" y1="276.226" x2="515.349" y2="277.19" spreadMethod="pad" gradientUnits="userSpaceOnUse" gradientTransform="translate(0 0)"><stop id="eRSlWkZzhJo216-fill-0" offset="0%" stop-color="rgba(63,37,157,0)"/><stop id="eRSlWkZzhJo216-fill-1" offset="100%" stop-color="#412daa"/></linearGradient><filter id="eRSlWkZzhJo217-filter" x="-150%" width="400%" y="-150%" height="400%"><feGaussianBlur id="eRSlWkZzhJo217-filter-drop-shadow-0-blur" in="SourceAlpha" stdDeviation="5,5"/><feOffset id="eRSlWkZzhJo217-filter-drop-shadow-0-offset" dx="0" dy="5" result="tmp"/><feFlood id="eRSlWkZzhJo217-filter-drop-shadow-0-flood" flood-color="rgba(23,0,102,0.1)"/><feComposite id="eRSlWkZzhJo217-filter-drop-shadow-0-composite" operator="in" in2="tmp"/><feMerge id="eRSlWkZzhJo217-filter-drop-shadow-0-merge" result="result"><feMergeNode id="eRSlWkZzhJo217-filter-drop-shadow-0-merge-node-1"/><feMergeNode id="eRSlWkZzhJo217-filter-drop-shadow-0-merge-node-2" in="SourceGraphic"/></feMerge></filter><filter id="eRSlWkZzhJo224-filter" x="-150%" width="400%" y="-150%" height="400%"><feGaussianBlur id="eRSlWkZzhJo224-filter-drop-shadow-0-blur" in="SourceAlpha" stdDeviation="5,5"/><feOffset id="eRSlWkZzhJo224-filter-drop-shadow-0-offset" dx="0" dy="5" result="tmp"/><feFlood id="eRSlWkZzhJo224-filter-drop-shadow-0-flood" flood-color="rgba(23,0,102,0.1)"/><feComposite id="eRSlWkZzhJo224-filter-drop-shadow-0-composite" operator="in" in2="tmp"/><feMerge id="eRSlWkZzhJo224-filter-drop-shadow-0-merge" result="result"><feMergeNode id="eRSlWkZzhJo224-filter-drop-shadow-0-merge-node-1"/><feMergeNode id="eRSlWkZzhJo224-filter-drop-shadow-0-merge-node-2" in="SourceGraphic"/></feMerge></filter><filter id="eRSlWkZzhJo230-filter" x="-150%" width="400%" y="-150%" height="400%"><feGaussianBlur id="eRSlWkZzhJo230-filter-drop-shadow-0-blur" in="SourceAlpha" stdDeviation="5,5"/><feOffset id="eRSlWkZzhJo230-filter-drop-shadow-0-offset" dx="0" dy="5" result="tmp"/><feFlood id="eRSlWkZzhJo230-filter-drop-shadow-0-flood" flood-color="rgba(23,0,102,0.1)"/><feComposite id="eRSlWkZzhJo230-filter-drop-shadow-0-composite" operator="in" in2="tmp"/><feMerge id="eRSlWkZzhJo230-filter-drop-shadow-0-merge" result="result"><feMergeNode id="eRSlWkZzhJo230-filter-drop-shadow-0-merge-node-1"/><feMergeNode id="eRSlWkZzhJo230-filter-drop-shadow-0-merge-node-2" in="SourceGraphic"/></feMerge></filter><filter id="eRSlWkZzhJo236-filter" x="-150%" width="400%" y="-150%" height="400%"><feGaussianBlur id="eRSlWkZzhJo236-filter-drop-shadow-0-blur" in="SourceAlpha" stdDeviation="5,5"/><feOffset id="eRSlWkZzhJo236-filter-drop-shadow-0-offset" dx="0" dy="5" result="tmp"/><feFlood id="eRSlWkZzhJo236-filter-drop-shadow-0-flood" flood-color="rgba(23,0,102,0.1)"/><feComposite id="eRSlWkZzhJo236-filter-drop-shadow-0-composite" operator="in" in2="tmp"/><feMerge id="eRSlWkZzhJo236-filter-drop-shadow-0-merge" result="result"><feMergeNode id="eRSlWkZzhJo236-filter-drop-shadow-0-merge-node-1"/><feMergeNode id="eRSlWkZzhJo236-filter-drop-shadow-0-merge-node-2" in="SourceGraphic"/></feMerge></filter><filter id="eRSlWkZzhJo242-filter" x="-150%" width="400%" y="-150%" height="400%"><feGaussianBlur id="eRSlWkZzhJo242-filter-drop-shadow-0-blur" in="SourceAlpha" stdDeviation="5,5"/><feOffset id="eRSlWkZzhJo242-filter-drop-shadow-0-offset" dx="0" dy="5" result="tmp"/><feFlood id="eRSlWkZzhJo242-filter-drop-shadow-0-flood" flood-color="rgba(23,0,102,0.1)"/><feComposite id="eRSlWkZzhJo242-filter-drop-shadow-0-composite" operator="in" in2="tmp"/><feMerge id="eRSlWkZzhJo242-filter-drop-shadow-0-merge" result="result"><feMergeNode id="eRSlWkZzhJo242-filter-drop-shadow-0-merge-node-1"/><feMergeNode id="eRSlWkZzhJo242-filter-drop-shadow-0-merge-node-2" in="SourceGraphic"/></feMerge></filter><linearGradient id="eRSlWkZzhJo250-fill" x1="170.101" y1="64.5173" x2="170.101" y2="75.1969" spreadMethod="pad" gradientUnits="userSpaceOnUse" gradientTransform="translate(0 0)"><stop id="eRSlWkZzhJo250-fill-0" offset="0%" stop-color="#86bbe5"/><stop id="eRSlWkZzhJo250-fill-1" offset="100%" stop-color="#1072ba"/></linearGradient></defs><g transform="translate(.000244 0.000057)"><g><g><path d="M169.708,104.136h.857v3.425h-.857v-3.425Zm0,5.994h.857v3.424h-.857v-3.424Zm.857,5.993h-.857v3.424h.857v-3.424Z" clip-rule="evenodd" fill="url(#eRSlWkZzhJo5-fill)" fill-rule="evenodd"/><path d="M289.572,153.794h.856v3.425h-.856v-3.425Zm0,5.993h.856v3.425h-.856v-3.425Zm.856,5.993h-.856v3.425h.856v-3.425Zm-.856,5.994h.856v3.424h-.856v-3.424Zm.856,5.993h-.856v3.425h.856v-3.425Z" clip-rule="evenodd" fill="url(#eRSlWkZzhJo6-fill)" fill-rule="evenodd"/><path d="M358.016,170.067c.759-.018,1.482.009,2.148.073l.082-.852c-.701-.067-1.458-.096-2.251-.077l.021.856Zm-8.251,2.153c1.284-.715,2.64-1.224,3.989-1.569l-.212-.829c-1.411.36-2.837.895-4.193,1.65l.416.748Zm-5.799,6.1c.671-1.366,1.496-2.524,2.425-3.5l-.62-.591c-.989,1.039-1.864,2.269-2.574,3.714l.769.377Zm-1.837,8.359c.033-1.569.196-2.997.466-4.294l-.838-.175c-.282,1.353-.45,2.834-.484,4.451l.856.018Zm.519,6.509c-.124-.745-.225-1.467-.304-2.167l-.851.096c.081.716.184,1.453.311,2.212.125.752.232,1.489.323,2.211l.849-.106c-.092-.734-.201-1.483-.328-2.246Zm.596,11.302c.11-1.432.145-2.944.093-4.537l-.856.027c.051,1.563.017,3.045-.091,4.445l.854.065Zm-1.904,8.874c.507-1.332.939-2.789,1.271-4.373l-.838-.176c-.323,1.542-.742,2.956-1.233,4.244l.8.305Zm-4.893,7.675c1.01-.962,1.989-2.153,2.875-3.575l-.726-.453c-.851,1.365-1.784,2.499-2.739,3.408l.59.62Zm21.569,56.119c.76.019,1.482-.009,2.149-.073l.082.852c-.702.068-1.459.097-2.252.077l.021-.856Zm-8.25-2.153c1.283.715,2.639,1.225,3.988,1.569l-.212.83c-1.411-.36-2.837-.896-4.193-1.651l.417-.748Zm-5.8-6.1c.671,1.367,1.496,2.524,2.425,3.501l-.62.59c-.988-1.039-1.864-2.268-2.574-3.714l.769-.377Zm-1.836-8.359c.032,1.569.195,2.997.465,4.295l-.838.174c-.282-1.353-.45-2.834-.483-4.451l.856-.018Zm.518-6.509c-.124.745-.225,1.467-.304,2.167l-.851-.096c.081-.715.184-1.453.311-2.212.125-.752.233-1.489.323-2.212l.85.106c-.092.734-.201,1.483-.329,2.247Zm.596-11.309c.11,1.433.145,2.947.093,4.54l-.856-.027c.051-1.564.017-3.046-.091-4.448l.854-.065Zm-1.9-8.88c.506,1.333.937,2.791,1.268,4.376l-.838.175c-.322-1.542-.74-2.958-1.23-4.247l.8-.304Zm-4.885-7.687c1.009.963,1.986,2.156,2.872,3.581l-.727.452c-.85-1.368-1.782-2.504-2.736-3.413l.591-.62Zm-3.651-3.445h-10.274v1.712h10.274v-1.712Z" clip-rule="evenodd" fill="url(#eRSlWkZzhJo7-fill)" fill-rule="evenodd"/><path d="M222.026,170.067c-.76-.018-1.483.009-2.149.073l-.082-.852c.701-.067,1.458-.096,2.252-.077l-.021.856Zm8.25,2.153c-1.284-.715-2.639-1.224-3.988-1.569l.211-.829c1.412.36,2.837.895,4.193,1.65l-.416.748Zm5.8,6.1c-.672-1.366-1.497-2.524-2.426-3.5l.621-.591c.988,1.039,1.863,2.269,2.573,3.714l-.768.377Zm1.836,8.359c-.033-1.569-.195-2.997-.466-4.294l.838-.175c.283,1.353.45,2.834.484,4.451l-.856.018Zm-.519,6.509c.124-.745.225-1.467.304-2.167l.851.096c-.081.716-.184,1.453-.31,2.212-.126.752-.233,1.489-.323,2.211l-.85-.106c.092-.734.201-1.483.328-2.246Zm-.596,11.302c-.11-1.432-.144-2.944-.093-4.537l.856.027c-.051,1.563-.016,3.045.091,4.445l-.854.065Zm1.904,8.874c-.507-1.332-.939-2.789-1.271-4.373l.838-.176c.324,1.542.742,2.956,1.233,4.244l-.8.305Zm4.893,7.675c-1.01-.962-1.988-2.153-2.875-3.575l.726-.453c.851,1.365,1.785,2.499,2.739,3.408l-.59.62Zm-21.568,56.119c-.76.019-1.483-.009-2.149-.073l-.082.852c.701.068,1.458.097,2.252.077l-.021-.856Zm8.25-2.153c-1.284.715-2.639,1.225-3.988,1.569l.211.83c1.412-.36,2.837-.896,4.193-1.651l-.416-.748Zm5.8-6.1c-.672,1.367-1.497,2.524-2.426,3.501l.621.59c.988-1.039,1.863-2.268,2.573-3.714l-.768-.377Zm1.836-8.359c-.033,1.569-.195,2.997-.466,4.295l.838.174c.283-1.353.45-2.834.484-4.451l-.856-.018Zm-.519-6.509c.124.745.225,1.467.304,2.167l.851-.096c-.081-.715-.184-1.453-.31-2.212-.126-.752-.233-1.489-.323-2.212l-.85.106c.092.734.201,1.483.328,2.247Zm-.596-11.309c-.109,1.433-.144,2.947-.093,4.54l.856-.027c-.051-1.564-.016-3.046.091-4.448l-.854-.065Zm1.9-8.88c-.506,1.333-.936,2.791-1.268,4.376l.838.175c.323-1.542.741-2.958,1.231-4.247l-.801-.304Zm4.886-7.687c-1.01.963-1.987,2.156-2.872,3.581l.727.452c.85-1.368,1.782-2.504,2.736-3.413l-.591-.62Zm3.65-3.445h10.274v1.712h-10.274v-1.712Z" clip-rule="evenodd" fill="url(#eRSlWkZzhJo8-fill)" fill-rule="evenodd"/><path d="M507.893,203.452h-.856v3.425h.856v-3.425Zm0,6.849h-.856v3.425h.856v-3.425Zm-.856,6.85h.856v3.424h-.856v-3.424Zm.856,6.849h-.856v3.425h.856v-3.425Zm-.856,6.849h.856v3.425h-.856v-3.425Zm.856,6.85h-.856v3.424h.856v-3.424Z" clip-rule="evenodd" fill="url(#eRSlWkZzhJo9-fill)" fill-rule="evenodd"/><path d="M457.808,167.921v-.856h3.425v.856h-3.425Zm5.993,0v-.856h3.425v.856h-3.425Zm5.994-.856v.856h3.424v-.856h-3.424Z" clip-rule="evenodd" fill="url(#eRSlWkZzhJo10-fill)" fill-rule="evenodd"/><path d="M106.781,280.935v-.856h3.424v.856h-3.424Zm5.993,0v-.856h3.425v.856h-3.425Zm5.993-.856v.856h3.424v-.856h-3.424Z" clip-rule="evenodd" fill="url(#eRSlWkZzhJo11-fill)" fill-rule="evenodd"/><path d="M457.808,280.935v-.856h3.425v.856h-3.425Zm5.993,0v-.856h3.425v.856h-3.425Zm5.994-.856v.856h3.424v-.856h-3.424Z" clip-rule="evenodd" fill="url(#eRSlWkZzhJo12-fill)" fill-rule="evenodd"/><path d="M409.435,104.136h.856v3.425h-.856v-3.425Zm0,5.994h.856v3.424h-.856v-3.424Zm.856,5.993h-.856v3.424h.856v-3.424Z" clip-rule="evenodd" fill="url(#eRSlWkZzhJo13-fill)" fill-rule="evenodd"/><path d="M409.435,216.295h.856v3.424h-.856v-3.424Zm0,5.993h.856v3.424h-.856v-3.424Zm.856,5.993h-.856v3.425h.856v-3.425Z" clip-rule="evenodd" fill="url(#eRSlWkZzhJo14-fill)" fill-rule="evenodd"/><path d="M409.435,328.453h.856v3.425h-.856v-3.425Zm0,5.993h.856v3.425h-.856v-3.425Zm.856,5.993h-.856v3.425h.856v-3.425Z" clip-rule="evenodd" fill="url(#eRSlWkZzhJo15-fill)" fill-rule="evenodd"/><path d="M169.708,328.453h.857v3.425h-.857v-3.425Zm0,5.993h.857v3.425h-.857v-3.425Zm.857,5.993h-.857v3.425h.857v-3.425Z" clip-rule="evenodd" fill="url(#eRSlWkZzhJo16-fill)" fill-rule="evenodd"/><path d="M169.708,216.295h.857v3.424h-.857v-3.424Zm0,5.993h.857v3.424h-.857v-3.424Zm.857,5.993h-.857v3.425h.857v-3.425Z" clip-rule="evenodd" fill="url(#eRSlWkZzhJo17-fill)" fill-rule="evenodd"/><path d="M72.9627,203.452h-.8562v3.425h.8562v-3.425Zm-.0001,6.849h-.8562v3.425h.8562v-3.425Zm-.8562,6.85h.8562v3.424h-.8562v-3.424ZM72.9626,224h-.8562v3.425h.8562v-3.425Zm-.8562,6.849h.8562v3.425h-.8562v-3.425Zm.8562,6.85h-.8562v3.424h.8562v-3.424Z" clip-rule="evenodd" fill="url(#eRSlWkZzhJo18-fill)" fill-rule="evenodd"/><path d="M290.428,270.233h-.857v-3.425h.857v3.425Zm-.857,5.993h.857v-3.424h-.857v3.424Zm.857,5.993h-.857v-3.424h.857v3.424Zm-.857,5.994h.857v-3.425h-.857v3.425Zm0,5.993h.856v-3.425h-.856v3.425Z" clip-rule="evenodd" fill="url(#eRSlWkZzhJo19-fill)" fill-rule="evenodd"/><path d="M106.781,167.921v-.856h3.424v.856h-3.424Zm5.993,0v-.856h3.425v.856h-3.425Zm5.993-.856v.856h3.424v-.856h-3.424Z" clip-rule="evenodd" fill="url(#eRSlWkZzhJo20-fill)" fill-rule="evenodd"/></g><g id="eRSlWkZzhJo21" opacity="0"><path d="M169.708,104.136h.857v3.425h-.857v-3.425Z" fill="#00a6ff"/><path d="M169.708,110.13h.857v3.424h-.857v-3.424Z" fill="#00a6ff"/><path d="M170.565,116.123h-.857v3.424h.857v-3.424Z" fill="#00a6ff"/><path d="M289.572,153.794h.856v3.425h-.856v-3.425Z" fill="#00a6ff"/><path d="M289.572,159.787h.856v3.425h-.856v-3.425Z" fill="#00a6ff"/><path d="M290.428,165.78h-.856v3.425h.856v-3.425Z" fill="#00a6ff"/><path d="M289.572,171.774h.856v3.424h-.856v-3.424Z" fill="#00a6ff"/><path d="M290.428,177.767h-.856v3.425h.856v-3.425Z" fill="#00a6ff"/><path d="M358.016,170.067c.759-.018,1.482.009,2.148.073l.082-.852c-.701-.067-1.458-.096-2.251-.077l.021.856Z" fill="#00a6ff"/><path d="M349.766,172.22c1.283-.715,2.639-1.224,3.988-1.569l-.212-.829c-1.411.36-2.837.895-4.193,1.65l.417.748Z" fill="#00a6ff"/><path d="M343.966,178.32c.671-1.366,1.496-2.524,2.425-3.5l-.62-.591c-.989,1.039-1.864,2.269-2.574,3.714l.769.377Z" fill="#00a6ff"/><path d="M342.129,186.679c.033-1.569.196-2.997.466-4.294l-.838-.175c-.282,1.353-.45,2.834-.484,4.451l.856.018Z" fill="#00a6ff"/><path d="M342.648,193.188c-.124-.745-.225-1.467-.304-2.167l-.851.096c.081.716.184,1.453.311,2.212.125.752.232,1.489.323,2.211l.849-.106c-.092-.734-.201-1.483-.328-2.246Z" fill="#00a6ff"/><path d="M343.244,204.49c.11-1.432.145-2.944.093-4.537l-.856.027c.051,1.563.017,3.045-.091,4.445l.854.065Z" fill="#00a6ff"/><path d="M341.34,213.364c.507-1.332.939-2.789,1.271-4.373l-.838-.176c-.323,1.542-.742,2.956-1.233,4.244l.8.305Z" fill="#00a6ff"/><path d="M336.447,221.039c1.01-.962,1.989-2.153,2.875-3.575l-.726-.453c-.851,1.365-1.784,2.499-2.739,3.408l.59.62Z" fill="#00a6ff"/><path d="M358.016,277.158c.76.019,1.482-.009,2.149-.073l.082.852c-.702.068-1.459.097-2.252.077l.021-.856Z" fill="#00a6ff"/><path d="M349.766,275.005c1.283.715,2.639,1.225,3.988,1.569l-.212.83c-1.411-.36-2.837-.896-4.193-1.651l.417-.748Z" fill="#00a6ff"/><path d="M343.966,268.905c.671,1.367,1.496,2.524,2.425,3.501l-.62.59c-.988-1.039-1.864-2.268-2.574-3.714l.769-.377Z" fill="#00a6ff"/><path d="M342.13,260.546c.032,1.569.195,2.997.465,4.295l-.838.174c-.282-1.353-.45-2.834-.483-4.451l.856-.018Z" fill="#00a6ff"/><path d="M342.648,254.037c-.124.745-.225,1.467-.304,2.167l-.851-.096c.081-.715.184-1.453.311-2.212.125-.752.233-1.489.323-2.212l.85.106c-.092.734-.201,1.483-.329,2.247Z" fill="#00a6ff"/><path d="M343.244,242.728c.11,1.433.145,2.947.093,4.54l-.856-.027c.051-1.564.017-3.046-.09-4.448l.853-.065Z" fill="#00a6ff"/><path d="M341.344,233.848c.506,1.333.937,2.791,1.268,4.376l-.838.175c-.322-1.542-.74-2.958-1.23-4.247l.8-.304Z" fill="#00a6ff"/><path d="M336.459,226.161c1.009.963,1.986,2.156,2.872,3.581l-.727.452c-.85-1.368-1.782-2.504-2.736-3.413l.591-.62Z" fill="#00a6ff"/><path d="M332.808,222.716h-10.274v1.712h10.274v-1.712Z" fill="#00a6ff"/><path d="M222.026,170.067c-.76-.018-1.483.009-2.149.073l-.082-.852c.701-.067,1.458-.096,2.252-.077l-.021.856Z" fill="#00a6ff"/><path d="M230.276,172.22c-1.284-.715-2.639-1.224-3.988-1.569l.211-.829c1.412.36,2.837.895,4.193,1.65l-.416.748Z" fill="#00a6ff"/><path d="M236.076,178.32c-.672-1.366-1.497-2.524-2.426-3.5l.621-.591c.988,1.039,1.863,2.269,2.573,3.714l-.768.377Z" fill="#00a6ff"/><path d="M237.912,186.679c-.033-1.569-.195-2.997-.466-4.294l.838-.175c.283,1.353.45,2.834.484,4.451l-.856.018Z" fill="#00a6ff"/><path d="M237.393,193.188c.124-.745.225-1.467.304-2.167l.851.096c-.081.716-.184,1.453-.31,2.212-.126.752-.233,1.489-.323,2.211l-.85-.106c.092-.734.201-1.483.328-2.246Z" fill="#00a6ff"/><path d="M236.797,204.49c-.11-1.432-.144-2.944-.093-4.537l.856.027c-.051,1.563-.016,3.045.091,4.445l-.854.065Z" fill="#00a6ff"/><path d="M238.701,213.364c-.507-1.332-.938-2.789-1.271-4.373l.838-.176c.324,1.542.742,2.956,1.233,4.244l-.8.305Z" fill="#00a6ff"/><path d="M243.594,221.039c-1.01-.962-1.988-2.153-2.875-3.575l.726-.453c.851,1.365,1.785,2.499,2.739,3.408l-.59.62Z" fill="#00a6ff"/><path d="M222.026,277.158c-.76.019-1.483-.009-2.149-.073l-.082.852c.701.068,1.458.097,2.252.077l-.021-.856Z" fill="#00a6ff"/><path d="M230.276,275.005c-1.284.715-2.639,1.225-3.988,1.569l.211.83c1.412-.36,2.837-.896,4.193-1.651l-.416-.748Z" fill="#00a6ff"/><path d="M236.076,268.905c-.672,1.367-1.497,2.524-2.426,3.501l.621.59c.988-1.039,1.863-2.268,2.573-3.714l-.768-.377Z" fill="#00a6ff"/><path d="M237.912,260.546c-.033,1.569-.195,2.997-.466,4.295l.838.174c.283-1.353.45-2.834.484-4.451l-.856-.018Z" fill="#00a6ff"/><path d="M237.393,254.037c.124.745.225,1.467.304,2.167l.851-.096c-.081-.715-.184-1.453-.31-2.212-.126-.752-.233-1.489-.323-2.212l-.85.106c.092.734.201,1.483.328,2.247Z" fill="#00a6ff"/><path d="M236.797,242.728c-.109,1.433-.144,2.947-.093,4.54l.856-.027c-.051-1.564-.016-3.046.091-4.448l-.854-.065Z" fill="#00a6ff"/><path d="M238.697,233.848c-.506,1.333-.936,2.791-1.268,4.376l.838.175c.323-1.542.741-2.958,1.231-4.247l-.801-.304Z" fill="#00a6ff"/><path d="M243.583,226.161c-1.01.963-1.987,2.156-2.872,3.581l.727.452c.85-1.368,1.782-2.504,2.736-3.413l-.591-.62Z" fill="#00a6ff"/><path d="M247.233,222.716h10.274v1.712h-10.274v-1.712Z" fill="#00a6ff"/><path d="M507.893,203.452h-.856v3.425h.856v-3.425Z" fill="#00a6ff"/><path d="M507.893,210.301h-.856v3.425h.856v-3.425Z" fill="#00a6ff"/><path d="M507.037,217.151h.856v3.424h-.856v-3.424Z" fill="#00a6ff"/><path d="M507.893,224h-.856v3.425h.856v-3.425Z" fill="#00a6ff"/><path d="M507.037,230.849h.856v3.425h-.856v-3.425Z" fill="#00a6ff"/><path d="M507.893,237.699h-.856v3.424h.856v-3.424Z" fill="#00a6ff"/><path d="M457.808,167.921v-.856h3.425v.856h-3.425Z" fill="#00a6ff"/><path d="M463.801,167.921v-.856h3.425v.856h-3.425Z" fill="#00a6ff"/><path d="M469.795,167.065v.856h3.424v-.856h-3.424Z" fill="#00a6ff"/><path d="M106.781,280.935v-.856h3.424v.856h-3.424Z" fill="#00a6ff"/><path d="M112.774,280.935v-.856h3.425v.856h-3.425Z" fill="#00a6ff"/><path d="M118.767,280.079v.856h3.424v-.856h-3.424Z" fill="#00a6ff"/><path d="M457.808,280.935v-.856h3.425v.856h-3.425Z" fill="#00a6ff"/><path d="M463.801,280.935v-.856h3.425v.856h-3.425Z" fill="#00a6ff"/><path d="M469.795,280.079v.856h3.424v-.856h-3.424Z" fill="#00a6ff"/><path d="M409.435,104.136h.856v3.425h-.856v-3.425Z" fill="#00a6ff"/><path d="M409.435,110.13h.856v3.424h-.856v-3.424Z" fill="#00a6ff"/><path d="M410.291,116.123h-.856v3.424h.856v-3.424Z" fill="#00a6ff"/><path d="M409.435,216.295h.856v3.424h-.856v-3.424Z" fill="#00a6ff"/><path d="M409.435,222.288h.856v3.424h-.856v-3.424Z" fill="#00a6ff"/><path d="M410.291,228.281h-.856v3.425h.856v-3.425Z" fill="#00a6ff"/><path d="M409.435,328.453h.856v3.425h-.856v-3.425Z" fill="#00a6ff"/><path d="M409.435,334.446h.856v3.425h-.856v-3.425Z" fill="#00a6ff"/><path d="M410.291,340.439h-.856v3.425h.856v-3.425Z" fill="#00a6ff"/><path d="M169.708,328.453h.857v3.425h-.857v-3.425Z" fill="#00a6ff"/><path d="M169.708,334.446h.857v3.425h-.857v-3.425Z" fill="#00a6ff"/><path d="M170.565,340.439h-.857v3.425h.857v-3.425Z" fill="#00a6ff"/><path d="M169.708,216.295h.857v3.424h-.857v-3.424Z" fill="#00a6ff"/><path d="M169.708,222.288h.857v3.424h-.857v-3.424Z" fill="#00a6ff"/><path d="M170.565,228.281h-.857v3.425h.857v-3.425Z" fill="#00a6ff"/><path d="M72.9627,203.452h-.8562v3.425h.8562v-3.425Z" fill="#00a6ff"/><path d="M72.9626,210.301h-.8562v3.425h.8562v-3.425Z" fill="#00a6ff"/><path d="M72.1064,217.151h.8562v3.424h-.8562v-3.424Z" fill="#00a6ff"/><path d="M72.9626,224h-.8562v3.425h.8562v-3.425Z" fill="#00a6ff"/><path d="M72.1064,230.849h.8562v3.425h-.8562v-3.425Z" fill="#00a6ff"/><path d="M72.9626,237.699h-.8562v3.424h.8562v-3.424Z" fill="#00a6ff"/><path d="M290.428,270.233h-.857v-3.425h.857v3.425Z" fill="#00a6ff"/><path d="M289.571,276.226h.857v-3.424h-.857v3.424Z" fill="#00a6ff"/><path d="M290.428,282.219h-.857v-3.424h.857v3.424Z" fill="#00a6ff"/><path d="M289.571,288.213h.857v-3.425h-.857v3.425Z" fill="#00a6ff"/><path d="M289.571,294.206h.856v-3.425h-.856v3.425Z" fill="#00a6ff"/><path d="M106.781,167.921v-.856h3.424v.856h-3.424Z" fill="#00a6ff"/><path d="M112.774,167.921v-.856h3.425v.856h-3.425Z" fill="#00a6ff"/><path d="M118.767,167.065v.856h3.424v-.856h-3.424Z" fill="#00a6ff"/></g><g filter="url(#eRSlWkZzhJo108-filter)"><rect width="92.465797" height="92.4664" rx="17.1233" ry="17.1233" transform="translate(123.904999 121.260002)" fill="#fff"/><g><rect width="51.3699" height="51.3699" rx="0" ry="0" transform="translate(144.451996 141.807999)" fill="#fff"/><path d="M170.116,145.636c-12.406-.005-22.454,10.038-22.454,22.434c0,9.802,6.286,18.135,15.04,21.195c1.179.296.998-.542.998-1.114v-3.888c-6.807.798-7.083-3.707-7.54-4.459-.923-1.575-3.105-1.977-2.453-2.729c1.55-.798,3.13.2,4.962,2.904c1.324,1.962,3.907,1.631,5.217,1.305.286-1.179.898-2.233,1.741-3.05-7.054-1.265-9.994-5.569-9.994-10.686c0-2.483.818-4.766,2.423-6.607-1.023-3.035.096-5.633.246-6.02c2.915-.26,5.945,2.087,6.181,2.273c1.655-.447,3.546-.682,5.663-.682c2.127,0,4.024.246,5.694.697.567-.431,3.376-2.448,6.085-2.202.146.386,1.24,2.924.276,5.919c1.626,1.846,2.453,4.149,2.453,6.637c0,5.127-2.959,9.436-10.033,10.681.606.595,1.087,1.306,1.415,2.09.329.784.497,1.625.497,2.475v5.643c.04.452,0,.898.752.898c8.884-2.995,15.281-11.387,15.281-21.275c0-12.401-10.054-22.439-22.45-22.439v0Z"/></g></g><g filter="url(#eRSlWkZzhJo113-filter)"><rect width="92.465797" height="92.4664" rx="17.1233" ry="17.1233" transform="translate(123.904999 234.274002)" fill="#fff"/><g><rect width="51.3699" height="51.3699" rx="0" ry="0" transform="translate(144.451996 254.822006)" fill="#fff"/><g><path d="M178.166,259.825c0-1.411-1.58-1.411-2.282-1.234.983-.776,2.136-.588,2.546-.353l9.492,4.655c.905.443,1.479,1.366,1.479,2.377v30.621c0,1.025-.589,1.957-1.512,2.394l-8.933,4.223c-.614.265-1.948.917-3.072,0c1.405.265,2.165-.735,2.282-1.411v-41.272Z" fill="url(#eRSlWkZzhJo118-fill)"/><path d="M175.998,258.566c.745-.148,2.168-.079,2.168,1.26v10.54l-28.78,21.772c-.503.381-1.211.317-1.64-.146l-2.966-3.21c-.465-.503-.432-1.29.072-1.752l31.032-28.439.114-.025Z" fill="url(#eRSlWkZzhJo119-fill)"/><path d="M178.166,290.734l-28.78-21.772c-.503-.381-1.211-.318-1.64.146l-2.966,3.209c-.465.503-.432,1.29.072,1.753l31.032,28.439v0c1.404.264,2.165-.735,2.282-1.411v-10.364Z" fill="url(#eRSlWkZzhJo120-fill)"/></g></g></g><g filter="url(#eRSlWkZzhJo121-filter)"><rect width="92.465797" height="92.4664" rx="17.1233" ry="17.1233" transform="translate(363.630005 234.274002)" fill="#fff"/><g><path d="M388.788,265.045c-1.399,2.747-1.399,6.343-1.399,13.536v3.852c0,7.193,0,10.789,1.399,13.536c1.232,2.417,3.196,4.381,5.613,5.612c2.747,1.4,6.343,1.4,13.536,1.4h3.852c7.193,0,10.789,0,13.536-1.4c2.417-1.231,4.381-3.195,5.613-5.612c1.399-2.747,1.399-6.343,1.399-13.536v-3.852c0-7.193,0-10.789-1.399-13.536-1.232-2.417-3.196-4.381-5.613-5.613-2.747-1.399-6.343-1.399-13.536-1.399h-3.852c-7.193,0-10.789,0-13.536,1.399-2.417,1.232-4.381,3.196-5.613,5.613Z" fill="url(#eRSlWkZzhJo124-fill)"/><path d="M387.814,268.113c-.425,2.42-.425,5.631-.425,10.468v3.852c0,7.193,0,10.789,1.399,13.536c1.232,2.417,3.196,4.381,5.613,5.613c2.747,1.399,6.343,1.399,13.536,1.399h3.852c7.193,0,10.789,0,13.536-1.399c2.417-1.232,4.381-3.196,5.613-5.613c1.399-2.747,1.399-6.343,1.399-13.536v-3.852c0-7.193,0-10.789-1.399-13.536-1.189-2.332-3.061-4.244-5.362-5.481l-37.762,8.549Z" fill="url(#eRSlWkZzhJo125-fill)"/><path d="M431.872,293.115c-.207,1.085-.505,2.01-.935,2.854-1.231,2.416-3.196,4.381-5.612,5.612-2.665,1.358-6.129,1.399-12.9,1.4h-2.468v-5.078l21.915-4.788Z" fill="url(#eRSlWkZzhJo126-fill)"/><path d="M411.789,258.033h-3.852c-1.4,0-2.663,0-3.81.01v6.363l21.445-4.845c-.082-.044-.164-.087-.247-.129-1.525-.777-3.312-1.122-5.83-1.276-2.018-.123-4.506-.123-7.706-.123Z" fill="url(#eRSlWkZzhJo127-fill)"/><path d="M432.337,282.712c0,4.825-.008,8.005-.465,10.403l-7.622,1.666v-11.359l8.087-1.88v1.17Z" fill="url(#eRSlWkZzhJo128-fill)"/><path d="M408.162,276.298c0-1.032.844-1.429,2.241-1.429c2.003,0,4.533.609,6.537,1.693v-6.216c-2.188-.873-4.35-1.217-6.537-1.217-5.351,0-8.91,2.804-8.91,7.486c0,7.301,10.017,6.137,10.017,9.285c0,1.217-1.055,1.614-2.531,1.614-2.188,0-4.982-.899-7.196-2.116v6.296c2.452,1.058,4.929,1.508,7.196,1.508c5.483,0,9.252-2.725,9.252-7.46-.026-7.884-10.069-6.482-10.069-9.444Z" clip-rule="evenodd" fill="#fff" fill-rule="evenodd"/></g></g><g filter="url(#eRSlWkZzhJo130-filter)"><rect width="92.465797" height="92.4664" rx="17.1233" ry="17.1233" transform="translate(363.630005 121.260002)" fill="#fff"/><g><g><path d="M409.863,167.492c0-3.546,2.875-6.421,6.422-6.421c3.546,0,6.421,2.875,6.421,6.421c0,3.547-2.875,6.422-6.421,6.422-3.547,0-6.422-2.875-6.422-6.422Z" clip-rule="evenodd" fill="#1abcfe" fill-rule="evenodd"/><path d="M397.021,180.335c0-3.546,2.874-6.421,6.421-6.421h6.421v6.421c0,3.546-2.875,6.421-6.421,6.421-3.547,0-6.421-2.875-6.421-6.421Z" clip-rule="evenodd" fill="#0acf83" fill-rule="evenodd"/><path d="M409.863,148.229v12.842h6.422c3.546,0,6.421-2.875,6.421-6.421s-2.875-6.421-6.421-6.421h-6.422Z" clip-rule="evenodd" fill="#ff7262" fill-rule="evenodd"/><path d="M397.021,154.65c0,3.546,2.874,6.421,6.421,6.421h6.421v-12.842h-6.421c-3.547,0-6.421,2.875-6.421,6.421Z" clip-rule="evenodd" fill="#f24e1e" fill-rule="evenodd"/><path d="M397.021,167.492c0,3.547,2.874,6.422,6.421,6.422h6.421v-12.843h-6.421c-3.547,0-6.421,2.875-6.421,6.421Z" clip-rule="evenodd" fill="#a259ff" fill-rule="evenodd"/></g></g></g><g filter="url(#eRSlWkZzhJo139-filter)"><rect width="92.465797" height="92.4664" rx="17.1233" ry="17.1233" transform="translate(243.766998 56.190701)" fill="#fff"/><g><rect width="51.3699" height="51.3699" rx="0" ry="0" transform="translate(264.315002 76.738602)" fill="#fff"/><g clip-path="url(#eRSlWkZzhJo149)"><g><path d="M295.089,95.293l-5.138,4.783-4.768-9.6226l2.463-5.5331c.623-1.1037,1.641-1.1183,2.264,0l5.179,10.3727Z" fill="#ffa000"/><path d="M289.953,100.075l-19.217,17.873l14.448-27.4944l4.769,9.6214Z" fill="#f57f17"/><path d="M300.722,87.9775c.92-.8767,1.867-.581,2.107.6643l4.996,29.0652-16.57,9.947c-.581.325-2.122.452-2.122.452s-1.402-.17-1.939-.466l-16.458-9.692l29.986-29.9705Z" fill="#ffca28"/><path d="M285.184,90.4535L270.736,117.948l6.439-40.1871c.242-1.2453.948-1.3723,1.585-.2686l6.424,12.9612Z" fill="#ffa000"/></g><clipPath id="eRSlWkZzhJo149"><rect width="37.088402" height="51.3699" rx="0" ry="0" transform="translate(270.735992 76.738602)" fill="#fff"/></clipPath></g></g></g><g filter="url(#eRSlWkZzhJo151-filter)"><rect width="92.465797" height="92.4664" rx="17.1233" ry="17.1233" transform="translate(243.766998 299.342987)" fill="#fff"/><g><g clip-path="url(#eRSlWkZzhJo158)"><g><g><path d="M288.528,323.114c-.096.009-.404.039-.681.061-6.384.576-12.364,4.02-16.151,9.314-2.109,2.943-3.458,6.282-3.968,9.819-.18,1.234-.202,1.599-.202,3.273c0,1.673.022,2.038.202,3.272c1.221,8.44,7.228,15.53,15.374,18.157c1.459.47,2.996.791,4.745.984.681.075,3.625.075,4.306,0c3.019-.333,5.576-1.08,8.098-2.367.387-.198.461-.251.409-.295-.036-.026-1.683-2.236-3.66-4.907l-3.595-4.854-4.503-6.665c-2.478-3.664-4.517-6.66-4.535-6.66-.017-.004-.035,2.957-.044,6.572-.013,6.331-.017,6.586-.096,6.735-.115.215-.202.303-.387.4-.141.07-.264.083-.927.083h-.76l-.202-.127c-.132-.084-.229-.193-.295-.321l-.092-.198.009-8.808.013-8.813.136-.171c.071-.092.22-.211.325-.268.181-.088.251-.096,1.011-.096.896,0,1.046.035,1.279.289.065.071,2.504,3.743,5.422,8.167c2.917,4.424,6.907,10.465,8.866,13.43l3.559,5.391.18-.119c1.595-1.037,3.283-2.513,4.618-4.05c2.843-3.265,4.675-7.245,5.29-11.489.181-1.234.203-1.599.203-3.272c0-1.674-.022-2.039-.203-3.273-1.221-8.44-7.227-15.53-15.374-18.157-1.436-.466-2.965-.787-4.679-.98-.422-.044-3.326-.092-3.691-.057Zm9.201,13.592c.211.106.382.308.444.519.035.114.044,2.557.035,8.061l-.013,7.899-1.393-2.135-1.397-2.135v-5.742c0-3.712.017-5.799.044-5.9.07-.246.224-.439.434-.553.181-.093.247-.102.936-.102.651,0,.765.009.91.088Z"/></g></g><clipPath id="eRSlWkZzhJo158"><rect width="44.948601" height="44.948601" rx="0" ry="0" transform="translate(267.526001 323.10199)" fill="#fff"/></clipPath></g></g></g><g><rect width="65.068497" height="65.068901" rx="13.6986" ry="13.6986" transform="translate(257.466003 191.466003)" fill="url(#eRSlWkZzhJo161-fill)"/><g><rect width="44.5205" height="44.5205" rx="9.41781" ry="9.41781" transform="translate(267.73999 201.740005)" fill="#fff"/><rect width="44.5205" height="44.5205" rx="9.41781" ry="9.41781" transform="translate(267.73999 201.740005)" fill="none" stroke="#00d7ff" stroke-width="1.71233"/><g><g><g><g><path d="M279.525,233.457v-7.316l10.16,2.997v6.848l-10.16-2.529Z" fill="#f15637"/><path d="M284.634,226.85l-1.375-2.757-3.734,1.339l5.109,1.418Z" fill="#f15637"/></g><g><path d="M300.476,233.457v-7.316l-10.16,2.997v6.848l10.16-2.529Z"/><path d="M295.367,226.85l1.375-2.757l3.734,1.339-5.109,1.418Z"/></g></g><g><g><path d="M287.936,214.691l-4.51-2.677c-.408,1.339-.796,4.399.917,5.929-.408.752-1.193,2.379-1.07,2.869c1.86.242,5.695,1.607,6.154,5.126h.573v-11.618c-.933.002-1.689.206-2.064.371Z" fill="#f15637"/><path d="M288.619,227.323c.664-4.255-3.368-5.671-5.467-5.847l-.076,1.471c.792.025,2.549.242,3.243.905.867.83.905,3.018,2.3,3.471Z" fill="#f15637"/></g><g><path d="M287.936,214.691l-4.51-2.677c-.408,1.339-.796,4.399.917,5.929-.408.752-1.193,2.379-1.07,2.869c1.86.242,5.695,1.607,6.154,5.126h.573v-11.618c-.933.002-1.689.206-2.064.371Z" fill="#f15637"/><path d="M288.619,227.323c.664-4.255-3.368-5.671-5.467-5.847l-.076,1.471c.792.025,2.549.242,3.243.905.867.83.905,3.018,2.3,3.471Z" fill="#f15637"/></g><path d="M287.936,214.692l-4.51-2.678c-.408,1.339-.796,4.399.917,5.929-.408.752-1.193,2.379-1.07,2.869c1.86.242,5.695,1.607,6.154,5.126h.573v-11.618c-.933.002-1.689.206-2.064.372Z" fill="#f15637"/><path d="M288.619,227.323c.664-4.255-3.368-5.671-5.467-5.847l-.076,1.471c.792.025,2.549.242,3.243.906.867.829.905,3.017,2.3,3.47Z" fill="#f15637"/><g><path d="M292.064,214.691l4.51-2.677c.408,1.339.796,4.399-.917,5.929.408.752,1.193,2.379,1.07,2.869-1.86.242-5.695,1.607-6.154,5.126h-.573v-11.618c.933.002,1.689.206,2.064.371Z"/><path d="M291.381,227.323c-.664-4.255,3.368-5.671,5.467-5.847l.076,1.471c-.792.025-2.549.242-3.243.905-.867.83-.905,3.018-2.3,3.471Z" stroke="#fff" stroke-width="0.089751"/></g><path d="M292.064,214.691l4.51-2.677c.408,1.339.796,4.399-.917,5.929.408.752,1.193,2.379,1.07,2.869-1.86.242-5.695,1.607-6.154,5.126h-.573v-11.618c.933.002,1.689.206,2.064.371Z"/><path d="M291.381,227.323c-.664-4.255,3.368-5.671,5.467-5.847l.076,1.471c-.792.025-2.549.242-3.243.906-.867.829-.905,3.017-2.3,3.47Z" stroke="#fff" stroke-width="0.192092"/><path d="M287,220.48l.702-.619l1.073,1.073-.66.619L287,220.48Z" fill="none" stroke="#fff" stroke-width="0.240114"/><path d="M293,220.48l-.702-.619-1.073,1.073.66.619L293,220.48Z" fill="none" stroke="#fff" stroke-width="0.240114"/></g><path d="M288.012,214.691l-4.511-2.677c-.408,1.339-.795,4.399.918,5.929-.408.752-1.193,2.379-1.071,2.869c1.86.242,5.696,1.607,6.154,5.126h.574.573c.459-3.519,4.294-4.884,6.154-5.126.122-.49-.663-2.117-1.07-2.869c1.712-1.53,1.325-4.59.917-5.929l-4.51,2.677c-.376-.165-1.132-.369-2.064-.371-.933.002-1.689.206-2.064.371Z" fill="none" stroke="#fff" stroke-width="0.188356"/></g></g></g></g><g filter="url(#eRSlWkZzhJo191-filter)"><rect width="65.068497" height="65.068901" rx="13.6986" ry="13.6986" transform="translate(474.931 134.957993)" fill="#fff"/><g><path d="M522.449,167.493c0,8.275-6.708,14.983-14.983,14.983s-14.983-6.708-14.983-14.983s6.708-14.983,14.983-14.983s14.983,6.708,14.983,14.983Zm-9.713,11.715c-1.608.724-3.392,1.127-5.27,1.127-3.1,0-5.944-1.098-8.163-2.927c2.309-3.874,6.022-6.811,10.435-8.111c1.268,3.181,2.276,6.493,2.998,9.911Zm1.953-1.095c-.711-3.198-1.665-6.305-2.841-9.301.979-.164,1.984-.249,3.009-.249c1.852,0,3.637.278,5.317.794-.528,3.635-2.579,6.776-5.485,8.756Zm5.616-10.948c-1.734-.484-3.562-.742-5.448-.742-1.314,0-2.6.125-3.844.364-.325-.749-.664-1.491-1.016-2.224c2.801-1.244,5.391-2.88,7.698-4.837c1.578,2.076,2.54,4.647,2.61,7.439Zm-4.043-9.03c-2.166,1.83-4.597,3.356-7.226,4.512-1.388-2.654-2.959-5.198-4.696-7.613c1-.251,2.048-.384,3.126-.384c3.404,0,6.498,1.324,8.796,3.485Zm-14.037-2.37c-3.77,1.688-6.578,5.14-7.373,9.306.73.053,1.469.081,2.213.081c3.498,0,6.854-.603,9.97-1.711-1.415-2.683-3.025-5.248-4.81-7.676ZM494.627,167.2c-.002.098-.003.195-.003.293c0,3.202,1.172,6.13,3.11,8.379c2.553-4.046,6.502-7.125,11.172-8.56-.288-.655-.588-1.304-.898-1.946-3.413,1.246-7.099,1.926-10.943,1.926-.82,0-1.633-.031-2.438-.092Z" clip-rule="evenodd" fill="#e84c88" fill-rule="evenodd"/></g></g><g filter="url(#eRSlWkZzhJo195-filter)"><rect width="65.068497" height="65.068901" rx="13.6986" ry="13.6986" transform="translate(377.32901 37.355)" fill="#fff"/><g><circle r="14.9829" transform="translate(409.863007 69.889297)" fill="#105dfb"/><g><path d="M400.099,76.2668v-13.0737h6.043c1.942,0,3.515,1.5737,3.515,3.515c0,1.2336-.379,1.9977-1.77,2.7816c1.665.7583,2.127,1.8094,2.127,3.2754c0,1.9831-1.762,3.5017-3.745,3.5017h-6.17Zm2.557-10.9096v3.1438h2.993c0,0,1.455,0,1.455-1.5719s-1.455-1.5719-1.455-1.5719h-2.993Zm0,8.6955v-3.3946h3.211c.518,0,1.605.2676,1.605,1.8729c0,1.1906-1.07,1.5105-1.605,1.5217h-3.211Z" clip-rule="evenodd" fill="#fff" fill-rule="evenodd"/><path d="M415.482,66.7953c-1.84,0-4.565,1.3211-4.565,4.8327c0,2.1382,1.17,4.8828,4.682,4.8828c2.809,0,4.102-2.0624,4.398-3.0936h-2.642c-.134.4682-.652.9866-1.756.9866-1.605,0-2.174-1.3712-2.258-2.0568h6.656v-.719c0-3.5116-2.676-4.8327-4.515-4.8327Zm0,2.0067c-1.498,0-2.051,1.2374-2.141,1.8561h4.014c0-.6187-.375-1.8561-1.873-1.8561Z" clip-rule="evenodd" fill="#fff" fill-rule="evenodd"/><path d="M412.288,63.9359v1.622h6.304v-1.622h-6.304Z" fill="#fff"/></g></g></g><g filter="url(#eRSlWkZzhJo203-filter)"><rect width="65.068497" height="65.068901" rx="13.6986" ry="13.6986" transform="translate(474.931 247.973007)" fill="#fff"/><g><g><path d="M492.483,276.369c0-3.796,0-5.694.739-7.144.65-1.275,1.687-2.312,2.962-2.962c1.45-.739,3.348-.739,7.144-.739h8.276c3.796,0,5.694,0,7.144.739c1.276.65,2.313,1.687,2.962,2.962.739,1.45.739,3.348.739,7.144v8.276c0,3.796,0,5.694-.739,7.144-.649,1.275-1.686,2.312-2.962,2.962-1.45.739-3.348.739-7.144.739h-8.276c-3.796,0-5.694,0-7.144-.739-1.275-.65-2.312-1.687-2.962-2.962-.739-1.45-.739-3.348-.739-7.144v-8.276Z" fill="#242424"/><path d="M500.902,280.935c-4.174,3.072-4.995,7.563-4.995,11.309.19-1.118,1.063-3.739,3.032-5.28c2.926-2.289,8.277-1.535,14.127-5.422c5.851-3.887,6.421-8.954,5.672-12.843-.52,3.752-2.297,5.388-4.744,6.85-5.316,3.175-8.633,2.104-13.092,5.386Z" fill="url(#eRSlWkZzhJo208-fill)"/><path d="M500.902,280.935c-4.174,3.072-4.995,7.563-4.995,11.309.19-1.118,1.063-3.739,3.032-5.28c2.926-2.289,8.277-1.535,14.127-5.422c5.851-3.887,6.421-8.954,5.672-12.843-.52,3.752-2.297,5.388-4.744,6.85-5.316,3.175-8.633,2.104-13.092,5.386Z" fill="url(#eRSlWkZzhJo209-fill)"/><path d="M495.958,290.708c.229-3.385,1.328-7.112,4.944-9.773c2.325-1.711,4.339-2.239,6.488-2.803c1.255-.328,2.554-.669,3.989-1.264-.524.5-3.01,1.666-4.885,2.445-1.871.778-3.843,1.597-5.485,2.692-3.294,2.196-4.633,6.017-5.051,8.703Z" fill="url(#eRSlWkZzhJo210-fill)"/><path d="M495.958,290.708c.229-3.385,1.328-7.112,4.944-9.773c2.325-1.711,4.339-2.239,6.488-2.803c1.255-.328,2.554-.669,3.989-1.264-.524.5-3.01,1.666-4.885,2.445-1.871.778-3.843,1.597-5.485,2.692-3.294,2.196-4.633,6.017-5.051,8.703Z" fill="url(#eRSlWkZzhJo211-fill)"/><path d="M516.26,278.764c-.41.402-.867.761-1.374,1.066-2.284,1.369-4.71,1.811-7.072,2.241-1.881.343-3.721.678-5.414,1.469-3.817,1.783-6.171,5.493-6.493,8.703c0,0,0,.001,0,.001c0-.001,0-.001,0-.002c0-.245.004-.493.012-.744.019-.398.06-.839.128-1.309.504-2.641,1.875-6.125,4.962-8.183c1.306-.872,2.822-1.569,4.33-2.209c1.325-.435,2.52-.706,3.658-.964c1.792-.406,3.444-.781,5.246-1.715c3.783-1.96,4.774-5.987,4.507-8.356.566,3.002.337,6.694-2.49,10.002Z" fill="url(#eRSlWkZzhJo212-fill)"/><path d="M516.261,278.764c-.41.402-.868.761-1.375,1.066-2.283,1.369-4.71,1.811-7.071,2.241-1.882.343-3.722.678-5.414,1.469-2.195,1.025-3.907,2.688-5.026,4.527.987-1.388,2.492-2.938,4.348-3.529c1.811-.576,3.538-.635,5.333-.697.514-.018,1.034-.036,1.563-.066c1.426-.519,2.92-1.218,4.448-2.233c1.317-.875,2.367-1.81,3.194-2.778Z" fill="url(#eRSlWkZzhJo213-fill)"/><path d="M516.261,278.764c-.41.402-.868.761-1.375,1.066-2.283,1.369-4.71,1.811-7.071,2.241-1.882.343-3.722.678-5.414,1.469-2.195,1.025-3.907,2.688-5.026,4.527.987-1.388,2.492-2.938,4.348-3.529c1.811-.576,3.538-.635,5.333-.697.514-.018,1.034-.036,1.563-.066c1.426-.519,2.92-1.218,4.448-2.233c1.317-.875,2.367-1.81,3.194-2.778Z" fill="url(#eRSlWkZzhJo214-fill)"/><path d="M518.75,268.762c-.004-.021-.008-.042-.012-.063-.52,3.752-2.297,5.388-4.745,6.85-.927.554-1.793.978-2.616,1.319-.523.5-3.009,1.667-4.884,2.446h-.001c-.381.159-.767.319-1.154.483c1.326-.435,2.521-.706,3.659-.964c1.792-.406,3.444-.781,5.246-1.715c3.782-1.96,4.773-5.987,4.507-8.356Z" fill="url(#eRSlWkZzhJo215-fill)"/><path d="M518.75,268.762c-.004-.021-.008-.042-.012-.063-.52,3.752-2.297,5.388-4.745,6.85-.927.554-1.793.978-2.616,1.319-.523.5-3.009,1.667-4.884,2.446h-.001c-.381.159-.767.319-1.154.483c1.326-.435,2.521-.706,3.659-.964c1.792-.406,3.444-.781,5.246-1.715c3.782-1.96,4.773-5.987,4.507-8.356Z" fill="url(#eRSlWkZzhJo216-fill)"/></g></g></g><g filter="url(#eRSlWkZzhJo217-filter)"><rect width="65.068497" height="65.068901" rx="13.6986" ry="13.6986" transform="translate(377.32901 345.575989)" fill="#fff"/><g><g><circle r="8.98973" transform="translate(403.869995 378.109009)" fill="#e80b26"/><circle r="8.98973" transform="translate(415.855011 378.109009)" fill="#f59d31"/><path d="M409.862,384.81c1.84-1.646,2.997-4.038,2.997-6.7c0-2.663-1.157-5.055-2.997-6.701-1.839,1.646-2.996,4.038-2.996,6.701c0,2.662,1.157,5.054,2.996,6.7Z" fill="#fc6020"/></g></g></g><g filter="url(#eRSlWkZzhJo224-filter)"><rect width="65.068497" height="65.068901" rx="13.6986" ry="13.6986" transform="translate(137.602997 345.575989)" fill="#fff"/><g><g><path d="M173.004,378.085c0-1.536-1.284-2.78-2.867-2.78-1.584,0-2.867,1.244-2.867,2.78c0,1.535,1.283,2.779,2.867,2.779c1.583,0,2.867-1.244,2.867-2.779Z" fill="#53c1de"/><path d="M179.448,372.924c.605-2.386,1.366-6.809-1.317-8.309-2.67-1.493-6.145,1.368-7.98,3.086-1.829-1.701-5.401-4.55-8.082-3.045-2.669,1.498-1.846,5.848-1.227,8.248-2.49.686-6.759,2.163-6.759,5.181c0,3.008,4.264,4.615,6.74,5.3-.622,2.414-1.404,6.702,1.269,8.197c2.691,1.504,6.252-1.277,8.104-3.013c1.846,1.727,5.288,4.526,7.959,3.027c2.679-1.503,1.981-5.868,1.362-8.282c2.4-.686,6.673-2.258,6.673-5.229c0-2.989-4.292-4.478-6.742-5.161Zm-.304,9.111c-.407-1.247-.955-2.574-1.626-3.944.64-1.338,1.167-2.647,1.562-3.886c1.797.505,5.738,1.659,5.738,3.88c0,2.241-3.782,3.406-5.674,3.95Zm-1.677,8.411c-1.992,1.118-4.952-1.559-6.316-2.831.905-.96,1.809-2.075,2.691-3.314c1.552-.133,3.019-.351,4.349-.649.435,1.707,1.278,5.67-.724,6.794Zm-14.69-.016c-1.992-1.115-1.082-4.941-.625-6.719c1.315.282,2.771.485,4.327.607.888,1.212,1.819,2.326,2.756,3.302-1.158,1.086-4.455,3.929-6.458,2.81Zm-7.322-12.345c0-2.25,3.918-3.396,5.755-3.9.402,1.267.929,2.592,1.565,3.932-.644,1.36-1.179,2.705-1.584,3.987-1.753-.486-5.736-1.769-5.736-4.019Zm7.301-12.278c2.001-1.123,5.106,1.612,6.434,2.843-.932.971-1.854,2.077-2.735,3.281-1.51.136-2.955.354-4.284.646-.498-1.936-1.414-5.648.585-6.77Zm12.067,7.57c1.025.125,2.006.292,2.928.496-.277.86-.622,1.759-1.028,2.681-.589-1.084-1.221-2.145-1.9-3.177Zm-4.671-3.777c.633.665,1.266,1.407,1.889,2.212-1.264-.058-2.53-.059-3.794-.001.623-.798,1.262-1.539,1.905-2.211Zm-6.59,6.953c-.4-.919-.741-1.822-1.02-2.694.916-.199,1.892-.361,2.91-.485-.681,1.03-1.312,2.091-1.89,3.179Zm1.92,6.337c-1.052-.114-2.044-.268-2.959-.462.283-.887.632-1.81,1.04-2.748.587,1.099,1.227,2.17,1.919,3.21Zm4.708,3.773c-.65-.68-1.299-1.433-1.932-2.242c1.272.049,2.545.049,3.817-.006-.626.824-1.257,1.577-1.885,2.248Zm6.546-7.031c.429.949.791,1.866,1.078,2.739-.931.206-1.936.372-2.995.495.685-1.052,1.327-2.13,1.917-3.234Zm-3.659,3.395c-1.945.135-3.902.133-5.847.011-1.106-1.566-2.09-3.212-2.939-4.922.845-1.705,1.822-3.349,2.922-4.912c1.947-.142,3.906-.143,5.853.001c1.09,1.563,2.066,3.202,2.931,4.893-.855,1.705-1.837,3.351-2.92,4.929Zm4.369-17.26c2.002,1.12,1.111,5.095.674,6.824-1.332-.298-2.779-.52-4.293-.658-.882-1.218-1.796-2.325-2.714-3.284c1.345-1.257,4.351-3.99,6.333-2.882Z" clip-rule="evenodd" fill="#53c1de" fill-rule="evenodd"/></g></g></g><g filter="url(#eRSlWkZzhJo230-filter)"><rect width="65.068497" height="65.068901" rx="13.6986" ry="13.6986" transform="translate(40 247.973007)" fill="#fff"/><g><g><path d="M73.7895,265.844c-.7596-.427-1.7499-.426-2.5102,0-3.8078,2.101-7.6157,4.203-11.4242,6.304-.7411.389-1.2409,1.185-1.2329,2.011v12.697c-.0054.842.5202,1.646,1.2804,2.03c1.094.582,2.1568,1.223,3.2705,1.767c1.2864.632,2.8959.772,4.1981.112c1.057-.546,1.5265-1.761,1.5252-2.878.0085-4.19.0013-8.381.0033-12.571.0251-.186-.1147-.385-.3178-.381-.4867-.007-.9739-.004-1.4606-.001-.1839-.017-.3633.135-.3494.32-.0066,4.163.0013,8.328-.004,12.492.0106.576-.3785,1.13-.9336,1.324-1.282.449-4.9413-1.926-4.9413-1.926-.1343-.063-.2195-.208-.2064-.353c0-4.189.0007-8.378,0-12.567-.0184-.168.0856-.32.2407-.389c3.7953-2.089,7.5886-4.184,11.3839-6.274.1318-.088.3156-.088.4471.001c3.7953,2.089,7.5893,4.182,11.3852,6.271.1556.069.2552.223.2394.391-.0007,4.189.0013,8.378-.0013,12.566.0112.149-.0653.292-.2038.357-3.7599,2.078-7.5625,4.089-11.2883,6.227-.1626.093-.3467.199-.5288.096-.9798-.542-1.9477-1.105-2.9243-1.652-.1061-.067-.2413-.095-.3521-.021-.4379.231-.8496.418-1.3524.617-.7062.279-.5933.394.0435.765c1.1421.646,2.286,1.29,3.428,1.937.7518.469,1.762.502,2.538.069c3.8085-2.099,7.6157-4.2,11.4248-6.299.7582-.387,1.2865-1.187,1.2811-2.03v-12.697c.0073-.809-.4734-1.591-1.1921-1.986-3.821-2.112-7.644-4.219-11.4657-6.329Z" fill="#8cc84b"/><path d="M79.5359,275.377c-1.4948-.8-3.273-.843-4.9341-.738-1.1999.118-2.462.45-3.3364,1.31-.8967.865-1.0918,2.261-.6659,3.39.3052.797,1.0735,1.316,1.868,1.591c1.0235.361,2.0984.473,3.1736.584.9808.102,1.9618.204,2.9045.496.385.127.8334.323.9514.741.1089.497-.0105,1.073-.4134,1.418-1.2795,1.013-4.8388.858-6.1031.061-.511-.34-.7313-.941-.8209-1.514-.0099-.179-.1536-.342-.3475-.329-.4853-.005-.9706-.004-1.4559,0-.1694-.015-.3455.106-.3547.279-.0997,2.624,2.31,3.767,4.5708,4.019c1.2917.123,2.6117.116,3.8836-.161.9561-.218,1.9148-.618,2.573-1.355.8116-.895.9711-2.228.6071-3.342-.2782-.832-1.0735-1.366-1.8864-1.64-1.1055-.379-2.4157-.583-3.4169-.678-1.4554-.139-3.1849-.082-3.5968-1.039-.1642-.501-.0244-1.122.4358-1.43c1.2175-.826,3.6955-.717,4.9565-.1.579.29.9145.886,1.053,1.487.0256.177.1444.361.3489.353.4819.01.964.003,1.4459.003.1656.012.3468-.082.3792-.251-.0205-1.256-.6621-2.543-1.8193-3.155Z" fill="#8cc84b"/></g></g></g><g filter="url(#eRSlWkZzhJo236-filter)"><rect width="65.068497" height="65.068901" rx="13.6986" ry="13.6986" transform="translate(40 134.957993)" fill="#fff"/><g><g><path d="M57.5513,161.874v9.364h8.4278v1.873h6.555v-1.873h14.9829v-9.364h-29.9657Z" fill="#cb3837"/><path d="M62.6663,163.747h-3.242v5.619h3.242v-4.11h1.6494v4.11h1.6494v-5.619h-3.2988Zm4.9482,0v7.491h3.2988v-1.872h3.242v-5.619h-6.5408Zm4.8914,4.11h-1.5926v-2.601h1.5926v2.601Zm6.5408-4.11h-3.242v5.619h3.242v-4.11h1.6494v4.11h1.6494v-4.11h1.6494v4.11h1.6495v-5.619h-6.5977Z" fill="#fff"/></g></g></g><g filter="url(#eRSlWkZzhJo242-filter)"><rect width="65.068497" height="65.068901" rx="13.6986" ry="13.6986" transform="translate(137.602997 37.355)" fill="#fff"/><g><path d="M170.138,54.9101c0,0,8.832-.3949,13.514,8.4504h-14.265c0,0-2.692-.0864-4.992,3.1679-.66,1.3659-1.371,2.773-.574,5.5459-1.148-1.9378-6.094-10.5198-6.094-10.5198s3.489-6.2947,12.411-6.6444v0Z" fill="#ef3f36"/><path d="M183.194,77.3654c0,0-4.076,7.8209-14.1,7.4342c1.238-2.1353,7.134-12.3095,7.134-12.3095s1.425-2.2792-.256-5.8913c-.854-1.2548-1.726-2.5672-4.533-3.2667c2.258-.0205,12.188,0,12.188,0s3.72,6.1589-.433,14.0333Z" fill="#fcd900"/><path d="M157.143,77.4277c0,0-4.761-7.426.59-15.8846c1.235,2.1353,7.131,12.3095,7.131,12.3095s1.272,2.3698,5.248,2.7234c1.515-.111,3.092-.2056,5.107-2.275-1.111,1.9584-6.094,10.5157-6.094,10.5157s-7.217.1317-11.982-7.389v0Z" fill="#61bc5b"/><path d="M169.089,84.8736l2.007-8.3433c0,0,2.205-.173,4.055-2.1929-1.148,2.0119-6.062,10.5362-6.062,10.5362v0Z" fill="#5ab055"/><path d="M163.416,69.9848c0-3.6779,2.993-6.6607,6.685-6.6607c3.691,0,6.684,2.9828,6.684,6.6607s-2.993,6.6607-6.684,6.6607c-3.692-.0041-6.685-2.9827-6.685-6.6607v0Z" fill="#fff"/><path d="M164.535,69.9848c0-3.0609,2.49-5.5458,5.566-5.5458c3.072,0,5.566,2.4808,5.566,5.5458c0,3.061-2.49,5.5459-5.566,5.5459-3.072,0-5.566-2.4849-5.566-5.5459v0Z" fill="url(#eRSlWkZzhJo250-fill)"/><path d="M183.623,63.3369l-8.262,2.415c0,0-1.247-1.8226-3.926-2.415c2.324-.0124,12.188,0,12.188,0v0Z" fill="#eaca05"/><path d="M163.66,71.7699c-1.16-2.0036-5.933-10.2155-5.933-10.2155l6.119,6.0314c0,0-.628,1.2877-.392,3.1308l.206,1.0533v0Z" fill="#df3a32"/></g></g></g></g></svg>
