<svg cache-id="5700ee611df94e40a6705d0c9a49382d" id="em305lJbgGA1" xmlns="http://www.w3.org/2000/svg" xmlns:xlink="http://www.w3.org/1999/xlink" viewBox="0 0 580 448" shape-rendering="geometricPrecision" text-rendering="geometricPrecision">
<style><![CDATA[
#em305lJbgGA10_to {animation: em305lJbgGA10_to__to 15500ms linear infinite normal forwards}@keyframes em305lJbgGA10_to__to { 0% {transform: translate(269.998945px,98.000001px)} 25.806452% {transform: translate(269.998945px,98.000001px)} 29.032258% {transform: translate(260.000001px,98.000001px)} 35.483871% {transform: translate(260.000001px,98.000001px)} 38.709677% {transform: translate(249.998945px,98.000001px)} 100% {transform: translate(249.998945px,98.000001px)}} #em305lJbgGA10 {animation: em305lJbgGA10_c_o 15500ms linear infinite normal forwards}@keyframes em305lJbgGA10_c_o { 0% {opacity: 0} 25.806452% {opacity: 0} 29.032258% {opacity: 1} 35.483871% {opacity: 1} 38.709677% {opacity: 0} 100% {opacity: 0}} #em305lJbgGA11_to {animation: em305lJbgGA11_to__to 15500ms linear infinite normal forwards}@keyframes em305lJbgGA11_to__to { 0% {transform: translate(260px,97.000014px)} 16.129032% {transform: translate(270px,97.000014px)} 19.354839% {transform: translate(260px,97.000014px)} 25.806452% {transform: translate(260px,97.000014px)} 29.032258% {transform: translate(250.002836px,97.000014px)} 100% {transform: translate(250.002836px,97.000014px)}} #em305lJbgGA11 {animation: em305lJbgGA11_c_o 15500ms linear infinite normal forwards}@keyframes em305lJbgGA11_c_o { 0% {opacity: 0} 16.129032% {opacity: 0} 19.354839% {opacity: 1} 25.806452% {opacity: 1} 29.032258% {opacity: 0} 100% {opacity: 0}} #em305lJbgGA14_to {animation: em305lJbgGA14_to__to 15500ms linear infinite normal forwards}@keyframes em305lJbgGA14_to__to { 0% {transform: translate(260px,96.000049px)} 6.451613% {transform: translate(270px,96.000049px)} 9.677419% {transform: translate(260.0023px,96.000049px)} 16.129032% {transform: translate(260.0023px,96.000049px)} 19.354839% {transform: translate(250.0023px,96.000049px)} 100% {transform: translate(250.0023px,96.000049px)}} #em305lJbgGA14 {animation: em305lJbgGA14_c_o 15500ms linear infinite normal forwards}@keyframes em305lJbgGA14_c_o { 0% {opacity: 0} 6.451613% {opacity: 0} 9.677419% {opacity: 1} 16.129032% {opacity: 1} 19.354839% {opacity: 0} 100% {opacity: 0}} #em305lJbgGA25_to {animation: em305lJbgGA25_to__to 15500ms linear infinite normal forwards}@keyframes em305lJbgGA25_to__to { 0% {transform: translate(260px,92px)} 6.451613% {transform: translate(260px,92px)} 9.677419% {transform: translate(249.999021px,92px)} 78.709677% {transform: translate(249.999021px,92px)} 79.354839% {transform: translate(259.999021px,92px)} 100% {transform: translate(259.999021px,92px)}} #em305lJbgGA25 {animation: em305lJbgGA25_c_o 15500ms linear infinite normal forwards}@keyframes em305lJbgGA25_c_o { 0% {opacity: 1} 6.451613% {opacity: 1} 9.677419% {opacity: 0} 78.709677% {opacity: 0} 79.354839% {opacity: 1} 100% {opacity: 1}} #em305lJbgGA26_to {animation: em305lJbgGA26_to__to 15500ms linear infinite normal forwards}@keyframes em305lJbgGA26_to__to { 0% {transform: translate(260px,99px)} 35.483871% {transform: translate(270.002779px,99px)} 38.709677% {transform: translate(260px,99px)} 45.16129% {transform: translate(260px,99px)} 48.387097% {transform: translate(250.002779px,99px)} 100% {transform: translate(250.002779px,99px)}} #em305lJbgGA26 {animation: em305lJbgGA26_c_o 15500ms linear infinite normal forwards}@keyframes em305lJbgGA26_c_o { 0% {opacity: 0} 35.483871% {opacity: 0} 38.709677% {opacity: 1} 45.16129% {opacity: 1} 48.387097% {opacity: 0} 100% {opacity: 0}} #em305lJbgGA27_to {animation: em305lJbgGA27_to__to 15500ms linear infinite normal forwards}@keyframes em305lJbgGA27_to__to { 0% {transform: translate(260px,100px)} 45.16129% {transform: translate(270.003px,100px)} 48.387097% {transform: translate(260px,100px)} 78.709677% {transform: translate(260px,100px)} 100% {transform: translate(260px,100px)}} #em305lJbgGA27 {animation: em305lJbgGA27_c_o 15500ms linear infinite normal forwards}@keyframes em305lJbgGA27_c_o { 0% {opacity: 0} 45.16129% {opacity: 0} 48.387097% {opacity: 1} 78.709677% {opacity: 1} 79.354839% {opacity: 0} 100% {opacity: 0}} #em305lJbgGA30 {animation: em305lJbgGA30_c_o 15500ms linear infinite normal forwards}@keyframes em305lJbgGA30_c_o { 0% {opacity: 1} 54.83871% {opacity: 1;animation-timing-function: step-start} 55.483871% {opacity: 0;animation-timing-function: step-start} 56.129032% {opacity: 1;animation-timing-function: step-start} 56.774194% {opacity: 0;animation-timing-function: step-start} 57.419355% {opacity: 1;animation-timing-function: step-start} 58.064516% {opacity: 0;animation-timing-function: step-start} 58.709677% {opacity: 1;animation-timing-function: step-start} 59.354839% {opacity: 0;animation-timing-function: step-start} 60% {opacity: 1;animation-timing-function: step-start} 60.645161% {opacity: 0;animation-timing-function: step-start} 61.290323% {opacity: 1;animation-timing-function: step-start} 64.516129% {opacity: 1;animation-timing-function: step-start} 65.16129% {opacity: 0;animation-timing-function: step-start} 65.806452% {opacity: 1;animation-timing-function: step-start} 66.451613% {opacity: 0;animation-timing-function: step-start} 67.096774% {opacity: 1;animation-timing-function: step-start} 67.741935% {opacity: 0;animation-timing-function: step-start} 68.387097% {opacity: 1;animation-timing-function: step-start} 69.032258% {opacity: 0;animation-timing-function: step-start} 69.677419% {opacity: 1;animation-timing-function: step-start} 70.322581% {opacity: 0;animation-timing-function: step-start} 70.967742% {opacity: 1;animation-timing-function: step-start} 74.193548% {opacity: 1;animation-timing-function: step-start} 74.83871% {opacity: 0;animation-timing-function: step-start} 75.483871% {opacity: 1} 100% {opacity: 1}} #em305lJbgGA44 {animation: em305lJbgGA44_c_o 15500ms linear infinite normal forwards}@keyframes em305lJbgGA44_c_o { 0% {opacity: 0} 54.83871% {opacity: 0;animation-timing-function: step-start} 55.483871% {opacity: 1;animation-timing-function: step-start} 56.129032% {opacity: 0;animation-timing-function: step-start} 56.774194% {opacity: 1;animation-timing-function: step-start} 57.419355% {opacity: 0;animation-timing-function: step-start} 58.064516% {opacity: 1;animation-timing-function: step-start} 58.709677% {opacity: 0;animation-timing-function: step-start} 59.354839% {opacity: 1;animation-timing-function: step-start} 60% {opacity: 0;animation-timing-function: step-start} 60.645161% {opacity: 1;animation-timing-function: step-start} 61.290323% {opacity: 0;animation-timing-function: step-start} 64.516129% {opacity: 0;animation-timing-function: step-start} 65.16129% {opacity: 1;animation-timing-function: step-start} 65.806452% {opacity: 0;animation-timing-function: step-start} 66.451613% {opacity: 1;animation-timing-function: step-start} 67.096774% {opacity: 0;animation-timing-function: step-start} 67.741935% {opacity: 1;animation-timing-function: step-start} 68.387097% {opacity: 0;animation-timing-function: step-start} 69.032258% {opacity: 1;animation-timing-function: step-start} 69.677419% {opacity: 0;animation-timing-function: step-start} 70.322581% {opacity: 1;animation-timing-function: step-start} 70.967742% {opacity: 0;animation-timing-function: step-start} 74.193548% {opacity: 0;animation-timing-function: step-start} 74.83871% {opacity: 1;animation-timing-function: step-start} 75.483871% {opacity: 0} 100% {opacity: 0}} #em305lJbgGA60_to {animation: em305lJbgGA60_to__to 15500ms linear infinite normal forwards}@keyframes em305lJbgGA60_to__to { 0% {transform: translate(25.284674px,175.0485px)} 54.83871% {transform: translate(25.284674px,175.0485px)} 61.290323% {transform: translate(155.085074px,175.0485px)} 79.354839% {transform: translate(155.085074px,175.0485px)} 80.645161% {transform: translate(15.195416px,176.212455px)} 100% {transform: translate(15.195416px,176.212455px)}} #em305lJbgGA66_to {animation: em305lJbgGA66_to__to 15500ms linear infinite normal forwards}@keyframes em305lJbgGA66_to__to { 0% {transform: translate(38.469691px,243.627px)} 64.516129% {transform: translate(38.469691px,243.627px)} 70.967742% {transform: translate(146.505834px,245.0285px)} 79.354839% {transform: translate(146.505834px,245.0285px)} 80.645161% {transform: translate(33.000001px,243.627px)} 100% {transform: translate(33.000001px,243.627px)}} #em305lJbgGA68 {animation: em305lJbgGA68_f_p 15500ms linear infinite normal forwards}@keyframes em305lJbgGA68_f_p { 0% {fill: #1ed760} 6.451613% {fill: #1ed760} 9.677419% {fill: #f90} 16.129032% {fill: #f90} 19.354839% {fill: #24292e} 25.806452% {fill: #24292e} 29.032258% {fill: #6441a5} 35.483871% {fill: #6441a5} 38.709677% {fill: #0052ff} 45.16129% {fill: #0052ff} 48.387097% {fill: #d81f26} 74.193548% {fill: #d81f26;animation-timing-function: step-start} 76.129032% {fill: #a81d21;animation-timing-function: cubic-bezier(0.25,1,0.25,1)} 77.419355% {fill: #c81e24} 79.354839% {fill: #d81f26;animation-timing-function: cubic-bezier(0.25,1,0.25,1)} 81.290323% {fill: #1ed760} 100% {fill: #1ed760}} #em305lJbgGA70 {animation: em305lJbgGA70_c_o 15500ms linear infinite normal forwards}@keyframes em305lJbgGA70_c_o { 0% {opacity: 1} 61.290323% {opacity: 1;animation-timing-function: step-end} 64.516129% {opacity: 0} 78.709677% {opacity: 0} 79.354839% {opacity: 1} 100% {opacity: 1}} #em305lJbgGA71 {animation: em305lJbgGA71_c_o 15500ms linear infinite normal forwards}@keyframes em305lJbgGA71_c_o { 0% {opacity: 1} 51.612903% {opacity: 1;animation-timing-function: step-end} 54.83871% {opacity: 0} 78.709677% {opacity: 0} 79.354839% {opacity: 1} 100% {opacity: 1}} #em305lJbgGA72_ts {animation: em305lJbgGA72_ts__ts 15500ms linear infinite normal forwards}@keyframes em305lJbgGA72_ts__ts { 0% {transform: translate(250px,199px) scale(0,0)} 78.709677% {transform: translate(250px,199px) scale(0,0);animation-timing-function: step-start} 80.645161% {transform: translate(250px,199px) scale(1,1)} 98.709677% {transform: translate(250px,199px) scale(1,1);animation-timing-function: cubic-bezier(0.25,1,0.25,1)} 100% {transform: translate(250px,199px) scale(0,0)}} #em305lJbgGA73_ts {animation: em305lJbgGA73_ts__ts 15500ms linear infinite normal forwards}@keyframes em305lJbgGA73_ts__ts { 0% {transform: translate(251.22728px,197.505188px) scale(1,1)} 87.096774% {transform: translate(251.22728px,197.505188px) scale(1,1)} 89.677419% {transform: translate(251.22728px,197.505188px) scale(1.2,1.2)} 91.612903% {transform: translate(251.22728px,197.505188px) scale(1,1)} 96.774194% {transform: translate(251.22728px,197.505188px) scale(1,1)} 98.709677% {transform: translate(251.22728px,197.505188px) scale(0,0)} 100% {transform: translate(251.22728px,197.505188px) scale(0,0)}} #em305lJbgGA74_ts {animation: em305lJbgGA74_ts__ts 15500ms linear infinite normal forwards}@keyframes em305lJbgGA74_ts__ts { 0% {transform: translate(147px,147px) scale(0,0)} 80% {transform: translate(147px,147px) scale(0,0);animation-timing-function: cubic-bezier(0.42,0,0.58,1)} 83.870968% {transform: translate(147px,147px) scale(1,1)} 100% {transform: translate(147px,147px) scale(1,1)}} #em305lJbgGA77 {animation: em305lJbgGA77_s_do 15500ms linear infinite normal forwards}@keyframes em305lJbgGA77_s_do { 0% {stroke-dashoffset: 414.69} 83.870968% {stroke-dashoffset: 414.69} 87.096774% {stroke-dashoffset: 0} 100% {stroke-dashoffset: 0}} #em305lJbgGA78_ts {animation: em305lJbgGA78_ts__ts 15500ms linear infinite normal forwards}@keyframes em305lJbgGA78_ts__ts { 0% {transform: translate(147px,147px) scale(0,0)} 90.322581% {transform: translate(147px,147px) scale(0,0);animation-timing-function: cubic-bezier(0.25,1,0.25,1)} 94.83871% {transform: translate(147px,147px) scale(1,1)} 100% {transform: translate(147px,147px) scale(1,1)}} #em305lJbgGA78 {animation: em305lJbgGA78_c_o 15500ms linear infinite normal forwards}@keyframes em305lJbgGA78_c_o { 0% {opacity: 1} 92.903226% {opacity: 1;animation-timing-function: cubic-bezier(0.42,0,0.58,1)} 96.774194% {opacity: 0} 100% {opacity: 0}} #em305lJbgGA111_ts {animation: em305lJbgGA111_ts__ts 15500ms linear infinite normal forwards}@keyframes em305lJbgGA111_ts__ts { 0% {transform: translate(250px,199px) rotate(-90deg) scale(1,1)} 89.032258% {transform: translate(250px,199px) rotate(-90deg) scale(1,1);animation-timing-function: cubic-bezier(0.25,1,0.25,1)} 91.612903% {transform: translate(250px,199px) rotate(-90deg) scale(1.4,1.4)} 100% {transform: translate(250px,199px) rotate(-90deg) scale(1.4,1.4)}} #em305lJbgGA111 {animation: em305lJbgGA111_c_o 15500ms linear infinite normal forwards}@keyframes em305lJbgGA111_c_o { 0% {opacity: 0} 89.032258% {opacity: 0} 90.322581% {opacity: 1} 91.612903% {opacity: 0} 100% {opacity: 0}}
]]></style>
<defs><filter id="em305lJbgGA3-filter" x="-150%" width="400%" y="-150%" height="400%"><feGaussianBlur id="em305lJbgGA3-filter-drop-shadow-0-blur" in="SourceAlpha" stdDeviation="5,5"/><feOffset id="em305lJbgGA3-filter-drop-shadow-0-offset" dx="0" dy="5" result="tmp"/><feFlood id="em305lJbgGA3-filter-drop-shadow-0-flood" flood-color="rgba(23,0,102,0.1)"/><feComposite id="em305lJbgGA3-filter-drop-shadow-0-composite" operator="in" in2="tmp"/><feMerge id="em305lJbgGA3-filter-drop-shadow-0-merge" result="result"><feMergeNode id="em305lJbgGA3-filter-drop-shadow-0-merge-node-1"/><feMergeNode id="em305lJbgGA3-filter-drop-shadow-0-merge-node-2" in="SourceGraphic"/></feMerge></filter></defs><g transform="translate(40 30)"><g transform="translate(-10-5)" filter="url(#em305lJbgGA3-filter)"><rect width="500" height="398" rx="20" ry="20" transform="translate(10 5)" fill="#fff"/></g><g><circle r="4.5" transform="translate(28.5 27.5)" fill="#ec6a5f"/><circle r="4.5" transform="translate(47.5 27.5)" fill="#f4be4f"/><circle r="4.5" transform="translate(66.5 27.5)" fill="#61c554"/></g><g transform="translate(-10-6)"><g id="em305lJbgGA10_to" transform="translate(269.998945,98.000001)"><path id="em305lJbgGA10" d="M89.1916,10.3444L85.5714,6.72441h-6.7252v-4.65591h-5.6908v21.2076h5.6908v-10.863h4.6546v10.863h5.6908v-12.9317ZM71.0877,6.72441h-8.7935l-3.621,3.61999v9.3102l3.621,3.6215h8.7935v-5.6892h-6.7252v-5.1738h6.7252v-5.68869v0Zm-14.4835,0h-4.6546v-4.65591h-5.6908v17.5861l3.621,3.6215h6.7244v-5.6892h-4.6546v-5.1738h4.6546v-5.68869v0ZM44.1898,2.0685h-5.6893v2.58715h5.6893v-2.58715Zm0,4.65591h-5.6893v16.55149h5.6893v-16.55149v0Zm-7.7583,0h-5.6898v10.86249h-2.0685v-10.86249h-5.69v10.86249h-2.0682v-10.86249h-5.6908v16.55169h17.5871l3.6202-3.6215v-12.93019v0Zm-23.2764,0h-4.65483v-4.65591h-5.68977v17.5861l3.62074,3.6215h6.72386v-5.6892h-4.65483v-5.1738h4.65483v-5.68869v0ZM91.2591,9.3097v15.5173L83.5008,30h-5.1722v-2.5871L74.7079,30h-4.6546v-2.5871L67.4677,30h-8.2763l-2.5872-2.5871L56.0864,30h-7.2405L45.885,27.4129L45.7192,30h-8.2069l-.2902-2.5871L35.0005,30h-12.5351l-2.5867-1.0346v1.0346h-6.7236L5.39606,25.3436l-4.654849-4.653v-20.690602h9.828389L15.2242,4.65565h21.2073v-4.655652h17.5864v4.655652h4.6553v2.58556l2.5872-2.58556h5.1714l4.6559-4.655652h9.8275v4.655652h5.6901L91.2591,9.3097Z" transform="translate(-46.000156,-14.999999)" opacity="0" clip-rule="evenodd" fill="#6441a5" fill-rule="evenodd"/></g><g id="em305lJbgGA11_to" transform="translate(260,97.000014)"><g id="em305lJbgGA11" transform="translate(-64.00016,-16.000014)" opacity="0"><path d="M17.162,0C8.09843,0,0.757324,7.3411,0.757324,16.4047c0,7.2591,4.695846,13.3903,11.216676,15.564.8203.1435,1.1279-.3486,1.1279-.7793c0-.3896-.0205-1.6814-.0205-3.0553-4.12172.7587-5.18803-1.0048-5.51612-1.9276-.18456-.4716-.98429-1.9275-1.68149-2.3172-.57416-.3075-1.3944-1.0663-.0205-1.0868c1.29187-.0205,2.21463,1.1894,2.52222,1.6815c1.47642,2.4812,3.83459,1.784,4.77789,1.3534.1435-1.0663.5741-1.784,1.0458-2.1941-3.6501-.4101-7.46416-1.825-7.46416-8.0998c0-1.7841.63568-3.2605,1.68148-4.4088-.16404-.4101-.73821-2.09161.16405-4.34725c0,0,1.37389-.43063,4.51133,1.68148c1.3123-.36911,2.7067-.55366,4.1011-.55366s2.7888.18455,4.1012.55366c3.1374-2.13261,4.5113-1.68148,4.5113-1.68148.9023,2.25564.3281,3.93715.1641,4.34725c1.0458,1.1483,1.6814,2.6042,1.6814,4.4088c0,6.2953-3.8346,7.6897-7.4846,8.0998.5947.5126,1.1073,1.4969,1.1073,3.0348c0,2.1942-.0205,3.9577-.0205,4.5113c0,.4307.3076.9433,1.1278.7793c3.2567-1.0994,6.0865-3.1924,8.0913-5.9844s3.0836-6.1424,3.0844-9.5796C33.5667,7.3411,26.2256,0,17.162,0Z" clip-rule="evenodd" fill="#24292e" fill-rule="evenodd"/><path d="M77.2333,24.3228h-.0383c.0173,0,.0287.0192.046.0211h.0115l-.0192-.0191v-.002Zm.0077.0211c-.178.0019-.6259.0957-1.0986.0957-1.4928,0-2.0096-.689-2.0096-1.5885v-5.9924h3.0431c.1722,0,.3062-.1531.3062-.3636v-3.2536c0-.1723-.1531-.3254-.3062-.3254h-3.0431v-4.03829c0-.15311-.0957-.2488-.2679-.2488h-4.134c-.1722,0-.2679.09569-.2679.2488v4.15309c0,0-2.0862.5168-2.2201.5359-.1532.0383-.2489.1723-.2489.3254v2.6029c0,.2105.1532.3636.3254.3636h2.1244v6.2775c0,4.6699,3.2536,5.1484,5.4737,5.1484c1.0144,0,2.2393-.3254,2.4306-.4211.1149-.0383.1723-.1722.1723-.3062v-2.8708c.0026-.0815-.0242-.1611-.0755-.2244-.0513-.0632-.1237-.1059-.2039-.1201v.0019Zm45.351-4.2125c0-3.4641-1.397-3.9234-2.871-3.7703-1.148.0765-2.066.6507-2.066.6507v6.7369c0,0,.937.6507,2.334.689c1.972.0574,2.603-.6508,2.603-4.3063Zm4.651-.3062c0,6.5646-2.124,8.4402-5.837,8.4402-3.139,0-4.823-1.5885-4.823-1.5885s-.077.8804-.173.9952c-.057.1149-.153.1531-.267.1531h-2.833c-.191,0-.364-.1531-.364-.3253l.039-21.26325c0-.17225.153-.32536.325-.32536h4.077c.172,0,.325.15311.325.32536v7.21535c0,0,1.569-1.0144,3.866-1.0144l-.019-.0382c2.296,0,5.684.8612,5.684,7.4258Zm-16.689-6.9091h-4.019c-.211,0-.326.1531-.326.3636v10.4116c0,0-1.052.7464-2.488.7464-1.435,0-1.856-.6507-1.856-2.0862v-9.0909c0-.1722-.153-.3254-.325-.3254h-4.0961c-.1722,0-.3253.1532-.3253.3254v9.7799c0,4.2106,2.354,5.2632,5.5884,5.2632c2.66,0,4.823-1.4737,4.823-1.4737s.096.7464.153.8613c.038.0957.172.1722.306.1722h2.565c.211,0,.325-.1531.325-.3253l.039-14.2967c0-.1723-.153-.3254-.364-.3254ZM65.195,12.897h-4.0766c-.1722,0-.3253.1722-.3253.3827v14.0479c0,.3828.2488.5168.5741.5168h3.6747c.3828,0,.4785-.1723.4785-.5168v-14.1053c0-.1722-.1532-.3253-.3254-.3253ZM63.1854,6.42804c-1.4737,0-2.6411,1.16747-2.6411,2.64116s1.1674,2.6412,2.6411,2.6412c1.4354,0,2.6029-1.1675,2.6029-2.6412s-1.1675-2.64116-2.6029-2.64116Zm31.5599-.47847h-4.0383c-.1722,0-.3253.15311-.3253.32536v7.82777h-6.335v-7.82777c0-.17225-.1531-.32536-.3253-.32536h-4.0766c-.1722,0-.3254.15311-.3254.32536v21.26327c0,.1722.1723.3253.3254.3253h4.0766c.1722,0,.3253-.1531.3253-.3253v-9.091h6.335l-.0383,9.091c0,.1722.1531.3253.3254.3253h4.0765c.1723,0,.3254-.1531.3254-.3253v-21.26327c0-.17225-.1531-.32536-.3254-.32536ZM58.6304,15.3659v10.9857c0,.0765-.0192.2105-.1149.2488c0,0-2.3923,1.7033-6.3349,1.7033-4.7656,0-10.4115-1.4928-10.4115-11.3302s4.9378-11.86604,9.7608-11.8469c4.1722,0,5.8565.9378,6.1244,1.11005.0766.0957.1148.17225.1148.26795l-.8038,3.40671c0,.17229-.1722.38279-.3828.32539-.689-.2106-1.7225-.63161-4.1531-.63161-2.8134,0-5.8373.80381-5.8373,7.13881s2.8708,7.0813,4.9378,7.0813c1.7608,0,2.3923-.2105,2.3923-.2105v-4.4019h-2.8134c-.2105,0-.3636-.1531-.3636-.3254v-3.5215c0-.1723.1531-.3254.3636-.3254h7.1579c.2106,0,.3637.1531.3637.3254Z" fill="#24292e"/></g></g><g id="em305lJbgGA14_to" transform="translate(260,96.000049)"><g id="em305lJbgGA14" transform="translate(-56.999702,-17.000049)" opacity="0"><g><path d="M70.5812,26.5891c-6.5565,4.8326-16.0596,7.411-24.2416,7.411-11.4726,0-21.8008-4.2433-29.6145-11.3007-.6139-.5549-.0639-1.3112.6728-.8791c8.4325,4.9063,18.859,7.8579,29.6292,7.8579c7.2637,0,15.2542-1.5028,22.6013-4.6214c1.1099-.4715,2.0382.7269.9528,1.5323Z" clip-rule="evenodd" fill="#f90" fill-rule="evenodd"/><path d="M73.307,23.4705c-.8349-1.0706-5.5398-.5058-7.6516-.2553-.6434.0785-.7416-.4813-.1621-.8841c3.7472-2.6373,9.896-1.876,10.613-.992.7171.8889-.1866,7.0525-3.7079,9.9942-.5402.4519-1.0559.2112-.8153-.3879.7907-1.9743,2.5637-6.3993,1.7239-7.4749Z" clip-rule="evenodd" fill="#f90" fill-rule="evenodd"/></g><g><path d="M65.8031,3.71286v-2.56364c0-.387985.2947-.648278.6483-.648278h11.4775c.3683,0,.663.265205.663.648278v2.1953c-.0049.36834-.3144.84963-.8644,1.61087L71.78,13.4468c2.2101-.054,4.5429.2751,6.5467,1.4046.4518.2554.5746.6287.6089.997v2.7355c0,.3733-.4125.8104-.8447.5845-3.5311-1.8516-8.2213-2.0529-12.1257.0196-.3978.2161-.8153-.2161-.8153-.5893v-2.5981c0-.4174.005-1.1295.4224-1.7631l6.8904-9.88128h-5.9966c-.3683,0-.663-.26029-.663-.64336Z" clip-rule="evenodd" fill-rule="evenodd"/><path d="M23.9352,19.7086h-3.4918c-.334-.0245-.5992-.275-.6237-.5942v-17.92094c0-.358519.2995-.64337.6728-.64337h3.2561c.3389.014724.609.275025.6336.59916v2.34264h.0638c.8496-2.26406,2.4458-3.319962,4.5969-3.319962c2.1854,0,3.5508,1.055902,4.533,3.319962.8447-2.26406,2.765-3.319962,4.8228-3.319962c1.4635,0,3.0646.604075,4.0419,1.959562c1.105,1.50773.8791,3.69812.8791,5.6184L43.3148,19.0603c0,.3586-.2996.6483-.6729.6483h-3.4869c-.3487-.0245-.6286-.3045-.6286-.6483v-9.49819c0-.75632.0687-2.64221-.0983-3.35925-.2602-1.20323-1.0411-1.54211-2.0528-1.54211-.8448,0-1.7288.56479-2.0873,1.46845s-.3241,2.4163-.3241,3.43291v9.49819c0,.3586-.2996.6483-.6729.6483h-3.4869c-.3536-.0245-.6286-.3045-.6286-.6483l-.0049-9.49819c0-1.99885.329-4.94065-2.1511-4.94065-2.5097,0-2.4114,2.86813-2.4114,4.94065v9.49819c0,.3586-.2996.6483-.6729.6483Z" clip-rule="evenodd" fill-rule="evenodd"/><path d="M88.473,0.171928c5.1813,0,7.9856,4.449532,7.9856,10.107172c0,5.4662-3.0989,9.8028-7.9856,9.8028-5.088,0-7.8579-4.4496-7.8579-9.9943c0-5.5791,2.8043-9.915672,7.8579-9.915672Zm.0295,3.658832c-2.5735,0-2.7355,3.50658-2.7355,5.69206c0,2.19038-.0344,6.86588,2.706,6.86588c2.7061,0,2.8338-3.7718,2.8338-6.0703c0-1.51261-.0639-3.31992-.5206-4.75399-.3929-1.24744-1.1738-1.73365-2.2837-1.73365Z" clip-rule="evenodd" fill-rule="evenodd"/><path d="M103.177,19.7086h-3.4769c-.3487-.0245-.6286-.3045-.6286-.6483L99.0666,1.13452c.0295-.32905.3192-.58443.6728-.58443h3.2366c.304.014724.555.221004.624.50094v2.74044h.063c.978-2.45068,2.348-3.619542,4.759-3.619542c1.567,0,3.094.564787,4.077,2.111812.913,1.43406.913,3.84546.913,5.5791v11.28096c-.039.3144-.329.5648-.673.5648h-3.501c-.32-.0245-.585-.2603-.619-.5648v-9.73393c0-1.95956.226-4.8277-2.186-4.8277-.849,0-1.63.5697-2.018,1.43407-.491,1.09519-.555,2.18548-.555,3.39363v9.65043c-.005.3586-.309.6483-.683.6483Z" clip-rule="evenodd" fill-rule="evenodd"/><path d="M56.6536,11.1484c0,1.3604.0344,2.4949-.6532,3.703-.5549.9823-1.4389,1.5863-2.4163,1.5863-1.3407,0-2.1265-1.0215-2.1265-2.5292c0-2.9762,2.6668-3.5164,5.196-3.5164v.7563Zm3.5213,8.5111c-.2308.2063-.5648.221-.825.0835-1.1591-.9626-1.3703-1.4095-2.0038-2.3279-1.9154,1.9546-3.2758,2.5391-5.7559,2.5391-2.9418,0-5.2255-1.8123-5.2255-5.4416c0-2.8338,1.5323-4.76389,3.7227-5.70684c1.8957-.8349,4.5428-.98224,6.5662-1.21306v-.45183c0-.82999.0639-1.81223-.4273-2.52926-.4223-.64337-1.2376-.90857-1.9595-.90857-1.331,0-2.5145.68265-2.8043,2.09707-.0589.31432-.2898.62373-.609.63846l-3.3838-.36343c-.2849-.06384-.6041-.29467-.5206-.73177C47.7251,1.23762,51.4379,0,54.7579,0c1.6993,0,3.9191.45183,5.2599,1.73856C61.717,3.32487,61.555,5.4416,61.555,7.74495v5.44155c0,1.6355.6777,2.3525,1.3162,3.2365.221.3143.2701.6925-.0148.9282-.7121.5943-1.9792,1.6993-2.6766,2.3181l-.0049-.0098Z" clip-rule="evenodd" fill-rule="evenodd"/><path d="M10.8763,11.1484c0,1.3604.0344,2.4949-.6532,3.703-.55492.9823-1.43402,1.5863-2.41626,1.5863-1.34075,0-2.12163-1.0215-2.12163-2.5292c0-2.9762,2.66677-3.5164,5.19109-3.5164v.7563Zm3.5214,8.5111c-.2309.2062-.5648.221-.8251.0835-1.1591-.9626-1.3653-1.4095-2.0038-2.3279-1.91535,1.9546-3.27084,2.539-5.7559,2.539-2.93689,0-5.225498-1.8122-5.225498-5.4415c0-2.8338,1.537198-4.7639,3.722678-5.70684c1.89572-.83491,4.54284-.98224,6.56622-1.21307v-.45183c0-.82999.0639-1.81223-.4223-2.52925-.4273-.64337-1.24256-.90858-1.95959-.90858-1.33093,0-2.51944.68266-2.8092,2.09708-.05893.31432-.28976.62372-.60407.63845L1.69242,6.07513c-.28485-.06384-.59917-.29467-.52059-.73176C1.95271,1.23762,5.66065,0,8.98062,0c1.69928,0,3.91908.45183,5.25988,1.73856c1.6993,1.58631,1.5372,3.70303,1.5372,6.00638v5.44156c0,1.6355.6777,2.3525,1.3162,3.2365.2259.3143.275.6925-.0098.9282-.7122.5943-1.9792,1.6993-2.6766,2.3181l-.0098-.0098Z" clip-rule="evenodd" fill-rule="evenodd"/></g></g></g><g id="em305lJbgGA25_to" transform="translate(260,92)"><path id="em305lJbgGA25" d="M21.9813,0C10.3834,0,0.980957,9.40218,0.980957,21.0001C0.980957,32.5986,10.3834,42,21.9813,42C33.5805,42,42.982,32.5986,42.982,21.0001c0-11.59716-9.4015-20.999097-21.0009-20.999097L21.9813,0v0ZM31.612,30.2882c-.3762.6169-1.1837.8125-1.8006.4338-4.9306-3.0117-11.1377-3.6938-18.4477-2.0237-.7045.1605-1.40662-.2808-1.56711-.9855-.16125-.7047.27831-1.4068.98451-1.5673c7.9996-1.8277,14.8615-1.0407,20.397,2.3422.6169.3786.8125,1.1836.4339,1.8005v0Zm2.5704-5.7181c-.474.7704-1.4821,1.0136-2.2519.5397-5.6449-3.4697-14.2496-4.4745-20.9264-2.4478-.866.2615-1.78052-.2265-2.04333-1.0909-.26081-.8659.22745-1.7787,1.09183-2.042c7.6268-2.3141,17.1082-1.1932,23.5906,2.7903.7699.474,1.0131,1.4821.5392,2.251v-.0003Zm.2207-5.9543c-6.7684-4.0201-17.9352-4.3898-24.3974-2.4285-1.03766.3147-2.13504-.2711-2.44951-1.3088-.31446-1.0382.27084-2.1348,1.30928-2.4503c7.41813-2.2519,19.74983-1.8168,27.54223,2.8092.9354.5539,1.2414,1.7594.6872,2.6915-.5517.9334-1.7605,1.2411-2.6908.6869h-.001Zm23.713.7704c-3.6262-.8647-4.2707-1.4716-4.2707-2.7467c0-1.2048,1.1335-2.0155,2.8212-2.0155c1.635,0,3.255.6156,4.9552,1.883.0502.0384.1154.0537.1781.0437.0652-.0095.1204-.0444.158-.0968l1.7704-2.4957c.0728-.1028.0527-.2445-.0451-.323-2.0237-1.6232-4.3007-2.4124-6.9639-2.4124-3.9146,0-6.6505,2.3495-6.6505,5.7111c0,3.6048,2.3597,4.8812,6.4373,5.8665c3.4682.7992,4.055,1.4688,4.055,2.6655c0,1.3266-1.1837,2.1516-3.0895,2.1516-2.1165,0-3.8444-.7147-5.7753-2.3848-.0476-.0427-.1129-.0602-.173-.0577-.0652.005-.1229.0351-.163.0827L49.3741,27.62c-.0827.1003-.0727.2458.0226.331c2.2469,2.0062,5.0104,3.0644,7.9946,3.0644c4.218,0,6.9439-2.3045,6.9439-5.873.0075-3.011-1.7955-4.6787-6.2116-5.753l-.0075-.0032v0Zm15.7635-3.576c-1.8281,0-3.3278.7202-4.5666,2.196v-1.6611c0-.1312-.1053-.238-.2357-.238h-3.2475c-.1304,0-.2357.1068-.2357.238v18.457c0,.1304.1053.2382.2357.2382h3.2475c.1304,0,.2357-.1078.2357-.2382v-5.8254c1.2388,1.3867,2.7385,2.0663,4.5666,2.0663c3.3979,0,6.8385-2.6155,6.8385-7.6157.005-5.0011-3.4356-7.6174-6.836-7.6174l-.0025.0003Zm3.0619,7.6171c0,2.5451-1.5673,4.3231-3.8142,4.3231-2.2194,0-3.8945-1.8582-3.8945-4.3231s1.6751-4.3228,3.8945-4.3228c2.2093-.0002,3.8142,1.8174,3.8142,4.3226v.0002Zm12.5913-7.6171c-4.376,0-7.8041,3.3693-7.8041,7.6716c0,4.2561,3.4055,7.5888,7.7514,7.5888c4.391,0,7.8291-3.3578,7.8291-7.6433c0-4.2708-3.4155-7.6166-7.7764-7.6166v-.0005v0Zm0,11.9653c-2.3272,0-4.0826-1.8708-4.0826-4.3494c0-2.4899,1.6952-4.2967,4.0299-4.2967c2.3422,0,4.1076,1.87,4.1076,4.3511c0,2.4894-1.7052,4.295-4.0549,4.295v0ZM106.653,16.1071h-3.574v-3.6528c0-.1309-.105-.2377-.235-.2377h-3.2478c-.1304,0-.2382.1068-.2382.2377v3.6528h-1.5598c-.1304,0-.2357.1068-.2357.238v2.7903c0,.1309.1053.238.2357.238h1.5598v7.2209c0,2.9165,1.452,4.3961,4.318,4.3961c1.164,0,2.129-.2408,3.04-.7574.075-.0401.12-.1203.12-.2056v-2.6582c0-.0802-.043-.158-.113-.2006-.07-.0451-.158-.0476-.231-.01-.624.3134-1.228.4589-1.905.4589-1.041,0-1.508-.474-1.508-1.5322v-6.7107h3.574c.13,0,.236-.1068.236-.238v-2.79c.005-.1312-.101-.238-.234-.238l-.002-.0015v0Zm12.448.0143v-.4487c0-1.3198.507-1.9083,1.64-1.9083.677,0,1.222.1344,1.831.3375.075.0236.153.0118.213-.0331.063-.0449.098-.1169.098-.1931v-2.7359c0-.1046-.065-.1971-.168-.228-.642-.1913-1.465-.3877-2.698-.3877-2.997,0-4.585,1.6887-4.585,4.8818v.6871h-1.559c-.131,0-.239.1069-.239.2378v2.8046c0,.1309.108.238.239.238h1.559v11.1355c0,.1329.108.2382.239.2382h3.245c.133,0,.238-.1053.238-.2382v-11.1348h3.032l4.644,11.1348c-.527,1.1686-1.046,1.4018-1.753,1.4018-.572,0-1.176-.1705-1.79-.5091-.058-.0301-.128-.0351-.188-.0175-.063.0226-.116.0677-.141.1279l-1.101,2.4149c-.052.1154-.007.2483.103.3085c1.149.6219,2.184.8877,3.466.8877c2.397,0,3.724-1.1185,4.89-4.1227l5.632-14.554c.03-.0733.02-.156-.025-.221-.043-.0644-.115-.1033-.193-.1033h-3.38c-.103,0-.194.0645-.226.1595l-3.463,9.8889-3.792-9.8954c-.035-.092-.123-.153-.221-.153h-5.547v-.0007v0Zm-7.217-.0143h-3.247c-.131,0-.239.1068-.239.238v14.1638c0,.1329.108.2382.239.2382h3.247c.13,0,.238-.1053.238-.2382v-14.1628c0-.1312-.105-.238-.238-.238v-.001Zm-1.605-6.44963c-1.286,0-2.33,1.04123-2.33,2.32743c0,1.2869,1.044,2.3294,2.33,2.3294c1.287,0,2.327-1.0425,2.327-2.3294c0-1.286-1.043-2.32743-2.327-2.32743ZM138.722,20.6613c-1.284,0-2.285-1.0319-2.285-2.285s1.013-2.2968,2.297-2.2968s2.285,1.0317,2.285,2.2838c0,1.2531-1.013,2.298-2.297,2.298Zm.012-4.3546c-1.171,0-2.056.9303-2.056,2.0696c0,1.1388.88,2.0566,2.044,2.0566c1.171,0,2.056-.9296,2.056-2.0696c0-1.1388-.88-2.0566-2.044-2.0566v0Zm.507,2.2915l.647.9048h-.547l-.582-.83h-.499v.83h-.456v-2.3984h1.068c.559,0,.925.2852.925.7651.003.3933-.225.6335-.554.7285h-.002Zm-.386-1.082h-.595v.7585h.595c.295,0,.474-.1452.474-.3796c0-.2468-.179-.3789-.474-.3789v0Z" transform="translate(-70.999978,-21)" fill="#1ed760"/></g><g id="em305lJbgGA26_to" transform="translate(260,99)"><path id="em305lJbgGA26" d="M32.2628,7.81707c-5.6942,0-10.1434,4.32263-10.1434,10.10923s4.3368,10.0723,10.1434,10.0723s10.2188-4.3596,10.2188-10.1093c0-5.7127-4.3368-10.07223-10.2188-10.07223Zm.0384,16.01123c-3.2427,0-5.6188-2.5185-5.6188-5.9006c0-3.4205,2.3377-5.9374,5.5804-5.9374c3.281,0,5.6558,2.5553,5.6558,5.9374s-2.3748,5.9006-5.6174,5.9006ZM43.7252,12.215h2.8284v15.4094h4.5246v-19.43169h-7.353v4.02229Zm-32.9928-.2262c2.3762,0,4.2614,1.4655,4.9771,3.6453h4.7893c-.8679-4.6598-4.7139-7.81703-9.728-7.81703-5.69416,0-10.143359,4.32263-10.143359,10.11063s4.336809,10.0723,10.143359,10.0723c4.9017,0,8.823-3.1573,9.691-7.8555h-4.7523c-.6787,2.1798-2.564,3.6838-4.9401,3.6838-3.28104,0-5.58037-2.5185-5.58037-5.9006.00145-3.4205,2.26376-5.9389,5.54337-5.9389ZM129.696,16.0482l-3.318-.4881c-1.584-.2248-2.715-.7512-2.715-1.9919c0-1.3532,1.471-2.029,3.469-2.029c2.187,0,3.583.9391,3.884,2.48h4.374c-.491-3.9085-3.507-6.20072-8.144-6.20072-4.79,0-7.957,2.44302-7.957,5.90052c0,3.3067,2.074,5.2247,6.259,5.8251l3.318.488c1.622.2248,2.527.8651,2.527,2.0674c0,1.5409-1.583,2.1798-3.77,2.1798-2.678,0-4.186-1.0899-4.412-2.7432h-4.45C119.177,25.3322,122.155,28,127.584,28c4.94,0,8.22-2.2552,8.22-6.1268c0-3.4574-2.375-5.2616-6.108-5.825ZM48.8159,0.187814c-1.659,0-2.9037,1.202296-2.9037,2.855636s1.2434,2.85562,2.9037,2.85562c1.659,0,2.9041-1.20229,2.9041-2.85562s-1.2451-2.855636-2.9041-2.855636ZM115.217,14.8459c0-4.2088-2.564-7.02742-7.994-7.02742-5.128,0-7.9932,2.59382-8.5593,6.57772h4.4873c.226-1.5409,1.433-2.8186,3.997-2.8186c2.301,0,3.432,1.0145,3.432,2.2552c0,1.6164-2.075,2.029-4.638,2.2922-3.469.3756-7.7678,1.5779-7.7678,6.0883c0,3.4959,2.6018,5.7497,6.7498,5.7497c3.243,0,5.279-1.3531,6.298-3.4959.151,1.9166,1.583,3.1573,3.582,3.1573h2.64v-4.021h-2.226v-8.7575h-.001Zm-4.449,4.886c0,2.5938-2.263,4.5104-5.016,4.5104-1.697,0-3.13-.7143-3.13-2.2168c0-1.9166,2.301-2.443,4.412-2.6678c2.037-.1878,3.167-.6389,3.734-1.5039v1.8781ZM86.7489,7.81707c-2.527,0-4.6384,1.05289-6.1465,2.81863v-10.6357h-4.5246v27.6244h4.4489v-2.5554C82.0348,26.9101,84.1851,28,86.7489,28c5.4293,0,9.5401-4.2842,9.5401-10.0723s-4.186-10.11063-9.5401-10.11063ZM86.0703,23.8283c-3.2428,0-5.6188-2.5185-5.6188-5.9006s2.4132-5.9374,5.6555-5.9374c3.2813,0,5.5804,2.5184,5.5804,5.9374c0,3.3821-2.3748,5.9006-5.6171,5.9006ZM65.2554,7.81707c-2.9409,0-4.8646,1.2023-5.9955,2.89403v-2.51839h-4.4879v19.43029h4.5246v-10.5603c0-2.9695,1.8852-5.0739,4.6756-5.0739c2.6022,0,4.2227,1.8412,4.2227,4.5104v11.1252h4.5246v-11.4624c.0018-4.8874-2.5239-8.34493-7.4641-8.34493ZM157.373,17.2889c0-5.5619-4.073-9.47042-9.54-9.47042-5.807,0-10.068,4.35962-10.068,10.10922C137.765,23.9791,142.328,28,147.908,28c4.714,0,8.409-2.7816,9.351-6.7272h-4.714c-.679,1.7288-2.338,2.7063-4.563,2.7063-2.904,0-5.091-1.8042-5.581-4.9615h14.97v-1.7287h.002ZM142.666,15.785c.718-2.7063,2.753-4.021,5.091-4.021c2.564,0,4.525,1.4655,4.977,4.021h-10.068Z" transform="translate(-79.00022,-14)" opacity="0" fill="#0052ff"/></g><g id="em305lJbgGA27_to" transform="translate(260,100)"><path id="em305lJbgGA27" d="M225.126,111.324c-1.447.254-2.92.33-4.443.533l-4.647-13.6089v14.1929c-1.447.153-2.767.356-4.139.559v-26h3.86l5.281,14.752v-14.752h4.088v24.324Zm7.998-14.8025c1.574,0,3.986-.0762,5.434-.0762v4.0627c-1.803,0-3.91,0-5.434.076v6.043c2.387-.152,4.774-.356,7.186-.432v3.91l-11.249.889v-23.994h11.249v4.0625h-7.186v5.459v0Zm22.293-5.4589h-4.215v18.6874c-1.371,0-2.742,0-4.062.051v-18.7384h-4.215v-4.0626h12.492v4.0626v0Zm6.601,5.1797h5.561v4.0627h-5.561v9.217h-3.986v-22.522h11.35v4.0625h-7.364v5.1798v0Zm13.965,9.7247c2.311.05,4.647.228,6.907.355v4.012c-3.631-.229-7.262-.457-10.969-.533v-22.801h4.062v18.967Zm10.334,4.646c1.295.077,2.666.153,3.987.305v-23.918h-3.987v23.613v0ZM308.103,87l-5.155,12.3653L308.103,113c-1.524-.203-3.047-.482-4.571-.736l-2.92-7.516-2.97,6.906c-1.473-.254-2.895-.33-4.367-.533l5.23-11.9082L293.782,87h4.367l2.666,6.8301L303.659,87h4.444v0Z" transform="translate(-260,-100)" opacity="0" fill="#d81f26"/></g><g><rect width="367" height="49" rx="7.5" ry="7.5" transform="translate(76.5 149.5)" fill="none" stroke="#ccc"/><g id="em305lJbgGA30"><g><path d="M396.456,142.403c-2.052,1.86-.572,5.417-.059,7.14l25.875.08c-1.285,5.855,5.843,2.297,9.575-.137l6.753.077c-.192-3.376-3.547-6.575-5.047-7.732.701-1.321.299-8.122-.859-8.565-.768-.293-3.285,2.066-3.735,2.955-4.943-2.191-12.005-2.772-15.06-2.472-.727-1.024-2.521-2.737-3.315-2.538-.605.151-1.86,2.645-2.143,3.678-2.062.621-7.009,5.371-7.809,7.864-.282-.256-2.5-1.869-4.176-.35Z" fill="#fff" stroke="#000" stroke-width="0.54"/><g><path d="M410.896,143.986c.363.514,1.245,1.219,2.014.191.07-.094.213-.105.295-.02.562.584,1.66,1.254,2.598.268" fill="none" stroke="#000" stroke-width="0.54" stroke-linecap="round"/><ellipse rx="0.853922" ry="0.916598" transform="matrix(.970296-.241922 0.241922 0.970296 408.101013 143.966995)"/><ellipse rx="0.772675" ry="0.888079" transform="matrix(.970296-.241922 0.241922 0.970296 421.477997 144.712006)"/></g><path d="M400.518,142.663l1.786,1.524m19.93,5.395l1.065-1.896" fill="none" stroke="#000" stroke-width="0.54" stroke-linecap="round"/><g><ellipse rx="0.484829" ry="0.53308" transform="matrix(.970296-.241922 0.241922 0.970296 397.128998 145.990005)" fill="#f190a2"/><ellipse rx="0.835352" ry="1.0708" transform="matrix(.992546-.121869 0.121869 0.992546 398.77301 146.294006)" fill="#f190a2"/><ellipse rx="0.470569" ry="0.604875" transform="matrix(.984808 0.173648-.173648 0.984808 397.526001 144.115005)" fill="#f190a2"/><ellipse rx="0.777745" ry="0.461472" transform="matrix(.93358-.358368 0.358368 0.93358 399.515991 144.235992)" fill="#f190a2"/></g><path d="M433.432,148.87l-.774.295-.774.295" fill="none" stroke="#000" stroke-width="0.54" stroke-linecap="round"/></g></g><g id="em305lJbgGA44" opacity="0"><g><path d="M407.478,134.695c-2.001.603-6.636,4.195-7.866,7.285-.148.373-.328.734-.579,1.047-4.525,5.655-6.951,15.269,5.897,6.649l16.821.224l9.88-.142l6.969.079c-.199-3.483-3.66-6.784-5.208-7.978.723-1.363.308-8.381-.886-8.838-.793-.303-3.39,2.132-3.855,3.049-5.101-2.261-12.388-2.861-15.54-2.551-.751-1.057-2.602-2.825-3.421-2.619-.624.156-1.919,2.73-2.212,3.795Z" fill="#fff" stroke="#000" stroke-width="0.54"/><g><path d="M410.021,144.081c.374.53,1.285,1.258,2.078.197.073-.097.22-.109.305-.021.579.603,1.712,1.294,2.681.276" fill="none" stroke="#000" stroke-width="0.54" stroke-linecap="round"/><ellipse rx="0.881167" ry="0.945842" transform="matrix(.970296-.241922 0.241922 0.970296 407.136993 144.061005)"/><ellipse rx="0.797327" ry="0.916413" transform="matrix(.970296-.241922 0.241922 0.970296 420.94101 144.830002)"/></g><path d="M424.789,149.732l-.003-.009c-.783-2.184-2.16-6.025-.168-7.534c1.389-1.051,2.689-1.385,6.126,1.908" fill="none" stroke="#000" stroke-width="0.54" stroke-linecap="round"/><g><ellipse rx="0.496191" ry="0.660618" transform="matrix(.970296-.241922 0.241922 0.970296 425.148987 145.572006)" fill="#f190a2"/><ellipse rx="0.496191" ry="0.660618" transform="matrix(.999391-.034899 0.034899 0.999391 425.559998 143.707993)" fill="#f190a2"/><ellipse rx="0.496191" ry="0.785521" transform="matrix(.241922 0.970296-.970296 0.241922 427.772003 143.679993)" fill="#f190a2"/><ellipse rx="0.857212" ry="1.08221" transform="matrix(.999391 0.034899-.034899 0.999391 426.881989 145.968994)" fill="#f190a2"/></g></g></g><g mask="url(#em305lJbgGA59)"><path d="M93.7227,170.209c-.4512,0-.8204-.369-.8204-.82s.3692-.821.8204-.821c.4511,0,.8203.37.8203.821s-.3692.82-.8203.82Zm-1.668,11.32h-.2051v-1.052h.1777c.7998,0,1.1006-.281,1.1006-1.094v-7.752h1.1895v7.731c0,1.518-.7178,2.167-2.2627,2.167Zm7.5195-2.399c-2.1054,0-3.3769-1.477-3.3769-3.787v-.007c0-2.276,1.2988-3.835,3.3017-3.835c2.003,0,3.22,1.49,3.22,3.691v.465h-5.3049c.0341,1.525.875,2.413,2.1875,2.413.9984,0,1.6134-.471,1.8114-.916l.027-.061h1.19l-.014.054c-.253.999-1.305,1.983-3.0418,1.983Zm-.082-6.569c-1.0938,0-1.9277.745-2.0576,2.146h4.0744c-.123-1.456-.93-2.146-2.0168-2.146Zm7.6018,6.569c-1.641,0-2.769-.793-2.906-2.01h1.217c.199.615.786,1.019,1.73,1.019.991,0,1.695-.472,1.695-1.142v-.014c0-.499-.376-.847-1.285-1.066l-1.142-.273c-1.381-.329-2.003-.93-2.003-1.99v-.007c0-1.223,1.176-2.146,2.742-2.146c1.545,0,2.618.772,2.782,1.976h-1.169c-.157-.581-.732-.985-1.62-.985-.875,0-1.518.451-1.518,1.101v.013c0,.499.369.814,1.237,1.026l1.135.273c1.388.335,2.058.937,2.058,1.99v.013c0,1.313-1.278,2.222-2.953,2.222Zm7.191,0c-1.64,0-2.768-.793-2.905-2.01h1.217c.198.615.786,1.019,1.729,1.019.991,0,1.695-.472,1.695-1.142v-.014c0-.499-.375-.847-1.285-1.066l-1.141-.273c-1.381-.329-2.003-.93-2.003-1.99v-.007c0-1.223,1.176-2.146,2.741-2.146c1.545,0,2.618.772,2.782,1.976h-1.169c-.157-.581-.731-.985-1.62-.985-.875,0-1.517.451-1.517,1.101v.013c0,.499.369.814,1.237,1.026l1.135.273c1.387.335,2.057.937,2.057,1.99v.013c0,1.313-1.278,2.222-2.953,2.222Zm5.428-8.921c-.451,0-.82-.369-.82-.82s.369-.821.82-.821.82.37.82.821-.369.82-.82.82ZM119.111,179v-7.369h1.19v7.369h-1.19Zm6.447.13c-2.065,0-3.384-1.497-3.384-3.835v-.014c0-2.29,1.312-3.78,3.377-3.78c1.791,0,2.864,1.032,3.083,2.345l.007.041h-1.183l-.007-.021c-.184-.724-.841-1.312-1.9-1.312-1.326,0-2.16,1.066-2.16,2.727v.014c0,1.695.847,2.782,2.16,2.782.991,0,1.62-.437,1.893-1.258l.014-.041l1.176-.007-.014.076c-.301,1.333-1.292,2.283-3.062,2.283Zm6.842,0c-1.401,0-2.461-.848-2.461-2.188v-.013c0-1.313.971-2.072,2.687-2.174l2.112-.13v-.67c0-.909-.553-1.401-1.654-1.401-.882,0-1.463.328-1.654.902l-.007.021h-1.19l.007-.041c.192-1.156,1.313-1.935,2.885-1.935c1.798,0,2.803.923,2.803,2.454v5.045h-1.19v-1.087h-.109c-.465.786-1.237,1.217-2.229,1.217Zm-1.244-2.215c0,.745.636,1.183,1.49,1.183c1.21,0,2.092-.793,2.092-1.846v-.67l-1.968.123c-1.122.068-1.614.465-1.614,1.196v.014Zm12.578,3.685c-3.527,0-5.762-2.215-5.762-5.702v-.013c0-3.377,2.297-5.695,5.646-5.695c3.234,0,5.483,2.065,5.483,5.025v.014c0,2.221-.998,3.636-2.571,3.636-.786,0-1.387-.444-1.497-1.107l-.007-.041h-.109c-.294.697-.909,1.087-1.709,1.087-1.422,0-2.379-1.169-2.379-2.899v-.013c0-1.655.978-2.817,2.379-2.817.718,0,1.333.369,1.6.964h.109v-.834h1.032v4.013c0,.478.28.759.773.759.861,0,1.415-1.087,1.415-2.762v-.014c0-2.461-1.873-4.149-4.608-4.149-2.673,0-4.593,2.037-4.593,4.874v.013c0,2.913,1.886,4.792,4.812,4.792.937,0,1.859-.129,2.29-.328v.862c-.615.212-1.442.335-2.304.335Zm-.369-3.76c.937,0,1.538-.745,1.538-1.907v-.014c0-1.162-.594-1.9-1.524-1.9-.916,0-1.456.71-1.456,1.9v.014c0,1.182.547,1.907,1.442,1.907Zm7.588,2.16v-7.369h1.19v1.107h.109c.369-.779,1.06-1.237,2.146-1.237c1.655,0,2.578.978,2.578,2.728v4.771h-1.19v-4.484c0-1.327-.547-1.962-1.723-1.962-1.175,0-1.92.793-1.92,2.085v4.361h-1.19Zm11.184.13c-2.106,0-3.377-1.477-3.377-3.787v-.007c0-2.276,1.299-3.835,3.302-3.835c2.002,0,3.219,1.49,3.219,3.691v.465h-5.304c.034,1.525.875,2.413,2.187,2.413.998,0,1.613-.471,1.812-.916l.027-.061h1.189l-.013.054c-.253.999-1.306,1.983-3.042,1.983Zm-.082-6.569c-1.094,0-1.928.745-2.058,2.146h4.074c-.123-1.456-.929-2.146-2.016-2.146Zm7.69,6.494c-1.517,0-2.153-.561-2.153-1.969v-4.471h-1.162v-.984h1.162v-1.907h1.23v1.907h1.614v.984h-1.614v4.17c0,.868.301,1.217,1.067,1.217.212,0,.328-.007.547-.027v1.011c-.233.041-.458.069-.691.069Zm2.96-.055v-6.385h-1.224v-.984h1.224v-.82c0-1.47.738-2.174,2.14-2.174.287,0,.547.02.793.068v.95c-.144-.027-.342-.034-.554-.034-.848,0-1.189.417-1.189,1.224v.786h1.674v.984h-1.674v6.385h-1.19Zm4.649,0v-10.295h1.189v10.295h-1.189Zm4.101-8.791c-.451,0-.82-.369-.82-.82s.369-.821.82-.821.82.37.82.821-.369.82-.82.82ZM180.854,179v-7.369h1.189v7.369h-1.189Zm2.843,0l2.523-3.685-2.55-3.684h1.401l1.75,2.741h.11l1.729-2.741h1.333l-2.502,3.637L190.027,179h-1.394l-1.743-2.782h-.11L185.03,179h-1.333Zm8.901.068c-.486,0-.889-.403-.889-.888c0-.492.403-.889.889-.889.492,0,.888.397.888.889c0,.485-.396.888-.888.888Zm5.926.062c-2.064,0-3.383-1.497-3.383-3.835v-.014c0-2.29,1.312-3.78,3.377-3.78c1.791,0,2.864,1.032,3.083,2.345l.006.041h-1.182l-.007-.021c-.185-.724-.841-1.312-1.9-1.312-1.327,0-2.161,1.066-2.161,2.727v.014c0,1.695.848,2.782,2.161,2.782.991,0,1.62-.437,1.893-1.258l.014-.041l1.176-.007-.014.076c-.301,1.333-1.292,2.283-3.063,2.283Zm7.848,0c-2.099,0-3.397-1.449-3.397-3.808v-.013c0-2.366,1.298-3.808,3.397-3.808s3.398,1.442,3.398,3.808v.013c0,2.359-1.299,3.808-3.398,3.808Zm0-1.053c1.395,0,2.181-1.018,2.181-2.755v-.013c0-1.744-.786-2.755-2.181-2.755-1.394,0-2.181,1.011-2.181,2.755v.013c0,1.737.787,2.755,2.181,2.755Zm5.243.923v-7.369h1.19v1.121h.109c.328-.793,1.025-1.251,1.989-1.251.998,0,1.696.526,2.037,1.292h.11c.396-.779,1.237-1.292,2.256-1.292c1.504,0,2.344.861,2.344,2.406v5.093h-1.189v-4.819c0-1.087-.499-1.627-1.538-1.627-1.026,0-1.702.772-1.702,1.709v4.737h-1.19v-5.004c0-.875-.601-1.442-1.531-1.442-.964,0-1.695.841-1.695,1.88v4.566h-1.19Z"/><mask id="em305lJbgGA59"><g id="em305lJbgGA60_to" transform="translate(25.284674,175.0485)"><rect width="133.727481" height="17.578706" rx="0" ry="0" transform="scale(0.995531,1.048138) translate(-66.863741,-8.789353)" fill="#fff" stroke-width="0"/></g></mask></g></g><g><rect width="367" height="49" rx="7.5" ry="7.5" transform="translate(76.5 219.5)" fill="none" stroke="#ccc"/><g mask="url(#em305lJbgGA65)"><path d="M96.7031,245.021v.014c0,.779-.6152,1.395-1.3945,1.395h-.0137c-.7793,0-1.3945-.616-1.3945-1.395v-.014c0-.779.6152-1.394,1.3945-1.394h.0137c.7793,0,1.3945.615,1.3945,1.394Zm6.6039,0v.014c0,.779-.616,1.395-1.395,1.395h-.014c-.779,0-1.394-.616-1.394-1.395v-.014c0-.779.615-1.394,1.394-1.394h.014c.779,0,1.395.615,1.395,1.394Zm6.603,0v.014c0,.779-.615,1.395-1.394,1.395h-.014c-.779,0-1.395-.616-1.395-1.395v-.014c0-.779.616-1.394,1.395-1.394h.014c.779,0,1.394.615,1.394,1.394Zm6.604,0v.014c0,.779-.616,1.395-1.395,1.395h-.014c-.779,0-1.394-.616-1.394-1.395v-.014c0-.779.615-1.394,1.394-1.394h.014c.779,0,1.395.615,1.395,1.394Zm6.603,0v.014c0,.779-.615,1.395-1.394,1.395h-.014c-.779,0-1.395-.616-1.395-1.395v-.014c0-.779.616-1.394,1.395-1.394h.014c.779,0,1.394.615,1.394,1.394Zm6.604,0v.014c0,.779-.616,1.395-1.395,1.395h-.014c-.779,0-1.394-.616-1.394-1.395v-.014c0-.779.615-1.394,1.394-1.394h.014c.779,0,1.395.615,1.395,1.394Zm6.603,0v.014c0,.779-.615,1.395-1.394,1.395h-.014c-.779,0-1.395-.616-1.395-1.395v-.014c0-.779.616-1.394,1.395-1.394h.014c.779,0,1.394.615,1.394,1.394Zm6.604,0v.014c0,.779-.616,1.395-1.395,1.395h-.013c-.78,0-1.395-.616-1.395-1.395v-.014c0-.779.615-1.394,1.395-1.394h.013c.779,0,1.395.615,1.395,1.394Zm6.603,0v.014c0,.779-.615,1.395-1.394,1.395h-.014c-.779,0-1.394-.616-1.394-1.395v-.014c0-.779.615-1.394,1.394-1.394h.014c.779,0,1.394.615,1.394,1.394Zm6.604,0v.014c0,.779-.615,1.395-1.395,1.395h-.013c-.78,0-1.395-.616-1.395-1.395v-.014c0-.779.615-1.394,1.395-1.394h.013c.78,0,1.395.615,1.395,1.394Zm6.603,0v.014c0,.779-.615,1.395-1.394,1.395h-.014c-.779,0-1.394-.616-1.394-1.395v-.014c0-.779.615-1.394,1.394-1.394h.014c.779,0,1.394.615,1.394,1.394Zm6.604,0v.014c0,.779-.615,1.395-1.395,1.395h-.013c-.78,0-1.395-.616-1.395-1.395v-.014c0-.779.615-1.394,1.395-1.394h.013c.78,0,1.395.615,1.395,1.394Zm6.603,0v.014c0,.779-.615,1.395-1.394,1.395h-.014c-.779,0-1.394-.616-1.394-1.395v-.014c0-.779.615-1.394,1.394-1.394h.014c.779,0,1.394.615,1.394,1.394Zm6.604,0v.014c0,.779-.615,1.395-1.395,1.395h-.013c-.78,0-1.395-.616-1.395-1.395v-.014c0-.779.615-1.394,1.395-1.394h.013c.78,0,1.395.615,1.395,1.394Zm6.603,0v.014c0,.779-.615,1.395-1.394,1.395h-.014c-.779,0-1.394-.616-1.394-1.395v-.014c0-.779.615-1.394,1.394-1.394h.014c.779,0,1.394.615,1.394,1.394Zm6.604,0v.014c0,.779-.615,1.395-1.395,1.395h-.013c-.78,0-1.395-.616-1.395-1.395v-.014c0-.779.615-1.394,1.395-1.394h.013c.78,0,1.395.615,1.395,1.394Z"/><mask id="em305lJbgGA65"><g id="em305lJbgGA66_to" transform="translate(38.469691,243.627)"><rect width="133.727481" height="17.578706" rx="0" ry="0" transform="scale(0.82901,1.048138) translate(-66.863741,-8.789353)" fill="#fff" stroke-width="0"/></g></mask></g></g><g opacity="0.9"><rect id="em305lJbgGA68" width="368" height="50" rx="10" ry="10" transform="translate(76 289)" fill="#1ed760"/><path d="M200.305,320.281c-2.617,0-4.282-1.289-4.422-3.234l-.008-.109h1.953l.008.078c.094.945,1.102,1.57,2.531,1.57c1.36,0,2.313-.672,2.313-1.641v-.007c0-.813-.586-1.305-2.039-1.618l-1.211-.25c-2.305-.484-3.305-1.562-3.305-3.242v-.008c0-2.015,1.734-3.375,4.172-3.375c2.5,0,4.055,1.367,4.195,3.18l.008.102h-1.93l-.015-.094c-.141-.875-.977-1.5-2.266-1.492-1.25,0-2.141.586-2.141,1.547v.007c0,.797.571,1.297,1.977,1.594l1.211.258c2.375.5,3.367,1.453,3.367,3.156v.008c0,2.195-1.695,3.57-4.398,3.57Zm7.461-10.25c-.641,0-1.164-.508-1.164-1.148c0-.633.523-1.149,1.164-1.149.632,0,1.156.516,1.156,1.149c0,.64-.524,1.148-1.156,1.148ZM206.789,320v-8.539h1.945v8.539h-1.945Zm8.008,3c-2.25,0-3.602-.961-3.797-2.398l.008-.024h1.945l.008.024c.133.546.781.929,1.867.929c1.328,0,2.102-.617,2.102-1.711v-1.632h-.133c-.492.914-1.422,1.414-2.602,1.414-2.164,0-3.507-1.672-3.507-4.094v-.016c0-2.469,1.343-4.172,3.546-4.172c1.18,0,2.102.578,2.586,1.547h.102v-1.406h1.945v8.328c0,1.969-1.578,3.211-4.07,3.211Zm0-4.945c1.351,0,2.164-1.039,2.164-2.547v-.016c0-1.508-.82-2.554-2.164-2.554-1.352,0-2.117,1.046-2.117,2.554v.016c0,1.508.765,2.547,2.117,2.547ZM221.25,320v-8.539h1.945v1.305h.133c.406-.914,1.227-1.469,2.461-1.469c1.906,0,2.945,1.148,2.945,3.18v5.523h-1.945v-5.07c0-1.328-.539-2-1.719-2-1.156,0-1.875.812-1.875,2.093v4.977h-1.945Zm15.047-9.969c-.641,0-1.164-.508-1.164-1.148c0-.633.523-1.149,1.164-1.149.633,0,1.156.516,1.156,1.149c0,.64-.523,1.148-1.156,1.148ZM235.32,320v-8.539h1.946v8.539h-1.946Zm4.336,0v-8.539h1.946v1.305h.132c.407-.914,1.227-1.469,2.461-1.469c1.907,0,2.946,1.148,2.946,3.18v5.523h-1.946v-5.07c0-1.328-.539-2-1.718-2-1.157,0-1.875.812-1.875,2.093v4.977h-1.946Zm15.672,0l-2.312-8.539h1.953l1.422,6.414h.132l1.641-6.414h1.852l1.656,6.414h.133l1.414-6.414h1.929L262.836,320h-2.039l-1.664-6.188h-.133L257.344,320h-2.016Zm12.516-9.969c-.641,0-1.164-.508-1.164-1.148c0-.633.523-1.149,1.164-1.149.633,0,1.156.516,1.156,1.149c0,.64-.523,1.148-1.156,1.148ZM266.867,320v-8.539h1.945v8.539h-1.945Zm7.695.039c-1.96,0-2.765-.656-2.765-2.305v-4.765h-1.328v-1.508h1.328v-2.094h1.976v2.094h1.805v1.508h-1.805v4.304c0,.852.336,1.211,1.149,1.211.273,0,.422-.007.656-.031v1.5c-.281.055-.64.086-1.016.086Zm3.032-.039v-11.844h1.945v4.61h.133c.406-.914,1.226-1.469,2.461-1.469c1.906,0,2.945,1.148,2.945,3.18v5.523h-1.945v-5.07c0-1.328-.539-2-1.719-2-1.156,0-1.875.812-1.875,2.093v4.977h-1.945Zm18.164.281c-2.617,0-4.281-1.289-4.422-3.234l-.008-.109h1.953l.008.078c.094.945,1.102,1.57,2.531,1.57c1.36,0,2.313-.672,2.313-1.641v-.007c0-.813-.586-1.305-2.039-1.618l-1.211-.25c-2.305-.484-3.305-1.562-3.305-3.242v-.008c0-2.015,1.734-3.375,4.172-3.375c2.5,0,4.055,1.367,4.195,3.18l.008.102h-1.93l-.015-.094c-.141-.875-.977-1.5-2.266-1.492-1.25,0-2.14.586-2.14,1.547v.007c0,.797.57,1.297,1.976,1.594l1.211.258c2.375.5,3.367,1.453,3.367,3.156v.008c0,2.195-1.695,3.57-4.398,3.57Zm10.578,0c-2.617,0-4.281-1.289-4.422-3.234l-.008-.109h1.953l.008.078c.094.945,1.102,1.57,2.531,1.57c1.36,0,2.313-.672,2.313-1.641v-.007c0-.813-.586-1.305-2.039-1.618l-1.211-.25c-2.305-.484-3.305-1.562-3.305-3.242v-.008c0-2.015,1.735-3.375,4.172-3.375c2.5,0,4.055,1.367,4.195,3.18l.008.102h-1.929l-.016-.094c-.141-.875-.977-1.5-2.266-1.492-1.25,0-2.14.586-2.14,1.547v.007c0,.797.57,1.297,1.976,1.594l1.211.258c2.375.5,3.367,1.453,3.367,3.156v.008c0,2.195-1.695,3.57-4.398,3.57Zm11.523,0c-3.304,0-5.336-2.289-5.336-5.914v-.015c0-3.633,2.063-5.907,5.336-5.907c3.282,0,5.329,2.274,5.329,5.907v.015c0,3.625-2.04,5.914-5.329,5.914Zm0-1.742c2.008,0,3.274-1.641,3.274-4.172v-.015c0-2.547-1.274-4.164-3.274-4.164s-3.281,1.617-3.281,4.164v.015c0,2.531,1.25,4.172,3.281,4.172Z" fill="#fff"/></g><path id="em305lJbgGA70" d="M0.257812,11v-9.86426h3.718748c1.85254,0,3.16504,1.27832,3.16504,3.15137v.01367c0,1.87305-1.3125,3.17871-3.16504,3.17871h-2.48828v3.52051h-1.230468ZM3.66211,2.22949h-2.17383v4.15625h2.17383c1.4082,0,2.22168-.77246,2.22168-2.07129v-.01367c0-1.29883-.81348-2.07129-2.22168-2.07129ZM10.7578,11.1299c-1.40135,0-2.46092-.8477-2.46092-2.18752v-.01367c0-1.3125.9707-2.07129,2.68652-2.17383L13.0957,6.625v-.66992c0-.90918-.5537-1.40137-1.6543-1.40137-.8818,0-1.46288.32813-1.65429.90234l-.00684.02051h-1.18945l.00684-.04101c.1914-1.15528,1.3125-1.93457,2.88474-1.93457c1.7979,0,2.8028.92285,2.8028,2.4541v5.04492h-1.1895v-1.08691h-.1094c-.4648.78611-1.2373,1.21681-2.2285,1.21681ZM9.51367,8.91504c0,.74512.63573,1.18266,1.49023,1.18266c1.21,0,2.0918-.79301,2.0918-1.84575v-.66992l-1.9687.12305c-1.1211.06836-1.61333.46484-1.61333,1.19629v.01367ZM18.9883,11.1299c-1.6406,0-2.7686-.793-2.9053-2.00978h1.2168c.1982.61523.7861,1.01858,1.7295,1.01858.9912,0,1.6953-.47171,1.6953-1.14163v-.01367c0-.49902-.376-.84766-1.2851-1.06641l-1.1416-.27344c-1.3809-.32812-2.003-.92968-2.003-1.98925v-.00684c0-1.22363,1.1758-2.14648,2.7412-2.14648c1.545,0,2.6182.77246,2.7823,1.97558h-1.169c-.1572-.58105-.7314-.98437-1.6201-.98437-.875,0-1.5176.45117-1.5176,1.10058v.01368c0,.49902.3692.81347,1.2373,1.02539l1.1348.27343c1.3877.33496,2.0576.93653,2.0576,1.98926v.01367c0,1.3125-1.2783,2.2217-2.9531,2.2217Zm7.1914,0c-1.6406,0-2.7686-.793-2.9053-2.00978h1.2168c.1983.61523.7861,1.01858,1.7295,1.01858.9912,0,1.6953-.47171,1.6953-1.14163v-.01367c0-.49902-.376-.84766-1.2851-1.06641l-1.1416-.27344c-1.3809-.32812-2.003-.92968-2.003-1.98925v-.00684c0-1.22363,1.1758-2.14648,2.7412-2.14648c1.545,0,2.6182.77246,2.7823,1.97558h-1.169c-.1572-.58105-.7314-.98437-1.6201-.98437-.875,0-1.5176.45117-1.5176,1.10058v.01368c0,.49902.3692.81347,1.2373,1.02539l1.1348.27343c1.3877.33496,2.0576.93653,2.0576,1.98926v.01367c0,1.3125-1.2783,2.2217-2.9531,2.2217ZM32.1953,11L30.1309,3.63086h1.1894l1.4492,5.89258h.1094l1.6475-5.89258h1.1279l1.6475,5.89258h.1093l1.4493-5.89258h1.1826L37.9785,11h-1.1963L35.1348,5.29883h-.1094L33.3848,11h-1.1895Zm12.1748.1299c-2.0986,0-3.3974-1.44924-3.3974-3.80763v-.01368c0-2.36523,1.2988-3.80761,3.3974-3.80761c2.0987,0,3.3975,1.44238,3.3975,3.80761v.01368c0,2.35839-1.2988,3.80763-3.3975,3.80763Zm0-1.0528c1.3945,0,2.1807-1.01851,2.1807-2.75483v-.01368c0-1.74316-.7862-2.75488-2.1807-2.75488s-2.1806,1.01172-2.1806,2.75488v.01368c0,1.73632.7861,2.75483,2.1806,2.75483ZM49.6133,11v-7.36914h1.1894v1.09375h.1094c.2803-.77246.9707-1.22363,1.9688-1.22363.2255,0,.4785.02734.5947.04785v1.15527c-.2461-.04101-.4717-.06836-.7315-.06836-1.1347,0-1.9414.71778-1.9414,1.79785v4.56641h-1.1894Zm7.8476.1299c-1.8662,0-3.0898-1.51076-3.0898-3.80763v-.01368c0-2.31054,1.2168-3.80761,3.0898-3.80761c1.0118,0,1.8936.50586,2.2969,1.29199h.1094v-4.087892h1.1894v10.294922h-1.1894v-1.17578h-.1094c-.4512.82028-1.2715,1.30568-2.2969,1.30568Zm.2735-1.0528c1.3398,0,2.1601-1.05269,2.1601-2.75483v-.01368c0-1.70214-.8203-2.75488-2.1601-2.75488-1.3467,0-2.1465,1.03906-2.1465,2.75488v.01368c0,1.71582.7998,2.75483,2.1465,2.75483Z" transform="translate(91.742188 236.294922)" fill-opacity="0.2"/><path id="em305lJbgGA71" d="M0.257812,11v-9.86426h6.111328v1.10742h-4.88086v3.16504h4.62793v1.09375h-4.62793v3.39063h4.88086v1.10742h-6.111328ZM8.44727,11v-7.36914h1.18945v1.12109h.10937c.32811-.79297,1.02541-1.25097,1.98931-1.25097.998,0,1.6953.52636,2.0371,1.29199h.1093c.3965-.7793,1.2373-1.29199,2.2559-1.29199c1.5039,0,2.3447.86132,2.3447,2.40625v5.09277h-1.1894v-4.81934c0-1.08691-.4991-1.62695-1.5381-1.62695-1.0254,0-1.7022.77246-1.7022,1.70899v4.7373h-1.1894v-5.00391c0-.875-.6016-1.44238-1.5313-1.44238-.9638,0-1.69528.84082-1.69528,1.87988v4.56641h-1.18945Zm14.20503.1299c-1.4013,0-2.4609-.8477-2.4609-2.18752v-.01367c0-1.3125.9707-2.07129,2.6865-2.17383L24.9902,6.625v-.66992c0-.90918-.5537-1.40137-1.6543-1.40137-.8818,0-1.4629.32813-1.6543.90234l-.0068.02051h-1.1894l.0068-.04101c.1914-1.15528,1.3125-1.93457,2.8848-1.93457c1.7978,0,2.8027.92285,2.8027,2.4541v5.04492h-1.1895v-1.08691h-.1093c-.4649.78611-1.2373,1.21681-2.2286,1.21681ZM21.4082,8.91504c0,.74512.6357,1.18266,1.4902,1.18266c1.21,0,2.0918-.79301,2.0918-1.84575v-.66992l-1.9687.12305c-1.1211.06836-1.6133.46484-1.6133,1.19629v.01367Zm7.5742-6.70606c-.4512,0-.8203-.36914-.8203-.82031s.3691-.820311.8203-.820311.8203.369141.8203.820311-.3691.82031-.8203.82031ZM28.3809,11v-7.36914h1.1894v7.36914h-1.1894Zm3.5,0v-10.294922h1.1894v10.294922h-1.1894Zm10.4384.1299c-2.0986,0-3.3974-1.44924-3.3974-3.80763v-.01368c0-2.36523,1.2988-3.80761,3.3974-3.80761c2.0987,0,3.3975,1.44238,3.3975,3.80761v.01368c0,2.35839-1.2988,3.80763-3.3975,3.80763Zm0-1.0528c1.3946,0,2.1807-1.01851,2.1807-2.75483v-.01368c0-1.74316-.7861-2.75488-2.1807-2.75488-1.3945,0-2.1806,1.01172-2.1806,2.75488v.01368c0,1.73632.7861,2.75483,2.1806,2.75483ZM47.5625,11v-7.36914h1.1895v1.09375h.1093c.2803-.77246.9707-1.22363,1.9688-1.22363.2256,0,.4785.02734.5947.04785v1.15527c-.2461-.04101-.4717-.06836-.7314-.06836-1.1348,0-1.9414.71778-1.9414,1.79785v4.56641h-1.1895Zm9.2695,2.4609v-9.83004h1.1895v1.17578h.1094c.4511-.82031,1.2714-1.30566,2.2968-1.30566c1.8662,0,3.0899,1.51074,3.0899,3.80761v.01368c0,2.31054-1.2168,3.80763-3.0899,3.80763-1.0117,0-1.8935-.5059-2.2968-1.29201h-.1094v3.62301h-1.1895Zm3.3223-3.3838c1.3467,0,2.1465-1.03901,2.1465-2.75483v-.01368c0-1.71582-.7998-2.75488-2.1465-2.75488-1.3398,0-2.1602,1.05274-2.1602,2.75488v.01368c0,1.70214.8204,2.75483,2.1602,2.75483ZM65.4453,11v-10.294922h1.1895v4.033202h.1093c.3692-.7793,1.0596-1.2373,2.1465-1.2373c1.6543,0,2.5772.97754,2.5772,2.72754v4.77148h-1.1895v-4.48438c0-1.32617-.5469-1.96191-1.7226-1.96191-1.1758,0-1.9209.79297-1.9209,2.08496v4.36133h-1.1895Zm11.2041.1299c-2.0986,0-3.3974-1.44924-3.3974-3.80763v-.01368c0-2.36523,1.2988-3.80761,3.3974-3.80761s3.3975,1.44238,3.3975,3.80761v.01368c0,2.35839-1.2989,3.80763-3.3975,3.80763Zm0-1.0528c1.3945,0,2.1807-1.01851,2.1807-2.75483v-.01368c0-1.74316-.7862-2.75488-2.1807-2.75488s-2.1806,1.01172-2.1806,2.75488v.01368c0,1.73632.7861,2.75483,2.1806,2.75483ZM81.8926,11v-7.36914h1.1894v1.10742h.1094c.3691-.7793,1.0596-1.2373,2.1465-1.2373c1.6543,0,2.5771.97754,2.5771,2.72754v4.77148h-1.1894v-4.48438c0-1.32617-.5469-1.96191-1.7227-1.96191s-1.9209.79297-1.9209,2.08496v4.36133h-1.1894Zm11.1836.1299c-2.1055,0-3.377-1.47658-3.377-3.78713v-.00683c0-2.27637,1.2988-3.83496,3.3018-3.83496c2.0029,0,3.2197,1.49023,3.2197,3.6914v.46485h-5.3047c.0342,1.52441.875,2.41307,2.1875,2.41307.9981,0,1.6133-.47167,1.8115-.916l.0274-.06153h1.1894l-.0136.05469c-.253.99804-1.3057,1.98244-3.042,1.98244Zm-.0821-6.56935c-1.0937,0-1.9277.74511-2.0576,2.14648h4.0742c-.123-1.45605-.9296-2.14648-2.0166-2.14648ZM102.004,11v-7.36914h1.189v1.10742h.11c.369-.7793,1.059-1.2373,2.146-1.2373c1.655,0,2.577.97754,2.577,2.72754v4.77148h-1.189v-4.48438c0-1.32617-.547-1.96191-1.723-1.96191s-1.921.79297-1.921,2.08496v4.36133h-1.189Zm10.643.1299c-1.674,0-2.536-.9844-2.536-2.72756v-4.77148h1.19v4.48437c0,1.32618.478,1.96187,1.654,1.96187c1.299,0,1.989-.79292,1.989-2.08491v-4.36133h1.19v7.36914h-1.19v-1.10059h-.109c-.362.78609-1.107,1.23049-2.188,1.23049ZM118.355,11v-7.36914h1.19v1.12109h.109c.328-.79297,1.026-1.25097,1.99-1.25097.998,0,1.695.52636,2.037,1.29199h.109c.397-.7793,1.237-1.29199,2.256-1.29199c1.504,0,2.345.86132,2.345,2.40625v5.09277h-1.19v-4.81934c0-1.08691-.499-1.62695-1.538-1.62695-1.025,0-1.702.77246-1.702,1.70899v4.7373h-1.19v-5.00391c0-.875-.601-1.44238-1.531-1.44238-.964,0-1.695.84082-1.695,1.87988v4.56641h-1.19Zm15.846.1299c-1.025,0-1.846-.4854-2.297-1.30568h-.109v1.17578h-1.19v-10.294922h1.19v4.087892h.109c.404-.78613,1.285-1.29199,2.297-1.29199c1.873,0,3.09,1.49707,3.09,3.80761v.01368c0,2.29687-1.224,3.80763-3.09,3.80763Zm-.273-1.0528c1.346,0,2.146-1.03901,2.146-2.75483v-.01368c0-1.71582-.8-2.75488-2.146-2.75488-1.34,0-2.16,1.05274-2.16,2.75488v.01368c0,1.70214.82,2.75483,2.16,2.75483Zm8.217,1.0528c-2.106,0-3.377-1.47658-3.377-3.78713v-.00683c0-2.27637,1.298-3.83496,3.301-3.83496s3.22,1.49023,3.22,3.6914v.46485h-5.305c.035,1.52441.875,2.41307,2.188,2.41307.998,0,1.613-.47167,1.811-.916l.028-.06153h1.189l-.013.05469c-.253.99804-1.306,1.98244-3.042,1.98244Zm-.083-6.56935c-1.093,0-1.927.74511-2.057,2.14648h4.074c-.123-1.45605-.93-2.14648-2.017-2.14648ZM147.135,11v-7.36914h1.189v1.09375h.11c.28-.77246.97-1.22363,1.968-1.22363.226,0,.479.02734.595.04785v1.15527c-.246-.04101-.472-.06836-.731-.06836-1.135,0-1.942.71778-1.942,1.79785v4.56641h-1.189Z" transform="translate(91.742188 166.431641)" fill-opacity="0.2"/></g><g id="em305lJbgGA72_ts" transform="translate(250,199) scale(0,0)"><rect width="500" height="398" rx="20" ry="20" transform="translate(-250,-199)" fill="#fff" stroke-width="0"/></g><g id="em305lJbgGA73_ts" transform="translate(251.22728,197.505188) scale(1,1)"><g transform="translate(-147,-147)"><g id="em305lJbgGA74_ts" transform="translate(147,147) scale(0,0)"><g transform="translate(-147,-147)"><circle r="68" transform="translate(147 147)" fill="#37ba41"/><path d="M182.93,121.787c2.093,2.093,2.093,5.475,0,7.568l-42.859,42.859c-2.093,2.093-5.475,2.093-7.567,0l-21.435-21.429c-2.092-2.093-2.092-5.475,0-7.568s5.484-2.093,7.577,0l17.491,17.63l39.226-39.06c2.093-2.096,5.475-2.096,7.567,0Z" fill="#fff"/></g></g><ellipse id="em305lJbgGA77" rx="66" ry="66" transform="matrix(0-1 1 0 145.772726 148.494808)" fill="none" stroke="#60df68" stroke-width="7" stroke-dashoffset="414.69" stroke-dasharray="414.69"/><g id="em305lJbgGA78_ts" transform="translate(147,147) scale(0,0)"><g id="em305lJbgGA78" transform="translate(-147,-147)"><g><circle r="6" transform="matrix(.707107 0.707107-.707107 0.707107 249.384995 49.435002)" fill="#7454ae"/><circle r="4" transform="matrix(.707107 0.707107-.707107 0.707107 236.656998 49.4352)" fill="#969192"/><circle r="2" transform="matrix(.707107 0.707107-.707107 0.707107 250.798996 62.162899)" fill="#557daa"/></g><g><circle r="6" transform="matrix(-.707107 0.707107-.707107-.707107 249.677993 243.384994)" fill="#dc353c"/><circle r="4" transform="matrix(-.707107 0.707107-.707107-.707107 249.677993 230.656997)" fill="#969192"/><circle r="2" transform="matrix(-.707107 0.707107-.707107-.707107 236.949997 244.798996)" fill="#557daa"/></g><g><circle r="6" transform="matrix(-.707107-.707107 0.707107-.707107 50.727501 247.677994)" fill="#ffa31a"/><circle r="4" transform="matrix(-.707107-.707107 0.707107-.707107 63.4561 247.677994)" fill="#969192"/><circle r="2" transform="matrix(-.707107-.707107 0.707107-.707107 49.3135 234.949997)" fill="#557daa"/></g><g><circle r="6" transform="translate(147.5 6)" fill="#f15637"/><circle r="4" transform="translate(138.5 15)" fill="#969192"/><circle r="2" transform="translate(157.5 14)" fill="#557daa"/></g><g><circle r="6" transform="matrix(0 1-1 0 288 147.5)" fill="#1a63ff"/><circle r="4" transform="matrix(0 1-1 0 279 138.5)" fill="#969192"/><circle r="2" transform="matrix(0 1-1 0 280 157.5)" fill="#557daa"/></g><g><circle r="6" transform="matrix(-1 0 0-1 146.5 288)" fill="#3a3e43"/><circle r="4" transform="matrix(-1 0 0-1 155.5 279)" fill="#969192"/><circle r="2" transform="matrix(-1 0 0-1 136.5 280)" fill="#557daa"/></g><g><circle r="6" transform="matrix(0-1 1 0 6 146.5)" fill="#635bff"/><circle r="4" transform="matrix(0-1 1 0 15 155.5)" fill="#969192"/><circle r="2" transform="matrix(0-1 1 0 14 136.5)" fill="#557daa"/></g><g><circle r="6" transform="matrix(.707107-.707107 0.707107 0.707107 51.435002 44.728001)" fill="#2ecc40"/><circle r="4" transform="matrix(.707107-.707107 0.707107 0.707107 51.4352 57.4561)" fill="#969192"/><circle r="2" transform="matrix(.707107-.707107 0.707107 0.707107 64.162903 43.313999)" fill="#557daa"/></g></g></g></g></g><g id="em305lJbgGA111_ts" transform="translate(250,199) rotate(-90) scale(1,1)"><ellipse id="em305lJbgGA111" rx="66" ry="66" transform="translate(0,0)" opacity="0" fill="none" stroke="#60df68" stroke-width="7" stroke-dasharray="414.69"/></g></g></svg>
