<svg id="eEMrinSzULl1" xmlns="http://www.w3.org/2000/svg" xmlns:xlink="http://www.w3.org/1999/xlink" viewBox="0 0 580 448" shape-rendering="geometricPrecision" text-rendering="geometricPrecision">
<style><![CDATA[
#eEMrinSzULl7_to {animation: eEMrinSzULl7_to__to 13000ms linear infinite normal forwards}@keyframes eEMrinSzULl7_to__to { 0% {transform: translate(260px,387.5px)} 4.615385% {transform: translate(260px,387.5px);animation-timing-function: cubic-bezier(0.42,0,0.58,1)} 6.923077% {transform: translate(260px,330.5px)} 100% {transform: translate(260px,330.5px)}} #eEMrinSzULl7 {animation: eEMrinSzULl7_c_o 13000ms linear infinite normal forwards}@keyframes eEMrinSzULl7_c_o { 0% {opacity: 0} 4.615385% {opacity: 0} 8.461538% {opacity: 1} 100% {opacity: 1}} #eEMrinSzULl20 {animation: eEMrinSzULl20_c_o 13000ms linear infinite normal forwards}@keyframes eEMrinSzULl20_c_o { 0% {opacity: 1} 55.384615% {opacity: 1;animation-timing-function: cubic-bezier(0.25,1,0.25,1)} 57.692308% {opacity: 0} 100% {opacity: 0}} #eEMrinSzULl26_to {animation: eEMrinSzULl26_to__to 13000ms linear infinite normal forwards}@keyframes eEMrinSzULl26_to__to { 0% {transform: translate(260px,330.5px)} 3.076923% {transform: translate(260px,330.5px);animation-timing-function: cubic-bezier(0.42,0,0.58,1)} 5.384615% {transform: translate(260px,273.5px)} 100% {transform: translate(260px,273.5px)}} #eEMrinSzULl26 {animation: eEMrinSzULl26_c_o 13000ms linear infinite normal forwards}@keyframes eEMrinSzULl26_c_o { 0% {opacity: 0} 3.076923% {opacity: 0} 6.923077% {opacity: 1} 100% {opacity: 1}} #eEMrinSzULl37 {animation: eEMrinSzULl37_c_o 13000ms linear infinite normal forwards}@keyframes eEMrinSzULl37_c_o { 0% {opacity: 1} 53.846154% {opacity: 1;animation-timing-function: cubic-bezier(0.25,1,0.25,1)} 56.153846% {opacity: 0} 100% {opacity: 0}} #eEMrinSzULl43_to {animation: eEMrinSzULl43_to__to 13000ms linear infinite normal forwards}@keyframes eEMrinSzULl43_to__to { 0% {transform: translate(260px,273.5px)} 1.538462% {transform: translate(260px,273.5px);animation-timing-function: cubic-bezier(0.42,0,0.58,1)} 3.846154% {transform: translate(260px,216.5px)} 100% {transform: translate(260px,216.5px)}} #eEMrinSzULl43 {animation: eEMrinSzULl43_c_o 13000ms linear infinite normal forwards}@keyframes eEMrinSzULl43_c_o { 0% {opacity: 0} 1.538462% {opacity: 0} 5.384615% {opacity: 1} 100% {opacity: 1}} #eEMrinSzULl54 {animation: eEMrinSzULl54_c_o 13000ms linear infinite normal forwards}@keyframes eEMrinSzULl54_c_o { 0% {opacity: 1} 52.307692% {opacity: 1;animation-timing-function: cubic-bezier(0.25,1,0.25,1)} 54.615385% {opacity: 0} 100% {opacity: 0}} #eEMrinSzULl60_to {animation: eEMrinSzULl60_to__to 13000ms linear infinite normal forwards}@keyframes eEMrinSzULl60_to__to { 0% {transform: translate(260px,216.5px);animation-timing-function: cubic-bezier(0.42,0,0.58,1)} 2.307692% {transform: translate(260px,159.5px)} 100% {transform: translate(260px,159.5px)}} #eEMrinSzULl60 {animation: eEMrinSzULl60_c_o 13000ms linear infinite normal forwards}@keyframes eEMrinSzULl60_c_o { 0% {opacity: 0} 3.846154% {opacity: 1} 100% {opacity: 1}} #eEMrinSzULl117_to {animation: eEMrinSzULl117_to__to 13000ms linear infinite normal forwards}@keyframes eEMrinSzULl117_to__to { 0% {transform: translate(-61.246823px,86.754392px)} 71.538462% {transform: translate(-61.246823px,86.754392px)} 75.384615% {transform: translate(106.643177px,86.754392px)} 100% {transform: translate(106.643177px,86.754392px)}} #eEMrinSzULl119 {animation: eEMrinSzULl119_c_o 13000ms linear infinite normal forwards}@keyframes eEMrinSzULl119_c_o { 0% {opacity: 1} 69.230769% {opacity: 1;animation-timing-function: step-start} 70% {opacity: 0} 100% {opacity: 0}} #eEMrinSzULl145_to {animation: eEMrinSzULl145_to__to 13000ms linear infinite normal forwards}@keyframes eEMrinSzULl145_to__to { 0% {transform: translate(-33.25163px,86.7496px)} 11.538462% {transform: translate(-33.25163px,86.7496px)} 15.384615% {transform: translate(106.64375px,86.754392px)} 61.538462% {transform: translate(106.64375px,86.754392px)} 65.384615% {transform: translate(-33.246823px,86.754392px)} 100% {transform: translate(-33.246823px,86.754392px)}} #eEMrinSzULl146 {animation: eEMrinSzULl146_c_o 13000ms linear infinite normal forwards}@keyframes eEMrinSzULl146_c_o { 0% {opacity: 0} 8.461538% {opacity: 0;animation-timing-function: cubic-bezier(0.25,1,0.25,1)} 11.538462% {opacity: 1} 100% {opacity: 1}} #eEMrinSzULl147 {animation: eEMrinSzULl147_c_o 13000ms linear infinite normal forwards}@keyframes eEMrinSzULl147_c_o { 0% {opacity: 0} 55.384615% {opacity: 0;animation-timing-function: cubic-bezier(0.42,0,0.58,1)} 57.692308% {opacity: 1} 100% {opacity: 1}} #eEMrinSzULl152 {animation: eEMrinSzULl152_c_o 13000ms linear infinite normal forwards}@keyframes eEMrinSzULl152_c_o { 0% {opacity: 0} 53.846154% {opacity: 0;animation-timing-function: cubic-bezier(0.42,0,0.58,1)} 56.153846% {opacity: 1} 100% {opacity: 1}} #eEMrinSzULl157 {animation: eEMrinSzULl157_c_o 13000ms linear infinite normal forwards}@keyframes eEMrinSzULl157_c_o { 0% {opacity: 0} 52.307692% {opacity: 0;animation-timing-function: cubic-bezier(0.42,0,0.58,1)} 54.615385% {opacity: 1} 100% {opacity: 1}} #eEMrinSzULl162 {animation: eEMrinSzULl162_c_o 13000ms linear infinite normal forwards}@keyframes eEMrinSzULl162_c_o { 0% {opacity: 0} 27.076923% {opacity: 0} 28.461538% {opacity: 1} 48.461538% {opacity: 1} 50% {opacity: 0} 100% {opacity: 0}} #eEMrinSzULl164 {animation: eEMrinSzULl164_c_o 13000ms linear infinite normal forwards}@keyframes eEMrinSzULl164_c_o { 0% {opacity: 0} 26.923077% {opacity: 0} 28.461538% {opacity: 1} 48.461538% {opacity: 1} 50% {opacity: 0} 100% {opacity: 0}} #eEMrinSzULl166_to {animation: eEMrinSzULl166_to__to 13000ms linear infinite normal forwards}@keyframes eEMrinSzULl166_to__to { 0% {transform: translate(259.995499px,218.841503px)} 28.461538% {transform: translate(259.995499px,218.841503px);animation-timing-function: cubic-bezier(0.42,0,0.58,1)} 33.076923% {transform: translate(259.995499px,153.837004px);animation-timing-function: cubic-bezier(0.42,0,0.58,1)} 36.923077% {transform: translate(259.995499px,162.837004px);animation-timing-function: cubic-bezier(0.42,0,0.58,1)} 40.769231% {transform: translate(259.995499px,153.837004px);animation-timing-function: cubic-bezier(0.42,0,0.58,1)} 44.615385% {transform: translate(259.995499px,162.837004px);animation-timing-function: cubic-bezier(0.42,0,0.58,1)} 48.461538% {transform: translate(259.995499px,153.837004px)} 100% {transform: translate(259.995499px,153.837004px)}}
]]></style>
<defs><filter id="eEMrinSzULl3-filter" x="-150%" width="400%" y="-150%" height="400%"><feGaussianBlur id="eEMrinSzULl3-filter-drop-shadow-0-blur" in="SourceAlpha" stdDeviation="5,5"/><feOffset id="eEMrinSzULl3-filter-drop-shadow-0-offset" dx="0" dy="5" result="tmp"/><feFlood id="eEMrinSzULl3-filter-drop-shadow-0-flood" flood-color="rgba(23,0,102,0.1)"/><feComposite id="eEMrinSzULl3-filter-drop-shadow-0-composite" operator="in" in2="tmp"/><feMerge id="eEMrinSzULl3-filter-drop-shadow-0-merge" result="result"><feMergeNode id="eEMrinSzULl3-filter-drop-shadow-0-merge-node-1"/><feMergeNode id="eEMrinSzULl3-filter-drop-shadow-0-merge-node-2" in="SourceGraphic"/></feMerge></filter><linearGradient id="eEMrinSzULl33-fill" x1="67.838" y1="286.941" x2="57.6313" y2="291.423" spreadMethod="pad" gradientUnits="userSpaceOnUse" gradientTransform="translate(0 0)"><stop id="eEMrinSzULl33-fill-0" offset="0%" stop-color="#b20610"/><stop id="eEMrinSzULl33-fill-1" offset="25.5959%" stop-color="#b20610"/><stop id="eEMrinSzULl33-fill-2" offset="100%" stop-color="#590004"/></linearGradient><linearGradient id="eEMrinSzULl34-fill" x1="43.9415" y1="272.137" x2="54.9798" y2="267.346" spreadMethod="pad" gradientUnits="userSpaceOnUse" gradientTransform="translate(0 0)"><stop id="eEMrinSzULl34-fill-0" offset="0%" stop-color="#b20610"/><stop id="eEMrinSzULl34-fill-1" offset="25.5959%" stop-color="#b20610"/><stop id="eEMrinSzULl34-fill-2" offset="100%" stop-color="#590004"/></linearGradient><radialGradient id="eEMrinSzULl50-fill" cx="0" cy="0" r="1" spreadMethod="pad" gradientUnits="userSpaceOnUse" gradientTransform="matrix(-3.500026 -17.500027 13.611143 -2.722245 65 231)"><stop id="eEMrinSzULl50-fill-0" offset="0%" stop-color="#0768e1"/><stop id="eEMrinSzULl50-fill-1" offset="100%" stop-color="#0082fb"/></radialGradient><radialGradient id="eEMrinSzULl51-fill" cx="0" cy="0" r="1" spreadMethod="pad" gradientUnits="userSpaceOnUse" gradientTransform="matrix(-10.500027 4.999935 -2.622424 -5.507176 50 216)"><stop id="eEMrinSzULl51-fill-0" offset="0%" stop-color="#0768e1"/><stop id="eEMrinSzULl51-fill-1" offset="100%" stop-color="#0082fb"/></radialGradient><linearGradient id="eEMrinSzULl67-fill" x1="66.7512" y1="156.338" x2="44.2343" y2="178.015" spreadMethod="pad" gradientUnits="userSpaceOnUse" gradientTransform="translate(0 0)"><stop id="eEMrinSzULl67-fill-0" offset="5%" stop-color="#fff44f"/><stop id="eEMrinSzULl67-fill-1" offset="11%" stop-color="#ffe847"/><stop id="eEMrinSzULl67-fill-2" offset="22%" stop-color="#ffc830"/><stop id="eEMrinSzULl67-fill-3" offset="37%" stop-color="#ff980e"/><stop id="eEMrinSzULl67-fill-4" offset="40%" stop-color="#ff8b16"/><stop id="eEMrinSzULl67-fill-5" offset="46%" stop-color="#ff672a"/><stop id="eEMrinSzULl67-fill-6" offset="53%" stop-color="#ff3647"/><stop id="eEMrinSzULl67-fill-7" offset="70%" stop-color="#e31587"/></linearGradient><radialGradient id="eEMrinSzULl68-fill" cx="0" cy="0" r="1" spreadMethod="pad" gradientUnits="userSpaceOnUse" gradientTransform="matrix(28.2169 0 0 28.278801 65.712402 155.108002)"><stop id="eEMrinSzULl68-fill-0" offset="13%" stop-color="#ffbd4f"/><stop id="eEMrinSzULl68-fill-1" offset="19%" stop-color="#ffac31"/><stop id="eEMrinSzULl68-fill-2" offset="25%" stop-color="#ff9d17"/><stop id="eEMrinSzULl68-fill-3" offset="28%" stop-color="#ff980e"/><stop id="eEMrinSzULl68-fill-4" offset="40%" stop-color="#ff563b"/><stop id="eEMrinSzULl68-fill-5" offset="47%" stop-color="#ff3750"/><stop id="eEMrinSzULl68-fill-6" offset="71%" stop-color="#f5156c"/><stop id="eEMrinSzULl68-fill-7" offset="78%" stop-color="#eb0878"/><stop id="eEMrinSzULl68-fill-8" offset="86%" stop-color="#e50080"/></radialGradient><radialGradient id="eEMrinSzULl69-fill" cx="0" cy="0" r="1" spreadMethod="pad" gradientUnits="userSpaceOnUse" gradientTransform="matrix(28.2169 0 0 28.278801 55.401901 166.667999)"><stop id="eEMrinSzULl69-fill-0" offset="30%" stop-color="#960e18"/><stop id="eEMrinSzULl69-fill-1" offset="35%" stop-color="rgba(177,25,39,0.74)"/><stop id="eEMrinSzULl69-fill-2" offset="43%" stop-color="rgba(219,41,61,0.34)"/><stop id="eEMrinSzULl69-fill-3" offset="50%" stop-color="rgba(245,51,75,0.09)"/><stop id="eEMrinSzULl69-fill-4" offset="53%" stop-color="rgba(255,55,80,0)"/></radialGradient><radialGradient id="eEMrinSzULl70-fill" cx="0" cy="0" r="1" spreadMethod="pad" gradientUnits="userSpaceOnUse" gradientTransform="matrix(20.4419 0 0 20.486799 58.804199 148.690002)"><stop id="eEMrinSzULl70-fill-0" offset="13%" stop-color="#fff44f"/><stop id="eEMrinSzULl70-fill-1" offset="25%" stop-color="#ffdc3e"/><stop id="eEMrinSzULl70-fill-2" offset="51%" stop-color="#ff9d12"/><stop id="eEMrinSzULl70-fill-3" offset="53%" stop-color="#ff980e"/></radialGradient><radialGradient id="eEMrinSzULl71-fill" cx="0" cy="0" r="1" spreadMethod="pad" gradientUnits="userSpaceOnUse" gradientTransform="matrix(13.4351 0 0 13.4646 52.281399 174.054993)"><stop id="eEMrinSzULl71-fill-0" offset="35%" stop-color="#3a8ee6"/><stop id="eEMrinSzULl71-fill-1" offset="47%" stop-color="#5c79f0"/><stop id="eEMrinSzULl71-fill-2" offset="67%" stop-color="#9059ff"/><stop id="eEMrinSzULl71-fill-3" offset="100%" stop-color="#c139e6"/></radialGradient><radialGradient id="eEMrinSzULl72-fill" cx="0" cy="0" r="1" spreadMethod="pad" gradientUnits="userSpaceOnUse" gradientTransform="matrix(6.909652 -1.713358 2.016695 8.132954 55.8074 163.307999)"><stop id="eEMrinSzULl72-fill-0" offset="21%" stop-color="rgba(144,89,255,0)"/><stop id="eEMrinSzULl72-fill-1" offset="28%" stop-color="rgba(140,79,243,0.06)"/><stop id="eEMrinSzULl72-fill-2" offset="75%" stop-color="rgba(119,22,168,0.45)"/><stop id="eEMrinSzULl72-fill-3" offset="97%" stop-color="rgba(110,0,139,0.6)"/></radialGradient><radialGradient id="eEMrinSzULl73-fill" cx="0" cy="0" r="1" spreadMethod="pad" gradientUnits="userSpaceOnUse" gradientTransform="matrix(9.66564 0 0 9.68685 55.045399 153.951004)"><stop id="eEMrinSzULl73-fill-0" offset="0%" stop-color="#ffe226"/><stop id="eEMrinSzULl73-fill-1" offset="12%" stop-color="#ffdb27"/><stop id="eEMrinSzULl73-fill-2" offset="30%" stop-color="#ffc82a"/><stop id="eEMrinSzULl73-fill-3" offset="50%" stop-color="#ffa930"/><stop id="eEMrinSzULl73-fill-4" offset="73%" stop-color="#ff7e37"/><stop id="eEMrinSzULl73-fill-5" offset="79%" stop-color="#ff7139"/></radialGradient><radialGradient id="eEMrinSzULl74-fill" cx="0" cy="0" r="1" spreadMethod="pad" gradientUnits="userSpaceOnUse" gradientTransform="matrix(41.238098 0 0 41.328602 62.6436 147.807007)"><stop id="eEMrinSzULl74-fill-0" offset="11%" stop-color="#fff44f"/><stop id="eEMrinSzULl74-fill-1" offset="46%" stop-color="#ff980e"/><stop id="eEMrinSzULl74-fill-2" offset="62%" stop-color="#ff5634"/><stop id="eEMrinSzULl74-fill-3" offset="72%" stop-color="#ff3647"/><stop id="eEMrinSzULl74-fill-4" offset="90%" stop-color="#e31587"/></radialGradient><radialGradient id="eEMrinSzULl75-fill" cx="0" cy="0" r="1" spreadMethod="pad" gradientUnits="userSpaceOnUse" gradientTransform="matrix(3.020819 29.971953 -19.649451 1.980432 58.657101 152.322006)"><stop id="eEMrinSzULl75-fill-0" offset="0%" stop-color="#fff44f"/><stop id="eEMrinSzULl75-fill-1" offset="6%" stop-color="#ffe847"/><stop id="eEMrinSzULl75-fill-2" offset="17%" stop-color="#ffc830"/><stop id="eEMrinSzULl75-fill-3" offset="30%" stop-color="#ff980e"/><stop id="eEMrinSzULl75-fill-4" offset="36%" stop-color="#ff8b16"/><stop id="eEMrinSzULl75-fill-5" offset="45%" stop-color="#ff672a"/><stop id="eEMrinSzULl75-fill-6" offset="57%" stop-color="#ff3647"/><stop id="eEMrinSzULl75-fill-7" offset="74%" stop-color="#e31587"/></radialGradient><radialGradient id="eEMrinSzULl76-fill" cx="0" cy="0" r="1" spreadMethod="pad" gradientUnits="userSpaceOnUse" gradientTransform="matrix(25.745001 0 0 25.8015 54.8181 157.537994)"><stop id="eEMrinSzULl76-fill-0" offset="14%" stop-color="#fff44f"/><stop id="eEMrinSzULl76-fill-1" offset="48%" stop-color="#ff980e"/><stop id="eEMrinSzULl76-fill-2" offset="59%" stop-color="#ff5634"/><stop id="eEMrinSzULl76-fill-3" offset="66%" stop-color="#ff3647"/><stop id="eEMrinSzULl76-fill-4" offset="90%" stop-color="#e31587"/></radialGradient><radialGradient id="eEMrinSzULl77-fill" cx="0" cy="0" r="1" spreadMethod="pad" gradientUnits="userSpaceOnUse" gradientTransform="matrix(28.177999 0 0 28.239901 61.614201 159.048996)"><stop id="eEMrinSzULl77-fill-0" offset="9%" stop-color="#fff44f"/><stop id="eEMrinSzULl77-fill-1" offset="23%" stop-color="#ffe141"/><stop id="eEMrinSzULl77-fill-2" offset="51%" stop-color="#ffaf1e"/><stop id="eEMrinSzULl77-fill-3" offset="63%" stop-color="#ff980e"/></radialGradient><linearGradient id="eEMrinSzULl78-fill" x1="66.4809" y1="156.221" x2="47.3206" y2="175.34" spreadMethod="pad" gradientUnits="userSpaceOnUse" gradientTransform="translate(0 0)"><stop id="eEMrinSzULl78-fill-0" offset="17%" stop-color="rgba(255,244,79,0.8)"/><stop id="eEMrinSzULl78-fill-1" offset="27%" stop-color="rgba(255,244,79,0.63)"/><stop id="eEMrinSzULl78-fill-2" offset="49%" stop-color="rgba(255,244,79,0.22)"/><stop id="eEMrinSzULl78-fill-3" offset="60%" stop-color="rgba(255,244,79,0)"/></linearGradient></defs><g transform="translate(-22.398453-70)"><g transform="translate(52.398453 105)" filter="url(#eEMrinSzULl3-filter)"><rect width="500" height="378" rx="20" ry="20" transform="translate(10 5)" fill="#fff"/></g><g transform="translate(52.3969 105)"><g><g id="eEMrinSzULl7_to" transform="translate(260,387.5)"><g id="eEMrinSzULl7" transform="translate(-260,-330.5)" opacity="0"><g><rect width="440" height="1" rx="0" ry="0" transform="translate(40 308)" fill="#bbb"/></g><g><g><g><g><path d="M47.8703,341.084c.1683-1.393.7398-2.173,1.8168-2.973c1.5409-1.083,3.4657-.47,3.4657-.47v-3.635c.468-.012.9361.016,1.399.083v4.677c0,0-1.9243-.612-3.4652.471-1.0764.8-1.649,1.58-1.8168,2.974-.0052.756.1368,1.745.7907,2.601-.1617-.083-.3265-.178-.4944-.284-1.4404-.967-1.7028-2.418-1.6958-3.444Zm14.6292-13.799c-1.06-1.161-1.4609-2.334-1.6058-3.158h1.3335c0,0-.2659,2.16,1.6718,4.284l.0269.029c-.5223-.329-1.0012-.716-1.4264-1.155Zm6.4237,3.293v4.584c0,0-1.7016-.067-2.9609-.387-1.7583-.448-2.8884-1.135-2.8884-1.135s-.7807-.49-.8438-.525v9.465c0,.527-.1443,1.844-.5844,2.941-.5744,1.436-1.4608,2.379-1.6239,2.571c0,0-1.0781,1.275-2.9801,2.133-1.7145.774-3.2198.754-3.6697.774c0,0-2.6021.103-4.9436-1.419-.5063-.335-.979-.715-1.4118-1.135l.0117.009c2.3421,1.521,4.9436,1.418,4.9436,1.418.4505-.019,1.9558,0,3.6697-.774c1.9003-.858,2.9801-2.132,2.9801-2.132.1613-.192,1.0519-1.135,1.6239-2.572.4389-1.097.5844-2.413.5844-2.94v-9.464c.0631.034.8432.524.8432.524s1.1307.688,2.889,1.136c1.2599.32,2.9609.387,2.9609.387v-3.592c.582.13,1.0781.166,1.4001.133Z" fill="#ee1d52"/><path d="M67.5236,330.445v3.591c0,0-1.701-.067-2.9609-.387-1.7583-.449-2.889-1.136-2.889-1.136s-.7801-.49-.8432-.524v9.466c0,.527-.1444,1.843-.5844,2.941-.5744,1.436-1.4608,2.379-1.6239,2.571c0,0-1.0787,1.274-2.9801,2.132-1.7139.774-3.2192.755-3.6698.774c0,0-2.6015.104-4.9435-1.418l-.0117-.009c-.2473-.239-.48-.492-.6971-.757-.7474-.911-1.2056-1.989-1.3207-2.296-.0002-.001-.0002-.003,0-.004-.1852-.534-.5744-1.817-.5212-3.06.0941-2.193.8654-3.539,1.0693-3.876.5402-.919,1.2426-1.742,2.0762-2.431.7356-.595,1.5694-1.068,2.4671-1.4.9705-.39,2.0098-.599,3.062-.616v3.635c0,0-1.9248-.611-3.4652.47-1.0769.8-1.6484,1.58-1.8167,2.973-.007,1.026.2554,2.477,1.6946,3.445.1679.106.3327.201.4944.283.2514.327.5574.612.9057.843c1.406.89,2.584.952,4.0904.374c1.0045-.386,1.7607-1.257,2.1113-2.222.2203-.603.2174-1.209.2174-1.837v-17.843h3.5061c.1449.824.5457,1.997,1.6057,3.158.4253.439.9042.826,1.4264,1.155.1543.16.9432.949,1.9559,1.433.5236.251,1.0755.442,1.6449.572v0Z"/><path d="M43.604,344.277v.003l.087.235c-.01-.027-.0423-.11-.087-.238Z" fill="#69c9d0"/><path d="M50.091,334.622c-.8978.332-1.7316.805-2.4672,1.4-.8338.691-1.5361,1.515-2.0756,2.436-.2039.336-.9752,1.683-1.0693,3.876-.0532,1.243.336,2.526.5212,3.06-.0002.001-.0002.003,0,.004.1169.305.5733,1.382,1.3206,2.296.2171.265.4499.518.6972.757-.7923-.525-1.4989-1.16-2.0967-1.884-.7409-.903-1.1979-1.969-1.3171-2.284-.0001-.002-.0001-.005,0-.007v-.004c-.1858-.534-.5762-1.817-.5218-3.062.0941-2.192.8654-3.538,1.0693-3.875.5393-.922,1.2417-1.746,2.0756-2.437.7355-.594,1.5693-1.068,2.4672-1.4.56-.222,1.1434-.387,1.7401-.49.8993-.15,1.8178-.163,2.7214-.038v1.036c-1.0533.016-2.0935.225-3.0649.616Z" fill="#69c9d0"/><path d="M60.8938,324.127h-3.5061v17.844c0,.627,0,1.232-.2174,1.836-.3541.965-1.1073,1.836-2.1112,2.222-1.5071.58-2.6851.516-4.0905-.374-.3488-.23-.6557-.514-.9081-.84c1.1974.612,2.2691.601,3.5967.091c1.0033-.387,1.7577-1.258,2.1107-2.223.2209-.602.2179-1.209.2179-1.836v-17.847h4.8414c0,0-.0544.444.0666,1.127Zm6.63,5.325v.993c-.5684-.13-1.1193-.322-1.642-.572-1.0127-.484-1.8016-1.274-1.9559-1.433.1791.113.3648.215.5563.307c1.2313.589,2.4438.765,3.0416.705Z" fill="#69c9d0"/></g></g><path d="M83.8691,342.048c-1.6337,0-2.3037-.574-2.3037-2.003v-4.3h-1.1621v-1.169h1.1621v-1.873h1.5108v1.873h1.5927v1.169h-1.5927v3.944c0,.8.3008,1.128,1.0322,1.128.2256,0,.3555-.006.5605-.027v1.183c-.2392.041-.5127.075-.7998.075Zm3.3018-8.798c-.5127,0-.9297-.417-.9297-.923c0-.513.417-.93.9297-.93.5059,0,.9297.417.9297.93c0,.506-.4238.923-.9297.923ZM86.4258,342v-7.424h1.4765v7.424h-1.4765Zm3.7051,0v-10.336h1.4834v6.043h.1093l2.9463-3.131h1.7363l-3.0966,3.131L96.6113,342h-1.8047L92.25,338.664l-.6357.636v2.7h-1.4834Zm10.5821.048c-1.6339,0-2.3038-.574-2.3038-2.003v-4.3h-1.1621v-1.169h1.1621v-1.873h1.5107v1.873h1.5931v1.169h-1.5931v3.944c0,.8.3011,1.128,1.0321,1.128.226,0,.356-.006.561-.027v1.183c-.24.041-.513.075-.8.075Zm5.592.096c-2.181,0-3.514-1.456-3.514-3.849v-.014c0-2.385,1.34-3.848,3.514-3.848c2.167,0,3.507,1.456,3.507,3.848v.014c0,2.393-1.333,3.849-3.507,3.849Zm0-1.238c1.271,0,1.996-.97,1.996-2.611v-.014c0-1.647-.725-2.611-1.996-2.611-1.279,0-1.996.964-1.996,2.611v.014c0,1.647.717,2.611,1.996,2.611ZM111.65,342v-10.336h1.484v6.043h.109l2.946-3.131h1.737l-3.097,3.131L118.131,342h-1.805l-2.556-3.336-.636.636v2.7h-1.484Zm8.976.103c-.567,0-1.005-.438-1.005-.992c0-.56.438-.998,1.005-.998s.998.438.998.998c0,.554-.431.992-.998.992Zm6.125.041c-2.167,0-3.493-1.477-3.493-3.876v-.014c0-2.352,1.319-3.821,3.486-3.821c1.866,0,2.981,1.052,3.186,2.495v.034l-1.422.007-.007-.021c-.164-.731-.766-1.278-1.75-1.278-1.237,0-1.982.984-1.982,2.584v.014c0,1.64.758,2.638,1.982,2.638.93,0,1.504-.424,1.743-1.223l.014-.035h1.422l-.014.062c-.267,1.442-1.326,2.434-3.165,2.434Zm8.005,0c-2.181,0-3.514-1.456-3.514-3.849v-.014c0-2.385,1.34-3.848,3.514-3.848c2.167,0,3.507,1.456,3.507,3.848v.014c0,2.393-1.333,3.849-3.507,3.849Zm0-1.238c1.271,0,1.996-.97,1.996-2.611v-.014c0-1.647-.725-2.611-1.996-2.611-1.278,0-1.996.964-1.996,2.611v.014c0,1.647.718,2.611,1.996,2.611ZM140.033,342v-7.424h1.484v1.142h.109c.328-.814,1.053-1.285,2.023-1.285c1.012,0,1.73.526,2.058,1.326h.116c.376-.8,1.231-1.326,2.263-1.326c1.497,0,2.372.902,2.372,2.447v5.12h-1.477v-4.765c0-1.025-.464-1.531-1.435-1.531-.943,0-1.566.704-1.566,1.6v4.696h-1.476v-4.915c0-.848-.554-1.381-1.429-1.381-.895,0-1.558.766-1.558,1.736v4.56h-1.484Z"/></g><g id="eEMrinSzULl20"><rect width="182" height="32" rx="16" ry="16" transform="translate(298 321)" fill="#ff4136" fill-opacity="0.1"/><g><g><path d="M316,330.333c-3.682,0-6.667,2.985-6.667,6.667s2.985,6.667,6.667,6.667s6.667-2.985,6.667-6.667-2.985-6.667-6.667-6.667Zm-.625,3.959c0-.344.281-.625.625-.625s.625.28.625.625v3.333c0,.345-.28.625-.625.625s-.625-.278-.625-.625v-3.333ZM316,340.75c-.452,0-.819-.367-.819-.819s.367-.818.819-.818c.453,0,.819.366.819.818-.001.452-.366.819-.819.819Z" fill="#ff4136"/></g><path d="M334.529,341.205c-2.349,0-3.814-1.699-3.814-4.424v-.011c0-2.731,1.459-4.43,3.808-4.43c1.864,0,3.293,1.178,3.516,2.859l-.006.03h-1.301v-.018c-.246-1.037-1.095-1.711-2.209-1.711-1.517,0-2.466,1.26-2.466,3.27v.011c0,2.004.949,3.264,2.472,3.264c1.119,0,1.957-.598,2.198-1.553l.011-.023h1.301v.035c-.246,1.623-1.623,2.701-3.51,2.701Zm7.787-.082c-1.869,0-3.011-1.248-3.011-3.299v-.012c0-2.044,1.148-3.298,3.011-3.298c1.858,0,3.006,1.248,3.006,3.298v.012c0,2.051-1.142,3.299-3.006,3.299Zm0-1.061c1.09,0,1.711-.832,1.711-2.238v-.012c0-1.412-.621-2.238-1.711-2.238-1.095,0-1.711.826-1.711,2.238v.012c0,1.412.616,2.238,1.711,2.238Zm4.524.938v-6.363h1.271v.978h.094c.281-.697.902-1.101,1.734-1.101.868,0,1.483.451,1.764,1.136h.1c.322-.685,1.054-1.136,1.939-1.136c1.283,0,2.033.773,2.033,2.097v4.389h-1.265v-4.084c0-.879-.399-1.312-1.231-1.312-.808,0-1.341.603-1.341,1.371v4.025h-1.266v-4.213c0-.726-.475-1.183-1.225-1.183-.767,0-1.336.656-1.336,1.488v3.908h-1.271Zm10.711,2.121v-8.484h1.271v1.002h.094c.369-.698,1.066-1.114,1.957-1.114c1.606,0,2.637,1.284,2.637,3.287v.012c0,2.016-1.02,3.281-2.637,3.281-.873,0-1.617-.427-1.957-1.113h-.094v3.129h-1.271Zm2.965-3.1c1.06,0,1.699-.832,1.699-2.197v-.012c0-1.371-.639-2.197-1.699-2.197-1.061,0-1.717.838-1.717,2.197v.012c0,1.36.656,2.197,1.717,2.197Zm4.523.979v-6.363h1.272v.961h.093c.229-.674.821-1.073,1.67-1.073.205,0,.428.03.557.059v1.172c-.229-.047-.445-.076-.686-.076-.972,0-1.634.597-1.634,1.517v3.803h-1.272Zm7.336.123c-1.869,0-3.012-1.248-3.012-3.299v-.012c0-2.044,1.149-3.298,3.012-3.298c1.857,0,3.006,1.248,3.006,3.298v.012c0,2.051-1.143,3.299-3.006,3.299Zm0-1.061c1.09,0,1.711-.832,1.711-2.238v-.012c0-1.412-.621-2.238-1.711-2.238-1.096,0-1.711.826-1.711,2.238v.012c0,1.412.615,2.238,1.711,2.238Zm4.523.938v-6.363h1.272v.978h.094c.281-.697.902-1.101,1.734-1.101.867,0,1.482.451,1.764,1.136h.099c.323-.685,1.055-1.136,1.94-1.136c1.283,0,2.033.773,2.033,2.097v4.389h-1.266v-4.084c0-.879-.398-1.312-1.23-1.312-.809,0-1.342.603-1.342,1.371v4.025h-1.266v-4.213c0-.726-.474-1.183-1.224-1.183-.768,0-1.336.656-1.336,1.488v3.908h-1.272Zm11.373-7.5c-.439,0-.796-.357-.796-.791c0-.439.357-.797.796-.797.434,0,.797.358.797.797c0,.434-.363.791-.797.791Zm-.638,7.5v-6.363h1.265v6.363h-1.265Zm5.431.123c-1.535,0-2.507-.721-2.63-1.787v-.006h1.271l.006.006c.158.48.621.803,1.377.803.785,0,1.33-.358,1.33-.879v-.012c0-.398-.299-.668-1.037-.838l-1.014-.234c-1.201-.276-1.758-.821-1.758-1.752v-.006c0-1.107,1.032-1.904,2.473-1.904c1.453,0,2.385.726,2.496,1.763v.006h-1.213v-.012c-.123-.445-.574-.779-1.289-.779-.697,0-1.201.346-1.201.856v.011c0,.399.293.645,1.008.815l1.008.228c1.224.287,1.81.809,1.81,1.729v.012c0,1.177-1.125,1.98-2.637,1.98Zm6.827,0c-1.864,0-2.989-1.271-2.989-3.287v-.006c0-1.986,1.149-3.316,2.924-3.316c1.776,0,2.865,1.283,2.865,3.193v.445h-4.511c.023,1.219.691,1.928,1.74,1.928.814,0,1.301-.404,1.453-.732l.023-.047l1.225-.006-.012.053c-.211.838-1.089,1.775-2.718,1.775Zm-.059-5.566c-.867,0-1.523.591-1.635,1.687h3.235c-.1-1.137-.739-1.687-1.6-1.687Zm6.691,5.548c-1.599,0-2.636-1.283-2.636-3.281v-.012c0-2.015,1.019-3.287,2.636-3.287.873,0,1.618.434,1.957,1.12h.1v-3.504h1.266v8.859h-1.266v-1.002h-.1c-.369.697-1.066,1.107-1.957,1.107Zm.364-1.084c1.06,0,1.711-.837,1.711-2.197v-.012c0-1.359-.657-2.197-1.711-2.197-1.067,0-1.705.832-1.705,2.197v.012c0,1.365.638,2.197,1.705,2.197Zm8.133,3.1v-8.484h1.271v1.002h.094c.369-.698,1.066-1.114,1.957-1.114c1.605,0,2.637,1.284,2.637,3.287v.012c0,2.016-1.02,3.281-2.637,3.281-.873,0-1.617-.427-1.957-1.113h-.094v3.129h-1.271Zm2.964-3.1c1.061,0,1.7-.832,1.7-2.197v-.012c0-1.371-.639-2.197-1.7-2.197-1.06,0-1.716.838-1.716,2.197v.012c0,1.36.656,2.197,1.716,2.197Zm6.27,1.084c-1.213,0-2.109-.738-2.109-1.892v-.012c0-1.137.855-1.799,2.373-1.892l1.722-.1v-.563c0-.697-.439-1.084-1.301-1.084-.703,0-1.166.258-1.318.709l-.006.024h-1.224l.005-.041c.153-1.043,1.155-1.74,2.602-1.74c1.6,0,2.502.797,2.502,2.132v4.354h-1.26v-.902h-.099c-.375.644-1.043,1.007-1.887,1.007Zm-.844-1.945c0,.586.498.932,1.184.932.949,0,1.646-.621,1.646-1.442v-.545l-1.552.1c-.879.053-1.278.369-1.278.943v.012Zm8.197,1.963c-1.535,0-2.507-.721-2.63-1.787v-.006h1.271l.006.006c.158.48.621.803,1.377.803.785,0,1.33-.358,1.33-.879v-.012c0-.398-.299-.668-1.037-.838l-1.014-.234c-1.201-.276-1.758-.821-1.758-1.752v-.006c0-1.107,1.032-1.904,2.473-1.904c1.453,0,2.385.726,2.496,1.763v.006h-1.213v-.012c-.123-.445-.574-.779-1.289-.779-.697,0-1.201.346-1.201.856v.011c0,.399.293.645,1.008.815l1.008.228c1.224.287,1.81.809,1.81,1.729v.012c0,1.177-1.125,1.98-2.637,1.98Zm6.352,0c-1.535,0-2.508-.721-2.631-1.787v-.006h1.272l.005.006c.159.48.622.803,1.377.803.786,0,1.33-.358,1.33-.879v-.012c0-.398-.298-.668-1.037-.838l-1.013-.234c-1.201-.276-1.758-.821-1.758-1.752v-.006c0-1.107,1.031-1.904,2.473-1.904c1.453,0,2.384.726,2.496,1.763v.006h-1.213v-.012c-.123-.445-.574-.779-1.289-.779-.698,0-1.201.346-1.201.856v.011c0,.399.292.645,1.007.815l1.008.228c1.225.287,1.811.809,1.811,1.729v.012c0,1.177-1.125,1.98-2.637,1.98Zm5.203-.123l-1.758-6.363h1.278l1.142,4.91h.094l1.312-4.91h1.208l1.312,4.91h.1l1.136-4.91h1.26L448.494,341h-1.306l-1.319-4.746h-.099L444.457,341h-1.295Zm10.834.123c-1.869,0-3.012-1.248-3.012-3.299v-.012c0-2.044,1.149-3.298,3.012-3.298c1.858,0,3.006,1.248,3.006,3.298v.012c0,2.051-1.143,3.299-3.006,3.299Zm0-1.061c1.09,0,1.711-.832,1.711-2.238v-.012c0-1.412-.621-2.238-1.711-2.238-1.096,0-1.711.826-1.711,2.238v.012c0,1.412.615,2.238,1.711,2.238Zm4.524.938v-6.363h1.271v.961h.094c.228-.674.82-1.073,1.67-1.073.205,0,.427.03.556.059v1.172c-.228-.047-.445-.076-.685-.076-.973,0-1.635.597-1.635,1.517v3.803h-1.271Zm6.96.105c-1.599,0-2.636-1.283-2.636-3.281v-.012c0-2.015,1.019-3.287,2.636-3.287.874,0,1.618.434,1.958,1.12h.099v-3.504h1.266v8.859h-1.266v-1.002h-.099c-.37.697-1.067,1.107-1.958,1.107Zm.364-1.084c1.06,0,1.711-.837,1.711-2.197v-.012c0-1.359-.657-2.197-1.711-2.197-1.067,0-1.705.832-1.705,2.197v.012c0,1.365.638,2.197,1.705,2.197Z" fill="#ff4136"/></g></g></g></g></g><g id="eEMrinSzULl26_to" transform="translate(260,330.5)"><g id="eEMrinSzULl26" transform="translate(-260,-273.5)" opacity="0"><g><rect width="440" height="1" rx="0" ry="0" transform="translate(40 251)" fill="#bbb"/></g><g><g><g><g><path d="M58.5719,266.022l-.0129,6.187-.0128,6.188-.5906-1.436v-.004l-.7661,13.774c.7532,1.827,1.1555,2.803,1.1598,2.807s.4323.026.9502.048c1.5664.066,3.5095.21,4.9861.368.3424.037.6334.055.6548.041.0214-.015.0257-6.313.0214-14l-.0129-13.973h-6.377v0Z" fill="url(#eEMrinSzULl33-fill)"/><path d="M47.0366,266.004v13.988c0,7.694.0086,13.995.0214,14.006.0129.011.565-.036,1.2326-.099.6677-.063,1.5879-.144,2.0458-.177.702-.051,2.8077-.166,3.0474-.169.0727,0,.077-.313.0856-5.926l.0128-5.926.5093,1.237c.077.192.1027.251.1798.439l.7661-13.771c-.1627-.394-.0771-.188-.2611-.637-.6249-1.522-1.1556-2.807-1.177-2.866L53.4565,266h-6.4199v.004Z" fill="url(#eEMrinSzULl34-fill)"/><path d="M47.0366,266.004l6.4413,15.708v-.008l.5094,1.238c2.829,6.891,4.3484,10.588,4.357,10.596.0042.004.4322.026.9501.048c1.5665.066,3.5096.21,4.9861.368.3382.037.6335.055.6506.041l-6.3857-15.602v.004l-.5906-1.436c-.5778-1.404-.963-2.343-3.287-7.992-.6249-1.522-1.1556-2.807-1.177-2.866L53.448,266h-3.2057l-3.2057.004Z" fill="#e30a17"/></g></g><path d="M81.0664,285v-7.424h1.4834v1.128h.1094c.3623-.793,1.0732-1.271,2.1533-1.271c1.6611,0,2.5771.991,2.5771,2.761v4.806h-1.4765v-4.457c0-1.231-.5127-1.839-1.5996-1.839s-1.7637.745-1.7637,1.942v4.354h-1.4834Zm11.5117.144c-2.1738,0-3.4863-1.484-3.4863-3.835v-.007c0-2.318,1.3398-3.869,3.4111-3.869s3.3428,1.497,3.3428,3.725v.52h-5.2637c.0274,1.422.8067,2.249,2.0303,2.249.9502,0,1.5176-.472,1.6953-.855l.0274-.054l1.4287-.007-.0137.061c-.2461.978-1.2715,2.072-3.1719,2.072Zm-.0683-6.495c-1.0118,0-1.7774.691-1.9073,1.969h3.7735c-.1162-1.326-.8614-1.969-1.8662-1.969Zm7.9022,6.399c-1.6337,0-2.3036-.574-2.3036-2.003v-4.3h-1.1621v-1.169h1.1621v-1.873h1.5107v1.873h1.5929v1.169h-1.5929v3.944c0,.8.3008,1.128,1.0319,1.128.226,0,.356-.006.561-.027v1.183c-.239.041-.513.075-.8.075Zm3.083-.048v-6.255h-1.224v-1.169h1.224v-.779c0-1.477.745-2.201,2.297-2.201.328,0,.615.02.875.068v1.087c-.137-.021-.335-.034-.567-.034-.821,0-1.142.396-1.142,1.148v.711h1.647v1.169h-1.633v6.255h-1.477Zm4.847,0v-10.336h1.483v10.336h-1.483Zm4.464-8.75c-.513,0-.93-.417-.93-.923c0-.513.417-.93.93-.93.506,0,.929.417.929.93c0,.506-.423.923-.929.923Zm-.745,8.75v-7.424h1.476v7.424h-1.476Zm3.062,0l2.468-3.698-2.488-3.726h1.715l1.6,2.653h.116l1.586-2.653h1.641l-2.454,3.664l2.481,3.76h-1.688l-1.627-2.68h-.11L116.736,285h-1.613Zm9.345.103c-.568,0-1.005-.438-1.005-.992c0-.56.437-.998,1.005-.998.567,0,.998.438.998.998c0,.554-.431.992-.998.992Zm6.125.041c-2.167,0-3.493-1.477-3.493-3.876v-.014c0-2.352,1.319-3.821,3.486-3.821c1.866,0,2.98,1.052,3.185,2.495v.034l-1.421.007-.007-.021c-.164-.731-.766-1.278-1.75-1.278-1.238,0-1.983.984-1.983,2.584v.014c0,1.64.759,2.638,1.983,2.638.929,0,1.504-.424,1.743-1.223l.014-.035h1.421l-.013.062c-.267,1.442-1.326,2.434-3.165,2.434Zm8.005,0c-2.181,0-3.514-1.456-3.514-3.849v-.014c0-2.385,1.34-3.848,3.514-3.848c2.167,0,3.506,1.456,3.506,3.848v.014c0,2.393-1.333,3.849-3.506,3.849Zm0-1.238c1.271,0,1.996-.97,1.996-2.611v-.014c0-1.647-.725-2.611-1.996-2.611-1.279,0-1.996.964-1.996,2.611v.014c0,1.647.717,2.611,1.996,2.611ZM143.875,285v-7.424h1.483v1.142h.11c.328-.814,1.053-1.285,2.023-1.285c1.012,0,1.73.526,2.058,1.326h.116c.376-.8,1.231-1.326,2.263-1.326c1.497,0,2.372.902,2.372,2.447v5.12h-1.477v-4.765c0-1.025-.465-1.531-1.435-1.531-.944,0-1.566.704-1.566,1.6v4.696h-1.476v-4.915c0-.848-.554-1.381-1.429-1.381-.896,0-1.559.766-1.559,1.736v4.56h-1.483Z"/></g><g id="eEMrinSzULl37"><rect width="142" height="32" rx="16" ry="16" transform="translate(338 264)" fill="#ff4136" fill-opacity="0.1"/><g><g><path d="M356,273.333c-3.682,0-6.667,2.985-6.667,6.667s2.985,6.667,6.667,6.667s6.667-2.985,6.667-6.667-2.985-6.667-6.667-6.667Zm-.625,3.959c0-.344.281-.625.625-.625s.625.28.625.625v3.333c0,.345-.28.625-.625.625s-.625-.278-.625-.625v-3.333ZM356,283.75c-.452,0-.819-.367-.819-.819s.367-.818.819-.818c.453,0,.819.366.819.818-.001.452-.366.819-.819.819Z" fill="#ff4136"/></g><path d="M371.061,284v-8.455h3.334c1.734,0,2.812,1.008,2.812,2.578v.012c0,1.136-.609,2.062-1.641,2.408L377.465,284h-1.518l-1.722-3.252h-1.852v3.252h-1.312Zm1.312-4.318h1.893c1.007,0,1.593-.551,1.593-1.512v-.012c0-.937-.621-1.512-1.634-1.512h-1.852v3.036Zm9.041,4.441c-1.863,0-2.988-1.271-2.988-3.287v-.006c0-1.986,1.148-3.316,2.924-3.316c1.775,0,2.865,1.283,2.865,3.193v.445h-4.512c.024,1.219.692,1.928,1.74,1.928.815,0,1.301-.404,1.453-.732l.024-.047l1.225-.006-.012.053c-.211.838-1.09,1.775-2.719,1.775Zm-.059-5.566c-.867,0-1.523.591-1.634,1.687h3.234c-.1-1.137-.738-1.687-1.6-1.687Zm4.372,7.564v-8.484h1.271v1.002h.094c.369-.698,1.066-1.114,1.957-1.114c1.605,0,2.637,1.284,2.637,3.287v.012c0,2.016-1.02,3.281-2.637,3.281-.873,0-1.617-.427-1.957-1.113h-.094v3.129h-1.271Zm2.964-3.1c1.061,0,1.7-.832,1.7-2.197v-.012c0-1.371-.639-2.197-1.7-2.197-1.06,0-1.716.838-1.716,2.197v.012c0,1.36.656,2.197,1.716,2.197Zm7.196,1.102c-1.864,0-2.989-1.271-2.989-3.287v-.006c0-1.986,1.149-3.316,2.924-3.316c1.776,0,2.866,1.283,2.866,3.193v.445h-4.512c.023,1.219.691,1.928,1.74,1.928.814,0,1.301-.404,1.453-.732l.024-.047l1.224-.006-.012.053c-.21.838-1.089,1.775-2.718,1.775Zm-.059-5.566c-.867,0-1.523.591-1.635,1.687h3.235c-.1-1.137-.739-1.687-1.6-1.687Zm6.117,5.548c-1.213,0-2.109-.738-2.109-1.892v-.012c0-1.137.855-1.799,2.373-1.892l1.723-.1v-.563c0-.697-.44-1.084-1.301-1.084-.703,0-1.166.258-1.319.709l-.005.024h-1.225l.006-.041c.152-1.043,1.154-1.74,2.601-1.74c1.6,0,2.502.797,2.502,2.132v4.354h-1.259v-.902h-.1c-.375.644-1.043,1.007-1.887,1.007Zm-.843-1.945c0,.586.498.932,1.183.932.949,0,1.647-.621,1.647-1.442v-.545l-1.553.1c-.879.053-1.277.369-1.277.943v.012Zm8.285,1.881c-1.401,0-1.975-.492-1.975-1.717v-3.685h-.996v-1.002h.996v-1.606h1.295v1.606h1.365v1.002h-1.365v3.381c0,.685.258.966.885.966.193,0,.304-.006.48-.023v1.014c-.205.035-.439.064-.685.064Zm5.449,2.08v-8.484h1.271v1.002h.094c.369-.698,1.067-1.114,1.957-1.114c1.606,0,2.637,1.284,2.637,3.287v.012c0,2.016-1.02,3.281-2.637,3.281-.873,0-1.617-.427-1.957-1.113h-.094v3.129h-1.271Zm2.965-3.1c1.06,0,1.699-.832,1.699-2.197v-.012c0-1.371-.639-2.197-1.699-2.197-1.061,0-1.717.838-1.717,2.197v.012c0,1.36.656,2.197,1.717,2.197Zm6.269,1.084c-1.213,0-2.109-.738-2.109-1.892v-.012c0-1.137.855-1.799,2.373-1.892l1.723-.1v-.563c0-.697-.44-1.084-1.301-1.084-.703,0-1.166.258-1.318.709l-.006.024h-1.225l.006-.041c.152-1.043,1.154-1.74,2.601-1.74c1.6,0,2.502.797,2.502,2.132v4.354h-1.259v-.902h-.1c-.375.644-1.043,1.007-1.887,1.007Zm-.843-1.945c0,.586.498.932,1.183.932.949,0,1.647-.621,1.647-1.442v-.545l-1.553.1c-.879.053-1.277.369-1.277.943v.012Zm8.197,1.963c-1.535,0-2.508-.721-2.631-1.787v-.006h1.271l.006.006c.159.48.621.803,1.377.803.785,0,1.33-.358,1.33-.879v-.012c0-.398-.298-.668-1.037-.838l-1.013-.234c-1.202-.276-1.758-.821-1.758-1.752v-.006c0-1.107,1.031-1.904,2.472-1.904c1.454,0,2.385.726,2.497,1.763v.006h-1.213v-.012c-.123-.445-.575-.779-1.289-.779-.698,0-1.202.346-1.202.856v.011c0,.399.293.645,1.008.815l1.008.228c1.225.287,1.811.809,1.811,1.729v.012c0,1.177-1.125,1.98-2.637,1.98Zm6.351,0c-1.535,0-2.507-.721-2.63-1.787v-.006h1.271l.006.006c.158.48.621.803,1.377.803.785,0,1.33-.358,1.33-.879v-.012c0-.398-.299-.668-1.037-.838l-1.014-.234c-1.201-.276-1.758-.821-1.758-1.752v-.006c0-1.107,1.032-1.904,2.473-1.904c1.453,0,2.385.726,2.496,1.763v.006h-1.213v-.012c-.123-.445-.574-.779-1.289-.779-.697,0-1.201.346-1.201.856v.011c0,.399.293.645,1.008.815l1.008.228c1.224.287,1.81.809,1.81,1.729v.012c0,1.177-1.125,1.98-2.637,1.98Zm5.204-.123l-1.758-6.363h1.277l1.143,4.91h.093l1.313-4.91h1.207l1.312,4.91h.1l1.137-4.91h1.259L448.311,284h-1.307l-1.318-4.746h-.1L444.273,284h-1.294Zm10.833.123c-1.869,0-3.011-1.248-3.011-3.299v-.012c0-2.044,1.148-3.298,3.011-3.298c1.858,0,3.006,1.248,3.006,3.298v.012c0,2.051-1.142,3.299-3.006,3.299Zm0-1.061c1.09,0,1.711-.832,1.711-2.238v-.012c0-1.412-.621-2.238-1.711-2.238-1.095,0-1.71.826-1.71,2.238v.012c0,1.412.615,2.238,1.71,2.238Zm4.524.938v-6.363h1.271v.961h.094c.229-.674.82-1.073,1.67-1.073.205,0,.428.03.557.059v1.172c-.229-.047-.446-.076-.686-.076-.972,0-1.635.597-1.635,1.517v3.803h-1.271Zm6.961.105c-1.6,0-2.637-1.283-2.637-3.281v-.012c0-2.015,1.02-3.287,2.637-3.287.873,0,1.617.434,1.957,1.12h.1v-3.504h1.265v8.859h-1.265v-1.002h-.1c-.369.697-1.066,1.107-1.957,1.107Zm.363-1.084c1.061,0,1.711-.837,1.711-2.197v-.012c0-1.359-.656-2.197-1.711-2.197-1.066,0-1.705.832-1.705,2.197v.012c0,1.365.639,2.197,1.705,2.197Z" fill="#ff4136"/></g></g></g></g></g><g id="eEMrinSzULl43_to" transform="translate(260,273.5)"><g id="eEMrinSzULl43" transform="translate(-260,-216.5)" opacity="0"><g><rect width="440" height="1" rx="0" ry="0" transform="translate(40 194)" fill="#bbb"/></g><g><g><g><g><path d="M70,226c0-7-3.5-12-8-12-3.5,0-6,4-6,4-2,3-2,8.5,1,2.5c0,0,2.5-4,5-4c3.5,0,5.3443,6,5.3443,9.5c0,1-.3443,3-2.3443,3v3c2,0,5-1.5,5-6Z" fill="url(#eEMrinSzULl50-fill)"/><path d="M50,214v3c-3.2.4-5,5.5-5,9c0,1,.5,3,2,3c2.5,0,5.3747-5.52,8-9.557c1.3937-2.144,2.7809-.303,1.7231,1.557-2.5064,4.408-5.0161,11-9.7231,11-2,0-5-1.5-5-6c0-9,5.5-12,8-12Z" fill="url(#eEMrinSzULl51-fill)"/><path d="M65,229c-3.5,0-7.5-15-15-15v3c6,0,8.5,15,15,15v-3Z" fill="#0768e1"/></g></g><path d="M81.0664,228v-7.424h1.4834v1.142h.1094c.3281-.814,1.0527-1.285,2.0234-1.285c1.0117,0,1.7295.526,2.0576,1.326h.1162c.376-.8,1.2305-1.326,2.2627-1.326c1.4971,0,2.3721.902,2.3721,2.447v5.12h-1.4766v-4.765c0-1.025-.4648-1.531-1.4355-1.531-.9434,0-1.5654.704-1.5654,1.6v4.696h-1.4766v-4.915c0-.848-.5537-1.381-1.4287-1.381-.8955,0-1.5586.766-1.5586,1.736v4.56h-1.4834Zm15.6133.144c-2.1738,0-3.4863-1.484-3.4863-3.835v-.007c0-2.318,1.3398-3.869,3.4111-3.869s3.3428,1.497,3.3428,3.725v.52h-5.2637c.0273,1.422.8066,2.249,2.0303,2.249.9502,0,1.5175-.472,1.6953-.855l.0273-.054l1.4287-.007-.0136.061c-.2461.978-1.2715,2.072-3.1719,2.072Zm-.0684-6.495c-1.0117,0-1.7773.691-1.9072,1.969h3.7734c-.1162-1.326-.8613-1.969-1.8662-1.969Zm7.9027,6.399c-1.634,0-2.304-.574-2.304-2.003v-4.3h-1.162v-1.169h1.162v-1.873h1.511v1.873h1.592v1.169h-1.592v3.944c0,.8.3,1.128,1.032,1.128.226,0,.355-.006.56-.027v1.183c-.239.041-.512.075-.799.075Zm4.566.075c-1.415,0-2.461-.861-2.461-2.208v-.014c0-1.326.998-2.098,2.769-2.208l2.009-.116v-.656c0-.814-.512-1.265-1.517-1.265-.82,0-1.36.301-1.538.827l-.007.028h-1.429l.007-.048c.178-1.217,1.347-2.03,3.035-2.03c1.866,0,2.919.929,2.919,2.488v5.079h-1.47v-1.053h-.116c-.437.752-1.217,1.176-2.201,1.176Zm-.984-2.269c0,.683.581,1.086,1.381,1.086c1.107,0,1.92-.724,1.92-1.681v-.636l-1.811.116c-1.025.062-1.49.431-1.49,1.101v.014Zm8.005,2.249c-.568,0-1.005-.438-1.005-.992c0-.56.437-.998,1.005-.998.567,0,.998.438.998.998c0,.554-.431.992-.998.992Zm6.125.041c-2.167,0-3.494-1.477-3.494-3.876v-.014c0-2.352,1.32-3.821,3.487-3.821c1.866,0,2.98,1.052,3.185,2.495v.034l-1.422.007-.006-.021c-.164-.731-.766-1.278-1.75-1.278-1.238,0-1.983.984-1.983,2.584v.014c0,1.64.759,2.638,1.983,2.638.929,0,1.503-.424,1.743-1.223l.013-.035h1.422l-.013.062c-.267,1.442-1.327,2.434-3.165,2.434Zm8.004,0c-2.18,0-3.513-1.456-3.513-3.849v-.014c0-2.385,1.34-3.848,3.513-3.848c2.167,0,3.507,1.456,3.507,3.848v.014c0,2.393-1.333,3.849-3.507,3.849Zm0-1.238c1.272,0,1.997-.97,1.997-2.611v-.014c0-1.647-.725-2.611-1.997-2.611-1.278,0-1.996.964-1.996,2.611v.014c0,1.647.718,2.611,1.996,2.611ZM135.508,228v-7.424h1.483v1.142h.11c.328-.814,1.052-1.285,2.023-1.285c1.012,0,1.73.526,2.058,1.326h.116c.376-.8,1.23-1.326,2.263-1.326c1.497,0,2.372.902,2.372,2.447v5.12h-1.477v-4.765c0-1.025-.465-1.531-1.435-1.531-.944,0-1.566.704-1.566,1.6v4.696h-1.476v-4.915c0-.848-.554-1.381-1.429-1.381-.896,0-1.559.766-1.559,1.736v4.56h-1.483Z"/></g><g id="eEMrinSzULl54"><rect width="133" height="32" rx="16" ry="16" transform="translate(347 207)" fill="#ff4136" fill-opacity="0.1"/><g><g><path d="M365,216.333c-3.682,0-6.667,2.985-6.667,6.667s2.985,6.667,6.667,6.667s6.667-2.985,6.667-6.667-2.985-6.667-6.667-6.667Zm-.625,3.959c0-.344.281-.625.625-.625s.625.28.625.625v3.333c0,.345-.28.625-.625.625s-.625-.278-.625-.625v-3.333ZM365,226.75c-.452,0-.819-.367-.819-.819s.367-.818.819-.818c.453,0,.819.366.819.818-.001.452-.366.819-.819.819Z" fill="#ff4136"/></g><path d="M381.801,227l-2.28-8.455h1.366l1.552,6.574h.082l1.764-6.574h1.219l1.775,6.574h.082l1.547-6.574h1.365L387.988,227h-1.236l-1.816-6.322h-.082L383.043,227h-1.242Zm11.953.123c-1.863,0-2.988-1.271-2.988-3.287v-.006c0-1.986,1.148-3.316,2.923-3.316c1.776,0,2.866,1.283,2.866,3.193v.445h-4.512c.023,1.219.691,1.928,1.74,1.928.815,0,1.301-.404,1.453-.732l.024-.047l1.224-.006-.011.053c-.211.838-1.09,1.775-2.719,1.775Zm-.059-5.566c-.867,0-1.523.591-1.634,1.687h3.234c-.1-1.137-.738-1.687-1.6-1.687Zm6.117,5.548c-1.212,0-2.109-.738-2.109-1.892v-.012c0-1.137.856-1.799,2.373-1.892l1.723-.1v-.563c0-.697-.44-1.084-1.301-1.084-.703,0-1.166.258-1.318.709l-.006.024h-1.225l.006-.041c.152-1.043,1.154-1.74,2.602-1.74c1.599,0,2.502.797,2.502,2.132v4.354h-1.26v-.902h-.1c-.375.644-1.043,1.007-1.887,1.007Zm-.843-1.945c0,.586.498.932,1.183.932.95,0,1.647-.621,1.647-1.442v-.545l-1.553.1c-.879.053-1.277.369-1.277.943v.012ZM404.91,227v-8.859h1.272v5.179h.093l2.526-2.683h1.488l-2.654,2.683l2.83,3.68h-1.547l-2.191-2.859-.545.545v2.314h-1.272Zm9.996,2.121v-8.484h1.272v1.002h.093c.37-.698,1.067-1.114,1.958-1.114c1.605,0,2.636,1.284,2.636,3.287v.012c0,2.016-1.019,3.281-2.636,3.281-.874,0-1.618-.427-1.958-1.113h-.093v3.129h-1.272Zm2.965-3.1c1.061,0,1.699-.832,1.699-2.197v-.012c0-1.371-.638-2.197-1.699-2.197-1.06,0-1.717.838-1.717,2.197v.012c0,1.36.657,2.197,1.717,2.197Zm6.27,1.084c-1.213,0-2.11-.738-2.11-1.892v-.012c0-1.137.856-1.799,2.373-1.892l1.723-.1v-.563c0-.697-.439-1.084-1.301-1.084-.703,0-1.166.258-1.318.709l-.006.024h-1.225l.006-.041c.153-1.043,1.155-1.74,2.602-1.74c1.599,0,2.502.797,2.502,2.132v4.354h-1.26v-.902h-.1c-.375.644-1.043,1.007-1.886,1.007Zm-.844-1.945c0,.586.498.932,1.183.932.95,0,1.647-.621,1.647-1.442v-.545l-1.553.1c-.879.053-1.277.369-1.277.943v.012Zm8.197,1.963c-1.535,0-2.508-.721-2.631-1.787v-.006h1.272l.006.006c.158.48.621.803,1.377.803.785,0,1.33-.358,1.33-.879v-.012c0-.398-.299-.668-1.037-.838l-1.014-.234c-1.201-.276-1.758-.821-1.758-1.752v-.006c0-1.107,1.031-1.904,2.473-1.904c1.453,0,2.384.726,2.496,1.763v.006h-1.213v-.012c-.123-.445-.574-.779-1.289-.779-.697,0-1.201.346-1.201.856v.011c0,.399.293.645,1.007.815l1.008.228c1.225.287,1.811.809,1.811,1.729v.012c0,1.177-1.125,1.98-2.637,1.98Zm6.352,0c-1.535,0-2.508-.721-2.631-1.787v-.006h1.271l.006.006c.158.48.621.803,1.377.803.785,0,1.33-.358,1.33-.879v-.012c0-.398-.299-.668-1.037-.838l-1.014-.234c-1.201-.276-1.757-.821-1.757-1.752v-.006c0-1.107,1.031-1.904,2.472-1.904c1.453,0,2.385.726,2.496,1.763v.006h-1.213v-.012c-.123-.445-.574-.779-1.289-.779-.697,0-1.201.346-1.201.856v.011c0,.399.293.645,1.008.815l1.008.228c1.224.287,1.81.809,1.81,1.729v.012c0,1.177-1.125,1.98-2.636,1.98Zm5.203-.123l-1.758-6.363h1.277l1.143,4.91h.094l1.312-4.91h1.207l1.313,4.91h.099l1.137-4.91h1.26L448.381,227h-1.307l-1.318-4.746h-.1L444.344,227h-1.295Zm10.834.123c-1.869,0-3.012-1.248-3.012-3.299v-.012c0-2.044,1.149-3.298,3.012-3.298c1.857,0,3.006,1.248,3.006,3.298v.012c0,2.051-1.143,3.299-3.006,3.299Zm0-1.061c1.09,0,1.711-.832,1.711-2.238v-.012c0-1.412-.621-2.238-1.711-2.238-1.096,0-1.711.826-1.711,2.238v.012c0,1.412.615,2.238,1.711,2.238Zm4.523.938v-6.363h1.272v.961h.093c.229-.674.821-1.073,1.67-1.073.205,0,.428.03.557.059v1.172c-.228-.047-.445-.076-.686-.076-.972,0-1.634.597-1.634,1.517v3.803h-1.272Zm6.961.105c-1.599,0-2.637-1.283-2.637-3.281v-.012c0-2.015,1.02-3.287,2.637-3.287.873,0,1.617.434,1.957,1.12h.1v-3.504h1.265v8.859h-1.265v-1.002h-.1c-.369.697-1.066,1.107-1.957,1.107Zm.363-1.084c1.061,0,1.711-.837,1.711-2.197v-.012c0-1.359-.656-2.197-1.711-2.197-1.066,0-1.705.832-1.705,2.197v.012c0,1.365.639,2.197,1.705,2.197Z" fill="#ff4136"/></g></g></g></g></g><g id="eEMrinSzULl60_to" transform="translate(260,216.5)"><g id="eEMrinSzULl60" transform="translate(-260,-159.5)" opacity="0"><g><rect width="440" height="1" rx="0" ry="0" transform="translate(40 137)" fill="#bbb"/></g><g><g><g><g><path d="M68.5427,161.391c-.5879-1.418-1.7797-2.95-2.7151-3.433.7614,1.496,1.2018,2.997,1.3702,4.117c0,0,0,.008.0028.022-1.5302-3.823-4.1254-5.365-6.2447-8.722-.1076-.169-.2146-.339-.3194-.52-.0591-.102-.107-.195-.1486-.282-.0879-.17-.1557-.349-.2022-.535.0003-.008-.0026-.017-.0082-.024s-.0135-.011-.0222-.012c-.0083-.003-.0171-.003-.0254,0-.0022.001-.0043.002-.0062.004-.0034,0-.0067.004-.0101.005l.0056-.008c-3.4,1.996-4.5535,5.688-4.6593,7.536-1.3587.093-2.6578.594-3.7279,1.438-.1118-.094-.2288-.183-.3503-.265-.3083-1.082-.3214-2.227-.0377-3.315-1.3906.635-2.4719,1.636-3.2581,2.523h-.0062c-.5367-.681-.499-2.928-.4686-3.397-.0062-.03-.3999.205-.4506.24-.4736.339-.9163.719-1.3229,1.136-.4627.47-.8855.978-1.2638,1.519-.8705,1.236-1.4879,2.633-1.8164,4.11-.0062.029-.0118.06-.018.09-.0253.119-.1171.717-.1335.846v.03c-.1196.618-.1942,1.244-.223,1.872v.069c0,7.492,6.06,13.565,13.5348,13.565c6.6948,0,12.253-4.871,13.3417-11.27.0225-.173.0411-.348.0614-.523.2692-2.326-.0299-4.772-.8781-6.816ZM52.9421,172.009c.0631.03.1228.063.1875.093l.0091.005c-.0648-.031-.1307-.064-.196-.098h-.0006Zm14.2597-9.906v-.013.015-.002Z" fill="url(#eEMrinSzULl67-fill)"/><path d="M68.5425,161.391c-.588-1.418-1.7797-2.95-2.7152-3.433.7615,1.496,1.2019,2.997,1.3703,4.117v.027c1.2773,3.47.5812,6.999-.4213,9.155-1.551,3.336-5.3059,6.755-11.184,6.589-6.3456-.181-11.9398-4.906-12.9846-11.089-.1903-.976,0-1.471.0958-2.263-.1166.61-.1611.787-.2191,1.872v.069c0,7.492,6.06,13.565,13.5348,13.565c6.6948,0,12.253-4.871,13.3417-11.27.0225-.173.0411-.348.0613-.523.2676-2.326-.0315-4.772-.8797-6.816v0Z" fill="url(#eEMrinSzULl68-fill)"/><path d="M68.5425,161.391c-.588-1.418-1.7797-2.95-2.7152-3.433.7615,1.496,1.2019,2.997,1.3703,4.117v.027c1.2773,3.47.5812,6.999-.4213,9.155-1.551,3.336-5.3059,6.755-11.184,6.589-6.3456-.181-11.9398-4.906-12.9846-11.089-.1903-.976,0-1.471.0958-2.263-.1166.61-.1611.787-.2191,1.872v.069c0,7.492,6.06,13.565,13.5348,13.565c6.6948,0,12.253-4.871,13.3417-11.27.0225-.173.0411-.348.0613-.523.2676-2.326-.0315-4.772-.8797-6.816v0Z" fill="url(#eEMrinSzULl69-fill)"/><path d="M61.9649,162.985c.0299.021.0563.042.0845.063-.3397-.605-.7629-1.158-1.2571-1.644-4.2071-4.216-1.1027-9.143-.5795-9.393l.0056-.008c-3.4,1.996-4.5534,5.688-4.6593,7.536.1577-.011.3148-.025.4753-.025c2.5372,0,4.7472,1.399,5.9305,3.471Z" fill="url(#eEMrinSzULl70-fill)"/><path d="M56.043,163.827c-.0219.339-1.2114,1.502-1.6276,1.502-3.8489,0-4.4735,2.333-4.4735,2.333.169,1.965,1.5353,3.584,3.1883,4.44.0754.039.1515.074.2253.109.1323.056.2652.113.3976.163.5668.2,1.1605.314,1.7611.339c6.746.317,8.0538-8.084,3.1849-10.524c1.2464-.217,2.5406.286,3.2632.794-1.1827-2.072-3.3933-3.47-5.9305-3.47-.1605,0-.3177.013-.4754.024-1.3576.094-2.6555.596-3.7244,1.44.2067.176.4399.41.9304.894.9203.91,3.2756,1.846,3.2806,1.956v0Z" fill="url(#eEMrinSzULl71-fill)"/><path d="M56.043,163.827c-.0219.339-1.2114,1.502-1.6276,1.502-3.8489,0-4.4735,2.333-4.4735,2.333.169,1.965,1.5353,3.584,3.1883,4.44.0754.039.1515.074.2253.109.1323.056.2652.113.3976.163.5668.2,1.1605.314,1.7611.339c6.746.317,8.0538-8.084,3.1849-10.524c1.2464-.217,2.5406.286,3.2632.794-1.1827-2.072-3.3933-3.47-5.9305-3.47-.1605,0-.3177.013-.4754.024-1.3576.094-2.6555.596-3.7244,1.44.2067.176.4399.41.9304.894.9203.91,3.2756,1.846,3.2806,1.956v0Z" fill="url(#eEMrinSzULl72-fill)"/><path d="M51.2027,160.526c.1098.071.2.131.2816.186-.3083-1.082-.3214-2.227-.0377-3.316-1.3906.635-2.4719,1.637-3.2581,2.524.0636-.002,2.0269-.037,3.0142.606v0Z" fill="url(#eEMrinSzULl73-fill)"/><path d="M42.6083,166.757c1.0447,6.183,6.639,10.908,12.9891,11.089c5.8781.166,9.6307-3.253,11.184-6.589c1.0025-2.157,1.6986-5.685.4213-9.155v-.026c0,.003,0,.008.0028.023.4799,3.142-1.1146,6.186-3.6073,8.244-.0026.006-.005.012-.0073.018-4.8576,3.964-9.5057,2.391-10.4468,1.75-.0653-.032-.1312-.065-.1966-.099-2.8323-1.354-4.0021-3.942-3.7514-6.16-2.3908,0-3.2063-2.022-3.2063-2.022s2.1469-1.534,4.9764-.199c2.6206,1.236,5.0818.2,5.0818.199-.0051-.11-2.3604-1.049-3.279-1.956-.4905-.484-.7237-.718-.9304-.893-.1118-.095-.2288-.184-.3503-.266-.0806-.056-.169-.113-.2816-.185-.9873-.644-2.9506-.608-3.0154-.607h-.0062c-.5367-.681-.499-2.928-.4686-3.397-.0062-.029-.3998.205-.4505.24-.4736.339-.9164.719-1.323,1.136-.4627.47-.8854.978-1.2638,1.519-.8705,1.236-1.4878,2.633-1.8163,4.11-.0107.026-.4923,2.133-.2546,3.226v0Z" fill="url(#eEMrinSzULl74-fill)"/><path d="M60.7925,161.404c.4942.486.9174,1.039,1.2571,1.644.0704.053.138.109.2027.169c3.0684,2.831,1.4632,6.839,1.341,7.127c2.4927-2.058,4.0872-5.102,3.6073-8.245-1.5302-3.825-4.1254-5.367-6.2447-8.724-.1076-.169-.2146-.339-.3194-.52-.0591-.102-.107-.195-.1487-.282-.0878-.17-.1556-.349-.2022-.535.0004-.008-.0025-.017-.0081-.024s-.0136-.011-.0223-.012c-.0083-.003-.017-.003-.0253,0-.0023.001-.0043.002-.0062.004-.0034,0-.0068.004-.0101.005-.5238.25-3.6282,5.177.5789,9.393v0Z" fill="url(#eEMrinSzULl75-fill)"/><path d="M62.2512,163.214c-.0647-.06-.1324-.116-.2028-.169-.0276-.021-.0563-.042-.0845-.063-.7226-.508-2.0168-1.011-3.2631-.794c4.8682,2.44,3.5611,10.841-3.1849,10.523-.6007-.024-1.1943-.138-1.7612-.338-.1323-.05-.2652-.105-.3976-.163-.0766-.035-.1526-.07-.2253-.109l.009.005c.9412.644,5.5892,2.216,10.4468-1.749c0,0,.0029-.008.0074-.018.1205-.283,1.7256-4.291-1.3438-7.125Z" fill="url(#eEMrinSzULl76-fill)"/><path d="M49.9419,167.662c0,0,.6246-2.333,4.4735-2.333.4162,0,1.6057-1.164,1.6277-1.502.0219-.337-2.4612,1.036-5.0818-.2-2.8295-1.334-4.9764.2-4.9764.2s.8155,2.022,3.2063,2.022c-.2507,2.218.9191,4.803,3.7514,6.16.0631.03.1228.063.1876.093-1.653-.855-3.0176-2.475-3.1883-4.44Z" fill="url(#eEMrinSzULl77-fill)"/><path d="M68.5427,161.391c-.5879-1.418-1.7797-2.95-2.7151-3.433.7614,1.496,1.2018,2.997,1.3702,4.117c0,0,0,.008.0028.022-1.5302-3.823-4.1254-5.365-6.2447-8.722-.1076-.169-.2146-.339-.3194-.52-.0591-.102-.107-.195-.1486-.282-.0879-.17-.1557-.349-.2022-.535.0003-.008-.0026-.017-.0082-.024s-.0135-.011-.0222-.012c-.0083-.003-.0171-.003-.0254,0-.0022.001-.0043.002-.0062.004-.0034,0-.0067.004-.0101.005l.0056-.008c-3.4,1.996-4.5535,5.688-4.6593,7.536.1577-.011.3148-.025.4753-.025c2.5372,0,4.7472,1.399,5.9305,3.471-.7226-.508-2.0168-1.011-3.2632-.794c4.8683,2.439,3.5611,10.84-3.1849,10.523-.6006-.024-1.1942-.138-1.7611-.338-.1324-.05-.2653-.105-.3976-.164-.0766-.035-.1527-.07-.2253-.108l.009.005c-.0653-.031-.1312-.064-.1966-.098.0631.03.1228.063.1876.093-1.6564-.857-3.021-2.477-3.1917-4.442c0,0,.6246-2.333,4.4735-2.333.4162,0,1.6057-1.164,1.6277-1.502-.0051-.11-2.3604-1.049-3.279-1.956-.4905-.484-.7237-.718-.9304-.894-.1118-.094-.2288-.183-.3503-.265-.3084-1.082-.3214-2.227-.0377-3.315-1.3906.635-2.4719,1.636-3.2581,2.523h-.0062c-.5368-.681-.499-2.928-.4686-3.397-.0062-.03-.3999.205-.4506.24-.4736.339-.9163.719-1.3229,1.136-.4628.47-.8855.978-1.2639,1.519-.8704,1.236-1.4878,2.633-1.8163,4.11-.0062.029-.0118.06-.018.09-.0253.119-.1402.725-.156.855c0,.01,0-.01,0,0-.1055.626-.173,1.258-.2022,1.893v.069c0,7.492,6.06,13.565,13.5348,13.565c6.6948,0,12.253-4.871,13.3417-11.27.0225-.173.0411-.348.0614-.523.2692-2.326-.0299-4.772-.8781-6.816Zm-1.3426.697v.014-.014Z" fill="url(#eEMrinSzULl78-fill)"/></g></g><path d="M81.5928,171v-6.255h-1.2237v-1.169h1.2237v-.779c0-1.477.7451-2.201,2.2968-2.201.3282,0,.6153.02.875.068v1.087c-.1367-.021-.3349-.034-.5673-.034-.8203,0-1.1416.396-1.1416,1.148v.711h1.6474v1.169h-1.6338v6.255h-1.4765Zm5.5508-8.75c-.5127,0-.9297-.417-.9297-.923c0-.513.417-.93.9297-.93.5058,0,.9296.417.9296.93c0,.506-.4238.923-.9296.923ZM86.3984,171v-7.424h1.4766v7.424h-1.4766Zm3.6368,0v-7.424h1.4834v1.121h.1093c.2666-.786.9571-1.251,1.9483-1.251.2392,0,.499.034.6494.069v1.367c-.2666-.055-.5195-.089-.7998-.089-1.1348,0-1.9072.697-1.9072,1.77v4.437h-1.4834Zm8.5312.144c-2.1738,0-3.4863-1.484-3.4863-3.835v-.007c0-2.318,1.3398-3.869,3.4111-3.869c2.0708,0,3.3428,1.497,3.3428,3.725v.52h-5.2637c.0274,1.422.8067,2.249,2.0303,2.249.9502,0,1.5174-.472,1.6954-.855l.027-.054l1.429-.007-.014.061c-.246.978-1.271,2.072-3.1716,2.072Zm-.0684-6.495c-1.0117,0-1.7773.691-1.9072,1.969h3.7732c-.116-1.326-.8611-1.969-1.866-1.969ZM104.124,171v-6.255h-1.224v-1.169h1.224v-.779c0-1.477.745-2.201,2.297-2.201.328,0,.615.02.875.068v1.087c-.137-.021-.335-.034-.567-.034-.821,0-1.142.396-1.142,1.148v.711h1.647v1.169h-1.633v6.255h-1.477Zm7.636.144c-2.181,0-3.514-1.456-3.514-3.849v-.014c0-2.385,1.34-3.848,3.514-3.848c2.167,0,3.507,1.456,3.507,3.848v.014c0,2.393-1.333,3.849-3.507,3.849Zm0-1.238c1.271,0,1.996-.97,1.996-2.611v-.014c0-1.647-.725-2.611-1.996-2.611-1.279,0-1.996.964-1.996,2.611v.014c0,1.647.717,2.611,1.996,2.611ZM116.094,171l2.468-3.698-2.489-3.726h1.716l1.6,2.653h.116l1.586-2.653h1.64l-2.454,3.664l2.482,3.76h-1.689l-1.627-2.68h-.109L117.707,171h-1.613Zm9.344.103c-.567,0-1.004-.438-1.004-.992c0-.56.437-.998,1.004-.998.568,0,.999.438.999.998c0,.554-.431.992-.999.992Zm6.125.041c-2.167,0-3.493-1.477-3.493-3.876v-.014c0-2.352,1.32-3.821,3.487-3.821c1.866,0,2.98,1.052,3.185,2.495v.034l-1.422.007-.007-.021c-.164-.731-.765-1.278-1.75-1.278-1.237,0-1.982.984-1.982,2.584v.014c0,1.64.759,2.638,1.982,2.638.93,0,1.504-.424,1.744-1.223l.013-.035h1.422l-.013.062c-.267,1.442-1.327,2.434-3.166,2.434Zm8.005,0c-2.18,0-3.513-1.456-3.513-3.849v-.014c0-2.385,1.34-3.848,3.513-3.848c2.167,0,3.507,1.456,3.507,3.848v.014c0,2.393-1.333,3.849-3.507,3.849Zm0-1.238c1.272,0,1.996-.97,1.996-2.611v-.014c0-1.647-.724-2.611-1.996-2.611-1.278,0-1.996.964-1.996,2.611v.014c0,1.647.718,2.611,1.996,2.611ZM144.846,171v-7.424h1.483v1.142h.109c.329-.814,1.053-1.285,2.024-1.285c1.012,0,1.729.526,2.058,1.326h.116c.376-.8,1.23-1.326,2.262-1.326c1.498,0,2.373.902,2.373,2.447v5.12h-1.477v-4.765c0-1.025-.465-1.531-1.436-1.531-.943,0-1.565.704-1.565,1.6v4.696h-1.477v-4.915c0-.848-.553-1.381-1.428-1.381-.896,0-1.559.766-1.559,1.736v4.56h-1.483Z"/></g><g><rect width="36" height="32" rx="16" ry="16" transform="translate(444 150)" fill="#2ecc40" fill-opacity="0.1"/><g><g><path d="M462,172.667c3.682,0,6.667-2.985,6.667-6.667s-2.985-6.667-6.667-6.667-6.667,2.985-6.667,6.667s2.985,6.667,6.667,6.667Zm3.948-8.629c.217-.217.218-.568.002-.786s-.568-.219-.785-.003l-4.358,4.328-1.967-1.971c-.217-.218-.569-.218-.786-.001s-.217.568-.001.785l2.363,2.368c.217.217.569.217.786,0c.019-.018.036-.038.051-.059l4.695-4.661Z" clip-rule="evenodd" fill="#2ecc40" fill-rule="evenodd"/></g></g></g></g></g></g></g><g><g><path d="M492.274,31.392c.521.5208.521,1.3645,0,1.8853-.258.2604-.6.3895-.941.3895-.342,0-.683-.1302-.943-.3906L486,28.888l-4.39,4.3872c-.261.2625-.602.3916-.943.3916s-.682-.1291-.943-.3916c-.521-.5208-.521-1.3645,0-1.8853l4.391-4.3913-4.391-4.3892c-.521-.5208-.521-1.3645,0-1.8853s1.365-.5208,1.885,0L486,25.1175l4.391-4.3913c.521-.5208,1.364-.5208,1.885,0s.521,1.3645,0,1.8852l-4.391,4.3914l4.389,4.3892Z" fill-opacity="0.2"/></g></g><g mask="url(#eEMrinSzULl116)"><g><path d="M51.3706,102.439c-6.0293,0-9.9141-2.7593-10.2129-7.4351l-.0176-.2812h5.0098l.0352.1933c.3339,1.9688,2.4257,3.1992,5.3261,3.1992c2.9356,0,4.7813-1.2832,4.7813-3.2168v-.0175c0-1.7227-1.2481-2.584-4.3946-3.2344l-2.6718-.5274c-5.0098-1.0019-7.541-3.3925-7.541-7.207v-.0176c0-4.6406,4.0429-7.6992,9.6679-7.6992c5.8711,0,9.4746,2.9356,9.7207,7.3828l.0176.334h-5.0098l-.0175-.2109c-.2637-1.9864-2.0918-3.1992-4.711-3.1992-2.7246.0175-4.3593,1.2656-4.3593,3.0761v.0176c0,1.5996,1.3007,2.5313,4.2187,3.1113l2.6895.545c5.3085,1.0546,7.6992,3.2168,7.6992,7.207v.0176c0,4.8691-3.8321,7.9624-10.2305,7.9624Zm20.5313-.052c-4.1836,0-6.1524-1.617-6.1524-5.6604v-9.7032h-2.6191v-3.8672h2.6191v-4.6054h5.1856v4.6054h3.4453v3.8672h-3.4453v9.1407c0,1.7578.791,2.3554,2.3378,2.3554.4571,0,.7911-.0527,1.1075-.0879v3.7614c-.5801.088-1.4063.194-2.4785.194ZM77.2104,102v-18.8438h5.1329v3.2872h.1054c.5625-2.3204,2.0918-3.6739,4.2891-3.6739.5625,0,1.0898.0879,1.4766.1934v4.5176c-.4219-.1758-1.125-.2813-1.8633-.2813-2.5313,0-4.0078,1.5117-4.0078,4.2539v10.5469h-5.1329Zm21.129.387c-5.7305,0-9.334-3.6741-9.334-9.8089v-.0351c0-6.0645,3.6914-9.7735,9.3164-9.7735c5.6422,0,9.3512,3.6739,9.3512,9.7735v.0351c0,6.1524-3.638,9.8089-9.3336,9.8089Zm.0175-4.0257c2.4961,0,4.0961-2.1093,4.0961-5.7832v-.0351c0-3.6387-1.635-5.7481-4.1312-5.7481-2.4785,0-4.0957,2.1094-4.0957,5.7481v.0351c0,3.6914,1.5996,5.7832,4.1308,5.7832ZM110.328,102v-18.8438h5.132v3.0938h.106c.967-2.1621,2.9-3.4805,5.748-3.4805c4.148,0,6.504,2.6543,6.504,7.0664v12.1641h-5.133v-11.1094c0-2.4609-1.16-3.8672-3.463-3.8672s-3.762,1.6875-3.762,4.1485v10.8281h-5.132Zm29.548,6.539c-5.185,0-8.455-2.338-8.947-5.361l-.017-.158h4.992l.053.123c.404.931,1.775,1.74,3.919,1.74c2.655,0,4.061-1.371,4.061-3.481v-2.8825h-.105c-.985,1.9685-3.094,3.2165-5.819,3.2165-4.711,0-7.629-3.5153-7.629-9.3688v-.0176c0-6.0117,2.953-9.5801,7.717-9.5801c2.654,0,4.711,1.4063,5.731,3.6035h.105v-3.2168h5.133v18.3168c0,4.201-3.533,7.066-9.194,7.066Zm-.087-10.5644c2.513,0,4.166-2.1094,4.166-5.4844v-.0175c0-3.3575-1.67-5.4493-4.166-5.4493-2.549,0-4.184,2.0743-4.184,5.4493v.0175c0,3.3926,1.617,5.4844,4.184,5.4844Z" fill="#2ecc40"/><g clip-path="url(#eEMrinSzULl114)"><g><g><path d="M176.998,106.25c9.526,0,17.25-7.7231,17.25-17.25s-7.724-17.25-17.25-17.25c-9.527,0-17.25,7.7231-17.25,17.25s7.723,17.25,17.25,17.25Z" fill="#ffce52"/><path d="M176.997,74.0001c9.113,0,16.5,6.3803,16.5,14.25h.732c-.207-4.4309-2.113-8.6119-5.322-11.6745s-7.474-4.7714-11.91-4.7714c-4.435,0-8.701,1.7088-11.91,4.7714-3.208,3.0626-5.114,7.2436-5.321,11.6745h.731c0-7.8697,7.388-14.25,16.5-14.25Z" fill="#ffe369"/><path d="M193.498,88.25c0,7.8698-7.388,14.25-16.5,14.25-9.113,0-16.5-6.3802-16.5-14.25h-.732c-.01.249-.018.4987-.018.75c0,4.575,1.817,8.9626,5.052,12.198c3.235,3.235,7.623,5.052,12.198,5.052s8.962-1.817,12.197-5.052c3.235-3.2354,5.053-7.623,5.053-12.198c0-.2513-.009-.501-.019-.75h-.731Z" fill="#ffb32b"/><path d="M187.357,78.3586c.241-.2417.164-.7101-.172-1.0462s-.805-.4127-1.046-.171c-.242.2417-.165.7102.171,1.0463.337.3361.805.4127,1.047.1709Z" fill="#f6fafd"/><path d="M182.361,74.6786c.121-.121.083-.3554-.085-.5234-.169-.1681-.403-.2062-.524-.0852s-.082.3553.086.5234c.168.168.402.2062.523.0852Z" fill="#f6fafd"/><path d="M185.716,77.4678c.483-.4834.329-1.4205-.344-2.093s-1.61-.8259-2.093-.3424c-.484.4834-.33,1.4205.343,2.0931.673.6725,1.611.8258,2.094.3423Z" fill="#f6fafd"/><path d="M184.497,100.25c0-2.07-3.352-3.75-7.5-3.75-4.147,0-7.5,1.68-7.5,3.75l-.075.098c-1.125-.7283-2.05-1.7256-2.692-2.9017s-.979-2.494-.983-3.8338c-.026-.3993.107-.7927.37-1.0947.263-.3019.634-.488,1.033-.5178c1.41.81,4.792.75,9.847.75s8.438.06,9.84-.75c.401.0281.774.2134,1.038.5155s.398.6965.372,1.097c-.003,1.3398-.341,2.6577-.983,3.8338-.641,1.1761-1.567,2.1734-2.692,2.9017l-.075-.098Z" fill="#273941"/><path d="M184.497,100.25l.075.098c-2.252,1.459-4.891,2.209-7.575,2.152-2.683.057-5.322-.693-7.575-2.152l.075-.098c0-2.07,3.353-3.75,7.5-3.75c4.148,0,7.5,1.68,7.5,3.75Z" fill="#ae2d4c"/><path d="M171.373,77.7497c.464-.0049.923.0866,1.35.2687s.811.451,1.128.7895c.318.3385.561.7392.715,1.1768.155.4375.216.9024.182,1.365c0,5.4-5.625,8.4-6.75,8.4-.54,0-6.285-2.775-6.728-7.7925-.015-.2025-.022-.405-.022-.6075-.061-.8143.178-1.6227.673-2.2722.495-.6496,1.21-1.0953,2.012-1.2528.226-.0513.458-.0764.69-.075c1.687,0,2.812,1.2,3.375,3c.562-1.8,1.687-3,3.375-3Z" fill="#cf4054"/><path d="M192.748,81.3497c0,.2-.008.4025-.023.6075-.397,5.0175-5.647,7.7925-6.727,7.7925-.563,0-6.75-3-6.75-8.4-.035-.4626.027-.9275.181-1.365.154-.4376.398-.8383.715-1.1768s.702-.6073,1.128-.7895c.427-.1821.887-.2736,1.351-.2687c1.687,0,2.812,1.2,3.375,3c.562-1.8,1.687-3,3.375-3c.232-.0014.463.0237.69.075.801.1575,1.517.6032,2.011,1.2528.495.6495.735,1.4579.674,2.2722Z" fill="#cf4054"/><path d="M167.15,93.5c1.41.81,4.792.75,9.847.75s8.438.06,9.84-.75c.321.0156.626.1372.87.3458.243.2086.411.4922.475.8062.044-.3448.065-.692.065-1.0395.026-.4005-.108-.7948-.372-1.097s-.637-.4874-1.038-.5155c-1.402.81-4.785.75-9.84.75s-8.437.06-9.847-.75c-.399.0298-.77.2159-1.033.5178-.263.302-.396.6954-.37,1.0947c0,.3473.022.6942.066,1.0387.063-.313.229-.596.471-.8044s.547-.3304.866-.3468Z" fill="#141e21"/><path d="M184.146,99.1143c-2.164,1.2747-4.638,1.9277-7.149,1.8857-2.511.042-4.984-.611-7.148-1.8857-.224.3368-.346.731-.352,1.1357l-.075.097c2.253,1.46,4.892,2.209,7.575,2.153c2.684.056,5.323-.693,7.575-2.153l-.075-.097c-.005-.4047-.128-.7989-.351-1.1357Z" fill="#8a293d"/><path d="M185.998,89.7502c-.533,0-6.099-2.6925-6.691-7.5608-.036.2185-.056.4394-.059.6608c0,5.4,6.187,8.4,6.75,8.4c1.08,0,6.33-2.775,6.727-7.7925.015-.205.023-.4075.023-.6075-.001-.2278-.018-.4552-.053-.6803-.529,4.8803-5.633,7.5803-6.697,7.5803Z" fill="#fbb40a"/><path d="M167.998,89.7502c-.533,0-6.099-2.6925-6.691-7.5608-.036.2185-.056.4394-.059.6608c0,5.4,6.187,8.4,6.75,8.4c1.08,0,6.33-2.775,6.727-7.7925.015-.205.023-.4075.023-.6075-.001-.2278-.018-.4552-.053-.6803-.529,4.8803-5.633,7.5803-6.697,7.5803Z" fill="#fbb40a"/><path d="M189.373,77.7497c-1.688,0-2.813,1.2-3.375,3c.437-1.35,1.312-2.25,2.625-2.25.354-.0101.706.0534,1.034.1865s.625.3329.871.5867c.247.2539.439.5562.562.8879.124.3317.178.6854.158,1.0389c0,4.05-4.375,6.3-5.25,6.3-.42,0-4.889-2.0812-5.233-5.8447-.011-.15-.017-.3038-.017-.4553-.039-.6204.153-1.2333.538-1.7211s.937-.8164,1.55-.9226c.176-.0387.356-.0575.537-.0563c1.312,0,2.187.9,2.625,2.25-.563-1.8-1.688-3-3.375-3-.232-.0014-.464.0237-.69.075-.802.1575-1.517.6032-2.012,1.2528-.495.6495-.734,1.4579-.673,2.2722c0,.2.007.4025.022.6075.443,5.0175,6.188,7.7925,6.728,7.7925c1.125,0,6.75-3,6.75-8.4.034-.4626-.027-.9275-.182-1.365-.154-.4376-.397-.8383-.715-1.1768-.317-.3385-.701-.6073-1.128-.7895s-.886-.2736-1.35-.2687Z" fill="#ae2d4c"/><path d="M171.373,77.7497c-1.688,0-2.813,1.2-3.375,3c.437-1.35,1.312-2.25,2.625-2.25.354-.0101.706.0534,1.034.1865s.625.3329.871.5867c.247.2539.439.5562.562.8879.124.3317.178.6854.158,1.0389c0,4.05-4.375,6.3-5.25,6.3-.42,0-4.889-2.0812-5.233-5.8447-.011-.1515-.017-.3053-.017-.4553-.039-.6204.153-1.2333.538-1.7211s.937-.8164,1.55-.9226c.176-.0387.356-.0575.537-.0563c1.312,0,2.187.9,2.625,2.25-.563-1.8-1.688-3-3.375-3-.232-.0014-.464.0237-.69.075-.802.1575-1.517.6032-2.012,1.2528-.495.6495-.734,1.4579-.673,2.2722c0,.2.007.4025.022.6075.443,5.0175,6.188,7.7925,6.728,7.7925c1.125,0,6.75-3,6.75-8.4.034-.4626-.027-.9275-.182-1.365-.154-.4376-.397-.8383-.715-1.1768-.317-.3385-.701-.6073-1.128-.7895s-.886-.2736-1.35-.2687Z" fill="#ae2d4c"/><path d="M191.107,81.3582c.241-.2418.164-.7102-.172-1.0463s-.805-.4127-1.046-.171c-.242.2418-.165.7102.171,1.0463.337.3361.805.4127,1.047.171Z" fill="#f6fafd"/><path d="M189.861,79.9291c.121-.1211.083-.3554-.085-.5235-.169-.168-.403-.2062-.524-.0852s-.082.3554.086.5235c.168.168.402.2062.523.0852Z" fill="#f6fafd"/><path d="M173.107,81.3586c.241-.2417.164-.7101-.172-1.0462s-.805-.4127-1.046-.171c-.242.2417-.165.7102.171,1.0463.337.3361.805.4127,1.047.1709Z" fill="#f6fafd"/><path d="M171.861,79.9286c.121-.121.083-.3554-.085-.5234-.169-.1681-.403-.2062-.524-.0852s-.082.3553.086.5234c.168.168.402.2062.523.0852Z" fill="#f6fafd"/></g></g><clipPath id="eEMrinSzULl114"><rect width="36" height="36" rx="0" ry="0" transform="translate(158.998001 71)" fill="#fff"/></clipPath></g></g><mask id="eEMrinSzULl116"><g id="eEMrinSzULl117_to" transform="translate(-61.246823,86.754392)"><rect width="146.50326" height="48.288784" rx="0" ry="0" transform="scale(1.375678,1) translate(-73.25163,-24.144392)" fill="#fff" stroke-width="0"/></g></mask></g><g mask="url(#eEMrinSzULl144)"><g id="eEMrinSzULl119"><path d="M47.4707,102L40.7559,76.6348h5.5019l4.0078,18.1757h.1055l4.6758-18.1757h4.6582l4.6758,18.1757h.1054l4.0254-18.1757h5.502L67.2812,102h-5.1855L57.4375,85.002h-.1055L52.6562,102h-5.1855Zm35.4375.387c-5.7656,0-9.2637-3.7444-9.2637-9.7737v-.0176c0-5.9941,3.5332-9.8262,9.0528-9.8262s8.9824,3.7442,8.9824,9.4395v1.582h-12.9727c.0528,3.0059,1.6875,4.7637,4.3067,4.7637c2.1093,0,3.3925-1.1602,3.7617-2.2149l.0351-.1054h4.711l-.0527.1933c-.5801,2.7774-3.1817,5.9593-8.5606,5.9593Zm-.123-15.7854c-2.1094,0-3.6914,1.4062-4.0254,3.955h7.998c-.3164-2.6015-1.8457-3.955-3.9726-3.955ZM99.9414,102.299c-3.7793,0-6.3281-2.3732-6.3281-5.6955v-.0351c0-3.4278,2.6543-5.4317,7.3297-5.7305l4.659-.2813v-1.1601c0-1.6699-1.09-2.707-3.094-2.707-1.916,0-3.0764.8964-3.3225,2.1093l-.0351.1582h-4.6934l.0176-.2109c.2813-3.4805,3.2695-5.9766,8.2444-5.9766c4.869,0,8.015,2.5137,8.015,6.3106v12.9199h-5.132v-2.8125h-.106c-1.072,1.9335-3.076,3.1115-5.5546,3.1115Zm-1.248-5.9592c0,1.3887,1.1425,2.2149,2.9176,2.2149c2.303,0,3.991-1.4766,3.991-3.4453v-1.3535l-3.885.2461c-1.9865.123-3.0236.9668-3.0236,2.3027v.0351ZM114.232,102v-25.3652h5.133v14.0625h.106l6.363-7.5411h5.818l-7.119,8.1036L132.004,102h-5.924l-5.396-7.6992-1.319,1.459v6.2402h-5.133Z" fill="#ff4136"/><g clip-path="url(#eEMrinSzULl142)"><g><g><path d="M158,106.25c9.527,0,17.25-7.7231,17.25-17.25s-7.723-17.25-17.25-17.25-17.25,7.7231-17.25,17.25s7.723,17.25,17.25,17.25Z" fill="#ffb32b"/><path d="M161,92.75c1.243,0,2.25-1.3431,2.25-3s-1.007-3-2.25-3-2.25,1.3431-2.25,3s1.007,3,2.25,3Z" fill="#273941"/><path d="M147.5,92.75c1.243,0,2.25-1.3431,2.25-3s-1.007-3-2.25-3-2.25,1.3431-2.25,3s1.007,3,2.25,3Z" fill="#273941"/><path d="M161,92c.828,0,1.5-1.0074,1.5-2.25s-.672-2.25-1.5-2.25-1.5,1.0074-1.5,2.25.672,2.25,1.5,2.25Z" fill="#141e21"/><path d="M147.5,92c.828,0,1.5-1.0074,1.5-2.25s-.672-2.25-1.5-2.25-1.5,1.0074-1.5,2.25.672,2.25,1.5,2.25Z" fill="#141e21"/><path d="M161.75,89.75c.414,0,.75-.3358.75-.75s-.336-.75-.75-.75-.75.3358-.75.75.336.75.75.75Z" fill="#f6fafd"/><path d="M148.25,89.75c.414,0,.75-.3358.75-.75s-.336-.75-.75-.75-.75.3358-.75.75.336.75.75.75Z" fill="#f6fafd"/><path d="M157.25,99.5h-1.5c0-.306-.584-.75-1.5-.75s-1.5.444-1.5.75h-1.5c0-1.2622,1.318-2.25,3-2.25s3,.9878,3,2.25Z" fill="#273941"/><path d="M158,71.75c-3.412,0-6.747,1.0117-9.584,2.9071-2.836,1.8955-5.047,4.5896-6.353,7.7416s-1.647,6.6204-.982,9.9666c.666,3.3462,2.309,6.4198,4.721,8.8327c2.413,2.412,5.487,4.055,8.833,4.721c3.346.665,6.814.324,9.966-.982s5.846-3.517,7.742-6.3534c1.895-2.8368,2.907-6.1719,2.907-9.5836c0-4.575-1.817-8.9626-5.052-12.1976s-7.623-5.0524-12.198-5.0524Zm-1.5,33.75c-2.818,0-5.573-.836-7.917-2.402-2.343-1.565-4.17-3.7909-5.248-6.3948-1.079-2.6038-1.361-5.469-.811-8.2332.55-2.7643,1.907-5.3034,3.9-7.2963s4.532-3.3501,7.296-3.8999s5.629-.2676,8.233.8109c2.604,1.0786,4.83,2.905,6.395,5.2484c1.566,2.3434,2.402,5.0985,2.402,7.9169c0,3.7793-1.501,7.4039-4.174,10.076-2.672,2.673-6.297,4.174-10.076,4.174Z" fill="#ffce52"/><path d="M175.25,89.0001c0-3.5473-1.094-7.0082-3.133-9.9112-2.038-2.903-4.922-5.107-8.259-6.3117-3.336-1.2047-6.963-1.3515-10.386-.4204-3.422.9311-6.475,2.8948-8.742,5.6235c3.309-2.7429,7.521-4.1524,11.814-3.9524s8.356,1.9951,11.395,5.0337c3.038,3.0387,4.833,7.1021,5.033,11.3948s-1.209,8.5054-3.952,11.8136c1.951-1.617,3.521-3.6448,4.598-5.9386c1.077-2.2939,1.635-4.7972,1.632-7.3313Z" fill="#ffe369"/><path d="M172.859,91.1086c.242-.2417.165-.7101-.172-1.0462-.336-.3362-.804-.4127-1.046-.171s-.165.7102.172,1.0463c.336.3361.804.4127,1.046.1709Z" fill="#f6fafd"/><path d="M173.114,85.9291c.121-.1211.083-.3554-.085-.5235-.169-.168-.403-.2062-.524-.0852s-.083.3554.086.5235c.168.168.402.2062.523.0852Z" fill="#f6fafd"/><path d="M173.468,88.7174c.483-.4835.329-1.4206-.344-2.0931-.673-.6726-1.61-.8259-2.093-.3424s-.329,1.4205.344,2.0931c.673.6725,1.61.8258,2.093.3424Z" fill="#f6fafd"/><path d="M175.25,77c0-2.8995-3.022-5.25-6.75-5.25s-6.75,2.3505-6.75,5.25c0,2.7262,2.581,4.992,6,5.25v3l4.817-4.0673c.776-.4,1.432-.9972,1.903-1.7315s.74-1.5798.78-2.4512Z" fill="#5987dd"/><path d="M175.25,77c0-2.8995-3.022-5.25-6.75-5.25-1.154-.0448-2.301.19-3.344.6843s-1.952,1.2334-2.648,2.1545c1.327-.8908,2.894-1.3577,4.492-1.3388c3.728,0,6.75,2.3505,6.75,5.25-.007.8553-.268,1.6892-.75,2.3955.664-.417,1.216-.9898,1.608-1.6687s.613-1.4433.642-2.2268Z" fill="#95b4ff"/><path d="M167.75,85.2496v-3c-3.419-.258-6-2.5237-6-5.25.007-.8613.271-1.7009.758-2.4112-.667.4182-1.221.9933-1.615,1.6751-.393.6817-.614,1.4494-.643,2.2361c0,2.7263,2.581,4.992,6,5.25v3l4.817-4.0672c.771-.4425,1.432-1.0535,1.933-1.7873-.142.099-.284.198-.435.2873l-4.815,4.0672Z" fill="#f29410"/><path d="M166.25,76.25h-1.5v1.5h1.5v-1.5Z" fill="#ededed"/><path d="M169.25,76.25h-1.5v1.5h1.5v-1.5Z" fill="#ededed"/></g></g><clipPath id="eEMrinSzULl142"><rect width="36" height="36" rx="0" ry="0" transform="translate(140 71)" fill="#fff"/></clipPath></g></g><mask id="eEMrinSzULl144"><g id="eEMrinSzULl145_to" transform="translate(-33.25163,86.7496)"><rect width="146.50326" height="48.288784" rx="0" ry="0" transform="translate(-73.25163,-24.144392)" fill="#fff" stroke-width="0"/></g></mask></g><path id="eEMrinSzULl146" d="M43.9512,50v-4.04l-3.4727-5.8243h1.7022l2.4814,4.2998h.1162l2.4815-4.2998h1.7021L45.4824,45.96v4.04h-1.5312Zm8.4765.1436c-2.1806,0-3.5136-1.4561-3.5136-3.8487v-.0137c0-2.3857,1.3398-3.8486,3.5136-3.8486c2.167,0,3.5069,1.4561,3.5069,3.8486v.0137c0,2.3926-1.333,3.8487-3.5069,3.8487Zm0-1.2374c1.2715,0,1.9961-.9707,1.9961-2.6113v-.0137c0-1.6474-.7246-2.6113-1.9961-2.6113-1.2783,0-1.9961.9639-1.9961,2.6113v.0137c0,1.6475.7178,2.6113,1.9961,2.6113Zm7.752,1.2374c-1.6748,0-2.543-1.0049-2.543-2.7618v-4.8056h1.4834v4.457c0,1.2305.4512,1.8389,1.5381,1.8389c1.1895,0,1.8252-.7451,1.8252-1.9414v-4.3545h1.4766v7.4238h-1.4766v-1.1211h-.1162c-.3555.7998-1.1074,1.2647-2.1875,1.2647ZM66.0996,50v-7.4238h1.4834v1.1211h.1094c.2666-.7862.957-1.251,1.9482-1.251.2393,0,.499.0342.6494.0683v1.3672c-.2666-.0547-.5195-.0888-.7998-.0888-1.1347,0-1.9072.6972-1.9072,1.7705v4.4365h-1.4834Zm12.9404.2393c-2.2285,0-3.6572-1.128-3.7939-2.7891l-.0068-.0889h1.5039l.0068.0752c.082.8955,1.0322,1.4697,2.3516,1.4697c1.2578,0,2.1533-.6289,2.1533-1.5449v-.0068c0-.7588-.5332-1.251-1.8389-1.5313l-1.0801-.2324c-2.0029-.4238-2.8642-1.3535-2.8642-2.8096v-.0068c.0068-1.7021,1.4834-2.8779,3.5752-2.8779s3.459,1.1826,3.5683,2.7139l.0069.0957h-1.4834l-.0137-.0889c-.1299-.8067-.9023-1.3945-2.0986-1.3877-1.1553,0-2.0098.54-2.0098,1.4697v.0069c0,.7314.5195,1.2099,1.7979,1.4834l1.0732.2392c2.0713.4443,2.9189,1.2783,2.9189,2.7412v.0069c0,1.8867-1.4697,3.0625-3.7666,3.0625Zm8.7295-.0957c-2.1738,0-3.4863-1.4834-3.4863-3.835v-.0068c0-2.3174,1.3398-3.8692,3.4111-3.8692s3.3428,1.4971,3.3428,3.7256v.5195h-5.2637c.0274,1.4219.8067,2.2491,2.0303,2.2491.9502,0,1.5176-.4717,1.6953-.8545l.0274-.0547l1.4287-.0069-.0137.0616c-.2461.9775-1.2715,2.0713-3.1719,2.0713Zm-.0683-6.4942c-1.0117,0-1.7774.6904-1.9073,1.9688h3.7735c-.1162-1.3262-.8613-1.9688-1.8662-1.9688Zm8.2236,6.4942c-2.167,0-3.4932-1.4766-3.4932-3.876v-.0137c0-2.3516,1.3194-3.8213,3.4864-3.8213c1.8662,0,2.9804,1.0528,3.1855,2.4951v.0342l-1.4219.0069-.0068-.0206c-.1641-.7314-.7656-1.2783-1.75-1.2783-1.2373,0-1.9824.9844-1.9824,2.584v.0137c0,1.6406.7588,2.6386,1.9824,2.6386.9297,0,1.5039-.4238,1.7432-1.2236l.0136-.0342h1.4219l-.0137.0616c-.2666,1.4423-1.3261,2.4336-3.165,2.4336Zm7.3352,0c-1.675,0-2.543-1.0049-2.543-2.7618v-4.8056h1.483v4.457c0,1.2305.451,1.8389,1.538,1.8389c1.19,0,1.825-.7451,1.825-1.9414v-4.3545h1.477v7.4238h-1.477v-1.1211h-.116c-.355.7998-1.107,1.2647-2.187,1.2647ZM109.18,50v-7.4238h1.483v1.1211h.109c.267-.7862.957-1.251,1.949-1.251.239,0,.499.0342.649.0683v1.3672c-.266-.0547-.519-.0888-.8-.0888-1.134,0-1.907.6972-1.907,1.7705v4.4365h-1.483Zm6.378-8.75c-.513,0-.93-.417-.93-.9229c0-.5126.417-.9296.93-.9296.505,0,.929.417.929.9296c0,.5059-.424.9229-.929.9229ZM114.812,50v-7.4238h1.477v7.4238h-1.477Zm6.44.0479c-1.634,0-2.304-.5743-2.304-2.003v-4.2998h-1.162v-1.1689h1.162v-1.8731h1.511v1.8731h1.593v1.1689h-1.593v3.9444c0,.7998.301,1.1279,1.032,1.1279.226,0,.356-.0069.561-.0274v1.1827c-.24.041-.513.0752-.8.0752Zm3.254,2.5634c-.185,0-.403-.0136-.595-.0342v-1.1689c.144.0205.328.0273.499.0273.691,0,1.101-.2939,1.326-1.0459l.11-.3828-2.694-7.4306h1.6l1.859,5.9336h.13l1.853-5.9336h1.558l-2.761,7.7109c-.629,1.7774-1.381,2.3242-2.885,2.3242Zm14.485-2.372c-2.228,0-3.657-1.128-3.794-2.7891l-.007-.0889h1.504l.007.0752c.082.8955,1.032,1.4697,2.352,1.4697c1.258,0,2.153-.6289,2.153-1.5449v-.0068c0-.7588-.533-1.251-1.839-1.5313l-1.08-.2324c-2.003-.4238-2.864-1.3535-2.864-2.8096v-.0068c.007-1.7021,1.483-2.8779,3.575-2.8779s3.459,1.1826,3.568,2.7139l.007.0957h-1.483l-.014-.0889c-.13-.8067-.902-1.3945-2.098-1.3877-1.156,0-2.01.54-2.01,1.4697v.0069c0,.7314.519,1.2099,1.798,1.4834l1.073.2392c2.071.4443,2.919,1.2783,2.919,2.7412v.0069c0,1.8867-1.47,3.0625-3.767,3.0625Zm8.737-.0957c-2.167,0-3.494-1.4766-3.494-3.876v-.0137c0-2.3516,1.32-3.8213,3.487-3.8213c1.866,0,2.98,1.0528,3.185,2.4951v.0342l-1.422.0069-.006-.0206c-.165-.7314-.766-1.2783-1.75-1.2783-1.238,0-1.983.9844-1.983,2.584v.0137c0,1.6406.759,2.6386,1.983,2.6386.929,0,1.503-.4238,1.743-1.2236l.013-.0342h1.422l-.013.0616c-.267,1.4423-1.327,2.4336-3.165,2.4336Zm8.004,0c-2.18,0-3.513-1.4561-3.513-3.8487v-.0137c0-2.3857,1.34-3.8486,3.513-3.8486c2.167,0,3.507,1.4561,3.507,3.8486v.0137c0,2.3926-1.333,3.8487-3.507,3.8487Zm0-1.2374c1.272,0,1.997-.9707,1.997-2.6113v-.0137c0-1.6474-.725-2.6113-1.997-2.6113-1.278,0-1.996.9639-1.996,2.6113v.0137c0,1.6475.718,2.6113,1.996,2.6113ZM161.01,50v-7.4238h1.483v1.1211h.11c.266-.7862.957-1.251,1.948-1.251.239,0,.499.0342.649.0683v1.3672c-.266-.0547-.519-.0888-.8-.0888-1.134,0-1.907.6972-1.907,1.7705v4.4365h-1.483Zm8.531.1436c-2.174,0-3.486-1.4834-3.486-3.835v-.0068c0-2.3174,1.34-3.8692,3.411-3.8692s3.343,1.4971,3.343,3.7256v.5195h-5.264c.027,1.4219.807,2.2491,2.03,2.2491.95,0,1.518-.4717,1.696-.8545l.027-.0547l1.429-.0069-.014.0616c-.246.9775-1.272,2.0713-3.172,2.0713Zm-.068-6.4942c-1.012,0-1.778.6904-1.908,1.9688h3.774c-.116-1.3262-.861-1.9688-1.866-1.9688Z" opacity="0"/><g id="eEMrinSzULl147" opacity="0"><rect width="36" height="32" rx="16" ry="16" transform="translate(443.997986 321)" fill="#2ecc40" fill-opacity="0.1"/><g><g><path d="M461.998,343.667c3.682,0,6.666-2.985,6.666-6.667s-2.984-6.667-6.666-6.667-6.667,2.985-6.667,6.667s2.985,6.667,6.667,6.667Zm3.947-8.629c.218-.217.219-.568.003-.786s-.568-.219-.786-.003l-4.357,4.328-1.968-1.971c-.216-.218-.568-.218-.785-.001s-.218.568-.001.785l2.363,2.368c.217.217.568.217.785,0c.019-.018.036-.038.052-.059l4.694-4.661Z" clip-rule="evenodd" fill="#2ecc40" fill-rule="evenodd"/></g></g></g><g id="eEMrinSzULl152" opacity="0"><rect width="36" height="32" rx="16" ry="16" transform="translate(443.997986 264)" fill="#2ecc40" fill-opacity="0.1"/><g><g><path d="M461.998,286.667c3.682,0,6.666-2.985,6.666-6.667s-2.984-6.667-6.666-6.667-6.667,2.985-6.667,6.667s2.985,6.667,6.667,6.667Zm3.947-8.629c.218-.217.219-.568.003-.786s-.568-.219-.786-.003l-4.357,4.328-1.968-1.971c-.216-.218-.568-.218-.785-.001s-.218.568-.001.785l2.363,2.368c.217.217.568.217.785,0c.019-.018.036-.038.052-.059l4.694-4.661Z" clip-rule="evenodd" fill="#2ecc40" fill-rule="evenodd"/></g></g></g><g id="eEMrinSzULl157" opacity="0"><rect width="36" height="32" rx="16" ry="16" transform="translate(443.997986 207)" fill="#2ecc40" fill-opacity="0.1"/><g><g><path d="M461.998,229.667c3.682,0,6.666-2.985,6.666-6.667s-2.984-6.667-6.666-6.667-6.667,2.985-6.667,6.667s2.985,6.667,6.667,6.667Zm3.947-8.629c.218-.217.219-.568.003-.786s-.568-.219-.786-.003l-4.357,4.328-1.968-1.971c-.216-.218-.568-.218-.785-.001s-.218.568-.001.785l2.363,2.368c.217.217.568.217.785,0c.019-.018.036-.038.052-.059l4.694-4.661Z" clip-rule="evenodd" fill="#2ecc40" fill-rule="evenodd"/></g></g></g><g id="eEMrinSzULl162" opacity="0"><rect width="500" height="378" rx="20" ry="20" transform="translate(10.2031 5)" fill-opacity="0.5"/></g><g id="eEMrinSzULl164" transform="translate(.105049 3.718498)" opacity="0"><g><g id="eEMrinSzULl166_to" transform="translate(259.995499,218.841503)"><g transform="translate(-259.995499,-153.841503)"><g><path d="M234.496,121.969v-3.187h3.188v3.187h6.374v3.187h3.187v3.188h3.187v-3.188h19.123v3.188h3.187v-3.188h3.187v-3.187h6.374v-3.187h3.187v3.187h-3.187v3.187h-3.187v3.188h-3.187v3.187h3.187v3.187h3.187v3.187h3.187v3.187h3.188v9.561h3.187v6.375h-6.375v3.187h-6.374v3.187h-12.748v-3.187h-12.749v3.187h-12.748v-3.187h-6.375v-3.187h-9.561v-6.375h3.187v-3.187h3.187v-3.187h-3.187v-3.187h3.187v-3.187h3.187v-3.187h3.188v-3.187h6.374v-3.187h-3.187v-3.188h-3.187v-3.187h-3.188Z" fill="#ff7e31"/><path d="M240.872,185.714h-3.187v3.186h3.187v-3.186Z" fill="#ff7e31"/><path d="M244.059,192.087v-15.935h3.187v6.374h6.374v3.187h-3.187v3.187h3.187v3.187h-9.561Z" fill="#ff7e31"/><path d="M266.369,185.713v-3.187h6.373v6.373h-3.187v3.187h-3.186v-3.187h3.186v-3.186h-3.186Z" fill="#ff7e31"/></g><g><path d="M228.123,131.53v-6.374h3.187v3.187h3.187v6.374h-3.187v-3.187h-3.187Z" fill="#fff"/><path d="M291.865,131.53v-6.374h-3.187v3.187h-3.186v6.374h3.186v-3.187h3.187Z" fill="#fff"/><path d="M228.123,147.466v-3.186h3.187v3.186h-3.187Z" fill="#fff"/><path d="M228.123,163.402v-6.374h6.374v3.187h6.375v3.187h12.748v-3.187h12.749v3.187h12.748v-3.187h6.374v-3.187h6.375v3.187h-3.188v3.187h-3.187v3.187h-6.374v3.187h-6.374v3.187h-28.684v-3.187h-6.375v-3.187h-3.187v-3.187h-6.374Z" fill="#fff"/><path d="M247.247,182.525v-6.374h25.497v6.374h-6.374v3.187h-3.187v3.187h3.187v3.187h-3.187v-3.187h-6.375v3.187h-3.187v-9.561h-6.374Z" fill="#fff"/></g><g><path d="M240.873,160.214v-12.748h9.561v12.748h-9.561Z"/><path d="M279.119,147.466h-9.561v12.748h9.561v-12.748Z"/><path d="M253.62,166.589v-3.187h12.748v3.187h-3.187v3.187h-6.374v-3.187h-3.187Z"/><path d="M237.685,192.087h-3.187v-6.374h3.187v-9.562h3.187v-3.187h-6.374v-3.187h-3.187v-3.187h-3.187v-3.187h-3.187v-3.188h-3.187v-9.561h3.187v-9.561h-3.187v-12.749h3.187v-12.748h12.748v3.187h6.374v3.187h3.188v3.187h-3.188v-3.187h-6.374v-3.187h-3.187v6.374h3.187v3.187h3.187v3.187h-3.187v-3.187h-3.187v-3.187h-3.187v-3.187h-3.187v9.561h-3.187v9.562h3.187v9.561h-3.187v9.561h3.187v3.188h3.187v3.187h3.187v3.187h6.374v3.187h3.187v3.187h-3.187v9.562h-3.187v6.374Z"/><path d="M279.118,185.713h3.188v3.187h-3.188v3.187h3.188v-3.187h3.187v-3.187h-3.187v-9.562h-3.188v-3.187h6.375v-3.187h3.187v-3.187h3.187v-3.187h3.187v-3.188h3.187v-9.561h-3.187v-9.561h3.187v-12.749h-3.187v-12.748h-12.748v3.187h-6.375v3.187h-3.187v3.187h3.187v-3.187h6.375v-3.187h3.187v6.374h-3.187v3.187h-3.188v3.187h3.188v-3.187h3.187v-3.187h3.187v-3.187h3.187v9.561h3.187v9.562h-3.187v9.561h3.187v9.561h-3.187v3.188h-3.187v3.187h-3.187v3.187h-6.375v3.187h-3.187v3.187h3.187v9.562Z"/><path d="M269.557,121.969h-19.122v3.187h19.122v-3.187Z"/></g><path d="M256.807,134.717v-3.186h6.373v3.186h-6.373Z" fill="#f9d398"/><g><path d="M224.935,141.091v-9.56h3.187v6.373h3.187v3.187h-6.374Z" fill="#b8423f"/><path d="M247.246,172.963v3.187h-3.187v15.935h-6.374v-3.187h3.187v-12.748h3.187v-3.187h3.187Z" fill="#b8423f"/><path d="M266.369,188.898v-3.187h3.187v3.187h3.187v-15.935h3.187v3.187h3.187v9.561h3.187v3.187h-3.187v3.187h-9.561v-3.187h-3.187Z" fill="#b8423f"/><path d="M250.432,188.898v-3.187h3.186v3.187h-3.186Z" fill="#b8423f"/><path d="M234.496,125.156v-3.187h3.186v3.187h3.187v3.187h3.187v3.187h-3.187v-3.187h-3.187v-3.187h-3.186Z" fill="#b8423f"/><path d="M247.246,128.343v-3.187h3.186v3.187h-3.186Z" fill="#b8423f"/><path d="M269.556,128.343v-3.187h3.187v3.187h-3.187Z" fill="#b8423f"/><path d="M282.304,121.969h3.187v3.187h-3.187v3.187h-3.187v3.188h3.187v3.187h3.187v3.187h6.374v-6.374h3.187v9.561h-3.187v9.561h3.187v9.561h-3.187v-9.561h-3.187v-9.561h-3.187v-3.187h-3.187v-3.187h-3.187v-3.187h-3.187v-3.188h3.187v-3.187h3.187v-3.187Z" fill="#b8423f"/></g><g><path d="M228.124,125.156v-3.187h3.187v3.187h3.187v3.187h3.187v6.374h-3.187v3.187h-6.374v-6.374h3.187v3.187h3.187v-6.374h-3.187v-3.187h-3.187Z" fill="#db9d8b"/><path d="M288.678,125.156v-3.187h3.187v3.187h-3.187v3.187h-3.187v6.374h3.187v-3.187h3.187v6.374h-6.374v-3.187h-3.187v-6.374h3.187v-3.187h3.187Z" fill="#db9d8b"/><path d="M224.935,160.214v-3.187h3.187v3.187h-3.187Z" fill="#db9d8b"/><path d="M240.872,172.963v-3.187h3.186v3.187h-3.186Z" fill="#db9d8b"/><path d="M231.312,166.588v-3.186h3.186v3.186h3.187v3.187h-3.187v-3.187h-3.186Z" fill="#db9d8b"/><path d="M256.808,192.085v-3.187h6.374v-3.187h3.187v3.187h-3.187v3.187h-6.374Z" fill="#db9d8b"/><path d="M247.246,176.151v-3.187h25.496v-3.187h6.375v-3.187h6.374v-3.188h3.187v-3.187h3.187v3.187h-3.187v3.188h-3.187v3.187h-6.374v3.187h-6.375v3.187h-25.496Z" fill="#db9d8b"/></g></g></g><rect width="91.0975" height="68.5225" rx="0" ry="0" transform="translate(215.375 182.500498)" fill="#feb170" stroke-width="0"/><g><rect width="33.4646" height="55.7743" rx="0" ry="0" transform="translate(211.658005 201.755005)" fill="#d68747"/><rect width="11.1544" height="14.8726" rx="0" ry="0" transform="translate(233.968002 190.600998)" fill="#ad713f"/><rect width="63.210899" height="59.492599" rx="0" ry="0" transform="translate(248.841995 198.037994)" fill="#feb16f"/><path d="M207.94,183.164v-3.719h104.113v3.719h3.718v3.718h3.719v3.718h3.718v3.719h3.718v3.718h-3.718v3.718h-63.211v-3.718h-3.719v-3.718h-3.718v-3.719h-3.718v-3.718h3.718v3.718h3.718v3.719h3.719v3.718h63.211v-3.718h-3.718v-3.719h-3.719v-3.718h-3.718v-3.718h-104.113v3.718h-3.718v3.718h-3.718v3.719h-3.719v3.718h37.183v-3.718h3.719v-3.719h3.718v-3.718h3.718v3.718h-3.718v3.719h-3.718v3.718h-3.719v3.718h-37.183v-3.718h-3.718v-3.718h3.718v-3.719h3.719v-3.718h3.718v-3.718h3.718Z"/><path d="M204.222,257.531v-55.775h3.718v55.775h37.184v-74.366h3.718v74.366h63.211v-55.775h3.719v55.775h-3.719v3.718h-104.113v-3.718h-3.718Z"/><path d="M252.56,186.883v-3.718h55.774v3.718h3.719v3.718h3.718v3.718h3.718v3.719h-18.591v-3.719h-3.718v3.719h-11.155v-3.719h-26.028v-3.718h-3.719v-3.718h-3.718Z" fill="#feb16f"/><path d="M193.067,264.967v-3.718h133.859v3.718h-133.859Z" fill="#ccc"/><path d="M211.658,257.53v-29.746h3.718v3.718h3.719v22.31h3.718v3.718h-11.155Z" fill="#de9150"/><path d="M241.404,205.473v-3.718h3.719v55.774h-3.719v-48.338h-3.718v-3.718h3.718Z" fill="#de9150"/><path d="M248.842,198.037v-3.718h3.719v3.718h3.718v3.718h3.718v3.719h52.149v52.056h-3.904v-48.338h-48.245v-3.718h-3.718v-3.719h-3.718v-3.718h-3.719Z" fill="#f5a765"/><path d="M204.222,194.319v-3.718h3.718v-3.718h7.437v-3.718h26.028v3.718h-3.719v3.718h-3.718v3.718h-3.718v3.719h-11.155v-3.719h-3.718v3.719h-3.718v-3.719h-7.437Z" fill="#f7a968"/><path d="M248.842,194.319v-3.718h3.719v3.718h3.718v3.718h3.718v3.718h52.056v3.719h-52.056v-3.719h-3.718v-3.718h-3.718v-3.718h-3.719Z" fill="#dd9254"/><path d="M211.658,205.474v-3.719h22.31v-3.718h3.718v-3.718h3.718v-3.718h3.718v3.718h-3.718v3.718h-3.718v3.718h-3.718v3.719h-22.31Z" fill="#a36c3c"/><path d="M211.658,209.192v-3.718h26.028v-3.718h3.718v-3.718h3.718v3.718h-3.718v3.718h-3.718v3.718h-26.028Z" fill="#c47c42"/><path d="M215.375,183.165v3.718h-7.436v3.718h-3.719v3.718h7.437v3.718h-14.873v-3.718h3.718v-3.718h3.718v-3.718h3.719v-3.718h7.436Z" fill="#ffe2c6"/><path d="M215.377,198.037v-3.718h3.718v3.718h-3.718Z" fill="#ffd4ab"/><path d="M263.715,198.037v-3.718h22.309v3.718h-22.309Z" fill="#ffd4ab"/><path d="M211.657,205.474h-3.719v22.308h3.719v-22.308Z" fill="#f3cfaf"/><path d="M211.656,246.375h-3.718v3.718h3.718v-3.718Z" fill="#fbe8d6"/><path d="M211.657,242.657h-3.719v-14.873h3.719v14.873Z" fill="#fbe8d6"/><path d="M237.686,209.193h-3.718v14.873h3.718v-14.873Z" fill="#db8d4b"/><path d="M230.251,198.037v-3.718h3.718v-3.718h3.718v-3.718h3.718v-3.718h3.719v3.718h-3.719v3.718h-3.718v3.718h-3.718v3.718h-3.718Z" fill="#db9051"/><path d="M308.333,186.883v-3.718h3.718v3.718h3.718v3.718h3.718v3.718h3.718v3.718h-3.718v-3.718h-3.718v-3.718h-3.718v-3.718h-3.718Z" fill="#eda061"/><path d="M248.842,186.883v-3.718h3.718v3.718h3.719v3.718h3.718v3.718h3.718v3.718h-3.718v-3.718h-3.718v-3.718h-3.719v-3.718h-3.718Z" fill="#fff1e2"/><path d="M207.938,246.375v-3.717h3.718v3.717h-3.718Z" fill="#f7d8bb"/><path d="M207.938,257.529v-7.436h3.718v7.436h-3.718Z" fill="#f7d8bb"/><path d="M248.842,242.657v-11.155h3.719v11.155h-3.719Z" fill="#febd84"/><path d="M248.842,209.192v-11.154h3.719v11.154h-3.719Z" fill="#fec18c"/><path d="M297.179,198.037v-3.718h3.717v3.718h-3.717Z" fill="#fec693"/></g></g></g></g></g></svg>
