<svg id="eNt6ad9JuQk1" xmlns="http://www.w3.org/2000/svg" xmlns:xlink="http://www.w3.org/1999/xlink" viewBox="0 0 500 288" shape-rendering="geometricPrecision" text-rendering="geometricPrecision">
<style><![CDATA[
#eNt6ad9JuQk3_to {animation: eNt6ad9JuQk3_to__to 4000ms linear infinite normal forwards}@keyframes eNt6ad9JuQk3_to__to { 0% {transform: translate(109.549507px,277.840851px)} 25% {transform: translate(109.549507px,275.840851px)} 50% {transform: translate(109.549507px,277.840851px)} 75% {transform: translate(109.549507px,275.840851px)} 100% {transform: translate(109.549507px,277.840851px)}} #eNt6ad9JuQk4_to {animation: eNt6ad9JuQk4_to__to 4000ms linear infinite normal forwards}@keyframes eNt6ad9JuQk4_to__to { 0% {transform: translate(11.549464px,63.050272px)} 25% {transform: translate(11.549464px,65.050272px)} 50% {transform: translate(11.549464px,63.050272px)} 75% {transform: translate(11.549464px,61.050272px)} 100% {transform: translate(11.549464px,63.050272px)}} #eNt6ad9JuQk5_to {animation: eNt6ad9JuQk5_to__to 4000ms linear infinite normal forwards}@keyframes eNt6ad9JuQk5_to__to { 0% {transform: translate(253.334053px,112.904316px)} 25% {transform: translate(253.334053px,114.904316px)} 50% {transform: translate(253.334053px,112.904316px)} 75% {transform: translate(253.334053px,114.904316px)} 100% {transform: translate(253.334053px,112.904316px)}} #eNt6ad9JuQk6_to {animation: eNt6ad9JuQk6_to__to 4000ms linear infinite normal forwards}@keyframes eNt6ad9JuQk6_to__to { 0% {transform: translate(332.702805px,61.852701px)} 25% {transform: translate(332.702805px,59.852701px)} 50% {transform: translate(332.702805px,61.852701px)} 75% {transform: translate(332.702805px,59.852701px)} 100% {transform: translate(332.702805px,61.852701px)}} #eNt6ad9JuQk7_to {animation: eNt6ad9JuQk7_to__to 4000ms linear infinite normal forwards}@keyframes eNt6ad9JuQk7_to__to { 0% {transform: translate(125.441006px,42.6403px)} 25% {transform: translate(125.441006px,40.6403px)} 50% {transform: translate(125.441006px,42.6403px)} 75% {transform: translate(125.441006px,44.6403px)} 100% {transform: translate(125.441006px,42.6403px)}} #eNt6ad9JuQk8_to {animation: eNt6ad9JuQk8_to__to 4000ms linear infinite normal forwards}@keyframes eNt6ad9JuQk8_to__to { 0% {transform: translate(487.679001px,136.279999px)} 25% {transform: translate(487.679001px,138.279999px)} 50% {transform: translate(487.679001px,136.279999px)} 75% {transform: translate(487.679001px,138.279999px)} 100% {transform: translate(487.679001px,136.279999px)}} #eNt6ad9JuQk9 {animation: eNt6ad9JuQk9_c_o 4000ms linear infinite normal forwards}@keyframes eNt6ad9JuQk9_c_o { 0% {opacity: 1} 25% {opacity: 0} 50% {opacity: 1} 75% {opacity: 0} 100% {opacity: 1}} #eNt6ad9JuQk10 {animation: eNt6ad9JuQk10_c_o 4000ms linear infinite normal forwards}@keyframes eNt6ad9JuQk10_c_o { 0% {opacity: 0} 25% {opacity: 1} 50% {opacity: 0} 75% {opacity: 1} 100% {opacity: 0}} #eNt6ad9JuQk11 {animation: eNt6ad9JuQk11_c_o 4000ms linear infinite normal forwards}@keyframes eNt6ad9JuQk11_c_o { 0% {opacity: 0} 25% {opacity: 1} 50% {opacity: 0} 75% {opacity: 1} 100% {opacity: 0}} #eNt6ad9JuQk15 {animation: eNt6ad9JuQk15_c_o 4000ms linear infinite normal forwards}@keyframes eNt6ad9JuQk15_c_o { 0% {opacity: 1} 25% {opacity: 0} 50% {opacity: 1} 75% {opacity: 0} 100% {opacity: 1}}
]]></style>
<g transform="translate(0-.000793)" opacity="0.2"><g id="eNt6ad9JuQk3_to" transform="translate(109.549507,277.840851)"><path d="M109.909,268.793l1.737,17.856c.064.678-.432,1.279-1.108,1.347-.679.064-1.279-.431-1.347-1.108l-1.737-17.856c-.064-.678.431-1.28,1.109-1.346.677-.066,1.278.43,1.346,1.107Zm4.856,1.423l5.593,2.432c.625.271.91.995.638,1.619l-2.432,5.593c-.271.624-.995.909-1.619.638-.624-.272-.909-.995-.638-1.62l1.938-4.463-4.461-1.942c-.624-.272-.909-.995-.638-1.62.271-.624.995-.909,1.619-.637Zm-11.972,6.586l-1.94,4.464l4.463,1.942c.624.271.909.995.638,1.619-.272.624-.995.91-1.62.638l-5.5935-2.431c-.6241-.272-.9092-.996-.6379-1.62l2.4334-5.593c.271-.624.995-.909,1.619-.638s.909.995.638,1.619Z" transform="translate(-109.549507,-277.840851)" fill="#00d7ff"/></g><g id="eNt6ad9JuQk4_to" transform="translate(11.549464,63.050272)"><path d="M11.9091,54.002l1.7367,17.8565c.0644.6782-.4315,1.2791-1.1082,1.347-.6782.0644-1.2791-.4314-1.347-1.1082L9.45419,54.2415c-.06427-.678.43097-1.2803,1.10851-1.3462s1.2786.4303,1.3464,1.1067Zm4.8563,1.4231l5.593,2.4319c.6242.2714.9093.9951.6378,1.6193l-2.4319,5.593c-.2714.6242-.9951.9093-1.6193.6378-.6242-.2714-.9093-.995-.6378-1.6193l1.9376-4.463-4.4609-1.9426c-.6242-.2714-.9093-.995-.6378-1.6193.2714-.6242.9951-.9092,1.6193-.6378ZM4.79269,62.0118L2.8533,66.4755l4.46261,1.9419c.62422.2714.90929.9951.63787,1.6193s-.99509.9093-1.61931.6379L0.740469,68.2431c-.624075-.2715-.909138-.9952-.637864-1.6193L2.53551,61.0304c.27142-.6243.99509-.9093,1.61931-.6379s.90928.9951.63787,1.6193Z" transform="translate(-11.549464,-63.050272)" fill="#00d7ff"/></g><g id="eNt6ad9JuQk5_to" transform="translate(253.334053,112.904316)"><path d="M253.337,106.261c-.54,1.484-1.881,2.394-3.378,2.525l-1.445,3.971c1.03-.183,2.122-.103,3.176.28l4.342,1.581c1.596.581,3.367-.245,3.948-1.841l.11-.303c-1.063-1.063-1.504-2.622-.964-4.105.727-1.999,2.936-3.029,4.935-2.302c1.999.728,3.028,2.937,2.301,4.935-.54,1.484-1.88,2.394-3.378,2.525l-.11.303c-1.164,3.198-4.698,4.846-7.896,3.682l-4.342-1.58c-1.596-.581-3.367.244-3.948,1.841l-.11.303c1.078,1.022,1.504,2.622.964,4.105-.727,1.999-2.936,3.029-4.935,2.301-1.998-.727-3.028-2.936-2.301-4.935.54-1.483,1.897-2.433,3.378-2.525l3.381-9.289c-1.061-1.062-1.505-2.622-.965-4.105.728-1.998,2.937-3.029,4.935-2.302c1.999.728,3.029,2.937,2.302,4.935Zm-4.014-.231c.6.218,1.263-.091,1.481-.69.218-.6-.091-1.263-.69-1.481-.6-.218-1.263.091-1.481.691-.218.599.091,1.262.69,1.48Zm13.816,2.57c-.602-.219-1.263.091-1.481.69-.218.6.089,1.262.691,1.481.601.219,1.262-.091,1.48-.691.218-.599-.089-1.261-.69-1.48Zm-19.61,13.35c.599.218,1.262-.089,1.481-.691.219-.601-.091-1.262-.691-1.48-.599-.218-1.261.089-1.48.69-.219.602.091,1.263.69,1.481Z" transform="translate(-253.334053,-112.904316)" fill="#00d7ff"/></g><g id="eNt6ad9JuQk6_to" transform="translate(332.702805,61.852701)"><rect width="19.7136" height="19.7136" rx="4.92841" ry="4.92841" transform="translate(-9.856797,-9.856802)" fill="none" stroke="#635bff" stroke-width="4.92841"/></g><g id="eNt6ad9JuQk7_to" transform="translate(125.441006,42.6403)"><rect width="24.642" height="24.642" rx="6.16051" ry="6.16051" transform="translate(-12.321003,-12.321)" fill="#635bff"/></g><g id="eNt6ad9JuQk8_to" transform="translate(487.679001,136.279999)"><rect width="24.642" height="24.642" rx="6.16051" ry="6.16051" transform="translate(-12.320999,-12.320999)" fill="#635bff"/></g><circle id="eNt6ad9JuQk9" r="2.4642" transform="translate(9.62265 228.688004)" fill="#00d7ff"/><circle id="eNt6ad9JuQk10" r="2.4642" transform="translate(226.464005 2.4642)" opacity="0" fill="#00d7ff"/><circle id="eNt6ad9JuQk11" r="2.4642" transform="translate(193.205994 221.294998)" opacity="0" fill="#00d7ff"/><circle r="4.92841" transform="translate(124.207001 143.673004)" fill="#00d7ff"/><circle r="4.92841" transform="translate(300.398987 269.346008)" opacity="0.81" fill="#00d7ff"/><circle r="4.92841" transform="translate(387.877991 136.279999)" fill="#00d7ff"/><circle id="eNt6ad9JuQk15" r="2.4642" transform="translate(395.270996 226.223007)" fill="#00d7ff"/></g></svg>
