<svg id="e4QMbThcgSL1" xmlns="http://www.w3.org/2000/svg" xmlns:xlink="http://www.w3.org/1999/xlink" viewBox="0 0 680 594" shape-rendering="geometricPrecision" text-rendering="geometricPrecision">
<style><![CDATA[
#e4QMbThcgSL3 {animation: e4QMbThcgSL3_c_o 3800ms linear 1 normal forwards}@keyframes e4QMbThcgSL3_c_o { 0% {opacity: 0;animation-timing-function: cubic-bezier(0.25,1,0.25,1)} 26.315789% {opacity: 1} 100% {opacity: 1}} #e4QMbThcgSL12 {animation: e4QMbThcgSL12_c_o 3800ms linear 1 normal forwards}@keyframes e4QMbThcgSL12_c_o { 0% {opacity: 0} 5.263158% {opacity: 0;animation-timing-function: cubic-bezier(0.25,1,0.25,1)} 31.578947% {opacity: 1} 100% {opacity: 1}} #e4QMbThcgSL18 {animation: e4QMbThcgSL18_c_o 3800ms linear 1 normal forwards}@keyframes e4QMbThcgSL18_c_o { 0% {opacity: 0} 10.526316% {opacity: 0;animation-timing-function: cubic-bezier(0.25,1,0.25,1)} 36.842105% {opacity: 1} 100% {opacity: 1}} #e4QMbThcgSL43 {animation: e4QMbThcgSL43_c_o 3800ms linear 1 normal forwards}@keyframes e4QMbThcgSL43_c_o { 0% {opacity: 0} 15.789474% {opacity: 0;animation-timing-function: cubic-bezier(0.25,1,0.25,1)} 42.105263% {opacity: 1} 100% {opacity: 1}} #e4QMbThcgSL60 {animation: e4QMbThcgSL60_c_o 3800ms linear 1 normal forwards}@keyframes e4QMbThcgSL60_c_o { 0% {opacity: 0} 21.052632% {opacity: 0;animation-timing-function: cubic-bezier(0.25,1,0.25,1)} 47.368421% {opacity: 1} 100% {opacity: 1}} #e4QMbThcgSL63 {animation: e4QMbThcgSL63_c_o 3800ms linear 1 normal forwards}@keyframes e4QMbThcgSL63_c_o { 0% {opacity: 0} 26.315789% {opacity: 0;animation-timing-function: cubic-bezier(0.25,1,0.25,1)} 52.631579% {opacity: 1} 100% {opacity: 1}} #e4QMbThcgSL68 {animation: e4QMbThcgSL68_c_o 3800ms linear 1 normal forwards}@keyframes e4QMbThcgSL68_c_o { 0% {opacity: 0} 31.578947% {opacity: 0;animation-timing-function: cubic-bezier(0.25,1,0.25,1)} 57.894737% {opacity: 1} 100% {opacity: 1}} #e4QMbThcgSL104 {animation: e4QMbThcgSL104_c_o 3800ms linear 1 normal forwards}@keyframes e4QMbThcgSL104_c_o { 0% {opacity: 0} 36.842105% {opacity: 0;animation-timing-function: cubic-bezier(0.25,1,0.25,1)} 63.157895% {opacity: 1} 100% {opacity: 1}} #e4QMbThcgSL144 {animation: e4QMbThcgSL144_c_o 3800ms linear 1 normal forwards}@keyframes e4QMbThcgSL144_c_o { 0% {opacity: 0} 42.105263% {opacity: 0;animation-timing-function: cubic-bezier(0.25,1,0.25,1)} 68.421053% {opacity: 1} 100% {opacity: 1}} #e4QMbThcgSL165 {animation: e4QMbThcgSL165_c_o 3800ms linear 1 normal forwards}@keyframes e4QMbThcgSL165_c_o { 0% {opacity: 0} 47.368421% {opacity: 0;animation-timing-function: cubic-bezier(0.25,1,0.25,1)} 73.684211% {opacity: 1} 100% {opacity: 1}} #e4QMbThcgSL213 {animation: e4QMbThcgSL213_c_o 3800ms linear 1 normal forwards}@keyframes e4QMbThcgSL213_c_o { 0% {opacity: 0} 52.631579% {opacity: 0;animation-timing-function: cubic-bezier(0.25,1,0.25,1)} 78.947368% {opacity: 1} 100% {opacity: 1}} #e4QMbThcgSL220 {animation: e4QMbThcgSL220_c_o 3800ms linear 1 normal forwards}@keyframes e4QMbThcgSL220_c_o { 0% {opacity: 0} 57.894737% {opacity: 0;animation-timing-function: cubic-bezier(0.25,1,0.25,1)} 84.210526% {opacity: 1} 100% {opacity: 1}} #e4QMbThcgSL232 {animation: e4QMbThcgSL232_c_o 3800ms linear 1 normal forwards}@keyframes e4QMbThcgSL232_c_o { 0% {opacity: 0} 63.157895% {opacity: 0;animation-timing-function: cubic-bezier(0.25,1,0.25,1)} 89.473684% {opacity: 1} 100% {opacity: 1}} #e4QMbThcgSL247 {animation: e4QMbThcgSL247_c_o 3800ms linear 1 normal forwards}@keyframes e4QMbThcgSL247_c_o { 0% {opacity: 0} 68.421053% {opacity: 0;animation-timing-function: cubic-bezier(0.25,1,0.25,1)} 94.736842% {opacity: 1} 100% {opacity: 1}} #e4QMbThcgSL280 {animation: e4QMbThcgSL280_c_o 3800ms linear 1 normal forwards}@keyframes e4QMbThcgSL280_c_o { 0% {opacity: 0} 73.684211% {opacity: 0;animation-timing-function: cubic-bezier(0.25,1,0.25,1)} 100% {opacity: 1}}
]]></style>
<g transform="translate(-16-32.200603)"><g id="e4QMbThcgSL3" opacity="0"><g><rect width="143.826996" height="168" rx="0" ry="0" transform="translate(104.087997 33)" fill="#e0f9ff"/><rect width="9.66309" height="9.66309" rx="0" ry="0" transform="translate(171.160995 62.611301)" fill="#ff8221"/><rect width="90.647499" height="7.2518" rx="0" ry="0" transform="translate(111.334999 104.915001)" fill="#0b9edd"/><rect width="79.769798" height="7.2518" rx="0" ry="0" transform="translate(111.334999 116.999001)" fill="#0b9edd"/><rect width="96.690598" height="7.2518" rx="0" ry="0" transform="translate(111.334999 131.503006)" fill="#0b9edd"/><rect width="32.028801" height="35.0504" rx="0" ry="0" transform="translate(204.401993 42.6684)" fill="none" stroke="#fff" stroke-width="7.2518"/><rect width="30.820101" height="7.2518" rx="0" ry="0" transform="translate(165.723999 165.343994)" fill="#0089c4"/></g></g><g id="e4QMbThcgSL12" opacity="0"><g><rect width="108.938004" height="167.597" rx="0" ry="0" transform="translate(254.529007 32.202099)" fill="#e0f9ff"/><rect width="10.7674" height="11.3656" rx="0" ry="0" transform="translate(304.80899 67.516602)" fill="#ffda00"/><rect width="11.9712" height="9.57698" rx="0" ry="0" transform="translate(283.251007 96.246597)" fill="#a2e9ff"/><rect width="11.9712" height="9.57698" rx="0" ry="0" transform="translate(283.251007 105.825996)" fill="#0b9edd"/></g></g><g id="e4QMbThcgSL18" opacity="0"><g><rect width="123.902" height="166.399994" rx="0" ry="0" transform="translate(374.049011 32.799801)" fill="#e0f9ff"/><g><rect width="82.601402" height="46.687801" rx="0" ry="0" transform="translate(394.998993 46.565899)" fill="#fff"/><circle r="1.79457" transform="translate(401.578003 54.345402)"/><circle r="1.79457" transform="translate(407.562988 54.345402)"/><circle r="1.79457" transform="translate(413.553009 54.345402)" fill="#ffda00"/><circle r="1.79457" transform="translate(463.834015 54.345402)" fill="#ff8221"/><circle r="1.79457" transform="translate(469.821014 54.345402)" fill="#ff8221"/><rect width="21.548201" height="3.59137" rx="0" ry="0" transform="translate(399.78299 60.334499)"/><rect width="11.9712" height="2.99281" rx="0" ry="0" transform="translate(399.78299 77.690399)" fill="#0b9edd"/><rect width="4.78553" height="2.99096" rx="0" ry="0" transform="translate(413.546997 77.690399)" fill="#ff8221"/><rect width="18.555401" height="2.99281" rx="0" ry="0" transform="translate(420.733002 77.690399)" fill="#a2e9ff"/><rect width="21.548201" height="2.99281" rx="0" ry="0" transform="translate(441.682007 77.690399)" fill="#a2e9ff"/><rect width="3.58915" height="2.99096" rx="0" ry="0" transform="translate(467.424011 77.690399)" fill="#a2e9ff"/><rect width="32.3223" height="4.78849" rx="0" ry="0" transform="translate(399.78299 67.516098)" fill="#006792"/><rect width="10.1693" height="4.78553" rx="0" ry="0" transform="translate(399.78299 85.4702)" fill="#006792"/><rect width="22.7453" height="4.78849" rx="0" ry="0" transform="translate(409.963989 85.4702)" fill="#004969"/><rect width="38.906502" height="4.78849" rx="0" ry="0" transform="translate(432.710999 85.4702)" fill="#006792"/><rect width="22.146799" height="3.59137" rx="0" ry="0" transform="translate(423.729004 60.334499)" fill="#0b9edd"/><rect width="14.3655" height="3.59137" rx="0" ry="0" transform="translate(448.265015 60.334499)" fill="#0b9edd"/><rect width="4.78553" height="3.58915" rx="0" ry="0" transform="translate(466.821991 60.334499)" fill="#006792"/></g><rect width="68.834503" height="7.7813" rx="0" ry="0" transform="translate(413.550995 123.779999)" fill="#0b9edd"/><rect width="68.834503" height="7.7813" rx="0" ry="0" transform="translate(413.550995 136.949997)" fill="#0b9edd"/></g></g><g id="e4QMbThcgSL43" opacity="0"><g><rect width="144" height="124.639" rx="0" ry="0" transform="translate(104 207.679993)" fill="#e0f9ff"/><rect width="9.67469" height="9.67469" rx="0" ry="0" transform="translate(171.759003 242.772003)" fill="#ffa660"/><rect width="9.67469" height="9.67469" rx="0" ry="0" transform="translate(185.070007 271.813995)" fill="#ffa660"/><rect width="9.67469" height="9.67469" rx="0" ry="0" transform="translate(145.134995 257.292999)" fill="#a2e9ff"/><rect width="9.67469" height="9.67469" rx="0" ry="0" transform="translate(158.445999 257.292999)" fill="#a2e9ff"/><rect width="9.67469" height="9.67469" rx="0" ry="0" transform="translate(171.759003 257.292999)" fill="#55cef4"/><rect width="9.67469" height="9.67469" rx="0" ry="0" transform="translate(171.759003 271.813995)" fill="#7fe1ff"/><rect width="9.67469" height="9.67469" rx="0" ry="0" transform="translate(185.070007 257.292999)" fill="#a2e9ff"/><rect width="9.67469" height="9.67469" rx="0" ry="0" transform="translate(198.382004 257.292999)" fill="#a2e9ff"/><rect width="9.67469" height="9.67469" rx="0" ry="0" transform="translate(198.382004 271.813995)" fill="#44d2fe"/><rect width="9.67469" height="9.67469" rx="0" ry="0" transform="translate(211.695999 257.292999)" fill="#79dfff"/><rect width="9.67469" height="9.67469" rx="0" ry="0" transform="translate(185.070007 242.772003)" fill="#0b9edd"/><rect width="9.67469" height="9.67469" rx="0" ry="0" transform="translate(198.382004 242.772003)" fill="#0b9edd"/><rect width="9.67469" height="9.67469" rx="0" ry="0" transform="translate(211.695999 242.772003)" fill="#ffa660"/><path d="M228.019,227.646h-21.782v5.444h-4.834v3.024h4.834v.002h21.782v-8.47Z" clip-rule="evenodd" fill="#fff" fill-rule="evenodd"/></g></g><g id="e4QMbThcgSL60" opacity="0"><g><rect width="109.347" height="124.800003" rx="0" ry="0" transform="translate(255.326004 207.600006)" fill="#e0f9ff"/></g></g><g id="e4QMbThcgSL63" opacity="0"><g><rect width="126.168999" height="149.600006" rx="0" ry="0" transform="translate(372.416992 209.699997)" fill="#e0f9ff"/><rect width="54.0723" height="102.737" rx="0" ry="0" transform="translate(378.424988 215.707993)" fill="#0b9edd"/><rect width="114.153" height="28.838499" rx="0" ry="0" transform="translate(378.424988 323.85199)" fill="#ff8221"/></g></g><g id="e4QMbThcgSL68" opacity="0"><g><rect width="139.199997" height="88.263603" rx="0" ry="0" transform="translate(17.399401 42.868198)" fill="#0a2240"/><g><path d="M56.5824,114.733c2.8676,0,5.7071-.565,8.3564-1.662c2.6494-1.097,5.0566-2.706,7.0843-4.733c2.0277-2.028,3.6361-4.435,4.7335-7.085c1.0974-2.649,1.6622-5.4885,1.6622-8.3561h-21.8364v21.8361Z" fill="#ff8221"/><path d="M71.0847,91.4705c0-1.9038-.375-3.789-1.1036-5.5479s-1.7964-3.3571-3.1426-4.7033-2.9444-2.414-4.7033-3.1426-3.6441-1.1036-5.548-1.1036v14.4974h14.4975Z" fill="#ace8fd"/><path d="M56.5872,107.392c1.9039,0,3.7891-.375,5.548-1.104c1.7589-.728,3.3571-1.796,4.7033-3.142c1.3462-1.347,2.414-2.945,3.1426-4.7037.7286-1.7589,1.1036-3.6441,1.1036-5.5479h-14.4975v14.4976Z" fill="#ffa660"/><path d="M33.249,92.8969c0,2.8676.5648,5.7071,1.6622,8.3561c1.0974,2.65,2.7058,5.057,4.7335,7.085c2.0277,2.027,4.435,3.636,7.0843,4.733s5.4888,1.662,8.3564,1.662v-21.8361h-21.8364Z" fill="#ffa660"/><path d="M54.7504,69.6372c-5.7913,0-11.3455,2.3006-15.4406,6.3957s-6.3957,9.6493-6.3957,15.4407h21.8363v-21.8364Z" fill="#a2e9ff"/><path d="M78.4188,91.4736c0-5.7914-2.3006-11.3456-6.3957-15.4407s-9.6493-6.3957-15.4407-6.3957v21.8364h21.8364Z" fill="#0b9edd"/><path d="M54.7432,81.125c-2.7436,0-5.3748,1.0899-7.3148,3.0299-1.9401,1.94-3.03,4.5713-3.03,7.3149h10.3448v-10.3448Z" fill="#006792"/><path d="M66.9249,91.4698c0-2.7436-1.0899-5.3749-3.0299-7.3149s-4.5713-3.0299-7.3149-3.0299v10.3448h10.3448Z" fill="#006792"/><g><g mask="url(#e4QMbThcgSL83)"><path d="M56.5801,103.239c2.7436,0,5.3749-1.09,7.3149-3.03c1.94-1.9396,3.0299-4.5708,3.0299-7.3144h-10.3448v10.3444Z" fill="#ffa660" stroke="#fff" stroke-width="0.720543"/><mask id="e4QMbThcgSL83" mask-type="luminance" x="-150%" y="-150%" height="400%" width="400%"><path d="M56.5801,103.239c2.7436,0,5.3749-1.09,7.3149-3.03c1.94-1.9396,3.0299-4.5708,3.0299-7.3144h-10.3448v10.3444Z" fill="#fff"/></mask></g></g><circle r="29.116199" transform="translate(55.085201 91.471001)" fill="none" stroke="#a2e9ff" stroke-width="1.80136" stroke-dasharray="3.6,7.21,10.81,14.41"/></g><path d="M108.851,91.4664c0,2.5365-2.057,4.5928-4.593,4.5928-2.537,0-4.593-2.0563-4.593-4.5928s2.056-4.5929,4.593-4.5929c2.536,0,4.593,2.0563,4.593,4.5929Zm-7.026,0c0,1.3439,1.089,2.4333,2.433,2.4333s2.433-1.0894,2.433-2.4333-1.089-2.4333-2.433-2.4333-2.433,1.0894-2.433,2.4333Z" fill="#ff8221"/><path d="M108.348,109.891c0,2.537-2.056,4.593-4.593,4.593s-4.5929-2.056-4.5929-4.593c0-2.536,2.0559-4.593,4.5929-4.593s4.593,2.057,4.593,4.593Zm-7.026,0c0,1.344,1.089,2.434,2.433,2.434s2.433-1.09,2.433-2.434-1.089-2.433-2.433-2.433-2.433,1.089-2.433,2.433Z" fill="#a2e9ff"/><rect width="4.48884" height="2.33661" rx="0" ry="0" transform="translate(110.445 92.547401)" fill="#0b9edd"/><rect width="8.06763" height="2.02991" rx="0" ry="0" transform="translate(99.7295 101.220001)" fill="#a2e9ff"/><rect width="7.50859" height="4.30506" rx="0" ry="0" transform="translate(100.007004 117.584999)" fill="#ffda00"/><rect width="4.48884" height="1.90581" rx="0" ry="0" transform="translate(119.300003 92.547401)" fill="#0b9edd"/><rect width="4.48884" height="1.90581" rx="0" ry="0" transform="translate(126.870003 92.547401)" fill="#0b9edd"/><rect width="4.48884" height="3.07411" rx="0" ry="0" transform="translate(136.158997 92.1763)" fill="#fff"/><rect width="4.48884" height="3.07411" rx="0" ry="0" transform="translate(142.688995 92.1763)" fill="#fff"/><rect width="25.5235" height="1.16962" rx="0" ry="0" transform="translate(108.853996 103.620003)" fill="#a2e9ff"/><rect width="19.185801" height="1.13828" rx="0" ry="0" transform="translate(109.348 108.512001)" fill="#a2e9ff"/><rect width="19.001301" height="1.08743" rx="0" ry="0" transform="translate(108.853996 113.405998)" fill="#a2e9ff"/><rect width="24.9783" height="1.08743" rx="0" ry="0" transform="translate(108.351997 118.213997)" fill="#a2e9ff"/><path d="M97.9431,66.4295l8.7099-5.0287l8.71,5.0287v10.0573l-8.71,5.0286-8.7099-5.0286v-10.0573Z" fill="none" stroke="#fff" stroke-width="1.81652"/><circle r="4.47466" transform="translate(136.908005 70.205101)" fill="#ffa660"/><ellipse rx="3.59658" ry="2.49725" transform="matrix(.71934 0.694658-.694658 0.71934 129.792007 74.191704)" fill="#ffa660"/><ellipse rx="3.59658" ry="2.49725" transform="matrix(-.71934 0.694658 0.694658 0.71934 143.776569 74.191768)" fill="#ffa660"/><rect width="129.141006" height="1.98859" rx="0" ry="0" transform="translate(20.533199 50.4263)" fill="#006792"/></g></g><g id="e4QMbThcgSL104" opacity="0"><g><rect width="139.199997" height="97.998398" rx="0" ry="0" transform="translate(17.399401 145)" fill="#0a2240"/><path d="M32.8281,231.936c0-.934.7577-1.692,1.6923-1.692h1.6083c.9346,0,1.6923.758,1.6923,1.692v3.811h-4.9929v-3.811Z" fill="#fff"/><path d="M40.2744,228.447c0-.935.7577-1.693,1.6923-1.693h1.6083c.9346,0,1.6923.758,1.6923,1.693v7.299h-4.9929v-7.299Z" fill="#fff"/><path d="M47.7119,223.725c0-.935.7577-1.692,1.6923-1.692h1.6113c.9347,0,1.6923.757,1.6923,1.692v12.026h-4.9959v-12.026Z" fill="#5ca8ce"/><path d="M56.002,216.239c0-.934.7576-1.692,1.6923-1.692h1.6113c.9346,0,1.6923.758,1.6923,1.692v19.512h-4.9959v-19.512Z" fill="#5ca8ce"/><path d="M64.0195,218.052c0-.935.7577-1.693,1.6923-1.693h1.6114c.9346,0,1.6923.758,1.6923,1.693v17.699h-4.996v-17.699Z" fill="#5ca8ce"/><path d="M72.9756,225.777c0-.935.7577-1.693,1.6923-1.693h1.6082c.9347,0,1.6923.758,1.6923,1.693v9.635h-4.9928v-9.635Z" fill="#ffa660"/><path d="M82.1875,218.052c0-.935.7577-1.693,1.6923-1.693h1.6113c.9347,0,1.6923.758,1.6923,1.693v17.366h-4.9959v-17.366Z" fill="#ffa660"/><path d="M90.1924,183.424c0-.935.7577-1.693,1.6923-1.693h1.6082c.9347,0,1.6923.758,1.6923,1.693v10.268h-4.9928v-10.268Z" fill="#fff"/><path d="M90.1924,193.699h4.9959v41.719h-4.9959v-41.719Z" fill="#5ca8ce"/><path d="M97.834,193.699h4.996v41.719h-4.996v-41.719Z" fill="#5ca8ce"/><path d="M97.834,179.614c0-.935.7577-1.693,1.6923-1.693h1.6117c.934,0,1.692.758,1.692,1.693v14.084h-4.996v-14.084Z" fill="#fff"/><circle r="2.54349" transform="translate(30.512199 211.220993)" fill="#fff"/><circle r="2.54349" transform="translate(44.567902 198.587997)" fill="#fff"/><circle r="2.54349" transform="translate(66.563004 204.175003)" fill="#fff"/><circle r="2.54349" transform="translate(83.117699 192.927002)" fill="#fff"/><circle r="2.54349" transform="translate(47.6558 181.729004)" fill="#fff"/><circle r="2.54349" transform="translate(71.555199 178.645996)" fill="#fff"/><circle r="2.54349" transform="translate(87.649902 163.162003)" fill="#fff"/><circle r="2.54349" transform="translate(100.376999 163.162003)" fill="#fff"/><rect width="1.5006" height="19.691601" rx="0" ry="0" transform="translate(29.755899 215.727005)" fill="#006792"/><rect width="1.99804" height="37.953999" rx="0" ry="0" transform="translate(29.755899 168.768997)" fill="#006792"/><rect width="10.3804" height="1.09289" rx="0" ry="0" transform="matrix(.71934-.694658 0.694658 0.71934 33.787102 208.350998)" fill="#ffa660"/><rect width="15.0437" height="1.09356" rx="0" ry="0" transform="matrix(.951057 0.309017-.309017 0.951057 48.2197 198.289993)" fill="#ffa660"/><rect width="12.1423" height="1.09356" rx="0" ry="0" transform="matrix(.777146-.62932 0.62932 0.777146 69.577103 202.317993)" fill="#006792"/><rect width="17.2106" height="1.0234" rx="0" ry="0" transform="matrix(.996195-.087156 0.087156 0.996195 51.307598 180.925003)" fill="#006792"/><rect width="14.4059" height="1.0234" rx="0" ry="0" transform="matrix(.656059-.75471 0.75471 0.656059 74.996101 176.636993)" fill="#ffa660"/><rect width="5.3372" height="1.02276" rx="0" ry="0" transform="translate(91.290001 162.251999)" fill="#ffa660"/><g><path d="M134.613,176.847c.838-1.681,1.143-3.577.873-5.435-.269-1.858-1.1-3.589-2.381-4.962-1.28-1.373-2.95-2.322-4.785-2.719-1.835-.398-3.747-.226-5.481.494-1.735.719-3.208,1.951-4.222,3.531-1.015,1.58-1.522,3.432-1.455,5.308.067,1.877.706,3.688,1.832,5.191c1.125,1.503,2.682,2.626,4.463,3.22l1.608-4.825c-.798-.266-1.496-.769-2-1.443-.504-.673-.791-1.484-.821-2.325-.03-.84.197-1.67.652-2.378.454-.708,1.114-1.26,1.891-1.582s1.634-.4,2.456-.222c.822.179,1.57.604,2.144,1.219s.946,1.391,1.066,2.223c.121.832-.015,1.682-.391,2.435l4.551,2.27Z" fill="#fff"/><path d="M122.325,181.012c1.087.531,2.268.843,3.476.917c1.207.075,2.418-.089,3.562-.482c1.144-.394,2.2-1.008,3.106-1.809.907-.801,1.647-1.773,2.178-2.86l-4.57-2.232c-.238.487-.569.922-.975,1.281s-.879.634-1.392.81c-.512.177-1.055.25-1.596.217-.541-.034-1.07-.173-1.557-.411l-2.232,4.569Z" fill="#ff8221"/></g><circle r="2.54349" transform="translate(146.526001 190.380005)" fill="#006792"/><circle r="2.54349" transform="translate(121.820999 230.242004)" fill="#fff"/><circle r="2.86225" transform="translate(142.371002 227.699005)" fill="#006792"/><circle r="2.86225" transform="translate(130.755005 201.783997)" fill="#006792"/><circle r="2.86225" transform="translate(146.524994 209.190002)" fill="#fff"/><circle r="3.67526" transform="translate(117.149002 213.365997)" fill="#fff"/><rect width="139.199997" height="1.1028" rx="0" ry="0" transform="translate(17.399401 153.408997)" fill="#006792"/></g></g><g id="e4QMbThcgSL144" opacity="0"><g><rect width="112" height="72.822197" rx="0" ry="0" transform="translate(496 42.588902)" fill="#0a2240"/><g><path d="M568.885,82.7531c.407,2.4282,1.708,4.6161,3.647,6.134c1.938,1.5178,4.374,2.2557,6.829,2.0686s4.751-1.2856,6.437-3.0796c1.687-1.7941,2.641-4.1539,2.675-6.6157.035-2.4618-.852-4.8476-2.487-6.6884s-3.9-3.0036-6.348-3.2597c-2.449-.2561-4.905.4129-6.885,1.8755-1.981,1.4626-3.343,3.6131-3.818,6.0288l4.531.892c.253-1.2845.977-2.4279,2.03-3.2057c1.053-.7777,2.359-1.1334,3.661-.9972s2.506.7544,3.376,1.7332c.869.9789,1.341,2.2474,1.322,3.5564-.018,1.3091-.525,2.5638-1.422,3.5178-.896.9539-2.117,1.538-3.423,1.6375-1.305.0995-2.6-.2929-3.631-1.0999s-1.723-1.9705-1.939-3.2616l-4.555.764Z" fill="#fff"/><path d="M590.414,66.146c-2.982-2.3583-6.593-3.7854-10.381-4.1029l-.642,7.6583c2.283.1913,4.459,1.0513,6.256,2.4724l4.767-6.0278Z" fill="#fff"/><path d="M597.705,79.9041c-.321-4.3897-2.13-8.5385-5.127-11.7612l-5.627,5.2342c1.806,1.942,2.896,4.4421,3.089,7.0874l7.665-.5604Z" fill="#fff"/><path d="M592.325,94.7516c3.269-3.383,5.193-7.8416,5.411-12.5408l-7.677-.3563c-.132,2.8318-1.291,5.5185-3.26,7.5572l5.526,5.3399Z" fill="#294f6d"/><path d="M580.579,100.532c3.518-.396,6.86-1.7496,9.661-3.9138l-4.698-6.0817c-1.688,1.3041-3.702,2.1199-5.822,2.3583l.859,7.6372Z" fill="#224a6d"/><path d="M567.406,97.2116c2.91,2.0157,6.318,3.1944,9.851,3.4064l.461-7.6712c-2.129-.128-4.182-.838-5.936-2.0527l-4.376,6.3175Z" fill="#254d6f"/><path d="M559.097,82.1529c.215,4.9393,2.313,9.6089,5.863,13.0494l5.348-5.519c-2.139-2.0733-3.404-4.8872-3.533-7.8637l-7.678.3333Z" fill="#254d6d"/><path d="M565.49,66.9317c-3.677,3.305-5.948,7.8927-6.348,12.8205l7.66.6207c.241-2.9695,1.61-5.7341,3.825-7.7257l-5.137-5.7155Z" fill="#ff8221"/><path d="M577.463,61.9992c-3.72.1839-7.307,1.4379-10.331,3.6113l4.485,6.2406c1.822-1.3097,3.984-2.0654,6.225-2.1762l-.379-7.6757Z" fill="#ff8221"/></g><g><path d="M504.562,71.8944l18.78-12.6675.147-.2175.088.0593.312-.2108.522.7734l18.182,12.2641h.224v7.8557h-5.198l-.003.0041-.006-.0041h-2.649v-1.787l-5.524-3.7256c-3.542-2.3891-8.179-2.3891-11.721,0l-5.299,3.574v1.9386h-7.855v-7.8557v0-.001Z" clip-rule="evenodd" fill="#a2e9ff" fill-rule="evenodd"/><ellipse rx="3.39389" ry="4.1705" transform="translate(523.880981 97.524498)" fill="#a2e9ff"/><path d="M512.948,82.3818h-8.386v7.4041v0c.686,0,1.354.2297,1.895.6526l9.111,7.1186l4.793-6.1343-4.852-3.7909c-1.616-1.2626-2.561-3.1992-2.561-5.2501v0Z" fill="#a2e9ff"/><path d="M534.81,82.3818h8.386v7.4041v0c-.687,0-1.354.2297-1.895.6526l-9.111,7.1186-4.793-6.1343l4.852-3.7909c1.616-1.2626,2.561-3.1992,2.561-5.2501v0Z" fill="#a2e9ff"/><path d="M523.261,90.424c.417.4617,1.141.4617,1.557,0l6.463-7.169c1.216-1.3485.259-3.4996-1.557-3.4996h-11.369c-1.815,0-2.772,2.1511-1.556,3.4996l6.462,7.169Z" fill="#ff8221"/></g><rect width="96.352402" height="1.37854" rx="0" ry="0" transform="translate(497.466003 50.888699)" fill="#006792"/><rect width="5.83335" height="1.72823" rx="0" ry="0" transform="translate(595.541016 50.713402)" fill="#ff8221"/></g></g><g id="e4QMbThcgSL165" opacity="0"><g><rect width="161.600006" height="107.373001" rx="0" ry="0" transform="translate(447.200012 196.313004)" fill="#0a2240"/><g><rect width="0.510031" height="47.549801" rx="0" ry="0" transform="translate(542.640991 217.237)" fill="#fff"/><rect width="0.736842" height="47.549801" rx="0" ry="0" transform="translate(559.476013 217.192993)" fill="#fff"/><rect width="1.04592" height="47.549801" rx="0" ry="0" transform="translate(576.234985 217.149994)" fill="#fff"/><rect width="1.03769" height="47.549801" rx="0" ry="0" transform="translate(590.789978 217.485992)" fill="#fff"/><rect width="64.992599" height="0.738017" rx="0" ry="0" transform="translate(526.83197 231.149002)" fill="#fff"/><rect width="69.344299" height="1.27273" rx="0" ry="0" transform="translate(527.388977 258.813995)" fill="#fff"/></g><g><path d="M588.341,264.79h-24.123l14.625-28.102l9.498,28.102Z" fill="#0b9edd"/><path d="M550.781,264.789h-21.58l10.293-17.122l11.287,17.122Z" fill="#0b9edd"/><path d="M577.545,264.788h-37.191l19.737-39.142l17.454,39.142Z" fill="#0b9edd"/><path d="M567.289,264.788h-16.503l8.886-16.132l7.617,16.132Z" fill="#ffa660"/><path d="M587.49,264.788h-20.205l10.88-21.475l9.325,21.475Z" fill="#ffa660"/><path d="M550.781,264.788h-21.58l15.656-13.805l5.924,13.805Z" fill="#ffa660"/></g><rect width="89.702003" height="8.78394" rx="0" ry="0" transform="translate(518.632019 208.451004)" fill="#ff8221"/><circle r="1.56338" transform="translate(479.332001 202.011993)" fill="#ff8221"/><circle r="1.56338" transform="translate(489.290009 202.011993)" fill="#ff8221"/><rect width="160.647003" height="2.56602" rx="0" ry="0" transform="translate(447.69101 205.884995)" fill="#006792"/><rect width="9.37917" height="53.567402" rx="0" ry="0" transform="translate(518.632019 218.712006)" fill="#a2e9ff"/><rect width="7.49593" height="83.1539" rx="0" ry="0" transform="matrix(0-1 1 0 518.632019 272.278992)" fill="#a2e9ff"/><rect width="4.27339" height="4.27339" rx="0" ry="0" transform="translate(595.46698 236.684998)" fill="#0b9edd"/><rect width="133.117004" height="12.333" rx="0" ry="0" transform="translate(475.223999 291.354004)" fill="#ffa660"/><g><path d="M451.086,214.794c0-.745.603-1.348,1.348-1.348h17.832v3.184h-17.832c-.745,0-1.348-.603-1.348-1.348v-.488Z" fill="#a2e9ff"/><path d="M451.086,228.04c0-.745.603-1.348,1.348-1.348h17.832v3.185h-17.832c-.745,0-1.348-.604-1.348-1.348v-.489Z" fill="#a2e9ff"/><path d="M470.274,226.692h11.898v3.183h-11.898v-3.183Z" fill="#5ca8ce"/><path d="M472.748,233.134h13.881v3.184h-13.881v-3.184Z" fill="#a8e1f7"/><path d="M486.628,233.134h8.649v3.182h-8.649v-3.182Z" fill="#64accc"/><path d="M482.177,226.692h16.123v3.185h-16.123v-3.185Z" fill="#4d8fb9"/><path d="M451.086,234.482c0-.745.603-1.348,1.348-1.348h20.311v3.184h-20.311c-.745,0-1.348-.603-1.348-1.348v-.488Z" fill="#a2e9ff"/><path d="M451.086,248.16c0-.744.603-1.348,1.348-1.348h10.442v3.183h-10.442c-.745,0-1.348-.604-1.348-1.348v-.487Z" fill="#5da3cd"/><path d="M451.086,221.235c0-.744.603-1.348,1.348-1.348h32.625c.744,0,1.348.604,1.348,1.348v.489c0,.744-.604,1.348-1.348,1.348h-32.625c-.745,0-1.348-.604-1.348-1.348v-.489Z" fill="#ffa660"/><path d="M490.821,221.406c0-.56.454-1.013,1.014-1.013h17.878c.559,0,1.013.453,1.013,1.013v0c0,.559-.454,1.013-1.013,1.013h-17.878c-.56,0-1.014-.454-1.014-1.013v0Z" fill="#006792"/><path d="M451.086,241.285c0-.744.603-1.347,1.348-1.347h56.945c.744,0,1.348.603,1.348,1.347v.489c0,.745-.604,1.348-1.348,1.348h-56.945c-.745,0-1.348-.603-1.348-1.348v-.489Z" fill="#a2e9ff"/><path d="M486.414,248.16c0-.744.604-1.348,1.348-1.348h21.624c.744,0,1.348.604,1.348,1.348v.489c0,.744-.604,1.348-1.348,1.348h-21.624c-.744,0-1.348-.604-1.348-1.348v-.489Z" fill="#ffa660"/><path d="M477.431,214.794c0-.745-.604-1.348-1.348-1.348h-5.811v3.181h5.811c.744,0,1.348-.603,1.348-1.348v-.485Z" fill="#60a9cf"/><path d="M510.729,228.04c0-.745-.603-1.348-1.347-1.348h-11.085v3.185h11.085c.744,0,1.347-.604,1.347-1.348v-.489Z" fill="#006792"/><path d="M510.729,234.482c0-.745-.603-1.348-1.347-1.348h-14.097v3.184h14.097c.744,0,1.347-.603,1.347-1.348v-.488Z" fill="#4b92ba"/><path d="M482.14,248.16c0-.744-.604-1.348-1.348-1.348h-17.906v3.185h17.906c.744,0,1.348-.604,1.348-1.348v-.489Z" fill="#006792"/><circle r="1.33762" transform="translate(483.248993 214.487)" fill="#a2e9ff"/><circle r="1.33762" transform="translate(489.688995 214.487)" fill="#a2e9ff"/><circle r="1.33762" transform="translate(496.130005 214.487)" fill="#ffa660"/><circle r="1.33762" transform="translate(502.717987 214.487)" fill="#ffda00"/><circle r="1.33762" transform="translate(509.165009 214.487)" fill="#006792"/></g><rect width="39.734299" height="4.89877" rx="0" ry="0" transform="translate(464.770996 278.605011)" fill="#0b9edd"/></g></g><g id="e4QMbThcgSL213" opacity="0"><g><rect width="72" height="34.753799" rx="0" ry="0" transform="translate(524 323.622986)" fill="#0a2240"/><path d="M562.226,336.386l9.816-5.668l9.816,5.668v11.334l-9.816,5.667-9.816-5.667v-11.334Z" fill="none" stroke="#a2e9ff" stroke-width="3.35618"/><path d="M572.048,336.923l4.438,2.563v5.124l-4.438,2.563-4.439-2.563v-5.124l4.439-2.563Z" fill="#0b9edd"/><path d="M537.584,336.385l9.816-5.667l9.816,5.667v11.335l-9.816,5.667-9.816-5.667v-11.335Z" fill="none" stroke="#ffa660" stroke-width="3.35618"/><path d="M547.415,336.923l4.438,2.562v5.125l-4.438,2.562-4.438-2.562v-5.125l4.438-2.562Z" fill="#ff8221"/></g></g><g id="e4QMbThcgSL220" opacity="0"><g><rect width="96" height="88.175499" rx="0" ry="0" transform="translate(16 253.912003)" fill="#fff"/><circle r="2.10438" transform="translate(24.504801 268.972992)"/><circle r="2.10438" transform="translate(32.3466 268.972992)"/><path d="M34.7671,279.648c2.3627-2.362,6.1933-2.362,8.556,0l4.6045,4.605c2.3627,2.363,2.3627,6.193,0,8.556l-4.6045,4.604c-2.3627,2.363-6.1933,2.363-8.556,0l-4.6045-4.604c-2.3626-2.363-2.3626-6.193,0-8.556l4.6045-4.605Z" fill="#ff8221"/><path d="M34.7671,303.661c2.3627-2.363,6.1933-2.363,8.556,0l4.6045,4.604c2.3627,2.363,2.3627,6.193,0,8.556l-4.6045,4.605c-2.3627,2.362-6.1933,2.362-8.556,0l-4.6045-4.605c-2.3626-2.363-2.3626-6.193,0-8.556l4.6045-4.604Z" fill="#ff8221"/><path d="M59.15,279.648c2.3626-2.362,6.1933-2.362,8.5559,0l4.6045,4.605c2.3627,2.363,2.3627,6.193,0,8.556l-4.6045,4.604c-2.3627,2.363-6.1933,2.363-8.5559,0l-4.6046-4.604c-2.3626-2.363-2.3626-6.193,0-8.556l4.6046-4.605Z" fill="#ff8221"/><path d="M59.15,303.661c2.3626-2.363,6.1933-2.363,8.5559,0l4.6045,4.604c2.3627,2.363,2.3627,6.193,0,8.556l-4.6045,4.605c-2.3627,2.362-6.1933,2.362-8.5559,0l-4.6046-4.605c-2.3626-2.363-2.3626-6.193,0-8.556l4.6046-4.604Z" fill="#ff8221"/><path d="M83.5259,279.648c2.3627-2.362,6.1933-2.362,8.556,0l4.6045,4.605c2.3627,2.363,2.3627,6.193,0,8.556l-4.6045,4.604c-2.3627,2.363-6.1933,2.363-8.556,0l-4.6045-4.604c-2.3627-2.363-2.3626-6.193,0-8.556l4.6045-4.605Z" fill="#ff8221"/><path d="M83.5259,303.661c2.3627-2.363,6.1933-2.363,8.556,0l4.6045,4.604c2.3627,2.363,2.3627,6.193,0,8.556l-4.6045,4.605c-2.3627,2.362-6.1933,2.362-8.556,0l-4.6045-4.605c-2.3627-2.363-2.3626-6.193,0-8.556l4.6045-4.604Z" fill="#ff8221"/><rect width="4.20876" height="4.20876" rx="0" ry="0" transform="translate(38.076199 266.868988)" fill="#ffda00"/></g></g><g id="e4QMbThcgSL232" opacity="0"><g><rect width="67.199997" height="66.087502" rx="0" ry="0" transform="translate(447.398987 115.456001)" fill="#fff"/><path d="M482.417,140.794l8.015,4.627v9.255l-8.015,4.627-8.015-4.627v-9.255l8.015-4.627Z" fill="#a2e9ff"/><path d="M468.599,140.794l8.014,4.627v9.255l-8.014,4.627-8.015-4.627v-9.255l8.015-4.627Z" fill="#a2e9ff"/><path d="M475.505,155.324l8.014,4.627v9.254l-8.014,4.628-8.015-4.628v-9.254l8.015-4.627Z" fill="#ffa660"/><path d="M489.689,128.702l8.015,4.627v9.255l-8.015,4.627-8.014-4.627v-9.255l8.014-4.627Z" fill="#fff"/><path d="M475.403,128.206l8.015,4.627v9.254l-8.015,4.627-8.014-4.627v-9.254l8.014-4.627Z" fill="#a2e9ff"/><path d="M468.288,133.352l7.115-4.108l7.115,4.108v8.216l-7.115,4.108-7.115-4.108v-8.216Z" fill="none" stroke="#000" stroke-width="1.79878"/><path d="M461.483,145.94l7.116-4.108l7.115,4.108v8.216l-7.115,4.108-7.116-4.108v-8.216Z" fill="none" stroke="#000" stroke-width="1.79878"/><path d="M475.302,145.94l7.115-4.108l7.115,4.108v8.216l-7.115,4.108-7.115-4.108v-8.216Z" fill="none" stroke="#000" stroke-width="1.79878"/><path d="M482.574,133.849l7.115-4.108l7.116,4.108v8.216l-7.116,4.108-7.115-4.108v-8.216Z" fill="none" stroke="#000" stroke-width="1.79878"/><g><path d="M498.442,141.999l8.015,4.627v9.254l-8.015,4.627-8.014-4.627v-9.254l8.014-4.627Z" fill="#ffa660"/><path d="M491.327,147.145l7.115-4.108l7.116,4.108v8.216l-7.116,4.108-7.115-4.108v-8.216Z" fill="none" stroke="#ff8221" stroke-width="1.79878"/></g></g></g><g id="e4QMbThcgSL247" opacity="0"><g><rect width="52.799999" height="49.429401" rx="4.29982" ry="4.29982" transform="translate(541.601013 133.285004)" fill="#fff"/><g><g><g><g><path d="M564.373,161.114v-2.675l3.715,1.095v2.504l-3.715-.924Z" fill="#f15637"/><path d="M566.241,158.699l-.503-1.008-1.365.49l1.868.518Z" fill="#f15637"/></g><g><path d="M572.037,161.114v-2.675l-3.715,1.095v2.504l3.715-.924Z"/><path d="M570.169,158.699l.503-1.008l1.365.489-1.868.519Z"/></g></g><g><g><path d="M567.446,154.252l-1.649-.979c-.149.49-.291,1.609.335,2.168-.149.275-.436.87-.391,1.049.68.089,2.082.588,2.25,1.874h.209v-4.247c-.341,0-.617.075-.754.135Z" fill="#f15637"/><path d="M567.696,158.874c.242-1.555-1.232-2.073-1.999-2.137l-.028.538c.289.009.932.088,1.186.331.317.303.33,1.103.841,1.268Z" fill="#f15637"/></g><g><path d="M567.446,154.252l-1.649-.979c-.149.49-.291,1.609.335,2.168-.149.275-.436.87-.391,1.049.68.089,2.082.588,2.25,1.874h.209v-4.247c-.341,0-.617.075-.754.135Z" fill="#f15637"/><path d="M567.696,158.874c.242-1.555-1.232-2.073-1.999-2.137l-.028.538c.289.009.932.088,1.186.331.317.303.33,1.103.841,1.268Z" fill="#f15637"/></g><path d="M567.446,154.253l-1.649-.979c-.149.489-.291,1.608.335,2.168-.149.275-.436.87-.391,1.049.68.088,2.082.587,2.25,1.874h.209v-4.248c-.341.001-.617.076-.754.136Z" fill="#f15637"/><path d="M567.696,158.871c.242-1.556-1.232-2.073-1.999-2.138l-.028.538c.289.009.932.089,1.186.331.317.304.33,1.104.841,1.269Z" fill="#f15637"/><g><path d="M568.956,154.252l1.649-.979c.149.49.29,1.609-.336,2.168.149.275.436.87.392,1.049-.681.089-2.083.588-2.25,1.874h-.21v-4.247c.341,0,.617.075.755.135Z"/><path d="M568.706,158.871c-.243-1.556,1.231-2.073,1.999-2.138l.027.538c-.289.009-.932.089-1.185.331-.317.304-.331,1.104-.841,1.269Z" stroke="#fff" stroke-width="0.022842"/></g><path d="M568.956,154.252l1.649-.979c.149.489.29,1.608-.336,2.168.149.275.436.87.392,1.049-.681.088-2.083.587-2.25,1.874h-.21v-4.248c.341.001.617.076.755.136Z"/><path d="M568.706,158.871c-.243-1.556,1.231-2.073,1.999-2.138l.027.538c-.289.009-.932.089-1.185.331-.317.304-.331,1.104-.841,1.269Z" stroke="#fff" stroke-width="0.048887"/><path d="M567.105,156.37l.257-.226.392.391-.242.227-.407-.392Z" fill="none" stroke="#fff" stroke-width="0.061109"/><path d="M569.302,156.37l-.256-.226-.392.391.241.227.407-.392Z" fill="none" stroke="#fff" stroke-width="0.061109"/></g><path d="M567.469,154.252l-1.649-.979c-.149.49-.291,1.609.336,2.168-.15.275-.437.87-.392,1.049.68.089,2.082.588,2.25,1.874h.21.209c.168-1.286,1.57-1.785,2.25-1.874.045-.179-.242-.774-.391-1.049.626-.559.485-1.678.335-2.168l-1.649.979c-.137-.06-.413-.135-.754-.135s-.618.075-.755.135Z" fill="none" stroke="#fff" stroke-width="0.047937"/></g></g><path d="M579.033,150c-1.324-1.798-3.075-3.239-5.095-4.192-2.02-.954-4.246-1.39-6.476-1.269s-4.395.795-6.301,1.961c-1.905,1.166-3.49,2.788-4.612,4.719s-1.747,4.111-1.817,6.343c-.07,2.233.417,4.448,1.416,6.445.999,1.998,2.479,3.716,4.307,4.999c1.829,1.283,3.947,2.092,6.166,2.352l.318-2.713c-1.768-.208-3.457-.852-4.914-1.875-1.458-1.023-2.638-2.392-3.434-3.984-.796-1.593-1.184-3.358-1.128-5.138s.553-3.517,1.448-5.057c.894-1.539,2.158-2.832,3.677-3.761c1.518-.929,3.244-1.467,5.022-1.563s3.552.251,5.162,1.011s3.006,1.909,4.061,3.342l2.2-1.62Z" fill="#a2e9ff"/><path d="M566.509,171.344c3.38.426,6.796-.446,9.559-2.439s4.668-4.959,5.33-8.3l-2.679-.532c-.529,2.664-2.047,5.028-4.249,6.617-2.203,1.588-4.925,2.283-7.619,1.944l-.342,2.71Z" fill="#ff8221"/><path d="M581.643,158.574c.146-3.331-.949-6.597-3.072-9.166l-2.106,1.74c1.692,2.048,2.565,4.652,2.449,7.306l2.729.12Z" fill="#ff8221"/><path d="M577.274,157.983c0,5.016-4.066,9.082-9.082,9.082s-9.083-4.066-9.083-9.082s4.067-9.083,9.083-9.083s9.082,4.067,9.082,9.083Zm-15.524,0c0,3.557,2.884,6.441,6.442,6.441c3.557,0,6.441-2.884,6.441-6.441c0-3.558-2.884-6.442-6.441-6.442-3.558,0-6.442,2.884-6.442,6.442Z"/></g></g><g id="e4QMbThcgSL280" transform="translate(0-.600917)" opacity="0"><g><rect width="480" height="365.393005" rx="17.5281" ry="17.5281" transform="translate(216 261.407013)" fill="#fafeff"/><path d="M216,278.73c0-9.68,7.848-17.528,17.528-17.528h444.944c9.68,0,17.528,7.848,17.528,17.528v293.933h-480v-293.933Z" fill="#004867"/><rect width="432.80899" height="269.662994" rx="0" ry="0" transform="translate(239.595993 282.100006)" fill="#e0f9ff"/></g></g></g></svg>
