<svg id="eNR0qZElab11" xmlns="http://www.w3.org/2000/svg" xmlns:xlink="http://www.w3.org/1999/xlink" viewBox="0 0 280 328" shape-rendering="geometricPrecision" text-rendering="geometricPrecision">
<style><![CDATA[
#eNR0qZElab13_to {animation: eNR0qZElab13_to__to 8000ms linear infinite normal forwards}@keyframes eNR0qZElab13_to__to { 0% {transform: translate(204.984505px,254.5391px)} 12.5% {transform: translate(204.984505px,120.9891px)} 18.75% {transform: translate(204.984505px,146.3291px)} 25% {transform: translate(204.984505px,120.9891px)} 31.25% {transform: translate(204.984505px,146.3291px)} 37.5% {transform: translate(204.984505px,120.9891px)} 43.75% {transform: translate(204.984505px,146.3291px)} 50% {transform: translate(204.984505px,120.9891px)} 56.25% {transform: translate(204.984505px,146.3291px)} 62.5% {transform: translate(204.984505px,120.9891px)} 68.75% {transform: translate(204.984505px,146.3291px)} 75% {transform: translate(204.984505px,120.9891px)} 81.25% {transform: translate(204.984505px,146.3291px)} 87.5% {transform: translate(204.984505px,120.9891px)} 100% {transform: translate(204.984505px,254.5391px)}}
]]></style>
<g transform="translate(-64.987137-41.653015)"><g id="eNR0qZElab13_to" transform="translate(204.984505,254.5391)"><g transform="translate(-204.984505,-121.6539)"><g><path d="M151.648,54.9874v-6.6666h6.667v6.6666h13.333v6.6665h6.666v6.6666h6.667v-6.6666h39.999v6.6666h6.667v-6.6666h6.667v-6.6665h13.333v-6.6666h6.666v6.6666h-6.666v6.6665h-6.667v6.6666h-6.666v6.6666h6.666v6.6665h6.667v6.6666h6.666v6.6666h6.667v19.9992h6.666v13.334h-13.333v6.666h-13.333v6.667h-26.666v-6.667h-26.666v6.667h-26.667v-6.667h-13.333v-6.666h-20v-13.334h6.667v-6.666h6.667v-6.667h-6.667v-6.6662h6.667v-6.6666h6.666v-6.6666h6.667v-6.6665h13.333v-6.6666h-6.667v-6.6666h-6.666v-6.6665h-6.667Z" fill="#ff7e31"/><path d="M164.983,188.323h-6.666v6.665h6.666v-6.665Z" fill="#ff7e31"/><path d="M171.65,201.653v-33.332h6.667v13.333h13.332v6.666h-6.666v6.667h6.666v6.666h-19.999Z" fill="#ff7e31"/><path d="M218.315,188.32v-6.666h13.332v13.332h-6.666v6.666h-6.666v-6.666h6.666v-6.666h-6.666Z" fill="#ff7e31"/></g><g><path d="M138.316,74.9851v-13.3318h6.666v6.6659h6.666v13.3318h-6.666v-6.6659h-6.666Z" fill="#fff"/><path d="M271.646,74.9851v-13.3318h-6.665v6.6659h-6.666v13.3318h6.666v-6.6659h6.665Z" fill="#fff"/><path d="M138.316,108.319v-6.665h6.666v6.665h-6.666Z" fill="#fff"/><path d="M138.316,141.653v-13.333h13.334v6.667h13.333v6.666h26.666v-6.666h26.666v6.666h26.667v-6.666h13.333v-6.667h13.333v6.667h-6.667v6.666h-6.666v6.667h-13.333v6.667h-13.334v6.666h-59.999v-6.666h-13.333v-6.667h-6.666v-6.667h-13.334Z" fill="#fff"/><path d="M178.318,181.652v-13.333h53.332v13.333h-13.333v6.667h-6.666v6.666h6.666v6.667h-6.666v-6.667h-13.333v6.667h-6.667v-20h-13.333Z" fill="#fff"/></g><g><path d="M164.985,134.986v-26.666h19.999v26.666h-19.999Z"/><path d="M244.985,108.32h-19.999v26.666h19.999v-26.666Z"/><path d="M191.649,148.319v-6.666h26.666v6.666h-6.666v6.667h-13.333v-6.667h-6.667Z"/><path d="M158.318,201.652h-6.666v-13.333h6.666v-19.999h6.667v-6.667h-13.333v-6.667h-6.667v-6.666h-6.667v-6.667h-6.666v-6.666h-6.667v-20h6.667v-19.9997h-6.667v-26.6662h6.667v-26.6663h26.666v6.6666h13.333v6.6665h6.667v6.6666h-6.667v-6.6666h-13.333v-6.6665h-6.666v13.3331h6.666v6.6666h6.667v6.6665h-6.667v-6.6665h-6.666v-6.6666h-6.667v-6.6666h-6.667v19.9997h-6.666v19.9997h6.666v19.9997h-6.666v20h6.666v6.666h6.667v6.667h6.667v6.666h13.333v6.667h6.666v6.667h-6.666v19.999h-6.667v13.333Z"/><path d="M244.985,188.319h6.667v6.667h-6.667v6.666h6.667v-6.666h6.666v-6.667h-6.666v-19.999h-6.667v-6.667h13.333v-6.667h6.667v-6.666h6.666v-6.667h6.667v-6.666h6.666v-20h-6.666v-19.9997h6.666v-26.6662h-6.666v-26.6663h-26.666v6.6666h-13.334v6.6665h-6.666v6.6666h6.666v-6.6666h13.334v-6.6665h6.666v13.3331h-6.666v6.6666h-6.667v6.6665h6.667v-6.6665h6.666v-6.6666h6.667v-6.6666h6.666v19.9997h6.667v19.9997h-6.667v19.9997h6.667v20h-6.667v6.666h-6.666v6.667h-6.667v6.666h-13.333v6.667h-6.667v6.667h6.667v19.999Z"/><path d="M224.984,54.9868h-39.998v6.6663h39.998v-6.6663Z"/></g><path d="M198.316,81.6523v-6.6655h13.331v6.6655h-13.331Z" fill="#f9d398"/><g><path d="M131.648,94.9845v-19.9977h6.666v13.3318h6.666v6.6659h-13.332Z" fill="#b8423f"/><path d="M178.316,161.651v6.667h-6.666v33.331h-13.333v-6.666h6.667v-26.665h6.666v-6.667h6.666Z" fill="#b8423f"/><path d="M218.315,194.983v-6.666h6.667v6.666h6.666v-33.332h6.666v6.667h6.667v19.999h6.666v6.666h-6.666v6.666h-19.999v-6.666h-6.667Z" fill="#b8423f"/><path d="M184.98,194.983v-6.665h6.666v6.665h-6.666Z" fill="#b8423f"/><path d="M151.646,61.6532v-6.6659h6.666v6.6659h6.666v6.6659h6.666v6.6659h-6.666v-6.6659h-6.666v-6.6659h-6.666Z" fill="#b8423f"/><path d="M178.315,68.3188v-6.6655h6.666v6.6655h-6.666Z" fill="#b8423f"/><path d="M224.983,68.3188v-6.6655h6.666v6.6655h-6.666Z" fill="#b8423f"/><path d="M251.647,54.9873h6.667v6.6665h-6.667v6.6665h-6.666v6.6665h6.666v6.6665h6.667v6.6665h13.333v-13.333h6.666v19.9995h-6.666v19.9997h6.666v19.999h-6.666v-19.999h-6.667v-19.9997h-6.666v-6.6665h-6.667v-6.6665h-6.666v-6.6665h-6.667v-6.6665h6.667v-6.6665h6.666v-6.6665Z" fill="#b8423f"/></g><g><path d="M138.317,61.6536v-6.6663h6.667v6.6663h6.666v6.6663h6.666v13.3327h-6.666v6.6663h-13.333v-13.3327h6.667v6.6664h6.666v-13.3327h-6.666v-6.6663h-6.667Z" fill="#db9d8b"/><path d="M264.98,61.6536v-6.6663h6.666v6.6663h-6.666v6.6663h-6.666v13.3327h6.666v-6.6664h6.666v13.3327h-13.332v-6.6663h-6.667v-13.3327h6.667v-6.6663h6.666Z" fill="#db9d8b"/><path d="M131.648,134.984v-6.666h6.666v6.666h-6.666Z" fill="#db9d8b"/><path d="M164.983,161.651v-6.666h6.666v6.666h-6.666Z" fill="#db9d8b"/><path d="M144.986,148.318v-6.666h6.666v6.666h6.665v6.665h-6.665v-6.665h-6.666Z" fill="#db9d8b"/><path d="M198.317,201.65v-6.666h13.332v-6.666h6.666v6.666h-6.666v6.666h-13.332Z" fill="#db9d8b"/><path d="M178.315,168.319v-6.666h53.332v-6.667h13.333v-6.666h13.333v-6.667h6.667v-6.666h6.666v6.666h-6.666v6.667h-6.667v6.666h-13.333v6.667h-13.333v6.666h-53.332Z" fill="#db9d8b"/></g></g></g><rect width="174.724232" height="90.998166" rx="0" ry="0" transform="matrix(1 0 0 1.564073 114.284884 175.3146)" fill="#feb16f" stroke-width="0"/><g><rect width="69.998497" height="116.664001" rx="0" ry="0" transform="translate(103.876999 221.875)" fill="#d68747"/><rect width="23.3319" height="31.109301" rx="0" ry="0" transform="translate(150.542007 198.542999)" fill="#ad713f"/><rect width="132.218994" height="124.442001" rx="0" ry="0" transform="translate(181.654999 214.098999)" fill="#feb16f"/><path d="M96.0999,182.988v-7.778h217.7741v7.778h7.778v7.777h7.778v7.778h7.777v7.778h7.778v7.777h-7.778v7.778h-132.22v-7.778h-7.777v-7.777h-7.778v-7.778h-7.778v-7.778h7.778v7.778h7.778v7.778h7.777v7.777h132.22v-7.777h-7.777v-7.778h-7.778v-7.778h-7.778v-7.777h-217.7741v7.777h-7.7777v7.778h-7.7776v7.778h-7.7777v7.777h77.7771v-7.777h7.777v-7.778h7.778v-7.778h7.778v7.778h-7.778v7.778h-7.778v7.777h-7.777v7.778h-77.7771v-7.778h-7.7776v-7.777h7.7776v-7.778h7.7777v-7.778h7.7776v-7.777h7.7777Z"/><path d="M88.3223,338.543v-116.665h7.7776v116.665h77.7771v-155.554h7.777v155.554h132.22v-116.665h7.778v116.665h-7.778v7.777h-217.7741v-7.777h-7.7776Z"/><path d="M189.433,190.767v-7.778h116.664v7.778h7.777v7.777h7.778v7.778h7.778v7.778h-38.888v-7.778h-7.778v7.778h-23.333v-7.778h-54.443v-7.778h-7.778v-7.777h-7.777Z" fill="#feb16f"/><path d="M80.5479,361.875v-7.777h248.8851v7.777h-15.555v7.778h-217.7748v-7.778h-15.5553Z" fill="#f6f8fd"/><path d="M64.9893,354.097v-7.778h279.9957v7.778h-279.9957Z" fill="#e2e9f7"/><path d="M103.877,338.541v-62.221h7.777v7.778h7.778v46.665h7.778v7.778h-23.333Z" fill="#de9150"/><path d="M166.098,229.653v-7.778h7.778v116.664h-7.778v-101.109h-7.778v-7.777h7.778Z" fill="#de9150"/><path d="M181.655,214.098v-7.778h7.778v7.778h7.777v7.778h7.778v7.777h109.081v108.887h-8.166v-101.109h-100.915v-7.778h-7.778v-7.777h-7.777v-7.778h-7.778Z" fill="#f5a765"/><path d="M88.3223,206.322v-7.778h7.7775v-7.777h15.5552v-7.778h54.443v7.778h-7.778v7.777h-7.777v7.778h-7.778v7.777h-23.333v-7.777h-7.777v7.777h-7.778v-7.777h-15.5547Z" fill="#f7a968"/><path d="M181.655,206.321v-7.778h7.778v7.778h7.777v7.777h7.778v7.778h108.887v7.777h-108.887v-7.777h-7.778v-7.778h-7.777v-7.777h-7.778Z" fill="#dd9254"/><path d="M103.877,229.653v-7.777h46.665v-7.778h7.778v-7.777h7.777v-7.778h7.778v7.778h-7.778v7.777h-7.777v7.778h-7.778v7.777h-46.665Z" fill="#a36c3c"/><path d="M103.877,237.432v-7.778h54.443v-7.777h7.777v-7.778h7.778v7.778h-7.778v7.777h-7.777v7.778h-54.443Z" fill="#c47c42"/><path d="M111.651,182.989v7.778h-15.5544v7.777h-7.7773v7.777h15.5547v7.778h-31.1094v-7.778h7.7774v-7.777h7.7773v-7.777h7.7773v-7.778h15.5544Z" fill="#ffe2c6"/><path d="M111.655,214.097v-7.777h7.777v7.777h-7.777Z" fill="#ffd4ab"/><path d="M212.765,214.098v-7.778h46.663v7.778h-46.663Z" fill="#ffd4ab"/><path d="M103.874,229.654h-7.7773v46.663h7.7773v-46.663Z" fill="#f3cfaf"/><path d="M103.873,315.208h-7.7763v7.776h7.7763v-7.776Z" fill="#fbe8d6"/><path d="M103.874,307.43h-7.7773v-31.11h7.7773v31.11Z" fill="#fbe8d6"/><path d="M158.319,237.434h-7.777v31.109h7.777v-31.109Z" fill="#db8d4b"/><path d="M142.768,214.099v-7.778h7.777v-7.777h7.777v-7.777h7.778v-7.778h7.777v7.778h-7.777v7.777h-7.778v7.777h-7.777v7.778h-7.777Z" fill="#db9051"/><path d="M306.093,190.767v-7.778h7.777v7.778h7.777v7.777h7.778v7.777h7.777v7.778h-7.777v-7.778h-7.778v-7.777h-7.777v-7.777h-7.777Z" fill="#eda061"/><path d="M181.655,190.767v-7.778h7.778v7.778h7.777v7.777h7.777v7.777h7.778v7.778h-7.778v-7.778h-7.777v-7.777h-7.777v-7.777h-7.778Z" fill="#fff1e2"/><path d="M96.0967,315.208v-7.776h7.7763v7.776h-7.7763Z" fill="#f7d8bb"/><path d="M96.0967,338.539v-15.554h7.7773v15.554h-7.7773Z" fill="#f7d8bb"/><path d="M181.655,307.431v-23.333h7.778v23.333h-7.778Z" fill="#febd84"/><path d="M181.655,237.432v-23.333h7.778v23.333h-7.778Z" fill="#fec18c"/><path d="M282.762,214.097v-7.777h7.776v7.777h-7.776Z" fill="#fec693"/></g></g></svg>
