<svg id="eMFHJ7ipPdY1" xmlns="http://www.w3.org/2000/svg" xmlns:xlink="http://www.w3.org/1999/xlink" viewBox="0 0 689 210" shape-rendering="geometricPrecision" text-rendering="geometricPrecision">
<style><![CDATA[
#eMFHJ7ipPdY3_to {animation: eMFHJ7ipPdY3_to__to 8000ms linear infinite normal forwards}@keyframes eMFHJ7ipPdY3_to__to { 0% {transform: translate(80.903px,83.388451px)} 25% {transform: translate(83.903px,87.388451px)} 50% {transform: translate(84.903px,84.388451px)} 75% {transform: translate(84.903px,88.388451px)} 100% {transform: translate(80.9px,83.39px)}} #eMFHJ7ipPdY7_to {animation: eMFHJ7ipPdY7_to__to 8000ms linear infinite normal forwards}@keyframes eMFHJ7ipPdY7_to__to { 0% {transform: translate(652.783997px,195.155502px)} 25% {transform: translate(651.783997px,194.155502px)} 50% {transform: translate(650.783997px,193.155502px)} 75% {transform: translate(652.783997px,193.155502px)} 100% {transform: translate(652.783997px,195.16px)}} #eMFHJ7ipPdY11_to {animation: eMFHJ7ipPdY11_to__to 8000ms linear infinite normal forwards}@keyframes eMFHJ7ipPdY11_to__to { 0% {transform: translate(497.769043px,60.740547px)} 25% {transform: translate(498.769043px,63.740547px)} 50% {transform: translate(501.769043px,63.740547px)} 75% {transform: translate(496.769043px,62.740547px)} 100% {transform: translate(497.77px,60.74px)}}
]]></style>
<g transform="translate(0-.882553)"><g id="eMFHJ7ipPdY3_to" transform="translate(80.903,83.388451)"><g transform="translate(-80.903,-83.388451)"><path d="M36.0777,66.4256l-.9848-6.7658L161.806,121.189L36.0777,66.4256Z" fill="#6d68d2"/><path d="M35.0806,59.6594L161.794,121.189L51.2451,45.5879L35.0806,59.6594Z" fill="#a9a5ff"/><path d="M0,93.2972L27.8732,62.7066L161.244,120.956L0,93.2972Z" fill="#a9a5ff"/></g></g><g id="eMFHJ7ipPdY7_to" transform="translate(652.783997,195.155502)"><g transform="translate(-652.783997,-195.155502)"><path d="M624.924,191.476l-1.993-2.523L689,184.248l-64.076,7.228Z" fill="#d78a97"/><path d="M622.927,188.952l66.069-4.705-62.798-4.82-3.271,9.525Z" fill="#f2bfc8"/><path d="M616.568,210.884l4.15-19.001l68.008-7.603-72.158,26.604Z" fill="#f2bfc8"/></g></g><g id="eMFHJ7ipPdY11_to" transform="translate(497.769043,60.740547)"><g transform="translate(-497.769043,-60.740547)"><path d="M435.319,71.3794l-5.748-5.1213l153.8-38.5284L435.319,71.3794Z" fill="#27c4e1"/><path d="M429.58,66.2582l153.8-38.5284L433.326,42.4446L429.58,66.2582Z" fill="#6fddef"/><path d="M423.699,120.6l1.879-46.5175L582.743,27.9146L423.699,120.6Z" fill="#abf3fe"/><path d="M541.141,35.3404c.082.1516.186.3431.191.3425.009-.0012.014-.0102.02-.0215.008-.0165.02-.0381.051-.0468c10.067-2.817,11.898-4.4826,12.267-4.8181.048-.0435.071-.0646.084-.063l.104.0127-2.028-2.6294-.705-.6513.432-.3963-.36-1.3821c-.217-.5512-.418-1.207-.366-1.3046.112-.1591.367-.4537.374-.4616l.033-.0385-.17-.2931.534-1.3598c.038-.0245.076-.0498.112-.0759.371-.2626.683-.5996.916-.9894.234-.3899.383-.8241.438-1.2748l.606-4.6988-.079.0075l1.428-3.8036c.059-.1601.053-.3375-.017-.4932-.071-.1556-.201-.2769-.361-.3371l-1.021-.3825c-.16-.0598-.338-.0537-.494.0171s-.277.2003-.337.3604l-1.757,4.6796c-.025.0673-.039.1375-.041.2079l-.293.0281-1.062,1.4811-.151-.0816-.396-2.0187-1.876-2.8167-3.338-1.4607-2.737.3695-2.135,2.5282c-1.978,1.2661-1.834,3.3739-1.119,5.6099l.992,6.6436.859,3.2735-.644.824.513.4006.463,1.5217-.062,1.7953c-.02,1.5363.852,1.6011,1.012,1.613.009.0007.016.0012.02.0018c0,0,.047.0822.1.1811Z" fill="#1b457b"/><path d="M543.055,10.0688c2.165-.26556,3.705-2.23423,3.439-4.39713s-2.237-3.701-4.402-3.43543-3.704,2.23424-3.438,4.39715c.265,2.1629,2.236,3.70101,4.401,3.43541Z" fill="#f37e77"/><path d="M552.319,11.1582l-1.977,5.357.926.3893-2.196,3.2085l2.381,1.7875c0,0,2.465-5.439,2.543-5.6473.279-.0752.528-.2332.715-.453s.303-.4911.332-.7781c.029-.2869-.03-.5759-.169-.8287-.139-.2529-.351-.4577-.609-.5873-.134-.0673-.276-.1127-.423-.1353.18-1.0067.324-1.8185.333-1.8981.252-.1408.455-.3548.583-.6135.127-.2587.173-.55.131-.8353-.041-.28538-.169-.55136-.365-.76277s-.452-.35828-.734-.4212-.576-.03892-.844.06884-.496.29418-.656.53462c-.159.24044-.242.52351-.237.81191.006.2883.098.5683.266.8029Z" fill="#f37e77"/><path d="M551.425,65.3265l1.894.5887l3.175-7.0197-2.796-.869-2.273,7.3Z" fill="#f37e77"/><path d="M574.408,52.9468l-1.83.7642-2.951-7.0538l2.702-1.1281l2.079,7.4177Z" fill="#f37e77"/><path d="M540.328,8.78441c.219-.03217.443.01346.631.12892l.132.08147-.239-.7759c-.151-.51539-.127-1.06638.068-1.56682s.551-.92212,1.012-1.1991l.114-.07336-.107-.04103c-.033-.01306-.062-.03753-.079-.06916-.018-.03163-.024-.06844-.017-.10403.006-.03559.025-.06772.053-.09081s.063-.03571.1-.03563l.115.00018c.078-.00003.155-.0227.221-.06529.065-.04259.117-.10328.149-.17474s.043-.15067.031-.22806-.046-.14966-.098-.20811c.411.11399.84.15246,1.265.11356.612-.07978,1.108-.44349,1.263-.92666.037-.11999.054-.24549.049-.37109.679.17541,1.122.89643,1.126.90399l.244.40315-.139-.45025c-.233-.75712-.533-1.49239-.895-2.19743-.505-.882041-2.191-1.172751-4.624-.79561-2.377.36753-2.572,3.14989-2.585,3.41839-.454.55805-.232,1.3562-.048,2.01771.058.2093.112.40492.14.57493.245,1.48831,1.232,2.15417,1.648,2.08764.033-.00092.066-.01005.094-.02659.029-.01654.053-.03995.07-.06811.03-.06287.072-.11875.125-.16395s.115-.07867.181-.09821Z" fill="#2f2e41"/><path d="M541.163,35.1477c.199,1.2555,3.01,4.1458,4.763,4.9672.313.6034.647,1.0916.969,1.3577l.328.1686.109.0407c.968,2.2282,9.142,8.09,9.142,8.09-2.092,3.4606-3.829,7.5824-4.285,12.0178l2.996.695l6.593-13.0294c.173-.3412.238-.7267.187-1.1057s-.215-.7338-.472-1.0177l-3.869-4.2824-3.873-5.6711.049-.0217c1.242.5384,4.738.4607,7.594.286c2.273-.1394,3.675.8845,3.675.8845c1.211,4.6833,3.384,8.0159,5.945,11.9439.16.2443.32.4909.483.7403l2.598-.787-4.582-16.5672c-.099-.3578-.301-.6786-.581-.9227-.28-.244-.626-.4005-.994-.4499l-18.624-2.5019c0,0-1.017-.0579-2.992,1.211-.847.5445-1.614,1.0048-2.282,1.4058-1.895,1.1374-2.995,1.7976-2.877,2.5482Z" fill="#2f2e41"/><path d="M573.314,55.6483l5.63-2.3503-.03-.0711c-.243-.5805-.707-1.0408-1.289-1.2798-.583-.2389-1.237-.2369-1.818.0056l-1.354-.35-1.593,1.5804-.491.2052.945,2.26Z" fill="#2f2e41"/><path d="M550.743,67.2725l5.826,1.8106.023-.0735c.187-.6008.127-1.2512-.166-1.8082s-.795-.9749-1.396-1.1619l-.813-1.1373-2.237.1894-.509-.158-.728,2.3389Z" fill="#2f2e41"/><path d="M553.434,10.3734c-.087-.0323-.182-.029-.266.0092s-.15.1079-.182.1942l-1.757,4.6796c-.032.0864-.029.1819.01.2658.038.0839.108.1492.194.1817l1.021.3825c.086.0322.182.0289.266-.0092s.149-.108.182-.1942l1.756-4.6797c.033-.0863.029-.1819-.009-.2658s-.108-.1492-.194-.1816l-1.021-.3825Z" fill="#4059fd"/><path d="M436.107,33.3806l-2.234-5.7597c-.077-.1971-.071-.4164.014-.6097s.244-.345.441-.4216l1.257-.4865c.197-.0761.417-.071.61.0144.194.0853.345.2439.422.4408l2.235,5.7597c.076.1971.071.4164-.015.6098-.085.1933-.244.3449-.441.4215l-1.257.4865c-.197.0761-.416.071-.61-.0144-.194-.0853-.345-.2438-.422-.4408Z" fill="#3f3d56"/><path d="M446.194,21.5363c2.488,0,4.505-2.0149,4.505-4.5002c0-2.4854-2.017-4.5002-4.505-4.5002s-4.505,2.0148-4.505,4.5002s2.017,4.5002,4.505,4.5002Z" fill="#ffb6b6"/><path d="M437.059,28.2795c-.358-.3965-.856-.6378-1.389-.6726-.018-.0014-.036-.0025-.054-.0034-.257-.0124-.514.0258-.756.1124s-.464.2201-.655.3927c-.19.1726-.344.3809-.454.6131-.11.2323-.173.4838-.185.7404-.018.4509.114.8951.376,1.263.06.0838.125.1626.196.2358.054.2916.17.5698.344.8144.262.368.638.639,1.07.7709l5.237,3.8455l3.347-1.479-1.203-.7573.663-.2929-5.49-3.4555c-.058-.3985-.233-.7741-.507-1.0773-.015-.0168-.03-.0334-.046-.0498-.068-.3698-.238-.7168-.494-1.0004Z" fill="#ffb6b6"/><path d="M449.558,45.4005h-8.486v-8.477h8.486v8.477Z" fill="#ffb6b6"/><path d="M420.951,61.8918l-3.241-1.0892-1.804,8.8124l2.195.7379l2.85-8.4611Z" fill="#ffb6b6"/><path d="M423.376,60.9981l3.328-.7861l2.056,8.6875-2.254.5327-3.13-8.4341Z" fill="#ffb6b6"/><path d="M451.836,15.5603c.042-2.1436-1.471-3.911-3.378-3.9477-.86-2.15907-8.711-.7192-7.697,4.5458.626.2925,1.236.439,1.787.0343l.355-1.0709-.021,1.0773c1.415-.1968,3.392,1.1958,2.58,2.3687-.915,1.3203-.999,2.8362-.659,4.3956.473-.2647.951-.5078,1.431-.7292l.565-1.5154.25,1.1637c1.892-.7709,2.395-.8751,4.553-1.1253c1.179-1.9252,1.646-3.7256.234-5.1969Z" fill="#193c76"/><path d="M449.258,47.617c1.701,11.327-20.948,4.6303-20.948,4.6303l-.959,1.3226-.47,7.1412-3.591,1.1327c0,0-.166-.6452-.435-2.0783l-1.646,2.2682-4.157-.7551c0,0,1.87-5.875,5.211-13.7509c1.484-3.4976,18.331-2.643,18.331-2.643l.349-2.7424l9.638-.1888-1.323,5.6635Z" fill="#193c76"/><path d="M417.661,71.6507l1.444.1884.23-4.9153-3.191-.6116-.18,1.3768-3.334,1.7108c-.165.0845-.298.2193-.381.3849-.082.1655-.11.3531-.078.5352s.121.3495.255.4775c.133.128.304.2099.488.2338l3.829.4998.838-1.2757.08,1.3954Z" fill="#193c76"/><path d="M429.593,71.0483l-1.444.1856-.433-1.329-.485,1.447-3.83.4925c-.184.0236-.37-.0121-.532-.1018-.162-.0896-.291-.2287-.368-.3968-.077-.168-.099-.3564-.061-.5375.037-.1811.132-.3454.269-.4691l2.787-2.5036-.177-1.3771l3.242-.2217l1.032,4.8115Z" fill="#193c76"/><path d="M443.158,23.7752c-.478.5954-.701,1.3558-.62,2.1148l-3.593,5.2838.773,12.5486c2.457,3.6009,5.779,3.1229,9.323,1.8397.397-.1434.759-.3715,1.059-.6685s.532-.6558.68-1.0514c.147-.3956.206-.8185.173-1.2393-.032-.4208-.157-.8295-.363-1.1975l-.577-1.0234c-.037-.1711-.049-.3451-.036-.5168.266-.2315.489-.5125.655-.8299.282-.5435.381-1.1642.28-1.7685l-.175-.9976c.609-4.2687.358-8.6204-.742-12.7982l-1.208-.5561-.243-2.0628-2.436.1056-1.426,1.831c-.597.1559-1.133.4999-1.524.9865Z" fill="#4059fd"/><path d="M434.358,27.0544c.046-.1041.131-.1858.237-.2271l1.257-.4865c.106-.041.225-.0382.329.0077s.186.1315.227.2376l2.235,5.7596c.041.1063.038.2245-.008.3286s-.132.1859-.238.2272l-1.256.4865c-.107.041-.225.0383-.329-.0077-.105-.046-.186-.1315-.228-.2376l-2.234-5.7596c-.041-.1063-.038-.2245.008-.3287Z" fill="#4059fd"/></g></g></g></svg>
