<svg id="e4NQ2bPRIVf1" xmlns="http://www.w3.org/2000/svg" xmlns:xlink="http://www.w3.org/1999/xlink" viewBox="0 0 600 600" shape-rendering="geometricPrecision" text-rendering="geometricPrecision">
<style><![CDATA[
#e4NQ2bPRIVf3_tr {animation: e4NQ2bPRIVf3_tr__tr 32000ms linear infinite normal forwards}@keyframes e4NQ2bPRIVf3_tr__tr { 0% {transform: translate(443.998672px,443.982941px) rotate(0deg)} 50% {transform: translate(443.998672px,443.982941px) rotate(-180deg)} 100% {transform: translate(443.998672px,443.982941px) rotate(0deg)}} #e4NQ2bPRIVf4_tr {animation: e4NQ2bPRIVf4_tr__tr 32000ms linear infinite normal forwards}@keyframes e4NQ2bPRIVf4_tr__tr { 0% {transform: translate(443.996506px,443.987503px) rotate(0deg)} 50% {transform: translate(443.996506px,443.987503px) rotate(180deg)} 100% {transform: translate(443.996506px,443.987503px) rotate(0deg)}} #e4NQ2bPRIVf5_tr {animation: e4NQ2bPRIVf5_tr__tr 32000ms linear infinite normal forwards}@keyframes e4NQ2bPRIVf5_tr__tr { 0% {transform: translate(443.998474px,443.98848px) rotate(0deg)} 50% {transform: translate(443.998474px,443.98848px) rotate(-180deg)} 100% {transform: translate(443.998474px,443.98848px) rotate(0deg)}} #e4NQ2bPRIVf6_tr {animation: e4NQ2bPRIVf6_tr__tr 32000ms linear infinite normal forwards}@keyframes e4NQ2bPRIVf6_tr__tr { 0% {transform: translate(444.001984px,443.993454px) rotate(0deg)} 50% {transform: translate(444.001984px,443.993454px) rotate(180deg)} 100% {transform: translate(444.001984px,443.993454px) rotate(0deg)}} #e4NQ2bPRIVf7_tr {animation: e4NQ2bPRIVf7_tr__tr 32000ms linear infinite normal forwards}@keyframes e4NQ2bPRIVf7_tr__tr { 0% {transform: translate(444.003998px,443.975983px) rotate(0deg)} 50% {transform: translate(444.003998px,443.975983px) rotate(-180deg)} 100% {transform: translate(444.003998px,443.975983px) rotate(0deg)}}
]]></style>
<defs><linearGradient id="e4NQ2bPRIVf3-fill" x1="801.48" y1="1249.32" x2="188.61" y2="1236.57" spreadMethod="pad" gradientUnits="userSpaceOnUse" gradientTransform="translate(0 0)"><stop id="e4NQ2bPRIVf3-fill-0" offset="0%" stop-color="#635bff"/><stop id="e4NQ2bPRIVf3-fill-1" offset="100%" stop-color="#00d7ff"/></linearGradient><linearGradient id="e4NQ2bPRIVf4-fill" x1="790.063" y1="1223.61" x2="196.764" y2="1211.27" spreadMethod="pad" gradientUnits="userSpaceOnUse" gradientTransform="translate(0 0)"><stop id="e4NQ2bPRIVf4-fill-0" offset="0%" stop-color="#635bff"/><stop id="e4NQ2bPRIVf4-fill-1" offset="100%" stop-color="#00d7ff"/></linearGradient><linearGradient id="e4NQ2bPRIVf5-fill" x1="777.975" y1="1196.37" x2="205.403" y2="1184.46" spreadMethod="pad" gradientUnits="userSpaceOnUse" gradientTransform="translate(0 0)"><stop id="e4NQ2bPRIVf5-fill-0" offset="0%" stop-color="#635bff"/><stop id="e4NQ2bPRIVf5-fill-1" offset="100%" stop-color="#00d7ff"/></linearGradient><linearGradient id="e4NQ2bPRIVf6-fill" x1="767.559" y1="1172.9" x2="212.85" y2="1161.36" spreadMethod="pad" gradientUnits="userSpaceOnUse" gradientTransform="translate(0 0)"><stop id="e4NQ2bPRIVf6-fill-0" offset="0%" stop-color="#635bff"/><stop id="e4NQ2bPRIVf6-fill-1" offset="100%" stop-color="#00d7ff"/></linearGradient><linearGradient id="e4NQ2bPRIVf7-fill" x1="755.91" y1="1146.64" x2="221.175" y2="1135.52" spreadMethod="pad" gradientUnits="userSpaceOnUse" gradientTransform="translate(0 0)"><stop id="e4NQ2bPRIVf7-fill-0" offset="0%" stop-color="#635bff"/><stop id="e4NQ2bPRIVf7-fill-1" offset="100%" stop-color="#00d7ff"/></linearGradient></defs><g transform="translate(-143.998672-143.98294)" opacity="0.3"><g id="e4NQ2bPRIVf3_tr" transform="translate(443.998672,443.982941) rotate(0)"><path d="M340.15,162.518c18.115-6.662,37.141-11.663,56.925-14.797c19.785-3.134,39.425-4.256,58.711-3.518.554.021.986.487.965,1.041s-.487.986-1.041.965c-19.157-.733-38.666.382-58.321,3.495s-38.553,8.081-56.546,14.698c-.52.191-1.097-.076-1.288-.596s.075-1.097.595-1.288Zm-98.361,61.23c.376.407.352,1.042-.055,1.419-28.689,26.568-51.943,58.574-68.345,94.069-.233.503-.829.723-1.332.49-.504-.232-.723-.829-.49-1.332c16.512-35.733,39.922-67.954,68.803-94.7.407-.377,1.042-.352,1.419.054Zm326.466-51.707c.233-.503.829-.723,1.332-.49c35.733,16.512,67.954,39.922,94.701,68.804.376.407.352,1.042-.055,1.418-.406.377-1.042.352-1.418-.054-26.568-28.689-58.575-51.944-94.07-68.346-.503-.232-.722-.829-.49-1.332ZM145.26,431.23c.553.022.985.488.964,1.042-.733,19.156.382,38.665,3.495,58.32s8.082,38.554,14.698,56.546c.192.52-.075,1.097-.595,1.289-.521.191-1.098-.076-1.289-.596-6.661-18.115-11.663-37.14-14.796-56.925-3.134-19.784-4.256-39.424-3.519-58.711.021-.554.488-.986,1.042-.965Zm578.916-91.691c.52-.191,1.097.076,1.288.596c6.661,18.114,11.663,37.14,14.796,56.925c3.134,19.784,4.257,39.424,3.519,58.711-.021.554-.487.986-1.041.964-.554-.021-.986-.487-.965-1.041.733-19.156-.382-38.665-3.495-58.32s-8.082-38.554-14.698-56.546c-.191-.521.075-1.097.596-1.289ZM223.764,646.193c.407-.377,1.042-.353,1.418.054c26.568,28.689,58.575,51.943,94.07,68.346.503.232.722.829.49,1.332-.233.503-.829.722-1.332.49-35.733-16.512-67.954-39.922-94.701-68.804-.376-.407-.352-1.042.055-1.418ZM715.94,568.24c.504.232.723.829.491,1.332-16.513,35.733-39.923,67.954-68.804,94.7-.407.377-1.042.352-1.419-.054-.376-.407-.352-1.042.055-1.419c28.689-26.568,51.943-58.574,68.345-94.069.233-.504.829-.723,1.332-.49ZM431.246,742.722c.021-.554.487-.986,1.041-.965c19.157.733,38.666-.382,58.321-3.495s38.553-8.081,56.546-14.698c.52-.191,1.097.076,1.288.596.192.52-.075,1.097-.595,1.288-18.115,6.662-37.14,11.663-56.925,14.797-19.785,3.133-39.425,4.256-58.711,3.518-.554-.021-.986-.487-.965-1.041Z" transform="translate(-443.998672,-443.982941)" clip-rule="evenodd" fill="url(#e4NQ2bPRIVf3-fill)" fill-rule="evenodd"/></g><g id="e4NQ2bPRIVf4_tr" transform="translate(443.996506,443.987503) rotate(0)"><path d="M361.546,165.705c11.999-3.539,24.365-6.343,37.052-8.352c12.688-2.01,25.314-3.164,37.82-3.507.444-.012.813.338.825.781s-.338.812-.781.825c-12.436.34-24.993,1.488-37.612,3.487s-24.917,4.787-36.85,8.306c-.425.126-.872-.117-.997-.543-.126-.425.118-.872.543-.997Zm149.249-3.387c.104-.431.538-.697.969-.593c24.833,5.973,48.589,15.176,70.713,27.209.389.212.534.7.322,1.089-.212.39-.7.534-1.089.322-22.003-11.967-45.626-21.119-70.322-27.058-.431-.104-.696-.538-.593-.969ZM293.427,196.746c.232.378.113.872-.265,1.104-21.651,13.28-41.29,29.285-58.518,47.465-.305.322-.813.335-1.135.03s-.336-.813-.03-1.135c17.323-18.281,37.071-34.374,58.844-47.729.378-.232.872-.113,1.104.265ZM642.639,233.5c.305-.322.814-.336,1.135-.031c18.281,17.323,34.375,37.072,47.729,58.845.232.378.114.872-.264,1.104s-.873.113-1.105-.265c-13.279-21.651-29.284-41.29-47.464-58.518-.322-.305-.336-.813-.031-1.135ZM190.032,305.186c.39.212.534.699.322,1.089-11.967,22.002-21.119,45.626-27.058,70.321-.104.431-.538.697-.969.593-.431-.103-.696-.537-.593-.968c5.973-24.834,15.176-48.589,27.209-70.713.212-.39.7-.534,1.089-.322Zm531.25,55.808c.426-.126.872.117.998.543c3.539,11.999,6.342,24.364,8.352,37.052c2.009,12.688,3.164,25.314,3.506,37.82.012.443-.337.813-.78.825-.444.012-.813-.338-.825-.781-.34-12.437-1.489-24.993-3.487-37.612-1.999-12.62-4.787-24.917-8.307-36.85-.125-.425.118-.872.543-.997ZM154.636,450.742c.443-.012.812.337.825.78.34,12.437,1.488,24.994,3.487,37.613s4.787,24.916,8.306,36.849c.126.426-.117.872-.543.998-.425.125-.872-.118-.997-.543-3.539-12-6.343-24.365-8.352-37.053-2.01-12.687-3.164-25.314-3.507-37.82-.012-.443.338-.812.781-.824Zm571.03,60.044c.432.104.697.538.593.969-5.972,24.833-15.176,48.589-27.209,70.713-.212.389-.699.533-1.089.322-.389-.212-.533-.7-.321-1.089c11.966-22.003,21.119-45.626,27.058-70.322.104-.431.537-.696.968-.593ZM196.755,594.558c.378-.232.872-.114,1.104.264c13.28,21.652,29.285,41.291,47.465,58.518.322.305.335.814.03,1.136-.305.321-.813.335-1.135.03-18.281-17.323-34.374-37.071-47.729-58.844-.232-.378-.113-.872.265-1.104Zm108.44,103.394c.212-.389.699-.533,1.089-.321c22.002,11.966,45.626,21.119,70.321,27.058.432.104.697.537.593.968-.103.432-.537.697-.968.593-24.834-5.972-48.589-15.176-70.713-27.209-.39-.212-.534-.699-.322-1.089Zm349.29-55.322c.321.305.335.813.03,1.135-17.323,18.281-37.071,34.375-58.844,47.729-.378.232-.872.114-1.104-.264s-.114-.873.264-1.105c21.652-13.279,41.291-29.284,58.518-47.464.305-.322.814-.336,1.136-.031ZM450.751,733.349c-.012-.444.337-.813.781-.825c12.436-.341,24.993-1.489,37.612-3.487c12.619-1.999,24.916-4.787,36.85-8.307.425-.125.871.118.997.543.125.426-.118.872-.543.998-12,3.539-24.365,6.342-37.053,8.352-12.687,2.009-25.314,3.164-37.82,3.506-.443.012-.812-.337-.824-.78Z" transform="translate(-443.996506,-443.987503)" clip-rule="evenodd" fill="url(#e4NQ2bPRIVf4-fill)" fill-rule="evenodd"/></g><g id="e4NQ2bPRIVf5_tr" transform="translate(443.998474,443.98848) rotate(0)"><path d="M364.477,175.594c11.573-3.413,23.499-6.117,35.736-8.055c12.237-1.939,24.415-3.052,36.477-3.383.332-.009.609.254.618.586s-.253.609-.585.618c-12.01.329-24.136,1.438-36.321,3.368-12.186,1.93-24.061,4.623-35.584,8.021-.319.094-.654-.088-.748-.407s.088-.654.407-.748Zm-65.935,29.881c.174.284.085.654-.199.828-20.907,12.824-39.872,28.279-56.508,45.835-.229.241-.61.252-.852.023-.241-.229-.251-.61-.023-.851c16.708-17.632,35.755-33.154,56.754-46.033.283-.174.654-.086.828.198ZM508.631,172.2c.078-.323.403-.522.727-.445c23.951,5.761,46.862,14.637,68.2,26.243.292.159.4.524.242.816-.159.293-.525.401-.817.242-21.247-11.556-44.06-20.394-67.907-26.13-.323-.077-.522-.403-.445-.726ZM198.824,310.188c.292.159.4.525.242.817-11.556,21.246-20.394,44.059-26.13,67.906-.078.324-.403.523-.726.445s-.523-.403-.445-.726c5.761-23.951,14.637-46.863,26.242-68.201.159-.292.525-.4.817-.241Zm437.003-69.214c.228-.242.609-.252.851-.023c17.631,16.707,33.153,35.754,46.033,56.753.174.283.085.654-.199.828-.283.174-.654.085-.828-.198-12.824-20.908-28.279-39.873-45.835-56.509-.241-.229-.251-.61-.022-.851ZM164.752,450.679c.332-.009.609.253.618.586.329,12.01,1.438,24.135,3.368,36.321c1.93,12.185,4.622,24.06,8.021,35.584.094.319-.088.654-.407.748s-.654-.089-.748-.408c-3.414-11.573-6.118-23.499-8.056-35.736s-3.052-24.415-3.382-36.476c-.009-.333.253-.609.586-.619ZM711.646,364.06c.319-.094.654.088.748.407c3.413,11.574,6.117,23.499,8.055,35.736c1.938,12.238,3.052,24.415,3.382,36.477.009.332-.253.609-.586.618-.332.009-.609-.253-.618-.585-.329-12.01-1.438-24.136-3.368-36.321-1.93-12.186-4.622-24.061-8.021-35.584-.094-.319.089-.654.408-.748ZM205.485,589.446c.283-.174.654-.085.828.198c12.824,20.908,28.279,39.873,45.835,56.509.241.229.251.61.023.851-.229.241-.61.252-.852.023-17.631-16.708-33.153-35.754-46.033-56.753-.174-.284-.085-.655.199-.828Zm510.302-80.824c.324.077.523.403.445.726-5.76,23.951-14.637,46.862-26.242,68.2-.159.293-.525.401-.817.242s-.4-.525-.241-.817c11.555-21.247,20.394-44.059,26.129-67.907.078-.323.403-.522.726-.444ZM310.198,689.163c.159-.292.524-.4.816-.241c21.247,11.556,44.06,20.394,67.907,26.129.324.078.523.403.445.727-.078.323-.403.522-.726.444-23.952-5.76-46.863-14.637-68.201-26.242-.292-.159-.4-.525-.241-.817Zm336.816-53.346c.241.229.252.61.023.851-16.708,17.631-35.755,33.153-56.754,46.033-.283.174-.654.085-.828-.198-.174-.284-.085-.655.199-.829c20.908-12.824,39.873-28.279,56.509-45.834.228-.242.609-.252.851-.023ZM450.689,723.236c-.009-.333.253-.61.586-.619c12.009-.329,24.135-1.437,36.321-3.367c12.185-1.93,24.06-4.623,35.583-8.021.319-.095.654.088.748.407.095.319-.088.654-.407.748-11.573,3.413-23.499,6.117-35.736,8.055s-24.415,3.052-36.476,3.382c-.333.009-.61-.253-.619-.585Z" transform="translate(-443.998474,-443.98848)" clip-rule="evenodd" fill="url(#e4NQ2bPRIVf5-fill)" fill-rule="evenodd"/></g><g id="e4NQ2bPRIVf6_tr" transform="translate(444.001984,443.993454) rotate(0)"><path d="M375.569,181.774c8.501-2.208,17.187-4.025,26.042-5.427c8.855-1.403,17.677-2.359,26.445-2.886.221-.014.411.155.425.376.013.222-.156.412-.377.425-8.741.526-17.538,1.48-26.367,2.878s-17.49,3.21-25.966,5.411c-.215.056-.434-.073-.49-.288-.056-.214.073-.433.288-.489Zm-49.326,18.528c.096.199.013.439-.187.536-16.066,7.786-31.168,17.087-45.152,27.691-.177.134-.429.1-.563-.077s-.099-.428.078-.562c14.025-10.636,29.172-19.965,45.287-27.775.2-.096.44-.013.537.187Zm154.45-24.463c.031-.22.233-.373.453-.343c17.739,2.448,35.028,6.639,51.653,12.42.21.073.321.302.248.511-.073.21-.302.321-.511.248-16.577-5.764-33.814-9.943-51.5-12.383-.22-.031-.373-.233-.343-.453Zm99.786,34.503c.112-.191.358-.255.549-.143c15.307,8.983,29.709,19.447,42.982,31.229.166.147.181.4.034.566s-.401.181-.567.034c-13.234-11.747-27.593-22.18-42.855-31.136-.192-.113-.256-.359-.143-.55ZM242.003,263.951c.166.148.181.401.034.567-11.747,13.235-22.18,27.594-31.137,42.856-.112.191-.358.255-.549.143s-.255-.358-.143-.55c8.983-15.307,19.446-29.708,31.228-42.982.148-.166.401-.181.567-.034Zm417.54,16.382c.177-.134.429-.1.563.077c10.636,14.025,19.965,29.173,27.774,45.287.097.2.013.44-.186.537-.2.096-.44.013-.537-.186-7.786-16.067-17.087-31.169-27.691-45.153-.134-.177-.099-.428.077-.562ZM188.436,354.949c.21.073.32.301.248.511-5.765,16.576-9.943,33.813-12.384,51.499-.03.22-.232.374-.452.343-.22-.03-.373-.233-.343-.452c2.447-17.74,6.639-35.028,12.42-51.654.073-.209.302-.32.511-.247Zm-14.59,104.566c.221-.014.412.155.425.376.526,8.742,1.479,17.539,2.878,26.368c1.398,8.829,3.209,17.49,5.411,25.966.056.215-.073.434-.288.489-.214.056-.434-.073-.489-.287-2.208-8.502-4.025-17.188-5.427-26.043-1.403-8.854-2.359-17.677-2.887-26.444-.013-.222.156-.412.377-.425Zm531.886-84.243c.215-.055.434.073.49.288c2.207,8.501,4.024,17.188,5.427,26.042c1.402,8.855,2.359,17.678,2.886,26.445.013.221-.156.412-.377.425s-.411-.155-.425-.377c-.525-8.741-1.479-17.538-2.878-26.367-1.398-8.829-3.209-17.49-5.411-25.966-.055-.215.073-.434.288-.49ZM200.31,561.753c.2-.097.44-.013.537.186c7.786,16.067,17.087,31.169,27.691,45.152.134.177.1.429-.077.563s-.429.099-.563-.077c-10.636-14.026-19.964-29.173-27.774-45.288-.096-.199-.013-.439.186-.536Zm511.846-81.069c.22.031.374.233.343.453-2.447,17.739-6.639,35.028-12.42,51.654-.073.209-.302.32-.511.247s-.32-.302-.247-.511c5.764-16.576,9.943-33.813,12.383-51.5.03-.219.233-.373.452-.343ZM677.653,580.47c.192.112.256.358.143.549-8.983,15.307-19.446,29.709-31.228,42.983-.147.165-.401.18-.567.033s-.181-.401-.034-.567c11.748-13.234,22.18-27.593,31.137-42.855.112-.191.358-.255.549-.143ZM263.96,645.992c.147-.165.401-.181.567-.033c13.235,11.747,27.594,22.179,42.856,31.136.191.112.255.358.143.55-.113.191-.359.255-.55.143-15.307-8.984-29.708-19.447-42.982-31.229-.166-.147-.181-.401-.034-.567Zm90.997,53.567c.073-.209.302-.32.512-.247c16.576,5.764,33.813,9.943,51.499,12.383.22.03.373.233.343.453-.03.219-.233.373-.453.342-17.739-2.447-35.027-6.638-51.653-12.42-.21-.073-.32-.301-.248-.511Zm252.706-40.024c.134.176.099.428-.077.562-14.026,10.636-29.173,19.965-45.288,27.774-.2.097-.44.014-.536-.186-.097-.2-.014-.44.186-.536c16.067-7.786,31.168-17.087,45.152-27.692.177-.134.429-.099.563.078Zm-148.14,54.614c-.013-.221.156-.411.377-.425c8.742-.525,17.538-1.479,26.368-2.877c8.829-1.399,17.49-3.21,25.966-5.411.214-.056.433.073.489.287.056.215-.073.434-.287.49-8.502,2.208-17.188,4.024-26.043,5.427-8.855,1.402-17.677,2.359-26.445,2.886-.221.013-.411-.155-.425-.377Z" transform="translate(-444.001984,-443.993454)" clip-rule="evenodd" fill="url(#e4NQ2bPRIVf6-fill)" fill-rule="evenodd"/></g><g id="e4NQ2bPRIVf7_tr" transform="translate(444.003998,443.975983) rotate(0)"><path d="M378.082,191.379c8.189-2.127,16.557-3.877,25.086-5.228c8.53-1.351,17.029-2.272,25.475-2.78.111-.007.206.077.212.188.007.111-.077.206-.188.212-8.433.508-16.919,1.428-25.436,2.777s-16.872,3.096-25.049,5.219c-.107.028-.216-.036-.244-.143-.028-.108.036-.217.144-.245Zm101.476-5.876c.015-.11.117-.187.227-.171c17.088,2.357,33.742,6.395,49.757,11.964.105.036.161.151.124.255-.036.105-.151.161-.255.124-15.991-5.56-32.619-9.592-49.681-11.946-.11-.015-.187-.116-.172-.226ZM330.317,209.14c.048.1.007.22-.093.269-15.499,7.511-30.068,16.483-43.558,26.713-.088.067-.214.05-.281-.039-.067-.088-.05-.214.039-.281c13.51-10.246,28.102-19.232,43.625-26.755.1-.048.22-.006.268.093Zm245.41,9.692c.056-.095.179-.127.274-.071c14.746,8.653,28.619,18.733,41.406,30.083.082.073.09.2.016.283-.073.083-.2.09-.283.017-12.767-11.332-26.619-21.396-41.342-30.037-.095-.056-.127-.179-.071-.275ZM249.155,270.556c.083.074.09.201.017.284-11.332,12.767-21.396,26.619-30.037,41.342-.056.095-.179.127-.274.071-.096-.056-.128-.179-.072-.275c8.654-14.745,18.733-28.618,30.083-41.405.073-.083.2-.09.283-.017Zm402.741,15.801c.089-.067.215-.05.282.038c10.245,13.511,19.232,28.102,26.754,43.626.049.1.007.22-.093.268-.099.048-.22.007-.268-.093-7.511-15.499-16.483-30.068-26.713-43.558-.067-.088-.05-.214.038-.281ZM197.579,358.314c.105.036.161.15.124.255-5.56,15.991-9.592,32.619-11.946,49.681-.015.11-.116.187-.226.171-.11-.015-.187-.116-.171-.226c2.357-17.088,6.395-33.742,11.964-49.758.036-.104.151-.16.255-.123Zm-13.992,100.81c.111-.006.206.078.213.189.507,8.432,1.427,16.918,2.776,25.435c1.349,8.518,3.096,16.873,5.22,25.049.027.108-.037.217-.144.245-.108.028-.217-.036-.245-.144-2.127-8.189-3.877-16.557-5.228-25.087s-2.272-17.029-2.78-25.474c-.007-.111.077-.206.188-.213ZM696.356,377.91c.107-.028.217.036.245.143c2.127,8.19,3.877,16.557,5.228,25.087s2.272,17.029,2.78,25.475c.007.111-.078.206-.188.212-.111.007-.206-.077-.213-.188-.507-8.433-1.427-16.919-2.776-25.436s-3.096-16.872-5.22-25.049c-.028-.107.037-.217.144-.244ZM209.169,557.663c.099-.049.219-.007.268.093c7.511,15.499,16.483,30.068,26.713,43.558.067.088.05.214-.039.281-.088.067-.214.05-.281-.039-10.245-13.511-19.232-28.102-26.755-43.625-.048-.1-.006-.22.094-.268ZM702.477,479.53c.11.015.186.117.171.227-2.357,17.088-6.395,33.742-11.964,49.757-.037.105-.151.161-.256.124-.104-.036-.16-.151-.123-.255c5.56-15.991,9.591-32.62,11.945-49.681.016-.11.117-.187.227-.172Zm-33.33,96.169c.096.056.128.179.072.274-8.654,14.746-18.733,28.619-30.083,41.405-.073.083-.2.091-.283.017-.083-.073-.091-.2-.017-.283c11.332-12.767,21.396-26.619,30.037-41.342.056-.096.179-.128.274-.071ZM270.584,638.825c.074-.083.201-.091.284-.017c12.767,11.332,26.619,21.396,41.342,30.036.095.057.127.18.071.275-.056.096-.179.128-.275.072-14.745-8.654-28.618-18.733-41.405-30.083-.083-.073-.09-.2-.017-.283ZM358.342,690.4c.036-.104.15-.16.255-.123c15.991,5.56,32.619,9.591,49.681,11.945.11.016.187.117.171.227-.015.109-.116.186-.226.171-17.088-2.358-33.742-6.395-49.758-11.964-.104-.037-.16-.151-.123-.256Zm243.281-38.532c.067.089.05.215-.039.282-13.511,10.245-28.102,19.232-43.625,26.754-.1.049-.22.007-.268-.093-.049-.1-.007-.22.093-.268c15.499-7.511,30.068-16.484,43.558-26.713.088-.067.214-.05.281.038ZM459.152,704.393c-.006-.111.078-.206.189-.213c8.432-.507,16.918-1.427,25.436-2.776c8.517-1.349,16.872-3.096,25.048-5.22.108-.028.217.037.245.144s-.036.217-.144.245c-8.189,2.127-16.557,3.876-25.087,5.227s-17.029,2.273-25.474,2.781c-.111.007-.206-.078-.213-.188Z" transform="translate(-444.003998,-443.975983)" clip-rule="evenodd" fill="url(#e4NQ2bPRIVf7-fill)" fill-rule="evenodd"/></g></g></svg>
